<?xml version="1.0" encoding="UTF-8"?>
<svg id="Ebene_2" data-name="Ebene 2" xmlns="http://www.w3.org/2000/svg" xmlns:xlink="http://www.w3.org/1999/xlink" viewBox="0 0 1309.52 855.59">
  <defs>
    <style>
      .cls-1 {
        fill: #b9895d;
      }

      .cls-2 {
        fill: #c07a3c;
      }

      .cls-3 {
        fill: #b38256;
      }

      .cls-4 {
        fill: #f5d79c;
      }

      .cls-5 {
        fill: #dabb83;
      }

      .cls-6 {
        fill: #4c515e;
      }

      .cls-7 {
        fill: #b17f53;
      }

      .cls-8 {
        fill: #d5af7f;
      }

      .cls-9 {
        fill: #dbbf98;
      }

      .cls-10 {
        stroke: #1d1d1b;
      }

      .cls-10, .cls-11 {
        fill: none;
        stroke-miterlimit: 10;
      }

      .cls-12 {
        fill: #ad7d52;
      }

      .cls-13 {
        fill: #a9622e;
      }

      .cls-14 {
        fill: #906641;
      }

      .cls-15 {
        fill: #d0a471;
      }

      .cls-16 {
        fill: #faf5de;
      }

      .cls-17 {
        fill: #ca9c5b;
      }

      .cls-18 {
        fill: #8bbcaa;
        opacity: .5;
      }

      .cls-19 {
        fill: #ae7c51;
      }

      .cls-20 {
        fill: #edc882;
      }

      .cls-21 {
        fill: #864f2a;
      }

      .cls-22 {
        fill: #271214;
      }

      .cls-23 {
        fill: #e4c28c;
      }

      .cls-24 {
        fill: #9c724b;
      }

      .cls-25 {
        fill: #868281;
      }

      .cls-26 {
        fill: url(#Unbenannter_Verlauf_444-2);
      }

      .cls-27 {
        fill: #d3b080;
      }

      .cls-28 {
        fill: #dcf3f7;
      }

      .cls-29 {
        fill: #c79569;
      }

      .cls-30 {
        fill: #f3d499;
      }

      .cls-31 {
        fill: #46201c;
      }

      .cls-32 {
        fill: #ddbb8c;
      }

      .cls-33 {
        fill: #807f81;
      }

      .cls-34 {
        fill: #391917;
      }

      .cls-35 {
        fill: #edd3a9;
      }

      .cls-36 {
        fill: #b56e33;
      }

      .cls-37 {
        fill: #d9b789;
      }

      .cls-38 {
        fill: #807c7d;
      }

      .cls-39 {
        fill: #8d8b88;
      }

      .cls-40 {
        fill: #aa774c;
      }

      .cls-41 {
        fill: #e9c991;
      }

      .cls-42 {
        fill: #b38155;
      }

      .cls-43 {
        fill: #f8e1b2;
      }

      .cls-44 {
        fill: #c6c9c4;
      }

      .cls-45 {
        fill: #a8a9a7;
      }

      .cls-46 {
        fill: #a3a19c;
      }

      .cls-47 {
        fill: #9d9d99;
      }

      .cls-48 {
        fill: #703e22;
      }

      .cls-49 {
        fill: #8a8a8c;
      }

      .cls-50 {
        fill: #623020;
      }

      .cls-51 {
        fill: #b48444;
      }

      .cls-52 {
        fill: #955e30;
      }

      .cls-53 {
        fill: #885236;
      }

      .cls-54 {
        fill: #cda676;
      }

      .cls-55 {
        fill: #fae8bf;
      }

      .cls-56 {
        fill: #cb9d5d;
      }

      .cls-57 {
        fill: #d4ac74;
      }

      .cls-58 {
        fill: #b18145;
      }

      .cls-59 {
        fill: #535966;
      }

      .cls-60 {
        fill: #7e7d7c;
      }

      .cls-61 {
        fill: #e6c087;
      }

      .cls-62 {
        fill: #c99b5b;
      }

      .cls-63 {
        fill: #e0c092;
      }

      .cls-64 {
        fill: #c19151;
      }

      .cls-65 {
        fill: #2e1312;
      }

      .cls-66 {
        fill: #fceccb;
      }

      .cls-67 {
        fill: #b48356;
      }

      .cls-68 {
        fill: #eacd9b;
      }

      .cls-69 {
        fill: #a5a6a2;
      }

      .cls-70 {
        fill: #b8895d;
      }

      .cls-71 {
        fill: #b48357;
      }

      .cls-72 {
        fill: #c89e72;
      }

      .cls-73 {
        fill: #daf2f6;
      }

      .cls-74 {
        fill: #babbb8;
      }

      .cls-75 {
        fill: #e1ba84;
      }

      .cls-76 {
        fill: #d4ae7f;
      }

      .cls-77 {
        fill: #b38156;
      }

      .cls-78 {
        fill: #8f8c8c;
      }

      .cls-79 {
        fill: #d5b080;
      }

      .cls-80 {
        fill: #b7b8b4;
      }

      .cls-81 {
        fill: #cfa775;
      }

      .cls-82 {
        fill: #cdad82;
      }

      .cls-83 {
        fill: #371917;
      }

      .cls-84 {
        fill: #e4c69c;
      }

      .cls-85 {
        fill: #a07347;
      }

      .cls-86 {
        fill: #8b5b28;
      }

      .cls-87 {
        fill: #b48341;
      }

      .cls-88 {
        fill: #535965;
      }

      .cls-89 {
        fill: #be8c60;
      }

      .cls-90 {
        fill: #fff;
      }

      .cls-91 {
        fill: #d1a96f;
      }

      .cls-92 {
        fill: #976941;
      }

      .cls-93 {
        fill: #ecd1a6;
      }

      .cls-94 {
        fill: #c89f6e;
      }

      .cls-95 {
        fill: #ca9b59;
      }

      .cls-96 {
        fill: #734122;
      }

      .cls-97 {
        fill: #f6e5bd;
      }

      .cls-98 {
        fill: #abadaa;
      }

      .cls-99 {
        fill: #bf915c;
      }

      .cls-100 {
        fill: #d6f1f5;
      }

      .cls-101 {
        fill: #ca9b57;
      }

      .cls-102 {
        fill: #9f6837;
      }

      .cls-103 {
        fill: #c18f4f;
      }

      .cls-104 {
        fill: #6d3423;
      }

      .cls-105 {
        fill: #8e6139;
      }

      .cls-106 {
        fill: #dcc1a1;
      }

      .cls-107 {
        fill: #ce9f5f;
      }

      .cls-108 {
        fill: #774423;
      }

      .cls-109 {
        fill: #aa7941;
      }

      .cls-110 {
        fill: #301717;
      }

      .cls-111 {
        fill: #d5ae77;
      }

      .cls-112 {
        fill: #e3c59b;
      }

      .cls-113 {
        fill: #efcb81;
      }

      .cls-114 {
        fill: #804c2f;
      }

      .cls-115 {
        fill: #d3005e;
      }

      .cls-116 {
        fill: #d2b795;
      }

      .cls-117 {
        fill: #e0bf90;
      }

      .cls-11 {
        stroke: #000;
      }

      .cls-118 {
        fill: #daf2f5;
      }

      .cls-119 {
        fill: #c5986a;
      }

      .cls-120 {
        fill: #c99e6f;
      }

      .cls-121 {
        fill: #a4784d;
      }

      .cls-122 {
        fill: #ddbc8e;
      }

      .cls-123 {
        fill: #545966;
      }

      .cls-124 {
        fill: #c2c4c1;
      }

      .cls-125 {
        fill: #908f91;
      }

      .cls-126 {
        fill: #cdaa78;
      }

      .cls-127 {
        fill: #6f3d20;
      }

      .cls-128 {
        fill: #f6e7be;
      }

      .cls-129 {
        fill: #f5deac;
      }

      .cls-130 {
        fill: url(#Unbenannter_Verlauf_285);
      }

      .cls-131 {
        fill: url(#Unbenannter_Verlauf_284);
      }

      .cls-132 {
        fill: url(#Unbenannter_Verlauf_895);
      }

      .cls-133 {
        fill: url(#Unbenannter_Verlauf_903);
      }

      .cls-134 {
        fill: url(#Unbenannter_Verlauf_885);
      }

      .cls-135 {
        fill: url(#Unbenannter_Verlauf_444);
      }

      .cls-136 {
        fill: url(#Unbenannter_Verlauf_148);
      }

      .cls-137 {
        fill: #4c231e;
      }

      .cls-138 {
        fill: #f3e3c0;
      }

      .cls-139 {
        fill: #eacb94;
      }

      .cls-140 {
        fill: #d0ac7f;
      }

      .cls-141 {
        fill: #693423;
      }

      .cls-142 {
        fill: #ebc785;
      }

      .cls-143 {
        fill: #e1bd85;
      }

      .cls-144 {
        fill: #7e7878;
      }

      .cls-145 {
        fill: #a30752;
      }

      .cls-146 {
        fill: #e8c891;
      }

      .cls-147 {
        fill: #131414;
      }

      .cls-148 {
        fill: #3c1b18;
      }

      .cls-149 {
        fill: #8c8e90;
      }

      .cls-150 {
        fill: #682e0f;
      }

      .cls-151 {
        fill: #9c978d;
      }

      .cls-152 {
        fill: #6d3221;
      }

      .cls-153 {
        fill: #92673f;
      }

      .cls-154 {
        fill: #944e23;
      }

      .cls-155 {
        fill: #bb8c4a;
      }

      .cls-156 {
        fill: #ae7d53;
      }

      .cls-157 {
        fill: #cda375;
      }

      .cls-158 {
        fill: #f2d292;
      }

      .cls-159 {
        fill: #eacfa3;
      }

      .cls-160 {
        fill: #c49668;
      }

      .cls-161 {
        fill: #333646;
      }

      .cls-162 {
        fill: #824b2d;
      }

      .cls-163 {
        fill: #a4764f;
      }

      .cls-164 {
        fill: #bd8b48;
      }
    </style>
    <linearGradient id="Unbenannter_Verlauf_895" data-name="Unbenannter Verlauf 895" x1="630.43" y1="464.7" x2="299.95" y2="589.26" gradientUnits="userSpaceOnUse">
      <stop offset="0" stop-color="#c29764"/>
      <stop offset="1" stop-color="#f1d7a6"/>
    </linearGradient>
    <linearGradient id="Unbenannter_Verlauf_885" data-name="Unbenannter Verlauf 885" x1="1054.39" y1="363.12" x2="746.74" y2="505.74" gradientUnits="userSpaceOnUse">
      <stop offset=".12" stop-color="#ecd3a8"/>
      <stop offset="1" stop-color="#b08457"/>
    </linearGradient>
    <linearGradient id="Unbenannter_Verlauf_903" data-name="Unbenannter Verlauf 903" x1="848.23" y1="558.8" x2="1101.99" y2="760" gradientUnits="userSpaceOnUse">
      <stop offset="0" stop-color="#2c1414"/>
      <stop offset="1" stop-color="#502620"/>
    </linearGradient>
    <linearGradient id="Unbenannter_Verlauf_284" data-name="Unbenannter Verlauf 284" x1="68.68" y1="108.33" x2="206.99" y2="133.86" gradientTransform="translate(32.33 -93.47) rotate(5.79)" gradientUnits="userSpaceOnUse">
      <stop offset="0" stop-color="#f9e3bc"/>
      <stop offset="1" stop-color="#f0ce8b"/>
    </linearGradient>
    <linearGradient id="Unbenannter_Verlauf_285" data-name="Unbenannter Verlauf 285" x1="292.67" y1="168.51" x2="64.23" y2="191.23" gradientTransform="translate(32.33 -93.47) rotate(5.79)" gradientUnits="userSpaceOnUse">
      <stop offset="0" stop-color="#ecc26c"/>
      <stop offset="1" stop-color="#fdeac5"/>
    </linearGradient>
    <linearGradient id="Unbenannter_Verlauf_148" data-name="Unbenannter Verlauf 148" x1="596.97" y1="78.06" x2="649.68" y2="157.49" gradientUnits="userSpaceOnUse">
      <stop offset="0" stop-color="#858e9a"/>
      <stop offset="1" stop-color="#525866"/>
    </linearGradient>
    <linearGradient id="Unbenannter_Verlauf_444" data-name="Unbenannter Verlauf 444" x1="618.93" y1="141.89" x2="617.8" y2="163.35" gradientUnits="userSpaceOnUse">
      <stop offset="0" stop-color="#131414"/>
      <stop offset="1" stop-color="#333646"/>
    </linearGradient>
    <linearGradient id="Unbenannter_Verlauf_444-2" data-name="Unbenannter Verlauf 444" x1="688.6" y1="139.21" x2="688.6" y2="174.97" xlink:href="#Unbenannter_Verlauf_444"/>
  </defs>
  <g id="start">
    <path class="cls-18" d="M87.86,47.23c14.75,2.91,24.59,17.83,26.89,32.69,3.65,23.46-7.13,46.64-8.75,70.33-1.62,23.68,13.75,52.88,37.26,49.62,18.76-2.61,30.23-24.65,49-27.21,18.67-2.54,34.35,16.59,36.21,35.34,1.86,18.75-5.68,36.96-11.32,54.94-10.29,32.79-14.55,67.47-12.51,101.77,23.47-17.36,46.93-34.72,70.4-52.08,5.47-4.04,12.77-8.22,18.58-4.68,5.21,3.18,5.56,10.49,5.31,16.59-1.05,25.33-16.5,45.37-3.16,75.99,13.34,30.62,61.17,14.58,72.42,24.54,18.46,16.35,42.96,23.59,65.44,33.71,22.48,10.12,45.17,25.61,51.83,49.35-93.96-53.67-227.94-18.52-283.46,74.35-6.13,10.26-11.54,22.2-8.74,33.82,6.88,28.58,49.99,25.86,71.75,45.61-91.26,19.29-180.34,48.88-265,88.05,189.09,19.21,380.43,32.18,568.81,6.94,103.12-13.82,205.82-39.09,309.72-33.57,144.19,7.66,280.67,74.19,424.97,79.37,2.29-27.2-16.21-51.54-35.56-70.8-51.77-51.52-116.13-88.22-180.06-123.54,74.47-5.14,151.57,34.33,221.65,8.63-107.24-53.09-211-113.23-310.38-179.89,17.66-48.86,21.56-102.6,11.14-153.5-4.46-21.8-11.84-43.7-26.5-60.44-14.66-16.74-37.82-27.39-59.48-22.32-38.24,8.95-52.85,58.03-87.95,75.65-6.2-32.76-50.95-36.88-78.22-56.07-25.02-17.61-37.8-51.46-66.6-61.8-24.65-8.85-52.18,3.4-72.15,20.34s-35.72,38.66-56.9,54.07c-21.18,15.41-51.24,23.41-73.32,9.32-17.84-11.38-25.12-33.23-34.93-51.97-9.81-18.74-27.91-37.54-48.68-33.52-16.57,3.2-26.72,19.32-37.42,32.38-10.7,13.06-28.72,24.91-43.42,16.61-7.69-4.34-11.78-13.02-14.55-21.41-13.33-40.33-7.18-85.28-21.51-125.27-5.36-14.96-15.78-30.47-31.55-32.36-28.7-3.43-41.72,37.14-68.18,48.78-1.03-10.06-9.9-17.22-18.05-23.2-9.82-7.2-19.64-14.4-29.46-21.6"/>
    <g id="Generatives_Objekt" data-name="Generatives Objekt">
      <path class="cls-85" d="M654.63,325.86c-.17,1.51-.12,3.24.07,4.75-1.69,1.39-2.11-1.65-3.28-2.06-9.85-3.45-20.17-3.86-31.14-3.8,4.53,47.67,11.02,94.15,18.75,141.02,6.82,41.35,16.67,81.35,29.25,121.32,1.28,4.08,2.45,7.7,2.69,11.43-14.59,1.03-28.8,5-43.2,7.4-1.42.24-2.45,1.13-3.85,1.48,10.05,17.02-12.89-74.95-10.23-65.68l-1.95-6.81-3.79-24.74c-9.27-60.58-10.71-122.35-12.1-184.02,2.45-2.05,5.09-1.08,6.16-2.85,5.05-.09,10.11-1.24,15.58-1.77,12.73-1.25,25,2.15,37.05,4.34Z"/>
      <path class="cls-159" d="M341.13,731.84l-16.55,6.43c-.58.23-1.05-.5-1.56-.44l-14.02-71.83c-2.81-14.4-4.64-28.13-5.65-42.73-1.19-17.16-1.07-56.42,1.19-72.67-.22,1.56,3.07-26.3.44-20.69,2.92-20.82,7.38-41.36,13.84-62.19.6-1.94.91-3.16.52-4.46,1.98-2.1,4.26-3.6,6.98-4.73l-7.04,52.73c-3.8,28.45-4.33,55.68-4.04,84.44.49,47.22,10.16,92.55,25.87,136.13Z"/>
      <path class="cls-146" d="M314.26,469.07c-1.01,6.54-3.57,12.74-5.48,19.96-5.85,22.2-9.2,44.34-11.1,66.44-.31-.51-1.71-.14-1.77.55l-.8,9.5c-.03.41-1.38,1.62-1.11,1.91.37.41-2.29-1.85-2.36-1.12-2.82,30.31-3.23,60.57,2.29,90.51l11.84,64.28c1.56,8.44,1.41,16.22-.38,24.49,3.87-.23,7.74-.85,10.29-3.21,1.33-.34,3.33-.21,4.61-1.11.76-.53,2.21.33,2.32-.76.13-1.25.57-1.85.4-2.69.52-.05.99.67,1.56.44l16.55-6.43c.16.45-.28,1.34.12,1.96s2.3.06,3.08,1.02c1.37,1.69-.16,4.12,1.63,5.17-1.16.22-2.21,1.59-3.55,1.65-1.35.05-2.98.52-3.25,1.66-12.75.83-25.49,5.57-39.78,5.28,2.44-13.81.01-26.11-3.56-39.22-20.4-74.94-17.53-145.99-1.99-220.8,1.23-5.9,4.52-9.73,9.99-12.54,3.83-1.97,6.47-6.1,10.44-6.95Z"/>
      <path class="cls-153" d="M304.98,529.93l-1.74,12.4-1.13,12.68c-3.59,40.42-2.63,75.39,5.3,115.69l11.55,58.74c.86,4.36,1.7,8.14,1.33,11.85-1.28.9-3.28.78-4.61,1.11-.04-2.12.13-4.45-.41-7.19-14.7-73.98-24.22-102.41-17.59-179.72,1.9-22.1,5.25-44.25,11.1-66.44,1.9-7.23,4.46-13.42,5.48-19.96.48-3.08,3.3-3.91,5.08-5.8.4,1.3.08,2.52-.52,4.46-6.46,20.83-10.92,41.38-13.84,62.19Z"/>
      <path class="cls-72" d="M607.95,510.16l3.79,24.74,1.95,6.81c-.65-.02-1.36-.46-2.65-.28-.46,3.5.5,6.42.69,10.02-22.86,6.29-43.46,14.56-64.91,23.3-1.79.73-2.99-.39-3.31-1.48l27.65-11.59c.39-.16-.92-1.64-1.14-2-.35-.56.87-1.41.91-2.79-9.29,2.23-17.41,6.02-26.58,9.82-22.98,9.51-44.98,18.88-67.31,29.76-4.4,2.14-7.85,6.86-12.35,8.03-5.6,1.45-9.61,3.36-14.21,6.85-6.04,4.58-13.93,6.17-19.87,9.06.08-1.81-.84-1.03-2.06-.53l-34.16,14.06c-5.1-3.17-9.26-6.64-14.25-8.52,1.99-2.22,1.24-5.94,2.4-8.1,1.38-2.58,4.14-5.02,4.77-8.79.87-5.13,4.16-7,9.42-8.69-2.19-.69-4.08.62-6.7,1.48-.93-.59-.06-2.22.34-3.24,13.46-7.12,27.81-12.55,42.54-19.2l37.38-16.86,1.79-.43c.93-.22,2-.3,1.14.67l-49.17,23.47c9.42-2.14,16.87-6.39,25.13-10.21,48.01-22.22,97.74-42.32,150.47-57.93,1.52-.45,2.48-1.29,2.59-2.27s.43-3.11-1.17-2.88c2.25-.51,4.17-3.22,6.9-2.28Z"/>
      <path class="cls-97" d="M627.77,605.92c-.34,1.02.34,1.46,1.34,1.91.89.4.21.96-.25,1.94-.15.55-.61.91-1.16,1.04-46.77,10.88-91.6,28.38-134.82,51.37l-58.41,31.08c-21.99,11.7-43.63,22.37-66.51,32.15-2.51,1.07-3.1,3.41-2.88,4.33,10.19-2.66,18.67-5.55,27.56-10.01l69.84-34.97c-.01.64,1.36,1.39.94,1.76s-.63,2.09-1.47,2.54l-42.07,22.67-31.54,15.19c-7.04,3.39-14.16,5.32-20.93,7.61-4.61,1.56-9.5,2.31-14.02,4.18-2.26.93-5.07.84-7.42,1.29-1.79-1.04-.26-3.48-1.63-5.17-.79-.96-2.69-.42-3.08-1.02s.04-1.51-.12-1.96l40.3-16.7c35.96-14.9,68.74-34.07,103.03-52.48,44.7-24,90.82-43.3,139.46-55.27,1.4-.35,2.43-1.24,3.85-1.48Z"/>
      <path class="cls-75" d="M601.04,512.44c1.6-.23,1.29,1.92,1.17,2.88s-1.08,1.82-2.59,2.27c-52.73,15.61-102.46,35.71-150.47,57.93-8.25,3.82-15.7,8.07-25.13,10.21l49.17-23.47c14.72-7.03,31.38-11.57,45.42-20.64,4.19-2.71,7.11-3.13,11.32-4.55,23.81-8.04,46.71-19.05,71.11-24.63Z"/>
      <g>
        <path class="cls-132" d="M602,323.29c-1.07,1.77-3.71.79-6.16,2.85,1.39,61.67,2.83,123.44,12.1,184.02-2.73-.94-4.66,1.77-6.9,2.28-24.4,5.58-47.3,16.59-71.11,24.63-4.21,1.42-7.13,1.84-11.32,4.55-14.04,9.07-30.7,13.61-45.42,20.64.86-.97-.2-.89-1.14-.67l-1.79.43-37.38,16.86c-14.73,6.65-29.08,12.08-42.54,19.2-2.67,1.41-7.16.71-9.35,4.44-4.51,7.67-8,16-10.91,24.55,6.66,6.95,13.42,11.95,21.84,16.13,18.79-7.1,35.78-15.35,54.03-23.86l71.83-33.51c5.97-2.78,11.21-5.63,16.38-9.04,2.78-1.84,6.55-2.36,9.33-3.52.32,1.08,1.52,2.2,3.31,1.48,21.45-8.74,42.05-17.01,64.91-23.3-.19-3.6-1.14-6.52-.69-10.02,1.3-.18,2.01.26,2.65.28-2.66-9.27,20.29,82.7,10.23,65.68-48.64,11.97-94.76,31.27-139.46,55.27-34.29,18.41-67.07,37.58-103.03,52.48l-40.3,16.7c-15.71-43.58-25.39-88.91-25.87-136.13-.3-28.76.24-55.99,4.04-84.44l7.04-52.73c.95-2.01,2.89-3.89,5.21-5.43l34.53-22.98,51.57-30.62c12.86-7.64,25.82-13.1,38.87-20.04l28.95-15.38,21.57-9.95c20.77-9.58,75.9-30.52,94.97-30.84Z"/>
        <g>
          <path class="cls-29" d="M509.25,421.31c8.65-6.37,20.03-6.3,28.04-15.04-43.13,17.39-84.01,39.15-124.52,62.02-20.19,11.4-39.61,22.08-60.57,32.07-1.49-3.67-1-7.08-.71-10.94,78.16-38.6,147.52-84.02,231.92-110.41,1.21,3.46,1.75,7.85.02,10.67-2.28,1.82-6.53,1.38-9.76,3.3.62,1.47,2.12,2.38,2.13,4.12-19.35,6.55-37.71,13.79-56.08,22.67-4.68,2.26-9.08,4.05-13.92,5.66-.46-2.49,1.36-3.75,3.44-4.11Z"/>
          <path class="cls-29" d="M540.79,426.69c-5.96.19-10.58,3.03-16.56,5.65-44.1,19.3-85.76,41.53-127.34,65.12-14.74,8.37-28.83,15.72-43.99,23.06-1-4.55-.93-7.86-.27-11.52l76.63-40.02c52.18-27.25,98.72-51.47,154.86-69.31,1.44,4.3.78,8.41-1.09,11.71,2.37.8,2.48,1.8,1.31,3.19-.87,1.03-1.95.77-3.34,1.25-14.84,5.12-29.29,10.51-43.86,16.47-9.61,3.93-18.12,9.91-28.45,11.62l32.09-17.21Z"/>
          <path class="cls-139" d="M549.35,474.32c-42.28,16.87-83.28,35.78-122.97,58.22-1.19.67-2.29.69-2.8.32-.48-.35-.83-2.19-1.48-2.8-6.03.6-11.15,6.57-18.06,4.93,12.59-8.24,24.49-13.58,37.22-20.49,33.32-18.1,66.45-34.58,101.9-48.23,1.35,1.66-.8,2.51-1.92,2.98l-27.45,11.54c-1.12.47-1.38,1.8-2,1.66-.79-.18-.15,2.97.9,2.51,13.09-5.71,25.3-11.76,38.63-16.21,1.25-.42,1.2,2.51,1.04,3.2-.24,1.07-1.26,1.68-3.02,2.38Z"/>
          <path class="cls-41" d="M533.5,460.46c-37.74,16.27-74.67,33.45-110.54,53.3-1.5.83-2.76.94-3.68-.23-.75-.94.89-1.96,1.07-4.32-.07-2.03-6.48,5.1-8.64,1.89-.34-.5-.14-1.44,1.27-2.19l51.46-27.52c23.98-12.82,48.1-24.05,74.29-33.87,3.45,3.22-36.98,14.53-27.39,16.64.89.2,1.48-.21,2.23-.53l32.27-13.77c1.86-.79,2.07,1.63,2.42,2.58.6,1.63-1.28,2.2-2.97,2.93l-11.78,5.08Z"/>
          <path class="cls-23" d="M501.13,509.9c-3.86,1.55-29.22,15.95-29.67,11.33-.09-.97-1.02-1.83,1.33-2.98l25.52-12.4c.93-.45,2.01-.66,3.15-.28.97.32-.68,2.23-.34,4.34Z"/>
          <path class="cls-143" d="M551.75,492.98c-11.24,4.03-21.96,8.31-33.06,13.35-1.17.53-2.23.69-2.48.15-.28-.61-.34-2.29.81-2.77l32.12-13.39c3.1-1.29,5.92-2.32,9.16-1.1-1.53,2.22-4.05,2.86-6.55,3.76Z"/>
          <path class="cls-15" d="M503.24,425.31c4.78-.68-12.32,8.49-7.64,3.7,2.83-1.83,4.78-2.85,7.64-3.7Z"/>
        </g>
      </g>
      <path class="cls-105" d="M654.7,330.61l3.78,29.35,26.97,153.71,17.19,87.45c-10.1-2.78-21.06-3.34-31.67-2.59-.24-3.72-1.41-7.35-2.69-11.43-12.57-39.98-22.43-79.98-29.25-121.32-7.73-46.87-14.22-93.36-18.75-141.02,10.97-.06,21.29.36,31.14,3.8,1.17.41,1.58,3.45,3.28,2.06Z"/>
      <path class="cls-5" d="M702.64,601.11c.24,1.2,1.31,2.48.29,3.68-24.9-5.37-49.63.53-74.07,4.98.46-.98,1.14-1.55.25-1.94-1.01-.45-1.69-.89-1.34-1.91,14.4-2.4,28.62-6.37,43.2-7.4,10.61-.75,21.56-.19,31.67,2.59Z"/>
      <path class="cls-16" d="M323.01,737.83c.17.85-.28,1.45-.4,2.69-.11,1.09-1.56.23-2.32.76.37-3.72-.47-7.49-1.33-11.85l-11.55-58.74c-7.93-40.3-8.89-75.27-5.3-115.69l1.13-12.68,1.74-12.4c2.63-5.61-.66,22.24-.44,20.69-2.26,16.25-2.38,55.5-1.19,72.67,1.01,14.6,2.84,28.32,5.65,42.73l14.02,71.83Z"/>
      <path class="cls-111" d="M297.68,555.48c-6.63,77.31,2.88,105.74,17.59,179.72.54,2.74.37,5.07.41,7.19-2.55,2.36-6.42,2.98-10.29,3.21,1.79-8.27,1.94-16.04.38-24.49l-11.84-64.28c-5.52-29.93-5.1-60.2-2.29-90.51.07-.73,2.73,1.52,2.36,1.12-.27-.3,1.08-1.5,1.11-1.91l.8-9.5c.06-.7,1.46-1.07,1.77-.55Z"/>
      <path class="cls-24" d="M627.7,610.81c.5.72-.11,2.24-.78,2.77-1.65,1.31-2.69.36-3.87,1.48-.56.52-1.2.76-.35,1.53-27.43,8.4-54.96,17.56-81.58,29.17-1.87.81-4.16,1.9-6.31,2.06-1.76,3.43-4.87,3.02-7.28,3.54-13.26,2.9-25.43,9.78-37.33,16.88l-27.72,16.53-69.84,34.97c-8.89,4.45-17.37,7.35-27.56,10.01-.22-.93.37-3.26,2.88-4.33,22.88-9.77,44.52-20.45,66.51-32.15l58.41-31.08c43.22-22.99,88.06-40.48,134.82-51.37Z"/>
      <g>
        <path class="cls-121" d="M702.69,303.63c-8.46,3.55-16.28,8.56-24.27,14.1l26.94,116.95,21.13,94.06,14.95,60.04c-6.1,2.1-11.28,7.67-17.12,10.34l-21.51-91.21-25.28-124.27-10.16-53.93c-.34-1.8-1.73-3.34-2.26-5.2.57-.32,1.38.43,2.98.91,8.42-12.56,21.47-17.73,33.37-24.34.6.03,1.77-.19,1.71.81-.03.53-.04,1.27-.48,1.73Z"/>
        <path class="cls-57" d="M1033.88,239.6c-.12,1.96.59,4.02,2.1,6.59,28.88,49.3,54.51,99.47,76.68,151.92l22.66,53.6c13.83,32.71,27.9,64.61,45.13,95.85,2.84,5.14,5.93,8.89,9.29,12.56l3.6,3.93c-3.46,2.02-6.56-1.17-8.58-5.13-8.33-2.83-9.84-3.74-19.89-6.16-1.96-.47-4.03-3.23-4.83-5.1l-76.17-178.45-58.25-131.17,8.25,1.56Z"/>
        <path class="cls-112" d="M933.1,293.6c-13.12,1.13-26.22,3.67-39.19,5.42l-18.63,2.51c-3.61-4.71-3.79-9.7-7.96-13.32-.61,5.09,2.33,8.01,3.83,13.85l-29.88,6.21-1.18-.1-14.6-43.18,12.18-2.82c1.52-.35,2.24-.73,2.62-1.27.28-.4,1.08-1.82.13-2.08,15.87-3.16,31.75-6.4,47.66-9.2-2.73,5.47,27.3-1.98,31.66-.62l16.47,41.39c-.98,1.61-2.72,1.82-3.11,3.21Z"/>
        <path class="cls-68" d="M1015,237.71l10.63.34,58.25,131.17,76.17,178.45c-4.55,2.44-9.12-.36-13.72-1.14.36-3.38-1.89-5.84-3.35-9.34-41.33-99.15-84.04-198.23-129.45-296.09-2.59.07-1.47-1.01-.86-2.78.35-1,1.58-.46,2.33-.61Z"/>
        <path class="cls-99" d="M1206.17,568.61c-3.98-1.63-8.46-3.84-12.81-4.55l-3.6-3.93c-.3-.88.95-1.83,1.3-3.57-23.54-41.33-42.29-84.17-60.37-128.27-24.37-59.45-51.69-116.5-84.31-171.53-2.54-4.29-4.22-7.68-5.81-12.07-.55-1.5-3.3-2.46-2.3-4.44,2.69,1.46,7.28,1.61,9.61,4.53,39.62,59.69,70.4,123.13,95.57,189.79,17.06,45.18,42.92,96.71,71.74,135.79-3.41-.64-6.58-.78-9-1.76Z"/>
        <path class="cls-150" d="M665.11,324.52c.54,1.85,1.92,3.4,2.26,5.2l10.16,53.93,25.28,124.27c-.84.7-17.11,7.09-17.37,5.75l-26.97-153.71-3.78-29.35c-.19-1.5-.25-3.24-.07-4.75.34-2.95,2.58-4.85,5.24-4.67,1.74.12,4.01,1.66,5.24,3.33Z"/>
        <path class="cls-93" d="M992.81,289.47c-19.77.54-39.81,2.41-59.71,4.13.38-1.39,2.13-1.61,3.11-3.21l-16.47-41.39c-4.35-1.36-34.39,6.09-31.66.62l10.46-1.84,32.85-4.04c.03,1.41,1.94,2.36,3.74,2.18l37.83-3.75c6.86,14.04,12.66,28.12,20.34,41.78.62,1.11,1.94,2.3,1.35,3.59-.33.72-.56,2-1.84,1.93Z"/>
        <path class="cls-82" d="M1153.16,553.54c3.31.69,7.26-.08,11.28,2.92.95-.89,0-2.47.45-3.69,10.05,2.42,11.56,3.33,19.89,6.16,2.03,3.95,5.12,7.15,8.58,5.13,4.36.71,8.84,2.93,12.81,4.55.36,2.88-9.25-1.53-14.33-1.56-.59,0-2,.46-2.68.41-.44-.03-.58.47-.62,1.2-1.25-.46-1.81-1.74-3.21-1.98-.63-.11-.99-.26-1.64-.25-7.91.15-8.31-3.78-14.83,2.29-.16-1.53,1.46-2.21,1.71-3.1-4.25-2.26-8.62-.74-12.39-1.57-14.61-3.22-72.87-10.33-89.44-10.23-2.38.02-3.68.9-6.31.51-16.17-2.42-33.02-1.62-49.84-.52-9.85.65-18.98.8-28.44,2.31-8.7,1.39-17.39,1-25.9,2.8-17.44,3.7-32.29,3.85-45.47,6.22-2.5.45-5.23-.03-7.76,1.88-2.13,1.6-5.93-.28-8.62,1.03-5.45,2.67-10.23,3.92-16.57,2.93-1.75-.28-3.09,1.2-4.65,1.12-2.89-.14-6.57-.31-8.1,2.32-5.02-.43-10.69,1.99-15.39.05-.33-.73.02-1.06.28-1.44.43-.61,1.45-.81,2.28-.99l42.27-8.8c36.84-7.67,126.19-18,163.32-16.23,11.26.54,22.14,1.26,33.71,2.64l56.19,6.67c1.88.22,3.55-1.88,3.42-2.79Z"/>
        <path class="cls-163" d="M1038.26,240.25c-1,1.98,1.75,2.93,2.3,4.44,1.6,4.38,3.27,7.78,5.81,12.07,32.62,55.03,59.94,112.08,84.31,171.53,18.08,44.11,36.83,86.94,60.37,128.27-.35,1.74-1.6,2.69-1.3,3.57-3.37-3.67-6.46-7.42-9.29-12.56-17.23-31.24-31.3-63.15-45.13-95.85l-22.66-53.6c-22.17-52.45-47.8-102.62-76.68-151.92-1.51-2.57-2.22-4.64-2.1-6.59,1.81.34,2.74-.23,4.38.66Z"/>
        <path class="cls-13" d="M734.43,637.79c-2.99,1.93,2.53,18.31,2.43,17.69-1.02-.33-.84.72-1.91,2.33-1.23-5.6-2.65-10.5-3.35-17.08-4.94,1.05-9.59-.4-13.19,1.22-4.68,2.11,1.8,8.94,2.08,16.11l.87,22.04c.09,2.34,1.5,4.66,1.59,6.88,1.11.27,3.93.7,5.03.71,2.05-.83,4.96-2.31,7.36-1.09.66.34,2.14-.79,2.91-.66,1.22.2.73,2.3,1.52,2.23,1.25-.36.36-2.33.3-3.01-.05-.5,1.2-.35,1.76-.36,4.55,24.47,9.48,47.68,16.23,71.94l-17.5-33.23c-.58-1.67.76-3.86-1.5-5.33-1.92,2.14-.9,4.61-.96,6.62l-1.37,48.18c-4.21-2.32-1.53-6.18-2.02-9.52-3.57-24.65-8.28-47.5-13.32-71.51-3.85-18.35-6.66-35.8-11.52-52.96.8.03,1.15-.76,1.07-1.14,6.13.37,13.54.75,19.8-.38.84-.17-.61-3.63,1.13-3.17l.96,3.5c.12.43,1.07.02,1.6-.02Z"/>
        <path class="cls-2" d="M741.56,681.29c.39,1.11.05,2.42.26,3.52-.56.01-1.81-.15-1.76.36.07.68.96,2.64-.3,3.01-.79.07-.3-2.03-1.52-2.23-.77-.13-2.25,1-2.91.66-2.4-1.22-5.31.26-7.36,1.09-1.1,0-3.92-.44-5.03-.71-.09-2.21-1.49-4.54-1.59-6.88l-.87-22.04c2.91-1.48,5.37.74,8.11,1.61,3.99,1.27,5.98-8.28,10.62,21.61.17,1.07-.46,2.08.53,2.36.73.21.54-1.18.61-1.76.06-.49,1.17-.19,1.2-.61Z"/>
        <path class="cls-36" d="M736.86,655.48c1.58,9.12,1.89,17.79,4.71,25.81-.03.42-1.14.12-1.2.61-.07.58.13,1.97-.61,1.76-.99-.28-.36-1.3-.53-2.36-4.64-29.89-6.62-20.34-10.62-21.61-2.74-.87-5.2-3.1-8.11-1.61-.28-7.17-6.76-14-2.08-16.11,3.6-1.63,8.25-.17,13.19-1.22.69,6.58,2.11,11.48,3.35,17.08,1.07-1.62.89-2.66,1.91-2.33Z"/>
        <path class="cls-90" d="M740.55,723.52c-1.27-.44-1.3,1.51-2.46,1.28.06-2-.96-4.48.96-6.62,2.26,1.47.92,3.67,1.5,5.33Z"/>
        <path class="cls-92" d="M766.04,579.43c.24.82-.27.97-.9,1.19l-23.7,8.16-14.95-60.04-21.13-94.06-26.94-116.95c7.99-5.55,15.81-10.55,24.27-14.1l27.6,113.85,20.89,94.82,14.86,67.13Z"/>
        <path class="cls-128" d="M1146.33,546.53c4.59.78,9.17,3.58,13.72,1.14.8,1.87,2.87,4.63,4.83,5.1-.45,1.22.5,2.79-.45,3.69-4.01-3-7.96-2.23-11.28-2.92-47.24-9.81-96.12-14.26-145.29-11.06-70.37,4.58-174.78,20.39-240.51,41.43-1.59-.18-2.1-1.9-2.21-3.29.63-.22,1.13-.37.9-1.19,21.91-6.4,43.78-12.35,66.72-17.02,46.79-9.53,93.17-16.42,141.02-21.76,61.27-6.83,112.93-4.2,172.55,5.88Z"/>
        <path class="cls-8" d="M885.83,325.76l3.69,10.6c-.98.43-2.57,1.33-3.79,1.54l-73.69,12.46c-19.45,3.29-37.93,7.18-57.54,8.97-1.99.18-4.3-.91-5.35.41-1.22,1.51-.26,3.26-.5,4.6-1.37-.07-2.12-1.04-2.45-1.9-.59-1.52.5-3.08.74-4.16l1.51-6.8c.21-.95-1.81-1.85-.7-2.65.66-.47,1.39-.73,2.12-1.02l76.47-12.2,59.5-9.85Z"/>
        <path class="cls-79" d="M877.67,320.04l-46.58,8.48-42.79,7.86c-13.64,2.51-26.81,5.07-40.94,5.42,1.1-2.99-1.24-8.86-3.32-11.16l101.9-16.32c6-.96,12.76-.67,18.42-4.1,3.13-1.9,6.71-1.82,9.79-2.46-1.24-1.6-1.89-2.96-1.87-3.78.03-1.01,1.63-1.54,2.43-1.5,1.19.05,1.83,1.29,2.54,2.89.64,1.86-2.52,2.93-3.13,4.83,1.26,3.99,3.22,6.65,3.54,9.83Z"/>
        <path class="cls-71" d="M941.25,318.14l-38.91,3.96c-5.79.59-11.23,2.79-16.51,3.67l-59.5,9.85-76.47,12.2c-.16-2.98-3.35-.45-4.17-1.48-1.34-1.68-1.29-3.84-.69-4.59.61-.75,1.38-.13,2.35.05,14.13-.36,27.3-2.92,40.94-5.42l42.79-7.86,46.58-8.48c1.61-.29,3.31.1,4.26-1.13l52.31-6.48,58.51-4.3c1.98-.15,2.86-.25,4.89-1.03,1.83-.71,3.77,5,2.14,6.18l-58.54,4.85Z"/>
        <path class="cls-122" d="M889.17,343.66l4.82,11.85c-4.69.99-8.58,1.4-12.9,2.02l-53.85,7.74c-6.64.96-12.91,1.37-19.54-.45.98-4.59,5.01-5.19,7.61-7.39,3.1-2.62,7.25-3.43,11.48-4.09l62.38-9.69Z"/>
        <path class="cls-70" d="M895.23,342.06l-6.05,1.6-62.38,9.69c-4.24.66-8.39,1.47-11.48,4.09-.17-1.72-1.46-1.75-3.47-1.52-21.64,2.49-42.55,9.43-63.18,8.43.24-1.34-.72-3.09.5-4.6,1.06-1.31,3.36-.23,5.35-.41,19.6-1.79,38.08-5.68,57.54-8.97l73.69-12.46c2.45,7.49,9.52.44,9.49,4.15Z"/>
        <path class="cls-35" d="M992.7,295.53c2.87,1.99-1.07,3.25.06,12.6l-58.51,4.3c1.47-4.9-1.81-5.37,1.81-12.62,18.8-1.75,37.69-5.33,56.65-4.28Z"/>
        <path class="cls-63" d="M941.25,318.14c2.01,10.37,4.1-2.48,1.9,12.05l-53.62,6.18-3.69-10.6c5.28-.88,10.72-3.08,16.51-3.67l38.91-3.96Z"/>
        <path class="cls-156" d="M845.95,314.33l-101.9,16.32c-1.11-1.23-4.26-2.86-2.43-6.65l16.44-1.42c28.13-2.44,56.07-16.72,82.04-14.41l1.18.1c.23,2.9,3.1,3.94,4.68,6.06Z"/>
        <path class="cls-42" d="M992.81,289.47c.7,2.14,1.77,4.41-.11,6.07-18.96-1.05-37.85,2.53-56.65,4.28l-40.74,3.79-1.41-4.59c12.97-1.75,26.08-4.29,39.19-5.42,19.9-1.72,39.95-3.59,59.71-4.13Z"/>
        <g>
          <path class="cls-134" d="M1015,237.71c-.74.16-1.98-.39-2.33.61-.62,1.76-1.73,2.84.86,2.78,45.4,97.86,88.12,196.94,129.45,296.09,1.46,3.51,3.71,5.97,3.35,9.34-59.62-10.08-111.28-12.72-172.55-5.88-47.85,5.34-94.22,12.23-141.02,21.76-22.94,4.67-44.81,10.62-66.72,17.02l-14.86-67.13-20.89-94.82-27.6-113.85c.44-.47.45-1.2.48-1.73.06-1-1.11-.79-1.71-.81,32.86-18.25,99.64-34.45,138.95-42.27.95.26.15,1.67-.13,2.08-.38.55-1.1.92-2.62,1.27l-12.18,2.82,14.6,43.18c-25.97-2.31-53.9,11.97-82.04,14.41l-16.44,1.42c-1.82,3.79,1.32,5.42,2.43,6.65,2.08,2.3,4.42,8.16,3.32,11.16-.98-.18-1.75-.8-2.35-.05-.6.74-.65,2.91.69,4.59.81,1.02,4.01-1.51,4.17,1.48-.73.3-1.46.55-2.12,1.02-1.11.8.91,1.69.7,2.65l-1.51,6.8c-.24,1.08-1.33,2.64-.74,4.16.34.86,1.08,1.84,2.45,1.9,20.63,1,41.55-5.94,63.18-8.43,2.01-.23,3.3-.2,3.47,1.52-2.6,2.2-6.63,2.79-7.61,7.39,6.62,1.82,12.89,1.41,19.54.45l53.85-7.74c4.32-.62,8.21-1.04,12.9-2.02l-4.82-11.85,6.05-1.6c35.32-9.33,73.99-8.68,110.75-10.79,1.58-3.27-.55-5.96-3.08-5.76l-59.74,4.67c2.2-14.53.11-1.68-1.9-12.05l58.54-4.85c1.63-1.17-.31-6.88-2.14-6.18-2.03.78-2.91.88-4.89,1.03-1.13-9.35,2.82-10.61-.06-12.6,1.88-1.66.82-3.92.11-6.07,1.28.07,1.51-1.21,1.84-1.93.59-1.29-.72-2.48-1.35-3.59-7.68-13.66-13.48-27.74-20.34-41.78l-37.83,3.75c-1.8.18-3.72-.77-3.74-2.18l24-3.07,14.27-1.16,28.83-1.37c5.79-.27,11.42-.58,16.52-.42Z"/>
          <g>
            <path class="cls-32" d="M990.43,459.68l3.65,12.16c-15.94.65-31.85,3.15-48.37,5.11-17.58,2.09-34.05,5.74-51.53,8.6l-41.01,6.7c-2.15-4.7-20.35,1.42-23.04-.77-2.31-1.89-4.17-4.93-5.21-7.36l86.89-15.09c26.88-4.67,52.41-8.11,78.61-9.35Z"/>
            <path class="cls-67" d="M783.76,501.82c14.77.25,28.79-2.8,43.42-5.24l26-4.33,41.01-6.7c17.48-2.86,33.96-6.51,51.53-8.6,16.52-1.96,32.42-4.46,48.37-5.11l61.57-2.52c1.41,1.93,1.81,5.02.9,6.1-32.43-.18-63.01,2.6-94.36,6.35-2.68.32-4.69-1.36-6.25-1.92l-42.26,8.58c-10.16,2.06-20.17,2.91-30.43,4.35-7.07.99-13.27,3.58-20.22,4.88l-56.68,10.57c-10.14,1.89-19.84,1.64-30.8,3.22,1.62-1.96.41-3.39.72-5.02.67-3.46,4.96-3.97,7.49-4.62Z"/>
            <path class="cls-77" d="M990.43,459.68c-26.2,1.23-51.73,4.68-78.61,9.35l-86.89,15.09c-13.65,2.37-27.32,4.6-41.09,6.07l-9.61.77c-1.37-.5-1.59-4.43-1.2-5.33,17.27-.85,33.69-3.57,50.64-6.6l76.13-13.65c49.1-8.8,97.69-13.44,147.85-14.34,2.78-.05,3.81,5.48,1.91,5.86l-59.13,2.79Z"/>
            <path class="cls-160" d="M874.42,376.92l26.68-4.49c18.79-3.16,37.78-5.91,57.4-8.04,2.87-.31,3.82,1.06,3.65,2.89-.17,1.82-1.56,2.45-3.57,2.53-13.18.52-25.22,3.4-37.9,5.76l-41.96,7.81c-5.2.97-9.94,2.53-14.84,3.29-.75-3.03-1.58-2.36-1.36.74-27.27,5.61-55.27,11.97-83.54,15.44-1.68.21-2.68-3.04-6.08-2.47l-16.48,2.78c-1.06-3.16-1.57-4.87-1.01-7.31,5.41,1.05,10.14.39,15.51-.38,26.7-3.82,52.45-9.05,78.71-13.94l24.78-4.61Z"/>
            <path class="cls-81" d="M894.22,434.95c-.66,3.46,1.44,9.56,1.04,12.72l-89.03,15.46c-10.35,1.8-19.71,3.12-29.33,3.59l-1.55-11.96c11.75-2.83,24.11-1.99,36.09-4.14l51.72-9.26c10.68-1.91,20.59-5.5,31.05-6.42Z"/>
            <path class="cls-37" d="M914.08,393.98l4.41,11.18-89.21,15.07c-12.28,2.07-43.03,4.94-54.28-2.3l84.97-13.87,9.36-3.87c3.97-1.64,7.61-.34,11.89.21,5.72.73,11.47-3.43,16.33-4.11l16.53-2.32Z"/>
            <path class="cls-40" d="M893.86,429.1c-.78.76.26,1.85.67,2.62,1.05,2,7.72-.42,6.5,1.84-2.51.46-4.95,1.23-6.8,1.39-10.46.92-20.36,4.51-31.05,6.42l-51.72,9.26c-11.99,2.15-24.35,1.31-36.09,4.14-1.8.43-5.83.26-7.66,0-2.12-.29-2.23-4.61-1.42-5.93,15.34-.97,30.34-2.99,45.78-5.65l81.81-14.09Z"/>
            <path class="cls-1" d="M901.02,433.57c1.23-2.26-5.45.15-6.5-1.84-.41-.77-1.44-1.86-.67-2.62,32.32-6.59,64.45-10.26,97.22-12.43l44.3-2.93c2.23-.15,2.94,6.3,1.02,6.36-46.49,1.42-91.13,5.35-135.38,13.45Z"/>
            <path class="cls-19" d="M895.26,447.68c-.15,1.2,1.89,4.24.44,4.84-11.7,4.22-24.35,2.91-34.59,8.34-4.6,2.44-30.7,3.75-26.5,2.99-18.03,3.26-36.41,5.31-53.39,9.28-.88.21-11.33.16-11.45-.4.15-1.91-1.64-3.32-.73-5.27,2.36-1.11,5.25-.6,7.85-.73,9.62-.47,18.98-1.8,29.33-3.59l89.03-15.46Z"/>
            <path class="cls-1" d="M914.08,393.98l-16.53,2.32c.89-2.22-4.67-.43-5.67-2.2-.3-.54-.71-1.78,1.09-2.16,42.93-8.91,85.64-12.7,129.57-14.89,1.97-.1,2.42,3.85,1.54,5.79-37.21,1.36-73.72,6.06-110,11.14Z"/>
            <path class="cls-12" d="M903.29,501.74c-.5,1.34.17,2.23,1.44,3.09-1.08.81-2.28.12-2.94.38s-1.09,1.07-.85,2.07l-70.19,12.32c-16.03,2.81-37.35,7-51.69,6.8v-5.93c15.97.47,31.66-2.79,48.24-5.65l75.99-13.09Z"/>
            <path class="cls-3" d="M895.23,342.06c.03-3.72-7.04,3.34-9.49-4.15,1.22-.21,2.81-1.1,3.79-1.54l53.62-6.18,59.74-4.67c2.53-.2,4.66,2.49,3.08,5.76-36.76,2.11-75.43,1.46-110.75,10.79Z"/>
            <path class="cls-77" d="M926.56,409.85c-2.89.38-4.04-.03-5.08-.66-.84-.52-1.83-3.66-.65-3.87,35.13-6.31,70.72-8.26,106.59-9.88,2.18-.1,3.21-.72,3.6,1.5.29,1.66,1.33,4.35-.97,4.44-34.72,1.27-68.52,3.88-103.49,8.47Z"/>
            <path class="cls-94" d="M824.93,484.12c1.03,2.43,2.9,5.47,5.21,7.36,2.68,2.19,20.89-3.93,23.04.77l-26,4.33c-14.62,2.44-28.64,5.49-43.42,5.24l.08-11.63c13.77-1.47,27.44-3.7,41.09-6.07Z"/>
            <path class="cls-71" d="M916.02,358.28c-2.75.4-4.53.55-5.69-.61-.87-.87-2.46-3.91-.95-4.15,33.22-5.26,66.04-8.06,99.29-9.2,1.75-1.49,2.75-.46,3.29.28s1.6,4.93.41,4.98c-32.17,1.37-63.7,3.98-96.35,8.69Z"/>
            <path class="cls-7" d="M976.31,441.91c-10.39.62-20.8.85-31.84,2.99-1.92.37-3.97.82-5.17-.59-.66-.78-1.9-1.73-1.74-3.11-.45.05,127.35-17.31,106.65-2.53-22.66.08-45.76,1.92-67.89,3.24Z"/>
            <path class="cls-119" d="M900.94,507.29c-.24-1.01.2-1.81.85-2.07s1.86.43,2.94-.38c-1.27-.86-1.94-1.75-1.44-3.09,33.58-5.51,66.8-10.8,101.13-12.03,1.79.95-.82,5.52-3.73,5.69-33.92,2.01-66.95,6.13-99.76,11.89Z"/>
            <path class="cls-120" d="M937.56,441.19c-.16,1.38,1.08,2.33,1.74,3.11,1.2,1.41,3.25.96,5.17.59,11.04-2.14,21.46-2.37,31.84-2.99.53.77-.39,1.36-.79,1.16-.72-.36-1.98.59-2.42.66l-40.4,5.75c-14.15,2.01-27.11,4.73-41.07,7.32l-26.82,4.97c-1.67.31-2.81-.61-3.69-.9,10.24-5.42,22.89-4.11,34.59-8.34,1.45-.59-.59-3.63-.44-4.84l12.43-2.84,29.86-3.65Z"/>
            <path class="cls-84" d="M901.1,372.42l-26.68,4.49c1.33-5.24-2.64-7.81-3.54-15.72,8.44-.58,16.15-3.33,24.66-2.36,3.53,1.91,6.51,9.71,5.57,13.59Z"/>
            <path class="cls-76" d="M752.78,384.99c-4.63-1.87-3.27-6.01-2.47-8.82.82,3.46,2.47,5.62,2.47,8.82Z"/>
            <path class="cls-54" d="M779.07,520.48v5.93c-3.02-1.07-2.73-6.43-1.87-8.15,1.12,1.22.5,2.33,1.87,2.23Z"/>
            <path class="cls-27" d="M769.05,467.45c-.91,1.94.88,3.35.73,5.27-2.46,1.45-2.89-2.47-2.35-5.25-.7-2.49,1.65-2.5,1.62-.01Z"/>
            <path class="cls-140" d="M760.96,436.16c-.61-.79-1.01-2.32-1.78-3.13s1.31-2.94,1.89-2.63c.82,1.31.59,2.56-.11,5.76Z"/>
          </g>
        </g>
        <path class="cls-154" d="M724.33,599.12c.36,1.51.86,2.43.85,3.32-1.58.39-1.58,1.37.2,1.63l.88,1.98c-.46.32-1.33,1.11-1.14,1.87.13.53.76,1.35,1.25,1.71l5.51,24.69c-1.74-.46-.29,3-1.13,3.17-6.26,1.13-13.67.75-19.8.38l-6.79-29.23c-.37-1.59.17-3.37-1.23-3.84,1.02-1.2-.05-2.48-.29-3.68l-17.19-87.45c.26,1.34,16.53-5.05,17.37-5.75l21.51,91.21Z"/>
        <path class="cls-126" d="M765.15,580.62c.11,1.39.63,3.11,2.21,3.29-14.42,4.61-28.26,12-42.19,18.53.01-.89-.49-1.81-.85-3.32,5.83-2.66,11.02-8.23,17.12-10.34l23.7-8.16Z"/>
        <path class="cls-157" d="M893.9,299.02l1.41,4.59c-.84,3.83-17.73,2.48-16.95,5.57-.11,3.66,2.88,6.73,3.57,9.73-.95,1.23-2.65.83-4.26,1.13-.33-3.18-2.28-5.85-3.54-9.83.61-1.9,3.77-2.96,3.13-4.83-.71-1.61-1.34-2.84-2.54-2.89-.8-.04-2.4.49-2.43,1.5-.02.81.63,2.17,1.87,3.78-3.08.64-6.66.56-9.79,2.46-5.67,3.43-12.42,3.14-18.42,4.1-1.58-2.13-4.45-3.16-4.68-6.06l29.88-6.21c-1.5-5.84-4.44-8.76-3.83-13.85,4.17,3.62,4.34,8.61,7.96,13.32l18.63-2.51Z"/>
        <path class="cls-14" d="M1153.16,553.54c.13.91-1.54,3.02-3.42,2.79l-56.19-6.67c-11.56-1.37-22.44-2.1-33.71-2.64-37.12-1.77-126.48,8.56-163.32,16.23l-42.27,8.8c-.84.17-1.86.37-2.28.99-.27.38-.62.71-.28,1.44-4.98-2.06-8.57.56-13.16,2.57-3.6,1.57-8.05,3.87-10.83,4.86-2.86-4.17-12.8,4.8-15.23-1.26-2.41,4.52-36.93,9.9-36.88,11.88l.05,1.62c-10.09,1.39-38.33,6.26-46.67,10.89-.69.38-2.06.18-2.71,1.02l-.88-1.98c-1.78-.26-1.78-1.24-.2-1.63,13.93-6.53,27.77-13.91,42.19-18.53,65.73-21.04,170.13-36.84,240.51-41.43,49.17-3.2,98.06,1.25,145.29,11.06Z"/>
        <path class="cls-117" d="M936.05,299.82c-3.62,7.25-.34,7.72-1.81,12.62l-52.31,6.48c-.69-3-3.68-6.08-3.57-9.73-.78-3.09,16.11-1.74,16.95-5.57l40.74-3.79Z"/>
      </g>
      <g>
        <path class="cls-89" d="M543.49,573.28c-2.78,1.17-6.55,1.68-9.33,3.52-5.17,3.42-10.42,6.26-16.38,9.04l-71.83,33.51c-18.25,8.51-35.24,16.76-54.03,23.86-8.42-4.19-15.18-9.18-21.84-16.13,2.91-8.55,6.4-16.88,10.91-24.55,2.19-3.73,6.69-3.03,9.35-4.44-.4,1.02-1.28,2.66-.34,3.24,2.62-.85,4.51-2.17,6.7-1.48-5.26,1.7-8.55,3.56-9.42,8.69-.64,3.77-3.39,6.21-4.77,8.79-1.16,2.17-.4,5.88-2.4,8.1-2.99,3.34,9,8.1,12.59,12.7.6.77.58,2.37,2,2.16.48-.07,1.08-.55,1.56-1.58,4.8,1.44,5.22-4.12,7.21-5.09l27.12-13.2c5.94-2.89,13.83-4.48,19.87-9.06,4.6-3.49,8.61-5.4,14.21-6.85,4.49-1.16,7.95-5.88,12.35-8.03,22.33-10.88,44.33-20.25,67.31-29.76,9.17-3.8,17.29-7.59,26.58-9.82-.04,1.38-1.26,2.23-.91,2.79.22.35,1.53,1.83,1.14,2l-27.65,11.59Z"/>
        <path class="cls-61" d="M430.58,620.42l-27.12,13.2c-1.98.97-2.41,6.53-7.21,5.09-.48,1.03-1.08,1.51-1.56,1.58-1.42.21-1.4-1.39-2-2.16-3.6-4.6-15.58-9.36-12.59-12.7,5,1.88,9.15,5.34,14.25,8.52l34.16-14.06c1.22-.5,2.15-1.28,2.06.53Z"/>
        <path class="cls-53" d="M475.57,602.51c-1.66.43-2.5.21-2.78-.43-.62-1.46.75-1.15,1.57-1.53l26.36-12.14c8.24-3.79,15.94-8.2,25.31-10.1-10.07,6.62-21.17,9.78-32.01,15.12l-18.46,9.08Z"/>
      </g>
      <g>
        <path class="cls-34" d="M704.15,608.63l6.79,29.23c.09.38-.27,1.16-1.07,1.14l-8.12-2.47c-15.41,7.31-29.08,15.43-42.26,25.88l-55.74,44.18c-29.48,23.37-58.77,44.75-90.8,64.09-39.53,23.87-75.94,51.45-109.04,84.14-2.07-2.89-2.83-6.45-3.82-9.12l16.73-16.02,17.27-13.39c17.56-13.62,33.97-27.22,52.54-38.95l51.14-32.31c20.77-13.12,39.29-27.32,58.37-42.8l57.48-46.64c14.54-11.8,29.58-21.73,46.65-29.46-1.86-5.13-1.45-17.54,3.88-17.51Z"/>
        <path class="cls-65" d="M1153.53,716.39c3.03,3.12,7.78,4.32,11.2,6.69-.46,1.02-.49,2.41-.78,3.37-.13.44.83.82,1.42.6-.4,1.55.64,4.58-1.69,5.39-63.76-30.42-128.81-57.92-198.07-72.86l-122.97-26.52c-25.4-5.48-49.77-10.65-75.27-9.14l-25.02,1.49c-2.23,5.72-4.13,9.8-7.92,12.38-.53.04-1.48.45-1.6.02l-.96-3.5-5.51-24.69c5.11-1.26,9.58,2.09,13.37,5.77,22.22-2.26,45.97-1.63,68.59,2.49l41.43,7.54c14.19,2.58,27.6,5,40.6,9.49-3.35.85-1.14,1.69.38,2.71l37.47,8.02c27.95,5.98,54.91,11.89,81.87,20.5,5.06,1.62,10.25,3.92,15.29,5.14,11.27,2.71,20.54,6.94,31.18,10.7,28.21,9.98,57.55,21.64,84.7,32.96,3.24,1.35,9.08-1.86,12.29,1.46Z"/>
        <path class="cls-137" d="M1229.95,701.53c1.07,4.83,3.12,9.37,3.51,15.26-13.33-10.07-26.34-18.82-40.22-28.53l-15.03-10.52c.26-2.73-.61-5.49-1.06-8.15.63.19,1.12.13,1.55-.05.75-.31-.18-2.2.55-2.27,3.2-.29,5,2,8.34,1.04l-14.19-91.11c3.11-1.48,7.94-1.99,9.7-4.44.37-1.51-.42-4.07.57-6.31.65-.01,1.01.14,1.64.25,1.43.92-1.9,2.06-1.6,2.89l8.78,24.66c11.72,32.92,22.65,65.58,31.72,100.35-7.16-1.43-10.09-7.27-15.56-9.4-6.91,3.67,5.99,8.63,15.34,16.59,2.14,1.82,4.44,1.71,5.96-.25Z"/>
        <path class="cls-114" d="M702.92,604.79c1.39.47.86,2.25,1.23,3.84-5.33-.03-5.75,12.37-3.88,17.51-17.07,7.73-32.11,17.67-46.65,29.46l-57.48,46.64c-19.08,15.48-37.6,29.68-58.37,42.8l-51.14,32.31c-18.57,11.73-34.98,25.33-52.54,38.95l-17.27,13.39-16.73,16.02c-3.33-1.4-3.04-5.82-4.63-8.36,1.65-.97,2.31-4.16,4.5-2.59,1.77.45,1.6,2.68,3.39,3.59,32.7-29.32,67.01-54.85,104.44-77.44,35.89-21.67,68.92-45.41,101.22-72.61,20.46-17.23,39.98-33.32,61.23-48.64,8.5-6.13,16.97-11.33,26.92-16.2-1.7-5.88-1.12-12.11,3.1-16.82l-4.5-.21c.35-.68-.21-1.22-.96-1.5-.45-.17-1.06.82-1.71,1.11l-41.26,6.31-14.65,3.01c-4.43.91-10.2-.1-14.49,1.21-.85-.77-.21-1.01.35-1.53,1.19-1.11,2.22-.17,3.87-1.48.67-.53,1.28-2.06.78-2.77.55-.13,1.01-.49,1.16-1.04,24.44-4.46,49.17-10.35,74.07-4.98Z"/>
        <path class="cls-125" d="M1177.15,669.58c.45,2.66,1.32,5.43,1.06,8.15-.51-.36-2.06-.12-2.41-.99-.89-2.23-3.22-1.74-5.3-2.24-.73-.47-.72-.91.03-1.34.67-.05,1.36.01,2.46-.59-6.62-15-10.23-30.59-13.37-46.68l-6.89-35.39c-.82-4.23,4.44-8.98,7.61-11.04,6.68,29.76,11.66,60.02,16.8,90.12Z"/>
        <path class="cls-152" d="M1188.53,568.65l15.83,45.48c10.07,28.94,19.02,57.81,25.59,87.39-1.53,1.96-3.82,2.07-5.96.25-9.35-7.96-22.25-12.92-15.34-16.59,5.47,2.13,8.41,7.97,15.56,9.4-9.07-34.78-20-67.44-31.72-100.35l-8.78-24.66c-.29-.83,3.03-1.97,1.6-2.89,1.4.24,1.96,1.52,3.21,1.98Z"/>
        <path class="cls-104" d="M364.97,809.72c-2.71,10.32-9.32,19.32-13.23,30.06-.75,2.06-.15,5.43-2.2,5.88-4.99-32.01-5.4-69.68-10.38-102.35.27-1.14,1.9-1.61,3.25-1.66,2.05,11.21,3.13,22.63,4.29,34.67l4.98,51.91c3.87-1.02,9.93-18.99,13.29-18.51Z"/>
        <path class="cls-83" d="M375.44,811.63c-8.16,14.47-17.11,28.36-24.29,43.96-1.85-3.68-1.13-6.88-1.61-9.93,2.05-.44,1.45-3.81,2.2-5.88,3.91-10.74,10.52-19.74,13.23-30.06,11.67-13.14.59-19.1,5.83-27.52,1.57,8.9,2.16,19.59,4.64,29.43Z"/>
        <path class="cls-50" d="M1175.81,676.75c-.77,17.25-6.14,33.65-10.44,50.3-.59.23-1.55-.16-1.42-.6.29-.96.32-2.35.78-3.37-3.42-2.37-8.17-3.57-11.2-6.69,1.32.14,1.32-1.38,2.01-2.21,1.23.56,5.15,2.42,5.63.85,3.61-11.84,5.63-23.77,7.52-36.02.34-2.19-.58-3.94,1.82-4.5,2.08.5,4.41,0,5.3,2.24Z"/>
        <path class="cls-141" d="M399.97,834.77c-2.18-1.57-2.85,1.62-4.5,2.59-6.08-9.72-9.33-21.01-13.19-31.91-1.17-3.31,2.3-4.25,4.02-6.37l13.66,35.7Z"/>
        <path class="cls-148" d="M399.97,834.77l-13.66-35.7c28.54-35.11,64.18-64.23,100.69-90.51,51.04-32.85,104.29-63.36,161.67-84.65l47.1-17.47,4.5.21c-4.21,4.71-4.8,10.94-3.1,16.82-9.95,4.86-18.42,10.06-26.92,16.2-21.25,15.33-40.77,31.42-61.23,48.64-32.3,27.2-65.33,50.94-101.22,72.61-37.43,22.6-71.75,48.13-104.44,77.44-1.78-.91-1.62-3.14-3.39-3.59Z"/>
        <path class="cls-60" d="M637.18,615.38c5.74-.91-26.97,10.16-21.95,8.83-7.9,2.09-14.4,6.96-21.31,10.24l-24.83,11.79-13.79,6.1c-13.2,5.84-26.48,11.91-39.29,19.42-1.04.61.32,4.8-2.37,4.63-1.51-.09-2.89-.36-3.26-2.71-4.85.98-8.77,4.83-13.05,7.7l-54.5,36.39c-6.13,4.09-17.83,13.95-24.08,19.2-.92-3.41,2.78-3.38,3.17-6.38-13.66,6.02-28.58,22.63-40.56,33.71-2.35,2.17-4.43,5.62-7.72,5.36,18.51-18.37,37.05-34.65,56.68-49.87.46-.36.61-1.1.77-1.57.15-.43-.48-.84-.81-2.61l-33.35,24.63c-8.84,6.53-16.34,13.7-23.92,22.53-2.06-3.41,2.59-3.66,2.57-6.31-.59-1.89.44-3.12,1.77-1.19,8.46-6.85,16.08-14.79,24.27-21.08,11.65-8.95,23.85-16.95,35.35-26.94-13.35,5.26-22.95,14.88-34.59,22.44l-10.43,6.78c-6.33,4.11-10.3,11.02-17.89,13.97,7.53-10,18.94-14.19,26.93-23.58.62-.73-2.04-1.57-2.99-.93l-25.29,17.14c-.84.57-.29,3.38-.85,4.29-.53.86-2.21-.19-3.21.61l-1.23-13.45c6.77-2.29,13.89-4.23,20.93-7.61l31.54-15.19,42.07-22.67c.84-.45,1.05-2.18,1.47-2.54s-.95-1.12-.94-1.76l27.72-16.53c11.9-7.1,24.07-13.98,37.33-16.88,2.4-.53,5.52-.11,7.28-3.54,2.15-.16,4.44-1.24,6.31-2.06,26.63-11.61,54.15-20.77,81.58-29.17,4.29-1.31,10.06-.3,14.49-1.21Z"/>
        <path class="cls-31" d="M353.38,738.71c5.94,12.6,14.53,15.34,14.14,28.41-.03,1.03,1.35,5.53.92,13.28-.04.79,1.45.72,2.37.62.01.36.11.84,0,1.17-5.24,8.42,5.84,14.38-5.83,27.52-3.36-.48-9.42,17.49-13.29,18.51l-4.98-51.91c-1.16-12.05-2.24-23.46-4.29-34.67,1.34-.05,2.39-1.43,3.55-1.65,2.34-.45,5.16-.36,7.42-1.29Z"/>
        <path class="cls-39" d="M695.76,606.44l-47.1,17.47c-1.94-2.08-5-2.23-8.06-.94l-35.5,14.98c-1.84-1.3-3.44,1.11-6.06.31l14.54-9.47c-16.44,3.92-.42.53-16.82,6.43-1.3,1.12-1.39-1.03-2.83-.77,6.91-3.28,13.41-8.15,21.31-10.24-5.02,1.33,27.68-9.74,21.95-8.83l14.65-3.01,41.26-6.31c.65-.29,1.26-1.28,1.71-1.11.76.28,1.31.82.96,1.5Z"/>
        <path class="cls-74" d="M648.66,623.91c-57.38,21.28-110.63,51.8-161.67,84.65-5.72,4.12,12.93-11.83,12.51-11.77,5.83-.91,8.92-5.13,13.36-7.91l24.75-15.48,41.14-21.89,20-9.74c2.23-1.09,5.28-1.33,6.34-3.82l35.5-14.98c3.07-1.29,6.12-1.14,8.06.94Z"/>
        <path class="cls-22" d="M368.64,747.98c.72,7.84-.07,16,1.63,23.86.71,3.26.41,6.23.53,9.19-.91.1-2.41.17-2.37-.62.43-7.76-.95-12.25-.92-13.28.39-13.08-8.2-15.81-14.14-28.41,4.52-1.87,9.42-2.62,14.02-4.18l1.23,13.45Z"/>
        <g>
          <path class="cls-45" d="M605.09,637.95c-1.07,2.49-4.11,2.74-6.34,3.82l-20,9.74-41.14,21.89-24.75,15.48c-4.44,2.78-7.53,7-13.36,7.91.42-.07-18.23,15.88-12.51,11.77-36.51,26.28-72.14,55.4-100.69,90.51-1.72,2.12-5.19,3.06-4.02,6.37-2.13.55-5.48,3.77-6.84,6.18-2.48-9.84-3.07-20.53-4.64-29.43.11-.34.01-.81,0-1.17-.12-2.96.17-5.93-.53-9.19-1.7-7.86-.91-16.02-1.63-23.86,1-.81,2.68.25,3.21-.61.56-.91,0-3.72.85-4.29l25.29-17.14c.95-.64,3.62.19,2.99.93-7.99,9.39-19.4,13.58-26.93,23.58,7.59-2.95,11.56-9.86,17.89-13.97l10.43-6.78c11.64-7.56,21.25-17.18,34.59-22.44-11.5,9.99-23.7,17.99-35.35,26.94-8.19,6.29-15.81,14.23-24.27,21.08-1.33-1.93-2.36-.7-1.77,1.19.02,2.65-4.63,2.9-2.57,6.31,7.58-8.82,15.09-16,23.92-22.53l33.35-24.63c.33,1.78.96,2.18.81,2.61-.16.47-.31,1.21-.77,1.57-19.63,15.22-38.17,31.51-56.68,49.87,3.3.26,5.37-3.19,7.72-5.36,11.98-11.08,26.9-27.69,40.56-33.71-.39,2.99-4.08,2.97-3.17,6.38,6.26-5.25,17.96-15.1,24.08-19.2l54.5-36.39c4.29-2.86,8.2-6.72,13.05-7.7.37,2.35,1.75,2.62,3.26,2.71,2.69.17,1.33-4.02,2.37-4.63,12.81-7.51,26.09-13.58,39.29-19.42l13.79-6.1,24.83-11.79c1.44-.26,1.53,1.89,2.83.77,16.4-5.89.38-2.5,16.82-6.43l-14.54,9.47c2.62.8,4.22-1.62,6.06-.31Z"/>
          <g>
            <path class="cls-49" d="M390.35,780.96c8.15-10.46,17.28-19.42,28.17-28.29-8.24,10.15-17.65,19.36-28.17,28.29Z"/>
            <path class="cls-49" d="M447.36,727.38c6.8-1.38-13.89,13.95-14.29,12.65,3.69-5.65,9.25-8.48,14.29-12.65Z"/>
            <path class="cls-60" d="M375.15,776.35c4.11-6.65,9.5-11.77,16.41-16.61-4.4,6.28-9.95,11.47-16.41,16.61Z"/>
            <path class="cls-60" d="M409.28,744.13c.04-.09-7.86,9.09-9.78,8.41l6.4-9.04c.44-.62,1.51-1.31,1.87-1.14.55.26,1.73,1.23,1.51,1.76Z"/>
            <path class="cls-49" d="M381.17,791.7c1.35-4.67,5.05-6.73,8.48-9.62-1.35,4.67-5.05,6.73-8.48,9.62Z"/>
            <path class="cls-60" d="M411,742.41c.39-2.12,2.03-3.96,5.14-4.9-.39,2.12-2.03,3.96-5.14,4.9Z"/>
            <path class="cls-49" d="M423.91,748.27c.39-2.12,2.03-3.96,5.14-4.9-.39,2.12-2.03,3.96-5.14,4.9Z"/>
            <circle class="cls-149" cx="512.88" cy="683.8" r="1.16"/>
            <circle class="cls-60" cx="395.22" cy="756.22" r="1.16"/>
          </g>
        </g>
        <path class="cls-162" d="M1155.54,714.18c-.7.83-.69,2.35-2.01,2.21-3.21-3.31-9.05-.1-12.29-1.46-27.15-11.32-56.49-22.98-84.7-32.96-10.64-3.76-19.91-7.99-31.18-10.7-5.04-1.21-10.23-3.52-15.29-5.14-26.96-8.61-53.92-14.52-81.87-20.5l-37.47-8.02c-1.52-1.01-3.72-1.86-.38-2.71-13-4.49-26.41-6.91-40.6-9.49l-41.43-7.54c-22.62-4.11-46.37-4.75-68.59-2.49-3.79-3.69-8.25-7.03-13.37-5.77-.49-.36-1.12-1.18-1.25-1.71-.19-.76.68-1.54,1.14-1.87.65-.84,2.02-.63,2.71-1.02,1.77,3.44,6.96.43,11.73,6.99,38.86-4.98,91.59,6.23,129.94,14.77l70.6,15.74c55.84,12.45,162.09,47.81,214.31,71.65Z"/>
        <path class="cls-110" d="M1183.68,566.42c-1,2.24-.2,4.81-.57,6.31-1.77,2.45-6.59,2.96-9.7,4.44l14.19,91.11c-3.33.97-5.14-1.33-8.34-1.04-.73.07.2,1.96-.55,2.27-.43.18-.93.24-1.55.05-5.14-30.09-10.12-60.35-16.8-90.12l1.22-2.43c-3.11-3.42-3.01-8.51-3.41-12.99,3.77.83,8.14-.69,12.39,1.57-.24.89-1.87,1.56-1.71,3.1,6.52-6.07,6.92-2.14,14.83-2.29Z"/>
        <path class="cls-33" d="M1158.17,564.05c.4,4.47.3,9.56,3.41,12.99-2.84.28-4.69,2.33-6.68,4.97-5.86,7.79-5.02-9.68-7.73-14.15-11.28-3.41-22.68-2.95-34.46-1.82,1.3-.12-19.27-4.19-16.96-.97,7.11,1.87,13.99-.36,20.61,3.76-2.17.16-29.55-2.25-27.54,1.79l41.83,10.42c6.34,1.58,12.76,2.38,18.51,6.67-6.27-.23-11.38-3.26-17.32-4.52-13.62-2.88-26.73-7.19-40.72-9.19-12.45-1.79-24.89-6.43-37.68-3.17,33.42,7.75,64.45,12.88,95.3,22.6,1.7.54.71.69-.07,1.7.11-.15-29.35-7.7-34.04-8.76l-26.94-6.1c-1.49-.34-59.15-13.05-55.11-6.46.73,1.18,111.65,24.59,122.3,33.21-46.48-12.6-91.23-26.38-138.85-32.58l-50.09-6.52-1.56-.17-16.11-1.13-2.79-.16-25.61-.14c-2.32-.01-5.73.97-7.09-1.15,13.18-2.37,28.04-2.52,45.47-6.22,8.5-1.8,17.19-1.41,25.9-2.8,9.47-1.51,18.59-1.67,28.44-2.31,16.82-1.1,33.67-1.9,49.84.52,2.63.39,3.93-.5,6.31-.51,16.57-.11,74.82,7.01,89.44,10.23Z"/>
        <path class="cls-151" d="M851.68,574.48c4.7,1.94,10.37-.48,15.39-.05,1.6.96,4.18.75,7.13,2.11-3.53,1.43-7.16-.96-10.77,1.02,4.75,1.07,8.89.24,12.96.56,2.39.19,5.47-.84,7.76.35,2.32,1.21,4.32.56,6.38.73,1.94.16,4.18-.72,6.01.74l-22.51.89c5.39,2.4,10.38-1.13,14.27,2.72-2.3,1.21-5.5-1.42-6.39,2.4-4.2-3.23-9.61-3.99-15.06-2.75,1.63,2.94,7.92-.72,9.23,2.58,1.65,4.18-12.01,2.92-12.12.21-1.7,1.63-2.47,1.15-3.18,1.53-1.45.76-2.45-1.72-3.09-2.19-4.78-2.07-13.82.91-18.31-.58-1.78,1.31-4.86,2.44-6.33,2.74-4.33.86-13.24.35-17.42,1.59,2.64,2.14,6.97-1.14,8.16,1.97-16.12-.57-32.26.89-48.16,3.07l-.05-1.62c-.06-1.98,34.47-7.36,36.88-11.88,2.43,6.07,12.37-2.9,15.23,1.26,2.78-.99,7.23-3.29,10.83-4.86,4.58-2,8.17-4.63,13.16-2.57Z"/>
        <path class="cls-133" d="M823.78,591.06c35.59,1.27,70.65,5.23,106.72,11.04,63.95,10.29,125.56,26.23,186.31,48.43,19.02,6.95,36.5,14,53.73,22.64-.75.43-.76.88-.03,1.34-2.4.56-1.49,2.31-1.82,4.5-1.89,12.25-3.91,24.18-7.52,36.02-.48,1.57-4.4-.29-5.63-.85-52.23-23.84-158.47-59.2-214.31-71.65l-70.6-15.74c-38.35-8.55-91.08-19.75-129.94-14.77-4.77-6.56-9.97-3.55-11.73-6.99,8.34-4.63,36.59-9.51,46.67-10.89,15.9-2.18,32.03-3.65,48.16-3.07Z"/>
        <g>
          <path class="cls-78" d="M875.17,572.11c-.29.14-.22.73.26,1.16,19.1-.23,38.17.43,56.78,2.73.51,1.19,1.14,2.12,1.5,2.67.8,1.23,2.02.22,2.67.29l23.56,2.61c49.16,5.44,153.68,31.01,198.07,55.93,1.58,1.86,3.21,2.5.24,2.9-40.45-25.13-150.77-51.82-195.87-56.66l-13.86-1.49c-4.59-.49-9.26-1.93-14.24-.35,14.83,3.63,28.09,4.46,42.52,7.23,62.91,12.08,125.06,27.68,183.29,54.78-68.81-26.38-137.34-47.42-210.69-57.07-4.51-.59-8.71-2.42-12.61.14,56.12,9.79,110.27,23.75,162.61,40.33v1.17c-44.92-16.22-124.79-36.17-178.37-40.17,3.92,4.34,9.34,2.28,14.22,3.24l58.61,11.54c43.94,8.65,111.91,29.89,154.68,46.14.36,1.7,1.02,2.01,1.45.7.21-.63.26-1.17-.04-1.64,2.57,1.69,8,1.27,10.05,5.33,1.47-.74,2.92-.18,2.64-1.29.21.71,1.66,1.11,1.2,1.5-.67.58-2.88.32-2.51,1.64.43,1.51,1.88,1.32,2.92,1.39.83.05.49,2.55-.55,2.27-26.13-12.95-52.07-22.33-79.23-29.96l-64.84-18.22c-34.19-9.61-68.53-16.15-104.6-18.66l61.65,12.24c52.82,10.48,124.45,30.68,172.94,53.47,5.24,2.46,11.44,4.39,14.62,9.62-56.19-31.09-171.99-61.44-233.51-69.67l-44.96-6.01c-5.39-.72-10.75-.28-15.01-1.18-12.62-2.65-25.21-1.98-37.73-3.29,1.47-.29,4.56-1.43,6.33-2.74,4.48,1.48,13.53-1.49,18.31.58.64.47,1.64,2.95,3.09,2.19.71-.37,1.48.1,3.18-1.53.12,2.71,13.77,3.97,12.12-.21-1.3-3.31-7.6.36-9.23-2.58,5.45-1.24,10.86-.49,15.06,2.75.9-3.83,4.09-1.2,6.39-2.4-3.89-3.86-8.88-.32-14.27-2.72l22.51-.89c-1.83-1.46-4.07-.57-6.01-.74-.05-.48.23-1.53-.19-2.25l-12.8-.14c-.95-.01-1.59.66-1.16,1.3-4.07-.32-8.21.51-12.96-.56,3.61-1.98,7.24.4,10.77-1.02-2.94-1.37-5.52-1.16-7.13-2.11,1.53-2.62,5.21-2.46,8.1-2.32Z"/>
          <path class="cls-44" d="M1099.39,628.49l39.63,14.31c4.28,1.55,7.52,3.27,10.92,5.51.3.47.25,1.01.04,1.64-.43,1.3-1.09,1-1.45-.7-42.77-16.25-110.73-37.49-154.68-46.14l-58.61-11.54c-4.88-.96-10.3,1.1-14.22-3.24,53.58,4,133.44,23.95,178.37,40.17Z"/>
          <path class="cls-80" d="M931.25,580.16c.83,2.59-.98,1.55-1.53,2.04-.98.88-2.62.22-3.35-.1-4.9-2.17-10.61,1.12-15.72-2.99,7.15-1.48,12.97,1.61,20.6,1.05Z"/>
          <path class="cls-98" d="M890.53,579.21c-2.06-.17-4.06.47-6.38-.73-2.29-1.19-5.38-.16-7.76-.35-.43-.64.21-1.31,1.16-1.3l12.8.14c.42.72.14,1.77.19,2.25Z"/>
        </g>
        <g>
          <path class="cls-124" d="M1161.58,577.04l-1.22,2.43c-3.17,2.05-8.43,6.81-7.61,11.04l6.89,35.39c3.13,16.09,6.74,31.68,13.37,46.68-1.11.61-1.8.54-2.46.59-17.23-8.64-34.71-15.69-53.73-22.64-60.75-22.2-122.37-38.14-186.31-48.43-36.07-5.8-71.13-9.77-106.72-11.04-1.19-3.11-5.53.16-8.16-1.97,4.17-1.24,13.09-.73,17.42-1.59,12.52,1.31,25.11.64,37.73,3.29,4.25.89,9.62.46,15.01,1.18l44.96,6.01c61.53,8.23,177.32,38.57,233.51,69.67-3.18-5.23-9.39-7.16-14.62-9.62-48.49-22.8-120.12-42.99-172.94-53.47l-61.65-12.24c36.07,2.52,70.4,9.06,104.6,18.66l64.84,18.22c27.16,7.63,53.1,17.01,79.23,29.96,1.04.28,1.37-2.22.55-2.27-1.04-.07-2.49.12-2.92-1.39-.38-1.32,1.83-1.06,2.51-1.64.45-.39-.99-.79-1.2-1.5-10.05-6.9-21.38-11.78-33-15.47l-30.24-9.58c-52.33-16.57-106.49-30.54-162.61-40.33,3.91-2.57,8.1-.74,12.61-.14,73.35,9.65,141.88,30.69,210.69,57.07-58.22-27.1-120.38-42.7-183.29-54.78-14.44-2.77-27.7-3.6-42.52-7.23,4.99-1.58,9.66-.14,14.24.35l13.86,1.49c45.11,4.84,155.42,31.53,195.87,56.66,2.97-.41,1.35-1.04-.24-2.9-44.39-24.93-148.9-50.49-198.07-55.93l-23.56-2.61c.54-.73-.78-1.04-.47-2.4,8.98-.18,17.2,1.42,26.34,2.32l12.83,1.27,55.54,10.38c42.83,8,83.95,20.43,124.17,37.81,1.85,2.25,2.79.57,1.56-1.45-40.96-19.03-126.85-41.37-171.45-46.91l-57.87-7.2c-6.7-.83-12.84.19-19.87-1.67,9.84-2.72,41.78.86,51.71,1.99l22.35,2.54c50.86,5.78,128.05,25,175.1,41.74-4.71-4-9.77-5.53-15.12-7.26-48.2-15.55-97.56-26.59-148.13-34.85-.53-1.69-1.51-2.88-1.72.01l-18.82-2.89c-1.32-.2-4.03-.24-5.25-.94-.93-.53-1.17-2.16-1.35-3.54l50.09,6.52c47.62,6.19,92.37,19.98,138.85,32.58-10.65-8.62-121.57-32.02-122.3-33.21-4.04-6.59,53.62,6.12,55.11,6.46l26.94,6.1c4.69,1.06,34.15,8.61,34.04,8.76.78-1.01,1.78-1.16.07-1.7-30.85-9.71-61.87-14.85-95.3-22.6,12.79-3.26,25.23,1.38,37.68,3.17,13.99,2.01,27.1,6.31,40.72,9.19,5.94,1.26,11.05,4.29,17.32,4.52-5.75-4.29-12.17-5.09-18.51-6.67l-41.83-10.42c-2.01-4.04,25.37-1.63,27.54-1.79-6.62-4.12-13.5-1.89-20.61-3.76-2.31-3.22,18.26.84,16.96.97,11.78-1.12,23.18-1.58,34.46,1.82,2.71,4.47,1.87,21.93,7.73,14.15,1.98-2.64,3.84-4.69,6.68-4.97Z"/>
          <path class="cls-38" d="M1162.63,652.36c.28,1.11-1.17.55-2.64,1.29-2.06-4.07-7.49-3.64-10.05-5.33-3.4-2.24-6.64-3.97-10.92-5.51l-39.63-14.31v-1.17l30.24,9.58c11.63,3.68,22.96,8.56,33,15.47Z"/>
          <g>
            <path class="cls-25" d="M912.77,565.15c1.36,2.12,4.77,1.14,7.09,1.15,6.37,4.54,16.71.57,25.56,3.36.65-1.64-.53-2.39.05-3.23l2.79.16c.55.53-.14.96-.51,2.53,2.6,1.19,20.9,4.62,16.62-1.41l1.56.17c.18,1.38.41,3,1.35,3.54,1.22.7,3.93.74,5.25.94l18.82,2.89c.21-2.9,1.2-1.71,1.72-.01,50.57,8.26,99.93,19.3,148.13,34.85,5.35,1.73,10.41,3.26,15.12,7.26-47.05-16.74-124.24-35.96-175.1-41.74l-22.35-2.54c-9.93-1.13-41.87-4.71-51.71-1.99,7.03,1.86,13.17.84,19.87,1.67l57.87,7.2c44.59,5.55,130.49,27.89,171.45,46.91,1.24,2.03.3,3.7-1.56,1.45-40.22-17.38-81.34-29.8-124.17-37.81l-55.54-10.38-12.83-1.27c-9.14-.9-17.36-2.5-26.34-2.32-.31,1.36,1.02,1.67.47,2.4-.65-.07-1.87.94-2.67-.29-.36-.55-.99-1.48-1.5-2.67-18.61-2.29-37.68-2.96-56.78-2.73-.48-.43-.54-1.02-.26-1.16,1.57.08,2.9-1.4,4.65-1.12,6.33,1,11.11-.26,16.57-2.93,2.68-1.31,6.49.58,8.62-1.03,2.53-1.91,5.26-1.43,7.76-1.88Z"/>
            <path class="cls-69" d="M964.38,567.73c4.27,6.02-14.02,2.6-16.62,1.41.37-1.58,1.06-2,.51-2.53l16.11,1.13Z"/>
            <path class="cls-47" d="M945.48,566.44c-.58.84.6,1.58-.05,3.23-8.85-2.8-19.2,1.18-25.56-3.36l25.61.14Z"/>
            <path class="cls-46" d="M906.32,571.51c-3.36.59-6.27-.79-10.03-1.01,2.88-.63,6.47-2.27,10.03,1.01Z"/>
          </g>
          <path class="cls-144" d="M1146.53,575.12c-3.27,1.67-5.42-.57-8.12-1.16l-21.68-4.71c5.6-1.85,24.66,2.93,29.8,5.87Z"/>
        </g>
      </g>
    </g>
    <g>
      <g id="Generatives_Objekt-2" data-name="Generatives Objekt">
        <path class="cls-131" d="M217.65,39.89l4.36,1.03,15.63,4.28c13.41,3.67,26.74,7.21,40.31,9.76-.1.37-.18.7-.08,1.08-1.04-.33-2.44.2-3.45-.19-.79-.31-1.53-.48-2.55-.62l-20.65-2.92-53.41-7.42-48.75-6.61-21.94-2.58c-3.05-.36-5.96-.31-8.81-.81.07-.11.01-.36-.28-.39l-13.13-1.26c-2.23-.21-4.38-.49-6.63-.74l-10.09-1.11c-2.72-.3-5.3-.53-8.14-.83l-25.67-2.72c-6.82-.72-13.3-1.54-20.01-2.73-.55-.1-7.26-.29-6.57-1.01,1.33-.36,2.81-.43,4.14-.24-.64.95,3.72,1.12,4.45.9.87-.27,1.61.64,2.42.25,1.02-.5,1.82.45,2.62-.18.71-.56,2.01.48,2.69,0,.8-.56,1.44.38,2.35-.11.97-.52,1.95.7,2.89-.07.23-.19,3.84-.09,5.14-.08l3.09.02c.96,0,2.19.96,3.22-.08.99.04,2.05.58,3.18.08.92-.41,2.02.49,3.14.08s2.56.34,4.06.35c14.8.07,29.32.68,44.15,1.91,22,1.82,43.63,4.05,65.51,6.79,10.19,1.28,19.96,2.69,29.97,4.59,2.43.46,4.61,1.1,6.83,1.62Z"/>
        <path class="cls-107" d="M88.35,58.42c.18,1.27-5.86-3.11-7.06-2.88.64,1.04,3.41,2.29,4.07,2.71.16-.42,4.77,2.66,4.9,2.81,1.03,1.18,2.39,1.34,3.61,2.24.8.59,2.13,1.48,2.69,2.1,1.05,1.16,3.63,2.56,5.33,3.72,19.59,13.37,38.47,27.42,57.24,41.73,22.12,16.85,43.64,34.15,65.07,52.06,2.26,6.06,4.85,12.14,6.97,18.45-.55.24-.79-.04-.94.17-19.31-18.24-38.54-36.61-58.63-54.25-28.5-25.03-57.34-48.65-89.07-69.5-7.9-5.19-15.72-9.8-23.49-14.01-.35-.97,4.35,1.84,4.68,1.99,8.43,3.92,16.59,8.2,24.63,12.66Z"/>
        <path class="cls-113" d="M144.45,52.08l8.65,2.76,21.76,6.96,4.32,1.41,22.69,6.98,1.61.55,26.12,7.79c6.1,1.82,12.28,4.45,18.45,6.86,3.53,3.73,6.42,8.03,9.72,12.19,14.76,18.59,30.07,36.41,46.68,53.36,9.23,9.42,19.08,17.97,29.46,25.97,2.04,1.58,3.9,2.86,5.67,4.43-.04,1.02-5.27-.67-6.25-1.31-9.72-6.4-18.35-13.78-26.88-21.82-16.46-15.51-34.34-35.3-48.11-53.09l-12.21-15.77-24.4-8.08-19.26-6.29-27.79-8.96-36.54-12.12c-.59-.2-.83-.33-1.75-.45.27-.2.52-.78.78-.72l16.32,5.2,37.01,12.09,15.71,4.84,12.6,3.99,26.29,8.74c.22.07.44,1.28.81.37-1.6-1.46-3.48-2.05-5.63-2.81-16.17-5.72-32.41-10.39-48.66-15.72l-32.19-10.56-23.15-7.39.16-1.72,8.04,2.33Z"/>
        <path class="cls-4" d="M119.51,72.65l35.27,22.18,33.26,21.21,40.84,24.69c22.56,13.64,58.01,30.26,83.12,37.33.58.16.41.79.29,1.04-24.65-6.23-50.21-17.23-73.3-29.26l-4.01,35.61c-.71.1-1.23-.14-1.41-.47.12-3.69.8-7.32,1.3-11.21l3.11-24.36c-1.36-.96-2.76-1.42-4.01-2.09-1.07-.58-2.07-1.41-3.24-1.87-.13-.05-.19-.23-.36-.1-1.06-.82-2.3-1.49-3.56-1.94.02-.27-.36-.53-.6-.38-.67-.77-1.84-1.21-2.78-1.49-.13-.45-.79-.57-1.13-.7-2.04-1.67-4.9-2.9-7.15-4.3l-41.16-25.6-34.34-21.82c-16.9-10.74-33.92-21.04-51.31-30.71-8.04-4.46-16.2-8.75-24.63-12.66-.33-.15-5.03-2.96-4.68-1.99-4.67-2.53-9.6-4.57-14.55-6.74l-7.25-3.18c.03-.23.4-.4.58-.39l12.32,4.62,13.51,5.46c14.48,5.85,28.09,13.31,41.74,21.08l14.13,8.04Z"/>
        <path class="cls-158" d="M23.23,27.55c-.24.17,0,.25.06.38.12.29.35.09.63.16l7.11,1.68c4.33,1.02,8.42,1.72,12.72,3.17,15.86,5.34,30.88,12.06,45.77,19.83l10.49,5.47,35.47,20.71,51.88,32.56c16.6,10.42,33.26,20.57,50.35,30.2,26.97,15.19,53.72,27.78,83.49,36.16l10.52,2.96c1.76.49,3.59.99,4.66,2.84l-11.98-3.09c-15.12-3.9-29.62-8.78-44.05-14.89-14.98-6.35-29.35-13.57-43.51-21.51-17.86-10.02-35.24-20.51-52.53-31.56l-32.67-20.89-31.74-19.56c-21.9-13.5-45.93-25.92-70.28-35.3-7.2-2.77-14.08-5-21.47-6.89-.34.07-.77.16-.67.42l-10.45-3.28c-.29-.09-.11-.46-.18-.56l6.39.99Z"/>
        <path class="cls-87" d="M246.8,55.19l-7.26,9.38c-.35-.08-.07-.74-.17-1.03-.99-.33-2.47-.26-3.5-.28,1.26-1.35,2.57-2.63,3.59-4.14.83-1.23,2.49-1.89,3.2-3.66-1.32.91-2.52,2.12-3.51,3.4l-1.33.87c-.34-.34-.2-.39-.24-.52-.09-.34-.61-.42-.95-.45l-19-2.06c-1.65,1.03-2.59,2.61-3.89,3.7-3.57,2.99-6.81,6.35-10.37,9.67-.15.14.34.66.08.68l-1.61-.55c-.03-.06-.03-.14.04-.26l9.88-9.63-24.17-5.17c.18-.3-.27-.27-.25-.4.08-.5,5.8-4.58,6.25-5.54.17.17.32-.04.46-.31l52.74,6.31Z"/>
        <path class="cls-101" d="M235.87,63.26c1.03.01,2.51-.05,3.5.28.1.29-.19.95.17,1.03l-9.96,13.96-26.12-7.79c.26-.02-.23-.54-.08-.68,3.56-3.32,6.79-6.68,10.37-9.67,6.78,1.34,13.69,1.73,20.69,2.73-.85,1.65-1.83,2.43-3,3.06.24.36.06.36.03.45-.12.3-.47.19-.68.35.03.21.24.37.09.56-.23.29-.54.17-.8.3-.01.18.11.43.06.59-.13.4-.74.05-.72.32.1,1.07-1.12,1.48-1.6,2.11-.37.49-.7,1.27-1.43,1.95-.59.55-1.6,1.08-1.36,2.17,3.36-4.22,7.22-7.84,10.84-11.73Z"/>
        <path class="cls-116" d="M27.79,24.08c-.69.72,6.02.92,6.57,1.01,6.71,1.18,13.18,2,20.01,2.73l25.67,2.72c2.84.3,5.42.53,8.14.83l10.09,1.11c2.25.25,4.4.53,6.63.74l13.13,1.26c.29.03.35.28.28.39-2.22-.38-4.5-.41-6.95-.66l-24.49-2.55c3.4,1.37,7.41,1.3,11.6,1.87l11.54,1.59c32.08,4.42,64.09,8.35,96.33,12.63l33.47,4.44,9.37,1.09,14.76,1.96c1.11.15,10.94,1.53,10.47.58,1.01.39,2.41-.14,3.45.19,2.09.65,4.3-.38,5.06,1.8l-19.03-1.8-4.1-.18c.08-.04.1-.25-.02-.26l-8.14-.93-20.39-2.33-55.62-7.4-34.08-4.57-15.66-2.11-10.12-1.23-15.56-1.88-13.46-1.72-12.83-1.74-24.89-3.37-9.25-1.24c-2.8-.38-5.48-.75-8.29-1.04.05-.71-.53-.91-.75-.24-.33-.35-9.02-.91-7.81-1.53,1.56-.21,3.28.27,4.87-.15Z"/>
        <path class="cls-138" d="M22.92,24.23c-1.21.61,7.49,1.18,7.81,1.53.23-.67.81-.47.75.24,2.81.29,5.5.66,8.29,1.04l9.25,1.24,24.89,3.37,12.83,1.74,13.46,1.72,15.56,1.88,10.12,1.23,15.66,2.11,34.08,4.57,55.62,7.4,20.39,2.33,8.14.93c.12.01.1.23.02.26-.44-.02-.99.14-1.44.1l-9.95-.93c-.66-.06-1.18.13-1.6.18l-52.74-6.31c-.14.28-.29.48-.46.31-.44-.75-1.41-.44-2.11-.54l-29.13-4.26-3.5-.39-19.57-2.81-57.93-7.62-50.66-6.46-14.83-1.5c-1.36-.38,6.94-1.38,7.05-1.4Z"/>
        <path class="cls-102" d="M215.15,136.55c2.25,1.4,5.11,2.63,7.15,4.3.19,1.03.57,2.11.85,3.32l3.56,15.48c-.05.08-.07.22-.03.31.81,1.76,1.1,5.49,1.67,5.56-.16.58.11,1.06.26,1.61.2.2-.15.73-.09,1.03.19.54.63,1.2.44,1.91.98-.22,1.6-.38,2.16-.79.16-.12-.05-.6.11-.68.12-.06.4-.34.56-.13.12.16-.03.49.14.57.11.05.23-.23.42-.02.12.24-.18.6.31.76.11-1.66.26-3.13.34-4.68l.37-6.79.72-9.83c.03-.35-.3-.79-.12-1.15,1.25.67,2.65,1.13,4.01,2.09l-3.11,24.36c-.5,3.89-1.18,7.51-1.3,11.21-1.44-.77-2.22-2.39-3.35-3.45.15-.21.39.07.94-.17-2.13-6.31-4.71-12.39-6.97-18.45-2.13-5.7-4.16-11.63-6.78-17.28-1.22-2.62-1.45-5.96-3.23-8.71.33-.87.55-.45.96-.37Z"/>
        <path class="cls-66" d="M217.3,39.09c.14.05.32.14.39.31.05.13-.06.33-.05.49-2.22-.52-4.4-1.16-6.83-1.62-10.01-1.9-19.78-3.31-29.97-4.59-21.88-2.74-43.51-4.98-65.51-6.79-14.83-1.23-29.35-1.84-44.15-1.91-1.51,0-2.92-.77-4.06-.35s-2.22-.49-3.14-.08c-1.13.5-2.19-.04-3.18-.08-1.03,1.05-2.25.09-3.22.08l-3.09-.02c-1.3,0-4.91-.1-5.14.08-.94.77-1.93-.45-2.89.07-.91.49-1.54-.45-2.35.11-.69.48-1.98-.57-2.69,0-.8.63-1.6-.31-2.62.18-.81.39-1.55-.52-2.42-.25-.73.22-5.08.06-4.45-.9.13.02,6.85-.11,6.84-.11,1.19-.43,2.7-.48,4.01-.39,2.19.14,9.62-.36,9.81-.32,1,.19,13.29,0,15.23-.03,1.23-.02,2.3.34,3.53.12-1.05.18,7.27.1,6.98.08l5.33.23c1.74.08,3.52.75,5.27.23,2.13-.64,1.76.67,6.07.15,1.5-.18,2.91.34,4.41.24,2.69-.18,5.26.31,7.84.82.71.14,1.31-.26,1.94-.22,3.83.22,7.55.58,11.25,1.16,2.13.34,4.07.21,6.22.35,10.92.7,21.97,1.99,32.88,3.29,1.41.17,2.77.78,4.25.84,4.35.18,8.68.31,12.78,1.35,3.21.82,6.69.19,9.95,1.31-.76-.26,12.24,2.1,13.28,2.29l4.06.71,3.37.78c2.03.47,2.94.75,5.23,1.24.74.16,1.4-.13,2.25.27.72.33,1.77.72,2.58.86Z"/>
        <path class="cls-106" d="M119.9,72.16c-.23.01-.41.26-.38.48l-14.13-8.04c-13.65-7.77-27.26-15.23-41.74-21.08l-13.51-5.46-12.32-4.62c-.18-.01-.54.15-.58.39l-9.77-3.44c-.1-.26.33-.35.67-.42,7.4,1.89,14.27,4.12,21.47,6.89,24.35,9.38,48.38,21.8,70.28,35.3Z"/>
        <path class="cls-30" d="M279.29,54.13c0,.35.21.87-.26.93-.38.05-.79-.06-1.08-.11-13.56-2.55-26.89-6.09-40.31-9.76l-15.63-4.28-4.36-1.03c-.01-.16.1-.36.05-.49-.07-.17-.25-.26-.39-.31,13.81,2.41,27.7,6.56,41.82,10.05l20.17,4.99Z"/>
        <path class="cls-142" d="M282.92,57.83c-.76-2.18-2.97-1.14-5.06-1.8-.09-.38-.02-.71.08-1.08.29.06.7.16,1.08.11.47-.06.27-.58.26-.93l19.55,4.5c1.03.24,2.11-.19,2.75.79-.93.15-1.68-.22-2.52-.29l-16.15-1.3Z"/>
        <path class="cls-55" d="M118.31,34.88c2.85.49,5.75.45,8.81.81l21.94,2.58,48.75,6.61,53.41,7.42,20.65,2.92c1.03.14,1.76.31,2.55.62.47.95-9.36-.44-10.47-.58l-14.76-1.96-9.37-1.09-33.47-4.44c-32.24-4.28-64.25-8.21-96.33-12.63l-11.54-1.59c-4.19-.58-8.2-.51-11.6-1.87l24.49,2.55c2.45.25,4.73.28,6.95.66Z"/>
        <path class="cls-103" d="M217.42,145.63c2.62,5.65,4.65,11.58,6.78,17.28-21.42-17.91-42.95-35.21-65.07-52.06-18.78-14.31-37.66-28.35-57.24-41.73-1.7-1.16-4.28-2.56-5.33-3.72.51-.07,1.33.51,1.98.22.24.07.07.74.34.76l.8.06,14.17,9,29.43,19.75,74.14,50.46Z"/>
        <path class="cls-58" d="M88.35,58.42c17.4,9.66,34.41,19.97,51.31,30.71l34.34,21.82,41.16,25.6c-.41-.08-.63-.5-.96.37,1.78,2.75,2.01,6.08,3.23,8.71l-74.14-50.46-29.43-19.75-14.17-9-.8-.06c-.27-.02-.1-.69-.34-.76-.64.29-1.47-.29-1.98-.22-.57-.63-1.89-1.52-2.69-2.1-1.22-.9-2.58-1.06-3.61-2.24-.13-.14-4.74-3.22-4.9-2.81-.66-.42-3.43-1.67-4.07-2.71,1.2-.23,7.24,4.15,7.06,2.88Z"/>
        <path class="cls-95" d="M187.6,55.13l24.17,5.17-9.88,9.63c-.07.12-.07.2-.04.26l-22.69-6.98c.01-.25.09-.59-.13-.64-.24-.06-.52.09-.92-.28l8.77-7.44c.34.16.5.23.71.27Z"/>
        <path class="cls-17" d="M184.72,54.92l-8,6.87c-.36.31-1.62-.81-1.87.02l-21.76-6.96c1.14-.62-4.62-1.69-5.66-2.31l6.38-4.56,30.82,6.62c.19.04.16.3.09.33Z"/>
        <path class="cls-155" d="M158.86,44c-.59,1.12-1.93,1.52-2.82,2.64l31.66,5.47c.23.04.24.24.19.31l-3.17,2.5c.07-.03.09-.29-.09-.33l-30.82-6.62-6.38,4.56c1.04.62,6.8,1.69,5.66,2.31l-8.65-2.76c.24-.58,1.12-.03,1.74-.31.48-.47,6.76-4.06,4.84-4.5l-10.35-2.37c-2.2-.5-4.39-.64-6.47-1.13.08-.33.08-.62-.14-.67-.07-.02-1.3.17-1.51-.11-.09-.12-.24-.26-.07-.47.1-.13.33-.21.54-.32,3.69-1.91,1.72-.56,6.07-.53.17,0,.33-.38.19-.47l19.57,2.81Z"/>
        <path class="cls-56" d="M134.21,43.77c2.08.5,4.27.63,6.47,1.13l10.35,2.37c1.91.44-4.36,4.03-4.84,4.5-.61.28-1.49-.27-1.74.31l-8.04-2.33-9.18-2.59c.02-.5-.73-.57-1.3-.88,3.42-2.45,4.74-3.36,8.27-2.52Z"/>
        <path class="cls-43" d="M111.82,43.07l10.13,2.6,5.29,1.49,9.18,2.59-.16,1.72c-5.99-1.91-12.03-3.54-18.17-4.97l-24.15-5.63-24.81-5.66c-.73-.17-1.29-.21-2-.33l-4.06-.69c-1-.17-1.87-.29-2.96-.51.08-.32.46-.34.39-.59,1.55.23,4.84.81,6.79,1.15l21.94,3.82,6,1.27,3.16.6,13.44,3.13Z"/>
        <path class="cls-109" d="M193.6,49.19c-.44.96-6.17,5.04-6.25,5.54-.02.13.43.1.25.4-.21-.04-.38-.11-.71-.27l-8.77,7.44c.4.37.68.22.92.28.21.05.14.39.13.64l-4.32-1.41c.25-.82,1.5.3,1.87-.02l8-6.87,3.17-2.5c1.14-.91,2.84-1.39,3.73-2.86l-.13-.9c.7.1,1.67-.21,2.11.54Z"/>
        <path class="cls-52" d="M226.22,143.04l3,19.47-2.41-19.09c1.25.45,2.49,1.13,3.56,1.94-.7.66-.42,1.87-.35,2.9.41,6.16.45,12.06,1.29,18.26.42-6.44-1.07-14.46-.58-21.06,1.17.46,2.17,1.29,3.24,1.87-.69,2.09-.66,4.55-.81,6.87l-.53,8.33c-.16,2.49-.35,4.56-.29,6.5-.19-.21-.31.07-.42.02-.17-.08-.02-.41-.14-.57-.16-.21-.44.08-.56.13-.16.07.05.56-.11.68-.57.41-1.18.57-2.16.79.19-.71-.25-1.37-.44-1.91-.05-.3.29-.83.09-1.03.31-.07.25-.47.3-.77.06-.34-.18-.8-.56-.84.09-.33.11-.78.02-1.16l-.76-3.16c-.09-.37.08-.72-.29-1.02-.17-.14-.35-.24-.64-.21-.04-.09-.02-.24.03-.31.71-.11.35-.98.21-1.57l-3.59-15.55c-.11-.48-.17-.71.1-.98.94.28,2.11.72,2.78,1.49Z"/>
        <path class="cls-48" d="M230.73,145.46c-.49,6.6,1,14.63.58,21.06-.84-6.2-.87-12.1-1.29-18.26-.07-1.03-.35-2.25.35-2.9.17-.14.23.05.36.1Z"/>
        <path class="cls-96" d="M223.44,141.55c-.27.27-.21.5-.1.98l3.59,15.55c.13.58.5,1.46-.21,1.57l-3.56-15.48c-.28-1.21-.65-2.29-.85-3.32.34.13,1,.26,1.13.7Z"/>
        <path class="cls-127" d="M226.82,143.41l2.41,19.09-3-19.47c.24-.15.62.1.6.38Z"/>
        <path class="cls-130" d="M44.23,30.72c-.06.44-.61.04-1.02.5,2.81.91,5.63,1.6,8.71,2.2l21.43,4.23c7.5,1.48,14.58,3.12,21.99,4.96l14.89,3.69,32.11,10.04,5.91,1.91c.08.4-.41,0-.8.53l17.43,7.75,83.16,38.74,11.84,5.65c.54.26.91.19,1.27-.07l24.5,27.82c8.11,8.73,16.38,17.01,25.3,25.11,6.19,5.61,12.43,10.38,19.21,15.62-10.83-2.97-21.14-5.98-31.44-9.75-20.25-7.41-41.72-18.03-60.51-28.64-14.07-7.95-27.86-16.06-41.61-24.71l-42.89-27.01-16.74-10.46c-11.91-7.45-23.74-14.41-36.1-21.07-.39-.21-.65-.02-.8.12-.09.08-.08.17-.07.36l-10.49-5.47c-14.89-7.76-29.91-14.49-45.77-19.83-4.3-1.45-8.39-2.14-12.72-3.17l-7.11-1.68c-.27-.06-.51.13-.63-.16-.05-.13-.3-.21-.06-.38,2.26.35,4.5.68,6.9,1.04l14.1,2.13Z"/>
        <path class="cls-20" d="M261.15,110.85c-.36.26-.73.33-1.27.07l-11.84-5.65-83.16-38.74-17.43-7.75c.39-.52.88-.13.8-.53l31.8,10.56,13.08,4.21,35.22,11.38,16.65,5.48,8.68,11.25,7.46,9.74Z"/>
        <path class="cls-9" d="M60.48,33.1c.06.25-.31.27-.39.59,1.09.22,1.96.34,2.96.51l4.06.69c.71.12,1.27.16,2,.33l24.81,5.66,24.15,5.63c-.14.35.06.49.5.86.12.1-.36.27-.46.37-.15.14-.4-.46-.54-.44-.29.04-.88.22-1.22-.03-.23-.16-.72-.23-.24-.74-.03-.31-.54-.12-.86-.23s-.3.44-.65.45c-.42,0-.49-.35-.53-.5-.09-.33-.36.11-.56.12-1.21.04-3.23-1.2-3.29-.07l-14.89-3.69c-7.41-1.84-14.49-3.47-21.99-4.96l-21.43-4.23c-3.08-.61-5.89-1.29-8.71-2.2.42-.46.97-.05,1.02-.5l16.26,2.38Z"/>
        <g>
          <path class="cls-91" d="M118.08,46.51c6.13,1.43,12.18,3.06,18.17,4.97l23.15,7.39,32.19,10.56c16.25,5.33,32.48,10,48.66,15.72,2.15.76,4.04,1.35,5.63,2.81-.37.91-.59-.3-.81-.37l-26.29-8.74-12.6-3.99-15.71-4.84-37.01-12.09-16.32-5.2c-.27-.06-.52.52-.78.72.92.11,1.17.25,1.75.45l36.54,12.12,27.79,8.96,19.26,6.29,24.4,8.08,12.21,15.77c13.77,17.79,31.65,37.58,48.11,53.09,8.53,8.03,17.16,15.42,26.88,21.82.98.64,6.22,2.33,6.25,1.31.48.43,1.43.7,1.4,1.22-.04.66.14,2.17-.65,2.13-6.08-.34-11.73-1.49-17.51-2.95l-10.49-2.65c.12-.24.29-.87-.29-1.04-25.11-7.06-60.56-23.69-83.12-37.33l-40.84-24.69-33.26-21.21-35.27-22.18c-.03-.23.15-.47.38-.48l31.74,19.56,32.67,20.89c17.29,11.05,34.66,21.54,52.53,31.56,14.16,7.94,28.53,15.16,43.51,21.51,14.43,6.11,28.93,10.99,44.05,14.89l11.98,3.09c-1.07-1.85-2.9-2.34-4.66-2.84l-10.52-2.96c-29.77-8.37-56.52-20.96-83.49-36.16-17.09-9.63-33.75-19.77-50.35-30.2l-51.88-32.56-35.47-20.71c-.02-.19-.02-.28.07-.36.15-.14.41-.33.8-.12,12.36,6.66,24.19,13.63,36.1,21.07l16.74,10.46,42.89,27.01c13.75,8.66,27.53,16.76,41.61,24.71,18.79,10.61,40.27,21.23,60.51,28.64,10.3,3.77,20.61,6.78,31.44,9.75-6.78-5.24-13.02-10-19.21-15.62-8.92-8.09-17.19-16.37-25.3-25.11l-24.5-27.82-7.46-9.74-8.68-11.25-16.65-5.48-35.22-11.38-13.08-4.21-31.8-10.56-5.91-1.91-32.11-10.04c.06-1.13,2.08.11,3.29.07.2,0,.46-.45.56-.12.04.15.12.51.53.5.35,0,.33-.56.65-.45s.83-.08.86.23c-.48.51.01.58.24.74.34.24.93.07,1.22.03.14-.02.4.58.54.44.11-.1.58-.26.46-.37-.43-.37-.64-.51-.5-.86Z"/>
          <path class="cls-129" d="M136.15,53.36l-17.33-5.39c.2-.87.8-.45,1.36-.31,5.52,1.45,10.77,2.98,16.07,4.81.25.09.19.36-.1.89Z"/>
        </g>
        <path class="cls-164" d="M239.16,58.86c-.06.19.19.19.3.27-1.02,1.51-2.34,2.79-3.59,4.14-3.62,3.89-7.48,7.51-10.84,11.73-.24-1.09.77-1.61,1.36-2.17.73-.68,1.05-1.46,1.43-1.95.48-.63,1.7-1.03,1.6-2.11-.02-.27.59.08.72-.32.05-.16-.07-.41-.06-.59.27-.14.57-.01.8-.3.15-.19-.06-.35-.09-.56.22-.16.57-.05.68-.35.04-.09.21-.09-.03-.45,1.17-.63,2.15-1.41,3-3.06-7.01-1.01-13.91-1.39-20.69-2.73,1.3-1.09,2.24-2.68,3.89-3.7l19,2.06c.34.04.86.11.95.45.04.13-.1.18.24.52l1.33-.87Z"/>
        <path class="cls-86" d="M239.46,59.12c-.11-.08-.36-.08-.3-.27.99-1.28,2.18-2.49,3.51-3.4-.71,1.77-2.37,2.43-3.2,3.66Z"/>
        <path class="cls-51" d="M191.49,48.65l.13.9c-.89,1.47-2.59,1.96-3.73,2.86.05-.07.04-.27-.19-.31l-31.66-5.47c.89-1.12,2.23-1.52,2.82-2.64l3.5.39,29.13,4.26Z"/>
        <path class="cls-56" d="M121.94,45.67l-10.13-2.6c.26-.53-.16-.68-.6-.64l-6.23-1.47c1.11-.8,2.36-1.42,3.53-1.69l20.42,3.4c-.17,1.13-.98,1.59-1.64,1.46-.17.17-.23.59-.59.77-.2.1-.4.16-.77-.07-.08.25-.26.55-.42.62-.13.06-.4-.14-.53-.04-.32.24-.42.48-.58.56.12-.06-2.7-1.1-2.45-.31Z"/>
        <g>
          <path class="cls-64" d="M15.87,25.63l14.83,1.5,50.66,6.46,57.93,7.62c.14.09-.03.46-.19.47-4.35-.02-2.38-1.38-6.07.53-.21.11-.44.19-.54.32-.17.21-.02.36.07.47.21.27,1.44.09,1.51.11.22.05.21.33.14.67-3.53-.84-4.85.07-8.27,2.52.58.31,1.33.38,1.3.88l-5.29-1.49c-.25-.79,2.56.25,2.45.31.16-.08.27-.33.58-.56.13-.1.39.1.53.04.16-.07.34-.36.42-.62.37.23.57.17.77.07.37-.18.43-.59.59-.77.66.12,1.48-.33,1.64-1.46l-20.42-3.4c-1.17.27-2.42.89-3.53,1.69l6.23,1.47c.44-.05.86.11.6.64l-13.44-3.13-3.16-.6-6-1.27-21.94-3.82c-1.96-.34-5.24-.92-6.79-1.15l-16.26-2.38-14.1-2.13c-2.39-.36-4.64-.69-6.9-1.04l-6.39-.99c-1.56-.24-3.2-.37-5.01-.87,1.48-.38,2.81-.19,4.04-.07Z"/>
          <path class="cls-62" d="M105.09,39.33c1.01.28-3.3.99-2.25,1.25l-4.35-1.07-12.52-2.37c.33-.65,1.18-.69,1.69-.53,2.11.65,4.12.54,6.27.86l7.51,1.11c1.29.19,2.48.19,3.65.75Z"/>
        </g>
        <path class="cls-108" d="M232.36,169.03c-.06-1.93.13-4,.29-6.5l.53-8.33c.15-2.31.11-4.78.81-6.87-.18.36.15.8.12,1.15l-.72,9.83-.37,6.79c-.08,1.55-.23,3.02-.34,4.68-.5-.17-.19-.52-.31-.76Z"/>
        <path class="cls-21" d="M228.35,165.52c-.57-.07-.86-3.8-1.67-5.56.3-.03.47.07.64.21.36.3.2.66.29,1.02l.76,3.16c.09.39.07.83-.02,1.16Z"/>
        <path class="cls-21" d="M228.61,167.13c-.15-.55-.42-1.03-.26-1.61.37.05.61.51.56.84-.05.29,0,.7-.3.77Z"/>
      </g>
      <g>
        <path class="cls-10" d="M12.12,25.87c118.02,34.28,207.89,143.05,329.71,159.32-32.04-26.74-60.89-57.29-85.76-90.8-2.58-3.47-5.19-7.05-8.82-9.41-4.67-3.03-68.35-21.15-101.27-32.3C112.3,41.27,47.32,30.87,12.12,25.87c90.53,8.1,197.42,28.55,288.17,33.57-39.75-2.2-110.41-43.68-288.17-33.57Z"/>
        <path class="cls-10" d="M60.71,44.78c64.16,37.24,118.8,88.55,172.83,139.38,1.49-11.84,2.99-23.68,4.48-35.52"/>
        <path class="cls-10" d="M247.86,55.24s-10.19,11.93-14.65,19.76"/>
      </g>
      <path class="cls-10" d="M318.94,132.19c-2.21-.4-4.42-.8-6.63-1.19,20.11,6.06,39.37,14.91,57.07,26.21-7.33-3.01-14.21-7.13-20.33-12.17"/>
      <path class="cls-10" d="M313.35,112.9c13.83,5.39,27.65,10.79,41.48,16.18"/>
    </g>
    <path class="cls-10" d="M333.61,699.03c.87,9.55,1.74,19.11,2.61,28.66,3.76,41.32,8.34,82.57,13.75,123.7,32.9-72.64,98.79-124.93,167.43-165.52,72.08-42.62,149.85-75.58,230.6-97.74,1.98,6.1-7.02,11.86-12.09,7.93,59.61-16.97,123.2-8.14,184.31,2.2,110.06,18.62,223.99,43.86,310.79,114.05-7.78-40.52-19.02-80.37-33.55-118.99-7.33-19.47-18.75-41.32-39.3-44.51"/>
    <path class="cls-10" d="M373.69,795.37c9.11,18.6,18.22,37.19,27.34,55.79,39.81-39.25,87.13-69.96,134.89-99,53.04-32.25,115.84-100.22,174.68-119.97,77.38-25.98,153.02,5.09,233.36,19.5,76.26,13.68,148,45.22,218.44,77.48,7.6-20.23,12.45-41.49,14.36-63.02"/>
    <path class="cls-10" d="M734.58,768.28c.33-21.85.66-43.7.99-65.55,3.7,17.46,11.18,34.12,21.8,48.47-11.02-14.45-12.11-53.5-16.19-71.55-5.6-24.77-11.21-49.53-16.81-74.3-11.62-51.37-23.25-102.73-34.87-154.1-2.12-9.36-19.23-132.29-28.57-133.04-17.62-1.42,9.15,119.74,10.55,127.08,9.56,50.23,19.23,100.44,29.02,150.62,11.21,57.49,22.58,114.94,34.09,172.37Z"/>
    <path class="cls-10" d="M295.81,480.37c11.28-14.62,206.74-141.87,287.95-154.69,25.82-4.07,59.05-5.62,72.84,9.35,10.08-17.64,34.16-29.91,57.77-40.52,108.48-48.77,318.32-61.31,320.09-60.3,6.84,3.92,11.44,9.25,15.71,14.53,80.15,99.14,88.71,217.94,166.41,317.93-141.65-21.92-206.84-26.3-345.39,3.02-53.22,11.26-104.82,26.2-159.48,33.88-3.6.51-2.77-3.91-5.34-2.17-57.13-8.35-115.99,9.75-161.84,33.75-45.85,24-83.93,54.18-131.73,76.46-33.28,15.51-70.91,26.93-110.4,33.51-35.64-97.94-14.67-254.29-6.59-264.75Z"/>
  </g>
  <g id="Ebene_24" data-name="Ebene 24">
    <g>
      <g id="Generatives_Objekt-3" data-name="Generatives Objekt">
        <path class="cls-100" d="M649.64,58.39c.66.38-10.76.74-9.03-.11.97,0,5.61-.45,5.88-1.37.2-.69.17-1.12-.13-1.98-.75-2.14-.88-4.45-1.41-6.66l-1.38-5.75c-.89-3.72-.5-8.65-3.83-9.63-2.79-.83-5.56-2.84-6.83-5.6,1.71-1.7,5.04-.41,6.44-1.61,1.96-1.68.22-5.35-.06-7.3-.19-1.35-1.38-8.14-2.64-7.94-4.32-.33-8.66-1.04-12.05-4.68,4.31-1.61,8.53-2.3,12.83-3.14,6.67-1.31,5.18-1.99,12.47-1.34-.05,5.19-8.28,6.33-8.56,8.78-.01,3.36,1.49,6.34,1.73,9.67.11,1.49.08,3.77,1.4,4.7,2.81,1.97,6.63-1.71,8.06-.26,1.23,1.25-4.72,7.65-6.54,8.85-1.46,1.62.07,4.78.39,6.62l3.28,18.74Z"/>
        <path class="cls-28" d="M555.3,334.6c.71.03.53.9.96,1.44-.75-.28-1.3-.86-.96-1.44Z"/>
        <circle class="cls-28" cx="556.52" cy="336.77" r=".24"/>
        <path class="cls-73" d="M596.32,345.12c.08.31.04.41,0,.38s-.07-.19,0-.38Z"/>
        <path class="cls-73" d="M556.26,316.05c-.43.18-.77-.06-.9-.19-.11-.11-.07-.45.13-.72.05-.06,1.18.86.78.91Z"/>
        <g>
          <path class="cls-118" d="M518.15,371.09c-4.5-.11-8.79.26-13.23-.39.1-3,2.51-5.07,5.35-5.39.87-.1,2.08-.63,3.07-.63h10.54c3.91.01,7.7.5,11.6-.39.56-2.01-.33-3.86-.78-5.85l-6.46-29.06c-.36-1.61-.21-2.86-1.41-4.31.1-.49.61-.79.85-.75,2.15.33,26.13,20.42,29.77,23.83l21.45,20.08c-3.03.64-5.16.28-7.59.98s-5.05.06-7.55.5c-5.1.9-15.01.95-20.38,1.31l-7.63.51-17.63-.43Z"/>
          <path class="cls-73" d="M596.32,345.12l-17.93-13.45-9.48-6.26c-4.42-2.92-8.87-5.78-12.65-9.36l12.01,3.97c6.02,1.99,15.79,7.14,19.39,11.95,3.18,4.25,6.86,8.27,8.66,13.15Z"/>
          <path class="cls-28" d="M555.3,334.6c-2.13-2.32-4.12-4.63-6.31-7.02-1.75-1.92-2.93-4.17-4.6-6.27-3.75-4.71-14.58-18.95-15.14-24.74,1.23,1.44,2.55,2.59,3.76,4.14l9.57,12.32c2.07,2.66,12.46,18.55,12.71,21.56Z"/>
          <g>
            <path class="cls-88" d="M782.16,302.11c1.18,4.5-2.88,13.81-4.11,20.64-.86,4.78.77,8.57,3.69,12.3,7.88,10.05,11.9,22.35,12.88,35.36-14.63,5.68-29.23-5.5-34.03-19.07,1.03-2.36,2.48-4.11,4.37-5.79,4.41-3.93,4.98-10.41,1.3-14.93-4.51-.04-4.06,8.88-4.26,12.6-.11,2.04-2.24,3.27-4.2,3.01-4.07-.54-6.96-3.71-7.49-7.84-.49-3.88.43-7.76,2.43-11.25,2.29-3.98,4.97-7.84,7.97-11.07,4.02-4.33,15.26-12.82,21.45-13.97Z"/>
            <path class="cls-59" d="M444.84,261.71c5.99,2.74,11.84,5.52,16.78,10.38,1.94,1.91,4.17,3.95,5.14,6.34,2.28,5.62.62,12.31-3.54,16.95-3.81,4.24-8.81,7.05-14.4,8.28-.48-8.19,3.41-14.72,7.28-21.11.55-.9,1.86-.99,1.6-2.05-.89.36-1.71.67-2,1.29-5.26,1.97-10.76,3.83-16.59,2.44-2.68-.64-5.28-1.81-6.36-4.35,7-5.77,11.63-9.35,7.52-19.05l4.58.86Z"/>
            <g>
              <path class="cls-123" d="M636.32,239.4c.21-.14.71-.15.5-.56.3,0,.7-.2.93-.39.46-.37,1.27-.41,1.46-1.03.12.01.36,0,.48-.01.43-.31,1.33-.31,1.43-.96.14.02.51-.02.51-.16,2.05-3.65,21.16,24.56,21.39,24.95l11.38,19.21c6.25-12.5,12.87-25.96,23.47-34.8,2.56-1.91,5.26-3.21,8.49-3.04,6.19.32,5.62,7.66,5.29,13.45-.79,14.06-3.3,27.57-7.96,40.92-3.61,10.33-9.91,18.81-18.83,24.74-.29.19-.94.22-1.05-.05-8.33,5.36-28.62.49-28.33,2.66-1.36-.46,15.38-29.32,14.74-30.71-6.23-13.58-13.44-26.44-21.54-38.9-2.43-3.73-7.21-10.61-11.96-6.42-8.74,7.7-29.97,32.15-37.75,41.84-.65.81,2.69,29.22,1.73,28.88-.5,1-15.3-1.28-21.49-8.07-.29-.32-.84.43-1.48.68-18.12-16.72-29.12-44.91-30.12-68.94.17-.3.18-.67-.02-.95-.32-4.54.07-9.22,1.48-13.75.92-2.96,3.18-4.71,6.3-4.94,4.1-.31,7.82,1.27,11.12,3.76,13.08,9.86,26.37,32.91,34.99,47.7,8.81-11.96,23.34-27.06,34.84-35.09Z"/>
              <path class="cls-161" d="M672.14,296.97c1.2,9.09,4.15,18.28,10.14,25.25.38.42.21,1.26-.58,1.69-12.74,6.9-27.11,11.44-41.42,11.28,3.05-2.23,5.61-4.95,7.01-8.3.9-2.17,1.59-4.01,1.65-6.55.05-2.22.26-4.42.25-6.66l-.02-5.68-.12-8.16-.41-4.19c-.21-2.1-.23-4.21-.39-6.31l-.29-3.9c-.14-1.85.18-3.73-.28-5.57-.26-1.05.14-2.33-.06-3.36-.13-.7-.18-1.21.11-1.84,2.19.49,4.03,1.42,7.32,1.41-1.35-5.64-10.76-23.39-16.81-25.03-3.46,3.4-5.77,7.38-8.68,11.07-.95,1.21-1.76,2.1-1.78,3.47-.01.69-.26.87.81,1.46l6.78,3.75c-.37,1.71-1.15,3.54-1.34,5.25-.73.61-.89,2.03-1.44,2.79-.95,1.32-1.29,2.91-2.01,4.3-.53,1.03-1.46,2.41-1.83,3.51-1.61,1.51-2.11,3.88-3.39,5.57-1.08,1.43-1.96,3.27-2.82,4.76-1.5,1.54-2.27,3.56-3.38,5.31l-2.79,4.4c-1.47,2.31-3.06,4.55-4.23,7.09-.82,1.78-1.88,3.38-2.55,5.25-1.17,3.26-2.29,6.8-1.36,10.22-.18.19-.53.28-.48.61-10.2-3.85-19.63-9.4-28.11-16.61-.41-.35.33-.86.33-1.01,7.41-5.17,12.87-12.99,16.96-21.08.96.34,1.35-.21,2-1.01,7.78-9.69,29-34.13,37.75-41.84,4.75-4.18,9.53,2.69,11.96,6.42,8.11,12.46,15.31,25.32,21.54,38.9.64,1.39.56,2.91,1.92,3.37Z"/>
              <path class="cls-90" d="M554.84,315.08c-.71-.3-1.11-.7-1.41-1.41.71.3,1.11.7,1.41,1.41Z"/>
            </g>
          </g>
        </g>
        <path class="cls-115" d="M637.72,269.27c-8.14,13.97-16.28,27.94-24.42,41.91-1.72,2.95-3.47,5.98-3.99,9.35-.37,2.41-.1,4.87.23,7.29,1.33,9.84,3.47,19.57,6.38,29.07,8.93-8.08,17.86-16.17,26.79-24.25,2.21-2,4.48-4.09,5.58-6.86.94-2.36.93-4.98.9-7.53-.17-15.03-.33-30.07-.5-45.1,2.77.43,5.41,1.69,7.49,3.56-8.31-15.3-14.79-39.09-29.32-12.02,1.02.62,10.4,5.36,10.85,4.58Z"/>
      </g>
      <path class="cls-145" d="M610.1,323.29c-.16-2.06-.27-4.15.21-6.16.56-2.36,1.9-4.44,3.23-6.46,3.95-6.02,8-11.97,12.13-17.86-5.73,12.28-8.67,25.85-8.54,39.4,7.83,2.64,16.42,2.99,24.43.99-4.42,4.2-8.84,8.41-13.27,12.61-2.12,2.01-8.73,10.59-11.66,9.07-3.16-1.64-3.7-11.07-4.26-14.05-1.08-5.8-1.85-11.65-2.29-17.54Z"/>
      <path class="cls-6" d="M636.89,59.27c13.97-2.26,28.39,1.12,41.23,7.09,44.44,20.64,70.28,74.86,58.34,122.38-1.21,4.81-2.83,9.67-6.03,13.47-3.33,3.94-8.07,6.39-12.79,8.48-47.52,21.08-131.23,17.24-163.17-31.01-30.02-45.35,40.82-113.68,82.43-120.39Z"/>
      <path class="cls-136" d="M677.5,77.47c35.49,17.64,53.47,53.14,43.81,91.57-.98,3.89-2.29,7.83-4.88,10.89-2.69,3.19-6.53,5.17-10.34,6.86-38.44,17.05-116.82,23.44-142.65-15.58-24.28-36.68,49.69-125.74,114.07-93.74Z"/>
      <path class="cls-161" d="M647.43,180.11c.18-.88.81-2.03,1.63-1.67-2.15,14.7-1.49,29.81,1.95,44.26-.52-2.18-12.47-1.16-14.18-2.76-2.45-2.31.52-6.49,1.53-8.99,3.99-9.92,6.93-20.37,9.07-30.84Z"/>
      <g>
        <path class="cls-11" d="M636.89,59.27c13.97-2.26,28.39,1.12,41.23,7.09,44.44,20.64,70.28,74.86,58.34,122.38-1.21,4.81-2.83,9.67-6.03,13.47-3.33,3.94-8.07,6.39-12.79,8.48-47.52,21.08-131.23,17.24-163.17-31.01-30.02-45.35,40.82-113.68,82.43-120.39Z"/>
        <path class="cls-11" d="M547.81,115.92c28.72-8,62.06-2.34,83.38,18.5,21.32,20.84,27.02,57.45,9.32,81.44-5.52,7.49-13.29,13.69-22.39,15.63-18.97,4.05-37.95-12.67-41.29-31.77s5.65-38.56,18.46-53.12c11.42-12.97,26.38-23.31,43.3-26.88,24.54-5.17,51.68,5.53,66.09,26.05,10.02,14.26,13.87,32.09,14.26,49.52.3,13.78-2.4,29.32-13.7,37.21-12.33,8.6-30.72,3.65-40.2-8.02-9.48-11.67-11.35-27.99-9.02-42.84,4.2-26.65,22.99-52.08,49.25-58.25,26.26-6.17,57.38,12.4,59.44,39.3-.85,1.6-1.69,3.2-2.54,4.8"/>
        <path class="cls-11" d="M560.2,222.15c-3.66-1.13-6.91-.24-9.4,3.56-10.16,15.5,5.29,56.83,14.22,70.03,22.07,32.62,67.57,47.06,104.41,33.12,6.82-2.58,13.37-6.05,18.89-10.81,6.81-5.88,11.86-13.59,15.52-21.81,3.13-7.01,17.33-62.45-2.27-54.11-3.01,1.28-5.31,3.79-7.43,6.3-7.95,9.42-14.72,19.84-20.09,30.94-8.5-16.16-18.86-31.33-30.81-45.13-16.27,10.45-30.59,23.94-42,39.55-5.24-10.48-26.4-47.13-41.03-51.64Z"/>
        <path class="cls-11" d="M637.72,269.27c-8.14,13.97-16.28,27.94-24.42,41.91-1.72,2.95-3.47,5.98-3.99,9.35-.37,2.41-.1,4.87.23,7.29,1.33,9.84,3.47,19.57,6.38,29.07,8.93-8.08,17.86-16.17,26.79-24.25,2.21-2,4.48-4.09,5.58-6.86.94-2.36.93-4.98.9-7.53-.17-15.03-.33-30.07-.5-45.1,2.77.43,5.41,1.69,7.49,3.56-8.31-15.3-14.79-39.09-29.32-12.02,1.02.62,10.4,5.36,10.85,4.58Z"/>
        <path class="cls-11" d="M647.66,63.76c.36-16.11-3.61-23.28-13.3-36.15,7.12-2.94,14.63-4.93,22.28-5.91-11.83-5.21-23.65-10.43-35.48-15.64,4.14-.38,25.08-5.19,29.22-5.56"/>
        <path class="cls-11" d="M582.2,304.82c.48,1.17-.2,2.47-.95,3.48-7.4,10.04-24.89,9.89-32.12-.28,18.79,3.31,35.63,16.22,43.7,33.51-23.31-11.74-38.51-38.15-63.96-43.94,15.19,23.22,30.38,46.45,45.57,69.67-13.88-16.1-28.1-32.5-46.44-43.25,2.82,13.33,5.65,26.66,8.47,39.98-5.27,3.1-11.83,2.33-17.94,2.24-6.11-.09-13.15,1.17-16.22,6.46"/>
        <path class="cls-11" d="M707.46,258.45c1.12-3.69,5.82-4.78,9.67-4.62,12.08.49,23.34,6.99,31.65,15.77,8.31,8.78,13.98,19.71,18.74,30.82,3.98-1.51,7.95-3.02,11.93-4.54-7.04,7.99-15.12,15.06-23.97,20.99,8.23-5.94,17.13-10.94,26.48-14.87.69,8.23-5.41,16.09-4,24.23.75,4.34,3.53,7.99,5.89,11.71,5.19,8.18,8.66,17.45,10.11,27.03.23,1.5.36,3.19-.58,4.39-.88,1.12-2.42,1.45-3.84,1.58-9.67.89-19.64-4.15-24.65-12.46-5.01-8.31-4.82-19.48.48-27.62,3.15,2.44,4.26,7.17,2.53,10.76-1.73,3.59-6.12,5.67-9.99,4.73-6.04-1.46-8.79-9.09-7.21-15.1,1.59-6.01,6.17-10.69,10.58-15.07,1.34-.11,2.68-.21,4.02-.32"/>
        <path class="cls-11" d="M549.03,241.07c-38.89-14.59-58.9-1.46-92.08,23.52,1.14,1.59,2.66-1.68,1.82-3.45-1.93-4.04-4.64-7.71-7.95-10.73,5.26,7.65,10.52,15.3,15.78,22.94-7.02-4.45-14.55-8.1-22.38-10.88-.15,5.39-3.24,10.61-7.89,13.34-1.47.87-3.31,1.78-3.05,3.74.1.78.57,1.47,1.17,1.98,7.17,6.04,17.41,1.02,25-3.98-6.21,7.43-10.02,16.84-10.73,26.5,9.23-1.82,17.11-9.25,19.47-18.36s-.91-19.43-8.08-25.51c.71,3.17,2.27,6.55,5.32,7.67,3.05,1.12,7.21-1.89,5.94-4.88"/>
      </g>
      <path class="cls-147" d="M659.58,166.04c-5.4,14.88-5.55,31.61-.44,46.59,1.32,3.87,3,7.66,5.36,11,7.37,10.45,21.6,15.5,33.9,12.03,4.76-1.34,9.27-3.91,12.39-7.75,4.04-4.97,5.42-11.56,6.17-17.92,1.8-15.27.66-30.88-3.34-45.72-2.93-10.88-7.85-22.07-16.6-29.53-1.58-1.34-4.94-4.56-7.11-4.65-2.38-.1-5.51,2.98-7.37,4.43-4.86,3.78-9.21,8.21-12.93,13.11-4.24,5.59-7.66,11.81-10.05,18.41Z"/>
      <path class="cls-147" d="M591.81,150.97c-4.23,5.21-8.03,10.81-10.68,16.97-6.19,14.4-5.46,31.59,1.92,45.41,2.24,4.2,5.1,8.13,8.76,11.17,8.37,6.95,20.54,8.52,30.81,4.94s18.56-11.87,23.21-21.7,5.87-21.07,4.61-31.87c-1.44-12.43-6.2-24.42-13.45-34.6-3.4-4.77-7.89-10.97-13-14.02-5.52-3.3-11.3,3.37-15.46,6.82-6.11,5.06-11.73,10.72-16.73,16.89Z"/>
      <path class="cls-135" d="M605.16,151.24c4.83-3.79,10-7.73,16.11-8.4,1.2-.13,2.44-.13,3.61.19,1.12.31,2.13.9,3.1,1.53,8.15,5.36,13.53,14.7,14.09,24.43-2.94-2.98-5.89-5.98-9.28-8.45-4.17-3.04-9.16-5.26-14.32-5.13-9.04.22-16.4,8.28-25.23,8.11,1.32-4.85,8.1-9.28,11.92-12.28Z"/>
      <path class="cls-26" d="M683.53,147.54c1.41-.95,2.96-1.78,4.65-1.94,3.74-.34,6.96,2.69,8.88,5.92,1.52,2.57,2.57,5.39,3.62,8.18,1.3,3.48,2.6,6.96,3.9,10.45-2.81-.6-3.69-4.33-6.17-5.78-14.52-8.51-26.7,3.66-25.74-2.94.77-5.31,6.7-11.11,10.86-13.9Z"/>
      <path class="cls-90" d="M609.36,192.02c.08,1.52.3,3.16,1.52,4.29,2.06,1.92,5.83,1.37,8.53.13,4.66-2.14,8.13-5.77,10.75-9.65,3.9-5.78,6.15-12.4,6.19-19.06.03-4.44-1.17-17.52-9.63-13.19-6.2,3.18-10.83,11.69-13.34,17.15-2.97,6.45-4.38,13.41-4.02,20.33Z"/>
      <path class="cls-90" d="M675.21,191.68c.76,2.17,1.91,4.53,4.36,5.46,2.43.92,5.4.04,7.27-1.56s2.86-3.78,3.66-5.92c3.73-9.88,4.82-21.86-1.7-31.13-9.79-13.92-14.98,6.2-15.78,12.85s-.09,13.74,2.19,20.3Z"/>
    </g>
  </g>
</svg>