<svg width="496" height="419" viewBox="0 0 496 419" fill="none" xmlns="http://www.w3.org/2000/svg">
<path d="M9.48835 366.372C25.2533 364.386 46.5891 369.166 62.8815 368.613C58.3077 368.234 4.03284 371.176 4.04932 367.971C5.59038 367.583 8.06266 366.553 9.48835 366.372Z" fill="#FEFFFF"/>
<path d="M428.986 1.23193C432.216 10.8244 427.651 21.1091 426.744 30.3307C426.324 34.5913 427.206 39.5276 426.744 43.7635C425.821 52.2846 423.448 61.4733 423.225 70.2993C422.871 57.155 423.027 42.7581 424.181 29.6962C424.379 27.5041 427.42 0.927018 428.977 1.24017L428.986 1.23193Z" fill="#FEFFFF"/>
<path d="M146.659 365.094V365.737C119.843 367.74 93.0681 369.487 66.0873 367.979C92.928 367.303 119.917 367.427 146.659 365.103V365.094Z" fill="#FEFFFF"/>
<path d="M192.058 359.334L193.336 361.254C177.719 362.408 162.292 364.567 146.651 365.729V365.086C159.737 363.949 179.59 362.194 192.05 359.334H192.058Z" fill="#F6E8DF"/>
<path d="M422.912 113.779H422.269C421.899 103.288 420.976 92.9207 422.591 82.4464L422.912 113.779Z" fill="#F6E8DF"/>
<path d="M197.819 360.62C196.121 360.743 194.704 361.155 193.344 361.263L192.067 359.342C193.575 358.996 195.124 358.7 196.541 358.065L197.819 360.62Z" fill="#FEFFFF"/>
<path d="M448.813 382.359C449.036 383.01 450.42 389.381 449.456 389.397C449.234 388.746 447.849 382.376 448.813 382.359Z" fill="#FEFFFF"/>
<path d="M202.294 363.174L201.016 360.62C201.601 360.603 202.574 359.244 203.571 360.298C203.101 360.9 202.426 362.507 202.294 363.174Z" fill="#FEFFFF"/>
<path d="M447.536 372.767C448.03 372.693 449.135 379.162 448.179 379.162C448.146 378.568 446.77 372.89 447.536 372.767Z" fill="#FEFFFF"/>
<path d="M445.295 366.372L446.572 365.094C446.572 366.809 447.75 368.012 446.893 369.569C446.127 368.597 446.218 367.229 445.295 366.372Z" fill="#FEFFFF"/>
<path d="M415.24 374.044C415.701 372.775 415.643 372.668 416.517 371.49C415.907 373.657 416.253 372.602 415.24 374.044Z" fill="#FEFFFF"/>
<path d="M90.3815 187.321C90.6947 190.7 95.8371 190.395 91.3375 191.796C96.0843 190.164 97.205 195.117 100.287 196.913C100.6 197.095 106.039 197.779 107.325 198.834C110.844 201.726 107.786 203.687 107.968 203.951C108.231 204.338 113.192 204.347 113.72 204.594C116.538 205.904 122.192 211.129 121.714 214.829C112.657 219.988 89.5987 236.981 79.8249 237.212C62.7332 237.615 77.0971 206.91 81.4236 199.163C84.1844 194.219 87.5714 191.112 90.3733 187.329L90.3815 187.321Z" fill="#51B5DA"/>
<path d="M440.82 111.224H440.177L437.622 108.982C449.489 97.6591 461.34 84.8526 467.677 70.6123L440.82 73.167L473.75 29.3663C476.445 35.4482 478.217 42.2552 481.101 48.2299C482.568 51.2625 484.991 51.4356 485.576 52.7047C489.128 60.3276 491.18 70.1508 495.812 77.6418L473.108 70.9254C467.463 78.812 448.97 108.331 440.811 111.215L440.82 111.224Z" fill="#FCE95C"/>
<path d="M299.496 164.938C299.537 167.691 297.065 164.04 297.576 167.493C290.768 167.765 283.722 170.056 277.748 173.245C276.289 170.666 272.861 177.259 271.996 173.245C285.799 167.485 282.618 166.315 299.496 164.93V164.938Z" fill="#FEFFFF"/>
<path d="M201.651 372.767C200.769 375.841 199.129 379.31 198.453 382.359C195.965 377.934 199.385 374.283 200.373 370.847L201.651 372.767Z" fill="#FEFFFF"/>
<path d="M426.11 189.233C429.505 236.346 436.106 283.213 442.74 329.914C440.226 335.559 443.317 335.567 443.383 335.988C444.891 345.679 446.555 355.469 446.58 365.086L445.303 366.364C435.142 356.953 425.797 356.648 412.372 359.326C409.735 359.853 400.851 364.427 398.939 363.801C396.31 362.944 397.777 357.834 397.341 356.45C394.077 346.107 392.544 334.224 390.303 322.876C390.146 322.077 390.459 321.113 390.303 320.322C396.591 301.442 404.799 282.932 410.13 263.731C417.432 237.426 428.615 202.657 396.063 190.51C405.994 189.892 416.122 188.928 426.118 189.233H426.11Z" fill="url(#paint0_linear_342_1612)"/>
<path d="M442.74 329.922C436.114 283.221 429.513 236.346 426.11 189.241C514.815 191.903 485.263 254.938 456.807 307.861C453.362 314.264 445.212 324.368 442.74 329.922Z" fill="url(#paint1_linear_342_1612)"/>
<path d="M277.756 173.253C276.215 174.077 272.548 176.105 271.361 177.094C266.219 174.91 263.071 180.67 259.527 184.131C258.909 184.741 260.483 185.021 259.527 186.052C259.412 186.175 258.546 184.453 257.928 185.096C256.667 186.398 245.509 201.339 245.138 202.36C243.589 206.679 245.789 209.003 245.781 209.398C245.756 210.535 243.919 209.794 243.861 210.041C243.358 212.109 243.935 213.7 243.861 213.881C243.408 214.928 240.532 217.334 240.021 218.999C239.51 220.664 236.559 234.442 241.941 228.591C243.498 226.894 243.927 219.32 247.058 218.043C245.221 222.444 243.367 226.91 241.941 231.476C241.735 231.434 241.504 231.517 241.298 231.476C234.046 230.116 214.342 224.735 215.718 237.549C216.089 240.978 225.764 256.141 228.508 258.654C229.687 259.742 229.555 259.973 231.063 258.976C231.022 259.182 231.104 259.413 231.063 259.619C230.947 260.22 231.145 260.921 231.063 261.539C230.758 263.871 230.239 266.195 230.42 268.576C230.206 268.568 229.991 268.585 229.777 268.576C213.196 267.925 207.312 272.268 221.462 284.564C215.059 287.3 217.284 293.835 214.424 299.595C213.229 302.002 206.703 308.034 206.109 309.188C204.461 312.402 204.964 318.022 202.912 321.656C198.017 319.135 193.047 316.489 188.523 313.341C183.628 309.938 179.12 304.688 174.134 302.471C173.475 299.356 173.508 297.848 173.491 294.799C173.483 292.096 173.154 288.371 173.491 285.849C176.211 265.577 204.585 215.777 216.336 196.963C216.831 196.171 217.918 195.323 218.256 194.408C218.561 194.235 219.896 193.048 220.811 192.488C222.706 192.941 224.017 191.161 225.286 190.568C230.618 188.104 235.859 186.777 241.273 184.815C241.595 184.7 241.998 184.848 241.916 184.173C242.32 184.107 242.781 184.222 243.193 184.173C243.671 184.107 243.902 184.09 243.836 183.53C244.24 183.464 244.702 183.579 245.114 183.53C245.592 183.464 245.822 183.447 245.756 182.887C245.962 182.838 246.201 182.945 246.399 182.887C246.795 182.78 247.116 182.887 247.042 182.244C247.446 182.178 247.915 182.31 248.319 182.244C249.514 182.038 249.597 181.84 250.239 181.601C250.281 181.585 249.992 181.247 250.882 180.959C251.335 182.351 252.514 181.486 252.16 180.316C252.333 180.266 252.588 180.332 252.802 180.316C252.926 180.308 253.923 182.261 254.08 179.673C254.278 179.698 254.516 179.673 254.723 179.673C254.846 179.673 255.835 181.626 256 179.03C256.206 179.047 256.428 179.03 256.643 179.03C259.346 179.039 261.538 178.964 263.994 177.753L263.038 176.476C264.134 176.105 264.414 176.031 265.592 175.833C266.054 175.759 266.301 175.767 266.235 175.19C266.639 175.124 267.1 175.239 267.512 175.19C267.99 175.124 268.221 175.108 268.155 174.547C268.963 174.069 269.466 174.119 270.075 173.904C270.413 173.789 270.801 173.929 270.718 173.262C271.114 173.196 271.74 173.369 271.996 173.262C272.861 177.275 276.289 170.682 277.748 173.262L277.756 173.253Z" fill="url(#paint2_linear_342_1612)"/>
<path d="M216.361 196.913C204.609 215.727 176.236 265.527 173.516 285.8C168.605 283.196 163.133 283.888 157.85 283.245C146.708 281.877 133.737 279.685 122.043 280.048C121.755 280.056 120.428 281.943 120.123 281.968C118.327 282.092 110.366 280.237 109.253 280.691C108.932 280.823 104.647 285.512 104.457 285.808C107.803 278.243 113.786 269.508 119.167 263.105C141.187 236.923 174.571 211.887 206.777 200.119C209.916 198.973 213.023 197.383 216.369 196.921L216.361 196.913Z" fill="url(#paint3_linear_342_1612)"/>
<path d="M423.555 128.489C423.975 138.749 424.255 148.934 424.832 159.186V186.365C423.975 187.584 408.902 188.837 406.603 188.606C397.052 187.634 379.161 178.247 367.599 175.816C364.055 175.075 359.58 176.542 356.729 175.816C354.413 175.223 352.559 171.49 352.254 171.342C348.999 169.784 340.585 171.086 340.107 170.699C339.316 170.064 340.255 168.095 339.464 167.501C339.102 167.229 331.495 168.606 330.515 168.144C329.979 167.889 324.746 162.771 326.361 161.749C338.648 158.955 357.726 151.514 369.527 146.404C372.659 145.045 381.246 142.004 381.361 138.732C382.268 138.477 382.482 138.213 383.916 138.089C384.402 138.048 384.625 137.99 384.559 137.447C385.317 137.24 386.396 137.067 387.113 136.804C387.435 136.688 387.839 136.837 387.756 136.161C387.962 136.12 388.193 136.202 388.399 136.161C388.935 136.054 389.701 136.466 389.676 135.518C389.882 135.485 390.105 135.543 390.319 135.518C390.797 135.452 391.028 135.436 390.962 134.875C391.168 134.826 391.407 134.933 391.605 134.875C392 134.768 392.322 134.875 392.247 134.233C393.681 133.853 396.508 132.856 398 132.312C398.321 132.197 398.725 132.345 398.642 131.67C402.376 129.057 413.929 123.734 418.47 122.077C418.792 121.962 419.204 122.11 419.113 121.434C419.484 121.228 420.044 121.022 420.39 120.792C421.033 120.371 420.992 120.182 421.033 120.149C421.107 120.091 421.783 120.239 421.676 119.506L422.319 118.863C422.368 120.091 423.472 125.316 423.596 128.456L423.555 128.489Z" fill="url(#paint4_linear_342_1612)"/>
<path d="M424.832 159.178C425.393 169.166 425.393 179.253 426.11 189.232C416.113 188.936 405.985 189.892 396.055 190.51C382.268 185.367 366.618 183.538 352.567 178.997C337.239 174.415 313.266 166.867 297.575 167.485C297.064 164.032 299.537 167.682 299.496 164.93C299.702 164.913 299.924 164.93 300.138 164.93C300.781 166.677 301.284 165.004 301.416 164.93C301.457 164.905 301.168 164.559 302.059 164.287C302.743 166.001 303.278 164.312 303.336 164.287C304.836 163.653 307.432 162.861 309.088 163.01C309.574 163.051 309.797 162.87 309.731 162.367C310.72 161.782 312.335 161.452 313.571 161.09C314.214 162.837 314.725 161.164 314.848 161.09C314.89 161.065 314.609 160.645 315.491 160.447H316.769C316.975 160.472 317.214 160.397 317.411 160.447C323.007 161.815 318.507 163.512 326.361 161.724C324.746 162.746 329.987 167.864 330.515 168.119C331.495 168.589 339.11 167.213 339.464 167.476C340.255 168.07 339.308 170.039 340.107 170.674C340.585 171.061 349.007 169.751 352.254 171.317C352.559 171.465 354.413 175.198 356.729 175.791C359.58 176.517 364.055 175.05 367.599 175.791C379.169 178.223 397.06 187.609 406.603 188.581C408.902 188.812 423.975 187.56 424.832 186.34V159.161V159.178Z" fill="#E3C219"/>
<path d="M202.936 321.607C206.645 323.519 210.617 325.785 214.449 327.359C213.815 330.31 213.295 333.4 212.529 336.309C210.147 335.477 205.532 333.54 202.936 332.469C188.333 326.469 177.686 319.11 174.159 302.414C179.145 304.631 183.653 309.88 188.548 313.284C193.072 316.432 198.041 319.077 202.936 321.599V321.607Z" fill="#FCE95C"/>
<path d="M381.345 138.716C381.229 141.987 372.65 145.028 369.511 146.388C357.71 151.497 338.632 158.939 326.345 161.733C318.483 163.521 322.991 161.823 317.395 160.455C338.83 153.805 359.753 144.814 381.345 138.716Z" fill="#FCE95C"/>
<path d="M423.555 128.489C423.423 125.349 422.319 120.124 422.277 118.896C422.211 117.199 422.335 115.476 422.277 113.779H422.92C422.607 116.754 426.851 113.531 427.395 114.735L423.555 128.48V128.489Z" fill="#FEFFFF"/>
<path d="M218.281 194.35C217.943 195.265 216.855 196.114 216.361 196.905C213.015 197.367 209.908 198.957 206.768 200.103C210.106 197.342 214.614 196.402 218.281 194.35Z" fill="#FEFFFF"/>
<path d="M256.651 179.006C258.588 177.868 260.928 177.168 263.046 176.451L264.002 177.728C261.538 178.94 259.346 179.014 256.651 179.006Z" fill="#FEFFFF"/>
<path d="M225.311 190.518C224.033 191.103 222.731 192.892 220.836 192.438C222.097 191.672 222.814 189.768 225.311 190.518Z" fill="#FEFFFF"/>
<path d="M256.009 179.006C255.844 181.595 254.854 179.641 254.731 179.649C254.706 178.833 255.374 178.948 256.009 179.006Z" fill="#FEFFFF"/>
<path d="M254.089 179.649C253.932 182.238 252.934 180.275 252.81 180.292C252.786 179.492 253.462 179.566 254.089 179.649Z" fill="#FEFFFF"/>
<path d="M103.814 291.552C101.185 291.659 103.13 289.879 103.171 289.632C102.949 290.052 103.715 291.519 103.814 291.552Z" fill="#FEFFFF"/>
<path d="M252.177 180.283C252.532 181.446 251.344 182.32 250.899 180.926C250.965 180.901 251.055 180.621 252.177 180.283Z" fill="#FEFFFF"/>
<path d="M241.298 184.758C241.224 184.181 241.471 184.197 241.941 184.115C242.032 184.791 241.628 184.634 241.298 184.758Z" fill="#FEFFFF"/>
<path d="M418.437 122.094C418.33 121.368 418.891 121.558 419.081 121.451C419.171 122.127 418.759 121.97 418.437 122.094Z" fill="#FEFFFF"/>
<path d="M243.218 184.124C243.144 183.546 243.391 183.563 243.861 183.48C243.927 184.041 243.697 184.058 243.218 184.124Z" fill="#FEFFFF"/>
<path d="M440.177 111.224H440.82C440.82 111.224 440.498 112.576 440.177 111.224Z" fill="#FEFFFF"/>
<path d="M414.597 375.322L414.284 375.965L413.962 375.643L414.284 375.322H414.597Z" fill="#FEFFFF"/>
<path d="M245.138 183.481C245.064 182.863 245.353 182.937 245.781 182.838C245.847 183.399 245.617 183.415 245.138 183.481Z" fill="#FEFFFF"/>
<path d="M246.416 182.846C246.341 182.269 246.589 182.286 247.059 182.203C247.141 182.838 246.811 182.731 246.416 182.846Z" fill="#FEFFFF"/>
<path d="M414.597 375.322C414.251 374.011 415.215 374.11 415.24 374.044C415.092 374.259 415.611 375.388 414.597 375.322Z" fill="#FEFFFF"/>
<path d="M250.256 181.56C249.613 181.799 249.531 181.989 248.336 182.203L250.256 181.56Z" fill="#FEFFFF"/>
<path d="M421.635 119.531C421.635 119.531 421.544 118.781 422.278 118.888L421.635 119.531Z" fill="#FEFFFF"/>
<path d="M303.329 164.295C303.271 164.32 302.735 166.011 302.05 164.295C302.372 164.197 302.916 164.345 303.329 164.295Z" fill="#FEFFFF"/>
<path d="M420.992 120.174C421.099 120.067 421.107 119.918 421.635 119.531C421.751 120.265 421.066 120.108 420.992 120.174Z" fill="#FEFFFF"/>
<path d="M416.517 371.49C416.591 371.391 416.418 370.74 417.16 370.847C417.276 371.589 416.533 371.44 416.517 371.49Z" fill="#FEFFFF"/>
<path d="M309.088 163.019C308.981 162.285 309.566 162.474 309.731 162.375C309.797 162.87 309.583 163.06 309.088 163.019Z" fill="#FEFFFF"/>
<path d="M420.357 120.817C420.242 120.091 420.951 120.215 421.001 120.173C420.968 120.206 421.001 120.388 420.357 120.817Z" fill="#FEFFFF"/>
<path d="M314.841 161.098C314.709 161.172 314.206 162.846 313.563 161.098C313.884 160.999 314.429 161.147 314.841 161.098Z" fill="#FEFFFF"/>
<path d="M316.761 160.464H315.483C315.829 160.381 316.382 160.422 316.761 160.464Z" fill="#FEFFFF"/>
<path d="M383.908 138.082C383.825 137.447 384.147 137.546 384.551 137.438C384.617 137.983 384.402 138.04 383.908 138.082Z" fill="#FEFFFF"/>
<path d="M387.105 136.796C387.031 136.186 387.311 136.252 387.748 136.153C387.839 136.829 387.435 136.672 387.105 136.796Z" fill="#FEFFFF"/>
<path d="M417.16 370.847L417.482 370.212L417.795 370.526L417.482 370.847H417.16Z" fill="#FEFFFF"/>
<path d="M450.09 393.229C450.404 393.213 450.519 393.789 450.412 394.185C450.049 396.567 449.275 393.27 450.09 393.229Z" fill="#FEFFFF"/>
<path d="M389.661 135.518C389.685 136.458 388.918 136.054 388.382 136.162C388.358 135.23 389.1 135.609 389.661 135.518Z" fill="#FEFFFF"/>
<path d="M301.417 164.938C301.285 165.013 300.782 166.687 300.138 164.938H301.417Z" fill="#FEFFFF"/>
<path d="M265.601 175.809C265.526 175.231 265.774 175.248 266.244 175.165C266.318 175.743 266.071 175.726 265.601 175.809Z" fill="#FEFFFF"/>
<path d="M418.438 368.927L418.116 369.57L417.794 369.248L418.116 368.927H418.438Z" fill="#FEFFFF"/>
<path d="M270.075 173.888C270.001 173.311 270.257 173.328 270.719 173.245C270.809 173.913 270.413 173.765 270.075 173.888Z" fill="#FEFFFF"/>
<path d="M390.303 135.519C390.228 134.9 390.517 134.974 390.946 134.875C391.012 135.436 390.781 135.453 390.303 135.519Z" fill="#FEFFFF"/>
<path d="M419.08 368.292L419.393 367.649L419.715 367.971L419.393 368.292H419.08Z" fill="#FEFFFF"/>
<path d="M267.521 175.166C267.413 174.432 267.999 174.621 268.164 174.522C268.23 175.083 267.999 175.1 267.521 175.166Z" fill="#FEFFFF"/>
<path d="M397.975 132.321C397.868 131.587 398.494 131.76 398.618 131.678C398.709 132.354 398.305 132.197 397.975 132.321Z" fill="#FEFFFF"/>
<path d="M391.58 134.884C391.498 134.257 391.819 134.348 392.223 134.241C392.306 134.876 391.976 134.769 391.58 134.884Z" fill="#FEFFFF"/>
<path d="M221.479 284.523C222.484 285.396 223.58 286.327 224.676 287.077C224.528 287.621 224.824 288.445 224.676 288.997C221.256 301.705 217.861 314.495 215.084 327.367C214.902 327.293 214.63 327.441 214.441 327.367C210.609 325.793 206.637 323.519 202.928 321.615C204.98 317.981 204.478 312.361 206.126 309.147C206.719 307.993 213.246 301.96 214.441 299.554C217.292 293.794 215.067 287.259 221.479 284.523Z" fill="#E4B10E"/>
<path d="M271.361 177.086C261.151 185.582 252.168 205.772 247.058 218.01C243.927 219.296 243.507 226.869 241.941 228.559C236.56 234.41 239.518 220.623 240.021 218.966C240.523 217.31 243.408 214.903 243.861 213.848C243.935 213.675 243.358 212.077 243.861 210.008C243.919 209.769 245.756 210.511 245.781 209.365C245.781 208.97 243.589 206.654 245.138 202.328C245.509 201.306 256.667 186.365 257.928 185.063C258.546 184.42 259.412 186.151 259.527 186.019C260.483 184.997 258.909 184.708 259.527 184.099C263.071 180.637 266.21 174.885 271.361 177.061V177.086Z" fill="#D18912"/>
<path d="M353.21 272.367C353.639 270.769 355.056 267.513 357.364 267.25C365.423 266.327 370.615 298.335 372.708 304.342C372.041 299.258 365.102 264.473 375.906 267.25C379.828 268.255 384.823 293.481 385.82 297.947C387.451 305.273 388.819 312.954 390.294 320.33C390.451 321.129 390.138 322.093 390.294 322.884C383.224 333.012 382.911 344.632 372.387 352.939C372.453 351.002 373.944 351.357 371.431 351.019C357.594 349.181 342.118 354.266 328.908 351.019C339.019 339.449 324.037 317.717 319.958 304.977C318.648 300.881 317.115 294.568 316.118 290.267C314.428 282.982 309.014 263.088 322.513 274.922C329.707 287.341 337.421 299.488 343.296 312.649C342.085 304.046 338.607 295.623 337.223 287.069C336.761 284.251 334.882 272.623 335.303 270.76C335.665 269.137 337.618 268.313 338.5 267.241C348.801 269.442 350.606 285.915 355.444 294.099C355.757 286.913 351.323 279.389 353.202 272.359L353.21 272.367Z" fill="#F4B790"/>
<path d="M300.13 313.292C300.575 313.778 300.996 314.141 301.408 314.569C303.394 318.97 305.998 323.206 308.445 327.359C313.332 335.666 319.249 348.646 328.908 351.019C342.126 354.266 357.603 349.181 371.431 351.019C373.944 351.349 372.453 351.003 372.387 352.939C363.132 360.241 344.673 365.053 333.061 363.809C323.856 362.82 313.275 354.859 303.328 358.057C300.699 353.475 297.823 347.558 295.655 342.712C293.282 337.405 289.681 330.136 287.983 324.805C287.151 322.192 286.557 319.201 286.063 316.489C291.535 317.89 296.076 311.24 300.13 313.292Z" fill="#F8CBA9"/>
<path d="M396.055 190.518C428.615 202.665 417.424 237.434 410.122 263.739C404.79 282.941 396.582 301.45 390.294 320.33C388.819 312.954 387.451 305.273 385.82 297.947C388.951 292.599 391.456 285.594 393.492 279.718C416.69 212.901 425.343 200.77 352.567 178.997C366.61 183.538 382.268 185.368 396.055 190.51V190.518Z" fill="#20384D"/>
<path d="M337.223 287.077C338.607 295.631 342.085 304.054 343.296 312.657C337.421 299.488 329.715 287.349 322.513 274.93C321.425 273.06 317.519 269.846 317.395 269.491C317.37 269.409 318.433 268.84 318.038 267.892C326.946 268.511 330.119 282.223 335.303 288.676L337.223 287.077Z" fill="#38566C"/>
<path d="M353.21 272.367C351.323 279.405 355.757 286.921 355.452 294.107C350.614 285.924 348.81 269.45 338.508 267.25C339.126 266.5 340.272 263.657 341.385 263.41C347.112 262.14 348.752 275.985 353.219 272.359L353.21 272.367Z" fill="#38566C"/>
<path d="M297.576 309.46C298.136 310.004 299.207 312.278 300.13 313.3C296.076 311.248 291.535 317.899 286.063 316.498C285.956 315.896 285.552 315.715 285.42 314.578C284.06 302.455 289.804 301.845 297.567 309.46H297.576Z" fill="#F6E8DF"/>
<path d="M240.664 344.632C242.6 345.407 248.674 345.333 247.701 348.472C244.743 348.547 241.109 349.338 238.109 349.75C233.552 350.376 222.731 351.456 220.201 355.189C218.718 357.381 214.218 375.651 214.449 378.527C215.29 389.232 227.082 389.018 234.911 390.674C238.818 391.507 242.51 391.943 246.424 392.594C248.946 393.015 251.41 394.325 254.096 393.872C254.22 394.663 255.637 395.718 256.016 396.426C257.854 399.863 261.027 403.184 263.689 406.019C241.356 401.305 218.355 396.624 197.184 388.433C197.341 386.356 198.017 384.378 198.462 382.359C199.137 379.31 200.777 375.841 201.659 372.767C205.153 360.603 209.307 348.563 212.529 336.317C222.435 339.786 231.219 340.841 240.664 344.632Z" fill="#4F6777"/>
<path d="M308.446 374.044C307.209 382.549 302.735 391.342 301.408 399.946C302.957 403.398 326.501 403.234 330.185 404.099C332.493 404.643 338.583 413.09 339.778 415.612C337.742 419.889 326.065 417.392 321.549 416.889C302.899 414.804 282.149 409.917 263.672 406.019C261.011 403.184 257.83 399.863 256 396.427C268.881 400.695 282.215 403.794 295.969 403.464C297.699 402.739 304.622 375.626 303.962 372.132C304.828 371.984 307.333 370.682 307.803 370.212C309.195 372.042 308.693 372.314 308.446 374.052V374.044Z" fill="#D72C2C"/>
<path d="M303.328 358.057C305.611 362.037 305.668 363.702 309.08 367.649C308.305 368.193 307.902 370.105 307.803 370.204C307.341 370.665 304.836 371.976 303.962 372.124C303.559 369.989 301.07 368.292 299.488 367.006C293.364 362.037 282.404 360.315 274.55 359.334C257.368 357.183 261.645 360.751 257.92 375.964C254.673 375.618 254.649 371.753 252.803 369.569C254.434 362.721 255.868 355.7 257.277 348.785C256.865 348.209 249.069 348.431 247.685 348.464C248.657 345.333 242.592 345.407 240.647 344.624C240.177 343.042 243.803 343.899 244.166 343.981C249.918 345.324 252.267 344.368 254.401 344.624C260.549 345.366 294.098 352.634 297.246 351.019C298.54 349.115 296.389 349.272 296.29 348.464C296.059 346.569 295.664 344.566 295.647 342.712C297.815 347.558 300.691 353.475 303.32 358.057H303.328Z" fill="#3B555A"/>
<path d="M339.777 415.612C338.583 413.09 332.492 404.643 330.185 404.099L308.445 374.044C308.701 372.305 309.204 372.042 307.803 370.204C307.902 370.105 308.305 368.193 309.08 367.649C317.098 376.92 346.675 401.124 339.777 415.612Z" fill="#E34843"/>
<path d="M274.559 255.745C274.204 258.036 271.716 268.461 269.762 269.178L231.071 259.586C231.112 259.38 231.03 259.149 231.071 258.943C232.579 251.666 237.796 240.64 240.664 233.363C247.273 236.033 266.021 238.753 269.441 245.197C271.336 248.765 268.625 255.185 274.559 255.745Z" fill="#E34843"/>
<path d="M268.164 275.565C268.246 283.839 264.884 291.808 263.689 299.867C256.025 296.719 245.254 298.095 238.43 296.67C235.571 296.076 230.206 290.596 227.561 288.997C226.151 288.149 225.805 287.316 224.684 288.997C224.833 288.454 224.536 287.629 224.684 287.077C226.283 281.16 230.156 275.12 229.802 268.535C230.016 268.543 230.231 268.527 230.445 268.535C238.521 268.988 260.557 273.002 268.172 275.573L268.164 275.565Z" fill="#859FAF"/>
<path d="M241.298 231.443C241.512 232.316 240.927 232.679 240.655 233.363C237.788 240.64 232.571 251.658 231.063 258.943C229.555 259.94 229.687 259.709 228.508 258.621C225.764 256.108 216.089 240.953 215.718 237.516C214.342 224.702 234.046 230.083 241.298 231.443Z" fill="#F6CF80"/>
<path d="M277.756 276.208C281.464 279.356 279.437 278.424 279.033 281.96C278.382 287.663 276.199 293.143 274.559 298.59C274.542 298.656 273.446 298.351 273.281 298.911C272.894 300.172 270.661 308.924 270.727 309.46H270.084C270.059 309.303 268.823 308.224 268.164 306.905C267.966 306.501 266.985 304.458 266.886 304.35C266.548 303.164 267.199 303.378 267.529 303.073C271.328 299.497 273.512 283.954 273.924 277.815C272.474 275.985 269.96 276.183 268.172 275.573C260.557 273.002 238.521 268.997 230.445 268.535C230.263 266.154 230.774 263.83 231.088 261.498C242.938 265.857 255.992 267.662 267.859 271.733C270.636 272.689 275.622 274.386 277.773 276.208H277.756Z" fill="#38566C"/>
<path d="M280.945 266.615C280.698 269.549 280.204 274.403 277.748 276.207C275.605 274.386 270.611 272.68 267.834 271.733C255.967 267.662 242.913 265.865 231.063 261.497C231.145 260.879 230.948 260.179 231.063 259.577L269.754 269.17C271.707 268.453 274.196 258.028 274.55 255.737C275.234 251.369 275.721 246.672 274.55 242.304C282.536 248.073 281.737 257.262 280.945 266.607V266.615Z" fill="#D72C2C"/>
<path d="M229.794 268.535C230.148 275.128 226.275 281.161 224.676 287.078C223.58 286.319 222.484 285.388 221.479 284.523C207.329 272.227 213.213 267.884 229.794 268.535Z" fill="#F6CF80"/>
<path d="M274.559 242.312C275.729 246.68 275.243 251.369 274.559 255.745C268.633 255.177 271.336 248.765 269.441 245.197C266.029 238.752 247.281 236.041 240.664 233.363C240.936 232.679 241.521 232.316 241.306 231.443C241.512 231.484 241.743 231.401 241.949 231.443C250.915 233.198 267.372 237.121 274.559 242.312Z" fill="#F6614E"/>
<path d="M319.958 304.985C324.046 317.726 339.019 339.457 328.908 351.027C319.241 348.654 313.332 335.666 308.445 327.367C308.676 323.321 313.044 321.047 314.84 317.454C316.695 313.762 317.552 309.262 318.681 305.306C319.381 302.834 318.516 303.938 319.958 304.985Z" fill="#38566C"/>
<path d="M318.038 267.893C318.433 268.84 317.37 269.409 317.395 269.491C317.519 269.846 321.425 273.06 322.513 274.93C309.014 263.096 314.428 282.998 316.118 290.275C314.865 289.954 313.085 291.585 312.92 291.552C312.17 291.404 308.693 288.932 307.168 288.355C302.52 286.591 284.019 279.455 281.267 280.04C279.528 280.411 280.088 281.301 279.025 281.96C279.429 278.425 281.456 279.356 277.748 276.208C280.204 274.403 280.698 269.549 280.945 266.615C281.877 266.516 281.382 267.777 281.901 267.893C281.984 267.909 282.561 266.904 283.5 267.25C282.964 269.607 282.684 272.203 282.223 274.601C282.758 275.301 283.426 275.713 284.143 276.2C282.742 278.499 283.574 277.592 285.099 278.12C296.471 282.009 307.481 288.825 312.912 274.601C313.744 272.409 311.602 272.178 311.635 272.046C311.733 271.642 313.555 272.475 314.189 269.17C314.791 266.055 315.714 262 313.546 259.578C318.953 263.508 316.357 263.888 318.021 267.893H318.038Z" fill="#255048"/>
<path d="M316.118 290.275C317.115 294.569 318.639 300.889 319.958 304.985C318.508 303.93 319.381 302.834 318.681 305.306C317.552 309.27 316.695 313.762 314.84 317.454C313.044 321.047 308.676 323.321 308.445 327.368C305.998 323.214 303.402 318.978 301.408 314.578C302.767 316.011 303.797 317.445 304.926 319.052C307.44 318.327 306.138 315.987 306.525 315.534C307.654 314.215 309.022 314.858 309.723 313.613C312.418 308.825 312.533 297.131 312.92 291.552C313.085 291.585 314.865 289.954 316.118 290.275Z" fill="#25475E"/>
<path d="M238.101 349.75C240.087 352.502 247.907 350.557 249.935 351.67C250.108 351.761 250.998 353.78 252.176 354.867C247.965 357.785 244.092 382.145 240.985 383.002L215.726 379.805C215.438 379.426 215.224 378.486 214.449 378.527C214.227 375.651 218.718 357.373 220.201 355.189C222.731 351.456 233.543 350.384 238.109 349.75H238.101Z" fill="#77B358"/>
<path d="M303.971 372.124C304.63 375.618 297.707 402.731 295.977 403.456C282.223 403.786 268.889 400.696 256.008 396.418C255.629 395.71 254.212 394.647 254.088 393.864C253.841 392.323 254.681 391.944 254.731 391.309C257.706 394.16 260.788 392.29 264.002 392.586C268.493 393.007 280.195 395.726 283.83 395.141C285.733 394.836 287.505 391.029 288.305 390.024C288.486 389.793 290.035 390.411 290.546 389.702C290.81 389.331 292.211 383.546 292.466 383.307C294.114 381.733 293.439 386.991 295.664 381.708C297.444 377.473 297.452 371.308 299.504 366.998C301.086 368.284 303.575 369.973 303.979 372.116L303.971 372.124Z" fill="#EC7320"/>
<path d="M296.298 348.464C296.397 349.28 298.556 349.124 297.254 351.019C294.106 352.634 260.557 345.366 254.409 344.624C252.275 344.369 249.935 345.333 244.174 343.981C243.812 343.899 240.186 343.042 240.655 344.624C231.203 340.833 222.426 339.778 212.521 336.309C213.287 333.4 213.806 330.309 214.441 327.359C214.622 327.433 214.894 327.285 215.084 327.359C240.523 337.652 269.359 343.413 296.298 348.464Z" fill="#707B7B"/>
<path d="M249.613 381.717C248.674 385.359 247.438 388.969 246.416 392.586C242.501 391.944 238.809 391.499 234.903 390.666C226.893 387.889 221.157 386.941 215.718 379.796L240.977 382.994C244.084 382.137 247.957 357.777 252.168 354.859C252.242 354.925 253.042 353.359 254.088 355.181C254.03 355.683 252.86 355.312 252.811 355.823C251.962 363.603 249.053 370.896 248.336 378.206C248.237 379.203 247.726 382.054 249.613 381.725V381.717Z" fill="#4B9745"/>
<path d="M257.928 375.964C256.841 380.431 255.077 386.892 254.731 391.309C254.682 391.944 253.849 392.331 254.088 393.864C251.393 394.317 248.938 392.998 246.416 392.586C247.438 388.969 248.674 385.359 249.613 381.717C250.644 377.695 251.855 373.566 252.811 369.569C254.657 371.753 254.673 375.618 257.928 375.964Z" fill="#2F6748"/>
<path d="M252.811 369.569C251.855 373.566 250.652 377.703 249.613 381.716C247.726 382.046 248.237 379.203 248.336 378.197C249.053 370.888 251.97 363.595 252.811 355.815C252.868 355.312 254.03 355.683 254.088 355.172C253.041 353.351 252.242 354.917 252.168 354.851C250.989 353.763 250.099 351.744 249.926 351.653C247.899 350.541 240.078 352.486 238.092 349.733C241.092 349.321 244.726 348.53 247.685 348.456C249.069 348.423 256.865 348.2 257.277 348.777C255.868 355.691 254.434 362.713 252.803 369.561L252.811 369.569Z" fill="#77B358"/>
<path d="M215.726 379.805C221.165 386.95 226.901 387.906 234.911 390.674C227.082 389.01 215.29 389.232 214.449 378.527C215.232 378.486 215.438 379.426 215.726 379.805Z" fill="#2F6748"/>
<path d="M263.681 299.867C263.532 300.889 261.942 300.288 262.725 301.145C264.991 301.936 267.438 299.974 267.521 303.065C267.191 303.37 266.54 303.155 266.878 304.342C265.37 302.735 265.205 303.172 263.681 302.422C253.742 297.543 238.513 294.807 232.983 306.575C230.428 312.006 228.261 319.192 234.26 322.884C232.184 322.349 234.112 324.936 234.26 325.126C238.834 330.631 246.012 333.26 252.802 335.04C255.885 335.847 259.115 336.383 262.074 337.594C264.661 337.116 269.177 317.355 269.424 313.935C269.499 312.888 270.1 309.682 270.067 309.46H270.71C270.768 309.954 272.284 310.663 272.63 311.38C275.836 318.072 281.605 321.763 287.975 324.813C289.672 330.145 293.274 337.413 295.647 342.72C295.664 344.574 296.059 346.577 296.29 348.472C269.35 343.421 240.515 337.66 215.075 327.367C217.853 314.495 221.248 301.705 224.668 288.997C225.789 287.316 226.135 288.149 227.544 288.997C230.189 290.596 235.562 296.076 238.414 296.67C245.237 298.095 256.008 296.719 263.672 299.867H263.681Z" fill="#38566C"/>
<path d="M312.92 291.552C312.533 297.131 312.418 308.825 309.723 313.613C309.022 314.858 307.654 314.215 306.525 315.533C306.138 315.987 307.44 318.319 304.926 319.052C303.797 317.445 302.767 316.011 301.408 314.577C300.996 314.149 300.567 313.786 300.13 313.3C299.207 312.278 298.128 310.012 297.576 309.46C298.095 308.117 299.487 310.778 299.817 310.737C301.861 310.49 307.498 291.478 307.168 288.355C308.693 288.932 312.17 291.396 312.92 291.552Z" fill="#397594"/>
<path d="M285.428 314.577C285.552 315.715 285.956 315.896 286.071 316.498C286.557 319.209 287.159 322.2 287.991 324.813C281.613 321.772 275.852 318.072 272.647 311.38C273.965 311.734 273.858 310.737 273.924 310.737C275.77 310.745 282.602 314.981 285.437 314.577H285.428Z" fill="#20384D"/>
<path d="M330.193 404.099C326.51 403.234 302.965 403.39 301.416 399.945C302.743 391.342 307.218 382.557 308.454 374.044L330.193 404.099Z" fill="#F6614E"/>
<path d="M274.559 359.334C274.748 360.941 272.952 360.793 274.88 361.889C277.6 363.438 293.702 364.073 295.021 367.328C296.694 371.448 288.56 381.329 295.664 381.717C293.439 386.999 294.114 381.741 292.466 383.315C292.219 383.554 290.81 389.339 290.546 389.71C290.043 390.419 288.494 389.801 288.305 390.032C287.505 391.037 285.725 394.844 283.83 395.149C280.195 395.726 268.493 393.015 264.002 392.595C260.788 392.29 257.706 394.169 254.731 391.317C255.077 386.892 256.841 380.431 257.928 375.973C261.645 360.76 257.368 357.191 274.559 359.342V359.334Z" fill="#F8B116"/>
<path d="M299.496 367.015C297.452 371.316 297.444 377.489 295.655 381.725C288.56 381.337 296.694 371.456 295.013 367.336C293.694 364.089 277.583 363.446 274.872 361.897C272.943 360.801 274.74 360.949 274.55 359.342C282.404 360.323 293.364 362.045 299.487 367.015H299.496Z" fill="#FBCE50"/>
<path d="M313.563 259.577C315.73 262 314.807 266.055 314.206 269.17C310.044 269.862 306.072 280.699 303.015 281.317C301.498 281.622 285.519 277.131 284.151 276.199C283.434 275.713 282.767 275.301 282.231 274.601C282.692 272.202 282.973 269.607 283.508 267.25C284.217 264.135 286.846 256.611 290.225 255.737C295.276 254.427 309.096 256.33 313.563 259.577Z" fill="#77B358"/>
<path d="M267.521 303.065C267.438 299.975 264.991 301.936 262.725 301.145C261.942 300.288 263.532 300.889 263.681 299.867C264.884 291.808 268.238 283.847 268.155 275.565C269.944 276.166 272.465 275.969 273.908 277.806C273.495 283.946 271.312 299.488 267.513 303.065H267.521Z" fill="#397594"/>
<path d="M307.168 288.355C307.498 291.478 301.861 310.49 299.817 310.737C299.496 310.778 298.103 308.117 297.576 309.46C289.813 301.845 284.069 302.447 285.428 314.577C282.594 314.981 275.77 310.754 273.916 310.737C270.488 307.622 274.452 302.167 274.559 298.59C276.199 293.143 278.391 287.671 279.033 281.96C280.088 281.301 279.536 280.41 281.275 280.04C284.019 279.455 302.528 286.583 307.176 288.355H307.168Z" fill="#57859F"/>
<path d="M266.878 304.342C266.985 304.458 267.958 306.501 268.155 306.897C266.573 306.493 267.216 310.3 266.878 312.014C265.955 316.687 263.829 323.074 261.76 327.359C262.008 321.862 264.793 316.695 265.914 311.372C266.153 310.234 267.035 308.619 264.958 308.817C265.428 306.542 267.62 303.864 263.038 305.619C263.137 305.257 262.939 304.696 263.038 304.342C263.219 303.666 263.128 303.155 263.681 302.422C265.205 303.172 265.37 302.727 266.878 304.342Z" fill="#4F6777"/>
<path d="M274.559 298.59C274.452 302.167 270.496 307.63 273.916 310.737C273.842 310.737 273.957 311.734 272.639 311.38C272.292 310.663 270.776 309.962 270.718 309.46C270.661 308.924 272.894 300.172 273.273 298.911C273.446 298.351 274.534 298.656 274.55 298.59H274.559Z" fill="#255048"/>
<path d="M268.164 306.897C268.823 308.224 270.051 309.295 270.084 309.451C270.125 309.674 269.523 312.88 269.441 313.926L268.485 310.729L266.886 312.006C267.224 310.292 266.581 306.485 268.164 306.889V306.897Z" fill="#255048"/>
<path d="M314.206 269.17C313.571 272.474 311.75 271.642 311.651 272.046C311.618 272.186 313.769 272.416 312.928 274.6C307.498 288.824 296.488 282.001 285.115 278.119C283.591 277.6 282.758 278.507 284.159 276.199C285.527 277.122 301.506 281.622 303.023 281.317C306.08 280.699 310.052 269.854 314.214 269.17H314.206Z" fill="#2F793F"/>
<path d="M263.681 302.422C263.128 303.156 263.219 303.667 263.038 304.342L259.84 304.021C261.192 309.402 257.442 314.99 256.643 320.33C255.571 321.788 253.165 325.752 251.847 326.082C249.523 326.659 236.461 324.236 234.26 322.884C228.253 319.192 230.428 312.015 232.983 306.576C238.513 294.808 253.742 297.535 263.681 302.422Z" fill="#397594"/>
<path d="M261.769 327.367C261.126 328.694 259.766 333.383 258.25 333.762C257.294 334.001 252.951 332.378 251.212 333.12L252.811 335.04C246.012 333.268 238.842 330.639 234.269 325.126C234.12 324.945 232.192 322.349 234.269 322.884C236.461 324.236 249.531 326.659 251.855 326.082C253.173 325.752 255.58 321.78 256.651 320.33C256.684 320.28 256.717 321.368 257.607 320.972C257.92 320.058 258.126 319.291 258.563 318.418C262.576 321.195 264.315 311.916 264.958 308.825C267.043 308.628 266.161 310.251 265.914 311.38C264.785 316.704 262.008 321.871 261.76 327.367H261.769Z" fill="#25475E"/>
<path d="M269.441 313.935C269.185 317.355 264.669 337.117 262.09 337.594C259.132 336.383 255.901 335.839 252.819 335.04L251.22 333.12C252.951 332.378 257.294 334.001 258.258 333.762C259.774 333.383 261.134 328.702 261.777 327.367C263.845 323.082 265.972 316.687 266.895 312.023L268.493 310.745L269.449 313.943L269.441 313.935Z" fill="#20384D"/>
<path d="M264.966 308.817C264.323 311.907 262.585 321.187 258.571 318.41C259.807 315.945 262.304 308.446 263.046 305.62C267.628 303.864 265.436 306.543 264.966 308.817Z" fill="#38566C"/>
<path d="M263.046 304.342C262.947 304.705 263.145 305.265 263.046 305.62C262.304 308.446 259.807 315.945 258.571 318.41C258.134 319.283 257.928 320.058 257.615 320.964C256.725 321.368 256.692 320.28 256.659 320.321C257.459 314.99 261.208 309.402 259.857 304.013L263.054 304.334L263.046 304.342Z" fill="#859FAF"/>
<path d="M297.576 167.493C313.275 166.867 337.239 174.416 352.567 179.006C425.352 200.77 416.699 212.909 393.492 279.727C391.457 285.594 388.943 292.607 385.82 297.956C384.823 293.489 379.829 268.272 375.906 267.258C365.102 264.481 372.041 299.266 372.708 304.351C370.607 298.351 365.423 266.335 357.364 267.258C355.056 267.522 353.639 270.769 353.21 272.376C348.744 275.994 347.104 262.157 341.376 263.426C340.255 263.673 339.118 266.516 338.5 267.266C337.618 268.338 335.674 269.154 335.303 270.785C334.882 272.648 336.761 284.267 337.223 287.094L335.303 288.693C330.119 282.24 326.946 268.527 318.038 267.909C316.373 263.904 318.969 263.525 313.563 259.594C309.096 256.355 295.276 254.443 290.225 255.754C286.854 256.627 284.217 264.151 283.508 267.266C282.569 266.912 281.992 267.926 281.91 267.909C281.39 267.786 281.885 266.533 280.954 266.632C281.745 257.295 282.544 248.098 274.559 242.329C267.364 237.129 250.915 233.215 241.949 231.459C243.367 226.894 245.229 222.436 247.067 218.027C252.176 205.781 261.159 185.599 271.369 177.102C272.556 176.113 276.223 174.086 277.764 173.262C283.739 170.073 290.785 167.773 297.592 167.51L297.576 167.493Z" fill="#38566C"/>
<path d="M291.502 184.123C302.644 183.612 323.444 190.024 335.624 191.796C349.881 193.872 389.528 196.51 400.208 202.031C420.275 212.39 393.888 259.874 380.381 262.14C369.915 263.904 321.375 249.111 308.759 244.876C300.237 242.008 269.128 231.418 265.592 224.092C259.263 210.956 275.721 184.849 291.494 184.123H291.502Z" fill="#20384D"/>
<path d="M331.471 196.271C344.195 198.57 387.188 203.984 395.742 209.703C401.725 213.7 399.92 218.908 397.983 224.735C394.308 235.769 381.048 261.638 366.009 254.468C365.605 254.402 365.127 254.542 364.731 254.468L305.899 196.279C309.682 194.919 324.557 199.6 326.683 198.833C327.779 198.438 327.565 196.501 328.281 195.636C329.369 195.834 330.408 196.081 331.479 196.279L331.471 196.271Z" fill="#CEE7F3"/>
<path d="M299.496 189.876C299.496 189.876 299.595 190.625 298.853 190.518C285.124 183.901 267.529 203.366 270.076 216.42C272.235 227.471 313.522 239.61 323.79 242.955C332.484 245.79 341.121 249.013 350.013 251.271L346.172 253.825C332.113 250.265 275.976 233.165 268.798 222.815C262.024 213.049 275.473 189.266 287.027 187.321C288.609 187.057 301.745 187.008 301.416 188.92C300.485 189.183 300.229 189.389 299.496 189.876Z" fill="#5291BD"/>
<path d="M405.005 214.178L394.769 235.605C385.358 248.147 384.921 258.638 366.313 255.745C365.778 255.663 366.058 254.476 365.992 254.468C381.032 261.629 394.291 235.769 397.967 224.735C399.904 218.908 401.708 213.7 395.725 209.703C387.171 203.992 344.186 198.578 331.454 196.27L335.608 193.073C352.625 197.185 371.843 197.202 388.688 201.388C395.824 203.16 404.782 205.36 404.996 214.178H405.005Z" fill="#397594"/>
<path d="M405.005 214.178C405.235 223.985 388.795 257.616 378.469 259.577C369.42 261.3 355.13 256.091 346.172 253.825L350.013 251.27C354.817 252.49 359.836 253.586 364.723 254.468C365.127 254.542 365.596 254.402 366 254.468C366.066 254.476 365.778 255.663 366.322 255.745C384.93 258.638 385.366 248.139 394.778 235.604L405.013 214.178H405.005Z" fill="#51B5DA"/>
<path d="M328.273 195.628C327.556 196.493 327.771 198.43 326.674 198.825C324.548 199.592 309.673 194.902 305.891 196.27C305.248 195.949 304.515 195.43 303.971 194.993C302.866 194.103 299.76 190.955 298.853 190.518C299.586 190.625 299.455 189.9 299.496 189.875C308.989 192.158 318.664 193.881 328.273 195.628Z" fill="#8BBED9"/>
<path d="M305.891 196.27L364.723 254.46C359.844 253.578 354.817 252.482 350.013 251.262C341.129 249.013 332.492 245.782 323.79 242.947L282.865 201.701C287.143 194.845 297.048 196.732 303.971 194.985C304.514 195.43 305.248 195.949 305.891 196.262V196.27Z" fill="#CEE7F3"/>
<path d="M298.853 190.518C299.759 190.955 302.866 194.103 303.971 194.993C297.056 196.74 287.151 194.853 282.865 201.709L323.79 242.955C313.514 239.609 272.226 227.471 270.076 216.419C267.529 203.366 285.124 183.901 298.853 190.518Z" fill="#B2D8EA"/>
<path d="M208.227 344.121C228.698 285.602 230.832 216.024 275.317 169.512C316.373 158.782 368.835 183.044 408.721 197.449C430.007 227.24 404.238 267.373 396.005 298.384C389.174 314.833 384.995 333.293 375.749 348.357C324.779 357.051 273.372 346.074 224.857 329.658C208.499 323.28 189.075 321.352 174.777 311.059C164.006 265.016 203.406 219.106 226.151 180.415" stroke="black" stroke-miterlimit="10"/>
<path d="M303.13 189.538C279.577 182.071 269.433 198.668 266.664 220.598C288.947 235.843 366.346 275.087 386.693 252.968C400.521 232.555 420.951 193.839 379.647 201.619C355.814 196.979 327.251 192.71 303.13 189.538Z" stroke="black" stroke-miterlimit="10"/>
<path d="M320.18 378.717C288.453 355.139 258.505 247.776 320.37 344.228C326.015 350.343 333.597 346.132 330.803 338.18C312.088 291.429 300.377 227.108 343.774 313.828C341.31 298.953 330.152 278.07 338.821 264.687C347.161 274.658 353.161 286.575 356.218 299.208C349.345 269.499 356.457 248.633 368.489 290.769C370.78 214.508 395.659 349.758 397.472 365.342" stroke="black" stroke-miterlimit="10"/>
<path d="M232.694 228.426C257.426 235.81 294.057 237.228 274.559 272.482C257.335 267.398 240.375 261.357 224.091 253.743C224.932 254.633 225.78 255.514 226.621 256.404" stroke="black" stroke-miterlimit="10"/>
<path d="M221.388 266.698C233.922 272.046 257.714 267.752 264.043 280.13C267.199 311.1 227.882 288.833 214.457 279.636C215.43 279.941 216.41 280.254 217.383 280.559" stroke="black" stroke-miterlimit="10"/>
<path d="M230.502 320.206C247.124 326.411 259.716 327.68 260.013 306.081C241.867 296.233 228.986 296.183 230.502 320.206Z" stroke="black" stroke-miterlimit="10"/>
<path d="M304.902 282.364C315.574 274.172 318.425 254.18 299.314 252.441C288.988 249.903 279.8 267.143 284.266 274.798C288.041 278.968 299.611 280.889 304.902 282.364Z" stroke="black" stroke-miterlimit="10"/>
<path d="M273.273 306.889C278.415 314.099 294.51 311.396 303.328 314.808C311.404 313.885 311.766 298.079 311.593 291.354C291.568 278.227 272.572 276.504 273.273 306.889Z" stroke="black" stroke-miterlimit="10"/>
<path d="M194.184 327.664C231.483 349.173 279.627 341.089 319.554 357.57C318.961 357.653 319.01 356.425 319.595 356.557" stroke="black" stroke-miterlimit="10"/>
<path d="M224.429 182.327C307.835 89.9373 115.104 226.292 84.5386 233C35.2495 233.173 134.157 119.498 162.762 147.83" stroke="black" stroke-miterlimit="10"/>
<path d="M101.07 306.246C127.795 145.028 457.499 194.078 470.668 41.3405" stroke="black" stroke-miterlimit="10"/>
<path d="M438.298 76.1338C451.442 61.7533 463.218 46.1285 473.421 29.5394C479.058 43.6644 479.774 60.9951 491.501 71.8732" stroke="black" stroke-miterlimit="10"/>
<path d="M210.197 340.165C204.461 356.111 199.706 372.42 195.973 388.952C241.71 401.412 288.214 411.062 335.129 417.844C336.357 414.663 336.992 411.252 336.992 407.84" stroke="black" stroke-miterlimit="10"/>
<path d="M238.29 379.467C245.938 376.014 245.328 361.402 248.097 353.837C227.626 342.358 211.911 355.024 214.671 376.665C217.383 381.955 232.645 379.903 238.282 379.467H238.29Z" stroke="black" stroke-miterlimit="10"/>
<path d="M252.423 392.767C264.826 391.935 277.352 393.122 289.384 396.253C306.121 354.48 295.194 360.24 256.692 358.444C261.62 365.844 252.844 385.738 252.423 392.767Z" stroke="black" stroke-miterlimit="10"/>
<path d="M428.458 0.0698242C409.323 135.699 435.059 271.09 451.698 405.648" stroke="black" stroke-miterlimit="10"/>
<path d="M397.044 364.212C416.731 353.095 444.899 359.878 467.331 358.51" stroke="black" stroke-miterlimit="10"/>
<path d="M201.511 360.867C135.797 366.52 69.8615 371.597 3.84326 367.847C7.60937 369.067 11.3672 370.294 15.1334 371.514" stroke="black" stroke-miterlimit="10"/>
<path d="M422.071 186.488C553.432 187.79 433.823 329.823 409.108 386.101" stroke="black" stroke-miterlimit="10"/>
<defs>
<linearGradient id="paint0_linear_342_1612" x1="395.371" y1="199.559" x2="425.879" y2="340.825" gradientUnits="userSpaceOnUse">
<stop stop-color="#EE4702"/>
<stop offset="1" stop-color="#F7A710"/>
</linearGradient>
<linearGradient id="paint1_linear_342_1612" x1="457.021" y1="197.399" x2="446.572" y2="309.46" gradientUnits="userSpaceOnUse">
<stop stop-color="#FAA40E"/>
<stop offset="1" stop-color="#FBCC14"/>
</linearGradient>
<linearGradient id="paint2_linear_342_1612" x1="251.253" y1="197.844" x2="182.392" y2="299.496" gradientUnits="userSpaceOnUse">
<stop stop-color="#F4A712"/>
<stop offset="1" stop-color="#FAD91B"/>
</linearGradient>
<linearGradient id="paint3_linear_342_1612" x1="183.702" y1="204.437" x2="140.486" y2="282.842" gradientUnits="userSpaceOnUse">
<stop stop-color="#FBC949"/>
<stop offset="1" stop-color="#FDEBAE"/>
</linearGradient>
<linearGradient id="paint4_linear_342_1612" x1="419.591" y1="135.057" x2="364.072" y2="184.255" gradientUnits="userSpaceOnUse">
<stop stop-color="#FAC617"/>
<stop offset="1" stop-color="#F9DF20"/>
</linearGradient>
</defs>
</svg>
