<?xml version="1.0" encoding="UTF-8"?>
<svg id="Ebene_26" xmlns="http://www.w3.org/2000/svg" xmlns:xlink="http://www.w3.org/1999/xlink" version="1.1" viewBox="0 0 2000 2000">
  <!-- Generator: Adobe Illustrator 30.2.1, SVG Export Plug-In . SVG Version: 2.1.1 Build 1)  -->
  <defs>
    <style>
      .st0 {
        fill: #fbc230;
      }

      .st1 {
        fill: #2d285a;
      }

      .st2 {
        fill: #4b8195;
      }

      .st3 {
        fill: #f15552;
      }

      .st4 {
        fill: #ebaa78;
      }

      .st5 {
        fill: #fbc435;
      }

      .st6 {
        fill: #cf6a3f;
      }

      .st7 {
        fill: #111326;
      }

      .st8 {
        fill: #e18d5b;
      }

      .st9 {
        fill: #dd3a3e;
      }

      .st10 {
        fill: #de3a3d;
      }

      .st11 {
        fill: #fdd13b;
      }

      .st12 {
        fill: #bccad8;
      }

      .st12, .st13 {
        opacity: .5;
      }

      .st14 {
        fill: #4c8394;
      }

      .st15 {
        fill: #628991;
      }

      .st16 {
        fill: #f8aa2d;
      }

      .st17 {
        fill: #fdd637;
      }

      .st18 {
        fill: #f2bc8d;
      }

      .st19 {
        fill: #9a141e;
      }

      .st20 {
        fill: #f6cda5;
      }

      .st21 {
        fill: #fdde99;
      }

      .st22 {
        fill: #2b2554;
      }

      .st23 {
        fill: #1b1d37;
      }

      .st24 {
        fill: #0b1530;
      }

      .st25 {
        fill: #1a1838;
      }

      .st26 {
        fill: #bfc8cd;
      }

      .st27 {
        fill: #ca5e36;
      }

      .st28 {
        fill: #a8adb1;
      }

      .st29 {
        fill: #fbbb3a;
      }

      .st30 {
        fill: #a5c3da;
      }

      .st31 {
        fill: #dd3c21;
      }

      .st32 {
        fill: #0e1c3b;
      }

      .st33 {
        fill: #40578d;
      }

      .st34 {
        fill: #fbc23b;
      }

      .st35 {
        fill: #f6a42f;
      }

      .st36 {
        fill: #f9ae2b;
      }

      .st37 {
        fill: #192041;
      }

      .st38 {
        fill: #e45325;
      }

      .st39 {
        fill: #fd9f86;
      }

      .st40 {
        fill: #4d5d95;
      }

      .st41 {
        fill: #fbc52d;
      }

      .st42 {
        fill: #cd7249;
      }

      .st43 {
        fill: #8ab1b7;
      }

      .st44 {
        fill: #aba7c5;
      }

      .st45 {
        fill: #254b8d;
      }

      .st46 {
        fill: #8db863;
      }

      .st47 {
        fill: #7ca7af;
      }

      .st48 {
        fill: #ed524e;
      }

      .st49 {
        fill: #e7a270;
      }

      .st13 {
        fill: #b5b3a5;
      }

      .st50 {
        fill: #91b7c2;
      }

      .st51 {
        fill: #6b9a9d;
      }

      .st52 {
        fill: #e35227;
      }

      .st53 {
        fill: #2e4779;
      }

      .st54 {
        fill: #cf6f48;
      }

      .st55 {
        fill: #fff;
      }

      .st56 {
        fill: #f69c2d;
      }

      .st57 {
        fill: #fbc634;
      }

      .st58 {
        fill: #eef9fa;
      }

      .st59 {
        fill: #7eb85f;
      }

      .st60 {
        fill: #d87f51;
      }

      .st61 {
        fill: #3d753b;
      }

      .st62 {
        fill: #faeddc;
      }

      .st63 {
        fill: #896451;
      }

      .st64 {
        fill: #243c78;
      }

      .st65 {
        fill: none;
        stroke: #000;
        stroke-miterlimit: 10;
      }

      .st66 {
        fill: #fcc83b;
      }

      .st67 {
        fill: #66979d;
      }

      .st68 {
        fill: #e9a470;
      }

      .st69 {
        fill: #de937d;
      }

      .st70 {
        fill: #de3a22;
      }

      .st71 {
        fill: #8d7a9a;
      }

      .st72 {
        fill: url(#Unbenannter_Verlauf_588);
      }

      .st73 {
        fill: url(#Unbenannter_Verlauf_577);
      }

      .st74 {
        fill: url(#Unbenannter_Verlauf_597);
      }

      .st75 {
        fill: url(#Unbenannter_Verlauf_595);
      }

      .st76 {
        fill: url(#Unbenannter_Verlauf_598);
      }

      .st77 {
        fill: url(#Unbenannter_Verlauf_599);
      }

      .st78 {
        fill: #d12225;
      }

      .st79 {
        fill: #08101c;
      }

      .st80 {
        fill: #09121e;
      }

      .st81 {
        fill: #8fbad6;
      }

      .st82 {
        fill: #0d1323;
      }

      .st83 {
        fill: #08111e;
      }

      .st84 {
        fill: #566196;
      }

      .st85 {
        fill: #41793a;
      }

      .st86 {
        fill: #e0cfbf;
      }

      .st87 {
        fill: #83bd65;
      }

      .st88 {
        fill: #253068;
      }

      .st89 {
        fill: #91b6b7;
      }

      .st90 {
        fill: #d77a47;
      }

      .st91 {
        fill: #e53a3a;
      }

      .st92 {
        fill: #181d38;
      }

      .st93 {
        fill: #cf744b;
      }

      .st94 {
        fill: #6aa9ca;
      }

      .st95 {
        fill: #345d32;
      }

      .st96 {
        fill: #a1c969;
      }

      .st97 {
        fill: #3f7838;
      }

      .st98 {
        fill: #790f18;
      }

      .st99 {
        fill: #81a7af;
      }

      .st100 {
        fill: #2b587d;
      }

      .st101 {
        fill: #4e7e3d;
      }

      .st102 {
        fill: #131023;
      }

      .st103 {
        fill: #6caecf;
      }

      .st104 {
        fill: #f6cea6;
      }

      .st105 {
        fill: #dde0e1;
      }

      .st106 {
        fill: #db3236;
      }

      .st107 {
        fill: #720f19;
      }

      .st108 {
        fill: #fbbe37;
      }

      .st109 {
        fill: #090f24;
      }

      .st110 {
        fill: #1b2445;
      }
    </style>
    <linearGradient id="Unbenannter_Verlauf_597" data-name="Unbenannter Verlauf 597" x1="1025.8" y1="735.8" x2="1093" y2="965" gradientUnits="userSpaceOnUse">
      <stop offset="0" stop-color="#e7cce0"/>
      <stop offset="1" stop-color="#cfa8c5"/>
    </linearGradient>
    <linearGradient id="Unbenannter_Verlauf_598" data-name="Unbenannter Verlauf 598" x1="872.7" y1="525.7" x2="909.9" y2="630.3" gradientUnits="userSpaceOnUse">
      <stop offset="0" stop-color="#83ae41"/>
      <stop offset="1" stop-color="#669d49"/>
    </linearGradient>
    <linearGradient id="Unbenannter_Verlauf_577" data-name="Unbenannter Verlauf 577" x1="1414.2" y1="534.7" x2="1267.4" y2="1068.2" gradientUnits="userSpaceOnUse">
      <stop offset="0" stop-color="#f6ad27"/>
      <stop offset="1" stop-color="#eb7532"/>
    </linearGradient>
    <linearGradient id="Unbenannter_Verlauf_599" data-name="Unbenannter Verlauf 599" x1="785.6" y1="790.9" x2="816" y2="966.6" gradientUnits="userSpaceOnUse">
      <stop offset="0" stop-color="#547aa6"/>
      <stop offset="1" stop-color="#2c589a"/>
    </linearGradient>
    <linearGradient id="Unbenannter_Verlauf_595" data-name="Unbenannter Verlauf 595" x1="173.9" y1="887.2" x2="341.2" y2="931.8" gradientUnits="userSpaceOnUse">
      <stop offset="0" stop-color="#f6c89b"/>
      <stop offset="1" stop-color="#df8c57"/>
    </linearGradient>
    <linearGradient id="Unbenannter_Verlauf_588" data-name="Unbenannter Verlauf 588" x1="443.2" y1="712.5" x2="711.5" y2="825" gradientUnits="userSpaceOnUse">
      <stop offset="0" stop-color="#324e81"/>
      <stop offset="1" stop-color="#242b4e"/>
    </linearGradient>
  </defs>
  <path class="st12" d="M567.9,821.5c-49.7,5.2-98.4-16.6-139.8-44.5-63.7-43-116.6-101.9-152.4-169.9-16.9-32-30.3-68.3-23.6-103.9,77.7,51.9,141.1,129.6,230.6,156.3,16.2,4.8,33.8,7.8,49.9,2.6,34.9-11.2,47.5-52.9,55.7-88.6,8.3-35.7,23.3-77.3,59-85.4,16.2-3.7,33.2.9,48.6,7.2,24.3,9.9,46.9,24.1,66.3,41.7,29.7,26.9,55.5,63.5,95,70.4,40.2,7,77.6-20,110-44.9,59.1-45.3,123-89.8,196.7-100.2,85.5-12.1,170.2,23.5,246.7,63.8,62.2,32.8,125.9,72.8,155.7,136.5,5.9,12.7,10.4,26.9,6.9,40.5-4.3,16.7-20,28.4-36.6,32.9-16.6,4.5-34.2,3-51.3,1.5,31.6-10.3,65.9-12.7,98.6-6.7,24,4.4,48.3,13.9,64,32.6,15.7,18.7,20.1,48.3,5.1,67.6-21.5,27.8-64.8,20.1-97.9,8.1-110.6-40.1-214.2-97.4-313.2-160.8-37.7-24.1-79.3-50.2-123.6-44.2-40.9,5.5-72.5,36.9-105.6,61.4s-79,43.4-114.3,22.1c-27.1-16.3-42.9-53.8-74.6-55.7-12.5-.8-24.6,4.7-35,11.5-35.8,23.4-57.8,62.3-80.4,98.6-22.6,36.3-49.6,73.4-89.5,88.8s-95-2.3-103.9-44.2c-4.2,5.5-4.9,13.5-1.6,19.6"/>
  <path class="st13" d="M257.4,1078.8c133.7,13.1,164.2,16.6,297.8,29.8,49.5,4.9,99.2,9.5,149,8.8,24.6-.3,49.2-1.9,73.5-5.5,24.6-3.7,38.3-17.1,60.7-22.5,6.4,14.5,12.8,29.1,19.2,43.6,1.1,2.5,2.4,5.2,4.8,6.4,2.3,1.1,5,.7,7.5.2,14.4-2.7,28.8-5.4,43.2-8-9.9-37.2-19.8-74.5-29.7-111.7-1.7-6.3,59.4,13,69.3,22.7,3.7,3.6,5.5,8.8,7.2,13.7,11.5,33.5,23,67,34.5,100.5,14.3-3.9,29.3-5.4,44.1-4.3-6.6-37-16-73.5-28.1-109.1,2.2,6.6,42.6-14.4,55.3.7,18.5,21.9,25.8,74,35.4,101.4,15.6-4.1,31.2-8.3,46.8-12.5,17,45.6,2.3,59.2,78.8,43,111.6-23.7,207.7-28.8,316.5-62.8-2.3-14.7-4.1-27.4-5.5-39,63.8,19.9,128.7,9.5,113-2.9s-16.9-12.7-30.4-23.6c-27.6-22.3-49.1-54.2-67.8-81.3-28.7-10.2-92.6,7.8-123,6.9-71.7-2.3-143.5.7-215.3-.5-186.6-3.1-370.7,13.4-562.1,26.7-90.9,6.3-192.8-13.3-254.1,7.6-44,30.5-66.3,49.6-140.6,72Z"/>
  <path class="st63" d="M1553,964.4c-3.7-13.4-2.1-28.9,7.1-39.3,4-4.5,10.2-8.1,16-6.3,3.3,1,5.9,3.5,8.1,6,14,15.5,25.2,37.6,45.9,40.3-4.1-22.1-8.1-44.3-12.2-66.4-.4-2.2-.8-4.7.5-6.6,1.2-1.7,3.4-2.3,5.4-2.7,21.7-4.1,43.7,3.6,63.8,12.8,24.6,11.3,48.1,25,70.1,40.8,3.8,2.8,7.6,5.6,10.5,9.4,3.6,4.6,5.5,10.3,7.2,15.9,4.2,13.9,7.4,28.1,9.5,42.5.3,2,.6,4.2,0,6.1-1,3-3.8,5-6.5,6.7-74.1,46-197.9,40.3-225.2-59.3Z"/>
  <path class="st63" d="M143.5,990.3c-3,26.5,1.5,53.8,12.7,78,1.6,3.5,3.5,7,6.7,9.1,3.4,2.3,7.8,2.6,11.9,2.7,99.6,2.9,199.7-36.5,270.6-106.6-36.5,1.2-73,2.4-109.5,3.6"/>
  <g id="Generatives_Objekt">
    <path class="st26" d="M1867.6,1003.9l-77,14.8c-1-6.5-.7-11.8.9-17.9l76.1,3.1Z"/>
    <path class="st105" d="M506.8,1006.9c.9,5,2.5,11.6-1.5,15.3-.5,1.5-2.2.4-2.7-.2-4.1-5-3.1,1.9-8.1-1.6s-.6-1.5-2.4-1.8l-16.8-3c-4.4-.8-8.5-3.4-11.8-3.8-.1-1.9.1-5.4,3.3-5.3l40.1.5Z"/>
    <g>
      <path class="st74" d="M1037.7,978.1c-19.5-83.8-30.2-165.6-38.1-250.6,25.6-8.6,50.1-14.7,77.2-19.4l53.4,270.9-92.4-1Z"/>
      <path class="st28" d="M700.3,997.5c7.8-.8,16.1-.4,23.8.5-4.4,13.9-18.6,27.6-34.3,31.6-23.6,6-48,8.6-73.4,7.6-38-1.4-76-4.5-111-15.1,4-3.7,2.4-10.3,1.5-15.3,1.8,0,4.7,0,7.1-1.4-12.5-2.6-25.3,1.8-37.1-2.4l129.4-1.3c19.4-.2,37.5-.9,55.7-2.3,4.9-.4,10.3-.9,15.2-.7,7.8.2,15.4-.4,23.1-1.2Z"/>
      <path class="st55" d="M464.8,1002.5c3.6-.2,8.8-.1,12.1.5,11.8,4.2,24.6-.2,37.1,2.4-2.4,1.4-5.3,1.5-7.1,1.4l-40.1-.5c-3.1,0-3.4,3.4-3.3,5.3-.2,0-21.1-8-16.7-8.4l18-.8Z"/>
      <g>
        <g>
          <path class="st91" d="M926.6,930.7c-16.5-74.4-32.2-149.5-42.6-225,11.8-1.1,22.8-5.9,33.8-10.3,9.9,39.9,17.7,80.6,22.8,122.6s1.2,88.1-10.4,112.9c-1.7-1.7-.2-3.2-1.6-3.5-4.1-1.1,2,6-2,3.3Z"/>
          <path class="st78" d="M986.5,979.3c-13.4-1.3-26.9.2-40.4.3-1.8,0-3.5-.4-5.3.1-2.1.8-3.6-.9-4.2-3.5l-10.1-45.5c4,2.7-2.1-4.4,2-3.3s0,1.9,1.6,3.5c11.6-24.8,13.9-84.3,10.4-112.9-5.1-42-12.9-82.7-22.8-122.6,3.3-1.4,6-4.3,9.6-5l59.1,288.9Z"/>
          <path class="st39" d="M927.4,690.4c-3.6.8-6.3,3.7-9.6,5-11,4.5-22,9.2-33.8,10.3-1.1-.5-1.2-2-1-2.9s1.3-2.4,2.9-2.8c13.4-3.1,25.8-7.4,38.5-13.2s2.9,0,2.9.9v2.7Z"/>
        </g>
        <g>
          <path class="st76" d="M949.4,525.5c-.9,0-1,1.3-1.3,1.7-1.3-.6-2.5.5-2.2,1.8-23.1,18.2-40.4,43.8-50.2,73-14-9-27.4-16.3-42.4-21.7,4.5,14,13.3,24.7,24.3,33.6l25,20.3c9.8-14.6,16.5-28.7,21.8-45.1s13.9-34.6,21.8-49.9c1.6-2.9,5.2-5.1,5.3-8.7,1.6-1.1,3.1-2.3,4.5-.6s.9,2.9,1.7,4c.6,42.8-11.1,94.6-50.8,120.9-18,11.9-20.4-.2-21.9,8.1-24.5-1.7-47.2-14.4-58.4-36.4s-4.4-84.1,20.4-104.2c29.5-24,78.8-24.4,102.3,3.3Z"/>
          <path class="st101" d="M885.2,662.8c1.5-8.3,3.8,3.9,21.9-8.1,39.7-26.3,51.4-78.2,50.8-120.9,23.3,32.7,17.2,80.2-12,108.8-15.7,15.4-41.3,21.5-60.7,20.2Z"/>
          <path class="st55" d="M951.5,530.4c-.1,3.6-3.7,5.8-5.3,8.7-1.3-2.2,0-5.8,3.5-7.9-2-1.3-4.3-.3-3.8-2.3-.3-1.3.9-2.4,2.2-1.8,1.4.4,3,1.8,3.4,3.3Z"/>
          <path class="st58" d="M946.2,539.1c-7.9,15.3-16.2,32.7-21.8,49.9s-12,30.5-21.8,45.1l-25-20.3c-11-8.9-19.8-19.6-24.3-33.6,15,5.4,28.4,12.7,42.4,21.7,9.7-29.2,27-54.9,50.2-73-.5,2,1.8,1,3.8,2.3-3.5,2-4.8,5.7-3.5,7.9Z"/>
        </g>
      </g>
      <g>
        <g>
          <path class="st68" d="M1679.6,841.6c27.7,14,59.1,54.4,68.9,82l-65.5-19.8c-5-1.5-10.3-1.9-13.6-4.9l-12.2-6.9c-8.3-4.7-16.9-10.7-25.3-15.6-21.9-12.5-46.4-14.5-71.3-15.3-23.3-.7-46-3-68-7.9-1.4-1.1-4.3-3.3-6.3-3.1-1.6-2.8-4.7-5.3-5.6-8.5-2.1-7.5,3.9-14.4,12.1-15.5l35.4-4.7c2.9,3.6,9.5,1,14.1.7l17.5-1.2c37.3-2.7,61.3-3.8,97.9,12.1s14.9,7.6,22,8.7Z"/>
          <g>
            <path class="st18" d="M1674.3,771c-.9,1.1.5,1.3,1,1.7,1.1,1,2.1,0,2.6,0,21.8,14.6,40.9,32.8,57.2,53.4-.8-18.3-39.4-47.1-38.2-48.6s3.1-.8,4.5-1.5c23.6-.2,44.6,16,54.3,38.2,10.1,23.3,14.1,48.1,14.1,72.9-1.4,0-2.6.7-4.1,1.4,1.6,5.1,3.4,9.8.2,15.5-2.1-21.6-61.6-52.7-80.4-63.8l-26.8-15.8-43.8-24c-8.6-4.7-15.9-10.3-22.9-16.4,9.3-5.7,24.1-6.8,35.2-3.1,23,7.6,44.2,19.6,62.7,36.2l34.7,31c4.2,3.8,8.8,8.5,14.2,7.9-16.8-18.8-32.4-34.3-49.1-50-14.7-13.8-32.3-21.3-49.1-30.2,7.8-9.3,22.3-4.7,33.6-4.8Z"/>
            <path class="st42" d="M1769.8,887.3c0,14.5.9,29.1-1.1,43.5l-20.3-7.2c-9.8-27.5-41.2-67.9-68.9-82-7.8-4-15.6-10.4-23.8-13.6,0-1.6,2.1-2.2,3-3.4l26.8,15.8c18.8,11.1,78.3,42.2,80.4,63.8,3.2-5.7,1.3-10.4-.2-15.5,1.5-.7,2.7-1.4,4.1-1.4Z"/>
            <path class="st8" d="M1592.1,784.2c7,6.1,14.2,11.7,22.9,16.4l43.8,24c-.9,1.1-3,1.8-3,3.4-20.8-8.1-42.1-14-65.4-12.7-9.7.6-19.1.6-28,1.8s-9.1,2.1-13,.5c.9-2.5-2.4-6,.3-7.9,0,2.1,1.4,2.4,3.2,1.6,16.8-5.3,25.9-19.1,39.3-27.2Z"/>
          </g>
          <path class="st93" d="M1669.3,898.8c-7.6.2-21.1-6.2-30.3-8.5s-9.5-6.9-15.6-9.4c-17.6-7.2-36.3-7.7-54.4-11.1-2.9-.5-7.8-3.5-9.1.4-7-2-14.4-3.7-21.9-3.4s-8-.8-11.8-1.6-5.2-1.2-8.5-2.1l-21.7-6.2c.1-2.8-4.6-.7-3.7-3.8,22,4.9,44.6,7.2,68,7.9,24.9.8,49.4,2.8,71.3,15.3s17,10.9,25.3,15.6l12.2,6.9Z"/>
        </g>
        <g>
          <path class="st25" d="M1566.7,885.3c.8-.4,1.4.3,2,.5-.3,2-.8,6.5.4,8.6,2.4,3.9,13.5,2.9,10.3,4.8s174.4,56.1,190.1,61.7c.7-3.7,1.9-3.3,3.4-2.8-.2,3.7-1.5,6.5-2.5,9.8s-.3,10-3.6,13.7l-124.3-39.9c-3.8-1.2-8.2-2.6-11.9-4l-42.1-14.9c-7.2-2.6-13.2-5.9-18.4-10.3s-4.1-3.9-6.4-5.4c.6-.9.6-.7-.1-1.6,3.6.4-1.7-11.3-2.2-10.1l-1.5-11.5,2.7.7c1.3.3.6,2.2.8,4.6s2,.1,2.6-.4c1.2-1.1.8-2.2.8-3.4Z"/>
          <path class="st88" d="M1560,870.2l78.9,22.1c43.2,12.1,85.9,28.3,129.7,40.2,4.4,1.2,8.7,4.1,13.4,4.8-.2.9,0,2,1.2,1.8-.3,2.1-2.3,3.5-3.4,4.7-20-8.2-40.8-14.2-62.2-20.9l-76.8-24.2c-12.7-4-24.1-8.5-37-11.8s-24.9-9.2-37.6-10.2c-2-.4-2.4-3.5-3.8-3.7-2-.3-3.8.7-5.8,2.4-2-.4-2.2-1.4-.2-2.4-2.5-4.4-20.8-3.7-18.3-6.3,7.5-.3,14.8,1.4,21.9,3.4Z"/>
          <path class="st50" d="M1805.1,947c-7.2,1.7-7,14.8-16.2,23.8-2.7,0-4.7,2.7-8.5,1.8-.6-3.1-.9-8.7-4.9-7.9s-2.6,4.9-5.1,3.1c1-3.3,2.4-6.1,2.5-9.8,1.2-1.3,2.1-3.6,2.4-5.2,2.8-2.1,3-6.1,4.5-9.1,1.1-1.2,3.1-2.5,3.4-4.7,1.2.4,2.7-.3,2.2-1.8,1,0,2.8-2.3,4-1.3,2.8,2.3,5.4,2.3,7.9,3.7s4.7,6,7.8,7.2Z"/>
          <path class="st15" d="M1788.9,970.8l20.1,5.1c2.6-3.9,3.2-3.5,2.9.5-2.3,3.1-2.8,10.2-9.9,10l-13.5-.3c-2.6,0-6.2-2.8-9.8-2s-7.1.8-10.1-.6-2.1-.5-1.8-2c3.3-3.7,2.3-9.4,3.6-13.7,2.5,1.8,3.2-2.8,5.1-3.1,4-.7,4.3,4.8,4.9,7.9,3.7.9,5.8-1.8,8.5-1.8Z"/>
          <path class="st99" d="M1805.1,947c4,1.6,12.1,3.4,13.3,8.9,1.7,7.9-2.6,15.4-6.5,20.6.3-4-.3-4.4-2.9-.5l-20.1-5.1c9.1-9,9-22.2,16.2-23.8Z"/>
          <path class="st44" d="M1669.3,898.8c3.3,3,8.6,3.4,13.6,4.9l65.5,19.8,20.3,7.2c0,.6-.3,1.2-.1,1.8-43.8-11.9-86.5-28.1-129.7-40.2.1-.7.2-1.4.2-2.1,9.1,2.4,22.7,8.8,30.3,8.5Z"/>
          <path class="st55" d="M1570.1,912.5c-1.1-.4-2.6-.4-4.2-.2s-.5,2.3-1.4,3.3c-.2-2.2-2.8-5.7-.8-8.5,2.3,1.5,4.4,3.8,6.4,5.4Z"/>
          <path class="st37" d="M1454,836.5c-3.7,5-9.2,8-15.5,3.7-2.1,2.5-16.6-4.9-22.3-5.5-12.3-1.2-23.9-7.8-35.4-5.6,3.9,6.5,11.1,4.2,14.8,9.2s-1.5,3.2-2,4,2.2,2.7,2.8,2.3c.8-1.5,0-4.2,1-5s2.8-1.8,4.4-1c16.9,7.7,27.4,3.8,23.1,15.1.5,1.5.8,2.4,1.5,2.5,3.4.5,1.6-4.7,4.1-7.1s34.1,8.8,38.6,11.2c.9,2-1.8,5.2-3.4,5.7,2.9,1.9,6,3.8,8,1.6s1.9-4.5,2.2-6.6c7.7,1.7,15.4,3.8,23,5.2.1,1.5,0,3.7.8,4.7s40,14.3,51.4,20.2c3.7,1.9,6.6,3.9,10.2,4.2.5-1.2,5.8,10.6,2.2,10.1-8.9-11.4-25.7-14.4-39.6-8.9s-4.5-.5-6-1c-29.5-9.9-120.2-37.9-141.5-53.8-3.5-2.6-7-6.1-7-10,5.2-2.1-27.3-10.6-24.9-12.1,11.5-1,22.5,9.1,33.1,6.6,8.3-2.2,15.7-1.8,24.2-.1l52,10.3Z"/>
          <path class="st33" d="M1454,836.5c1.8.3,3.3,1.2,5.1,1.6l-6.1,5.8c.8,4.6,6.3,1.6,9.6,2.6s4.4,4.2,8.5,2.7c3-1.1,5.3-2.9,6.2-6.2.6-.5,1.3-.7,1.8,0,1.6,3.4,2.7,7.8,7,7,2-.1,4.9,2,6.3,3.1-.9,3.1,3.8,1,3.7,3.8-5.9-1.7-11.9-3.5-18.3-5.3s-7.7,5.9-4.7,8.5,2,.6,2.9.9c-.3,2.1-.8,5-2.2,6.6-2,2.2-5.1.3-8-1.6,1.6-.5,4.3-3.7,3.4-5.7-4.5-2.4-36.8-12.9-38.6-11.2-2.5,2.5-.7,7.7-4.1,7.1s-1-.9-1.5-2.5c4.3-11.3-6.2-7.4-23.1-15.1s-3.6.4-4.4,1-.2,3.6-1,5c-.5.4-3.2-1.6-2.8-2.3s2.8-2.9,2-4c-3.7-5.1-11-2.8-14.8-9.2,11.5-2.2,23.1,4.4,35.4,5.6s20.2,8,22.3,5.5c6.3,4.3,11.8,1.2,15.5-3.7Z"/>
          <path class="st64" d="M1477.3,843c-.9,3.3-3.2,5.2-6.2,6.2-4.1,1.4-5-1.7-8.5-2.7s-8.8,2-9.6-2.6l6.1-5.8c6.1,1.5,12.3,2.8,18.2,4.9Z"/>
          <path class="st54" d="M1486.2,850c-4.4.8-5.4-3.6-7-7-.6-1.1.3-2.1,1.4-1.5.9,3.2,4.1,5.7,5.6,8.5Z"/>
          <path class="st1" d="M1775.4,952.9c-.3,1.6-1.2,3.8-2.4,5.2-1.5-.5-2.8-.9-3.4,2.8-15.6-5.6-192.8-60-190.1-61.7s-8-.9-10.3-4.8-.7-6.5-.4-8.6l202.5,63.5c2.4.8,4.3,1.7,4.2,3.5Z"/>
          <path class="st40" d="M1779.8,943.8c-1.4,2.9-1.7,7-4.5,9.1.2-1.8-1.8-2.8-4.2-3.5l-202.5-63.5c-.6-.2-1.2-.9-2-.5-3.6-1-1.1-5.9-.5-8.5,12.7,1,24.6,6.9,37.6,10.2s24.3,7.8,37,11.8l76.8,24.2c21.3,6.7,42.2,12.7,62.2,20.9Z"/>
          <path class="st22" d="M1523,870.6c12.6,2.3,24.5,10.1,36.9,13.3l1.5,11.5c-3.6-.3-6.5-2.3-10.2-4.2-11.3-5.9-50.9-19.7-51.4-20.2-.8-1.1-.6-3.3-.8-4.7l23.9,4.4Z"/>
          <path class="st84" d="M1538.1,866.8c-2.5,2.6,15.8,1.9,18.3,6.3-2,1-1.7,2,.2,2.4,2-1.7,3.7-2.7,5.8-2.4s1.8,3.3,3.8,3.7c-.6,2.6-3.1,7.5.5,8.5,0,1.2.4,2.4-.8,3.4s-2.3,2.7-2.6.4.4-4.3-.8-4.6l-2.7-.7c-12.4-3.2-24.3-11-36.9-13.3,2.4-.7,2.2-3.6,3.3-5.3,3.8.7,7.9,1.7,11.8,1.6Z"/>
          <path class="st71" d="M1496.2,856.9l21.7,6.2c3.2.9,6,1.7,8.5,2.1-1.2,1.7-1,4.6-3.3,5.3l-23.9-4.4c-7.6-1.4-15.3-3.4-23-5.2s-1.9,0-2.9-.9c-3-2.6,3.1-9,4.7-8.5,6.4,1.8,12.4,3.6,18.3,5.3Z"/>
        </g>
        <g>
          <path class="st38" d="M1572.7,1036.7c.3,5.5,1.7,11,1.1,16.5-17.1,3.6-34,4.8-52.8,6.6l-249.8,24.7c-25.8,2.5-50.5,2.7-76-.2-15.8-19.6-16.3-50.1-18.7-72.8,1.2-.1,4-.7,2.8,1.7,2.8,19.2,7.2,37.6,14.7,54.9s31.5,6.4,41.7,4.2c26.7-5.7,51.8-8.7,78.4-11l249-22.2c4.3-.4,6.9-.9,9.6-2.4Z"/>
          <path class="st21" d="M1504.7,540.7c-14.8-2.6-29.6-3.2-45.7-2.6-48.8,1.8-95.7,6.2-144.5,10.3l-156.7,13.2c-5.7.5-11.3,2.4-16.7,0l32.1-6.1c1.4-.3,2.8.9,3.4-.4s.3-1.5,0-2.5l147.9-12.7c14.5-1.2,198.5-22.7,180.2,1Z"/>
          <path class="st90" d="M1563.6,905.5c.7.9.7.7.1,1.6-2,2.9.6,6.3.8,8.5l3.4,46.8c-1.6-.1-3.7,1.2-5.4-.9-14.8-18.4-33.1-32.4-51.8-47-2.5-1.9-4.5-5.3-4.2-8,.9-6.8,11.9-4,11.5-10.8,1.4.5,4.5,1.5,6,1,13.9-5.5,30.6-2.6,39.6,8.9Z"/>
          <path class="st52" d="M1135.8,656.6l8.8,65.7,19.1,141.5c2.5,18.7,4.7,29.5,7.5,46.8-1.9.1-3.7.2-5.6,0l-39.8-277.3c-3.6-25-9.1-47-16.3-70.9s-.8-2.7-.5-3.3c.4-.9,1.4-1.2,2.2-1.3,13.9,17,21.5,75.2,24.7,98.8Z"/>
          <path class="st35" d="M1171.2,910.6c-2.7-17.2-4.9-28.1-7.5-46.8l-19.1-141.5-8.8-65.7c13.5.8-6-54.7-1.9-65.1,9.6,19.9,12.2,39.6,16.2,60.1,6.4,32.8,10.4,64.4,15,97.4l10.8,77.6,27.8,214.7c.1.9-2.1,3.3-2.5,2.8l-2.1-2.8c-14-19-14.7-46.5-18.6-70.8l-9.5-59.9Z"/>
          <g>
            <path class="st73" d="M1504.7,540.7c1,1.8,2.5,3.7,2.9,6.6l13.9,85.8,28.1,176.7c-2.7,1.8.6,5.4-.3,7.9-2-.8-2.6,2.3-4.1,2.1-7.1-.9-11.8.9-17.2,1.6l-35.4,4.7c-8.3,1.1-14.3,8-12.1,15.5-1.1-.6-2,.5-1.4,1.5-.6-.7-1.2-.5-1.8,0-5.9-2.1-12.1-3.4-18.2-4.9-1.7-.4-3.3-1.3-5.1-1.6l-52-10.3c-8.5-1.7-15.9-2.1-24.2.1-10.5,2.5-21.6-7.6-33.1-6.6s-3-.8-5.1.8c9.4,5.3,19.7,8.7,30,11.4,0,3.9,3.5,7.4,7,10,21.3,15.9,112,43.8,141.5,53.8.5,6.8-10.6,4-11.5,10.8s1.7,6.1,4.2,8c18.6,14.6,37,28.6,51.8,47s3.8.8,5.4.9c1,13.1,1.8,26,2.6,39.1l2.2,35.1c-2.8,1.4-5.3,2-9.6,2.4l-249,22.2c-26.6,2.4-51.8,5.3-78.4,11-10.2,2.2-37,6.6-41.7-4.2-7.5-17.3-11.9-35.7-14.7-54.9,1.2-2.4-1.6-1.8-2.8-1.7l-10.9-100.9c1.9.2,3.7.1,5.6,0l9.5,59.9c3.8,24.3,4.5,51.7,18.6,70.8l2.1,2.8c.4.5,2.6-1.9,2.5-2.8l-27.8-214.7-10.8-77.6c-4.6-33-8.7-64.7-15-97.4-4-20.5-6.6-40.3-16.2-60.1-4.1,10.4,15.3,65.9,1.9,65.1-3.2-23.6-10.7-81.7-24.7-98.8l65.5-5.4c.2.9.2,1.8,0,2.5-.6,1.3-2,.2-3.4.4l-32.1,6.1c5.4,2.4,11,.5,16.7,0l156.7-13.2c48.9-4.1,95.7-8.5,144.5-10.3s30.9,0,45.7,2.6Z"/>
            <g>
              <path class="st86" d="M1344.7,819.8c-2.4,1.5,30.1,10,24.9,12.1-10.3-2.6-20.6-6-30-11.4,2.1-1.5,3.8-.6,5.1-.8Z"/>
              <g>
                <path class="st66" d="M1513.8,774.2c-80,2.8-149.8,15.4-224.4,38.8l-6.4-35.3c43.9-1.9,85.6-7.3,128.9-13.3,34.8-4.8,69.1-3.1,101.9,9.8Z"/>
                <path class="st11" d="M1512.2,693.1c-79.9-8-157.1-4.1-232.1,22.6-2.5-10.7-3.4-19.2-4.2-28.9l68.6-10.2c32-4.7,62.6-7.5,94-2.5s49.9,8.7,73.6,19Z"/>
                <path class="st29" d="M1526.9,965.4c-73.5-5.2-129-3.8-198,24.8-3-9.8-4-19-5.8-29l36.6-8.9c52.7-12.7,119.5-15.8,167.3,13.1Z"/>
                <path class="st56" d="M1218.7,969.1c.2-.3.9-.1,2.2.9l46.8-27.5c3.6-2.2,6.9-4.5,11.2-4.7l13,53.9c.6,2.6,1.4,7-2.1,8.4l-54.2,21.4-16.8-52.4Z"/>
                <path class="st16" d="M1267.3,858.5c4.4,16.1,4.8,33,6.9,50.6l-56.8,17.7-4-51.2,53.8-17Z"/>
                <path class="st36" d="M1252.3,774.4c1.7,14.8,2.8,28.5,3.5,43.3l-53.3,14.6-7-42.9c18.5-6.7,37.6-12,56.8-14.9Z"/>
                <path class="st17" d="M1458.6,597.5c-68.6,1.2-136,9.7-203,27.1-2.4-6.8-3-13.1-4.5-20.5,46.5-4.9,92-10.8,139-10.4l61.7.6,6.8,3.2Z"/>
                <path class="st34" d="M1391.3,867.1c-31,5.1-59.8,10.5-88.6,22-2.6-10.9-3.3-20.6-4.6-31.9,23.8-3.4,46.2-6.7,69.9-7.1l23.3,16.9Z"/>
                <path class="st41" d="M1206,595.2c-8.8,5.2-16.1,12.4-21.1,22.6-4.4-2-7.9-4.8-13.6-2.5,7.7,3.8,13.3,9.6,19.8,16.2,2.4-14.4,7.5-26.2,17.1-35.2,6.2-9.5,12.8,35.1,13.4,37.4l-50.5,14.3-10.2-41c14.9-5.9,30.4-14,45.2-11.8Z"/>
                <path class="st31" d="M1208.2,596.3c-9.6,9-14.7,20.8-17.1,35.2-6.6-6.6-12.1-12.4-19.8-16.2,5.6-2.3,9.1.5,13.6,2.5,5-10.2,12.3-17.4,21.1-22.6,1.6.2,2.3.2,2.2,1.1Z"/>
                <path class="st108" d="M1267.7,942.5l-46.8,27.5c-1.3-1.1-2-1.3-2.2-.9-.9-2.9-.1-5.4,3.3-6.9,15.9-7,30.5-14.5,45.7-19.7Z"/>
                <path class="st5" d="M1267.3,858.5l-53.8,17c-.7-1.4-1.3-5.8.5-6.3l44.4-11.4c2.6-.7,7.9-2.9,8.9.6Z"/>
                <path class="st57" d="M1252.3,774.4c-19.2,3-38.2,8.3-56.8,14.9-.9-1.9-.6-5.5,1.6-6l48.3-10.9c1.8-.4,4-1,5-.7s1.7,1.7,1.8,2.6Z"/>
                <g>
                  <path class="st0" d="M1248.5,721.7c-18.6,5.5-36.7,9.8-55.4,17.6l-6.3-49.3c18.1-6.9,35.9-13.1,54.9-16.6l6.8,48.2Z"/>
                  <path class="st70" d="M1198.6,699.1c7.2-.4,11.9,3.1,18.1,4.8,4.8-10.7,12.4-18.6,22.3-23-9,11.8-14.6,21.9-16.3,36.3l-24.2-18.1Z"/>
                </g>
              </g>
            </g>
          </g>
        </g>
      </g>
      <g>
        <g>
          <path class="st110" d="M464.8,1002.5l-18,.8-18.7-.7c-5.3-.2-9.6-5.1-13.3-7.7l53.1-51.3c.8-.8,1.7-1,2.1-1l-12.4,57.3c3,1.3,7,0,7.2,2.5Z"/>
          <g>
            <path class="st77" d="M816.3,772.8c-.4,1.1.5,1.8,1.5,1.5,5.1,24.4,11.6,48.1,15.2,74.2,6.1,44,8.7,88.1,9.7,131.6,0,.8-4.9,1.6-2.8,2.9l-43.5,3.1c-.8,0-1.5.2-2.3,0-15.5-54.2-27.4-109.4-38.2-165.1-.7-1.6-1.8-4.7-3.6-3.3,1.2-8.2-6.4-28.3-4.3-36,2.6-1.2,7.9-.7,9.5-4,0,1.2.3,2.3,1,3.1-.9-1,27.5-2.3,32.6-3.1s5.3,1.4,5.3-1.4c1.1.1,2,0,3.1,0,1.8-.2,5.2,1,5.3-1.6,2.2.4,4.3-.9,6.4-.3s2.7,0,2-1.4c.9.4,1.9,0,3,0Z"/>
            <path class="st45" d="M840.1,983.1c-2-1.3,2.8-2.1,2.8-2.9-1.1-43.5-3.6-87.6-9.7-131.6-3.6-26.1-10.1-49.8-15.2-74.2l3.9-3c4.6.4,8.6-3,14.1-2.8l49.4,212-45.3,2.5Z"/>
            <path class="st55" d="M1785.4,937.4c.5,1.5-1,2.2-2.2,1.8-1.2.2-1.4-.9-1.2-1.8,1.2.2,2.2,0,3.4,0Z"/>
          </g>
          <g>
            <path class="st106" d="M694.2,838.9l-28.7,134.6c-20-1.7-38.5-7.4-57.3-12.3-.8-.2.3-3.1-.6-3.5,1.1-4.7.8-10.2,2.3-14.9,1.1.7,3.2-.2,3-1.2s.7-2.8.8-3.5c6.1-27.3,12.6-54.2,24.1-80.1,3.5-7.8,10.8-12.2,18.5-13.5l22.7-3.8c2.1-.3,4.2-.8,4.6-2.9,3.7.2,7-.4,10.5,1.1Z"/>
            <path class="st98" d="M705.7,843.8c-8.1,46.2-18.4,92.2-29.1,138.7-.7,3-2.7,6-6.3,5.5-22.8-3.1-44.1-8.5-65.5-13.2-4.3-2.9,2.4-15.1,2.9-17,.9.4-.2,3.3.6,3.5,18.8,4.9,37.3,10.6,57.3,12.3l28.7-134.6c4,1.7,9.5.8,11.5,4.9Z"/>
          </g>
          <path class="st23" d="M677.2,998.7c-4.9-.1-10.4.4-15.2.7-2.6-4.6-8-4.8-13.5-5.9-8.8-1.8-41.9-11.5-44.7-16.4s2.7-1.3,1-2.5c21.4,4.8,42.7,10.2,65.5,13.2,3.6.5,5.7-2.5,6.3-5.5,10.6-46.4,21-92.5,29.1-138.7,1.5.7,9.5.8,8.7,4.6l-14.6,69.4c-5.9,27.9-13,54.8-22.5,81Z"/>
          <path class="st10" d="M455,898.9c2.2-1.4,6.3,1.6,8.6,1.8-6.3,6.6-11.5,14.3-15.1,22.7-5.6,1.3-11.8,3.6-16.4,8s-10.4,5.8-14.4,9.1c-4.3-4.5-12.6-3.9-15.9-8.9-.9-4.2,1.8-8,4.4-7.5,5.1-5.8,8.1-14.4,12.5-21.4,9.8-15.4,25.9,4.2,36.3-3.8Z"/>
          <path class="st80" d="M453.5,861.8c1.5-6.4-5.8-.9-6.9-5.5,2.8-2.7,6.2-6.6,8.7-9.5.9,1.9.7,2.6.1,4.5-.9,3,14.2,9.7,20.8,12.4l25.8-51.2c1.6-1.7,9.6,2.3,8.3,5.4-8.5,20-19.1,37.8-31.1,56.2-10.5-3.3-17.8-8.1-25.8-12.3Z"/>
          <path class="st97" d="M502,812.6l-25.8,51.2c-6.6-2.7-21.7-9.4-20.8-12.4,3.1-.4,5.5-4,8.6-5.5s1.1,1,1.9.9,1.3-.3.9-1.4c4.4,7.7,21.4-24.5,23.1-28s5.7-5.7,5.4-9.3c2.2,1.6,6.1,1.3,6.7,4.6Z"/>
          <path class="st48" d="M426.8,889.1l28.2,9.8c-10.4,7.9-26.5-11.6-36.3,3.8s-7.4,15.6-12.5,21.4c-1.3-9.3,6.6-16.9,7-25.3.2-4.2.7-10.6,6.8-10.8s5.1,2.1,6.8,1.1Z"/>
          <path class="st46" d="M495.3,808c.4,3.6-3.7,5.9-5.4,9.3s-18.7,35.7-23.1,28c.2-5.3,5.5-8.8,8.6-13.3l16.2-24c.7-1,2.7-.6,3.7,0Z"/>
          <path class="st19" d="M467,904.2l-7.3,19.8c-3.7,0-7.6-1.4-11.3-.6,3.6-8.4,8.8-16.1,15.1-22.7,1.9.2,2.7,2.5,3.5,3.5Z"/>
          <g>
            <path class="st49" d="M466.7,927.3c1.1,3.4,3.8,4.6,4.8,6.4,1.7,3.2-1,6.7-1.6,9.1-.4,0-1.3.2-2.1,1l-53.1,51.3-12,8.7c-8.7-2.1-17.7.6-26.4.6l6.2-40.7c7.2.9,14.6-1.7,21.6-4.9,25.9-11.7,38.5-30.4,61.1-24.7-1.1-3.4-2.9-5.5-1.9-8.3,1.6-.4,1.8,2.2,3.3,1.5Z"/>
            <path class="st55" d="M380.5,852.1c-1.2.8-2.8-.5-3-1.7,4.4-2.6,3.8-5,5-10.1l2.3-10.3h4.3c-.5,1.9-.7,4.1,1,6.9,15.4-10,29.9-20.8,43.4-32.6,3.2-2.8,8.5-4.5,9.7-9.1,6.3-1.9,9.4-9.2,15.2-12.3-3.6,8.4-10.4,11.7-17,20-19.2,23.9-38.3,33.4-60.8,49.4Z"/>
            <path class="st20" d="M493.7,779.1c5,8.5.6,18.4-4.8,25.7l-3.9,5.3c-3.8.4-5.7,3.1-8.7,6-33.8,32.2-72.1,57.4-105.5,89.2-.4-17.6,4.6-36.2,9.6-53.2,22.5-16.1,41.6-25.6,60.8-49.4s13.4-11.6,17-20c3-7,11.1-9.2,17-13.2,6.5,1.7,14.6,3.2,18.4,9.6Z"/>
            <path class="st92" d="M453.5,861.8c-1,0-2.1,0-2.8-.9l-23.8,28.1c-1.7,1-4.9-1.2-6.8-1.1-6.1.2-6.6,6.6-6.8,10.8-.4,8.4-8.3,16.1-7,25.3-2.6-.5-5.3,3.3-4.4,7.5,3.3,5,11.7,4.5,15.9,8.9-7.6,6.3-33.9,23.6-41.8,14l-1.1-23.2c20.4-27.6,46.9-51.2,71.8-74.9,1,4.6,8.4-1,6.9,5.5Z"/>
            <path class="st95" d="M491.7,808l-16.2,24c-3.1,4.5-8.4,8-8.6,13.3.3,1-.2,1.3-.9,1.4s-1.4-1.2-1.9-.9c-3.1,1.6-5.5,5.1-8.6,5.5.6-1.9.8-2.7-.1-4.5,10.3-12,20.5-23.9,29.8-36.7l3.9-5.3c.2,1.6,2,1.9,2.7,3.1Z"/>
            <path class="st6" d="M370.4,909.3c-.3,8.5-2.2,17.5,1.8,25-2.4,7.1-1.2,15.2,2.3,21.6s3.6,7.2,8.1,7.7l-6.2,40.7-92.7-.6c2.2-2.1,5.2-3.4,8.5-4.7,40-16,57.3-49.3,74.6-86.3.9-1.9,1.7-3.5,3.6-3.3Z"/>
            <path class="st4" d="M485.1,810.2c-9.3,12.7-19.5,24.6-29.8,36.7-2.5,2.9-6,6.9-8.7,9.5-24.9,23.7-51.3,47.3-71.8,74.9-.7,1-2.1,1.7-2.6,3.1-4-7.4-2-16.5-1.8-25s-.3-3.1.6-4c33.4-31.7,71.7-57,105.5-89.2,3-2.8,4.9-5.6,8.7-6Z"/>
            <g>
              <path class="st75" d="M292,804.4c-12.3,1.6-42.3,18.3-51.9,29.4,1.7,2.4,13.6-8.5,11.2-.7-1.7,1.9-4.3,3.2-4.5,6.7,21.3-10.6,30.8-19.7,52-28.5,1.5-.6,27.1-7.6,34.7-3.9s8,9.2,11.9,14.7c9.7-4.2,18.9-7.8,28.8-5.2s12,7.1,10.7,12.9l-2.3,10.3c-20.1,11.9-39.5,25.3-57.2,41.6,19.1-8.8,34.8-21.5,52.2-31.5.2,1.3,1.8,2.6,3,1.7-4.9,17-10,35.6-9.6,53.2-.9,1-.6,2.7-.6,4-2-.1-2.7,1.4-3.6,3.3-17.3,37-34.6,70.3-74.6,86.3-3.3,1.3-6.3,2.6-8.5,4.7-3.4,0-6.9.7-10.3.8.3-.9-.4-1.3-1.6-1.3h-62.3s-37,0-37,0c-5.3-.4-10.8.8-16.4-.6-5.8-2.5-11.8-.4-17.4-1.1,1.8-10.3,2.7-20.6,3.2-32,3.3-67.7,35.2-139.3,99-168.6,15.9-7.3,41-13.1,51,3.7Z"/>
              <g>
                <path class="st27" d="M377.6,850.3c-17.4,10.1-33.1,22.7-52.2,31.5,17.7-16.4,37.1-29.8,57.2-41.6-1.1,5.1-.6,7.6-5,10.1Z"/>
                <path class="st60" d="M332.6,821.9c-21.7,9.9-41.4,33.9-59.3,37.2,1.3-3.2,62-50.7,59.3-37.2Z"/>
              </g>
            </g>
            <path class="st104" d="M448.4,923.5c3.6-.8,7.6.6,11.3.6s2.1,2.1,3.6,1.7c-1,2.8.8,4.9,1.9,8.3-22.6-5.7-35.2,13-61.1,24.7s-14.3,5.7-21.6,4.9c-4.5-.5-6.4-4.6-8.1-7.7,1,0,1.5-.4,1.4-1.4,7.9,9.6,34.2-7.7,41.8-14s10-4.8,14.4-9.1,10.8-6.7,16.4-8Z"/>
            <path class="st62" d="M375.9,954.5c0,1-.5,1.3-1.4,1.4-3.5-6.4-4.7-14.5-2.3-21.6s1.9-2.1,2.6-3.1l1.1,23.2Z"/>
          </g>
        </g>
        <g>
          <path class="st82" d="M757.6,777.6c-1.6,3.3-6.9,2.8-9.5,4-2.1,7.7,5.5,27.9,4.3,36l-22,151.5c-1.5,10.7-3.5,19.7-6.4,28.8-7.7-1-16-1.4-23.8-.5.8-8.2,6.3-15.5,8.3-24.7,5.7-26.1,8.9-50.8,12.6-77.5l27.9-198.1c3.2-22.7,7.8-43.8,8.3-66.2.7-31.5-16.7-59.8-39.7-80.5-2.1-1.8-3.9-1.8-3.1-4.2,15.8,7.2,31,16.5,44.9,27.7,22.6,18.1,19.3,44.6,15.8,71l-17.6,132.7Z"/>
          <path class="st30" d="M640.2,516.9c-31.2-6.5-64.4-3.8-96.3-2.5-15,.6-28.3,8.9-36.8,21.3-10.8,15.9-18.9,31.9-26.4,49.3l-37.4,86.3c-2.3-1.4-3-4.7-2-8.1,11.5-38.8,36.6-99.2,58.2-134,9.1-14.6,22.1-23.7,39.8-27,21.2-3.9,42.6-1.9,63.8,2.7l33.7,7.3c2.3.5,2.7,3.1,3.4,4.6Z"/>
          <g>
            <path class="st72" d="M640.2,516.9c26,5.4,50.5,18.5,74.4,29.4-.8,2.3,1,2.3,3.1,4.2,23.1,20.7,40.4,49.1,39.7,80.5-.5,22.4-5.1,43.5-8.3,66.2l-27.9,198.1c-3.8,26.7-6.9,51.5-12.6,77.5-2,9.2-7.4,16.5-8.3,24.7-7.7.8-15.3,1.4-23.1,1.2,9.6-26.2,16.6-53,22.5-81l14.6-69.4c.8-3.9-7.1-3.9-8.7-4.6-2-4.1-7.5-3.2-11.5-4.9s-6.8-.8-10.5-1.1c-13.3-.8-27-.6-40,4.9-22.3,9.5-29.1,85.9-33.7,100.1-1.5,4.7-1.2,10.2-2.3,14.9s-7.1,14.1-2.9,17-1.3,1.9-1,2.5c2.8,4.9,35.9,14.6,44.7,16.4,5.5,1.1,10.9,1.3,13.5,5.9-18.2,1.4-36.3,2.1-55.7,2.3l-129.4,1.3c-3.3-.7-8.5-.7-12.1-.5-.2-2.6-4.1-1.2-7.2-2.5l12.4-57.3c.5-2.4,3.3-5.9,1.6-9.1s-3.8-3-4.8-6.4c3.7-4.8,7.4-11.3,7.5-18.1s-5.3-4.1-7.2-5c-.8-.9-1.6-3.2-3.5-3.5s-6.3-3.3-8.6-1.8l-28.2-9.8,23.8-28.1c.7.9,1.8,1,2.8.9,8,4.2,15.3,9,25.8,12.3,11.9-18.4,22.6-36.2,31.1-56.2s-6.7-7.1-8.3-5.4c-.6-3.3-4.5-3-6.7-4.6s-3-1-3.7,0c-.7-1.3-2.5-1.5-2.7-3.1,5.3-7.3,9.8-17.2,4.8-25.7,6.2-1.8,11.7-4.8,15.5-11.1,12-19.8,24.3-39,33-61,.8-2-6.8-5.3-7.9-3.2-11.2,22.1-21.2,44-35.2,64.9l-45.8-19.8c-3,11.8,23,16.7,21.9,20.6-5.9,4-13.9,6.2-17,13.2-5.8,3.1-9,10.4-15.2,12.3-2.5-1.1-5.4-1.8-7.3,1.2s-2.6,5.1-2.4,7.9c-13.4,11.9-28,22.7-43.4,32.6-1.7-2.7-1.5-5-1-6.9,14.7-53.9,32-107.2,54.2-158.5l37.4-86.3c7.6-17.5,15.7-33.5,26.4-49.3,8.4-12.4,21.8-20.7,36.8-21.3,31.8-1.3,65.1-4,96.3,2.5Z"/>
            <g>
              <g>
                <path class="st43" d="M690.7,608.4l-91.1,56-65.8-16.9c-.3-1.7,1.5-2.8,3.2-3.9l96.3-57.1c19.5,6.2,38.9,13.1,57.4,21.9Z"/>
                <path class="st2" d="M730.9,627.9c-8.4,23.4-18.3,46.3-25.4,70.2-25-5.9-49.2-15.9-73.9-23.4l43.2-28.6,39.2-26.5c6.1.6,12.2,5.1,16.9,8.3Z"/>
                <path class="st51" d="M609.8,579.9c-2.4,1.9-5.8,1.2-8.4,2.8l-89.1,53.5c-2.8,1.7-5.2,2.8-5.1,5.3-1.3-.9-6.4-.1-6.1-3.1,2.6-23.3,13.8-43,24.4-62.4,13.2-16.7,66.1-1.3,84.4,4Z"/>
                <path class="st32" d="M732.3,665.2c3-10.3,8.1-20.5,9.3-32.5-.6-3.5-8.1-4.7-10.7-4.8-4.7-3.3-10.7-7.7-16.9-8.3-.7-2.9-5-2.3-6.6-3.5-4.9-3.6-11.2-4.9-16.8-7.6-18.5-8.8-37.9-15.7-57.4-21.9-6.7-2.1-13.3-4.7-20.3-5.7s-2.1-.7-3.2-1c-18.3-5.3-71.2-20.7-84.4-4-3.7.5-3.7-2.1.3-1.7,3.8-1.7-.7-6.2-.3-8.5,18.6-31,138.5,15.1,161.5,27.7l59.6,32.6c2.7,1.5,4.1,4.3,4.6,6.4-.4-1.3-14.7,38.4-18.8,33Z"/>
                <path class="st14" d="M707.4,616l-84.2,55.8c-6.2-.6-17.3-5.7-23.7-7.4l91.1-56c5.6,2.6,11.8,3.9,16.8,7.6Z"/>
                <path class="st67" d="M633.3,586.5l-96.3,57.1c-1.8,1-3.5,2.1-3.2,3.9-7-1.8-14.4-2.1-21.2-4.9,1.5-2.7,4.6-3.3,7.6-5.1l87.5-51.8c2.4-1.4,4.6-3,5.3-5,7,1,13.6,3.6,20.3,5.7Z"/>
                <g>
                  <path class="st103" d="M494.8,751.4l-39.5-13.2,20-45.5,51.2,6.3c-9.6,18.2-19.2,35.2-31.8,52.4Z"/>
                  <path class="st24" d="M493.7,779.1c-3.8-6.4-11.9-7.9-18.4-9.6,1.1-3.9-24.9-8.8-21.9-20.6l45.8,19.8c14-20.9,24-42.8,35.2-64.9s8.6,1.2,7.9,3.2c-8.7,21.9-21,41.2-33,61s-9.3,9.4-15.5,11.1Z"/>
                </g>
                <g>
                  <path class="st87" d="M612.9,728.7c-7.1,12.9-19.1,37-29.9,48-12.1-6.7-23.3-13.3-33.5-20.8,5.8-5.9,17.3-32,24.7-32.4,13.9-.7,26.5,2.9,38.7,5.1Z"/>
                  <path class="st83" d="M545.3,762.9c10.1,11.4,22.2,20.7,34.4,30.7,1.5,1.2,5.2,1.5,6.5-.9l33.2-62.1c2.9,1.3,5.5,1.4,6.6,3.3,3.2,5.4-32.2,60.8-38.3,71.5-15.2-2.6-45.2-28.3-42.4-42.5Z"/>
                  <path class="st61" d="M619.4,730.6l-33.2,62.1c-1.3,2.4-5,2.1-6.5.9-12.3-10-24.4-19.4-34.4-30.7.7-3.4,1.7-5.1,4.1-6.9,10.2,7.5,21.4,14.1,33.5,20.8,10.8-11,22.8-35.2,29.9-48,3.1.6,4.5,1,6.6,1.9Z"/>
                </g>
                <path class="st100" d="M732.3,665.2c-2.4,8.2-13.8,36-26.9,32.9,7.1-23.9,17-46.8,25.4-70.2,2.6.1,10.2,1.3,10.7,4.8-1.2,12-6.2,22.2-9.3,32.5Z"/>
                <g>
                  <path class="st9" d="M702.3,746l-20.5,52.3c-4.9.3-40.8-5.6-40.4-8.9l7.7-43.3c18.1-1.1,35.7-1.4,53.1,0Z"/>
                  <path class="st107" d="M712.2,747.3c-7,19.4-13.4,39-21.9,58.5s-3.5,8.1-6.5,9.4l-37.2-10.7c-2.6-2.3-7.7-1.9-7.5-6.5s-.2-6.9,2.4-8.6c-.4,3.2,35.4,9.2,40.4,8.9l20.5-52.3c3.8.3,7.5-.2,9.9,1.3Z"/>
                  <path class="st7" d="M646.6,804.5l37.2,10.7c3-1.3,5.3-6.8,6.5-9.4,8.4-19.4,14.8-39.1,21.9-58.5,1.7,1.1,8.7,1.7,7.8,5.3-2.3,8.8-23.2,74-32.9,70.7-14.8-5-29.7-9.2-40.4-18.8Z"/>
                </g>
                <path class="st47" d="M707.4,616c1.6,1.2,5.9.6,6.6,3.5l-39.2,26.5-43.2,28.6c-2.4-.7-6.1-2.6-8.3-2.8l84.2-55.8Z"/>
                <path class="st89" d="M613,580.8c-.7,2-2.9,3.6-5.3,5l-87.5,51.8c-3,1.8-6.2,2.4-7.6,5.1-1.4-.6-4.1-.4-5.3-1.3,0-2.5,2.3-3.6,5.1-5.3l89.1-53.5c2.6-1.6,5.9-.9,8.4-2.8,1,.3,2,.8,3.2,1Z"/>
                <g>
                  <path class="st94" d="M577.8,824.7c-4.6,17-13.3,32.6-21.9,49.4-9.6-1.5-25.3-6.4-33.5-8.3s-4.1-1-3.5-2.4c4.4,4.7,11.2-27.1,19.6-34,4-1,38.3-.7,36.2-4.5.8,0,2.3-.2,3.1,0Z"/>
                  <path class="st53" d="M586.7,829.5c-6.5,19.2-13.9,38.2-22.5,57.1-1.5,3.3-4.1,4.2-7.1,3-13.5-5.6-26.4-11.5-39.8-16,.3-4.1,4-4.3,5.1-7.8,8.3,2,23.9,6.8,33.5,8.3,8.6-16.8,17.2-32.4,21.9-49.4,3.5.3,8.2,1,8.9,4.7Z"/>
                  <path class="st109" d="M517.3,873.6c13.4,4.5,26.3,10.4,39.8,16s5.6.3,7.1-3c8.6-18.9,16-37.9,22.5-57.1,1.3-2.3,9.7-.2,8.4,3.8-6.8,21.8-16.4,41.7-25.9,62.3-1.7,3.7-4.6,5.3-8.3,4-9.5-3.3-48.3-15.8-43.6-25.9Z"/>
                  <path class="st81" d="M574.7,824.8c2.1,3.8-32.2,3.4-36.2,4.5-8.3,6.9-15.2,38.8-19.6,34,5.5-12.7,8.8-26.1,13.1-40.9,14.9-.5,29,.3,42.7,2.4Z"/>
                </g>
              </g>
              <g>
                <path class="st3" d="M683.7,837.8c-.3,2.1-2.5,2.5-4.6,2.9l-22.7,3.8c-7.7,1.3-15,5.7-18.5,13.5-11.5,25.9-18,52.8-24.1,80.1s-1,2.7-.8,3.5-1.9,1.9-3,1.2c4.6-14.2,11.4-90.6,33.7-100.1,13-5.6,26.7-5.8,40-4.9Z"/>
                <path class="st102" d="M466.7,927.3c-1.6.7-1.8-1.9-3.3-1.5s-2.3-1.7-3.6-1.7l7.3-19.8c1.8.9,7.2,1.8,7.2,5-.2,6.7-3.8,13.3-7.5,18.1Z"/>
                <path class="st69" d="M443.2,795c-1.1,4.6-6.5,6.3-9.7,9.1-.3-2.8,1.1-5.9,2.4-7.9,1.9-3,4.8-2.3,7.3-1.2Z"/>
                <g>
                  <path class="st79" d="M488.7,959.4l47.5,11.9,20.3-48c2.1-1.2,8.1.9,6.9,4-6.9,19-14.2,36.6-23.5,54.6-10.9-4.2-58.1-10.1-51.2-22.6Z"/>
                  <path class="st85" d="M556.4,923.3l-20.3,48-47.5-11.9c1.5-2.6.8-5.8,3.4-6.7,1.2.4,2.4.4,3.6.5,11.3,1.5,22.6,3.3,34.9,3.9,7.2-10.8,12.9-22.4,16.5-34.3l1.7-2.2c3,.8,7.4-1.8,7.7,2.6Z"/>
                  <path class="st96" d="M548.7,920.7l-1.7,2.2-47.2.3c-.7,3.9-2.6,7.8-1.7,11.4,1.7,6.8-3,12.3-2.4,18.7-1.2-.2-2.4-.1-3.6-.5,2.3-12.1.8-24,1-37.4,19.9,1.2,38.3,1,55.6,5.4Z"/>
                  <path class="st59" d="M547.1,922.9c-3.6,11.9-9.2,23.6-16.5,34.3-12.3-.6-23.5-2.4-34.9-3.9-.6-6.4,4-11.9,2.4-18.7-.9-3.6,1-7.5,1.7-11.4l47.2-.3Z"/>
                </g>
              </g>
            </g>
          </g>
        </g>
      </g>
    </g>
  </g>
  <path class="st65" d="M1213.4,584.5c-4.1,5.7-20.1,31.4-25,36.6-5.8-1-11.8-5.9-14-5.7,1.3,5.2,14.9,15.9,19.4,18.9,1.7-3.7,15.3-43.1,19.5-49.8Z"/>
  <path class="st65" d="M1240.5,669.2c-4.1,5.7-20.1,31.4-25,36.6-5.8-1-11.8-5.9-14-5.7,1.3,5.2,14.9,15.9,19.4,18.9,1.7-3.7,15.3-43.1,19.5-49.8Z"/>
  <path class="st65" d="M1106.7,559.6c109.9,7,219.5-11.8,329.2-22.1,24.1-2.3,48.8-4,72,3.2,20.4,172.1,64.3,341.7,66,515.2-91.8,9.4-183.6,18.7-275.5,28.1-26.3,2.7-90.2,16.5-108.9-11s-5.2-62.9-10.3-85.5c-20.6-91.1-27.8-184.6-41.2-277-2.2-15.2-19.3-150.1-31.4-150.8Z"/>
  <path class="st65" d="M1195.4,740.7c15.6-10.7,35.9-14.4,54.3-10-1.9-17.5-3.9-34.9-6-52.4-.5-3.8-47.2,1.9-51.8,9.9s2,40.7,3.6,52.5Z"/>
  <path class="st65" d="M1166.1,601.9c-.9,15.3.2,30.7,3.4,45.7,14.9-6.2,31.1-9.3,47.3-8.8.3-13.5-.3-27-1.9-40.3-15.7,3.5-31.5,6.4-47.4,8.8,2.9-.1,5.8-.2,8.7-.3"/>
  <path class="st65" d="M1202.4,836c17.4-8.9,37-13.2,56.5-12.3-2.7-17.5-6.4-34.8-10.9-52-.1-.5-44.3,9.2-48.1,14.4-8.1,11-.4,38.2,2.4,49.8Z"/>
  <path class="st65" d="M1279.2,917.6c1.4,0-9.8-54.1-12-59.2-14.1,7.2-43.9,4.3-51.5,19.1s3.2,42,6,54c18.9-7.6,36.7-14.2,57.5-13.9Z"/>
  <path class="st65" d="M1288.1,1006.7c0-5-.2-10.1-.6-15.1-1.1-14.9-4-29.7-8.6-43.9-1.1-3.3-30.5,18.8-33.2,22-6.8,7.9-15.2,20.6-16,31.4-2.5,31.1,38.7,5.4,58.4,5.6Z"/>
  <path class="st65" d="M1289.7,717.1l-7.8-.3c68.3-22.9,140.9-32.8,212.8-29.1-3.3.8-6.7,1.7-10,2.5"/>
  <path class="st65" d="M1299.9,803.5l-6.6,3c53.5-11.4,107.7-19.4,162.3-23.9-2.8.2-5.5.4-8.3.6"/>
  <path class="st65" d="M1308.2,883.4c-1.9-.8-4.4.6-4.8,2.6,58.7-13.9,119.3-20,179.6-18.2-2.3-1.1-4.7-2.1-7-3.2"/>
  <path class="st65" d="M1335.3,984.9c-2.1-.8-4.8.5-5.5,2.7,42.5-11.9,85.9-20.4,129.7-25.3,1.1-.1,2.4-.4,2.7-1.5s-2-1.5-1.7-.4"/>
  <path class="st65" d="M1264.3,610.4l-8.4,1c27.6-8.4,56.5-12.5,85.4-12.3,37.6.3,75.4,8.1,112.6,2.3-1.9-2.5-5.8-3.3-8.5-1.7"/>
  <g>
    <path class="st65" d="M502.6,544.1c5.3-10.5,11-21.2,20.4-28.3,9-6.9,20.5-9.6,31.7-11,56.8-6.8,112.2,17.7,163.4,43.1,24,11.9,50.2,26.9,57.3,52.7,3.4,12.4,1.7,25.5,0,38.2-14.9,112.8-29.8,225.7-44.7,338.5-1.9,14.7-4.4,30.6-15,41-8.7,8.5-21.1,11.7-33,14-50.7,9.8-103.3,9.7-154.1,0-44-8.4-106.1-22.6-134.9-59.7-25.1-32.2-26.3-62.5-16.1-100.1,14.1-51.9,30.1-103.4,48.8-153.9,22-59.6,47.5-118,76.3-174.6Z"/>
    <path class="st65" d="M743.2,636.7c-5.9,18.9-11.8,37.8-17.7,56.7-33.7,8.1-67.9-7.3-100.5-19.2-39.8-14.6-81.5-24.1-123.7-28.5-3.1-.3,20.2-63.1,26.2-68.3,15.3-13.4,44.7-5.1,63.3-1.5,54,10.6,103.8,36,152.4,60.8Z"/>
    <path class="st65" d="M524.5,708.9c1.3,4.3,0,8.8-1.4,13.1-5.3,16.8-10.7,33.7-16,50.5-15-5.6-30.1-11.1-45.1-16.7-2.6-1-5.4-2.1-6.8-4.5-1-1.8-1-4-.8-6.1,1.2-15.6,10.9-37.9,26-45.2,11-5.3,39.9-5.3,44.1,9Z"/>
    <path class="st65" d="M575.9,728.5c12.5.5,24.9,4.2,35.7,10.6-12,14.6-14.2,34.6-22.3,51.6-.8,1.7-2.1,3.7-4,3.7-1.2,0-2.2-.6-3.2-1.3-11.8-8.2-23.7-16.3-35.5-24.5,8.1-16.2,16.5-32.3,25.4-48.1"/>
    <path class="st65" d="M656,747.5c1-.5-.2-2.2-1.3-1.9s-1.5,1.7-1.8,2.8c-3.6,15.1-7.3,30.2-10.9,45.2-.6,2.5-1.1,5.4.4,7.5,1.1,1.5,3.1,2.1,4.9,2.6,10.2,2.8,20.7,4.4,31.3,4.8,2.5,0,5.2,0,7.4-1.1,2.4-1.3,4-3.7,5.5-6,9.8-16,17.8-33.1,23.8-50.8-22.7-4.1-45.9-5.6-69-4.3,4.1.2,8.2.4,12.3.5"/>
    <path class="st65" d="M603.6,975.2c22.8,6.8,45.6,13.5,68.5,20.1,13.2-44.1,26.4-88.9,26.8-134.8.2-28.2-58-23.7-66.9,1.2s-25.5,114.4-28.3,113.5Z"/>
    <path class="st65" d="M565.5,899c-11.7-8.1-24.6-14.2-38.2-18.2-13.8-4-3.4-41.9,6.2-49s35.6-3,47.6,2.2c-10.6,20.5-5.7,44.5-15.6,65Z"/>
    <path class="st65" d="M450.4,811.9l-2.8-6c-6.1,14.6-12.2,29.3-18.3,43.9,17,4.8,33.9,9.6,50.9,14.5,7.2-17.5,14.3-35,21.5-52.4-19.2.6-38.4-1.5-57.1-6,4.4,1.3,8.9,2.6,13.3,3.9"/>
    <path class="st65" d="M412.8,901.9l.6-1.1c-2.8,12.1-5.5,24.1-8.3,36.2,13.9,6.1,28.9,9.5,44,9.9,2.1,0,4.3,0,5.9-1.3,1.4-1.1,2-2.9,2.5-4.6,4-13.3,6.4-27,6.9-40.9-15.7-1.9-31.5-3.8-47.2-5.8,4.3-.3,8.5-1.5,12.3-3.7"/>
    <path class="st65" d="M497.2,919.5c-2.6,14.7-5.2,29.4-7.8,44.1,16.5,6.7,34.5,9.9,52.3,9.3,3-17.5,6-35.1,9-52.6-20.2,1.4-40.4.9-60.5-1.3,5.4,1.5,11.6-.9,14.6-5.6"/>
  </g>
  <g>
    <path class="st65" d="M950.8,1004.5c-8.3-5.1-11.3-15.5-13.7-24.9-22-88.4-39.2-177.9-51.3-268.2,11.8-10.2,27-16.6,42.6-17.8,20.6,102.1,41.2,204.2,61.9,306.3"/>
    <path class="st65" d="M1038,973.7c-20.9-81.3-32.6-164-34.8-246.7,25.4-5.9,50.8-11.9,76.1-17.8,16.7,91,33.4,182.1,50.1,273.1,19-2.5,37.6-1.6,56.6.7-1.6,0-3.2.1-4.8.2"/>
    <path class="st65" d="M824.8,620.4c3,8.9,7.5,17.7,14.6,24.5,14,13.3,36,17,56.3,16.2,19.6-.8,40.2-5.8,53.6-18.8,11-10.8,15.7-25.6,18.4-40,9.5-51.1-18.9-104.5-84.9-96.1-53.7,6.9-71.5,74.4-58,114.2Z"/>
    <path class="st65" d="M964.7,495.7c-12.3,15.8-59.8,86.9-74.1,101.2-16.4-3.5-32.9-17.7-39-17.5,3.1,14.9,40.6,46.3,53.1,55.3,5.3-10.3,47.3-120.5,60-139Z"/>
    <path class="st65" d="M884.4,993.3c-12.5-75.1-29-149.6-49.4-222.9-28.5,8.1-58.6,10.8-88.1,7.7,8.6,56.3,20.9,112,36.8,166.7,7.7,26.7,16.3,55.7,5.9,81.5"/>
  </g>
  <g>
    <path class="st65" d="M1635.2,1054.2c-7.4-.9-13.2-5.7-18.3-10.5-42.1-38.9-71.9-87.6-101.3-135.7-1.7-2.8-3.4-6-2.3-9.2,2.1-5.6,10.6-5.6,16.6-4.1,27.1,7,51,22.5,67,43.5,7.8,10.2,14.9,22.5,28.1,26.2,2.7-23.7-1.7-47.7-12.5-68.6-4.2-8.1-10-16.2-19.3-19-8.3-2.5-17.6-.2-26.5,1-35.8,4.8-72.7-10.8-90.8-38.6,7.3-10.6,22.8-12.3,36.1-13.7,18.5-1.8,36.9-5.2,55-10.1,13.5-3.7,27.1-8.2,41-8.8,13.9-.6,28.7,3.6,36,14.2-8.1-11-25.5-11.5-40.2-9.4s-30.6,5.6-43.4-.5c27.1-30.9,81.1-37.4,112.5-13.5-13-6.1-23.7-16-30.3-28,24.7,1.6,48.3,11.2,65.7,26.7-4.1-4.7-4.7-11.8-1.5-17.4,26.2.8,47.1,20.4,55.9,42.8,8.8,22.4,8,47.4,7.2,71.7-.8,24.3,3.7,84.9,12.9,107.1,62.7,3.1,154.1,1.8,216.7,4.9"/>
    <path class="st65" d="M1718.8,967.9c17.1,6.1,34.2,12.2,51.9,16.1,12.4,2.8,26,4.3,37.3-1.7,11.3-6,18-22.1,10.4-32.5-129.1-32.8-254.8-78.2-382.2-117.1-12.5-3.8-89-9.3-89-9.3,0,0,35,24.6,42.2,27.4,68.5,26.6,138.7,49.4,208,74s81,28.8,121.4,43.1Z"/>
    <path class="st65" d="M1367.1,838.6c3.3-4.2,6.6-8.3,9.9-12.5"/>
  </g>
  <path class="st65" d="M.5,1005.1c145.4,1,752.8,6.7,827.9-22.7"/>
  <path class="st65" d="M337.6,1045.5c37.8-15.9,156.5-109.1,132.1-116.9-39.4-12.6-75.6,45.8-100.8,25.3,2.5-26.7,35.3-54.6,52.2-72.7,24.1-25.8,55.2-50.4,72-81.8,2.3-4.4,4.4-9.3,3.4-14.1-1.7-7.6-10.8-11.6-18.5-10.3s-14.1,6.4-20.2,11.3c-43.2,34.8-86.5,69.7-129.7,104.5,18.2-15.5,46.7-36.1,56.8-58.5.7-1.5,1.2-3,1.1-4.6-.3-3.2-3.3-5.4-6.3-6.6-23.2-9-57.4,21.3-81.2,24.1,11.7-4.6,33.8-11.6,40.3-23.6,1.7-3.2,1.6-7.7-1.4-9.8-1.3-.9-2.9-1.3-4.5-1.6-20.3-3.5-40.2,3-59.9,7.3,7.6-.1,23.8-5.4,12.8-14.9-2.9-2.5-6.8-3.4-10.5-3.8-36.5-3.6-75.7,27.3-94.8,55.8-16.2,24.2-25.7,52.3-31.7,80.7"/>
  <path class="st65" d="M1597.6,560.5c2.6,15.6-12.9,31.4-28.6,29,8.3-3.9,18.8-2.8,26.2,2.8s11.2,15.4,9.6,24.5c-3.2-9.2-3.4-19.5-.5-28.9,3.6.6,7.2,1.3,10.9,1.9-13.3-1.7-22.1-18.5-15.9-30.4"/>
  <path class="st65" d="M1674.4,626.2c.6,22.4-4,49-24.2,58.6,6.3-2.2,13.8.1,17.8,5.5s4,13.2.2,18.6c-1.3-7.9-2.6-16.3.2-23.9,2.8-7.5,11.2-13.7,18.8-11-8,.1-14.4-7.4-15.8-15.2s.9-15.8,3.1-23.5"/>
  <path class="st65" d="M352.1,561.1c-2.3,10.4-10.7,20.3-21.4,20.5,9.7-2.5,20.8,1.7,26.5,10.1s5.3,20.2-.7,28.3c3.3-4.4,3.1-10.5,2.3-15.9s-2.1-11.1-.5-16.4c1.7-5.3,7.7-9.6,12.7-7.1-14.6-7.2-22.2-27.1-20.1-42.3,2.4,6.9,2.9,15.3,1.3,22.8Z"/>
  <path class="st65" d="M278.1,669.1c4.5,17.3-9.8,36.9-27.6,37.9,8-4.4,18.8-2.7,25,3.9,6.2,6.6,7.2,17.6,2.3,25.2.9-8.2,1.9-16.3,2.8-24.5.4-4,1.1-8.3,3.9-11s8.7-2.5,9.9,1.3c-7.9,1.5-16.4-2.9-19.9-10.1s-1.4-16.6,4.7-21.8"/>
  <path class="st65" d="M1044,508.7c6.9,8.7-1.8,24-12.8,22.6,13.2,2.7,22.6,17.4,19.6,30.5-1-5.5-2.1-11.3-.4-16.7s6.9-10.1,12.5-9.1c-13.1-7.2-19.9-24.1-15.6-38.4"/>
  <path class="st65" d="M1110.4,472.3c3.3,11-1.1,23.8-10.5,30.4,5.2-2.2,11.4,1.4,14,6.4,2.6,5,2.6,10.9,2.5,16.5-3.3-10.3,4.2-22.7,14.9-24.4-5.7,4.2-14.5-.5-17-7.1s-.9-14.1.9-21"/>
</svg>