<?xml version="1.0" encoding="UTF-8"?>
<svg id="Ebene_1" xmlns="http://www.w3.org/2000/svg" version="1.1" viewBox="0 0 1468.8 1099.5">
  <!-- Generator: Adobe Illustrator 30.2.1, SVG Export Plug-In . SVG Version: 2.1.1 Build 1)  -->
  <defs>
    <style>
      .st0 {
        fill: #e8e8e8;
      }
    </style>
  </defs>
  <path class="st0" d="M617.9,375.6c-19.4-3.5-40.3-3.7-59.1,1.5-36.8,10.2-51.4,43.9-41.8,72.6,9.6,28.7,36.9,51.9,63.2,73.8-152.4-30.2-324.8,6.4-434.1,92.3-31.5,24.7-59.2,60.7-40,91.8,13.8,22.4,47.4,33.8,66.5,53.9,35.1,36.9,10.9,89.1-23.2,126.6-34,37.5-78.5,73.5-83.9,118.8-2,16.7,2.5,34.9,18.1,46.8,27.1,20.6,72.7,14,108.8,4.1,105-28.6,202.3-71.4,306.5-101.6s220.5-47.5,327.1-22.6c44.7,10.4,85.9,27.9,129.4,40.7,43.5,12.9,91.7,21.2,136.9,12.4,45.3-8.8,85.8-38.8,85.6-74.2-.2-49.4-69.8-79-110.1-117.9,99.3-13.7,206.6,14.1,300.4-14.1,34.4-10.3,67.9-32.4,67-60.5-.7-20.2-19.8-38-42.9-48.1s-49.9-14-76.2-17.7c-28.3-4-56.6-8-85-12-19.5-2.8-39.9-5.9-54.9-15.7-30.3-19.8-24.5-55.5-22.4-85.7,3.8-54.9-14-110.5-50.5-158-8.7-11.3-19.4-22.8-35.6-27.4-20.2-5.7-43.8,1.4-58.5,13.4-14.7,12-22.2,27.9-28.3,43.6-21.5,55.5-29.3,113.4-37.1,170.9-4.5-97.1-28.7-193.3-74.1-284.3-3-5.9-9.7-13.1-17.4-10.6-3.5,1.2-5.4,4.1-6.8,6.8-9.1,17.7-12.5,36.8-14.4,55.8-5.5,54.2.4,109,17.4,161.7-31.1-33.5-57.9-66.6-101.7-91.4s-82.5-37.5-129-45.9Z"/>
</svg>