<?xml version="1.0" encoding="UTF-8"?>
<svg id="Ebene_2" data-name="Ebene 2" xmlns="http://www.w3.org/2000/svg" xmlns:xlink="http://www.w3.org/1999/xlink" viewBox="0 0 394.13 286.46">
  <defs>
    <style>
      .cls-1 {
        fill: #495759;
      }

      .cls-2 {
        fill: #71a0a4;
      }

      .cls-3 {
        fill: #c46c3e;
      }

      .cls-4 {
        fill: none;
        stroke: #333;
        stroke-miterlimit: 10;
      }

      .cls-5 {
        fill: #d3701e;
      }

      .cls-6 {
        fill: #bdbdc0;
      }

      .cls-7 {
        fill: #7eb3b7;
      }

      .cls-8 {
        fill: #5d858a;
      }

      .cls-9 {
        fill: #41322f;
      }

      .cls-10 {
        fill: #6b240b;
      }

      .cls-11 {
        fill: #eb5d5b;
      }

      .cls-12 {
        fill: #fea817;
      }

      .cls-13 {
        fill: #f6825e;
      }

      .cls-14 {
        fill: url(#Unbenannter_Verlauf_325);
      }

      .cls-15 {
        fill: url(#Unbenannter_Verlauf_323);
      }

      .cls-16 {
        fill: url(#Unbenannter_Verlauf_326);
      }

      .cls-17 {
        fill: url(#Unbenannter_Verlauf_322);
      }

      .cls-18 {
        fill: #e89a58;
      }

      .cls-19 {
        fill: #a34719;
      }

      .cls-20 {
        fill: #853115;
      }

      .cls-21 {
        fill: #eaeded;
      }

      .cls-22 {
        fill: #b75c1d;
      }

      .cls-23 {
        fill: #b47d35;
      }

      .cls-24 {
        fill: #9d642f;
      }

      .cls-25 {
        fill: #d59c3e;
      }
    </style>
    <linearGradient id="Unbenannter_Verlauf_326" data-name="Unbenannter Verlauf 326" x1="62.45" y1="6744.78" x2="120.46" y2="6666.47" gradientTransform="translate(0 6898.67) scale(1 -1)" gradientUnits="userSpaceOnUse">
      <stop offset="0" stop-color="#fbcb20"/>
      <stop offset="1" stop-color="#e28f1e"/>
    </linearGradient>
    <linearGradient id="Unbenannter_Verlauf_325" data-name="Unbenannter Verlauf 325" x1="93.12" y1="6733.65" x2="138.4" y2="6694.84" gradientTransform="translate(0 6898.67) scale(1 -1)" gradientUnits="userSpaceOnUse">
      <stop offset="0" stop-color="#fed33c"/>
      <stop offset="1" stop-color="#ecb444"/>
    </linearGradient>
    <linearGradient id="Unbenannter_Verlauf_323" data-name="Unbenannter Verlauf 323" x1="256.68" y1="6815.45" x2="96.55" y2="6713.95" gradientTransform="translate(0 6898.67) scale(1 -1)" gradientUnits="userSpaceOnUse">
      <stop offset="0" stop-color="#fea75d"/>
      <stop offset=".43" stop-color="#fdb656"/>
      <stop offset="1" stop-color="#fed72f"/>
    </linearGradient>
    <linearGradient id="Unbenannter_Verlauf_322" data-name="Unbenannter Verlauf 322" x1="239.42" y1="6783.19" x2="209.47" y2="6761.58" gradientTransform="translate(0 6898.67) scale(1 -1)" gradientUnits="userSpaceOnUse">
      <stop offset="0" stop-color="#fd9d4e"/>
      <stop offset="1" stop-color="#fecb43"/>
    </linearGradient>
  </defs>
  <g id="versicherungen">
    <g id="Ebene_11" data-name="Ebene 11">
      <g id="Generatives_Objekt" data-name="Generatives Objekt">
        <path class="cls-21" d="M95.01,269.86l-1.77,1.11c1.14.01,2.52.56,3.56.67-14.18-.25-29.16-1.66-41.83,5.78,9.93-8.83,27.41-8.31,40.06-7.57h-.01Z"/>
        <path class="cls-21" d="M279.26,267.63l.44-.89c23.09.22,46.02.97,68.98,3.34-23.15-.98-46.25-2.15-69.43-2.45h0Z"/>
        <path class="cls-6" d="M135.96,276.53c1.53.21,2.21.57,4.01.89-.05.39.12.39.44.44.29.05.6-.01.89,0h.44c.29.03.6-.04.89,0-.05.4.12.39.44.44.27.05.6,0,.89,0,.01.25,1.25.86,1.33.89.72.23.43,0,.44,0,.55.21.85.43.89.44.03,0,.22.94.44,0l.44.44c-6.13-.2-12.13-2.15-18.48-2.23l-.44-1.77c.67,1.8-8.04,1.07-8.45.89-1.5-.63-1.12-1.33-1.11-2.67,5.6.76,11.31,1.44,16.91,2.23h.03Z"/>
        <path class="cls-21" d="M157.77,278.32c.56.46,1.2.9,1.77,1.33,1.29.98,3.6,3.38,4.89,4.01-4.4,1.85-9.67-1.11-13.79-3.12-.99-.48-2.81-.91-3.12-2.23,3.08.34,7.23,1.97,10.24,0h0Z"/>
        <path class="cls-21" d="M135.96,276.53c-5.6-.78-11.31-1.46-16.91-2.23-3.01-.4-5.78-1.3-8.9-1.33-.22-.76-1.58-.44-2.23-.44h-.44c-.22-.76-1.58-.44-2.23-.44-2.47-.03-6.03-.2-8.45-.44-1.04-.1-2.43-.65-3.56-.67l1.77-1.11c13.77.81,27.48,4.03,40.94,6.68h.01Z"/>
        <path class="cls-21" d="M269.03,266.3c-1.12,2.27,7.07,1.29,8.45,1.33-7.75.52-15.59,1.04-23.37,1.33-.55.03-2.37-1.41-3.78-1.33v-.44c6.24-.51,12.42-.85,18.7-.89h0Z"/>
        <path class="cls-21" d="M279.7,266.75l-.44.89c-.59,0-1.19.01-1.77,0-1.38-.04-9.58.94-8.45-1.33,3.58-.03,7.16.42,10.69.44h-.01Z"/>
        <path class="cls-21" d="M147.53,278.32c.31,1.3,2.11,1.74,3.12,2.23-1.17.17-1.94-.4-3.12-.44l-.44-.44h-.44s-.34-.23-.89-.44h-.44c-.08-.03-1.32-.64-1.33-.89,1.15.03,2.44-.13,3.56,0h-.01Z"/>
        <path class="cls-21" d="M354.26,270.75c1.54.12,3.18-.26,4.67.22,0,.23-4.36.63-4.67-.22Z"/>
        <path class="cls-21" d="M349.81,270.31c1.24.1,2.6-.26,3.78.22,0,.2-3.64.65-3.78-.22Z"/>
        <path class="cls-21" d="M107.47,272.53c-.65,0-2,.31-2.23-.44.64,0,2.01-.31,2.23.44Z"/>
        <path class="cls-21" d="M110.15,272.97c-.64,0-2,.31-2.23-.44.64,0,2-.31,2.23.44Z"/>
        <path class="cls-21" d="M140.41,277.88c-.33-.05-.5-.05-.44-.44.33.05.5.04.44.44Z"/>
        <path class="cls-21" d="M143.08,278.32c-.33-.05-.5-.04-.44-.44.34.04.5.05.44.44Z"/>
        <g>
          <path class="cls-12" d="M12.24,79.38v-.44c8.95-.91,17.81-.4,24.03-8.23,7.57-9.51,5.51-22.73,5.56-34.04,2.17,8.53,1.6,32.36,12.9,34.26,7.88,1.33,16.51-3.41,23.81-5.56-15.96,6.43-27.79,20.95-25.59,38.95-3.47-7.66-6.86-16.1-14.23-20.92-8.34-5.44-17.11-4.18-26.47-4.01h-.01Z"/>
          <path class="cls-12" d="M91.67,5.51c3.71,13.43,4.64,39.26,24.7,36.27-17.93,3.86-12.06,16.79-8.68,29.59-4.2-16.71-17.5-26.02-33.6-15.8,15.36-10.89,18.63-32.4,17.58-50.06Z"/>
          <path class="cls-21" d="M54.29,112.76c1.67-1,2.07,2.1,1.33,2.67-.63.48-2.14-2.19-1.33-2.67Z"/>
          <path class="cls-21" d="M10.01,79.38c-.69.1-2.1,1-3.12.22.91-.4,2.11-.22,3.12-.22Z"/>
          <path class="cls-21" d="M12.24,78.94v.44c-.74.01-1.49,0-2.23,0,.68-.1,1.41-.37,2.23-.44Z"/>
          <polygon class="cls-21" points="370.72 272.08 370.94 272.3 370.72 272.53 370.72 272.08"/>
          <path class="cls-21" d="M0,80.27h.44c.87-.07.87.52,0,.44l-.44-.44Z"/>
          <polygon class="cls-21" points="53.63 278.32 53.85 277.88 54.07 278.1 53.85 278.32 53.63 278.32"/>
          <path class="cls-21" d="M362.27,271.2h.44c.87-.07.87.52,0,.44l-.44-.44Z"/>
          <path class="cls-21" d="M4.01,79.83h.44c.87-.07.87.52,0,.44l-.44-.44Z"/>
          <path class="cls-21" d="M53.18,278.76l.44-.44-.44.44Z"/>
          <polygon class="cls-21" points="53.18 278.76 52.96 279.21 52.74 278.98 52.96 278.76 53.18 278.76"/>
          <polygon class="cls-21" points="54.96 277.43 54.73 277.88 54.51 277.65 54.73 277.43 54.96 277.43"/>
          <path class="cls-21" d="M52.96,106.53c.22,0,.3.39.22.67-.25,1.66-.8-.64-.22-.67Z"/>
        </g>
        <g>
          <path class="cls-11" d="M247.67,200.44c-7.11,4.16-14.16,8.45-21.36,12.46-3.52,1.96-7.14,3.86-10.69,5.78-.12.07-.33-.07-.44,0-.82-2.3-2.13-4.48-3.12-6.68-.13-.29.13-1.06,0-1.33,1.24-.12,1.55-.53,2.23-1.55,7.95-12.17,13.43-27.06,24.26-37.6l51.41-32.93c2.45,4.75,12.3,22.74,11.57,26.93-.01.1-.74,1.54-.89,1.77-2.15,3.65-45.93,29.04-52.96,33.15h-.01Z"/>
          <path class="cls-16" d="M84.34,158.15c-.21,27.8,18.04,45.76,32.05,66.75.44.67,3.11,4.81,3.12,5.11.03,1.14-3.26,7.01-3.12,8.9.14,1.81,3.9,6.72,4.89,8.68.63,1.25,1.15,2.75,1.77,4.01-.69,3.09-2.13,5.36-4.45,7.57-13.54-12.93-47.04-71.7-54.29-90.12-3.59-9.09-6-17.5.44-26.03l20.25,34.26-2.45-13.57v-13.35c1.28,1.42-.98,8.83,1.77,7.79h.01Z"/>
          <path class="cls-13" d="M286.38,130.57c1.16,1.49,2.53,6.03,3.56,8.01l-51.41,32.93c-10.83,10.54-16.31,25.43-24.26,37.6-.67,1.02-.98,1.44-2.23,1.55-2.86-6.09-8.75-15.62-13.35-20.47,2.47.55,6.65-2.19,9.12-3.56,9.59-5.3,26.2-14.23,34.26-20.92,4.75-3.93,9.72-10.75,14.69-15.14,3.22-2.84,25.05-21.7,27.15-21.8.6-.03,2.23,1.5,2.45,1.77h0Z"/>
          <path class="cls-22" d="M129.29,247.16c.47.84.8,1.79,1.33,2.67-4.08,1.19-2.48,6.18-3.56,9.34-1.71.68-4.25,2.91-6.24,2.23,1.03-.98,3.11-.76,4.01-2,.12-.16,1.34-3.37,1.33-3.56-.01-.26-2.81-3.61-3.12-4.23-.63-1.25-1.15-2.75-1.77-4.01l5.34-4.45c.48.94,2.02,2.86,2.67,4.01h.01Z"/>
          <path class="cls-19" d="M130.62,249.84c.47.76,1.04,1.33,1.33,1.77.94,1.45,1.42,2.82,2.67,4.45.07.09-.08.35,0,.44-2.45.97-5.13,1.7-7.57,2.67,1.07-3.16-.52-8.15,3.56-9.34Z"/>
          <path class="cls-5" d="M120.83,261.41c-1.03-.35-1.51-1.55-2.23-2.23,2.32-2.21,3.76-4.48,4.45-7.57.31.61,3.11,3.97,3.12,4.23,0,.2-1.23,3.41-1.33,3.56-.9,1.24-2.97,1.02-4.01,2h0Z"/>
          <path class="cls-14" d="M158.22,180.85c1.04,2.45,1.72,5.09,2.67,7.57l-10.69,5.34c-1.55-1.34-6.3-5.48-7.79-6.24-.34-.17-2.28-1.25-2.45-.22l5.78,17.13c-2.39-3.35-2.52-.87-4.23-.44-4.06,1.03-6.97,1.88-10.46,4.45-6.01-5.53-12.1-11-18.92-15.58-.27,9.37,3.46,18.18,5.11,27.15.27,1.49,1.6,6.01-.89,4.89-14-21.01-32.25-38.96-32.05-66.75,0-.46.48-4.93,1.11-4.89,2.23,5.06,5.47,9.82,9.79,13.35,8.68,7.06,47.96,14.85,59.64,15.14,2.62.07,2.34-.59,3.34-.89h.03Z"/>
          <g>
            <path class="cls-15" d="M286.38,130.57c-.22-.29-1.85-1.81-2.45-1.77-2.1.1-23.92,18.96-27.15,21.8-4.96,4.38-9.94,11.21-14.69,15.14-8.08,6.68-24.67,15.62-34.26,20.92-2.47,1.36-6.67,4.11-9.12,3.56-.84-.87-7.28-6.71-7.79-6.68-1.16.07-.52,1.3-.67,1.33-5.08,1.28-13.31-2.23-18.7-2l1.11,1.11-3.78.44c-1.93-1.38-8.32-5.27-10.46-4.45-.39.16-.17.87-.22.89-1,.3-.72.95-3.34.89-11.66-.29-50.96-8.08-59.64-15.14-4.33-3.52-7.57-8.29-9.79-13.35-.64-.03-1.11,4.44-1.11,4.89-2.75,1.04-.51-6.37-1.77-7.79v13.35l2.45,13.57-20.25-34.26c6.46-8.55,33.77-26.54,43.84-33.82,27.18-19.65,55.36-37.98,83-56.97l.44-.44c.26-.16.63-.29.89-.44.51-.3.42-.43.44-.44.07-.05.52.07.44-.44.74-.44,1.49-.87,2.23-1.33.5-.31.42-.43.44-.44.37-.26.74-.46,1.33-.89.25-.18.87-.56,1.33-.89,1.12-.64,1.19-.94,1.77-1.33,1.38-.94,2.6-1.64,4.01-2.67,5.52-3.64,11.46-6.75,16.47-11.13.12-.07.33.07.44,0,.55-.3.42-.43.44-.44.55-.3.42-.43.44-.44.26-.14.6-.29.89-.44.57-.29.42-.43.44-.44.27-.1.91.25.89-.44.86-.44,2.74-2.01,3.56-1.55,20.86,33.26,40.23,67.47,57.85,102.58h.04Z"/>
            <g>
              <path class="cls-21" d="M221.41,31.76c-5.01,4.38-10.95,7.49-16.47,11.13,5.57-4.07,10.37-7.65,16.47-11.13Z"/>
              <path class="cls-21" d="M204.94,42.89c-1.4,1.03-2.62,1.74-4.01,2.67,1.34-.9,2.65-1.77,4.01-2.67Z"/>
              <path class="cls-21" d="M200.93,45.56c-.59.4-.65.69-1.77,1.33.59-.42.98-.8,1.77-1.33Z"/>
              <path class="cls-21" d="M197.82,47.78c-.59.44-.97.63-1.33.89.87-.95.7-.53,1.33-.89Z"/>
              <path class="cls-21" d="M199.16,46.89c-.46.33-1.1.7-1.33.89.23-.13.69-.52,1.33-.89Z"/>
              <path class="cls-21" d="M223.64,30.43s-.13-.16.44-.44c-.03,0,.13.16-.44.44Z"/>
              <path class="cls-21" d="M196.04,49.12c-.08-.51.42-.42.44-.44-.03.01.05.14-.44.44Z"/>
              <path class="cls-21" d="M223.64,30.43c-.3.16-.63.3-.89.44.47-.29.57-.29.89-.44Z"/>
              <path class="cls-21" d="M224.97,29.54c.03.69-.61.34-.89.44.29-.14.6-.3.89-.44Z"/>
              <path class="cls-21" d="M222.29,31.31s-.04-.14.44-.44c-.03.01.1.14-.44.44Z"/>
              <path class="cls-21" d="M221.85,31.76c-.08-.51.42-.42.44-.44-.03.01.1.14-.44.44Z"/>
              <path class="cls-21" d="M191.59,52.23c-.08-.51.33-.38.44-.44l-.44.44Z"/>
              <path class="cls-21" d="M193.37,50.9s-.05-.14.44-.44c.08.51-.38.39-.44.44Z"/>
              <path class="cls-21" d="M192.92,51.34c-.08-.51.42-.42.44-.44-.03.01.07.14-.44.44Z"/>
              <path class="cls-17" d="M237.87,104.3c2.95,3.08,12.55,15.94,14.23,19.58l-38.95,26.71c-.94.09-.98-.09-1.55-.67-3.47-3.43-7.71-19.04-11.57-23.59,9.94-5.73,19.83-11.53,29.59-17.58,1.17-.73,2.79-2.07,4.45-3.12.5-.31,3.08-1.6,3.78-1.33h.01Z"/>
              <path class="cls-18" d="M237.87,104.3c-.7-.26-3.29,1.03-3.78,1.33-1.67,1.04-3.27,2.39-4.45,3.12-9.76,6.04-19.65,11.85-29.59,17.58,3.86,4.55,8.1,20.16,11.57,23.59.57.57.63.76,1.55.67l38.95-26.71c.42.89,1.9,2.67,1.77,3.78-.95,3-5.41,3.17-6.9,4.23-4.81,3.43-9.09,7.31-14.23,10.69-5.04,3.3-11.77,7.95-16.02,10.24-.46.25-.85-.47-.89-.44-.73.37-2.47,3.08-2.67,3.12s-2.69-2.32-3.78-.67c-.05-4.11-4.25-8.83-6.24-12.9-.17-.35.17-1.41,0-1.77-2.19-4.66-10.26-14.82-3.34-18.48,1.08-.57,1.51.73,2.67,0,3.11-1.96,5.91-3.54,8.9-5.34,2.02-1.21,5.61-4.36,8.01-5.78,3.12-1.84,7.87-3.82,11.13-5.78,2.53-1.53,2.06-5.96,7.35-.44v-.03Z"/>
            </g>
          </g>
          <path class="cls-18" d="M190.26,184.86c.6,5.86,1.79,11.64,3.12,17.35l-2.67.22c2.97-.95.12-5.61-.22-8.23-1.02,1.92-8.23.38-8.23,2.9,1.1.59.68,1.38.89,2-4.76-4.61-8.81-10.79-14.23-14.69l3.78-.44-1.11-1.11c5.39-.23,13.61,3.27,18.7,2h-.01Z"/>
          <path class="cls-5" d="M126.61,243.16l-5.34,4.45c-.99-1.96-4.75-6.86-4.89-8.68-.16-1.89,3.14-7.76,3.12-8.9,0-.3-2.67-4.45-3.12-5.11,2.49,1.12,1.16-3.42.89-4.89,3.04,7.67,5.61,15.77,9.34,23.15h0Z"/>
          <path class="cls-25" d="M145.76,204.44c.86,1.2,1.89,5.41,2.67,7.12l-8.45,5.34c-2.86-2.88-5.91-5.7-8.9-8.45,3.48-2.57,6.41-3.42,10.46-4.45,1.71-.43,1.84-2.91,4.23.44h-.01Z"/>
          <path class="cls-25" d="M160.88,188.42c.85,2.22,1.8,4.45,2.67,6.68-2.41.91-5.05,3.39-6.24,5.78-2.28-2.4-4.62-4.95-7.12-7.12l10.69-5.34h0Z"/>
          <path class="cls-3" d="M193.37,202.21c.38,1.64.91,3.26,1.33,4.89-2.23-.14-2.39,3.26-4.45,2.23-1.98-3.09-5.94-6.85-7.12-10.24-.22-.61.21-1.42-.89-2,0-2.51,7.22-.98,8.23-2.9.34,2.62,3.2,7.28.22,8.23l2.67-.22Z"/>
          <path class="cls-23" d="M163.55,195.09c.87,2.22,1.77,4.46,2.67,6.68l-5.34,3.12c-1.16-1.33-2.35-2.73-3.56-4.01,1.17-2.39,3.81-4.87,6.24-5.78h-.01Z"/>
          <g>
            <path class="cls-7" d="M248.11,210.67c.72,13.8,1.27,27.57,1.77,41.39-1.27,2.14.59,13.11-1.55,13.79-3.72.25-6.11-1.49-8.9-2.23-.5-.13-3.46.42-4.45,0-.18-.08-1.02-2.07-3.12-2.67-1.02-.29-4.5.43-6-.44-.35-1.1-7.16-6.85-7.79-6.68-2.34.63,2.95,4.29,2.9,4.67-.4,2.82-13.3,1.5-14.69,4.89,5.15,2.27-2.22,5.19-5.11,4.67-.69-.12-3.51-2.74-6.24-2.67-.67.01-7.74,2.13-7.79,3.56-5.85-5.02-16.27-14.44-20.03-20.92-.55-.95-2.58-3.58-2-4.45l15.58-7.57,2.67,4.45c.33-1.83-2.53-3.91-.89-5.34l17.58-8.45c.95,1.77,1.77,3.55,2.67,5.34,1.11,2.22,1.93,4.62,3.34,6.68.21-2.65-1.96-4.51-2.9-6.68-.74-1.72-1.54-3.6-2.23-5.34,4.63-2.81,9.47-5.44,14.23-8.01.12-.07.33.07.44,0,2.24,6.89,6.37,13.07,11.35,18.24.89-.68-.2-7.88-.22-9.34,2.02-1.29.31-5.62.89-7.35.22-.65,3.42-2.07,3.56-2.23.85-.95.95-3.05,2-3.78s10.41-4.08,12.02-4.45c1.41-.33.69-3.21,2.9.89v.04Z"/>
            <path class="cls-7" d="M167.11,248.05c3.76,6.47,14.18,15.89,20.03,20.92,2.27,1.96,4.74,3.73,7.12,5.56-.09.74-12.89,3.59-14.47,3.78-6.75.81-14-.43-20.25,1.33-.57-.44-1.21-.87-1.77-1.33-6.52-5.25-18.11-15.42-23.15-21.8-.08-.09.07-.35,0-.44l28.26-11.57,4.23,3.56h0Z"/>
            <path class="cls-2" d="M225.85,260.51c.08.23-1.84,1.25,1.77,3.34-1.94,3.22-5.91.6-6.9,1.11-.37.2-.04,1.47-.89,1.77-1.19.42-4.49-.4-5.78,0-.23.08-2.9,3.3-3.56,3.56-.29.12-2.96-.5-3.12-.44-1.14.42-3.77,2.61-4.01,2.67-1.16.31-6.69-.39-8.01.89-1.97,1.4,1.15,1.93,1.11,2.45l-31.16,8.23c-.34-.07-.57-.3-.89-.44-1.29-.63-3.6-3.03-4.89-4.01,6.25-1.77,13.5-.52,20.25-1.33,1.58-.2,14.37-3.04,14.47-3.78-2.39-1.83-4.84-3.6-7.12-5.56.05-1.44,7.12-3.55,7.79-3.56,2.73-.07,5.55,2.54,6.24,2.67,2.9.52,10.27-2.4,5.11-4.67,1.4-3.39,14.29-2.07,14.69-4.89.05-.38-5.23-4.04-2.9-4.67.63-.17,7.44,5.57,7.79,6.68v-.03Z"/>
            <path class="cls-8" d="M250.33,267.19v.44c-16.51.9-40.33,6.58-57.19,10.24-7.06,1.53-19,6.08-25.36,6.68-.61.05-2.21.27-2.45-.44l31.16-8.23c.04-.52-3.09-1.04-1.11-2.45,1.32-1.28,6.85-.57,8.01-.89.23-.07,2.87-2.26,4.01-2.67.14-.05,2.82.56,3.12.44.67-.26,3.31-3.48,3.56-3.56,1.29-.4,4.59.42,5.78,0,.86-.3.52-1.59.89-1.77.98-.52,4.96,2.11,6.9-1.11-3.61-2.09-1.71-3.11-1.77-3.34,1.51.87,4.98.16,6,.44,2.09.6,2.92,2.6,3.12,2.67.99.42,3.95-.13,4.45,0,2.79.74,5.18,2.47,8.9,2.23,2.14-.69.29-11.65,1.55-13.79.18,5.02.78,10.07.44,15.14v-.03Z"/>
            <path class="cls-8" d="M248.11,210.67c-2.19-4.1-1.47-1.21-2.9-.89-1.6.37-10.99,3.73-12.02,4.45-1.03.72-1.15,2.83-2,3.78-.14.16-3.34,1.58-3.56,2.23-.57,1.72,1.14,6.05-.89,7.35-.08-4.89.29-9.81-.44-14.69,7.2-4.01,14.25-8.31,21.36-12.46.2,3.41.26,6.84.44,10.24h0Z"/>
            <path class="cls-7" d="M168.89,184.42c5.44,3.89,9.47,10.07,14.23,14.69,1.19,3.39,5.14,7.15,7.12,10.24,1.2,1.88,2.41,4.66,3.56,6.68-5.55,3.85-12.98,4.21-17.35,9.34-.93-2.1-2.21-4.18-3.12-6.24-2.51-5.68-4.79-11.6-7.12-17.35-.9-2.21-1.8-4.45-2.67-6.68-.87-2.22-1.81-4.45-2.67-6.68-.95-2.48-1.62-5.11-2.67-7.57.05-.01-.17-.74.22-.89,2.13-.82,8.53,3.07,10.46,4.45h.01Z"/>
            <path class="cls-7" d="M198.72,190.2c4.61,4.85,10.49,14.38,13.35,20.47.13.27-.13,1.06,0,1.33-4.79,2.18-8.69,4.97-14.69,4.89-.43-1.29-.95-2.73-1.33-4.01-.55-1.84-.85-3.91-1.33-5.78-.43-1.63-.95-3.25-1.33-4.89-1.33-5.71-2.52-11.51-3.12-17.35.14-.04-.5-1.27.67-1.33.51-.03,6.95,5.79,7.79,6.68h0Z"/>
            <path class="cls-8" d="M200.05,226.69l-17.58,8.45c-1.64,1.44,1.21,3.51.89,5.34l-2.67-4.45-15.58,7.57c-.59.89,1.45,3.5,2,4.45l-4.23-3.56-28.26,11.57c-1.25-1.63-1.74-3-2.67-4.45,1.88-2.41,4.74-1.88,6.9-3.12,1.07-.61,6.51-5.51,7.57-5.78,2.4-.64,3.8.94,4.01.89.29-.07,1.04-1.27,1.33-1.33,2.44-.57,6.21-1.2,6.9-4.01,1.67,1.93,3.63,3.68,5.11,5.78-.1-2.35-2.27-4.64-3.34-6.68,2.34-1.41,6.88-.89,8.68-1.33,2.54-.64,6.89-4.28,10.46-2.23.22.38,1.12,2.21,1.77,1.55-1.34-2.44-2.48-5.48-4.01-7.79,2.11-.76,4.8-.3,6.9-.89,1.49-.42,9.76-2.82,10.24-3.12.9-.56,1.68-1.94,2.45-2.67,1.11,1.79,2.11,3.91,3.12,5.78v.03Z"/>
            <path class="cls-2" d="M215.18,218.68c-4.76,2.57-9.6,5.21-14.23,8.01-1.25-3.16-2.51-6.56-3.56-9.79,6,.08,9.9-2.71,14.69-4.89.99,2.21,2.3,4.37,3.12,6.68h-.01Z"/>
            <path class="cls-20" d="M197.37,216.9c1.06,3.24,2.3,6.63,3.56,9.79.69,1.74,1.49,3.63,2.23,5.34h-.44c-.9-1.8-1.72-3.56-2.67-5.34-1-1.87-2.01-3.99-3.12-5.78-.97-1.57-2.02-3.16-2.67-4.89l1.77-3.12c.38,1.28.91,2.71,1.33,4.01h.01Z"/>
            <path class="cls-1" d="M202.72,232.03h.44c.93,2.15,3.11,4.03,2.9,6.68-1.41-2.06-2.23-4.45-3.34-6.68Z"/>
            <path class="cls-7" d="M131.06,208.45c2.99,2.75,6.05,5.57,8.9,8.45,2.11,2.14,4.16,4.48,6.24,6.68,2.19,2.34,4.57,4.75,6.68,7.12.84.94,2.28,3.5,3.12,4.45-1.46.03-5.61,5.91-6,5.78-.44-.14,0-1.24-.44-1.33-6.17-1.32-6.25,2.05-10.69,4.01-1.37.6-1.98-.1-2.23,0-2.69,1.16-4.76,1.96-7.35,3.56-.65-1.15-2.19-3.07-2.67-4.01-3.73-7.37-6.3-15.47-9.34-23.15-1.66-8.98-5.39-17.78-5.11-27.15,6.81,4.58,12.9,10.03,18.92,15.58h-.01Z"/>
            <path class="cls-7" d="M155.98,235.14c.9,1.03,1.77,2.09,2.67,3.12-.69,2.81-4.46,3.43-6.9,4.01-.29.07-1.04,1.27-1.33,1.33-.21.05-1.6-1.53-4.01-.89-1.06.27-6.5,5.18-7.57,5.78-2.17,1.23-5.02.7-6.9,3.12-.29-.44-.87-1.02-1.33-1.77-.53-.89-.86-1.83-1.33-2.67,2.58-1.6,4.64-2.39,7.35-3.56.23-.1.86.6,2.23,0,4.44-1.96,4.5-5.32,10.69-4.01.44.09,0,1.19.44,1.33.39.13,4.55-5.77,6-5.78h-.01Z"/>
            <path class="cls-7" d="M150.2,193.76c2.51,2.17,4.84,4.72,7.12,7.12,1.21,1.28,2.4,2.67,3.56,4.01,4.12,4.74,8.18,9.85,11.57,15.14,1.44,2.24,2.7,4.79,4.01,7.12.33.57.57,1.2.89,1.77-2.61.97-3.95,2.73-6.46,3.56-.09.03-.78-.91-.89-.89-.73.17-2.09,1.76-2.23,1.77-.72.08-1.67-1.19-3.12-.89-.95.2-4.33,1.9-5.56,2.23-1.51-2.94-3.05-5.91-4.45-8.9-.98-2.09-2.17-4.16-3.12-6.24-1.17-2.53-1.93-5.41-3.12-8.01-.78-1.7-1.81-5.92-2.67-7.12l-5.78-17.13c.17-1.03,2.1.05,2.45.22,1.49.74,6.24,4.88,7.79,6.24h0Z"/>
            <path class="cls-7" d="M196.93,220.91c-.76.73-1.55,2.11-2.45,2.67-.47.3-8.75,2.7-10.24,3.12-2.1.59-4.79.13-6.9.89-.07-.09.07-.52-.44-.44.18-.82-.17-1.16-.44-1.77,4.37-5.13,11.81-5.49,17.35-9.34h.44c.64,1.74,1.71,3.34,2.67,4.89h.01Z"/>
            <path class="cls-24" d="M166.23,201.77c2.34,5.75,4.62,11.68,7.12,17.35l-.89.89c-3.38-5.28-7.45-10.4-11.57-15.14l5.34-3.12h0Z"/>
            <path class="cls-19" d="M194.71,207.11c.5,1.88.78,3.94,1.33,5.78l-1.77,3.12h-.44c-1.14-2.01-2.36-4.79-3.56-6.68,2.06,1.04,2.22-2.37,4.45-2.23h0Z"/>
            <path class="cls-10" d="M176.46,225.36c.27.61.63.97.44,1.77h-.44c-1.3-2.34-2.57-4.88-4.01-7.12l.89-.89c.91,2.06,2.19,4.14,3.12,6.24h0Z"/>
            <path class="cls-7" d="M179.57,233.81c-3.58-2.06-7.91,1.58-10.46,2.23-1.8.46-6.34-.08-8.68,1.33-.46-.87-.89-1.79-1.33-2.67,1.23-.31,4.61-2.04,5.56-2.23,1.44-.3,2.4.98,3.12.89.14-.01,1.5-1.62,2.23-1.77.1-.03.8.93.89.89,2.51-.84,3.85-2.6,6.46-3.56.84,1.54,1.38,3.43,2.23,4.89h-.01Z"/>
            <path class="cls-20" d="M159.1,234.7c.46.89.87,1.79,1.33,2.67,1.06,2.04,3.24,4.33,3.34,6.68-1.5-2.11-3.44-3.86-5.11-5.78-.89-1.03-1.77-2.07-2.67-3.12-.84-.95-2.28-3.51-3.12-4.45,1.44-2.39,2.36-1.62,1.77-4.89,1.4,2.99,2.94,5.96,4.45,8.9h.01Z"/>
            <path class="cls-9" d="M177.34,227.58c1.53,2.31,2.66,5.35,4.01,7.79-.67.65-1.57-1.17-1.77-1.55-.84-1.46-1.4-3.35-2.23-4.89-.31-.57-.57-1.2-.89-1.77h.44c.51-.08.38.35.44.44h0Z"/>
          </g>
          <path class="cls-23" d="M148.42,211.55c1.19,2.6,1.94,5.48,3.12,8.01l-5.34,4.01c-2.06-2.21-4.12-4.54-6.24-6.68l8.45-5.34h0Z"/>
          <path class="cls-24" d="M154.65,225.8c.57,3.27-.35,2.51-1.77,4.89-2.11-2.37-4.49-4.79-6.68-7.12l5.34-4.01c.95,2.06,2.14,4.15,3.12,6.24h0Z"/>
        </g>
      </g>
      <path class="cls-4" d="M227.22,28.13c28.51,43.94,53.6,90.11,74.97,137.94-56.54,38.15-117.01,70.46-180.16,96.23-5.4,2.21-41.73-62.98-45.48-69.94-14.12-26.17-27.01-39.93-1.25-58.4,50.13-35.99,100.36-71.87,151.93-105.82h0Z"/>
      <path class="cls-4" d="M203.96,124.38c11.65-6.84,23.24-13.78,34.77-20.84,4.41,5.08,8.09,10.8,10.87,16.94.61,1.36,1.19,2.91.61,4.28-.42.99-1.36,1.66-2.26,2.26-11.94,8.06-23.88,16.11-35.82,24.18-5.28-9.9-10.57-19.79-15.85-29.7"/>
      <path class="cls-4" d="M85.02,177.02c-1.44-8.45-2.39-16.99-2.87-25.53,5.04,4.92,11.87,7.96,18.89,8.4-4.34-10.16,3.5-23.46,14.5-24.56,2.94-.29,5.96.14,8.78-.69,2.83-.84,5.45-3.63,4.64-6.46"/>
      <path class="cls-4" d="M236.46,174.93c9.96-9.38,21.2-17.39,33.32-23.75"/>
      <path class="cls-4" d="M197.92,189.82c67.69-32.08,28.12-21.52,90.5-63.01,2.88-1.92,6.04-5.86,3.56-8.29"/>
      <path class="cls-4" d="M9.75,78.77c12.07,5.02,26.13-4.91,30.43-17.25,4.29-12.34,1.62-25.9-1.08-38.69,1.32,9.52,2.64,19.04,3.94,28.56.74,5.41,1.68,11.23,5.55,15.12,7.2,7.25,19.38,3.58,28.72-.55-19.1,6.71-30.3,30.34-23.37,49.37.61-12.43-5.78-25-16.21-31.81-10.43-6.81-24.49-7.63-35.65-2.07,2.45,1.6,6.33-.56,6.26-3.5"/>
      <path class="cls-4" d="M72.64,49.92c4.78,2.99,10.29-2.7,12.56-7.84,5.22-11.78,7.25-24.96,5.83-37.77,3.48,9.93,2.51,21.54,8.57,30.14,6.29,8.92,19.9,11.63,29.12,5.78-8.83.21-19.32,1.38-23.51,9.17-3.59,6.68-.59,14.85,2.43,21.79-1.15-14.57-19.36-24.82-32.42-18.2,3.44-.43,6.89-.85,10.32-1.28"/>
      <path class="cls-4" d="M170.96,283.4c-.77,2.15-4.01,1.4-5.95.18-30.73-19.22-51.19-53.94-53.12-90.13,21.18,14.25,37.88,34.05,54.3,53.59-11.36-18.51-20.25-38.56-26.33-59.42,19.43,10.23,31.03,30.54,41.57,49.8-7.31-16.91-14.63-33.82-21.93-50.73-.8-1.85-1.46-4.34.13-5.6,1.5-1.17,3.68-.13,5.23.98,17.56,12.58,28.39,32.27,38.63,51.29-6.08-15.88-10.8-32.27-14.1-48.94,8.96,3.82,15.21,12.17,19.58,20.89,4.37,8.72,7.27,18.12,12.02,26.64,1.23,2.19,3.04,4.59,5.55,4.46.08-6.64.14-13.3.22-19.94-.43.7-.86,1.4-1.3,2.1"/>
      <path class="cls-4" d="M166.74,284.92c-10.41-2.27-20.84-4.54-31.25-6.81-14.35-3.13-28.78-6.26-43.45-7.03-15.68-.82-33.05,1.89-43.34,13.75,3.08-1.58,6.15-3.16,9.22-4.74"/>
      <path class="cls-4" d="M247.55,205.07c.86,21.25,1.71,42.51,2.57,63.75,47.06-2.3,94.39.68,140.8,8.83-2.84-1.45-5.7-2.9-8.55-4.34"/>
    </g>
  </g>
</svg>