<?xml version="1.0" encoding="UTF-8"?>
<svg id="Ebene_2" data-name="Ebene 2" xmlns="http://www.w3.org/2000/svg" xmlns:xlink="http://www.w3.org/1999/xlink" viewBox="0 0 449.49 297.62">
  <defs>
    <style>
      .cls-1 {
        fill: #c29576;
      }

      .cls-2 {
        fill: #fdfdfe;
      }

      .cls-3 {
        fill: #f5f6f9;
      }

      .cls-4 {
        fill: #c8c1be;
      }

      .cls-5 {
        fill: #697b9f;
      }

      .cls-6 {
        fill: #6b86b3;
      }

      .cls-7 {
        fill: #ebeef2;
      }

      .cls-8 {
        fill: #ef9024;
      }

      .cls-9 {
        fill: #2f3f5d;
      }

      .cls-10 {
        fill: #475675;
      }

      .cls-11 {
        fill: #a09c9b;
      }

      .cls-12 {
        fill: #dddfe3;
      }

      .cls-13 {
        fill: #fcfcfd;
      }

      .cls-14 {
        fill: #e8dfd8;
      }

      .cls-15 {
        fill: #e7c0a3;
      }

      .cls-16 {
        fill: #b8b9bc;
      }

      .cls-17 {
        fill: #546a96;
      }

      .cls-18 {
        fill: #e2e4e8;
      }

      .cls-19 {
        fill: #ee8d21;
      }

      .cls-20 {
        fill: #f09326;
      }

      .cls-21 {
        fill: #303237;
      }

      .cls-22 {
        fill: #d07c20;
      }

      .cls-23 {
        fill: #f4f6f8;
      }

      .cls-24 {
        fill: #e52e27;
      }

      .cls-25 {
        fill: none;
        stroke: #000;
        stroke-miterlimit: 10;
      }

      .cls-26 {
        fill: #f8f9fa;
      }

      .cls-27 {
        fill: #fefefe;
      }

      .cls-28 {
        fill: #415477;
      }

      .cls-29 {
        fill: #b28667;
      }

      .cls-30 {
        fill: url(#Unbenannter_Verlauf_400);
      }

      .cls-31 {
        fill: url(#Unbenannter_Verlauf_401);
      }

      .cls-32 {
        fill: url(#Unbenannter_Verlauf_402);
      }

      .cls-33 {
        fill: #b2adac;
      }

      .cls-34 {
        fill: #fbfcfd;
      }

      .cls-35 {
        fill: #e3281d;
      }

      .cls-36 {
        fill: #feca52;
      }

      .cls-37 {
        fill: #dde1e5;
      }

      .cls-38 {
        fill: #e62a22;
      }

      .cls-39 {
        fill: #e8ebef;
      }

      .cls-40 {
        fill: #e28b25;
      }

      .cls-41 {
        fill: #f7a72c;
      }

      .cls-42 {
        fill: #e6861c;
      }

      .cls-43 {
        fill: #fddd93;
      }

      .cls-44 {
        fill: #ccd5e2;
      }

      .cls-45 {
        fill: #fdfefe;
      }

      .cls-46 {
        fill: #f3f4f6;
      }

      .cls-47 {
        fill: #fcfdfd;
      }
    </style>
    <linearGradient id="Unbenannter_Verlauf_402" data-name="Unbenannter Verlauf 402" x1="102.57" y1="5966.6" x2="282.12" y2="5894.84" gradientTransform="translate(0 6074.33) scale(1 -1)" gradientUnits="userSpaceOnUse">
      <stop offset="0" stop-color="#9eb3d4"/>
      <stop offset="1" stop-color="#677ca5"/>
    </linearGradient>
    <linearGradient id="Unbenannter_Verlauf_401" data-name="Unbenannter Verlauf 401" x1="179.9" y1="6064.43" x2="272.54" y2="5979.03" gradientTransform="translate(0 6074.33) scale(1 -1)" gradientUnits="userSpaceOnUse">
      <stop offset="0" stop-color="#f34d47"/>
      <stop offset="1" stop-color="#e72920"/>
    </linearGradient>
    <linearGradient id="Unbenannter_Verlauf_400" data-name="Unbenannter Verlauf 400" x1="108.43" y1="5940.02" x2="298.47" y2="5837.77" gradientTransform="translate(0 6074.33) scale(1 -1)" gradientUnits="userSpaceOnUse">
      <stop offset="0" stop-color="#f4f6f9"/>
      <stop offset="1" stop-color="#c9d0d7"/>
    </linearGradient>
  </defs>
  <g id="versicherungen">
    <g id="Ebene_23" data-name="Ebene 23">
      <g id="Generatives_Objekt-2" data-name="Generatives Objekt-2">
        <path class="cls-27" d="M78.18,251.73c.17.71.16,1.7-.47,2.15l-23.69-.52c-5.04-.11-9.86.22-14.91.05-6.91-.23-13.63-.24-20.47.08-2.96.14-5.88.65-8.66.03-1.55-.34-6.34.08-9.98-.78.29-1.7,1.51-.66,2.1-.86,4.04-1.43,7.83-.89,11.87-.74,4.83.18,9.56.04,14.4-.25,14.3-.85,18.13-.23,31.46-.02l16.45.25c.75,0,1.21,1.09,1.9.62h0Z"/>
        <path class="cls-19" d="M378.84,149.06c-.62.06-1.15-.36-1.81-.21,2.68-1.44,5.93-.96,8.98-2.2l.73-9.26,1.82,9.24,9.14.87-8.89,1.84-1.14,9.3-1.62-9.11c-2.53-.44-4.94-.71-7.21-.49h0Z"/>
        <path class="cls-20" d="M385.05,70.84c.66,1.26-1.12,1.36-.76.09-.17-2.12-.45-3.89-.98-5.59-2.41-.58-4.47-.43-6.86-.74l6.66-1.61.84-6.87c.54,2.36.32,4.68,1.38,7.02,1.83.06,3.62.68,5.72.24,1.15-.72,1.35,1.23.04.76-1.83.25-3.89.14-5.39,1.25-.96.94-.74,3.7-.64,5.42h0Z"/>
        <path class="cls-8" d="M416.53,182.27c-.86-1.74-.67-3.64-1.18-5.45l-6.51-.9c1.82-.87,4.87.1,6.17-1.86,1.06-1.61.11-4.07.77-5.43,1.27,1.83.02,4.72,1.65,5.94,1.54,1.16,4,.08,5.82.7-1.54,1.15-3.88.21-5.7,1.43-1.54,1.03-.22,3.66-1.03,5.55h0Z"/>
        <g>
          <path class="cls-41" d="M437.18,74.98c.47.4.37,1.71.66,2.36.72,1.62,2.2,2.89,2.74,4.67l-22.12,11.97-66.08,36.78-50.28,26.78c-1.05.56-2.23.41-2.54,1.4-1.06-.08-2.18.42-3.08-.32-1.14-2.44-1.19-4.97-.52-7.58,1.03.51-.11-.84.71-1.29l30.58-16.97,78.44-43.2,26.6-14.73c1.11-.61,2.14-1.08,3.15-1.35.68.35,1.16.99,1.73,1.48h0Z"/>
          <path class="cls-40" d="M440.59,82.01c.14-.08.41.05.59-.02.03,1.54,1.57,2.2,2.12,3.52l-73.98,44.06c-.8.4-2.15.51-2.96,1,.25-.91-.63-1.36-.92-.02-1.54-.1-2.36.74-3.36,1.59-1.34,1.12-2.92,1.38-4.18,2.19-6.69,4.3-13,7.61-20.18,11.34l-20.75,10.77-10.03,5.07c-.44.22-.24.96-.29,1.3-.39.14-.65-.56-.97-.17-2.4-1.55-3.43-3.48-6.12-3.68.3-1,1.49-.84,2.54-1.4l50.28-26.78,66.08-36.78,22.12-11.97h0Z"/>
          <path class="cls-14" d="M448.09,77.47l-.39,1.04c-.74,1.99-4.29,2.58-6.52,3.47-.19.07-.45-.05-.59.02-.54-1.78-2.02-3.05-2.74-4.67-.29-.65-.19-1.96-.66-2.36,1.14.15,1.84-.7,2.54-1.55.8-.97,5.01-.03,6.9.8,1.08.48.58,2.44,1.48,3.25h0Z"/>
          <path class="cls-4" d="M443.3,85.51c-.55-1.31-2.1-1.97-2.12-3.52,2.23-.88,5.78-1.47,6.52-3.47l.39-1.04c1.15.65,1.47,1.58,1.34,3.14-.22,2.64-4.99,4.21-6.13,4.89h0Z"/>
          <path class="cls-15" d="M295.97,151.04c-.67,2.61-.62,5.14.52,7.58-.38,1.45-1.79,2.31-3.2,3.28-4.95,3.43-2.76,4.8-6.69,6.21-1.32-.59-1.72-2.36-2.12-3.69,0-.83.24-1.35.72-2.07,3.13-4.64,5.64-9.52,9.2-13.43.25,1.03,1.83.8,1.57,2.13h0Z"/>
          <path class="cls-1" d="M299.57,158.94c2.69.21,3.72,2.12,6.12,3.68-.36.43-.63-.34-1.06-.21l-9.83,2.9c-.7.21-1.02.52-.98.84.12.79.86.91,1.53,1.26.22.11.81-.37,1.15-.37.23,0,.35-.06.37.41l-5.69,1.06c-.81.15-1.61.13-1.88.69-.86-.35-1.69-.48-2.63-.53.04-.13.07-.48-.09-.55,3.93-1.41,1.73-2.78,6.69-6.21,1.41-.97,2.82-1.83,3.2-3.28.9.74,2.02.24,3.08.32h0Z"/>
          <path class="cls-22" d="M366.36,130.57l-29.72,17.87c-.86.51-1.96,1.11-2.22,2.04,1.06-2.03-8.56,4.32-8.7,4.4-3.68,2.24-7.63,4.04-10.97,6.71-1.93,1.54-5.08,1.52-7.14,2.52-.3-.45-.88-.71-.94-1.32.04-.34-.16-1.08.29-1.3l10.03-5.07,20.75-10.77c7.18-3.73,13.48-7.04,20.18-11.34,1.26-.81,2.85-1.07,4.18-2.19,1-.84,1.82-1.69,3.36-1.59.29-1.34,1.17-.88.92.02h0Z"/>
          <g>
            <path class="cls-36" d="M435.45,73.5c-1.01.27-2.05.74-3.15,1.35l-26.6,14.73-78.44,43.2-30.58,16.97c-.82.45.32,1.8-.71,1.29.26-1.33-1.32-1.09-1.57-2.13l3.5-5.99c1.18-2.01,2.83-3.35,4.81-4.52l19.4-11.45c.71-.42,1.59-1.17,2.14-1.62,3.99-1.53,7.48-4.33,11.13-6.51,2.67-1.6,5.69-2.78,8.26-4.7.21-.16.52,0,.76-.06s.49-.26.3-.56l86.09-50.86,4.66,10.85h0Z"/>
            <path class="cls-43" d="M340.36,120.79c1.77-1.02,3.11-2.46,5.13-3.36.06-.63.21-.72.22-.86.04-.6.7.15.88.04l7.86-4.65,42.94-25.3c3.27-1.92,6.14-3.92,9.3-5.91l9.74-6.13c4.67-2.94,8.94-6.12,13.94-8.67.48,1.92-.4,3.77-2.06,4.77l-23.98,14.5-11.75,6.75c-5.05,2.9-9.91,5.85-14.87,8.97-1.36.86-2.57,1.94-4.1,2.62-4.33,1.93-7.9,4.67-12.08,7.12-8.17,4.79-15.88,9.55-24.77,13.58.03-2.2,2.22-2.67,3.58-3.47h0Z"/>
          </g>
          <path class="cls-29" d="M305.69,162.62c.32-.38.58.32.97.17.06.61.64.87.94,1.32-3.39,1.66-7.01,2.63-10.72,3.32-.02-.46-.14-.41-.37-.41-.34,0-.94.49-1.15.37-.67-.35-1.42-.47-1.53-1.26-.05-.32.28-.63.98-.84l9.83-2.9c.43-.13.7.64,1.06.21h0Z"/>
        </g>
        <g>
          <path class="cls-6" d="M314.38,30.47c10.7,1.21,21.37,4.26,32.25,6.7,4.19.94,6.26,5.3,6.36,8.93-.46.38-4.04-6.72-5.57-5.52-.66-1.87-3.27-2.2-5.3-2.65l-15.34-3.41c-.55,5.77-1.56,2.28-2.09,8.79-38.38-8.26-76.58-17.16-115.02-26.84-17.64-4.44-34.93-7.79-52.57-11.14,1.18-1.02,2.62-.85,3.23-1.88l17.99,2.53,42.08,6.97,40.03,7.54,25.73,5.24,26.16,5.46c.46.09.9.59,1.26.43.34-.14.86-.68.82-1.14h0Z"/>
          <path class="cls-10" d="M292.38,279.38c-2.51-.34-5.14-.42-7.39-1.58l22.02-86.66c.79-3.1,1.21-6.67,2.17-9.63,2.11-6.5,3.79-13.22,5.55-19.92,3.34-2.68,7.29-4.47,10.97-6.71l-31.7,119.37c-.51,1.91-.99,3.49-1.64,5.13h0Z"/>
          <path class="cls-9" d="M334.41,150.48l-34.2,120.32c-.94,3.31-1.91,5.8-2.25,8.73-.76.97-4.16.05-5.58-.14.65-1.63,1.13-3.22,1.64-5.13l31.7-119.37c.14-.08,9.75-6.43,8.7-4.4h0Z"/>
          <path class="cls-28" d="M352.99,46.1l.14,5.39c.57,21.03-4.59,41.65-9.32,61.89-.05.24-.26.46-.17.74-2.56,1.92-5.58,3.1-8.26,4.7-.41,0-.2-.51-.19-1.1,5.42-22.25,10.54-44.38,11.72-67.29l.5-9.84c1.53-1.2,5.11,5.9,5.57,5.52h0Z"/>
          <path class="cls-27" d="M314.38,30.47c.04.46-.48,1-.82,1.14-.36.15-.81-.34-1.26-.43l-26.16-5.46-25.73-5.24-40.03-7.54-42.08-6.97-17.99-2.53-12.86-1.87c-2.3-.34-4.48-.78-6.65-.47.7-1.17,2.02-1.24,3.32-.77,1.61.58,3.51.05,5.28.4,4.29.84,8.54,1.34,12.98,2.02l13.89,2.13,26.68,4.3,29.89,5.1c2.38.41,4.62.88,7.1,1.36l10.78,2.07,22.09,4.33,41.57,8.44Z"/>
          <path class="cls-42" d="M366.33,232.34c.78-.37,1.21.28.36,1.03-.55-.34-.94-.09-1.41-.02-1.83.29-3.67.47-5.66,1.28-.17,2.08-.5,4.07-.35,6.35.98,1.21-.77,1.24-.42,0l-1.33-6.44-6.49-1.1,6.51-1.58c.02-2.12.64-4.25.2-6.59-.81-1.19,1.15-1.43.7-.07.19,2.61.6,4.66,1.34,6.91,2.37.03,4.54.9,6.54.22Z"/>
          <path class="cls-17" d="M347.42,40.58l-.5,9.84c-1.17,22.91-6.3,45.04-11.72,67.29,0,.58-.21,1.1.19,1.1-3.65,2.18-7.13,4.97-11.13,6.51.52-2.61,1.48-5.03,1.58-8.17.08-2.5-1.81-5.95-4.4-6.63l-37.37-9.82c.07-1.79,2.37,1.03,7.26-.56,24.69-8.05,44.24-26.34,49.03-53.47l-15.68-3.37c.53-6.51,1.54-3.02,2.09-8.79l15.34,3.41c2.04.45,4.64.78,5.3,2.65h0Z"/>
          <g>
            <path class="cls-32" d="M160.32,3.45c-.62,1.03-2.05.86-3.23,1.88,17.64,3.36,34.93,6.7,52.57,11.14,38.44,9.68,76.64,18.58,115.02,26.84l15.68,3.37c-4.78,27.13-24.34,45.42-49.03,53.47-4.89,1.59-7.18-1.23-7.26.56-34.67-9.11-69.72-16.16-105.23-22.99l-37.98-7.31c-1.51-.29-2.22.52-3.11.87-1.27.5-2.76,1-3.3,3.24l-29.94,124.07-13.32,56.13c-.43.13-.69.17-.73.2-4.14-.46-8.79-.96-12.75-1.05.63-.45.63-1.44.47-2.15.39-.26.39-.17.52-.67l15.01-62.64L126.8,48.2c3.5-14.84,7.12-28.92,11.51-43.26.46-1.5.97-2.63,1.97-3.21.26-.15.63-.19.52-.62,2.17-.31,4.35.13,6.65.47l12.86,1.87h0Z"/>
            <path class="cls-27" d="M344.71,113.5c.19.3-.06.49-.3.56s-.55-.1-.76.06c-.1-.27.11-.5.17-.74.33-.31.55.25.9.11h0Z"/>
            <path class="cls-27" d="M78.18,251.73c-.09-.37.06-.85.52-.67-.12.5-.13.4-.52.67Z"/>
            <path class="cls-27" d="M140.3,1.72c-.1-.38.14-.7.52-.62.11.43-.26.47-.52.62Z"/>
            <path class="cls-31" d="M305.06,62.29c-1.24,3.48-2.32,6.75-3.36,10.81-.93,3.64-5.01,7.56-9.56,6.54-35.68-8.03-71.3-14.66-107.61-19.73l-30.83-4.31c-1.19-.22-4.17-.36-4.39-2.17,1.07-8.06,3.12-16,5.45-23.89.66-2.22,2.66-2.9,4.61-2.55l60.52,11.08c9.12,1.67,17.4,4.18,26.2,7.1l19.53,6.48c9.12,3.03,33.16,9.48,41.41,3.18-1.3,2.48-1.11,5.06-1.96,7.46h0Z"/>
            <path class="cls-5" d="M305.06,62.29c.25.87,1.21.04,2.71.29l-5.94,18.7c-.96,3.02-4.98,3.95-8.1,3.21-20.54-4.89-40.65-9.4-61.5-13.12l-39.49-7.04-33.93-5.23c-2.11-.33-4.24-.12-5.82-1.6-.5-.47-.83-.97-.54-1.29.35-.38,1.35.42,1.25-.61l30.83,4.31c36.31,5.07,71.94,11.7,107.61,19.73,4.54,1.02,8.63-2.9,9.56-6.54,1.04-4.06,2.12-7.34,3.36-10.81h0Z"/>
          </g>
          <g>
            <path class="cls-27" d="M203.97,264.37c-3.45,1.4-8.38.41-12.82.95-1.49.18-2.54-.18-3.66-.8-.25-.56.15-3.08,1.14-3,5.34.41,10.36,1.98,15.34,2.85h0Z"/>
            <path class="cls-44" d="M284.08,100.71l37.37,9.82c2.58.68,4.48,4.13,4.4,6.63-.1,3.14-1.06,5.56-1.58,8.17-.56.45-1.43,1.2-2.14,1.62-1.17-3.73-3.15-7.42-5.72-10.71-3.67-4.7-58.1-18.01-67.23-20.01l-68.28-14.91-42.89-8.76c-.53-.53.47-1.19-.24-1.27.89-.35,1.6-1.16,3.11-.87l37.98,7.31c35.51,6.83,70.56,13.89,105.23,22.99h0Z"/>
            <path class="cls-11" d="M314.74,161.6c-1.77,6.7-3.45,13.42-5.55,19.92l-3.32.15c-.59.03-1.34.56-1.78.1-2.8-2.95,1.88.73-2.44-1.86.28-.85.99-3.1.07-3.78-2.13-1.6-4.87-1.45-6.86-.4l-6.25-1.6c2.98-4.37,3.35-.63,5.03-4.46-1.71-.07-3.07.04-4.32-.47.27-.56,1.06-.54,1.88-.69l5.69-1.06c3.71-.69,7.33-1.67,10.72-3.32,2.06-1.01,5.21-.98,7.14-2.52h0Z"/>
            <path class="cls-16" d="M301.65,179.9c4.32,2.59-.36-1.09,2.44,1.86.44.47,1.18-.07,1.78-.1l3.32-.15c-.96,2.97-1.39,6.53-2.17,9.63-.52-3.23-3.23-.28-5.24-2.88-.15-.2.51-.69.41-.98-.68-1.9-2.35-1.54-3.65-2.16-1.55-.73-2.31-1.71-4.35-1.74-1.07-.01-1.46-2.9-1.35-3.85.34-.49.96-.36,1.15-.47,2.54.14,5.13,1.34,7.67.85h0Z"/>
            <path class="cls-33" d="M301.65,179.9c-2.54.49-5.13-.71-7.67-.85.48-1.07,1.32-2.15.89-3.33,1.99-1.05,4.73-1.19,6.86.4.91.68.2,2.94-.07,3.78h0Z"/>
            <g>
              <path class="cls-30" d="M137.76,71.28c.72.08-.29.74.24,1.27l42.89,8.76,68.28,14.91c9.13,1.99,63.56,15.3,67.23,20.01,2.57,3.29,4.55,6.98,5.72,10.71l-19.4,11.45c-1.97,1.17-3.63,2.51-4.81,4.52l-3.5,5.99c-3.56,3.91-6.07,8.8-9.2,13.43-.49.72-.72,1.24-.72,2.07-2.23.7-3.12,3.6-4.61,5.91,2.64-.08,5.05-.2,6.83-1.67.94.05,1.77.18,2.63.53,1.25.51,2.61.4,4.32.47-1.68,3.83-2.05.09-5.03,4.46l6.25,1.6c.43,1.19-.4,2.26-.89,3.33-.18.1-.8-.02-1.15.47-.11.95.28,3.84,1.35,3.85,2.04.03,2.8,1.01,4.35,1.74,1.3.61,2.96.26,3.65,2.16.11.3-.56.78-.41.98,2.01,2.61,4.72-.35,5.24,2.88l-22.02,86.66c-1.06,0-2.58-.06-3.99-.39-15.66-3.69-31.19-6.57-47.2-8.49-3.59-.43-6.83-.51-10.36-1.12l-19.47-3.42c-4.98-.87-10-2.45-15.34-2.85-.99-.08-1.39,2.44-1.14,3-.53.73-1.04.78-2.03.68l-37.96-3.86-30.32-3.47-26.71-2.94s.3-.07.73-.2l13.32-56.13,29.94-124.07c.54-2.25,2.03-2.74,3.3-3.24h-.01Z"/>
              <g>
                <path class="cls-21" d="M284.48,164.42c.4,1.33.81,3.1,2.12,3.69.16.07.12.42.09.55-1.78,1.47-4.19,1.59-6.83,1.67,1.49-2.31,2.38-5.21,4.61-5.91h0Z"/>
                <g>
                  <path class="cls-2" d="M240.64,129.25c-8.38-1.7-15.69-3.59-23.8-5.65l-46.53-11.81c.51-1.37.22-2.48.96-3.69l25,6.28,29.23,7.77c2.25.59,4.36,1.62,6.56-.22l-35.92-10.37-23.73-6.47c-.85-.23-.21-3.23.81-3.56l71.46,19.84c6,1.67,11.54,3.75,17.3,6.51l14.33,2.3c5.34.86,10.38,1.36,15.8,1.22-.52,4.13-1.36,7.58-2.4,11.77-2.28-.03-4.7.45-7.13-.37l-31.99-10.85c-3.15-1.07-6.24-1.97-9.93-2.72h0Z"/>
                  <path class="cls-46" d="M161.14,229.91c-6.9-1.21-12.92-1.7-19.29-3.52-3.51-1.01-6.07-4.87-4.18-8.5,1.09-2.08,4.23-3.85,6.7-3.38l74.4,14.01c3.26.61,4.68,4.4,3.99,6.95-.9,3.31-3.65,4.6-7.05,4l-54.57-9.56Z"/>
                  <path class="cls-2" d="M281.51,218.55l-111.04-24.03-17.42-4.07c.44-1.58.59-2.55,1.26-3.67l110.82,23.89,28.54,6.29c.53.94.2,3.18-.76,3.86l-11.4-2.26h0Z"/>
                  <path class="cls-2" d="M170.08,196.84l108.91,23.79,13.51,2.95c.01,1.45-.01,2.46-.82,3.94l-52.27-11.22-64.12-13.91-23.2-5.17c-.15-1.46-.02-3.22.93-3.78l17.07,3.4h0Z"/>
                  <path class="cls-45" d="M174.3,204.48l64.22,13.81,52.95,11.62c.34,1.38-.1,2.47-.82,3.66l-51.87-11.28-88.42-19c-.1-1.42.22-2.51.9-3.59l23.04,4.79h0Z"/>
                  <path class="cls-47" d="M276.95,169.09c-4.11-.43-7.86-1.55-11.89-2.51l-85.32-20.2c-1.07-1.07-2.33-2.43-4.14-2.73l-13.73-2.27c-.31-1-.15-2.33.7-3.35l29.4,6.21,31.56,7.63,53.91,14.05c1,.26.27,3.24-.48,3.16h0Z"/>
                  <path class="cls-47" d="M279.41,176.1l-79.97-18.44-18.68-4.2c-1.01.64-1.54-.66-.1-1.05-.43-.42-.1-2.54.68-2.46,2.51.25,4.64.48,7.32,1.11l92.76,21.91c.94.22.7,1.62.28,2.07-.53.57-.77,1.42-2.28,1.07h0Z"/>
                  <path class="cls-23" d="M213.26,172.14c-.07,6.08-10.46,2.21-14.42,1.18-5.31-1.37-10.46-2.14-15.92-2.64-1.7-.16-3.07-1.58-3.58-2.81-.7-1.69-.35-3.55.94-5.04,1.42-1.64,3.61-2.16,5.71-1.7,8.02,1.73,15.78,3.64,23.58,6.37,1.86.65,3.71,2.29,3.68,4.65h0Z"/>
                  <path class="cls-37" d="M281.51,218.55c.18.33.18.89.06,1.19-.39,1.03-2.81-.92-2.59.88l-108.91-23.79c-.01-.78-.05-1.66.39-2.32l111.04,24.03h0Z"/>
                  <g>
                    <path class="cls-3" d="M131.06,137.64l7.51,10.18c4.73-5.1,8.37-10.64,12.49-15.57.2,1.28.1,2.76-.26,4.18l-5.17,20.83c-6.3-1.14-12.4-2.33-18.5-4.37l2.93-13.1c.21-.93.23-1.9,1-2.15h0Z"/>
                    <path class="cls-38" d="M151.05,132.24c-4.12,4.92-7.76,10.47-12.49,15.57l-7.51-10.18c-.15-1.01-.82-1.72-1.37-2.8l2.65-8.5,18.31,4.92c.57.15.37.76.41.99h0Z"/>
                  </g>
                  <path class="cls-24" d="M146.05,109.98c-2.78-3.39-4.84-6.61-7.16-10.04-.27-.4,1.06-.93,1.45-.8l2.98-9.96,17.02,4.59-14.29,16.21h0Z"/>
                  <path class="cls-18" d="M239.41,216.29l-.88,1.99-64.22-13.81c.34-.71.54-1.45.98-2.1l64.12,13.91h0Z"/>
                  <path class="cls-34" d="M173.38,151.46l-12.58-2.51c.11-1.24.29-2.12.61-3.67,4.22.63,8.18,1.62,12.34,2.5,1.18.25,2.02.83,1.88,1.87-.17,1.28-.42,2.17-2.25,1.81h0Z"/>
                  <path class="cls-13" d="M174.46,154.86c3.21,6.53-11.42.29-14.6.43.11-1.32.19-2.3.93-3.38,4.59.81,9.57,1.59,13.67,2.95Z"/>
                  <g>
                    <path class="cls-26" d="M191.65,255.33c3.11.62,6.06.92,9.32,1.09-1.5-1.06-3.36-1.19-5-1.29-5.47-.34-10.23-2.42-15.67-3.42-11.45-2.11-22.99-3.26-34.32-6.16-.08-1.12.21-2.64-1.03-3.44,1.99-.6,3.69-.04,5.62.34l14.83,2.87,25.44,4.52c.64.11,16.23,4.23,15.66,1.14-7.3-1.94-14.47-2.97-22.06-4.57l-38.93-8.19c0-1.36,0-2.77.95-3.82l109.22,23.11c.1,1.27-.9,1.99-1.08,3.46l5.6,1.14c.56.11.38,2.05-.14,2.69-6.35.3-13.07-.49-19.59-1.02-.43-.03-.53,1.15-1,1.1l-25.73-2.6c-10.49-1.06-20.38-3.43-30.82-4.71l-12.86-1.57-24.28-3.74c-.91-.14-.41-3.56.58-3.5,8.37.53,16.06,2.49,24.26,3.52,7.19.9,14.02,1.62,21.03,3.03h-.01Z"/>
                    <path class="cls-12" d="M226.15,257.8c-2.96-.38-5.72-.54-8.91-1.56-.81-.99,9.03.43,8.91,1.56Z"/>
                  </g>
                  <g>
                    <path class="cls-34" d="M127.84,253.32l-12.2-2.62c-2.31-.5-4.43-1.01-6.69-1.89l4.85-23.39,19.06,4.08c.09,1.03.22,2.27-.03,3.3l-4.99,20.52h0Z"/>
                    <polygon class="cls-39" points="126.2 249.71 111.68 246.64 115.76 228.81 130.35 232.03 126.2 249.71"/>
                  </g>
                  <g>
                    <path class="cls-35" d="M138.87,184.18c-.83-.02-1.04,1.16-1.58,1.65-4.35,3.95-7.92,8.76-12.81,12.58-.58-.91-1.63-1.93-2.15-2.55-.16-1.34-1.37-2.22-1.97-3.14-.86-1.3-1.54-2.96-2.21-4.45,1.04.09,2.41,1.57,2.88.68,1.18-3.07,1.35-6.05,2.92-9.21,5.04,1.87,10.51,1.93,14.93,4.45h0Z"/>
                    <path class="cls-34" d="M120.36,192.71c.6.92,1.81,1.8,1.97,3.14-1.65-1.52-2.2,3.95-2.54,5.48,4.56,1.34,8.8,2.7,13.56,3.13l3.93-18.63c.54-.49.75-1.67,1.58-1.65,2.5,1.94-3.12,19.82-3.84,23.99l-18.26-4.6c-.51-.52-.35-1.35-.05-1.83,2.07-3.34,1.63-11.16,3.65-9.03h0Z"/>
                    <path class="cls-7" d="M122.33,195.85c.52.62,1.57,1.64,2.15,2.55,4.9-3.82,8.46-8.63,12.81-12.58l-3.93,18.63c-4.76-.43-9.01-1.79-13.56-3.13.34-1.53.88-7,2.54-5.48h0Z"/>
                  </g>
                </g>
              </g>
            </g>
          </g>
        </g>
      </g>
      <path class="cls-25" d="M344.87,113.01c4.47-22.64,9.67-49.32,9.28-71.87C276.42,24.07,220.52,13.24,142.03.55c-4.81,10.25-7.53,21.4-10.21,32.47-19.09,78.71-34.35,144.33-53.44,223.04.71.45-3.17-3.33-2.46-2.88-17.46-2.88-35.32-3.07-52.84-.57-6.39.91-13.7,1.92-18.58-2.48.32,1.28.64,2.57.96,3.85"/>
      <path class="cls-25" d="M293.53,297.5c9.92-40.03,28.02-101.6,39.81-142.96"/>
      <path class="cls-25" d="M127.42,155c5.56-1.28,11.34-1.54,16.98-.77,1.58-6.58,3.17-13.16,4.75-19.74.1-.43.21-.9.06-1.32-.21-.6-.84-.9-1.42-1.13-4.98-1.99-10.52-4.31-15.81-4.72.48,9.36-2.48,18.31-4.57,27.68h0Z"/>
      <path class="cls-25" d="M122.55,184.15c-.95,7.07-2.35,14.07-4.17,20.95,5.38-.27,10.79.19,16.06,1.37,1.01-6.22,2.02-12.43,3.02-18.65.13-.79.24-1.66-.13-2.37-.29-.55-.85-.9-1.38-1.19-4.13-2.29-8.96-3.17-13.59-2.49,1.03.8,2.06,1.61,3.09,2.41"/>
      <path class="cls-25" d="M109.94,250.88c6.3-.68,12.73,0,18.77,1.96-.35-7.7.47-15.45,2.41-22.89-5.33-1.53-13.18-3.2-16.83,2.02-1.74,2.48-2.18,18.67-4.35,18.9h0Z"/>
      <path class="cls-25" d="M144.22,89.6c-2.49,5.99-4.55,12.19-6.14,18.5-.19.76-.36,1.62.08,2.26.37.53,1.03.71,1.64.85,4.77,1.1,9.54,2.21,14.31,3.31,1.82-6.28,3.32-12.66,4.52-19.1-5.71-2.55-11.42-5.11-17.13-7.66,1.13-.02,2.19,1.01,2.23,2.2-.13-.61-.26-1.21-.39-1.82"/>
      <path class="cls-25" d="M140.07,70.67c22.82,5.92,45.69,11.85,68.95,15.46,28.2,4.37,58.49,5.92,81.59,23.35.89.68,2.03,1.4,3.02.89s.24-2.65-.63-1.94"/>
      <path class="cls-25" d="M150.6,55.75c50.48,6.86,100.73,15.5,150.64,25.91,1.8-7.62,3.61-15.24,5.41-22.86-25.52,1.08-49.76-10.39-74.52-16.94-17.95-4.75-36.39-6.91-54.59-10.3-5.94-1.1-15.65-5.77-20.64-1.06-5,4.71-5.59,18.87-6.29,25.25h0Z"/>
      <path class="cls-25" d="M171.13,112.13c15.31,3.79,30.62,7.57,45.93,11.36,25.05,6.19,50.35,12.48,73.42,24.37.31-5.46,1.24-10.89,2.76-16.13-20.82,4.04-40.86-8.38-61.24-14.37-11.61-3.42-23.65-4.74-35.41-7.47-5.82-1.35-11.66-4.43-17.42-5.47-6.78-1.23-6.09.19-8.04,7.72h0Z"/>
      <path class="cls-25" d="M295.97,170.54c-1.02,3.05-2.05,6.14-2.27,9.36-.07,1.03-110.72-24.2-120.27-31.15,4.35-6.61,16.31-2.08,22.29-.96,11.22,2.1,22.42,4.34,33.6,6.73,22.34,4.77,44.57,10.11,66.66,16.03h0Z"/>
      <path class="cls-25" d="M155.14,188.35c47.66,9.37,95.15,19.71,142.42,31.02-.81-.9-1.61-1.79-2.42-2.69"/>
      <path class="cls-25" d="M149.99,238.99c18.09,1.75,36.34,3.52,53.7,9.09,17.89,5.75,35.56,15.59,54.17,13.39-.26,1.65-1.06,3.21-2.24,4.35-31.99-1.47-63.92-4.61-95.61-9.4-3.4-.51-6.91-1.09-9.84-2.96-2.93-1.87-5.17-5.4-4.57-8.93,2.98-1.3,6.09,3.67,3.75,5.99"/>
      <path class="cls-25" d="M218.73,171.53c-.99,2.19-1.62,4.55-1.85,6.96.62-6.42-39.04-2.68-38.2-12.61.93-10.96,34.45,3.41,40.05,5.65h0Z"/>
      <path class="cls-25" d="M133.46,92.92c3.84,6.78,8.27,13.19,13.24,19.13.25-2.53,2.03-4.57,3.76-6.36,6.68-6.9,14.07-13.06,22-18.32"/>
      <path class="cls-25" d="M124.35,126.65c5.21,7.69,10.19,15.56,14.91,23.59.63-3.86,3.7-6.69,6.44-9.37,6.07-5.94,11.39-12.73,15.76-20.12"/>
      <path class="cls-25" d="M114.6,182.57c3.23,6.69,6.46,13.37,9.7,20.05,7.19-11.64,15.64-22.44,25.14-32.12"/>
      <path class="cls-25" d="M307.26,165.97c46.34-26.8,92.68-53.59,139.02-80.39.94-.54,1.92-1.14,2.4-2.14.52-1.1.29-2.42-.02-3.6-2.34-8.96-8.63-16.71-16.71-20.62.77-.34,1.75.46,1.63,1.33-.12.86-1.23,2.57-1.88,2.01.91-.65,1.81-1.29,2.71-1.94-44.06,26.62-88.13,53.23-132.2,79.85-10.71,6.47-15.57,20.85-23.61,30.67,13.46-4.62,27.37-7.83,41.44-9.55-1.23-.04-2.46-.08-3.7-.12"/>
      <path class="cls-25" d="M299.2,143.49c-3.36,3.38-4.09,9.24-1.66,13.4,2.42,4.16,7.74,6.19,12.17,4.64-.65-.27-1.3-.55-1.96-.83"/>
      <path class="cls-25" d="M288.12,156.82c-2.05,1.93-3.33,4.73-3.48,7.6-.1,1.74.28,3.63,1.52,4.8s3.49,1.21,4.41-.25"/>
      <path class="cls-25" d="M432.87,61.18c.52,9.97,4.9,19.67,11.93,26.44"/>
      <path class="cls-25" d="M294.2,152.52c47.32-26.01,94.65-52.03,141.97-78.04-1.5.58-3,1.15-4.5,1.72"/>
      <path class="cls-25" d="M298.93,160.28c45.25-23.69,90.1-48.19,134.53-73.51,3.03-1.73,6.23-3.63,7.84-6.82-1.69-.03-3.25,1.56-3.27,3.32"/>
      <path class="cls-25" d="M386.52,145.01c-.31.98-.69,1.98-1.46,2.63-2.29,1.94-6.61-.3-8.24,2.27,3.49-1.53,7.93-.17,10.06,3.09,1.96,2.99,1.92,6.89,1.81,10.52-.62-7.33,4.36-14.75,11.18-16.64-2.84,2.23-7.22,1-9.53-1.83-2.19-2.68-2.98-6.46-2.97-9.9,1.48,2.8.06,6.99-.85,9.86h0Z"/>
      <path class="cls-25" d="M415.82,173.54c-.2.63-.45,1.28-.94,1.7-1.47,1.25-4.26-.19-5.3,1.46,2.25-.99,5.1-.11,6.48,1.99,1.26,1.93,1.24,4.44,1.17,6.77-.4-4.72,2.81-9.49,7.2-10.71-1.83,1.44-4.65.65-6.14-1.18-1.41-1.73-1.92-4.16-1.91-6.37.95,1.8.04,4.5-.55,6.35h0Z"/>
      <path class="cls-25" d="M383.5,61.76c-.2.63-.45,1.28-.94,1.7-1.47,1.25-4.26-.19-5.3,1.46,2.25-.99,5.1-.11,6.48,1.99,1.26,1.93,1.24,4.44,1.17,6.77-.4-4.72,2.81-9.49,7.2-10.71-1.83,1.44-4.65.65-6.14-1.18-1.41-1.73-1.92-4.16-1.91-6.37.95,1.8.04,4.5-.55,6.35h0Z"/>
      <path class="cls-25" d="M357.43,231.85c-.2.63-.45,1.28-.94,1.7-1.47,1.25-4.26-.19-5.3,1.46,2.25-.99,5.1-.11,6.48,1.99,1.26,1.93,1.24,4.44,1.17,6.77-.4-4.72,2.81-9.49,7.2-10.71-1.83,1.44-4.65.65-6.14-1.18-1.41-1.73-1.92-4.16-1.91-6.37.95,1.8.04,4.5-.55,6.35h0Z"/>
      <path class="cls-25" d="M417.38,260.6c-37.93-.52-54.86-3.62-92.76-1.9-12.29.56-25.31,1.07-36.11-5.07,3.76-.38,7.61,2.27,8.76,6.02"/>
      <path class="cls-25" d="M134.28,260.6c-3.67.03-7.33.89-10.66,2.49,35.55-2.34,71.53,2.88,105.12,15.23-24.66.07-48.71-7.39-73.15-10.77-40.46-5.59-82.31.25-119.93,16.74,18.91-6.24,37.81-12.47,56.72-18.71"/>
    </g>
  </g>
</svg>