<?xml version="1.0" encoding="UTF-8"?>
<svg id="Ebene_2" data-name="Ebene 2" xmlns="http://www.w3.org/2000/svg" xmlns:xlink="http://www.w3.org/1999/xlink" viewBox="0 0 395.21 314.34">
  <defs>
    <style>
      .cls-1 {
        fill: #fcf4e0;
      }

      .cls-2 {
        fill: #89181d;
      }

      .cls-3 {
        fill: #fbdebc;
      }

      .cls-4 {
        fill: #f4632b;
      }

      .cls-5 {
        fill: #f59d1a;
      }

      .cls-6 {
        fill: #fdd177;
      }

      .cls-7 {
        fill: #fbab61;
      }

      .cls-8 {
        fill: #fff;
      }

      .cls-9 {
        fill: #527279;
      }

      .cls-10 {
        fill: none;
        stroke: #000;
        stroke-miterlimit: 10;
      }

      .cls-11 {
        fill: #47626c;
      }

      .cls-12 {
        fill: url(#Unbenannter_Verlauf_421);
      }

      .cls-13 {
        fill: url(#Unbenannter_Verlauf_409);
      }

      .cls-14 {
        fill: url(#Unbenannter_Verlauf_406);
      }

      .cls-15 {
        fill: url(#Unbenannter_Verlauf_405);
      }

      .cls-16 {
        fill: #f3934a;
      }

      .cls-17 {
        fill: #fab31a;
      }

      .cls-18 {
        fill: #fcecbd;
      }

      .cls-19 {
        fill: #ec3a21;
      }

      .cls-20 {
        fill: #eb7730;
      }

      .cls-21 {
        fill: #a8abaa;
      }
    </style>
    <linearGradient id="Unbenannter_Verlauf_409" data-name="Unbenannter Verlauf 409" x1="122.09" y1="6124.88" x2="118.55" y2="6085.01" gradientTransform="translate(0 6136.83) scale(1 -1)" gradientUnits="userSpaceOnUse">
      <stop offset="0" stop-color="#fcedad"/>
      <stop offset="1" stop-color="#f9d497"/>
    </linearGradient>
    <linearGradient id="Unbenannter_Verlauf_406" data-name="Unbenannter Verlauf 406" x1="117.91" y1="6079.61" x2="78.43" y2="5912.03" gradientTransform="translate(0 6136.83) scale(1 -1)" gradientUnits="userSpaceOnUse">
      <stop offset="0" stop-color="#f8b313"/>
      <stop offset="1" stop-color="#f69218"/>
    </linearGradient>
    <linearGradient id="Unbenannter_Verlauf_405" data-name="Unbenannter Verlauf 405" x1="323.96" y1="6042.52" x2="312.44" y2="5914.76" gradientTransform="translate(0 6136.83) scale(1 -1)" gradientUnits="userSpaceOnUse">
      <stop offset="0" stop-color="#f95923"/>
      <stop offset="1" stop-color="#e83621"/>
    </linearGradient>
    <linearGradient id="Unbenannter_Verlauf_421" data-name="Unbenannter Verlauf 421" x1="16.18" y1="5924.85" x2="369.76" y2="5880.13" gradientTransform="translate(0 6136.83) scale(1 -1)" gradientUnits="userSpaceOnUse">
      <stop offset="0" stop-color="#678c8e"/>
      <stop offset="1" stop-color="#4c6e7b"/>
    </linearGradient>
  </defs>
  <g id="versicherungen">
    <g id="Ebene_4" data-name="Ebene 4">
      <g id="Generatives_Objekt" data-name="Generatives Objekt">
        <g>
          <path class="cls-2" d="M294.33,41.97c1.64.32,10.73-.43,11.33,0,.31.21.82,7.11.72,7.47-.29,1.15-11.36,6.6-13.02,7.96.05-5.02-.15-10.14,0-15.19l.96-.24h0Z"/>
          <path class="cls-21" d="M294.33,41.97l-.96.24c-.15,5.05.05,10.16,0,15.19-.07,6.27-.83,16.66,0,22.42.07.54,2.19,1.3,1.93,2.89-.63,3.77-9.22.57-2.89-2.41,2.32-10.05-3.49-30.81-.96-39.55.06-.21.72-1.44,1.21-1.21l1.69,2.41h0Z"/>
        </g>
        <g>
          <g>
            <g>
              <path class="cls-18" d="M195.47,33.28c-.02.61.49.53.96.49.95-.1.74-.02,1.45,0v67.76c.83,1.18,8.08-.95,9.64-1.21.49,21.73-.16,51.94,3.38,72.82-1.14.61.04,3.32-.72,3.86-.67.47-12.8-.04-14.71.96-4.83-10.09-9.28-20.69-17.12-28.93l-15.67,9.41c2.16,7.13,3.31,14.58,4.34,21.95l-24.12,2.41c3.44-17.81,7.11-35.58,11.09-53.29l33.04-1.21c.29-.87-1.38-1.55-1.69-1.93-2.85-3.44-6.91-7.58-9.16-11.33-8.94-14.93-8.29-33.29-8.2-50.16-.23-.39-.63-.51-.96-.72-1.15-.74-23.47-4.21-27.01-4.82,1.85-8.16.27-17.55-.96-25.8-.74-4.96-2.13-11.36-2.89-15.67,3.13,4.52-.75,5.96,5.55,7.72,13.11,3.65,35.58,4.32,50.16,7.24,1.36.27,1.02-1.41,3.62.49h0Z"/>
              <path class="cls-13" d="M136.15,17.85c.76,4.32,2.15,10.71,2.89,15.67,1.24,8.25,2.81,17.64.96,25.8-14.21-2.47-29.71-5.27-43.89-7.24L129.63,0c.55.12,4.69,8.79,5.07,9.88.18.52-.76.97-.49,1.93.07.24,1.29.35,1.45.96.3,1.18.26,3.8.49,5.07h0Z"/>
              <path class="cls-1" d="M207.53,46.31c.93,17.63-.4,36.23,0,54.01-1.57.26-8.81,2.38-9.64,1.21v-53.77l9.64-1.45Z"/>
              <path class="cls-8" d="M207.53,46.31l-9.64,1.45v-13.99c11.19.35,9.11,2.34,9.64,12.54Z"/>
              <path class="cls-8" d="M196.43,33.77c-.48.05-.99.13-.96-.49.15.11,1.01-.28.96.49Z"/>
            </g>
            <g>
              <g>
                <path class="cls-14" d="M96.12,52.09c14.18,1.97,29.68,4.77,43.89,7.24,3.54.62,25.85,4.08,27.01,4.82l-10.13,52.33,28.46,9.88c.31.38,1.99,1.06,1.69,1.93l-33.04,1.21c-3.99,17.71-7.65,35.49-11.09,53.29-2.91,15.06-6.09,30.04-7.96,45.33l-38.83-3.86c-.21-11.37-2.22-25.81-4.82-36.89-.1-.44-.62-2.02-1.45-1.69-.26-4.97-1.45-11.38-5.3-3.86-3.44,2.81-3.84-1.45-7.24,2.89-6.13,7.84-6.72,24.35-10.85,33.28-1.45,0,.98-4.66,1.21-5.55,1.07-4.19,6.66-26.92,2.66-28.7-4.44-1.96-8.66,15.24-10.13,17.84-.38-2.53,1.72-18.95-1.45-18.81-3.4.15-13.81,32.8-16.16,37.13-10.65-2.21-24.29-2.4-34.48-5.79-2.81-.93-7.22-2.74-7.96-6.03-1.41-6.32,7.38-34.96,9.16-43.41,5.63-26.7,11.44-80.62,27.97-100.8,15.64-19.09,37.23-14.81,58.84-11.82h0Z"/>
                <path class="cls-20" d="M43.8,78.14l97.66,16.16c.2.35-.38,7.51-2.17,7.47l-96.69-19.05,1.21-4.58h0Z"/>
              </g>
              <path class="cls-20" d="M185.34,126.36l-28.46-9.88,10.13-52.33c.33.21.74.33.96.72-.09,16.86-.74,35.22,8.2,50.16,2.25,3.76,6.31,7.89,9.16,11.33h0Z"/>
            </g>
          </g>
          <g>
            <path class="cls-16" d="M83.1,224.74c-.07,3.18,2.21,10.66,2.41,14.71.28,5.57.43,11.5-1.45,16.64-1,1.02-2.35,1.88-3.38,2.89-7.94.5-17.25,3.6-25.08,0-6.24-2.87-4.63-8.51-5.3-13.99-.46-3.74-.16-7.67-.96-11.58-.65-3.15-3.32-10.53-5.79-12.54l39.55,3.86h0Z"/>
            <path class="cls-20" d="M96.12,224.26c.06,2.99.4,6.7,0,9.64-.49,3.54-3.19,7.91-4.82,11.09-1.55,3.03-4.91,8.72-7.24,11.09,1.88-5.13,1.73-11.06,1.45-16.64-.21-4.05-2.48-11.53-2.41-14.71.24-11.27,7.52-24.37,6.75-39.06.83-.34,1.35,1.24,1.45,1.69,2.6,11.09,4.61,25.52,4.82,36.89h0Z"/>
            <g>
              <path class="cls-7" d="M89.85,185.68c.77,14.69-6.52,27.79-6.75,39.06l-39.55-3.86c-.26-.21-1.01-.38-.96-.96,2.35-4.33,12.75-36.99,16.16-37.13,3.17-.14,1.07,16.28,1.45,18.81,1.46-2.61,5.69-19.81,10.13-17.84,4.01,1.77-1.58,24.51-2.66,28.7-.23.89-2.66,5.55-1.21,5.55,4.13-8.93,4.72-25.43,10.85-33.28.95-1.01,1.86.82,1.93,1.21,1.31,7.4-2.1,20.4-3.86,27.97-.43,1.82-2.63,4.4-1.21,6.99,4.13-11.83,4.72-28.04,10.37-39.06,3.85-7.52,5.05-1.11,5.3,3.86h0Z"/>
              <path class="cls-5" d="M84.55,181.82c-5.65,11.02-6.24,27.23-10.37,39.06-1.42-2.59.78-5.17,1.21-6.99,1.76-7.57,5.16-20.58,3.86-27.97-.07-.39-.98-2.21-1.93-1.21,3.4-4.35,3.79-.09,7.24-2.89h0Z"/>
              <path class="cls-16" d="M59.23,204.97c.02,5.22-1.63,10.58-3.38,15.43.28-5.26,2.3-10.31,3.38-15.43Z"/>
            </g>
          </g>
          <g>
            <g>
              <path class="cls-3" d="M236.46,137.45c5.3-.44,25.76,3.86,29.42,7.24.1.09.7-.22.96.24,1.29,11.3,2.2,22.67,3.38,34-8.83-.53-17.67-.71-26.52-.96-11.07-.32-21.72-.35-32.79,0-4.99.15-9.97.19-14.95.49-.16,0-.32,0-.49,0v-.49c1.9-1.01,14.04-.49,14.71-.96.76-.54-.42-3.24.72-3.86.12.68.33,3.62.72,3.86l31.59-.24-8.2-39.3c.46-.07.98.04,1.45,0h0Z"/>
              <path class="cls-2" d="M263.95,127.81c.36.91-1.69,1.36-2.17,1.45-5.61,1.04-10.94,1.49-16.39,3.38-2.47.85-7.26,2.71-8.92,4.82-.47.04-.99-.07-1.45,0-2.3.33-5.76,3.02-8.2,2.17,9.38-5.14,14.69-13.64,20.74-21.95,2.05-2.82,8.77-14.31,10.13-15.43,3.22,8.16,4.68,16.95,6.27,25.56h0Z"/>
              <path class="cls-1" d="M386.44,153.37c-1.51.42-11.44,2.9-11.82,3.38-.11.13-.65,2.88-.72,3.38-1.67-10.43-2.79-20.98-4.82-31.35,3.18-3.38,8.26-1.05,10.61-4.82,2.33,9.69,4.04,19.85,6.75,29.42Z"/>
              <path class="cls-8" d="M379.69,123.95c-2.35,3.77-7.43,1.44-10.61,4.82-1.43-7.3-2.72-15.9-5.79-22.67,2.15.66,1.72-2.33,3.13-2.41.09,0,1.36.97,1.45.96,1.15-.07,5.77-.65,6.27-.49,2.08.69,4.8,16.68,5.55,19.77h0Z"/>
              <path class="cls-18" d="M386.44,153.37c.02.09,1.07-.11,1.45,1.21,1.53,5.27,2.62,10.8,3.86,16.16-2.82-2.32-13.72-5.05-17.36-7.72-.3-.56-.34-.37-.49-.49.07-.78-.12-1.65,0-2.41.07-.49.62-3.24.72-3.38.38-.48,10.3-2.96,11.82-3.38h0Z"/>
              <path class="cls-18" d="M259.13,99.83c-4.48,2.1-8.19,13.49-11.58,16.88-.31.31-1.42,1.31-1.93.72-.26-.53.74-10.58.96-11.82.01-.1,1.32-1.49,0-1.93,0-3.75.96-2.47,3.86-2.89,1.01,1.29,2.47-.12,3.38-.49,1.5-.6,4.03-2.45,5.3-.49h0Z"/>
              <path class="cls-1" d="M267.81,99.83c-.15.03-.32-.03-.49,0-.04-1.81-1.94-1.13-1.45.49-2.27.48-5.13.57-7.47.96-.41.18-.68.93-.72.96-1.36,1.12-8.08,12.62-10.13,15.43v-.96c3.38-3.39,7.09-14.78,11.58-16.88.9-.42,9.13-2.73,8.68,0h0Z"/>
              <path class="cls-8" d="M253.82,100.32c-.9.37-2.37,1.78-3.38.49,1.13-.16,2.09-.76,3.38-.49Z"/>
              <path class="cls-8" d="M246.59,105.62v-1.93c1.32.44.01,1.83,0,1.93Z"/>
              <path class="cls-20" d="M353.17,171.69l-65.59,13.75c-.24-.8-.83-2.09-.49-2.89.65-1.51,27.86-8.07,31.59-8.92,10.24-2.35,20.88-4.19,31.35-5.3.24-.52.29-.6.72-.96.29,1.35,1.51,3.38,2.41,4.34h0Z"/>
              <path class="cls-20" d="M355.58,158.67c-.45,0-.49.46-.96.49-22.76.88-45.97,10.75-68.24,15.43-.87-1.83-2.27-1.93,0-3.38,5.62-3.59,48.26-13.1,56.91-14.47,3.1-.49,14.61-3.4,12.3,1.93Z"/>
              <path class="cls-19" d="M265.88,144.69c-3.66-3.37-24.12-7.68-29.42-7.24,1.66-2.12,6.45-3.97,8.92-4.82,5.46-1.88,10.79-2.33,16.39-3.38.48-.09,2.53-.54,2.17-1.45,1.01,5.49,2.88,11.36,1.93,16.88h0Z"/>
              <g>
                <path class="cls-15" d="M363.3,106.11c3.07,6.77,4.36,15.36,5.79,22.67,2.03,10.37,3.16,20.92,4.82,31.35-.12.76.07,1.63,0,2.41-1.68-1.37-15.54-3.84-18.33-3.86,2.31-5.32-9.19-2.42-12.3-1.93-8.64,1.37-51.28,10.88-56.91,14.47-2.27,1.45-.87,1.54,0,3.38,22.28-4.68,45.47-14.56,68.24-15.43-.63,4.71,3.91,7.03,7.24,9.16v.49c-2.01-.9-9.18-4.34-10.85-3.38-.53.3-.08,1.79-.24,1.93-.43.37-.49.44-.72.96-10.47,1.11-21.11,2.96-31.35,5.3-3.73.85-30.94,7.41-31.59,8.92-.35.8.24,2.1.49,2.89l65.59-13.75c1.15,1.24,4.73,3.8,6.27,4.82l-.49.49c-1.99-.76-11.01-4.13-11.58-1.21-.88,4.57,27.48,19.49,32.31,20.98.1.43.38.53.49.96l-34.96-16.88c-4.85-.43-9.38-.05-6.03,5.79-.49.39-2.01,2.82-2.17,2.89-2.75,1.26-9.16.71-12.05,1.45-.12.03-.76,1.15-1.93,1.45-3.11.8-35.71,8.46-34.96,11.33.88,1.24,1.95.47,3.13.24,6.63-1.27,16.11-5.77,23.15-7.72,7.65-2.12,15.53-3.51,23.15-5.79,5.03,6.72,12.15,11.34,19.05,15.92-14.78-2.69-2.76,7.82,2.41,11.09-18.73,1.68-70.35,18.67-82.47.24-5.67-8.62-5.18-28.34-6.27-38.83-1.18-11.32-2.09-22.7-3.38-34-.26-.46-.87-.15-.96-.24.95-5.52-.91-11.39-1.93-16.88-1.59-8.6-3.04-17.4-6.27-25.56.04-.04.31-.78.72-.96,2.35-.4,5.21-.49,7.47-.96.43-.09.7-.34,1.45-.49.15-.03.32.03.49,0,16.89-3.18,69.72-11.78,83.67-6.27,5.45,2.15,9.46,7.34,11.82,12.54h-.01Z"/>
                <path class="cls-20" d="M324.96,112.37c3.82-.13,21.23-.57,23.63.49,1.07.47,3.64,4.35,2.41,5.3-23.08,2.27-45.56,7.97-68,13.5-5.22-3.17,1.38-4.37,4.34-5.3,15.7-4.95,33.4-6.93,49.43-10.85-8.72-.35-17.61,0-26.29.72-3.8.32-25.63,3.88-27.01,3.38-.93-.33-.93-1.36,0-1.93,1.54-.94,15.55-3.02,18.33-3.38,7.13-.9,15.98-1.68,23.15-1.93h0Z"/>
                <path class="cls-20" d="M351,143.24c2.08.28,3.24,1.8.96,2.89-23.09,2.57-45.81,7.8-68,14.47-8.02-2.47,7.97-6,10.61-6.75,9.59-2.74,48.47-11.69,56.43-10.61h0Z"/>
                <path class="cls-20" d="M349.55,128.77c.76.15,2.49,1.63,1.45,2.41-22.77,2.16-44.92,7.91-66.55,14.95l-1.69-1.21c-.28-1.31.85-1.69,1.69-2.17,6.49-3.74,39.16-10.82,47.75-12.05,2.38-.35,16.24-2.15,17.36-1.93h0Z"/>
              </g>
              <g>
                <path class="cls-6" d="M391.75,170.73c2.27,1.85,3.25,17.3,3.38,20.98.26,7.92-.08,15.61-1.45,23.39-2.5,1.52-4.3,1.08-6.75,1.45-.57-.79-.74-1.12-1.45-1.93-.63-.73-.95-2.11-1.93-2.89-.84-4.71-2.29-9.3-3.38-13.99-.1-.44-.38-.53-.49-.96-.78-3.49-1.21-7.13-1.93-10.61-.03-.15.03-.33,0-.49-.65-3.15-1.23-6.42-1.45-9.64.09-.55-.46-.46-.49-.49-.5-2.36-.61-10.97-1.45-12.54,3.63,2.66,14.53,5.4,17.36,7.72h0Z"/>
                <path class="cls-20" d="M386.93,216.54c1.45,2.02,2.79,4.86,4.82,6.27-.97,3.03-1.99,5.36-3.38,8.2-10.11-3.3-20.37-7.08-28.93-13.5,9.34-.76,17.97.46,27.49-.96h0Z"/>
                <path class="cls-17" d="M393.68,215.09c-.59,3.35-.91,4.53-1.93,7.72-2.03-1.4-3.37-4.24-4.82-6.27,2.46-.37,4.25.07,6.75-1.45Z"/>
                <path class="cls-7" d="M356.55,206.42c3.76.68,10.79,4.55,15.19,5.79,4.32,1.22,9.28,2.02,13.75,2.41.7.82.88,1.14,1.45,1.93-9.52,1.43-18.14.21-27.49.96-.16.01-.32-.01-.49,0-5.17-3.27-17.2-13.78-2.41-11.09h0Z"/>
                <path class="cls-7" d="M380.18,197.74c1.09,4.68,2.54,9.27,3.38,13.99-8.69-6.91-38.44-14.75-44.37-25.08-3.35-5.84,1.18-6.21,6.03-5.79l34.96,16.88Z"/>
                <path class="cls-20" d="M383.55,211.72c.99.78,1.3,2.16,1.93,2.89-4.46-.4-9.43-1.19-13.75-2.41-4.4-1.24-11.44-5.1-15.19-5.79-6.9-4.57-14.02-9.19-19.05-15.92-7.61,2.27-15.5,3.67-23.15,5.79-7.05,1.95-16.53,6.44-23.15,7.72-1.18.23-2.27,1-3.13-.24-.75-2.88,31.85-10.53,34.96-11.33,1.17-.3,1.81-1.42,1.93-1.45,2.91-.74,9.3-.19,12.05-1.45.16-.07,1.68-2.5,2.17-2.89,5.92,10.33,35.67,18.16,44.37,25.08h0Z"/>
                <path class="cls-7" d="M358.96,177c5.98,2.28,12.46,7.72,18.81,9.16.71,3.49,1.15,7.12,1.93,10.61-4.83-1.49-33.19-16.41-32.31-20.98.57-2.93,9.59.45,11.58,1.21h0Z"/>
                <path class="cls-7" d="M361.85,168.8c4.84,2.18,9.09,6.06,14.47,7.24.21,3.22.79,6.49,1.45,9.64-5.71-2.88-13.08-5.65-18.33-9.16-1.54-1.03-5.12-3.59-6.27-4.82-.9-.96-2.12-2.99-2.41-4.34.16-.13-.29-1.63.24-1.93,1.68-.96,8.85,2.47,10.85,3.38Z"/>
                <path class="cls-7" d="M373.9,162.53c.15.12.18-.08.49.49.84,1.57.95,10.18,1.45,12.54-.98-1.23-11.65-5.74-13.99-7.24-3.33-2.13-7.86-4.45-7.24-9.16.47-.01.51-.49.96-.49,2.79.02,16.64,2.49,18.33,3.86h0Z"/>
                <path class="cls-4" d="M377.76,185.68c.03.15-.03.33,0,.49-6.35-1.44-12.83-6.88-18.81-9.16l.49-.49c5.25,3.52,12.61,6.28,18.33,9.16h0Z"/>
                <path class="cls-20" d="M375.84,175.55s.57-.07.49.49c-5.38-1.18-9.63-5.05-14.47-7.24v-.49c2.33,1.49,13.01,6.01,13.99,7.24h0Z"/>
              </g>
            </g>
            <g>
              <path class="cls-12" d="M270.22,178.92c1.09,10.48.6,30.21,6.27,38.83,12.11,18.42,63.74,1.43,82.47-.24.16-.01.32.01.49,0,8.56,6.42,18.83,10.2,28.93,13.5-.97,2-4.36,9.08-5.79,10.13-3.54-4.46-11.64-5.46-17.12-6.27-16.45-2.41-88.93-5.37-99.83,5.3-.43.42-1.13.84-.49,1.45,4.39,4.57,104.03,3.84,116.95,0-24.94,41.47-74.34,62.61-121.77,62.69-6.13,0-30.62-1.49-35.21-3.86-2.03-1.05-2.49-3.11-3.13-4.82-.33-.87-.34-2.56-.49-2.89-1.3-2.97-.86-3.2-3.38-5.79-2.17-2.23-3.1-2.54-5.79-3.86-5.84-2.85-19.7-5.28-20.74-13.26-.48-3.68,3.45-11.16-4.1-12.78-8.71-1.86-6.86,4.78-11.09,8.68-9.63,8.88-44.44,2.15-58.84,12.54-5.05,3.65-4.57,9.55-12.05,9.64-21.52.29-82.84-16.63-96.69-33.76-.84-3.85-5.22-6.63-3.62-11.09l45.09,1.93c.67,5.47-.94,11.12,5.3,13.99l-10.13,1.21c5.03,6.05,12.61,7.24,20.01,7.96,11.27,1.1,27.16,2.35,33.52-8.92-.46-1.5-15.97-.39-18.33-.24,1.02-1.01,2.38-1.88,3.38-2.89,2.33-2.38,5.69-8.06,7.24-11.09,23.18-1.75,47.29,1.6,69.93-3.62,1.29-3.7-16.04-7.18-18.57-7.47-14.87-1.74-31.59-.66-46.54,0,.4-2.94.06-6.65,0-9.64l38.83,3.86c1.87-15.3,5.05-30.27,7.96-45.33l24.12-2.41c.02.15-.02.32,0,.49,1.88,13.62,4.16,28.77,4.82,42.44.13,2.74-.89,23.69.24,24.12l42.68-13.5c.89,10.27,1.65,20.63,2.89,30.87l31.1-9.16c1.28-1.15.61-3.7.72-5.3,1.55-21.55-1.16-38.97-4.34-59.8-.63-4.12-.76-8.41-1.45-12.54,8.85.26,17.69.43,26.52.96h.03Z"/>
              <path class="cls-11" d="M382.59,241.14s.07.57-.49.49c-12.91,3.84-112.56,4.57-116.95,0-.65-.61.05-1.02.49-1.45,10.9-10.67,83.37-7.72,99.83-5.3,5.48.8,13.58,1.8,17.12,6.27h0Z"/>
              <path class="cls-9" d="M49.34,233.42c.8,3.91.51,7.83.96,11.58l-45.09-1.93c-1.6,4.46,2.78,7.24,3.62,11.09-3.05-3.78-6.43-8.15-3.86-13.26,4.65-9.25,35.2-7.29,44.37-7.47h0Z"/>
              <path class="cls-11" d="M91.3,245c1.63-3.18,4.34-7.55,4.82-11.09,14.95-.66,31.67-1.74,46.54,0,2.53.29,19.86,3.77,18.57,7.47-22.64,5.21-46.75,1.87-69.93,3.62h0Z"/>
              <path class="cls-11" d="M55.61,258.98c7.83,3.6,17.14.5,25.08,0,2.35-.15,17.86-1.26,18.33.24-6.35,11.27-22.25,10.02-33.52,8.92-7.41-.72-14.99-1.9-20.01-7.96l10.13-1.21h0Z"/>
              <path class="cls-9" d="M210.9,177.96c.46,5.75,1.14,11.61,1.45,17.36.66,12.3,1.38,24.37,2.41,36.66l-5.79-15.92c-3.31-12.07-7.71-23.89-13.02-35.21.16-.65-.11-1.67,0-2.41,4.99-.29,9.96-.32,14.95-.49h0Z"/>
            </g>
            <g>
              <g>
                <path class="cls-17" d="M245.14,190.5c3.18,20.84,5.89,38.25,4.34,59.8l-15.19-43.89c-1.37,0-7.57,24.62-8.92,25.8-.15.13-3.1-1.63-3.86-.49,1.91,11.26-2.19,22.11-3.86,33.04-1.24-10.23-2.01-20.59-2.89-30.87-.05-.63.05-1.29,0-1.93-1.04-12.28-1.75-24.36-2.41-36.66,10.34-4.49,21.79-3.81,32.79-4.82h0Z"/>
                <path class="cls-20" d="M249.48,250.3c-.12,1.6.56,4.15-.72,5.3l-31.1,9.16c1.67-10.93,5.77-21.77,3.86-33.04.76-1.15,3.71.61,3.86.49,1.35-1.18,7.55-25.8,8.92-25.8l15.19,43.89h-.01Z"/>
                <path class="cls-6" d="M243.7,177.96c.68,4.12.82,8.42,1.45,12.54-11,1.01-22.45.33-32.79,4.82-.31-5.75-.99-11.61-1.45-17.36,11.08-.35,21.72-.32,32.79,0h0Z"/>
              </g>
              <g>
                <path class="cls-5" d="M171.84,180.37l16.16,24.12c2.07-7.68,6.08-16.06,7.96-23.63,5.31,11.32,9.72,23.14,13.02,35.21l-37.13,7.24c-.67-13.66-2.94-28.82-4.82-42.44,1.47-.86,3.21-.39,4.82-.49h0Z"/>
                <path class="cls-20" d="M208.97,216.06l5.79,15.92c.05.63-.05,1.29,0,1.93l-42.68,13.5c-1.13-.42-.11-21.37-.24-24.12l37.13-7.24h0Z"/>
                <path class="cls-17" d="M195.47,177.96v.49c-7.86.47-15.75,1.48-23.63,1.93-1.6.1-3.35-.38-4.82.49-.02-.15.02-.32,0-.49-1.03-7.36-2.18-14.81-4.34-21.95l15.67-9.41c7.83,8.25,12.29,18.84,17.12,28.93h0Z"/>
                <path class="cls-4" d="M195.47,178.45c.16,0,.32,0,.49,0-.11.74.16,1.76,0,2.41-1.87,7.57-5.88,15.95-7.96,23.63l-16.16-24.12c7.88-.45,15.77-1.46,23.63-1.93Z"/>
              </g>
            </g>
          </g>
        </g>
        <g>
          <path class="cls-17" d="M144.11,272.97c6.58-.85,20.37,2.69,15.67,11.82-4.69,9.13-26.26,4.21-23.63-6.75.58-2.41,5.71-4.77,7.96-5.07Z"/>
          <path d="M146.03,273.45c9.33-2.39,13.55,7.37,4.82,8.68-8.05,1.21-10.5-7.23-4.82-8.68Z"/>
        </g>
        <g>
          <path class="cls-17" d="M212.35,284.06c1.78.43,3.93,2.43,5.79,2.89,2.52,2.59,2.07,2.82,3.38,5.79-.61.75-.65,1.93-.96,2.89-2.61,8.12-12.6,9.24-17.36,2.66-5.56-7.69-.33-16.52,9.16-14.22h0Z"/>
          <path class="cls-8" d="M218.14,286.96c-1.86-.46-4.01-2.46-5.79-2.89v-.96c2.69,1.32,3.62,1.63,5.79,3.86h0Z"/>
          <path class="cls-8" d="M221.99,295.64h-1.45c.31-.96.35-2.14.96-2.89.15.33.15,2.03.49,2.89Z"/>
          <path d="M210.18,284.74c9.52-1.07,6.11,12.25-1.45,8.68-3.53-1.67-3.17-8.16,1.45-8.68Z"/>
        </g>
      </g>
      <path class="cls-10" d="M9.82,166.94C37.96,26.15,30.53,45.69,167.22,64.74c-7.97,55.23-24.6,109.12-31.45,164.69-28.24-7.55-58.21-3.88-87.18-7.76-56.1-12.85-51.82,2.58-38.77-54.74h0Z"/>
      <path class="cls-10" d="M259.47,105.72c31.04,128.17-27.39,133.26,124.53,108.22-30.81-144.48,7.17-126.69-138.14-111.06l3.41,2.68"/>
      <path class="cls-10" d="M157.01,120.27c-1.07-1.97,21.96,1.52,18.58,4.63"/>
      <path class="cls-10" d="M173.24,106.74c1.24,9.11,9.52,16.94,16.64,22.4-9.1-2.31-17.93,2.63-25.48,7.23,1.71-.6,3.57-.81,5.38-.6"/>
      <path class="cls-10" d="M266.52,128.87c-6.78.11-13.53,1.44-19.84,3.92.89-.96,1.78-1.93,2.66-2.9"/>
      <path class="cls-10" d="M248.88,117.23c-5.6,8.34-12.27,15.97-19.78,22.64,9.32-5.02,24.14-.15,33.23,4.35-.6-.8-2.16-.04-1.13.54"/>
      <path class="cls-10" d="M49.81,234.49c-5.17-15.57,1.11-38.89,9.38-54.48,6.33,8.93.04,25.26-1.2,36.06,6.44-40.41,21.3-49.82,11.13-.7,1.57-11.89,3.44-24.47,11.15-33.65.14,12.25-1.01,24.51-3.44,36.51,2.11-13.78,4.74-27.92,12.23-39.68,6.41,10.15-13.74,77.67,1.29,50.8,14.53-30.74,7.69,15.06-2.59,22.15.19-.45.38-.9.57-1.35"/>
      <path class="cls-10" d="M47.24,69.47c13.89,6.04,102.71,1.56,94.93,10.69"/>
      <path class="cls-10" d="M42.96,83.94c33.01,6.26,66.02,12.51,99.02,18.77-.54.48-1.09.96-1.63,1.43"/>
      <path class="cls-10" d="M42.24,103.76c30.01,6.17,60.41,10.4,90.96,12.64"/>
      <path class="cls-10" d="M35.47,116.37c35.42,5.87,70.99,10.82,106.66,14.85-1.79.46-3.58.93-5.38,1.4"/>
      <path class="cls-10" d="M28.63,131.64c34.32,5.52,68.71,10.58,103.16,15.2-1.96.23-3.93.46-5.88.68"/>
      <path class="cls-10" d="M26.03,147.28c15.19-3.07,30.42,6.44,45.86,5.19-1.74-.1-3.46-.19-5.2-.29"/>
      <path class="cls-10" d="M22.36,161.09c5.54-.17,11.1.14,16.58.92-.76.11-1.5.43-2.1.9"/>
      <path class="cls-10" d="M281.44,117.23c-.63-.04-1.25-.08-1.87-.12,21.81,2.15,43.44-2.53,65.03-3.22-.83,2.73-4.81,3.32-4.3-.26"/>
      <path class="cls-10" d="M283.11,133.42c14.57-7.57,46.72-11.72,67.81-14.1-1.01-.04-2.02-.09-3.03-.14"/>
      <path class="cls-10" d="M281.56,147.82c18.64-6.35,47.79-15.13,70.62-14.08-1.54.26-3.22-.41-4.15-1.68"/>
      <path class="cls-10" d="M282.83,161.24c21.79-6.52,53.92-10.63,70.91-17.07"/>
      <path class="cls-10" d="M286.23,175.49c9.02-4.86,23.63-2.86,30.07-8.47"/>
      <path class="cls-10" d="M324.85,164.3c7.33-1.2,14.67-2.39,22.01-3.59-.4-.17-.8-.34-1.21-.51"/>
      <path class="cls-10" d="M286.87,186.88c17.66-4.31,35.32-8.61,52.98-12.92-.85.5-1.83.76-2.81.73"/>
      <path class="cls-10" d="M290.46,205.33c11.63-3.83,23.26-7.67,34.88-11.5-.46-.09-.93-.18-1.4-.26"/>
      <path class="cls-10" d="M394.3,173.54c-25.18-18.17-66.18-20.53-16.31,4.8-7.43-6.71-16.96-11.07-26.9-12.28,5.27,10.38,16.22,16.45,26.79,21.31-10.45-6.2-21.78-10.91-33.55-13.94,6.01,10.19,17.28,15.87,27.95,21-6.56-2.79-32.72-24.69-32.82-9.74,9.57,18.63,37.48,18.04,49.61,34.15-11.64.66-21.56-7.76-32.45-11.94-21.45.46,31.39,31.11,35.66,20.17"/>
      <path class="cls-10" d="M137.83,184.19c44.17-5.22,88.74-7.04,133.19-5.44"/>
      <path class="cls-10" d="M165.38,166.58c5.46,33.99,7.35,46.64,7.32,81.06"/>
      <path class="cls-10" d="M241.55,163.36c4.35,30.26,11.18,62.11,7.66,92.46"/>
      <path class="cls-10" d="M183.45,197.43c8.1,12.18,9.58-2.88,10.94-10.61,1.41.63.63,3.3-.9,3.07"/>
      <path class="cls-10" d="M184.7,222.16c3.68-1.96,7.98-2.74,12.11-2.21"/>
      <path class="cls-10" d="M222.56,215.64c6.01,17.22,9.07-7.83,14.42-7.1"/>
      <path class="cls-10" d="M186.76,242.94c1.42-2.18,13.19-3.85,10.79-2.12"/>
      <path class="cls-10" d="M223.93,235.46c1.47,3.94,3.64,7.63,6.38,10.83,1.92-7.53,5.82-14.54,11.19-20.14"/>
      <path class="cls-10" d="M220.22,192.87c4.24-1.62,8.88-2.16,13.37-1.57"/>
      <path class="cls-10" d="M104.81,44.56c8.35-14.01,16.69-28.04,25.03-42.05,5.07,13.88,9.26,28.07,12.53,42.48"/>
      <path class="cls-10" d="M100.4,30.71c16.93-.92,33.86-1.85,50.79-2.77-.9-.71-2.02.57-2.44,1.63"/>
      <path class="cls-10" d="M294.44,76.39c-.39,1.25-.78,2.51-1.18,3.76-.3-13.11-.93-26.67-2.54-39.47,22.41,1.93,20.12,11.22.99,17.57,32.52-1.54,34.59,21.53,1.32,18.46,2.24.6-.83-.93,1.42-.33h0Z"/>
      <path class="cls-10" d="M391.55,172.2c-5.99-25.04-11.6-50.18-16.79-75.41,1.1,1.83,2.2,3.67,3.29,5.5"/>
      <path class="cls-10" d="M224.57,300.93c70.62,11.87,133.9-9.91,167.77-75.33"/>
      <path class="cls-10" d="M47.5,234.6c-69.51-5.11-44.33,26.7,2.21,41.7,18.44,5.96,37.79,8.41,56.99,11,2.52-.43,2.97,3.59.82,1.93"/>
      <path class="cls-10" d="M107.21,296.17c2.4-22.65,49.56-36.92,55.31-10.7-9.42,11.25-40.6-4.38-18.17-12.31,9.07-3.4,19.23-1.55,28.23-4.29,5.54-2.98,8.52-14.15,16.29-11.33,5.19,2.4,2.64,10.44,4.99,15.65,4.88,9.36,22.17,5.73,26.43,17.14,4.56,8.77-9.64,14.96-15.56,9.11-12-26.65,28.26-15.07,18.88,14.76"/>
    </g>
  </g>
</svg>