<?xml version="1.0" encoding="UTF-8"?>
<svg id="Ebene_2" data-name="Ebene 2" xmlns="http://www.w3.org/2000/svg" viewBox="0 0 410.32 303.36">
  <defs>
    <style>
      .cls-1 {
        fill: #c8b096;
      }

      .cls-2 {
        fill: #fefdfd;
      }

      .cls-3 {
        fill: #dce6de;
      }

      .cls-4 {
        fill: #363a47;
      }

      .cls-5 {
        fill: #f7c036;
      }

      .cls-6 {
        fill: #fadbb5;
      }

      .cls-7 {
        fill: #f4ffed;
      }

      .cls-8 {
        fill: #f36340;
      }

      .cls-9 {
        fill: #fefaf3;
      }

      .cls-10 {
        fill: #e0502e;
      }

      .cls-11 {
        fill: #cacccc;
      }

      .cls-12 {
        fill: #e1ac8d;
      }

      .cls-13 {
        fill: #e4e4e4;
      }

      .cls-14 {
        fill: #d69522;
      }

      .cls-15 {
        fill: #fbd96e;
      }

      .cls-16 {
        fill: #9a9995;
      }

      .cls-17 {
        fill: #e3b092;
      }

      .cls-18 {
        fill: #dca127;
      }

      .cls-19 {
        fill: #2d2923;
      }

      .cls-20 {
        fill: #c17e16;
      }

      .cls-21 {
        fill: #f7cd5b;
      }

      .cls-22 {
        fill: #d1bfa7;
      }

      .cls-23 {
        fill: #f7d1a1;
      }

      .cls-24 {
        fill: #f7ba31;
      }

      .cls-25 {
        fill: #fbdf79;
      }

      .cls-26 {
        fill: #161518;
      }

      .cls-27 {
        fill: #dcc399;
      }

      .cls-28 {
        fill: #f8cb42;
      }

      .cls-29 {
        fill: #e0ae91;
      }

      .cls-30 {
        fill: #e9a823;
      }

      .cls-31 {
        fill: #f6cd95;
      }

      .cls-32 {
        fill: #e5b191;
      }

      .cls-33 {
        fill: #fff;
      }

      .cls-34 {
        fill: #fffbf8;
      }

      .cls-35 {
        fill: #f7c3a1;
      }

      .cls-36 {
        fill: #daa789;
      }

      .cls-37 {
        fill: #f5f4f4;
      }

      .cls-38 {
        fill: #f8c439;
      }

      .cls-39 {
        fill: #191614;
      }

      .cls-40 {
        fill: #f7d3a6;
      }

      .cls-41 {
        fill: #f9c133;
      }

      .cls-42 {
        fill: #9b7b48;
      }

      .cls-43 {
        fill: #2a2b33;
      }

      .cls-44 {
        fill: none;
        stroke: #000;
        stroke-miterlimit: 10;
      }

      .cls-45 {
        fill: #e7e8e9;
      }

      .cls-46 {
        fill: #fefefe;
      }

      .cls-47 {
        fill: #efbda1;
      }

      .cls-48 {
        fill: #f0af1d;
      }

      .cls-49 {
        fill: #494e5e;
      }

      .cls-50 {
        fill: #f6c435;
      }

      .cls-51 {
        fill: #3d424b;
      }

      .cls-52 {
        fill: #3a383a;
      }

      .cls-53 {
        fill: #f9c2a2;
      }

      .cls-54 {
        fill: #434755;
      }

      .cls-55 {
        fill: #7d7d7a;
      }

      .cls-56 {
        fill: #8c8b88;
      }

      .cls-57 {
        fill: #2c2d34;
      }

      .cls-58 {
        fill: #afaeac;
      }

      .cls-59 {
        fill: #fce580;
      }

      .cls-60 {
        fill: #cfd0d0;
      }

      .cls-61 {
        fill: #e2ffe8;
      }

      .cls-62 {
        fill: #f8d19f;
      }

      .cls-63 {
        fill: #322e2d;
      }
    </style>
  </defs>
  <g id="versicherungen">
    <g>
      <g id="Generatives_Objekt" data-name="Generatives Objekt">
        <path class="cls-33" d="M88.12,265.36c.31,1.22,1.07,3.3.93,4.5-.31,0-.69.02-1.09,0-.28-.01-.2.86-.65.91-2.58.31-5.14-.55-7.59.09-1.16.3-1.88.74-3.27.42-2.6-.6-5.4-.08-8.06-.03l-5.23.11c-1.83.04-3.69.71-5.54.47-3.22-.42-6.27-.08-9.49.06l-12.7.56c-3.33.15-6.4.76-10-.1,3.66-1.68,6.82-3.67,10.52-4.96.73-.25,1.67-.53,2.43-1.21,1.1.21,1.94-.91,3.09-1.23l5.36-1.5c12.69-3.55,9.56-2.18,24.43-.99l2.87.23c4.72.38,10.06,1.08,13.98,2.68Z"/>
        <path class="cls-45" d="M49.09,292.58l-18.9-.62c-2.92-.1-5.71-.29-8.62-.48l-9.32-.59c-3.04-.19-5.9-.17-9.14-.45.8-.93,8.71-1.37,10.89-1.47.71-.03,1.57-.88,2.66-.57,2.46.71,4.77-.05,7.16-.3l12.26-1.3c3.15-.33,4.27-.51,7.63-.78l8.47-.69,5.71-.34,8.8-.99c1.67-.19,3.32-.46,4.89.08l-5,.48-5.37.48c-2.29.21-7.63.94-9.58,1.74-1.02.42-6.03.28-12.79,2.56-.63.21-.82,1.72-.26,1.86.52.13,1.4.46,2.1.49l10.39.4c.94.04,1.86.18,2.95.46-1.59.51-3.22.08-4.94.02Z"/>
        <path class="cls-22" d="M260.52,114.31l-.12,2.55c-.65.09-1,.59-1.67.72-2.56.51-5.18.98-7.61,1.93-.98-.32-1.05-1.53-1.71-2.16.42-.29.91-.53,1.53-.69l9.57-2.35Z"/>
        <path class="cls-33" d="M327.51,298.27c-4.12-.81-6.46-4.24-7.78-8.25-.04-.11-.02-.24,0-.36.6.81,1.99.27,2.58.73,1.16.92,5.01,6.72,5.2,7.88Z"/>
        <path class="cls-45" d="M215.18,286.67c.21-.07-15.65,1.76-17.29,1.62,1.47-1.13,3.27-.93,4.81-1.1l4.43-.49,7.31-.4c1.82-.1,3.64-.35,5.6-.09-1.57.74-3.22-.13-4.86.45Z"/>
        <path class="cls-33" d="M125.08,277.05v.45c-.88.1-2.23-.44-2.7.45-.14.03-.31,0-.45,0l-1.84-.03c-.89-.01-1.92-.41-2.26.49-.41,0-.83-.05-1.25,0-.46-1.05-1.83-.17-2.34.42-.25-.05-.61-.18-.82,0-.07-1.34-2.84.42-4.99.03,1.36-1.57,13.47-1.8,16.65-1.8Z"/>
        <path class="cls-45" d="M185.5,289.39c-.06.02-9.54,1.13-10.52.54,1.41-.76,2.93.11,4.42-.46,1.71-.66,3.44.03,5.22-.49,1.9-.55,4.05-.21,6.18-.09-1.69.84-3.55-.18-5.29.49Z"/>
        <path class="cls-45" d="M113.42,278.82c-.56.47-7.07.93-8.14.93v-.45c1.12.08,2-.66,3.15-.45,2.15.39,4.92-1.37,4.99-.03Z"/>
        <path class="cls-33" d="M98.38,86.83c-.41-.07-.73.47-1.05.49-.76.06-2.14-2.64-1.95-2.81,1.3.43,2.33,1.03,3.01,2.32Z"/>
        <path class="cls-33" d="M341.01,62.91c-.61,1.1-.91,2.65-2.17,3.1-.19-.93.46-1.69.47-2.59.6-.09,1.04-.71,1.69-.51Z"/>
        <path class="cls-45" d="M121.93,277.95c.07.19-.04.46-.43.46h-3.67c.34-.9,1.36-.51,2.26-.49l1.84.03Z"/>
        <path class="cls-45" d="M135.92,292.55c-1.13.41-2.31.38-3.69.03,1.13-.41,2.31-.38,3.69-.03Z"/>
        <path class="cls-45" d="M172.81,290.3c-1.13.41-2.31.38-3.69.03,1.13-.41,2.31-.38,3.69-.03Z"/>
        <path class="cls-45" d="M128.68,277.05c-.04-.14.02-.31,0-.45,1.12-.01,2.28-.17,3.64.21-1.21.52-2.44.24-3.64.24Z"/>
        <path class="cls-45" d="M125.98,277.05h2.7c.22.84-2.3.31-3.6.45v-.45h.9Z"/>
        <path class="cls-45" d="M81.03,282.65c-.97.42-2.02.38-3.23.04.97-.42,2.02-.38,3.23-.04Z"/>
        <path class="cls-45" d="M116.58,278.4c-.74.43-1.5.59-2.34.42.51-.59,1.89-1.46,2.34-.42Z"/>
        <path class="cls-45" d="M88.23,281.75c-.8.42-1.72.38-2.78.04.8-.42,1.72-.38,2.78-.04Z"/>
        <path class="cls-33" d="M380.64,287.15c-.8.42-1.72.38-2.78.04.8-.42,1.72-.38,2.78-.04Z"/>
        <path class="cls-33" d="M128.68,276.6c.02.14-.04.31,0,.45h-2.7c.47-.83,1.83-.44,2.7-.45Z"/>
        <path class="cls-45" d="M74.24,283.35c.59-.88,1.89-.49,2.73-.23-1.05.51-1.91.11-2.73.23Z"/>
        <path class="cls-45" d="M125.08,277.5c-.47.96-1.83.24-2.7.45.47-.89,1.82-.35,2.7-.45Z"/>
        <path class="cls-45" d="M91.82,281.3c-.64.42-1.43.39-2.32.05.64-.42,1.43-.39,2.32-.05Z"/>
        <path class="cls-45" d="M84.62,282.2c-.64.42-1.43.39-2.32.05.64-.42,1.43-.39,2.32-.05Z"/>
        <path class="cls-33" d="M405.83,289.84c-.64.42-1.43.39-2.32.05.64-.42,1.43-.39,2.32-.05Z"/>
        <path class="cls-45" d="M104.83,279.75c-.32.81-1.63.56-2.3.2.94-.43,1.62-.11,2.3-.2Z"/>
        <path class="cls-45" d="M74.24,283.35c-.32.81-1.63.56-2.3.2.94-.43,1.62-.11,2.3-.2Z"/>
        <path class="cls-45" d="M149.4,291.64c-.64.42-1.43.39-2.32.05.64-.42,1.43-.39,2.32-.05Z"/>
        <path class="cls-45" d="M142.66,292.09c-.64.42-1.43.39-2.32.05.64-.42,1.43-.39,2.32-.05Z"/>
        <path class="cls-45" d="M195.29,288.49c-.64.42-1.43.39-2.32.05.64-.42,1.43-.39,2.32-.05Z"/>
        <path class="cls-33" d="M332.01,282.7c-.47.36-1.03.26-1.84.09.25-.53.76-.48,1.84-.09Z"/>
        <path class="cls-45" d="M245.64,284.05c-.47.36-1.03.26-1.84.09.25-.53.76-.48,1.84-.09Z"/>
        <path class="cls-33" d="M347.31,284.05c-.47.36-1.03.26-1.84.09.25-.53.76-.48,1.84-.09Z"/>
        <path class="cls-45" d="M240.69,284.5c-.47.36-1.03.26-1.84.09.25-.53.76-.48,1.84-.09Z"/>
        <path class="cls-33" d="M376.55,286.75c-.47.36-1.03.26-1.84.09.25-.53.76-.48,1.84-.09Z"/>
        <path class="cls-45" d="M99.58,280.16c.48.25.27.5-.25.55-1.05-.07-.91-.61.25-.55Z"/>
        <path class="cls-45" d="M105.28,279.75h-.45c-.07-.32.15-.47.45-.45v.45Z"/>
        <circle class="cls-45" cx="165.79" cy="290.77" r=".22"/>
        <path class="cls-45" d="M156.26,290.96c.48.25.27.5-.25.55-1.05-.07-.91-.61.25-.55Z"/>
        <circle class="cls-45" cx="133.4" cy="276.37" r=".22"/>
        <circle class="cls-45" cx="135.65" cy="276.37" r=".22"/>
        <path class="cls-33" d="M327.51,298.27c.12.26.08.35.03.33s-.11-.15-.03-.33Z"/>
        <circle class="cls-33" cx="326.39" cy="282.22" r=".22"/>
        <path class="cls-33" d="M397.84,288.71c.48.25.27.5-.25.55-1.05-.07-.91-.61.25-.55Z"/>
        <path class="cls-33" d="M84.6,91.25l-.92,1.41c-.02-.47-.06-.96,0-1.43.45.14.39-.54.8-.47.11.09.31.47.13.49Z"/>
        <circle class="cls-33" cx="371.83" cy="286.27" r=".22"/>
        <path class="cls-33" d="M122.41,54.44c-.18-.16-.14-.3.04-.43.56-.2.46.48-.04.43Z"/>
        <circle class="cls-33" cx="362.16" cy="285.37" r=".37"/>
        <path class="cls-33" d="M168.38,84.1c-.19-.03-.41.19-.59-.03,0-.34.21-.56.56-.46.23.15.26.32.03.49Z"/>
        <path class="cls-33" d="M341.6,283.31c.48.25.27.5-.25.55-1.05-.07-.91-.61.25-.55Z"/>
        <circle class="cls-33" cx="337.64" cy="283.12" r=".22"/>
        <path class="cls-33" d="M407.64,75.2c.18.32-.04.26-.27.31-.44.11-.89-.13-.46-.45.29-.22.4-.69.7-.48.02.21-.06.42.02.63Z"/>
        <path class="cls-33" d="M358.15,265.75c-.43.06-.44.23-.52.61-.41.19-.59-.26-.49-.56-.15-.39.33-.54.73-.45.16.04.47.12.28.4Z"/>
        <g>
          <g>
            <path class="cls-54" d="M247.43,115.6c-.52-.11-.53.36,0,.45.72.12.95.77.65,1.06-.14.13-.41.47-.77.57l-25.88,7.28c-1.63.46-3.56.1-5.48.9-6.29,2.6-10.56,2.38-16.57,4.71-2.12,16.25-3.02,32.21-3.18,48.71l-8.01-9.41c-1.99-1.8-4.37-3.65-6.87-3.14-4.09-1.77-8.73-1.89-12.71-2.63l8.31-78.31c1.07-.22,2.2-.12,3.57,0,13.71,1.26,26.95,3.84,40.36,7.3,4.89,1.26,8.75,3.32,12.33,6.64,5.28,4.89,10.25,10.09,14.28,15.87Z"/>
            <path class="cls-49" d="M83.68,91.23c-.06.47-.02.96,0,1.43.97,21.63,8.3,58.34,13.97,79.59-1.68.81-3.63.79-5.38,1.28-1.99-11.96-3.39-24.05-10.49-34.63-3.06-4.56-6.06-8.91-10.26-12.65,3.98,7.35,8.06,13.91,10.9,21.64,1.58,4.13,3.1,7.79,3.75,12.6-11.09-2.57-22-2.5-33.06.14-7.85,1.87-15.13,4.35-22.08,8.46-1.12.66-1.95,1.64-3.09,1.32,2.4-13.07,2.43-25.76,8.06-40.38,1.27-3.3,3.13-5.77,5.88-8.2,10.76-9.53,29.04-24.03,41.25-30.87.13-.07.42.25.55.28Z"/>
            <path class="cls-57" d="M221.42,124.96c.46.85-.81,1.23-.63,2.08-1.61.28-3.18.93-4.82,1.09-.29.03-.65.12-.46.49l-13.15,4.46c-.03,13.05-.15,25.67.48,38.67.7,14.6,2.73,28.91,9.52,41.41-.31.67.26,1.33.36,1.84,3.22,16.22,7.71,32.53,15.36,47.18,1.83.93-10.29,1.98-10.79,2.05l-.07-.48c-.03-.22,1.35-.06,1.28-.29l-9.07-32.4c-1.82-6.5-3.23-12.7-4.43-19.58-3.87-.27-7.6-.77-11.1-1.37.98-.63,7.84-5.19,5.45-6.57-.35-.2-.87-.57-1.42-.71-3.59-.93-7.27-1.43-10.78-2.33,2.7.14,11.91-2.96,10.59-6.85-.49-1.44-1.59-2.46-3.39-2.68l-8.18-.99c4.06-1.23,11.28-4.18,10.43-9.18-.18-1.07-1.73-1.64-2.7-1.69l-15.85-.72c1.61-.87,10.14-1.22,7.97-6.18-.82-1.87-2.62-4.57-4.74-5.48,2.5-.51,4.88,1.34,6.87,3.14l8.01,9.41c.16-16.5,1.06-32.46,3.18-48.71,6.02-2.33,10.29-2.11,16.57-4.71,1.92-.79,3.86-.44,5.48-.9Z"/>
            <path class="cls-63" d="M197.98,14.85c-4.7-.21-9.4-.73-14.47-.82-12.39-.21-24.5.54-36.8,1.94-2.9.33-5.86.97-7.92,2.66-3.48,2.87-5.72,6.75-8.39,10.37-1.44-.29-2.79-.96-4.42-.7l1.08,12.56c.05.58-.13,1.01-.4,1.12-.35.15-1.36.26-1.51-.34-1.06-4.44-1.59-8.83-2.49-13.46-.47-8.94-.34-17.89-.27-27.21,2.9-.49,5.32-.41,8.17-.17,16.7,1.36,53.63,4.77,68.4,9.22,3.36,1.01,6.27,2.99,8.15,6.01-.96-.39-1.4-.83-2.41-.88l-6.72-.3Z"/>
            <path class="cls-11" d="M67.99,178.9c-2.1,22.98,4.98,43.51,19.81,61.16l.87.05c-1.5.66-3.06,1.33-5.04,1.83-.61.16-1.43-.72-1.77-.17-.28.46-.45,1.13-.49,1.58-9.83-2.99-17.38-10.02-22.94-18.54-1.24-1.89-1.67-4.75-2.24-7.05-2.74-11.13-3.06-22.63-1.64-34,1.97-1.47,4.37-1.47,6.15-2.54,2.21-1.32,5.12-1.37,7.29-2.32Z"/>
            <path class="cls-43" d="M92.27,173.53l-7.14,2.01c-.24.07-.36.31-.55,0l-.43-.31c-.28-3.09.02-6-.49-8.84-.22-1.23.77-2.85-.24-4.34-16.01.19-31.75,2.65-47.07,7.17.17,2.49.42,4.07-.15,5.64-1.85-.12-9.59,1.23-8.69-2.19,3.02,1.23-3.24.62,1.53,1.25,1.9.25,4.61,1.26,6.61.16.84-.85.09-3.88-.94-4.37-2.19.21-4.28,1.98-6.3,2.42-.4-.08-.66-.04-.79.03l.32-1.74c1.14.32,1.97-.66,3.09-1.32,6.95-4.11,14.22-6.59,22.08-8.46,11.06-2.63,21.97-2.71,33.06-.14-.65-4.81-2.17-8.47-3.75-12.6-2.83-7.73-6.92-14.29-10.9-21.64,4.2,3.73,7.2,8.08,10.26,12.65,7.1,10.58,8.5,22.67,10.49,34.63Z"/>
            <path class="cls-13" d="M95.37,84.51c-.19.18,1.2,2.87,1.95,2.81.32-.03.65-.56,1.05-.49,1.92.43,3.5,1.77,5.46,1.87,11.49,13.39,31.3,17.47,48.71,14.76,6.17-.96,11.32-4.28,14.6-9.14.47-.7.73-1.45,1.58-1.26-.21,2.25-1.21,4.22-1.73,6.32-.16-.32.07-.81-.29-.91-4.62,7.32-12.05,11.37-20.5,11.58-18.88.46-33.63-5.12-46.05-19.44-.63-.72-.77-1.49-1.6-1.57-.49-.05-.66-.82-1.57-.99-.56.97.04,2.14-.99,2.89-2.33-2.41-3.87-5.29-6.34-6.96-.18-.77.61-2.67,1.62-2.47,1.67.32,2.56,2.5,4.09,3Z"/>
            <path class="cls-1" d="M176.25,268.64c13.7-.6,27.4-2.45,41.03-4.41.5-.07,12.62-1.12,10.79-2.05l5.83,11.16-55.73-3.97c-.59-.04-1.08.03-1.51.03-.26,0-.6-.4-.4-.76Z"/>
            <path class="cls-51" d="M249.41,117.35c.65.63.73,1.84,1.71,2.16,0,.38.24.68.32,1.04-10.05,2.71-20.37,4.68-30.65,6.49-.18-.85,1.09-1.22.63-2.08l25.88-7.28c.35-.1.62-.44.77-.57.31-.29.08-.94-.65-1.06-.53-.08-.52-.55,0-.45.67.54,1.35,1.14,1.98,1.75Z"/>
            <path class="cls-26" d="M27.52,172.66c.13-.15.08-.34.11-.51.14-.07.39-.12.79-.03,2.02-.44,4.11-2.21,6.3-2.42,1.04.48,1.78,3.51.94,4.37-2,1.1-4.71.09-6.61-.16-4.77-.63,1.49-.02-1.53-1.25Z"/>
            <path class="cls-7" d="M80.07,176.26c-1.47,10.06-1.77,20.28,0,30.6,2.02,11.81,7.03,21.49,10.31,32.41-.35.49-1.19.62-1.71.84l-.87-.05c-14.83-17.65-21.91-38.18-19.81-61.16,3.69-1.62,7.84-2.67,12.08-2.64Z"/>
            <g>
              <path class="cls-47" d="M167.32,85l2.75,1.73c.25.16.52-.4.54-.43.48,2.39-1.67,4.41-1.89,6.76-.84-.19-1.11.56-1.58,1.26-3.28,4.86-8.43,8.18-14.6,9.14-17.4,2.7-37.22-1.37-48.71-14.76,6.89-10.97,13.26-22.53,18.57-34.26.5.05.6-.64.04-.43.52-.25,1.3-1.53,2.14-.9-.44,12.98.23,27.85,14,34,6.01,2.68,12.34,3.8,18.87,3.62,4.3-.12,7.68-2.4,9.87-5.72Z"/>
              <path class="cls-36" d="M197.98,14.85c.13.05-.1.53-.41.74-5.08-.35-9.68,1.05-14.17,1.51l-29.05,3.01c-3.71.38-13.31.81-13.96,4.14-10.57,6.8-11.68,31.07-9.83,42.22.98,5.92,4.27,10.21,9.52,13.05,6.64,3.59,14.15,5.28,21.87,5.58,1.94.08,3.63-.88,5.35-.67l.02.56c-2.19,3.33-5.57,5.61-9.87,5.72-6.53.17-12.86-.94-18.87-3.62-13.77-6.15-14.45-21.02-14-34-.84-.63-1.62.65-2.14.9-9.43,4.56-9.23-24.18-4.09-26.47,1.54-.69,3.06.22,4.31.65.89,4.63,1.43,9.02,2.49,13.46.15.61,1.16.49,1.51.34.27-.12.45-.55.4-1.12l-1.08-12.56c1.62-.26,2.98.41,4.42.7,2.67-3.62,4.91-7.5,8.39-10.37,2.06-1.7,5.02-2.33,7.92-2.66,12.3-1.4,24.41-2.15,36.8-1.94,5.07.09,9.77.61,14.47.82Z"/>
              <path class="cls-32" d="M183.4,17.11c-.3.52-.29,1.3-.73,1.73l-16.67,1.89c-8.77.99-17.18,2.23-25.61,3.53.65-3.33,10.25-3.76,13.96-4.14l29.05-3.01Z"/>
              <path class="cls-52" d="M171.04,84.48c.33.6-.46,1.27-.43,1.82-.02.04-.3.59-.54.43l-2.75-1.73-.02-.56c.17.02.48-.19.48-.37.18.22.41,0,.59.03.85.14,2.14-.44,2.67.38Z"/>
              <g>
                <path class="cls-53" d="M182.67,18.84l-2.32,12.12c-.23,1.19-.59,2.24-.41,3.25-2.07.52-4.25-.44-6.21-1.78-.95.77-2.98,1.88-4.46,1.54-.33-.25.07-2.03-.6-1.94-8.13,1.1-16.27,2.6-24.29,5.92,1.41,2.69,4.1,3.86,6.29,5.59,3.55,2.8,7.94,5.13,12.59,4.72,1.13-.1,1.72-.42,2.7-1.08,5.96-3.93.31-11.38,7.08-10.96,1.2,3.36,1.04,7.13,3.02,10.02,1.29,1.88,4.06,1.13,6.09.92-1.39,17.15-6.28,12.15-8.78,19.23-2.07,5.9-2.1,11.82-5.03,17.22-.36-.1-.56.12-.56.46,0,.18-.31.39-.48.37-1.72-.21-3.41.75-5.35.67-7.72-.3-15.23-1.99-21.87-5.58-5.25-2.84-8.54-7.12-9.52-13.05-1.85-11.15-.74-35.42,9.83-42.22,8.43-1.3,16.83-2.54,25.61-3.53l16.67-1.89Z"/>
                <path class="cls-34" d="M160.17,64.67v.56c-.68.04-1.79-.3-1.69-.78.52-.73,1.23.21,1.69.21Z"/>
              </g>
              <g>
                <path class="cls-53" d="M83.66,166.38c.51,2.84.21,5.75.49,8.84l.43.31c-1.43.24-3.02.74-4.52.72-4.24-.03-8.39,1.01-12.08,2.64-2.18.96-5.08,1-7.29,2.32-.23-.24.01-.92.28-.85.24.06,1.73-.77,1.72-.71.07-.31,0-.7-.37-.68.4-.02-9.32,2.98-10.15,4.58-1.24,12.23-.6,24.36,2.14,36.28-2.03,1.05-10.83,4.82-11.11,6.4-1.77-3.03-2.38-6.76-2.94-10.53-1.99-13.46-2.67-26.94-3.43-40.42,13.93-4.54,31.8-8.92,46.84-8.9Z"/>
                <path class="cls-12" d="M83.66,166.38c-15.04-.02-32.91,4.36-46.84,8.9l-.61-.43c.57-1.57.32-3.15.15-5.64,15.32-4.52,31.06-6.98,47.07-7.17,1.01,1.48.02,3.11.24,4.34Z"/>
                <path class="cls-29" d="M60.69,181.23c-1.78,1.07-4.18,1.07-6.15,2.54-1.42,11.37-1.1,22.86,1.64,34,.57,2.29,1,5.15,2.24,7.05-2.97.77-13.42,4.51-15.23,1.43.28-1.58,9.09-5.34,11.11-6.4-2.74-11.92-3.38-24.05-2.14-36.28.83-1.6,10.55-4.6,10.15-4.58.37-.02.44.37.37.68.01-.06-1.48.77-1.72.71-.26-.07-.51.62-.28.85Z"/>
                <path class="cls-35" d="M193.9,210.1c-3.32.67-6.45,2.17-9.91,1.94-.25-1.02-.54-2.14-1.37-2.84.01-.35-.12-.69-.05-1.04,3.94-.43,8.01-.3,12.12-.34,1.38-.01,2.35-.11,3.21-1.57.34-.58,1.59-1.32,1.13-2.22-.19-.36-.7-.27-.86-.34-.25-.11-.56-.6-.25-.88.54.14,1.07.5,1.42.71,2.39,1.38-4.47,5.94-5.45,6.57Z"/>
                <path class="cls-53" d="M168.58,164.1c3.99.74,8.63.87,12.71,2.63,2.11.92,3.92,3.61,4.74,5.48,2.17,4.96-6.36,5.31-7.97,6.18l15.85.72c.97.04,2.52.62,2.7,1.69.85,4.99-6.37,7.94-10.43,9.18l8.18.99c1.8.22,2.9,1.23,3.39,2.68,1.32,3.89-7.9,6.99-10.59,6.85-2.73-.7-5.83.13-8.58.11l-7.77-11.17-17.63-24.2c5.46-.96,10.53-.77,15.41-1.14Z"/>
                <path class="cls-17" d="M187.16,200.5c3.51.9,7.19,1.4,10.78,2.33-.31.28,0,.77.25.88.16.07.67-.02.86.34.47.9-.78,1.64-1.13,2.22-.86,1.46-1.83,1.56-3.21,1.57-4.11.03-8.18-.09-12.12.34-2.18-1.87-2.4-5.25-4.01-7.56,2.76.02,5.86-.8,8.58-.11Z"/>
              </g>
              <g>
                <path class="cls-19" d="M163.26,33.77v14.48c-4.65.41-9.03-1.92-12.58-4.72-.11-.38.28-.83.76-1.03l8.27-3.43c1.6-.66,2.16-3.05,2.15-4.65,0-.67.92-.52,1.39-.64Z"/>
                <path class="cls-55" d="M165.97,47.18c-.99.65-1.57.98-2.7,1.08v-14.48c1.53-.41,2.9-.88,5.12-1.02.62,3.9.86,11.37-2.33,13.65-.18.13.05.63-.08.78Z"/>
                <g>
                  <path class="cls-39" d="M179.95,34.2c3.82,1.61,7.6,3.8,6.58,8.41-.46,2.06-2.29,3.59-4.37,4.55-2.02.21-4.8.97-6.09-.92-1.98-2.9-1.82-6.66-3.02-10.02-6.76-.42-1.12,7.03-7.08,10.96.13-.15-.1-.65.08-.78,3.19-2.28,2.96-9.75,2.33-13.65-2.22.14-3.59.61-5.13,1.02-.47.13-1.4-.02-1.39.64.01,1.6-.55,3.99-2.15,4.65l-8.27,3.43c-.49.2-.88.65-.76,1.03-2.19-1.73-4.88-2.9-6.29-5.59,8.02-3.32,16.16-4.82,24.29-5.92.67-.09.27,1.69.6,1.94,1.48.34,3.51-.77,4.46-1.54,1.96,1.33,4.14,2.3,6.21,1.78Z"/>
                  <path class="cls-56" d="M180.99,35.36c1.26,1.83,1.98,11.43-1.29,10.96-.94-.81.11-2.56.1-3.62l-.04-4.44c0-1.04-.11-2.22,1.23-2.91Z"/>
                </g>
              </g>
            </g>
            <g>
              <path class="cls-4" d="M193.9,210.1c3.49.6,7.22,1.11,11.1,1.37,1.2,6.88,2.61,13.09,4.43,19.58l9.07,32.4c.06.23-1.32.07-1.28.29l.07.48c-13.63,1.96-27.34,3.81-41.03,4.41l-52.05,2.28-34.15.16c-.36,0-1.01-.89-1-1.22.14-1.2-.62-3.28-.93-4.5l-4.94-19.73c-.29-1.15-.87-1.99-1.82-2.27.04-.45.21-1.12.49-1.58.34-.55,1.15.33,1.77.17,1.99-.5,3.55-1.17,5.04-1.83.51-.23,1.36-.35,1.71-.84l17.27-6.62c1.45-.55,3.03-.18,4.43-.41,2.77-.45,5.36-1.15,8.49-2.09l43.2-12.95c1.17-.35,2.39-.58,3.6-.88,2.26-.56,4.93-1.21,6.23-3.17.25-.37.17-.55.13-1-.12-.09.09-.36.36-.49,3.45.89,6.75.15,9.91.36,3.45.23,6.59-1.27,9.91-1.94Z"/>
              <path class="cls-3" d="M97.65,172.25c3.75,14.05,8.33,28.09,13.87,41.37.65,1.55,1.7,2.36,3.82,2.61,15.31,1.81,30.83,2.35,46.24.97.84-.08,1.94-1.09,2.18.02l-43.2,12.95c-3.13.94-5.72,1.63-8.49,2.09.03-.41-.69-.3-.96-1,.21-.47,1.17-.63,1.27-1.35-15.33-9.06-25.62-36.26-27.52-53.05.22-.41.65-.67.51-.96-.05-.12-.2-.14-.25-.34l7.14-2.01c1.75-.49,3.7-.47,5.38-1.28Z"/>
              <path class="cls-61" d="M112.08,232.25c-1.4.23-2.98-.15-4.43.41l-17.27,6.62c-3.27-10.92-8.28-20.59-10.31-32.41-1.77-10.32-1.47-20.54,0-30.6,1.5.01,3.09-.48,4.52-.72.19.31.32.07.55,0,.04.2.19.22.25.34.13.29-.29.55-.51.96,1.9,16.78,12.19,43.98,27.52,53.05-.11.72-1.07.89-1.27,1.35.26.7.98.59.96,1Z"/>
              <path class="cls-2" d="M167,99.39c-.84,3.42-1.87,6.74-3.15,10.01-7.01,6.44-14.27,10.78-24.79,8.78-9.8-1.86-18.73-5.55-27.4-9.78-1.07-1.46-2.28-2.8-3.34-4.44-3.28-5.05-7.09-9.66-9.75-14.92.83.08.97.85,1.6,1.57,12.42,14.33,27.17,19.9,46.05,19.44,8.45-.21,15.88-4.26,20.5-11.58.36.1.13.59.29.91Z"/>
              <g>
                <path class="cls-25" d="M175.46,82.81c-.13.21-.61-.14-.62.02-.02.28-.45.8-.52,1.06l-6.12,23.12-15.09,57.59c-2.55,2.82-5.27,5-8.36,7.05-.51.34-1.01.41-.82,1.06l-59.34-81.47c.18-.02-.01-.4-.13-.49-1.48-1.23,4.13-5.71,5.18-6.78,2.47,1.67,4,4.55,6.34,6.96,1.03-.75.43-1.92.99-2.89.91.17,1.07.95,1.57.99,2.66,5.26,6.47,9.87,9.75,14.92,1.07,1.64,2.27,2.98,3.34,4.44l33.29,45.29c1.27,1.72,2.07,3.9,4.24,5.7l12.86-44.38c.49-1.7,1.16-3.97,1.8-5.61,1.28-3.26,2.31-6.59,3.15-10.01.52-2.1,1.52-4.07,1.73-6.32.22-2.35,2.37-4.37,1.89-6.76-.03-.55.76-1.22.43-1.82,1.58-.31.92-2.8,2.19-3.43,1.38-.69,1.97,1.03,2.23,1.76Z"/>
                <path class="cls-41" d="M175.46,82.81c.37,1.03,1.24,1.86,1.43,2.97l-8.31,78.31c-4.88.36-9.95.18-15.41,1.14l17.63,24.2,7.77,11.17c1.61,2.31,1.83,5.69,4.01,7.56-.07.35.06.69.05,1.04-.36.43-.76-.29-1.51.25l-18.84-15.44c-2.99-2.45-5.51-4.93-7.93-7.94-.68-.84-1.17-1.85-2.27-1.76l-8.13-11.6c-.19-.66.31-.73.82-1.06,3.09-2.05,5.81-4.23,8.36-7.05l15.09-57.59,6.12-23.12c.07-.26.5-.78.52-1.06.01-.16.49.19.62-.02Z"/>
                <path class="cls-37" d="M143.94,172.72l8.13,11.6,21.65,27.85c.03.45.11.63-.13,1-.4-.67-1.24-.48-1.7-.62l-25.33-7.75c-4.46-1.36-8.71-2.73-13.4-3.63-7.44-1.42-15.17.97-19.8,6.59-1.33,1.62-1.71,3.84-1.85,5.84-5.54-13.27-10.12-27.32-13.87-41.37-5.67-21.25-13.01-57.95-13.97-79.59l.92-1.41,59.34,81.47Z"/>
                <path class="cls-16" d="M162.84,213.15c-1.32.6,5.35,3.01,4.52,3.18-1.21.3-2.43.52-3.6.88-.24-1.11-1.34-.1-2.18-.02-15.41,1.38-30.93.85-46.24-.97-2.12-.25-3.17-1.06-3.82-2.61.14-2,.51-4.22,1.85-5.84,3.23,2.74,6.74,4.27,11.3,4.63,12.86,1.01,25.57,1.58,38.17.74Z"/>
                <path class="cls-30" d="M182.63,209.21c.83.7,1.12,1.81,1.37,2.84-3.16-.21-6.46.53-9.91-.36-.27.12-.48.39-.36.49l-21.65-27.85c1.11-.09,1.59.92,2.27,1.76,2.42,3.01,4.94,5.49,7.93,7.94l18.84,15.44c.75-.54,1.15.18,1.51-.25Z"/>
                <path class="cls-58" d="M171.9,212.56c.46.14,1.3-.06,1.7.62-1.3,1.95-3.97,2.6-6.23,3.17.83-.18-5.84-2.59-4.52-3.18l9.05-.6Z"/>
                <path class="cls-8" d="M163.84,109.4c-.64,1.64-1.31,3.92-1.8,5.61-.38,0-.83-.5-1.19-.27-.4.25-.57.69-.83,1.2-5.9,11.36-10.07,23.25-13.83,35.56-.32,1.04-.61,1.7-1.25,2.19l-33.29-45.29c8.67,4.23,17.61,7.92,27.4,9.78,10.53,2,17.78-2.34,24.79-8.78Z"/>
                <path class="cls-10" d="M162.04,115.01l-12.86,44.38c-2.17-1.8-2.98-3.98-4.24-5.7.64-.49.93-1.15,1.25-2.19,3.76-12.32,7.93-24.21,13.83-35.56.26-.51.43-.94.83-1.2.36-.23.81.26,1.19.27Z"/>
                <path class="cls-60" d="M171.9,212.56l-9.05.6c-12.6.83-25.31.27-38.17-.74-4.57-.36-8.07-1.89-11.3-4.63,4.63-5.62,12.36-8.02,19.8-6.59,4.69.9,8.94,2.26,13.4,3.63l25.33,7.75Z"/>
              </g>
            </g>
          </g>
          <g>
            <path class="cls-38" d="M277.56,134.52c-1.35.16-2.61-.46-4.18-1.44-12.59,7.74-26.3,15.02-39.97,20.03.54,5.45,1.37,10.32,1.52,15.52.21,7.07,1.18,13.71,2.13,20.24.94,6.44,1.39,13.09,4.62,19.4,3.45,6.72,7.46,12.83,12.27,18.7,7.85,9.59,16.26,18.86,25.94,26.19.79.6,2.04-.84,2.85-1.56,13.81-12.51,24.89-27.3,34.45-42.96.23.02.43.34.94,0,1.85,1.1,3.62,2.61,5.7,2.68l-4.02,8.03c-1.48,1.66-2.41,3.85-3.64,5.61-3.09,4.4-6.45,8.61-9.36,13.4,3.76-4.21,7.14-8.55,10.26-13.04.51-.74,1.39-1.31,1.95-2.44-.01,1.75-.78,2.83-.52,4.27.09.51.31,1.32.93,1.83,13.76,11.16,25.65,24.05,37.71,36.81-.09.3.09.75.49.56-.09.44.44.64.41,1.22-13.23-9.59-32.6-20.54-49.35-20.63-3.82-.02-6.68,2.38-6.47,6.34.38,7.13,13.58,29.28,17.52,36.37-.02.12-.04.24,0,.36-3.48-2.76-6.66-5.69-11.14-7.9-13.37,1.29-26.55-.24-39.58.36-1.39.06-2.43-.85-3.41-1.61-7.36-5.69-13.58-12.33-19.51-19.2-.29-.33.16-.4.5-.41h6.6c6.66,5.75,14.76,9.74,22.42,14.37,1.31-1.59,1.96-2.28,2.73-3.7-1.62-2.19-3.45-3.96-5.42-6.01-13.92-14.51-30.9-33.06-40.87-50.5-2.06-3.6-3.53-7.13-4.06-11.25-3.14-21.32-2.97-43.4-2.52-65.09l51.72-13.79c.42,3.28.42,6.27.37,9.23Z"/>
            <path class="cls-5" d="M303.58,103.45c3.21,2.62,7.81,1.83,10.67-1.74,8.99-11.22,17.16-22.83,24.62-34.91-.66-.38-.64-.82-.01-.78,1.26-.45,1.55-2,2.17-3.1.31-.04.44.1.47.29.06.33-.22.63-.37.89-6.78,11.67-12.16,24.13-14.91,37.42-.65,3.13-.43,5.86,1.34,7.74,2.08,2.22,5.4,2.9,8.67,1.29l56.97-28.1c4.53-2.24,8.48-4.62,12.83-5.58l-31.65,24.29c-9.03,6.93-22.01,17.33-28.86,26.11-1.7,2.18-5.32,8.17-4.3,10.02,1.71,3.07,8.33,1.92,11.99,1.3l26.06-4.41c8.34-1.41,16.31-2.55,24.75-2.86.58-.02,1.2-.03,1.32.4l-30.3,13.87c-7.91,3.62-31.91,17.7-36.23,25.36-2.5,4.42-3.74,9.2-4.21,13.95-.4-.17-.35.52-.75.4.1-5.05.84-10.03,1.38-15.34l3.24-31.38c-1.1-.13-1.64.13-2.17.28.13-1.41.28-3.34.34-4.5,3.1,1.76,2.02-8.86,2.14-10.97-.79-.32-1.26.34-1.82.35-14.43.42-43.27-6.54-58.42-10.56-.97.47-2.2.36-2.79.59-.37-.38-1.57-1.73-1.76-.19-4.45,1.17-8.96,2.68-13.57,3.3l.12-2.55c1.93-4.35,1.65-9.49,1.04-14.52l-2.62-21.58c-.9-7.46-1.36-14.57-.69-22.44l4.42,14.8c2.45,8.19,9.29,26.57,15.42,31.84,1.15.99,3,1.61,4.52,1.03,4.26-1.62,4.28-12.74,4.77-17.6,1.01-10.01,1.5-19.61,3.43-29.74,2.47,14.2,4.7,29.59,10.16,43.3.69,1.74,1.36,3.03,2.6,4.04Z"/>
            <path class="cls-20" d="M215.51,128.62c.34.44.24,1.01.22,1.82-.57,19.13-.96,37.9-.13,57.03.59,13.6,1.54,26.23,7.78,38.18.22.42.66,1.15.26,1.4-1.65-1.51-2.75-3.51-4.57-4.81-1.89-2.58-3.73-5.22-5.77-7.69.23-.62-.34-1.25-.93-1.38-6.78-12.51-8.81-26.81-9.52-41.41-.63-13-.51-25.62-.48-38.67l13.15-4.46Z"/>
            <path class="cls-24" d="M382.77,199.55c-14.26,4.89-28.88,8.34-43.95,11.25-6.24,1.2-11.55,3.9-16.09,7.89-.17.15-.18.72-.55.96-.18.12-.4.5-.53-.17,6.18-9.23,12.14-21.49,12.61-33.14-.38-.38-.45-.8-.45-1.07.4.12.35-.58.75-.4-.11,1.17,3.58,2.64,4.79,3.05,11.49,3.8,30.26,9.39,42.16,10.77.37.04,1,.18,1.23.38.12.1-.19.27.02.49Z"/>
            <path class="cls-33" d="M333.82,185.28c0,.27.07.69.45,1.07-.48,11.64-6.44,23.91-12.61,33.14-.66.39-1.2-.28-1.84-.13l4.02-8.03c2.01-4.02,3.45-8.24,4.45-13.05,2.94-14.07,4.99-27.89,6.35-42.21l1.63-17.23c.54-.15,1.07-.41,2.17-.28l-3.24,31.38c-.55,5.3-1.29,10.28-1.38,15.34Z"/>
            <path class="cls-62" d="M407.61,74.58c-.3-.2-.41.27-.7.48-.43.32.02.56.46.45.22-.05.45,0,.27-.31.72.79.63-.71,1.78.09-1.26.4-2.14,1.29-3.41,1.57-4.35.95-8.29,3.34-12.83,5.58l-56.97,28.1c-3.27,1.61-6.58.93-8.67-1.29,3.65.39,7.15-.32,10.89-2.17l43.96-21.71,23.82-11.49c.49-.24,1.04-.25,1.34.02.13.12.03.47.06.68Z"/>
            <path class="cls-27" d="M223.63,227.06c1.19,1.09,2.01,2.78,3.04,4.23,7.82,10.93,16.43,21.22,26.52,29.96h-6.6c-.34.01-.79.09-.5.42-10.09-11.7-18.86-24.55-26.62-38.09-.29-.51-.25-1.09-.42-1.32,1.82,1.3,2.92,3.31,4.57,4.81Z"/>
            <path class="cls-23" d="M405.31,131.7c-.13-.43-.74-.42-1.32-.4-8.43.31-16.4,1.45-24.75,2.86l-26.06,4.41c-3.66.62-10.28,1.77-11.99-1.3,6.22-.31,8.29-.36,15.08-1.49l25.35-4.19c5.1-.84,21.48-3.34,25.54-1.95-.41.6-.92.61-1.14.85-.27.28.19.76.38.61.22-.18.76-.47.92.36-.64.48-1.44-.02-2.01.24Z"/>
            <path class="cls-6" d="M358.15,265.75c.19-.28-.12-.37-.28-.4-.4-.09-.89.06-.73.45-12.06-12.76-23.94-25.64-37.71-36.81-.62-.51-.84-1.31-.93-1.83l2.84-.06c13.58,11.61,26.25,23.96,37.61,37.69.37.45.48.92.25,1.01-.36.14-.7-.11-1.05-.05Z"/>
            <path class="cls-31" d="M339.32,63.42c-.01.9-.66,1.66-.47,2.59-.63-.04-.65.4.01.78-7.46,12.08-15.63,23.69-24.62,34.91-2.86,3.57-7.46,4.36-10.67,1.74,4.56-.91,6.42.02,10.29-4.9,8.91-11.31,17.01-22.84,24.65-35l.8-.12Z"/>
            <path class="cls-40" d="M382.77,199.55c-.2-.22.1-.38-.02-.49-.23-.2-.86-.33-1.23-.38-11.89-1.38-30.66-6.97-42.16-10.77-1.22-.4-4.91-1.88-4.79-3.05,1.02.76,2.53-.16,3.57.18,9.25,3.03,18.2,5.63,27.5,8.1,6.34,1.68,12.5,3.05,19.02,3.58-.15,1-.89.89-1.16,1.62.76.36,1.3.19,1.63.7-.98.6-1.78.32-2.35.5Z"/>
            <path class="cls-33" d="M317.07,225.33c-3.11,4.49-6.5,8.83-10.26,13.04,2.91-4.79,6.27-9.01,9.36-13.4-.11.33.06.37.33.41.22.03.4.12.57-.04Z"/>
            <path class="cls-46" d="M213.28,214.55c-.34-.13-.53.16-.58.45-.1-.51-.67-1.17-.36-1.84.59.13,1.16.76.93,1.38Z"/>
            <path class="cls-14" d="M317.2,208.65c-9.56,15.66-20.64,30.45-34.45,42.96-.81.73-2.06,2.16-2.85,1.56.16-.72.79-1.54.77-2.29,3.99-2.98,25.8-34.32,25.28-36.36,1.3-.86,1.71-2.53,2.63-4.09,5.55-9.42,9.22-19.5,11.22-30.18-3.79.44-6.77,1.16-9.87.93l-2.47-40.76c-9.86.43-19.41-1.05-28.51-4.98-.6-.26-.98-.27-1.31-.15,0-.28-.18-.5-.08-.78.05-2.96.05-5.96-.37-9.23l-51.72,13.79c-.45,21.69-.62,43.77,2.52,65.09.53,4.12,2,7.65,4.06,11.25,9.97,17.45,26.95,35.99,40.87,50.5,1.97,2.06,3.81,3.83,5.42,6.01-.77,1.42-1.42,2.11-2.73,3.7-7.66-4.63-15.77-8.62-22.42-14.39-10.09-8.74-18.7-19.03-26.52-29.96-1.04-1.45-1.86-3.14-3.04-4.23.41-.26-.04-.98-.26-1.4-6.23-11.95-7.19-24.58-7.78-38.18-.83-19.13-.44-37.9.13-57.03.02-.81.12-1.39-.22-1.82-.19-.38.17-.47.46-.49,3.22,2.13,6.32,4.4,9.49,7.2l52.04-12.91,51.15,10.11c-.09,15.87-.47,31.25-2.56,46.84-.95,10.74-4.37,20.01-8.89,29.28Z"/>
            <path class="cls-15" d="M277.56,134.52c-.11.28.07.5.08.78l1.21,46.79c-.69.8-.29,2.03-.83,2.97l-40.96,3.82c-.96-6.54-1.93-13.18-2.13-20.24-.15-5.2-.99-10.07-1.52-15.52,13.68-5.01,27.38-12.28,39.97-20.03,1.57.97,2.83,1.59,4.18,1.44Z"/>
            <path class="cls-48" d="M278.03,185.05c0-.13.91-.11.92.36l1.73,65.46c.02.75-.61,1.57-.77,2.29-9.68-7.34-18.1-16.6-25.94-26.19-4.81-5.88-8.82-11.99-12.27-18.7-3.24-6.3-3.68-12.95-4.62-19.4l40.96-3.82Z"/>
            <path class="cls-59" d="M336.93,123.72c.03,3.53-.15,7.09-.32,10.62-.06,1.16-.2,3.09-.34,4.5l-1.63,17.23c-1.36,14.32-3.41,28.14-6.35,42.21-1,4.8-2.44,9.03-4.45,13.05-2.08-.07-3.85-1.58-5.7-2.68-.5.35-.71.02-.94,0,4.53-9.28,7.94-18.54,8.89-29.28,2.09-15.59,2.47-30.97,2.56-46.84l-51.15-10.11-52.04,12.91c-3.17-2.8-6.27-5.06-9.49-7.2,1.65-.16,3.21-.81,4.82-1.09,10.27-1.81,20.6-3.78,30.65-6.49l7.24-1.95c5.71-1.54,11.57-2.72,17.04-4.84.6-.23,1.82-.12,2.79-.59,15.15,4.02,43.99,10.98,58.42,10.56Z"/>
            <path class="cls-9" d="M336.61,134.34c.17-3.53.35-7.08.32-10.62.56-.02,1.03-.67,1.82-.35-.12,2.1.95,12.73-2.14,10.97Z"/>
            <path class="cls-18" d="M275.72,113.75c-5.47,2.12-11.33,3.3-17.04,4.84l.05-1.02c.67-.13,1.02-.64,1.67-.72,4.61-.61,9.12-2.13,13.57-3.3.19-1.53,1.39-.19,1.76.19Z"/>
            <path class="cls-42" d="M258.68,118.6l-7.24,1.95c-.08-.36-.32-.66-.32-1.04,2.43-.95,5.05-1.42,7.61-1.93l-.05,1.02Z"/>
            <path class="cls-21" d="M309.64,181.55c.56,9.81-.32,21.42-3.51,31.15-.23.7-.29,1.32-.17,1.81.51,2.04-21.29,33.38-25.28,36.36l-1.73-65.46c-.01-.48-.93-.49-.92-.36.54-.93.14-2.17.83-2.97.02.85.13,1.8.42,2.82l30.36-3.35Z"/>
            <path class="cls-28" d="M309.93,181.18c-.26-.02-.31.15-.29.37l-30.36,3.35c-.3-1.02-.4-1.98-.42-2.82l-1.21-46.79c.33-.12.71-.11,1.31.15,9.1,3.93,18.65,5.41,28.51,4.98l2.47,40.76Z"/>
            <path class="cls-50" d="M305.96,214.52c-.12-.49-.06-1.12.17-1.81,3.19-9.73,4.08-21.34,3.51-31.15-.01-.21.03-.39.29-.37,3.1.24,6.08-.49,9.87-.93-1.99,10.67-5.66,20.76-11.22,30.18-.92,1.56-1.33,3.23-2.63,4.09Z"/>
          </g>
        </g>
      </g>
      <path class="cls-44" d="M166.87,86.23c-.53.52-1.32-.63-.84-1.19s1.36-.49,2.1-.37c17.72,2.87,35.44,5.74,53.15,8.61,1.89.31,4.01.56,5.55-.59-1.26-.78-2.92-.89-4.27-.28,7.26,6.8,14.52,13.6,21.78,20.4,3.33,3.12,8.2,6.41,12.01,3.9-1.64-.95-3.67-1.2-5.5-.69,1.21.24,2.34.86,3.19,1.75"/>
      <path class="cls-44" d="M337.92,124.82c1.95,1.27,4.61.69,6.06-1.3-7.88.06-15.77.11-23.62-.76-16.99-1.9-33.61-8.15-50.68-8.14.73-.21,3.82-1.73,4.55-1.94,1.17.71,2.48,1.1,3.8,1.12-24.53,9.01-50.77,10.44-75.06,20.31-.34,16.08-.7,33.51.85,49.49.81,8.38,2.14,16.86,5.5,24.31,4.65,10.32,12.74,17.72,19.69,26.04,6.08,7.28,11.42,15.44,17.95,22.15,8.84,9.07,19.53,15.17,30.09,21.15,14.19-20.39,31.64-37.43,45.21-58.4,4.08-6.3,7.83-13.05,9.88-20.61,1.43-5.3,1.99-10.86,2.5-16.39,1.37-14.62,2.53-29.26,3.69-43.91.16-2,.32-4,.48-6.01"/>
      <path class="cls-44" d="M214.55,126.83c2.91,27.61,1.57,55.57,2.87,83.35.26,5.55.66,11.25,2.75,16.22,1.49,3.55,3.78,6.53,6.03,9.46,4.35,5.66,8.69,11.33,13.04,16.99,1.38,1.8,2.81,3.68,3.44,6"/>
      <path class="cls-44" d="M335.64,123.48c.81,33.11-3.77,66.39-13.41,97.5"/>
      <path class="cls-44" d="M304.61,144.46c.86.23,1.79.52,2.36,1.32.48.69.6,1.63.71,2.52,1.73,15.2,3.46,30.57,2.05,45.81-.51,5.48-1.43,10.96-3.25,16.04-1.85,5.17-4.57,9.83-7.28,14.44-6.33,10.79-12.93,21.89-22.4,28.76-1.66-4.45-5.08-7.57-8.27-10.65-5.28-5.09-10.29-10.58-14.99-16.41-4.01-4.97-7.81-10.25-10.58-16.29-6.46-14.11-6.65-30.91-6.69-46.96,0-3.23.07-6.75,1.79-9.26,1.15-1.68,2.87-2.64,4.54-3.51,9.4-4.95,21.48-12.44,31.9-13.07,9.51-.57,20.89,4.75,30.12,7.26Z"/>
      <path class="cls-44" d="M109.96,214.3c.81.97,1.61,1.94,2.42,2.91-15.66-40.45-25.35-83.2-28.65-126.44-.1-1.25.19-2.97,1.45-3.03,3.5-.17,5.11-.35,8.42-1.51.45-.27-.46-.86-.73-.41s.07,1,.4,1.41c27.3,34.28,53.83,69.17,79.56,104.65,3.35,6.92,6.7,13.85,10.05,20.77-29.99-23.26-52.74-54.52-72.86-86.7,21.19,29.34,42.38,58.67,63.57,88.01-19.49-5.82-39.29-15.69-59.16-11.33,1.72,2.49-2.17,5.27-2.49,8.28-.27,2.55,2.29,4.68,4.84,4.92,2.55.24,5.01-.87,7.34-1.94-2.2.63-4.4,1.26-6.6,1.89,18.62,4.25,38.17-4.19,57.03-1.14-17.92,4.55-35.66,9.81-53.16,15.77,9.14-10.29,25.7-8.98,37.53-16.03-2.2-.02-4.41-.04-6.61-.06"/>
      <path class="cls-44" d="M152.27,167.65c-1.12.4-2.48,0-3.19-.96,10.53-3.38,22.21-3.03,32.51.98,2.77,1.08,5.95,3.43,5.1,6.28-.33,1.1-1.22,1.94-2.16,2.59-2.27,1.57-5.08,2.34-7.84,2.15,6.01-.69,12.16-.11,17.94,1.7.84.26,1.75.62,2.16,1.39.83,1.57-.95,3.24-2.54,4.03-4.15,2.09-8.71,3.38-13.34,3.77,5.02.16,10.01,1.12,14.73,2.84,1.51.55,3.3,1.85,2.69,3.33-.27.65-.94,1.03-1.57,1.36-3.27,1.69-6.63,3.18-10.08,4.48,4.73.33,9.42,1.17,13.97,2.51-5,7.34-15.57,10.24-23.61,6.48,1.42-.03,2.84-.07,4.26-.1"/>
      <path class="cls-44" d="M97.29,172.51c-14.18,2.26-28.07,6.31-41.25,12.02-2.44,11.13-3.57,22.95-.02,33.78,3.42,10.42,11.22,19.32,21.1,24.06,1.37.66,2.84,1.25,4.36,1.13,1.03-.08,2-.49,2.95-.9,8.08-3.46,16.02-7.28,23.77-11.44,3.95-2.12,8.02-4.48,10.36-8.31,2.34-3.82,2.22-9.52-1.42-12.13"/>
      <path class="cls-44" d="M70.91,174.75c-2.44-.28-3.48,3.01-3.53,5.47-.29,14.73,2.8,29.51,8.96,42.89,3.4,7.37,8.56,14.95,16.49,16.7-11.46-18.3-15.93-40.86-12.33-62.15.32-1.9,1.02-4.14,2.88-4.62,2.69,17.32,9.36,34,19.35,48.4,3.49,5.03,8.11,10.19,14.22,10.64.76-1.46.46-3.39-.7-4.56-1.07.22-2,1.01-2.4,2.02"/>
      <path class="cls-44" d="M56.65,225.04c-4.39,1.35-8.78,2.71-13.17,4.06-4.19-17.89-6.35-36.26-6.43-54.63,0-1.18.03-2.45.76-3.38.62-.79,1.62-1.16,2.57-1.49,13.93-4.73,28.78-6.75,43.47-5.9-.81,4.8-.49,9.8.91,14.46"/>
      <path class="cls-44" d="M36.72,174.71c-2.99.37-5.99.75-8.98,1.12.29-9.81,1.52-19.59,3.67-29.16,1.57-6.97,3.68-13.96,7.64-19.91,4.56-6.84,11.3-11.9,17.89-16.81,8.27-6.16,16.55-12.33,24.82-18.49.21.66.41,1.4.07,2s-1.45.68-1.59,0"/>
      <path class="cls-44" d="M97.12,86.87l-3.12-3.22c4.28,2.91,8.55,5.83,12.83,8.74,4.3,2.93,8.61,5.86,13.29,8.13,9.11,4.4,19.62,6.1,29.55,4.14,9.93-1.96,19.19-7.69,24.85-16.08-1.34-.45-2.52-1.36-3.3-2.54-1.61,8.14-4.84,15.95-9.44,22.85-1.72,2.57-3.66,5.06-6.17,6.86-7.88,5.67-18.82,3.28-27.94-.07-12.92-4.74-25.3-10.92-36.85-18.41.6-3.1,3-6.03,6.14-6.38,3.14-.34,6.41,2.82,5.48,5.84"/>
      <path class="cls-44" d="M275.07,140.62c-.57-.03-.16-1.27.38-1.09s.73.97.82,1.63c4.92,35.44,2.07,71.78,5.39,107.48-.45-2.45-.89-4.9-1.34-7.35"/>
      <path class="cls-44" d="M238.46,181.47c-1.41,1.68-2.82,3.36-4.23,5.04,3.05,1.9,6.68,1.82,10.13,1.66,25.49-1.15,50.93-3.71,76.22-7.66-1.49.83-3.24,1-4.83.49"/>
      <path class="cls-44" d="M101.09,91.76c8.86-11.19,15.84-23.86,20.55-37.33-.41,1.11-1.27,2.05-2.35,2.55-4.93-7.43-5.96-17.31-2.67-25.59.7-1.77,2.15-3.75,4.01-3.35.95.21,1.65,1.01,2.22,1.8,2.57,3.54,4.21,7.74,4.73,12.07-1.06.11-2.13.22-3.19.32-1.32-13.85-2.01-27.77-2.06-41.68,16.53,1.74,33.06,3.48,49.59,5.22,7.69.81,15.41,1.63,22.89,3.59,5.16,1.36,10.63,3.63,13.11,8.36-1.27-.09-2.54-.19-3.81-.28"/>
      <path class="cls-44" d="M172.4,67.89c-1.33,5.55-2.28,11.19-2.85,16.87-8.69.36-17.38.73-26.08,1.09-2.69.11-5.47.21-7.98-.75-4.4-1.67-7.02-6.17-8.77-10.54-1.71-4.27-2.93-8.73-3.62-13.27-.25-1.67-.43-3.41.06-5.02.48-1.62,1.78-3.1,3.46-3.32,1.67-.22,3.5,1.26,3.24,2.93"/>
      <path class="cls-44" d="M145.62,39.8l-1.49-.28c6-4.41,13.88-6.15,21.17-4.67,3.32.67,7,2.58,7.38,5.94.36,3.08-2.33,5.72-5.16,6.99-3.08,1.37-6.6,1.75-9.9,1.06-2.38-.5-5.06-2.23-4.71-4.64.2-1.32,1.27-2.32,2.31-3.14,4.62-3.66,10.05-6.28,15.78-7.63,2.19-.52,4.48-.85,6.68-.38,3.71.79,6.63,3.78,8.41,7.13.66,1.23,1.2,2.72.63,4-.4.92-1.3,1.53-2.16,2.05-1.56.96-3.25,1.85-5.08,1.94s-3.83-.87-4.39-2.61c-.56-1.73.46-3.66,1.95-4.71s3.33-1.43,5.11-1.78c.9-.18,1.85-.35,2.73-.08s1.64,1.16,1.44,2.06c-.42.22-.84.44-1.26.67"/>
      <path class="cls-44" d="M184.16,15.5c-4.21,15.04-4.78,31.1-1.63,46.4.25,1.2.15,2.94-1.07,3.04-.35.03-.68-.11-1-.24-3.1-1.3-6.19-2.61-9.29-3.91,1.3,2.73,1.82,5.83,1.48,8.83-3.5.61-7.16.25-10.47-1.03-1.34-.52-2.72-1.27-3.34-2.56s-.04-3.21,1.37-3.47c.24.44.49.95.31,1.42s-1.05.52-1.09.02"/>
      <path class="cls-44" d="M83.89,243.31c-.07,7.56,1.34,15.13,4.13,22.15-19.53-4.76-40.73-2.36-58.7,6.66,59.98.2,120.11.4,179.71-6.29-51.36,7.02-102.73,14.04-154.09,21.07-18.22,2.49-36.54,4.99-54.92,4.41,38.1,2.22,76.26,4.44,114.41,3.3,57.48-1.73,114.6-11.1,172.1-11.28,41.38-.13,82.6,4.49,123.72,9.11-10.62-.15-21.24.31-31.8,1.37"/>
      <path class="cls-44" d="M148.95,160.1c-.38.82-.76,1.64-1.13,2.46,6.91-21.33,13.82-42.67,20.73-64,1.37-4.23,3-8.8,6.78-11.14-1.21,25.73-3.55,51.41-7.02,76.93"/>
      <path class="cls-44" d="M152.71,168.54c5.85-26.02,13.23-51.7,22.08-76.85"/>
      <path class="cls-44" d="M215.04,215.25l-1.95-.63c-.6,2.65.12,5.4.88,8.01,4.69,16.23,10.67,32.08,17.87,47.37.47,1,.94,1.99,1.42,2.99"/>
      <path class="cls-44" d="M252.95,104.5c-.51,5.55,2.98,11.24,8.16,13.3,4.49-19.9-6.47-40.76-2.49-60.77,3.18,11.66,6.38,23.39,11.63,34.28,3.05,6.33,7.86,13.04,14.88,13.5,2.12-17.71,4.25-35.42,6.37-53.13.72,15.4,3.24,30.71,7.49,45.52.86,3.01,2.08,6.34,4.93,7.66,4.25,1.96,8.85-1.77,11.94-5.28,10.03-11.38,18.85-23.83,26.24-37.08-7.4,13.31-14.98,27.2-15.96,42.4-.07,1.16-.08,2.41.58,3.36.71,1.01,2.01,1.41,3.23,1.61,6.46,1.03,12.81-1.92,18.69-4.79,9.81-4.8,19.62-9.6,29.43-14.41,10.37-5.08,20.74-10.16,31.11-15.24-6.03,4.44-12.05,8.89-18.08,13.33-18.82,13.87-37.92,28.03-51.9,46.76,4.23,4.12,10.94,4.01,16.79,3.19,16.93-2.36,33.67-8.33,50.68-6.59-25.8,10.56-52.43,21.66-71.65,41.85-1.83,1.92-3.71,4.38-3.11,6.96.43,1.82,2,3.13,3.55,4.19,13.47,9.16,31.05,9.1,46.25,14.95-19.51,9.18-43.47,7.24-61.41,19.2-2.08,1.39-4.28,3.6-3.59,6,.3,1.03,1.1,1.84,1.86,2.59,12.03,11.85,24.07,23.7,36.1,35.55-11.76-5.69-23.59-11.4-36.13-15.08-6.18-1.81-13.27-2.99-18.69.47,6.38,18.38,15.65,35.74,27.36,51.28-3-7.54-9.87-13.41-17.78-15.22-.03,2.66.92,5.33,2.63,7.37"/>
    </g>
  </g>
</svg>