<?xml version="1.0" encoding="UTF-8"?>
<svg id="Ebene_2" data-name="Ebene 2" xmlns="http://www.w3.org/2000/svg" xmlns:xlink="http://www.w3.org/1999/xlink" viewBox="0 0 462.04 321.25">
  <defs>
    <style>
      .cls-1 {
        fill: #a7c05a;
      }

      .cls-2 {
        fill: #888e87;
      }

      .cls-3 {
        fill: #fcffbb;
      }

      .cls-4 {
        fill: #4d80ad;
      }

      .cls-5 {
        fill: #2e4469;
      }

      .cls-6 {
        fill: #1b5023;
      }

      .cls-7 {
        fill: #447568;
      }

      .cls-8 {
        fill: #f07c8f;
      }

      .cls-9 {
        fill: #73729f;
      }

      .cls-10 {
        fill: #fcca6d;
      }

      .cls-11 {
        fill: #38ae7a;
      }

      .cls-12 {
        fill: #67a34e;
      }

      .cls-13 {
        fill: #34875d;
      }

      .cls-14 {
        fill: #a1d635;
      }

      .cls-15 {
        fill: #b8839d;
      }

      .cls-16 {
        fill: #133f37;
      }

      .cls-17 {
        fill: #fbffb9;
      }

      .cls-18 {
        fill: #fee8bd;
      }

      .cls-19 {
        fill: #f4e8bb;
      }

      .cls-20 {
        fill: #7b7194;
      }

      .cls-21 {
        fill: #4e845d;
      }

      .cls-22 {
        fill: #c78c24;
      }

      .cls-23 {
        fill: #5a69a9;
      }

      .cls-24 {
        fill: #fcc91a;
      }

      .cls-25 {
        fill: #62935f;
      }

      .cls-26 {
        fill: #f1faf5;
      }

      .cls-27 {
        fill: #fddc9d;
      }

      .cls-28 {
        fill: #cccc2f;
      }

      .cls-29 {
        fill: #505893;
      }

      .cls-30 {
        fill: #c5b624;
      }

      .cls-31 {
        fill: #21653f;
      }

      .cls-32 {
        fill: #e8ccaf;
      }

      .cls-33 {
        fill: #cfc784;
      }

      .cls-34 {
        fill: #ed9630;
      }

      .cls-35 {
        fill: #456956;
      }

      .cls-36 {
        fill: #d4aba9;
      }

      .cls-37 {
        fill: #dfdda8;
      }

      .cls-38 {
        fill: #998087;
      }

      .cls-39 {
        fill: #dbe0f3;
      }

      .cls-40 {
        fill: #988eb3;
      }

      .cls-41 {
        fill: #e2ffff;
      }

      .cls-42 {
        fill: #dcdae1;
      }

      .cls-43 {
        fill: #3c6d6a;
      }

      .cls-44 {
        fill: #fff;
      }

      .cls-45 {
        fill: #f592a5;
      }

      .cls-46 {
        fill: #29547c;
      }

      .cls-47 {
        fill: #b57c24;
      }

      .cls-48 {
        fill: #d38328;
      }

      .cls-49 {
        fill: #fbffb5;
      }

      .cls-50 {
        fill: #bcb9bf;
      }

      .cls-51 {
        fill: none;
        stroke: #000;
        stroke-miterlimit: 10;
      }

      .cls-52 {
        fill: #fefefe;
      }

      .cls-53 {
        fill: #fddc7a;
      }

      .cls-54 {
        fill: #cb96ac;
      }

      .cls-55 {
        fill: #e4beb4;
      }

      .cls-56 {
        fill: #d4f13d;
      }

      .cls-57 {
        fill: #e45b75;
      }

      .cls-58 {
        fill: #ecae42;
      }

      .cls-59 {
        fill: url(#Unbenannter_Verlauf_111);
      }

      .cls-60 {
        fill: url(#Unbenannter_Verlauf_112);
      }

      .cls-61 {
        fill: url(#Unbenannter_Verlauf_113);
      }

      .cls-62 {
        fill: #ad9dbd;
      }

      .cls-63 {
        fill: #1c3c40;
      }

      .cls-64 {
        fill: #f8eee3;
      }

      .cls-65 {
        fill: #335861;
      }

      .cls-66 {
        fill: #f6f2aa;
      }

      .cls-67 {
        fill: #c3b183;
      }

      .cls-68 {
        fill: #e1e4ea;
      }

      .cls-69 {
        fill: #f0ffa7;
      }

      .cls-70 {
        fill: #6a7eb8;
      }

      .cls-71 {
        fill: #3a7457;
      }

      .cls-72 {
        fill: #134b33;
      }

      .cls-73 {
        fill: #918d91;
      }

      .cls-74 {
        fill: #b2a07c;
      }
    </style>
    <linearGradient id="Unbenannter_Verlauf_113" data-name="Unbenannter Verlauf 113" x1="162.62" y1="286.83" x2="282.84" y2="288.78" gradientUnits="userSpaceOnUse">
      <stop offset="0" stop-color="#fcffaa"/>
      <stop offset="1" stop-color="#f8f4b4"/>
    </linearGradient>
    <linearGradient id="Unbenannter_Verlauf_112" data-name="Unbenannter Verlauf 112" x1="232.48" y1="117.93" x2="249.46" y2="214.87" gradientUnits="userSpaceOnUse">
      <stop offset="0" stop-color="#73749a"/>
      <stop offset="1" stop-color="#a59abb"/>
    </linearGradient>
    <linearGradient id="Unbenannter_Verlauf_111" data-name="Unbenannter Verlauf 111" x1="186.74" y1="69.65" x2="253.79" y2="71.86" gradientUnits="userSpaceOnUse">
      <stop offset="0" stop-color="#eef29b"/>
      <stop offset="1" stop-color="#e5d1ad"/>
    </linearGradient>
  </defs>
  <g id="versicherungen">
    <g>
      <g id="Generatives_Objekt" data-name="Generatives Objekt">
        <path class="cls-68" d="M417.12,280.78c.96.77,10.49,12.38,11.18,13.69,1.8,3.39,3.13,7.18,3.08,11.14-5.92-2.51-12.64-4.49-19.01-5.09-26.53-2.52-49.7,8.09-75.48,12.73-25.55,4.6-55.3-14.69-79.39-9.42-13.41,2.93,2.47,3.35,5.03,3.82.31.06-.25,2.36,5.03,1.91,32.84-2.8,74.18-2.36,108.47-1.91,17.87.23,35.98.81,53.68,3.18-109.65-2.57-219.11,8.64-328.76,5.09-25.71-.83-70.82-.59-94.49-8.28-.44-.14-2.71-.98-2.24-1.91,70.17.18,140.65,3.6,210.79,0,34.44-1.77,83.63,13.94,116.3,3.69,1.39-.43,10.03-3.1,6.71-4.46-89.75,4.66-179.61-4.97-269.49-3.18-2.49-1.39-5.13-1.71-6.99-4.46l251.04,6.37c24.46,1.83,48.63-5.64,72.96-6.37,11.95-.36,23.88,1.29,35.78,1.91.88-1.43-.31-2.34-1.12-3.18-1.92-2.01-23.94-10.69-26.56-10.82.89-1.71,2.51-3.72,2.8-5.73.46-3.24-.17-7.14-2.24-9.55.64-.1,9.88-8.53,10.06-9.23.72-2.82-2.79-18.72-3.91-22.28-.24-.77-8.52-17.47-4.47-12.73,5.42,6.33,8.04,24.85,9.78,33.43,5.87-8.49,14.49-12.59,15.1-24.83,1.59,13.46-13.05,23.38-20.41,32.15,3.82,1.55,7.97,1.96,12.02,1.59,1.82-.16,5.8-3.37,7.55-1.59-2.25.46-5.47,2.61-7.55,2.87-6.09.76-12-3.42-16.49.96-.28,1.38,18.43,8.25,21.25,10.51Z"/>
        <path class="cls-68" d="M360.65,73.86c1.79-1.61,21.62-13.09,22.36-11.78,1.77,3.12-20.31,10.89-22.36,11.78Z"/>
        <path class="cls-68" d="M381.06,128.61c5.52,1.61,17.74-.39,22.36,1.27.71.26,1.75,1.04,1.4,2.23-1.3,1.73-20.73-2.59-23.76-3.5Z"/>
        <path class="cls-68" d="M85.29,142.62c1.37-.72,13.9,1.68,16.49,1.59-1.04,1.61-23.36,2.02-16.49-1.59Z"/>
        <path class="cls-68" d="M320.4,38.84c1.16-1.55,13.2-18.07,14.26-17.19.89.74.04,2.08-.28,2.87-.77,1.88-11.68,11.94-13.98,14.33Z"/>
        <path class="cls-68" d="M154.34,31.2c-1.71-1.71-10.61-11.03-11.18-12.42-4.16-10,10.19,10.56,11.18,12.42Z"/>
        <path class="cls-68" d="M267.56.64c1.48-.51,1.33.35,1.4,1.59.13,2.2-5.15,13.2-5.87,16.24.23-2.71,3.14-17.37,4.47-17.83Z"/>
        <path class="cls-68" d="M100.11,71.31c-4.57-1.8-11-2.36-14.54-6.05.6-2.61,13.26,4.87,14.54,6.05Z"/>
        <path class="cls-68" d="M85.01,118.43c-1.73-.86-12.18-5.46-11.74-7.32.83-3.57,10.7,6.33,11.74,7.32Z"/>
        <path class="cls-68" d="M191.8,14.01c-.49-1.03-5.31-12.45-3.08-12.73,2.5,2.5,2.82,8.92,3.08,12.73Z"/>
        <path class="cls-68" d="M433.06,310.84c1.55.15,3.26-.37,4.75.32,0,.28-4.57.94-4.75-.32Z"/>
        <polygon class="cls-68" points="100.11 71.31 100.94 71.31 101.22 71.63 100.39 71.95 100.11 71.31"/>
        <path class="cls-68" d="M154.9,31.83c-.46-.39-.51-.59-.56-.64.02.04.66-.1.56.64Z"/>
        <path class="cls-68" d="M155.46,32.47c-.64.11-.53-.61-.56-.64l.56.64Z"/>
        <polygon class="cls-68" points="155.46 32.47 156.02 32.79 155.74 33.11 155.46 32.79 155.46 32.47"/>
        <polygon class="cls-68" points="192.64 17.19 192.92 17.51 192.64 17.83 192.64 17.19"/>
        <path class="cls-68" d="M191.8,14.01c0,.1,1.27.7.28,1.91-.59-.42-.1-1.54-.28-1.91Z"/>
        <path class="cls-68" d="M318.72,40.75c.21-.27.34-.4.56-.64-.05.08.08.75-.56.64Z"/>
        <path class="cls-68" d="M320.4,38.84c-.36.48-.85.9-1.12,1.27.28-.3.5-.63,1.12-1.27Z"/>
        <path class="cls-68" d="M318.16,41.39c.37-.72.52-.59.56-.64.09.73-.46.56-.56.64Z"/>
        <path class="cls-68" d="M317.6,42.02c-.1-.73.54-.6.56-.64-.03.03.08.75-.56.64Z"/>
        <polygon class="cls-68" points="317.6 42.02 317.32 42.66 317.04 42.34 317.32 42.02 317.6 42.02"/>
        <polygon class="cls-68" points="85.01 118.43 85.57 118.74 85.29 119.06 85.01 118.74 85.01 118.43"/>
        <polygon class="cls-68" points="86.41 119.06 86.69 119.38 86.41 119.7 86.41 119.06"/>
        <polygon class="cls-68" points="357.58 75.13 357.86 75.45 357.58 75.77 357.58 75.13"/>
        <polygon class="cls-68" points="360.65 73.86 359.81 74.49 359.54 74.18 360.37 73.86 360.65 73.86"/>
        <polygon class="cls-68" points="358.7 74.49 358.98 74.81 358.7 75.13 358.7 74.49"/>
        <polygon class="cls-68" points="356.46 75.77 356.74 76.09 356.46 76.4 356.46 75.77"/>
        <g>
          <g>
            <path class="cls-44" d="M395.88,187.83c.09-.57-.14-1.54,0-1.91,2.25-5.73,3.85-11.02,6.71-16.55,8.32-.9,3.8,15.84-.84,17.83-.28.12-4.76.51-5.87.64Z"/>
            <g>
              <path class="cls-45" d="M402.59,167.45c-.16.29.16,1.6,0,1.91-2.86,5.53-4.45,10.82-6.71,16.55-13.63-.21-39-5.03-17.89-22.92l24.6,4.46Z"/>
              <path class="cls-8" d="M403.71,165.54c-.36.55-.8,1.33-1.12,1.91l-24.6-4.46c.65-.55,1.31-2.95,1.96-3.18,2.67-.98,19.49,5.85,23.76,5.73Z"/>
            </g>
            <path class="cls-44" d="M366.24,226.03c-.12-.1-.44.1-.56,0l.56-.64v.64Z"/>
            <path class="cls-44" d="M355.06,141.98v.64c-.35-.06-.75.03-1.12,0,.07-.45.05-.71.56-.64h.56Z"/>
            <path class="cls-44" d="M130.3,77.68c-.07-.61.19-.54.56-.64.09.71-.36.53-.56.64Z"/>
            <path class="cls-44" d="M131.42,77.04c-.1-.73.46-.56.56-.64-.04.02.21.31-.56.64Z"/>
            <path class="cls-44" d="M78.3,166.18h.56c-.28,1.35-.53,0-.56,0Z"/>
            <path class="cls-44" d="M116.32,196.1c-.36.57-.15.88-1.12.64,0-.21,0-.43,0-.64h1.12Z"/>
            <g>
              <g>
                <path class="cls-26" d="M351.15,247.04c-.54-.07-1.13.07-1.68,0,1.28-8.91-3.16-16.12-8.11-22.28l.56-1.91,7.83,13.37,4.75-11.78c-.57,8.03-5.53,14.42-3.35,22.6Z"/>
                <path class="cls-26" d="M358.42,247.68c-.32-.09-.78.07-1.12,0l2.52-9.55c1.99,2.8-1.24,6.65-1.4,9.55Z"/>
              </g>
              <g>
                <path class="cls-11" d="M356.74,220.3c2.95,1.79,6.24,3.49,8.95,5.73.12.1.44-.1.56,0,1.36,1.14,3.87,3.91,5.03,5.41.84,1.08-1.18,1.11,1.12,1.59l.28,1.27.84-.64c.37-.26,1.65-2.18,1.68-2.55l2.8-3.82c6.31-4.92,20.63-8.37,27.96-7,24.65,4.59,28.48,43.81,11.18,60.49-2.81-2.26-21.52-9.13-21.25-10.51,4.49-4.37,10.41-.2,16.49-.96,2.08-.26,5.3-2.41,7.55-2.87-1.74-1.78-5.73,1.43-7.55,1.59-4.05.36-8.2-.05-12.02-1.59,7.36-8.78,22-18.7,20.41-32.15-.61,12.24-9.23,16.34-15.1,24.83-1.75-8.58-4.37-27.09-9.78-33.43-4.05-4.73,4.23,11.96,4.47,12.73,1.13,3.56,4.64,19.46,3.91,22.28-.18.71-9.42,9.13-10.06,9.23-3.65-4.24-5.88-.02-6.71-9.87-.79-9.33,2.63-9.28,5.31-16.87-1.91,1.8-5.99,7.32-6.43,9.87-1.11,6.43,5.16,17.69-4.75,14.33-1.19-.4-3.18-4.74-4.75-5.73-2.37-1.49-6.72-1.67-9.5-1.91-.13-3.56-4.07-.66-5.03-2.87-1.81-4.14,2.52-7.44-3.91-9.23.15-2.9,3.39-6.75,1.4-9.55l-2.52,9.55c-1.87-.41-4.26-.38-6.15-.64-2.17-8.18,2.79-14.57,3.35-22.6l-4.75,11.78-7.83-13.37-.56,1.91c4.94,6.16,9.38,13.37,8.11,22.28-1.58-.2-3.5-1.07-5.03-1.27.64-6.61-5.29-9.17-7.27-13.05-.96-1.89.62-2.4.56-2.55-2.55-5.74-9.35-14.77,1.12-16.87,7.23-1.46,12.18,3.54,17.89,7Z"/>
                <path class="cls-68" d="M373.51,233.67l-.84.64-.28-1.27c.56.12.63.65,1.12.64Z"/>
              </g>
              <g>
                <path class="cls-13" d="M405.94,220.3c-7.33-1.36-21.65,2.09-27.96,7-.7.55-2.48.83-2.8,2.55-.02-.04-.52-.62-.56-.64,1.33-6.62,7.22-8.17,10.34-11.46,6.42-6.77,29.87-35.53,30.75-43.93.12-1.14.71-1.58-.56-2.55-1.09,2.54-1.32,5.45-2.52,7.96-2.03,4.25-25.48,35.57-28.24,37.25-.59.36-2.61,1.74-3.08.32.22-5.84-.53-13.51-4.47-17.83,1.23,5.98,4.32,11.43,3.35,17.83-.65,4.33-5.93,7.6-7.27,12.42-.38,1.36-.83,2.16-.56,3.82-2.29-.48-.28-.51-1.12-1.59-1.17-1.5-3.68-4.27-5.03-5.41v-.64c-4.7-10.34-3.84-26.92,5.31-33.74,7.81-5.82,15.89-2.83,24.32-3.82,1.11-.13,5.59-.52,5.87-.64,4.64-1.99,9.16-18.73.84-17.83.16-.31-.16-1.62,0-1.91.32-.58.76-1.36,1.12-1.91,4.05-6.27,10.95-8.3,15.1-.96,8.63,15.28-2.78,43.83-12.86,55.71Z"/>
                <path class="cls-68" d="M377.99,227.3l-2.8,3.82c.03-.37.07-1.08,0-1.27.32-1.72,2.09-2,2.8-2.55Z"/>
                <path class="cls-68" d="M374.63,229.21c-.37-.16-1.16.1-1.68,0,1.34-4.81,6.62-8.09,7.27-12.42.96-6.39-2.12-11.85-3.35-17.83,3.94,4.32,4.69,11.99,4.47,17.83.46,1.42,2.48.04,3.08-.32,2.75-1.68,26.21-33,28.24-37.25,1.2-2.51,1.42-5.42,2.52-7.96,1.26.97.68,1.41.56,2.55-.88,8.41-24.33,37.16-30.75,43.93-3.12,3.29-9.01,4.84-10.34,11.46Z"/>
              </g>
            </g>
            <g>
              <g>
                <path class="cls-11" d="M100.11,212.02c-.08.83-.61.42-.56,1.91.11,3.27.49,3.19,1.12,5.73l-.28,5.09c-5.28-1.91-7.67-18.12-8.67-19.42-2.34-3.04,1.64,11.42,2.24,12.73,3.63,7.95,14.3,13.33,10.34,25.15l-2.8-2.55-8.67-3.5c2.92,5.41,13.99,3.79,12.86,12.73-.08.61-1.56.02-1.68.64-.27,1.42.36,4.81,0,5.73-.81,2.08-6.39.25-7.55.96-.64.39.09,2.05-.56,2.55-1.22.93-9.84-15.79-10.06-17.83-2.28,6.42,12.24,19.93,9.78,23.88-7.68-1.29-3.68,4.95-5.87,6.05-.58.29-3.64-.08-4.75,0-1.42-5.24-3.84-9.91-5.03-15.28-.18-.82-.47-1.41-.56-1.91-1.94-10.75-2.85-19.58,8.95-21.33-5.91-6.1-6.54-9.65-5.03-18.15.25-1.41.93-2.24,1.12-3.18,1.48-1.06,2.35-2.92,3.35-4.46,1.3-1.99,3.93-6.32,5.59-7.64,2.18-1.74,4.79-2.32,7.27-3.18,2.26,7.29.13,8.25-.56,15.28Z"/>
                <path class="cls-13" d="M115.2,196.1c0,.21,0,.43,0,.64-.09,6.42-3.84,12.96-3.35,21.33.17,3,4.35,16.98,5.59,20.06-6,1.94-7.21,5.18-6.71,12.1-1.83-.13-2.93.73-3.91-1.27l5.59-14.33c-.35-2.85,1.3-4.98-1.12-6.69.59-.63,1.24-.72,1.12-1.59-2.03-2.79-5.26,7.18-6.71-.64-1.54-8.31,2.76-20.07,1.68-29.29-.12-1.03-4.19-14.06-4.75-13.69,1,10.31,9.44,22.73-2.52,29.29.69-7.03,2.82-7.99.56-15.28-1.39-4.48-9.69-20-.28-22.28,7.02-1.7,14.56,15.26,14.82,21.65Z"/>
                <path class="cls-11" d="M121.91,189.1c-.76,17.35-.21,34.88-1.12,52.21-.85.8-3.06-2.45-3.35-3.18-1.25-3.07-5.42-17.06-5.59-20.06-.49-8.37,3.27-14.91,3.35-21.33.97.25.76-.07,1.12-.64,1.35-2.17,2.91-6.56,5.03-7.96.91-.6.47.92.56.96Z"/>
                <path class="cls-30" d="M93.4,199.92c-1.66,1.32-4.29,5.65-5.59,7.64-2.15-.2-1.01-6.07-.56-8.28,3.07-1.34,2.82-1.68,6.15.64Z"/>
                <path class="cls-13" d="M111.29,227.94c2.42,1.7.76,3.84,1.12,6.69l-5.59,14.33c-.81-1.64-.49-11.3-1.12-14.33-1-4.81-3.74-9.77-5.03-14.96-.63-2.54-1-2.46-1.12-5.73l6.15-3.5c-1.58,5.59-3.45,27.15,5.59,17.51Z"/>
                <path class="cls-47" d="M120.79,241.31c-.14,2.76-.1,5.58-.84,8.28-3.16-.31-6.07.87-9.23.64-.5-6.92.71-10.15,6.71-12.1.3.73,2.5,3.98,3.35,3.18Z"/>
                <path class="cls-44" d="M111.29,227.94c-9.04,9.64-7.17-11.92-5.59-17.51l-6.15,3.5c-.05-1.49.48-1.08.56-1.91,11.96-6.56,3.52-18.97,2.52-29.29.57-.37,4.63,12.66,4.75,13.69,1.08,9.22-3.22,20.97-1.68,29.29,1.45,7.82,4.68-2.16,6.71.64.12.87-.52.96-1.12,1.59Z"/>
              </g>
              <g>
                <path class="cls-30" d="M86.13,199.29c-.31.8.44,3.16-.28,3.82-7.84-4.29-1.78-18.26-3.08-23.24-.2-.78-3.75-3.85-4.47-5.09-.85-1.47.12-4.34-1.68-4.46-2.03,5.11,4.6,8.61,5.03,10.19.63,2.3-1.54,10.52-1.12,14.64.91,8.95,6,6.52,3.91,16.87-.19.94-.87,1.78-1.12,3.18-6.06-.7-14.06,5.88-17.89,10.82-8.97-7.83,8.48-20.34,8.95-23.24.13-.79-6.1-9.15-6.71-14.01-.6-4.77.54-23.09,5.31-24.51,2.39-.71,3.87,1.73,5.31,1.91.03,0,.28,1.35.56,0,11.73-22.92,12.36,15.22,11.18,23.88-.55,4.03-2.67,6.04-3.91,9.23Z"/>
                <path class="cls-28" d="M83.33,215.2c-1.51,8.5-.88,12.05,5.03,18.15-11.79,1.75-10.88,10.58-8.95,21.33-1.78-1.36-9.92-8.51-11.18-8.91-.52-1.07-.92-1.95-1.12-3.18-.03-.2.02-.43,0-.64-.18-1.63-.26-2.09,0-3.82.03-.21-.04-.44,0-.64.21-1,1.68-4.03,2.24-5.09.64.11.48-.48.56-.64.35-.66.52-1.22.56-1.27,2.95-4.48,6.11-4.59,5.59-11.14-1.94,3.63-4.02,7.02-6.15,10.51-.8,1.31-1.51,2.43-2.24,3.82-.64-.1-.47.47-.56.64-.38.72-.94,2.38-1.12,3.18-.04.2.03.43,0,.64-.34,2.47-.4,1.87,0,4.46.18,1.18.3,1.17.56,1.91.25.72.22.65.56,1.27,2.91,5.34,8.85,6.54,12.86,10.82,1.19,5.37,3.61,10.04,5.03,15.28-1.97.14-6.68.38-8.39,0-6.54-1.45-17.46-15.78-18.45-23.24-1.14-8.55,2.46-16.4,7.27-22.6,3.83-4.95,11.83-11.52,17.89-10.82Z"/>
                <path class="cls-44" d="M86.13,199.29c.35-.05.88.1,1.12,0-.45,2.21-1.59,8.08.56,8.28-1.01,1.54-1.88,3.4-3.35,4.46,2.08-10.35-3-7.92-3.91-16.87-.42-4.12,1.75-12.35,1.12-14.64-.43-1.58-7.06-5.07-5.03-10.19,1.8.11.83,2.98,1.68,4.46.72,1.25,4.27,4.31,4.47,5.09,1.3,4.98-4.77,18.95,3.08,23.24.72-.66-.03-3.02.28-3.82Z"/>
                <path class="cls-26" d="M68.24,245.77c1.26.4,9.4,7.56,11.18,8.91.09.5.38,1.09.56,1.91-4.01-4.29-9.95-5.48-12.86-10.82.36.05.83-.09,1.12,0Z"/>
                <path class="cls-26" d="M70.47,230.48l-.56-.64c2.13-3.48,4.21-6.87,6.15-10.51.52,6.55-2.64,6.66-5.59,11.14Z"/>
                <path class="cls-26" d="M66.56,244.49c-.26-.74-.38-.73-.56-1.91h.56c-.06.62.04,1.28,0,1.91Z"/>
                <path class="cls-26" d="M67.12,237.49c-.04.2.03.43,0,.64h-1.12c.03-.21-.04-.44,0-.64h1.12Z"/>
                <path class="cls-26" d="M69.35,232.39c.09-.16-.08-.74.56-.64-.08.15.08.74-.56.64Z"/>
                <path class="cls-26" d="M67.12,242.58h-.56c.05-.48.08-.7.56-.64.02.21-.03.43,0,.64Z"/>
                <path class="cls-26" d="M67.12,234.3c.09-.16-.08-.74.56-.64-.09.16.08.74-.56.64Z"/>
              </g>
            </g>
          </g>
          <g>
            <path class="cls-34" d="M357.86,131.16c-.33,3.41.68,12.09-2.8,11.46v-.64c2.48-.35-.86-3.37-1.96-4.46-9.02-8.89-24.19-20.06-34.39-28.01-.03-.03.01-.2-.56-.64-.32-.25-.98-2.84-1.96-3.18-66.69-.9-132.96,8.59-199.32,14.01l-4.47-8.28c63.31-3.64,126.84-15.44,190.38-17.83,19.65,10.08,36.78,24.77,55.07,37.57Z"/>
            <path class="cls-70" d="M364.01,120.34c-46.72-32.85-93.2-64.87-146.77-81.5-28.45,17.26-63.27,29.45-90.58,48.39-.54.38-3.5,2.11-2.52,3.18-3.14.92-3.44,2.09-5.59,3.82-4.17,3.35-8.72,8.52-12.3,12.73h-1.12c-.76-3.07-1.71-4.98-1.12-8.6,1.41-8.61,19.77-17.08,26.28-20.69.2-.11.65.07.56-.64.18-.05.41.06.56,0,.77-.32.52-.62.56-.64,1.75-.74,4.45-.92,5.59-3.18.15-.08.41.08.56,0,.76-.4,1.71-1.02,2.24-1.27,1.68-.59,3.68-1.19,5.03-2.55,26.04-12.76,51.47-27.71,78-38.84,23.09,11.48,48.63,20.06,71.01,33.11,12.06,7.03,60.88,38.57,66.81,48.71,1.19,2.03,2.94,5.42,2.8,7.96Z"/>
            <path class="cls-34" d="M337.17,129.89l.84-.64,16.49,12.73c-.51-.07-.48.18-.56.64-2.1,12.72,2.08,31.51.56,44.89,6.62,4.14-.75,10.48.56,19.1.9,5.91,3.6,3.96,3.91,5.73.07.43-2.48,6.59-2.24,7.96-5.71-3.46-10.66-8.46-17.89-7l-3.91-73.54c-.61-1.91-7.48-.71-8.95-.32h-3.63c-1.04-1.18.28-2.42.28-2.55,6.15-1.33,11.5-2.34,17.33.96,2.7-5.72-11.56-5.69-14.54-4.78-2.87-1.75-3.05,1.09-3.35-3.18h15.1Z"/>
            <path class="cls-29" d="M364.01,120.34c-.13,2.33-3.31,2.77-5.03,3.18-1.42-4.09-58.84-40.03-66.53-44.57-24.22-14.3-47.94-24.55-74.08-33.74l-3.63,1.27-77.16,42.02c-3.4.27-10.33,1.01-13.42,1.91-.98-1.08,1.97-2.81,2.52-3.18,27.31-18.94,62.13-31.13,90.58-48.39,53.57,16.63,100.05,48.65,146.77,81.5Z"/>
            <path class="cls-58" d="M214.72,46.48l74.64,34.38,3.08-1.91c7.69,4.54,65.11,40.48,66.53,44.57.18.5-.09,1.78,0,2.55-2.67-.53-5.29-2.25-7.55-3.82-7.69-5.36-43.75-34.84-49.76-34.38-1.99.15-1.61,1.87-2.24,1.91-1.35.08-2.21-.65-2.52-.64-1.81-1.42-4.13-1.74-6.15-2.55-25.08-10.05-49.58-21.74-74.64-31.83l-57.59,31.2-1.4,2.55c-6.1.34-13.93-.44-19.57,0l77.16-42.02Z"/>
            <path class="cls-27" d="M134.77,137.53l-.56,112.06c-1.67.02-12.49.28-12.86-.32.56-20.25,1.31-40.56,1.68-60.8.29-15.81.6-31.63,1.12-47.43-.57-.48-.69-.11-1.12-.96,3.62-1.37,7.9-2.63,11.74-2.55Z"/>
            <path class="cls-24" d="M358.98,126.07c.7,5.97-1.09,4.78-1.12,5.09-18.29-12.79-35.42-27.49-55.07-37.57-63.54,2.39-127.07,14.19-190.38,17.83-1.4.08-5.59.74-5.87.64-1.57-.56-1.15-4.07-1.4-5.09h1.12c19.35,0,44.33-4.47,64.3-6.37,41.74-3.97,84.61-8.99,126.36-11.46.31-.02,1.16.72,2.52.64.63-.04.24-1.76,2.24-1.91,6.01-.46,42.07,29.03,49.76,34.38,2.26,1.57,4.88,3.29,7.55,3.82Z"/>
            <path class="cls-24" d="M318.16,108.88c-10.18,1.32-20.53.41-30.75.64-4.39.1-8.64,1.12-12.86,1.27-10.24.38-20.43.58-30.75,1.27-2.99.2-5.98.42-8.95.64-11.58.83-23.16,2.83-34.67,3.82-3.44.3-7.05.31-10.62.64-11.49,1.04-23.15,1.48-34.67,2.55-3.19.3-6.37.98-9.5,1.27-10.22.97-20.58,1.34-30.75,3.18-.03-.23-2.61-.15-1.68-3.5l3.91-.96c66.36-5.42,132.64-14.91,199.32-14.01.98.34,1.63,2.94,1.96,3.18Z"/>
            <path class="cls-10" d="M145.39,120.97c.8,1.91,3.28,11.56,1.96,12.73-8.71-8.56-24.04-5.39-32.71,1.91-.59-3.01.45-8.16,0-11.46,10.17-1.85,20.53-2.21,30.75-3.18Z"/>
            <path class="cls-44" d="M137.57,73.22c-1.14,2.26-3.84,2.44-5.59,3.18,2.32-1.89,3.29-1.95,5.59-3.18Z"/>
            <path class="cls-44" d="M145.39,69.4c-1.36,1.36-3.35,1.96-5.03,2.55,1.63-.79,3.35-1.72,5.03-2.55Z"/>
            <path class="cls-44" d="M140.36,71.95c-.53.26-1.48.87-2.24,1.27.34-1.7,1.5-1.02,2.24-1.27Z"/>
            <path class="cls-10" d="M227.03,246.4c-4.99.06-10.02.58-15.1.64l1.12-115.88c1.87-.12,9.28-.31,10.06,1.59l3.91,113.65Z"/>
            <path class="cls-10" d="M312.01,129.25c.54,37.34,3.35,74.7,3.35,112.06v4.46c-4.46.07-8.96.03-13.42,0l-.56-118.43c5.19-.71,7.04,1.69,10.62,1.91Z"/>
            <path class="cls-18" d="M213.05,131.16l-1.12,115.88c-2.01.02-13.72,1.63-14.54.32l5.59-113.01c.67-1.83,8.22-3.07,10.06-3.18Z"/>
            <path class="cls-10" d="M186.77,247.68c-4.55.4-8.83.69-13.42.64l-.56-114.61c1.43-.13,8.95-.23,9.5.96l4.47,113.01Z"/>
            <path class="cls-10" d="M149.87,248.95c-5.12.27-10.55.57-15.66.64l.56-112.06c2.69.06,5.24.86,7.83,1.59l7.27,109.83Z"/>
            <path class="cls-10" d="M272.31,246.4c-4.44.11-9.13-.74-13.42-.64l-1.12-115.24c3.61-.48,8.05-1.28,8.39,4.14l6.15,111.74Z"/>
            <path class="cls-18" d="M301.39,127.34l.56,118.43c-2.79-.02-9.66.89-11.46.64-1.58-.22-.09-2.23-1.96-1.91l5.59-114.29c2.49-1.68,4.36-2.47,7.27-2.87Z"/>
            <path class="cls-18" d="M172.79,133.71l.56,114.61c-1.87-.02-13.56.32-13.98-.32l7.27-112.38c1.11-.93,4.68-1.77,6.15-1.91Z"/>
            <path class="cls-18" d="M257.78,130.52l1.12,115.24c-4.45.11-8.91.54-13.42.64l5.87-114.61c2.2-.28,4.22-.98,6.43-1.27Z"/>
            <path class="cls-22" d="M320.4,125.43c.84-.04.41,1.25.84,1.27.21,0,.64-1.49,2.24-1.27.47.06.22,1.26.28,1.27-2.12-.48-1.82,1.16-1.68,3.18.3,4.27.48,1.43,3.35,3.18-1.07.33-2.6.14-3.35,1.59-.21.4.56,1.18.56,2.23,0,.13-1.32,1.37-.28,2.55h3.63c-1.28.34-2.86-.16-3.91,1.59,2,32.39.56,65.44,3.35,97.73.1,1.19-.73,1.46-.56,2.55h-9.5c0-37.36-2.81-74.72-3.35-112.06.15,0,1.81-1.02,2.8-1.27.31-.08,1.23,1.15,1.96.64.44-.31-.7-1.74-.28-1.91.8-.32,2.65-1.23,2.8-1.27.06-.02-.15,1.38.28,1.27.5-.13.77-1.27.84-1.27Z"/>
            <path class="cls-10" d="M274.55,110.79l-.84,15.28c-5.66-9.4-22.37-6.71-30.19-1.91l.28-12.1c10.32-.69,20.52-.89,30.75-1.27Z"/>
            <path class="cls-10" d="M318.16,108.88c.57.44.53.61.56.64l1.68,15.92c-.07,0-.34,1.15-.84,1.27-.43.11-.22-1.29-.28-1.27.32-4.41-7.55-6.53-10.34-7-6.22-1.05-15.24-.64-20.69,3.18l-.84-12.1c10.23-.23,20.57.69,30.75-.64Z"/>
            <path class="cls-10" d="M234.85,112.7c.92,4.42,1.11,9.38-.84,13.37-9.28-7.18-23.49-7.59-33.55-1.91l-.28-7.64c11.51-.99,23.09-2.99,34.67-3.82Z"/>
            <path class="cls-10" d="M189.56,117.15l.84,11.46c-9.12-6.49-25.51-7.27-34.11.64l-1.4-9.55c11.52-1.07,23.18-1.51,34.67-2.55Z"/>
            <g>
              <path class="cls-34" d="M287.41,109.51l.84,12.1c5.45-3.82,14.46-4.24,20.69-3.18,2.79.47,10.67,2.6,10.34,7-.15.04-2,.95-2.8,1.27.12-3.79-9.62-5.57-12.02-5.73-3.55-.23-18.36.03-13.42,7.64,6.73-6.28,16.93-6.85,23.76-.64-.99.25-2.65,1.28-2.8,1.27-3.58-.22-5.43-2.62-10.62-1.91-2.91.4-4.78,1.19-7.27,2.87l-5.59,114.29-.84,1.91c-5.12.09-10.26-.12-15.38,0l-6.15-111.74c-.33-5.42-4.77-4.62-8.39-4.14-2.21.29-4.23.99-6.43,1.27l-5.87,114.61c-6.2.14-12.31-.07-18.45,0l-3.91-113.65c-.78-1.9-8.2-1.71-10.06-1.59-1.84.11-9.4,1.36-10.06,3.18l-6.71,112.38c-.66,1.69-7.89.81-9.5.96l-4.47-113.01c-.56-1.18-8.07-1.09-9.5-.96s-5.04.98-6.15,1.91c-1.67,1.4-.71,1.09-1.68,2.87l-6.15,108.88-1.4,1.59c-2.51.09-5.05-.13-7.55,0l-7.27-109.83c-2.58-.73-5.14-1.53-7.83-1.59-3.84-.08-8.12,1.18-11.74,2.55-.03-.06-.99-.51-1.12-.64-.06-.05-.3-.37-.56-.64,4.4-6.73,16.58-4.7,23.2-2.55,4.64-2.8-23.42-8.58-24.32,1.27-.06.62.03,1.28,0,1.91-.14.08-1.49,2.25-2.52,1.91-.59-4.66-2.68-3.72-3.08-5.73,8.67-7.3,24-10.47,32.71-1.91,1.32-1.17-1.15-10.82-1.96-12.73,3.13-.3,6.31-.98,9.5-1.27l1.4,9.55c8.59-7.91,24.99-7.12,34.11-.64l-.84-11.46c3.57-.32,7.19-.34,10.62-.64l.28,7.64c10.06-5.68,24.27-5.27,33.55,1.91,1.95-3.99,1.75-8.95.84-13.37,2.97-.21,5.96-.44,8.95-.64l-.28,12.1c7.83-4.8,24.53-7.49,30.19,1.91l.84-15.28c4.22-.16,8.47-1.17,12.86-1.27Z"/>
              <g>
                <path class="cls-44" d="M121.35,138.8c.26.27.5.58.56.64-.49.1-1.38-.16-1.68,0,.03-.63-.06-1.29,0-1.91.59.09.5.64,1.12,1.27Z"/>
                <path class="cls-10" d="M210.53,123.52c3.12-.45,22.41.33,19.85,6.69-.61,1.52-13.69-3.02-17.05-2.87-3.04.14-12.17,5.55-10.34-.32.44-1.42,6.09-3.29,7.55-3.5Z"/>
                <path class="cls-10" d="M256.94,122.88c3.33-.14,17.69,1.32,11.74,7-6.3-5.44-16.25-2.74-22.36,1.91-4.34-6.76,6.68-8.74,10.62-8.91Z"/>
                <path class="cls-10" d="M170.27,126.7c3.29-.21,19.7.74,17.05,6.69-.32.72-9.54-3.75-13.7-3.5-2.82.17-11.71,4.74-12.3,4.46-1.15-.55-1.11-4.2-.56-5.09.39-.63,8.41-2.48,9.5-2.55Z"/>
                <path class="cls-10" d="M316.48,126.7c-.42.17.72,1.6.28,1.91-.73.52-1.65-.72-1.96-.64-6.84-6.21-17.03-5.64-23.76.64-4.95-7.61,9.87-7.87,13.42-7.64,2.4.16,12.14,1.94,12.02,5.73Z"/>
                <path class="cls-10" d="M121.35,138.8c-.62-.64-.53-1.18-1.12-1.27.9-9.85,28.96-4.07,24.32-1.27-6.62-2.15-18.8-4.19-23.2,2.55Z"/>
              </g>
            </g>
            <path class="cls-27" d="M331.02,245.13l.56,14.01c-4.35-.36-4.37,1.67-5.87-3.82l-217.78,1.59c.07-.75-.25-1.58.28-2.23,1.03-1.27,26.4-1.74,30.19-1.91,62.17-2.73,124.54-1.48,186.74-3.18.92-.45,1.72-3.96-.28-3.82.15,0,.91-1.29,2.8-1.27,2.47.02,3.16.63,3.35.64Z"/>
            <path class="cls-27" d="M306.42,261.05c-2.46,3.4-8.58,2.34-12.3,2.55-64.46,3.62-129.17,2.48-193.73,3.18v-5.09l206.31-1.91-.28,1.27Z"/>
            <path class="cls-58" d="M343.32,245.77c.36.04.76-.05,1.12,0,1.53.2,3.45,1.08,5.03,1.27.54.07,1.13-.07,1.68,0,1.89.26,4.28.23,6.15.64.34.07.8-.09,1.12,0,6.44,1.8,2.1,5.09,3.91,9.23.96,2.2,4.91-.7,5.03,2.87-11.59-.98-23.87.35-35.78-.64l-.56-14.01c3.7.15,8.74.22,12.3.64Z"/>
            <g>
              <path class="cls-44" d="M211.93,247.04c5.08-.05,10.1-.58,15.1-.64,6.14-.07,12.25.14,18.45,0,4.51-.1,8.97-.53,13.42-.64,4.29-.11,8.98.74,13.42.64,5.11-.12,10.25.09,15.38,0l.84-1.91c1.86-.32.37,1.69,1.96,1.91,1.8.25,8.67-.65,11.46-.64,4.46.03,8.96.07,13.42,0,3.16-.05,6.35-.02,9.5,0,2-.13,1.2,3.37.28,3.82-62.2,1.7-124.58.45-186.74,3.18-3.79.17-29.16.64-30.19,1.91-.53.65-.21,1.48-.28,2.23l217.78-1.59c1.5,5.49,1.52,3.46,5.87,3.82,11.92.98,24.19-.34,35.78.64,2.79.24,7.14.42,9.5,1.91l-70.45-.64.28-1.27-206.31,1.91v5.09c64.56-.7,129.27.44,193.73-3.18v1.91c-71.49,3.97-147.99,4.17-218.61,11.46-1.33.14-2.56.49-3.91.64,1.23-2.47,5.21-3.35,5.03-5.73,1.71.38,6.41.14,8.39,0,1.11-.08,4.17.29,4.75,0,2.19-1.1-1.81-7.34,5.87-6.05,2.46-3.95-12.07-17.45-9.78-23.88.23,2.04,8.84,18.76,10.06,17.83.65-.49-.08-2.16.56-2.55,1.16-.7,6.74,1.13,7.55-.96.36-.92-.27-4.31,0-5.73.12-.62,1.6-.03,1.68-.64,1.13-8.94-9.94-7.32-12.86-12.73l8.67,3.5,2.8,2.55c3.96-11.82-6.72-17.2-10.34-25.15-.6-1.32-4.57-15.77-2.24-12.73,1,1.3,3.39,17.51,8.67,19.42l.28-5.09c1.29,5.19,4.03,10.15,5.03,14.96.63,3.02.31,12.68,1.12,14.33.98,2,2.08,1.14,3.91,1.27,3.16.23,6.07-.95,9.23-.64.74-2.69.69-5.52.84-8.28.9-17.33.35-34.86,1.12-52.21.45.15.63-.74,1.12-.64-.37,20.24-1.12,40.56-1.68,60.8.37.6,11.19.34,12.86.32,5.11-.06,10.53-.37,15.66-.64,2.5-.13,5.04.09,7.55,0l1.4-1.59,6.15-108.88c.97-1.77.01-1.47,1.68-2.87l-7.27,112.38c.42.64,12.1.3,13.98.32,4.59.05,8.86-.24,13.42-.64,1.61-.14,8.85.73,9.5-.96l6.71-112.38-5.59,113.01c.81,1.31,12.53-.3,14.54-.32Z"/>
              <path class="cls-64" d="M113.25,269.96c9.29-.25,19.03-.61,28.24.96l-46.69.32c6.03-.6,12.4-1.11,18.45-1.27Z"/>
            </g>
            <path class="cls-34" d="M324.87,241.31c.49,3.11.32,1.83,2.8,3.18-1.89-.02-2.65,1.27-2.8,1.27-3.16-.02-6.35-.05-9.5,0v-4.46h9.5Z"/>
            <path class="cls-10" d="M338.85,213.29c-10.47,2.11-3.67,11.13-1.12,16.87.06.14-1.52.66-.56,2.55,1.98,3.88,7.91,6.44,7.27,13.05-.36-.05-.76.04-1.12,0l-17.89-7c-2.79-32.29-1.36-65.34-3.35-97.73,1.05-1.75,2.63-1.25,3.91-1.59,1.47-.39,8.34-1.59,8.95.32l3.91,73.54Z"/>
            <path class="cls-48" d="M355.06,141.98h-.56l-16.49-12.73-.84.64c-4.1-2.78-8.92-2.46-13.42-3.18-.06,0,.19-1.21-.28-1.27-1.6-.22-2.03,1.28-2.24,1.27-.43-.02,0-1.32-.84-1.27l-1.68-15.92c10.2,7.95,25.37,19.13,34.39,28.01,1.1,1.08,4.43,4.1,1.96,4.46Z"/>
            <path class="cls-53" d="M175.03,91.05c.09,1.13-.85,7.7-1.12,7.96-.98.96-3.51-.8-3.35,1.59-19.96,1.9-44.94,6.37-64.3,6.37,3.58-4.21,8.13-9.39,12.3-12.73,18.79-1.37,37.65-2.25,56.47-3.18Z"/>
            <path class="cls-44" d="M258.34,85.32c-.79,1.98-5.75,2.4-7.55,2.55-24.73,2.07-50.83,1.95-75.76,3.18-18.82.93-37.68,1.82-56.47,3.18,2.15-1.73,2.46-2.9,5.59-3.82,3.09-.9,10.02-1.64,13.42-1.91,5.64-.44,13.46.34,19.57,0,33.63-1.85,67.67-4.2,101.2-3.18Z"/>
            <path class="cls-10" d="M322.63,136.89c0-1.05-.77-1.83-.56-2.23.76-1.45,2.29-1.26,3.35-1.59,2.97-.91,17.24-.95,14.54,4.78-5.83-3.29-11.19-2.29-17.33-.96Z"/>
            <path class="cls-10" d="M323.75,126.7c4.5.72,9.32.41,13.42,3.18h-15.1c-.14-2.03-.45-3.66,1.68-3.18Z"/>
            <path class="cls-24" d="M292.44,78.95l-3.08,1.91-74.64-34.38,3.63-1.27c26.14,9.2,49.86,19.45,74.08,33.74Z"/>
            <path class="cls-53" d="M290.76,86.59c-10.79-.45-21.6-.95-32.43-1.27-33.53-1.02-67.57,1.33-101.2,3.18l1.4-2.55,57.59-31.2c25.07,10.1,49.56,21.79,74.64,31.83Z"/>
            <path class="cls-27" d="M290.76,86.59c2.02.81,4.34,1.13,6.15,2.55-41.75,2.47-84.62,7.49-126.36,11.46-.16-2.39,2.38-.63,3.35-1.59.27-.26,1.21-6.83,1.12-7.96,24.93-1.23,51.03-1.11,75.76-3.18,1.8-.15,6.76-.57,7.55-2.55,10.83.33,21.64.83,32.43,1.27Z"/>
            <path class="cls-58" d="M343.32,245.77c-3.56-.42-8.6-.48-12.3-.64-.2,0-.88-.62-3.35-.64-2.48-1.36-2.31-.07-2.8-3.18-.17-1.09.66-1.35.56-2.55l17.89,7Z"/>
          </g>
          <g>
            <path class="cls-23" d="M75.5,276.96c-.09,1.81.74,1.76,1.96,1.91,8.99,1.14,21.98.36,31.59.64,60.44,1.73,120.97.41,181.43,0,1.6.79-2.8,17.04-1.4,20.37-15.45.64-32.32-.79-47.8-1.91-55.77-4.05-111.78-16.45-167.73-11.46-2.12-.74.93-6.28,1.96-7.32l-6.71-.96c-.98-1.08,2.58-.61,2.8-.64,1.36-.15,2.58-.5,3.91-.64Z"/>
            <path class="cls-44" d="M289.09,299.88c2.49-.1,4.84-.45,7.27-.64-.59,2.22,2.41,2.29,3.63,2.55,3.36.7,9.26,1.66,12.58,1.91l-251.04-6.37c-2.24-3.31-1.87-5.13-.56-9.23.14-.42,3.12-6.71,3.35-7,2.11-2.62,3.72-.4,4.47-2.87l6.71.96c-1.03,1.05-4.08,6.58-1.96,7.32,55.96-4.99,111.96,7.41,167.73,11.46,15.48,1.12,32.35,2.55,47.8,1.91Z"/>
            <path class="cls-8" d="M394.2,269.96c2.07,2.41,2.69,6.31,2.24,9.55-4.97.99-6.64,7.68-12.3,6.37-.1-1.36-1.08-4.05-1.12-5.09-.09-2.6.22-4.76,0-7.64-.1-1.32-1.49-4.63-.28-5.09,2.52-.83,9.92,2.15,11.46,1.91Z"/>
            <path class="cls-57" d="M396.44,279.51c-.28,2.01-1.91,4.02-2.8,5.73-.48-.03-7.28,1.69-9.5,1.91-.01-.42.03-.86,0-1.27,5.66,1.32,7.33-5.37,12.3-6.37Z"/>
            <path class="cls-4" d="M299.15,264.87l-6.43,11.46-183.67,3.18c-9.61-.28-22.6.5-31.59-.64-1.22-.15-2.05-.1-1.96-1.91,70.63-7.29,147.12-7.49,218.61-11.46,1.83-.1,3.44-.57,5.03-.64Z"/>
            <path class="cls-39" d="M394.2,269.96c-1.54.24-8.94-2.74-11.46-1.91-1.21.46.18,3.78.28,5.09l-84.43.64c1.23-3.14,2.33-6.07,4.47-8.6.02-1.03-3.14-.35-3.91-.32-1.59.07-3.2.53-5.03.64v-1.91c3.72-.21,9.84.85,12.3-2.55l70.45.64c1.57.99,3.56,5.33,4.75,5.73,9.92,3.36,3.64-7.9,4.75-14.33.44-2.55,4.52-8.06,6.43-9.87-2.68,7.59-6.1,7.55-5.31,16.87.83,9.84,3.06,5.62,6.71,9.87Z"/>
            <path class="cls-29" d="M298.59,273.78c-2.41,6.14-6.07,14.25-3.63,21.01l88.06-14.01c.04,1.04,1.02,3.73,1.12,5.09.03.42-.01.85,0,1.27-29.24,2.94-58.48,9.87-87.78,12.1-2.43.18-4.78.53-7.27.64-1.41-3.33,2.99-19.59,1.4-20.37-60.46.41-120.99,1.73-181.43,0l183.67-3.18,6.43-11.46c.78-.03,3.93-.71,3.91.32-2.14,2.52-3.24,5.46-4.47,8.6Z"/>
            <path class="cls-23" d="M383.02,280.78l-88.06,14.01c-2.44-6.76,1.22-14.88,3.63-21.01l84.43-.64c.22,2.88-.09,5.04,0,7.64Z"/>
          </g>
        </g>
      </g>
      <g id="Generatives_Objekt-2" data-name="Generatives Objekt">
        <path class="cls-50" d="M410.97,280.78l.56,1.91c-8.83,8.51-11.69,9.7-23.2,13.37-37.44,11.94-74.88,12-113.5,11.46-70.04-.98-140.13-6.33-210.23-6.37l-4.19-2.87c-.23-2.52,15.76-3.46,18.45-3.5.37,2.13,1.15,3.09,2.52,4.46l58.99.64c47.43,3.66,100.14,1.4,148.17,1.91,23.98.25,91.13,1.44,108.75-16.55.93-.94,1.67-1.56,1.4-3.18.18-.03.38.03.56,0,1.34-.22,2.51-.49,3.91-.64,2.69-.28,5.1-.55,7.83-.64Z"/>
        <path class="cls-50" d="M368.76,307.02c23.79-.63,59.85.67,83.31,3.82,2.04.27,4.55,1.2,6.43,2.23l-126.08-.96c.66-2.07,3.37-2.23,5.03-2.55,8.6-1.66,22.41-2.31,31.31-2.55Z"/>
        <path class="cls-52" d="M334.38,22.28c-4.57,9.2-14.57,18.49-21.53,25.47,5.07-9.24,13.63-19.42,21.53-25.47Z"/>
        <path class="cls-52" d="M380.22,63.03c-8.26,6.5-17.76,11.7-27.4,14.96,8.02-7.14,17.92-11.15,27.4-14.96Z"/>
        <path class="cls-52" d="M94.79,141.35c2.74-.06,5.4.66,8.11.96-7.23,4.72-16.53,2.57-24.6,2.55,5.12-1.57,11.2-3.39,16.49-3.5Z"/>
        <path class="cls-52" d="M107.93,74.49l-22.36-10.82,22.36,10.82Z"/>
        <path class="cls-52" d="M386.09,128.61c2.4-.17,4.86.13,7.27,0-4.95,4.22-14.18,3.85-20.41,3.5,3.92-1.95,8.91-3.2,13.14-3.5Z"/>
        <path class="cls-52" d="M268.96.64l-8.11,24.83c-.22-8.71,5.01-17.1,8.11-24.83Z"/>
        <path class="cls-52" d="M189.28,3.82c2.61,6.76,7.7,14.05,6.71,21.65l-6.71-21.65Z"/>
        <path class="cls-52" d="M147.35,21.01c4.04,5.35,9.22,11,11.18,17.83-1.05.6-11.47-15.02-11.18-17.83Z"/>
        <path class="cls-52" d="M78.02,113.33c2.67.18,6.19,1.61,8.67,2.87-.39,2.37-14.99-.38-16.49-2.23,2.18.75,6.19-.75,7.83-.64Z"/>
        <g>
          <path class="cls-52" d="M22.95,306.39c15.37,1.92,30.93,1.21,46.41,1.27,4.09.02,8.21-.01,12.3,0h102.88c6.66,0,13.53.53,20.13-.64,36.71-.54,73.45,15.88,109.87,10.69-3.21,3.38-24.2-13.32-25.44-11.64-.11.15-.72,3.42-.56,3.82,1.35,3.42,31.39.21,36.06,2.23-107.69.48-216.47,11.82-323.45-5.41,7.26-.75,14.53-.36,21.81-.32Z"/>
          <path class="cls-42" d="M171.67,307.66h-90.02c30,.08,60.02,0,90.02,0Z"/>
          <path class="cls-42" d="M69.35,307.66c-15.47-.07-31.03.65-46.41-1.27,15.48.08,30.96.3,46.41,1.27Z"/>
          <path class="cls-42" d="M204.66,307.02c-6.6,1.16-13.47.64-20.13.64,6.61-1.24,13.46-.54,20.13-.64Z"/>
        </g>
        <polygon class="cls-52" points="380.22 63.03 381.06 62.4 381.34 62.71 380.5 63.03 380.22 63.03"/>
        <polygon class="cls-52" points="334.93 21.65 335.21 21.01 335.49 21.33 335.21 21.65 334.93 21.65"/>
        <path class="cls-52" d="M334.38,22.28c.09-.18-.08-.74.56-.64.09.73-.45.55-.56.64Z"/>
        <polygon class="cls-52" points="85.57 63.67 84.73 63.67 84.45 63.35 85.29 63.03 85.57 63.67"/>
        <polygon class="cls-52" points="83.61 62.4 83.89 62.71 83.61 63.03 83.61 62.4"/>
        <polygon class="cls-52" points="107.93 74.49 108.49 74.81 108.21 75.13 107.93 74.81 107.93 74.49"/>
        <path class="cls-73" d="M398.67,282.06c.28,1.62-.47,2.24-1.4,3.18-17.62,17.99-84.76,16.81-108.75,16.55v-.64c.47-.01.58-.47,1.12-.64,20.76-6.46,54.8-7.58,77.72-11.46,5.24-.89,10.43-2.23,15.66-3.18.18-.03.38.03.56,0,2.04-.38,4.11-.88,6.15-1.27.55-.11,2.51-1.22,2.8-1.27,2.05-.39,4.13-.93,6.15-1.27Z"/>
        <g>
          <g>
            <path class="cls-61" d="M95.07,277.6c2.51,2.45,58.03,1.32,65.98,1.27,15.47-.1,31.72-1.67,46.41-1.91,1.67-.03.96,1.28,1.4,1.27,2.15-.04,2.65-1.27,2.8-1.27,9.29-.17,18.95.86,28.24.64,9.29-.22,18.64-1.02,27.96-1.27,7.22-.2,14.35.81,20.69.64l1.12,23.56c-.54.17-.65.62-1.12.64.66-2.07-1.97-2.27-3.63-2.55-16.82-2.81-49.23-2.36-67.37-2.55-45.17-3.33-90.31-9.01-135.59-10.82-2.21-.09-5.92-.8-7.55,1.27-.79-1.44-4.69-7.15-3.08-8.28l22.64-2.55c.1.13,1.02-.29,1.68.32.44.41-.8,1.35-.56,1.59Z"/>
            <path class="cls-17" d="M106.26,264.87c53.15,2.55,101.03,4.52,153.76.64,2.26-.17,4.46-.47,6.71-.64l.56,1.27c-9.3.61-18.67,1.84-27.96,2.55-4.32.33-29.61.56-31.03,1.27-1.52.77-.59,5.43-.84,7-14.68.24-30.93,1.81-46.41,1.91-3.12-1.95-20.7.47-22.09-.64-.48-.38-.19-5.79-1.12-6.37-1.94-1.2-38.63,2.23-44.17.64-.86,2.31,5.35,3.06,1.4,5.09-.24-.24,1-1.18.56-1.59-.66-.61-1.57-.19-1.68-.32-.72-.89-1.74-2.12-2.24-3.18-.11-.23.11-.98,0-1.27-.47-1.31-2.25-6.53-.84-7,5.05,1.31,10.31.39,15.38.64Z"/>
            <path class="cls-37" d="M217.52,296.06c-29.55-.3-59.18,1.55-88.9.64-13.36-.41-28.52.03-41.65-1.27-2.45-.24-5.99-.33-8.11-1.91-.6-.45-3.84-5.85-4.47-7,1.63-2.07,5.34-1.36,7.55-1.27,45.27,1.81,90.41,7.49,135.59,10.82Z"/>
            <path class="cls-66" d="M128.62,296.7c.8,3.39,8.76,2.95,11.74,3.18l-58.99-.64c-1.37-1.37-2.14-2.32-2.52-4.46-.07-.39.03-.86,0-1.27,2.12,1.58,5.65,1.67,8.11,1.91,13.13,1.3,28.29.86,41.65,1.27Z"/>
            <path class="cls-66" d="M247.71,246.4h21.81c1.48,0,2.99-.02,4.47,0,5.02.06,10.1-.09,15.1,0,7.77.13,15.69.43,23.48.64,2.84.08,5.58.18,8.39.64-1.84.1-4.2.98-6.15.96l1.12,6.05c-7.37,1.16-18.9,2.61-25.72,4.46-1.16-1.93,0-10.79-.84-11.46s-14.47.49-16.77,0c-.62.39,1.57,13.39,1.4,14.33-.34,1.86-12.83.47-13.98,3.5-52.72,3.88-100.61,1.91-153.76-.64-.64-2.97-1.42-5.83-1.68-8.91-.06-.75-.9-1.56-.56-3.18l55.35-2.55c0,.07.34-.26.56,1.27.36,2.54.84,5.14,1.4,7.64.54-2.56.09-5.05.28-7.64.03-.41-.07-.88,0-1.27l26.28-1.27c.74,4,.81,8.18,1.96,12.1.53-.09-.61-10.06-.28-11.46,5.37-1,10.82-.35,16.21-.64,4.43-.23,9.01-1.04,13.42-1.27,3.14-.17,6.32-.5,9.5-.64,8.22-.34,16.21-4.42,16.49,7.64.56-.11.24-7.19.28-8.28,1.15.34,1.06-.62,1.12-.64.16-.05.38.02.56,0-.06.55.14.58.56.64Z"/>
            <path class="cls-55" d="M323.19,247.68c.32-.02.94.71,2.24.64l1.4,5.73c-.95.92-9.17.36-10.9.64l-1.12-6.05c1.95.02,4.31-.86,6.15-.96.74-.04,1.5.05,2.24,0Z"/>
            <path class="cls-15" d="M273.99,246.4c-1.48-.02-2.99,0-4.47,0-6.62-.03-15.53.84-21.81,0-.42-.06-.62-.08-.56-.64,2.53-.31,5.74.02,8.39,0s5.23.1,7.83,0c3.34-.13,6.83-.31,10.06-1.27.07.68.83.92.56,1.91Z"/>
            <path class="cls-36" d="M382.46,276.96c.18,2,.56,3.4.56,5.73-4.94,2.95-11.36,2.59-15.66,6.37-22.92,3.88-56.95,5-77.72,11.46l-1.12-23.56c30.96-.87,63.51-8.66,93.93,0Z"/>
            <path class="cls-55" d="M337.17,259.77c-11.27.74-27.15,1.13-37.74,3.18-5.27,1.02-8.68,6.72-11.46,11.46-5.25.6-12.13.43-17.61.64-1.02.04-2.76-.64-2.52,1.27-9.31.26-18.67,1.05-27.96,1.27l-.56-8.91c9.29-.71,18.66-1.94,27.96-2.55,3.17-.21,21.38.04,22.64-.64,1.07-.57.87-2.09.84-3.18,11.35-1.03,22.73-1.95,34.11-2.55h12.3Z"/>
            <path class="cls-55" d="M288.53,301.16v.64c-48.03-.51-100.74,1.75-148.17-1.91-2.98-.23-10.94.21-11.74-3.18,29.72.91,59.35-.94,88.9-.64,18.14.18,50.55-.26,67.37,2.55,1.66.28,4.3.48,3.63,2.55Z"/>
            <path class="cls-9" d="M382.46,275.69c.05.41-.04.86,0,1.27-30.42-8.66-62.97-.87-93.93,0-6.34.18-13.47-.84-20.69-.64-.24-1.92,1.49-1.23,2.52-1.27,5.48-.21,12.36-.04,17.61-.64,8.91-1.01,17.66-3.85,27.12-4.46,21.92-1.42,46.15-.24,67.37,5.73Z"/>
            <path class="cls-3" d="M161.05,278.87c-7.94.05-63.47,1.18-65.98-1.27,3.95-2.03-2.26-2.78-1.4-5.09,5.54,1.59,42.23-1.83,44.17-.64.93.57.64,5.98,1.12,6.37,1.38,1.11,18.96-1.31,22.09.64Z"/>
            <path class="cls-66" d="M239.33,268.69l.56,8.91c-9.28.22-18.94-.8-28.24-.64-.15,0-.65,1.24-2.8,1.27-.44,0,.27-1.3-1.4-1.27.25-1.57-.69-6.23.84-7,1.42-.72,26.71-.94,31.03-1.27Z"/>
            <path class="cls-62" d="M350.03,258.5c5,.05,11.34.24,16.21,1.27.37.08,2.16,1.09,2.8,1.27,2.5.72,9.53,2.55,11.18,4.46.07.08,1.07,1.81,1.12,1.91.93,2.11.84,5.94,1.12,8.28-21.23-5.97-45.46-7.15-67.37-5.73-9.45.61-18.21,3.44-27.12,4.46,2.78-4.74,6.19-10.44,11.46-11.46,10.59-2.06,26.47-2.45,37.74-3.18,3.53-.23,8.23-1.32,12.86-1.27Z"/>
            <path class="cls-15" d="M383.02,282.69v3.18c-5.22.95-10.41,2.3-15.66,3.18,4.29-3.78,10.71-3.41,15.66-6.37Z"/>
            <path class="cls-54" d="M334.38,248.31l2.24,8.91-11.74,2.55c-11.38.59-22.76,1.52-34.11,2.55-.73.07-1.5-.07-2.24,0l-2.24-1.59c1.31-.29,2.72-1.27,3.91-1.59,6.82-1.85,18.35-3.3,25.72-4.46,1.73-.27,9.95.29,10.9-.64l-1.4-5.73c1.24-.07,2.89-.61,3.35-.64,1.91-.1,4.55.69,5.59.64Z"/>
            <path class="cls-55" d="M290.21,259.14c-1.19.32-2.61,1.3-3.91,1.59l2.24,1.59c-7.25.65-14.51,2-21.81,2.55-2.25.17-4.45.47-6.71.64,1.15-3.03,13.64-1.64,13.98-3.5.17-.94-2.02-13.93-1.4-14.33,2.3.49,15.97-.65,16.77,0s-.32,9.53.84,11.46Z"/>
            <path class="cls-19" d="M290.76,262.32c.03,1.1.23,2.62-.84,3.18-1.27.67-19.47.43-22.64.64l-.56-1.27c7.3-.55,14.55-1.9,21.81-2.55.73-.07,1.5.07,2.24,0Z"/>
            <path class="cls-74" d="M161.61,248.31c.19,0,.37,0,.56,0,.26.92-.44,1.22-.56,1.91-.07.4.03.86,0,1.27h-1.68c-.22-1.54-.55-1.2-.56-1.27-.06-.62.04-1.28,0-1.91.74-.03,1.5.03,2.24,0Z"/>
            <path class="cls-40" d="M344.44,247.68c1.16,2.27,2.16,4.76,3.35,7l-11.18,2.55-2.24-8.91c1.9-.1,4.79-1.11,6.71-1.27,1.18-.1,2.32-.17,3.35.64Z"/>
            <path class="cls-66" d="M269.52,246.4h-21.81c6.27.84,15.19-.03,21.81,0Z"/>
            <path class="cls-49" d="M205.78,248.95c-5.39.28-10.84-.36-16.21.64.18-.76-.04-1.32.84-1.91,1.77-.07,3.56.1,5.31,0,2.83-.16,5.83-.1,8.67,0,1.15.04,1.49-1.78,1.4,1.27Z"/>
            <path class="cls-74" d="M161.61,251.5c-.18,2.59.26,5.08-.28,7.64-.56-2.5-1.04-5.1-1.4-7.64h1.68Z"/>
            <path class="cls-20" d="M350.03,258.5c-4.63-.05-9.33,1.04-12.86,1.27h-12.3l11.74-2.55,11.18-2.55c.68,1.27,1.57,2.52,2.24,3.82Z"/>
          </g>
          <g>
            <g>
              <path class="cls-25" d="M417.12,201.2c-3.76,1.69.65-3.05-.84-3.82l-46.69,54.76c2.41-18.82,11.79-32.85,23.76-45.21,5.39-5.56,13.12-9.46,17.05-16.55,1.97-2.32,2.39-2.48,3.35-5.73.5-1.67,1.02-3.3,1.12-5.09.14-2.6.11-5.44-.56-7.96-1.22-4.57-8.73-9.05-4.75-13.05,16.54,4.7,12.42,28.98,7.55,42.66Z"/>
              <path class="cls-65" d="M417.12,201.2c-1.55,4.37-10.37,19.46-10.06,21.65.42,3,2.34,6.87,2.8,11.46.5,12.54-3.42,24.79-9.5,35.02-.16.28-2.38,5.27-3.35,3.5,9.05-13.59,12.1-30.85,10.06-47.75-.99-1.64-1.47-.2-2.24.64-2.18,2.4-9.5,15.58-11.74,19.42l-12.86,20.37c-1.66-1.9-8.68-3.74-11.18-4.46.23-2.91.19-6,.56-8.91l46.69-54.76c1.49.77-2.92,5.51.84,3.82Z"/>
              <path class="cls-21" d="M412.65,178.28c.43,1.73.11,4.87,1.12,6.37-.97,3.25-1.39,3.41-3.35,5.73-2.74,3.24-8.26,6.13-11.18,8.91l-18.73,17.83c-5.08-6.6-7.97-15.04-9.23-23.56,2.45-2.13,7.14-4.92,10.06-5.73,5.09-1.42,11.77-.92,17.05-1.27.5-.62-.67-1.64-.84-1.91-.7-1.16-7.16-7.93-8.39-8.91,5.97,1.79,8.54,11.59,15.38,8.28,7.57-3.67,2.37-15.55-3.08-19.1,4.95,2.19,9.71,7.41,11.18,13.37Z"/>
              <path class="cls-25" d="M401.47,164.9c5.44,3.55,10.65,15.43,3.08,19.1-6.84,3.32-9.41-6.49-15.38-8.28-.81-.65-2.44-1-2.8-1.27-.32-.25-1.99-.7-2.8-1.27-1.48-1.05-6.84-4.72-6.15-6.69l7.83-3.5c5.13-.46,11.3-.26,16.21,1.91Z"/>
              <path class="cls-21" d="M372.95,233.67c-.14.25-.42,2.51-.84,2.55l-.84-.96c-.79-4.52-4.12-8.63-5.59-12.42-4.12-10.58-3.09-19.95,4.47-28.01-1.34,5.11,9.47,22.55,9.5,23.88.04,1.54-7.9,11.35-6.71,14.96Z"/>
              <path class="cls-72" d="M369.6,252.13c-.37,2.91-.33,6-.56,8.91-.63-.18-2.42-1.19-2.8-1.27-.63-3.49-3.82-10.34-6.71-11.46-.92-5.41-6.2-11.13-9.5-15.28-1.32-1.66-2.69-3.34-3.91-5.09,8.08,8.93,15.98,17.9,21.53,29.29.27-5.67,3.62-15.56,3.08-20.69-.21-1.94-3.1-5.81-4.47-7.96,2.49,0,.19-1.92,0-2.55-.29-.98-.61-2.12-.56-3.18,1.47,3.78,4.8,7.89,5.59,12.42l.84.96c.42-.04.7-2.3.84-2.55,9.08-16.52,13.09-21.81,26.28-34.38,2.92-2.79,8.44-5.68,11.18-8.91-3.93,7.1-11.66,11-17.05,16.55-11.98,12.35-21.35,26.38-23.76,45.21Z"/>
              <path class="cls-12" d="M385.25,162.99l-7.83,3.5c-.69,1.96,4.67,5.63,6.15,6.69-2.21,2.05-5.66,4.69-6.15,8.28-3.43-4.05-7.38-7.52-10.06-12.42,5.85-3.06,11.5-5.47,17.89-6.05Z"/>
              <path class="cls-12" d="M386.37,174.46l7.83,8.6-4.47,2.23c-2.82.32-5.55,1.66-8.39,1.91-.59-2.02-2.61-4.19-3.91-5.73.49-3.59,3.94-6.23,6.15-8.28.81.58,2.47,1.02,2.8,1.27Z"/>
              <path class="cls-1" d="M399.23,199.29c-13.18,12.57-17.2,17.86-26.28,34.38-1.19-3.61,6.75-13.43,6.71-14.96-.03-1.32-10.85-18.77-9.5-23.88.41-.44.58-.81,1.12-1.27,1.26,8.51,4.15,16.96,9.23,23.56l18.73-17.83Z"/>
              <path class="cls-1" d="M381.34,187.83v-.64c2.84-.25,5.57-1.59,8.39-1.91,2.46-.28,5.58.73,7.83-.64.16.27,1.34,1.3.84,1.91-5.29.36-11.96-.14-17.05,1.27Z"/>
              <path class="cls-52" d="M414.89,179.55c-.09,1.79-.62,3.42-1.12,5.09-1.01-1.5-.69-4.64-1.12-6.37l2.24,1.27Z"/>
              <path class="cls-31" d="M389.17,175.73c1.22.98,7.68,7.76,8.39,8.91-2.25,1.36-5.36.36-7.83.64l4.47-2.23-7.83-8.6c.36.28,1.98.62,2.8,1.27Z"/>
              <g>
                <path class="cls-5" d="M424.95,236.21l-2.8,13.69c-.88,2.52-2.04,4.45-3.35,6.69-2.61,4.44-9.98,12.99-13.7,16.55-3.74,3.59-8.79,6.53-12.58,10.19-.28.05-2.25,1.17-2.8,1.27l3.08-6.37-9.23,7.64c-.18.03-.38-.03-.56,0v-3.18c0-2.33-.38-3.73-.56-5.73-.04-.41.05-.86,0-1.27-.28-2.34-.19-6.16-1.12-8.28,3.45-7.68,7.54-15.09,11.74-22.28,2.24-3.84,9.56-17.02,11.74-19.42.76-.84,1.25-2.28,2.24-.64,2.04,16.9-1.02,34.16-10.06,47.75.97,1.77,3.19-3.23,3.35-3.5,7.86-9.42,10.76-22.3,9.5-35.02-.45-4.59-2.37-8.47-2.8-11.46,8.25-.33,14.58,4.94,17.89,13.37Z"/>
                <path class="cls-46" d="M424.95,236.21c4.63,11.79,2.71,36.13-6.71,44.25-2.83,2.45-2.32,1-5.03.96-.37,0-.75,0-1.12,0,1.37-1.94-1.21-1-1.12-1.59.11-.7,6.4-7.94,7.83-11.14.03-.07.95-.43,1.12-.96-1.33-1.18-1.05.89-1.12.96-2.26,2.23-4.59,5.09-6.99,7-2.75,2.18-6.05,3.41-8.67,5.73-1.4.15-2.57.42-3.91.64l19.57-25.47c1.31-2.23,2.48-4.17,3.35-6.69l2.8-13.69Z"/>
                <path class="cls-52" d="M412.09,281.42c.37,0,.75,0,1.12,0-.02,1.3-1.58,1.18-1.68,1.27l-.56-1.91c.52-.02.58.63,1.12.64Z"/>
                <path class="cls-63" d="M418.8,256.59l-19.57,25.47c-.18.03-.38-.03-.56,0-2.02.34-4.1.88-6.15,1.27,3.79-3.66,8.84-6.59,12.58-10.19,3.71-3.57,11.09-12.11,13.7-16.55Z"/>
                <path class="cls-63" d="M412.09,281.42c-.54,0-.6-.65-1.12-.64-2.73.08-5.14.36-7.83.64,2.62-2.32,5.92-3.55,8.67-5.73,2.4-1.91,4.73-4.77,6.99-7-1.42,3.2-7.72,10.44-7.83,11.14-.09.59,2.49-.35,1.12,1.59Z"/>
                <path class="cls-16" d="M393.08,245.13c-4.2,7.19-8.3,14.6-11.74,22.28-.05-.1-1.05-1.83-1.12-1.91l12.86-20.37Z"/>
                <path class="cls-2" d="M400.35,269.32c6.09-10.23,10.01-22.47,9.5-35.02,1.25,12.71-1.64,25.6-9.5,35.02Z"/>
                <path class="cls-63" d="M389.73,284.6c-2.04.39-4.11.9-6.15,1.27l9.23-7.64-3.08,6.37Z"/>
                <path class="cls-63" d="M418.8,268.69c.07-.06-.21-2.13,1.12-.96-.17.53-1.09.88-1.12.96Z"/>
              </g>
              <g>
                <path class="cls-7" d="M357.86,219.66c3.04,1.9,4.93,3.37,7.27,6.37.65.83.95,2.29,1.12,2.55,1.37,2.15,4.27,6.02,4.47,7.96.55,5.14-2.81,15.03-3.08,20.69-5.54-11.38-13.45-20.36-21.53-29.29-3.28-3.63-11.25-8.99-10.06-14.01,5.51-1.64,16.79,2.6,21.81,5.73Z"/>
                <path class="cls-52" d="M366.24,226.03c.19.63,2.49,2.56,0,2.55-.16-.26-.47-1.71-1.12-2.55h1.12Z"/>
                <path class="cls-12" d="M336.05,213.93c-1.18,5.02,6.78,10.38,10.06,14.01,1.23,1.75,2.59,3.44,3.91,5.09l-3.63-3.18-6.43,7.64c-2.35-7.4-4.81-14.73-5.59-22.6.52-1,1.01-.76,1.68-.96Z"/>
                <path class="cls-25" d="M350.03,233.03c3.3,4.15,8.59,9.87,9.5,15.28-3.69-1.43-10.96-.96-15.1-1.27-1.15-2.29-2.87-4.59-3.91-7,.28-1.19-.29-1.69-.56-2.55l6.43-7.64,3.63,3.18Z"/>
                <path class="cls-65" d="M359.54,248.31c2.89,1.12,6.08,7.97,6.71,11.46-4.87-1.04-11.21-1.22-16.21-1.27-.66-1.3-1.56-2.55-2.24-3.82-1.19-2.24-2.2-4.73-3.35-7-.08-.16.08-.48,0-.64,4.13.31,11.4-.16,15.1,1.27Z"/>
              </g>
            </g>
            <g>
              <path class="cls-43" d="M76.06,227.3c-2.48,5.13-4.99,10.07-5.59,15.92-3.21.61-.19-4.12-.56-5.41-3.77,4.71-2.94,13.66-1.12,19.74.8,2.66,7.08,10.3,3.35,11.14-13.12-7.21-22.23-29.17-7.83-40.75.33-.27,4.19-1.71,5.31-2.55,2.93-2.19,6.17-5.71,8.95-8.28,1.26-.02-.09,3.03-.28,3.5-1.96,4.81-7.62,9.97-9.5,15.28l7.27-8.6Z"/>
              <path class="cls-25" d="M93.4,199.92c-1.16,1.44-2.61,2.54-3.91,3.82-3.64,3.57-5.79,6.58-6.71,12.1-2.31,3.71-4.78,7.47-6.71,11.46l-7.27,8.6c1.88-5.31,7.55-10.47,9.5-15.28.19-.47,1.54-3.52.28-3.5-2.77,2.57-6.02,6.09-8.95,8.28-1.12.84-4.98,2.28-5.31,2.55-6.4-11.7,3.9-16.45,9.5-23.88.4-.53-.79-1.27-.56-1.59.1-.14,1.79-.25,2.8-1.91.42,3.64-3.86,6.24-5.03,9.23l5.03-5.41c2.53-1.42,4.36,1.56,6.43,1.27.13-.02,1.61-1.73,1.96-1.91.75-.39,1.79-1.71,2.24-1.91,2.52-1.13,4.55-1.2,6.71-1.91Z"/>
              <path class="cls-14" d="M106.26,178.91c5.5,4.41,9.29,8.13,9.5,16.55-.09.07-.35-.13-1.12.64-.64.63-1.95,1.85-2.24,2.55-2.76-2.3-2.19.42-3.35,1.91-.67.85-2.31,3.89-2.52,3.82-.99-.33.58-2.23,0-3.18-.69-1.13-4.51-2.54-5.87-2.55l-3.91-12.73c-1.07-6.68,6.04-4.52,9.5-7Z"/>
              <path class="cls-12" d="M109.05,200.56c.72,1.58.03,2.9,0,4.46-6.54-.75-5,22-8.11,21.65-1.19-.13-6.24-12.54-7.55-14.01-1.65-7.44-1.86-13.19,6.71-14.01.18-.02.37,0,.56,0,1.36,0,5.18,1.42,5.87,2.55.58.95-.99,2.85,0,3.18.2.07,1.85-2.97,2.52-3.82Z"/>
              <path class="cls-6" d="M121.35,219.02c-5.9-1.25-5.62-7.54-7.27-12.73.4-2.37,1.15-5.95,2.24-7.96,1.64-3.03,4.94-4.48,5.59-6.05.86-2.07.87-10.93,1.12-14.01.62,13.44-.8,27.26-1.68,40.75Z"/>
              <path class="cls-65" d="M70.47,243.22c-.58,5.58.35,10.71,2.8,15.6,1.42,2.83,8.15,11.24,11.18,8.6,1.83,2.29,4.52,6,7.27,3.82.11.29-.11,1.05,0,1.27-7.1-.56-13.14-.29-19.57-3.82,3.73-.84-2.56-8.49-3.35-11.14-1.82-6.07-2.65-15.03,1.12-19.74.37,1.29-2.65,6.02.56,5.41Z"/>
              <path class="cls-1" d="M121.91,192.28c-.65,1.56-3.95,3.02-5.59,6.05-1.09,2.01-1.83,5.59-2.24,7.96-1.66,9.72-.19,18.16-2.8,28.65-1.03-4.65,1.92-15.43,1.12-19.42-.67-3.34-3.52-2.93-3.35-10.51.03-1.56.72-2.88,0-4.46,1.17-1.49.59-4.21,3.35-1.91-.07.16.05.43,0,.64-3.26,3.01-2.86,9.65-.84,13.37.3-1.7.02-2.62.28-4.46s.35-4.36.56-5.73c.46-.93,4.44-4.25,2.24-6.37.77-.77,1.03-.56,1.12-.64,1.73-1.4,3.95-3.04,6.15-3.18Z"/>
              <path class="cls-14" d="M100.11,198.65c-8.57.82-8.36,6.57-6.71,14.01,2.51,11.35,10.08,15.8,13.42,25.47-4.71-6.32-12.32-15.69-14.54-23.56-1.02-3.61-.39-8.76-.84-10.82-.32-1.47-1.4.53-1.96,0,1.3-1.28,2.75-2.38,3.91-3.82,1.37-.45,4.51-3.66,6.71-1.27Z"/>
              <path class="cls-56" d="M106.26,178.91c-3.47,2.48-10.57.32-9.5,7-1.66-1.38-1.05-3.2-.56-5.09.88.05.42-.94.56-1.27.02-.04.19.18.56-.64.45-.62,2.02-1.03,1.68-2.55,3.65-3.18,3.78-.24,7.27,2.55Z"/>
              <path class="cls-52" d="M97.31,178.91c.68-1.49.2-1.26,1.68-2.55.34,1.52-1.23,1.93-1.68,2.55Z"/>
              <path class="cls-52" d="M96.75,179.55c.37-.79.53-.6.56-.64-.37.82-.54.6-.56.64Z"/>
              <polygon class="cls-52" points="268.96 .64 269.24 0 269.52 .32 269.24 .64 268.96 .64"/>
              <path class="cls-52" d="M96.19,180.82c.28-1.09.39-.91.56-1.27-.14.33.32,1.32-.56,1.27Z"/>
              <polygon class="cls-52" points="146.23 19.1 146.51 19.42 146.23 19.74 146.23 19.1"/>
              <path class="cls-65" d="M104.58,255.95c.26,3.08,1.03,5.94,1.68,8.91-5.07-.24-10.32.67-15.38-.64-1.41.48.37,5.69.84,7-2.75,2.18-5.43-1.53-7.27-3.82-.68-.85-.92-2.22-1.12-2.55l21.25-8.91Z"/>
              <path class="cls-72" d="M82.77,215.84c-.2,1.22-.58,2.68-.56,3.82.06,3.8,2.36,9.24,4.47,12.1-2.22-.66-2.28.49-3.35,1.27-.6.43-.53.61-.56.64-.96.85-1.58,1.33-2.24,2.55-3.03,5.57-2.7,7.89-2.24,14.01.46,6.03,2.04,9.75,5.03,14.64.2.32.44,1.7,1.12,2.55-3.03,2.64-9.77-5.77-11.18-8.6-2.45-4.89-3.37-10.02-2.8-15.6.6-5.85,3.11-10.78,5.59-15.92,1.93-3.99,4.4-7.75,6.71-11.46Z"/>
              <path class="cls-1" d="M92.28,214.57c-3.74,2.29-7.3,1.36-10.06,5.09-.02-1.14.36-2.6.56-3.82.92-5.52,3.07-8.53,6.71-12.1.56.53,1.64-1.47,1.96,0,.45,2.06-.18,7.21.84,10.82Z"/>
              <g>
                <path class="cls-14" d="M76.06,200.56c-1,1.66-2.69,1.77-2.8,1.91-9.68-13.73-10.27-21.65,0-34.38,1.45,3.23,10.29,3.6,10.62,4.14.74,1.18-1.69,13.1-2.24,15.28-.62,2.51-2.25,3.58-2.8,5.09-.12.34,1.25.3,1.12.64-1.2,3.11-2.37,4.77-3.91,7.32Z"/>
                <path class="cls-14" d="M86.69,201.83c-.45.2-1.48,1.52-2.24,1.91l.84-2.55-6.43-1.91c5.23-11.66,5.13-22.48,6.71-34.7.14-1.1,3.19-1.25,1.12-6.69,8.56,13.34,4.45,29.64,0,43.93Z"/>
                <path class="cls-56" d="M86.69,157.9c2.07,5.44-.98,5.58-1.12,6.69-1.58,12.22-1.48,23.04-6.71,34.7-.51,1.14-2.57,3.25-2.8,5.09l-5.03,5.41c1.17-2.99,5.45-5.59,5.03-9.23,1.54-2.55,2.72-4.21,3.91-7.32.13-.34-1.24-.29-1.12-.64.54-1.52,2.17-2.59,2.8-5.09.54-2.18,2.97-14.1,2.24-15.28-.33-.53-9.18-.91-10.62-4.14,3.75-4.65,8.63-7.55,10.9-14.01,1.04-.2,2.14,3.23,2.52,3.82Z"/>
                <path class="cls-12" d="M84.45,203.74c-.35.18-1.83,1.89-1.96,1.91-2.07.29-3.9-2.69-6.43-1.27.23-1.84,2.29-3.96,2.8-5.09l6.43,1.91-.84,2.55Z"/>
              </g>
              <path class="cls-25" d="M112.41,202.47c.13-.89-.47-1.4,0-3.18.05-.21-.07-.47,0-.64.28-.7,1.6-1.91,2.24-2.55,2.2,2.12-1.77,5.43-2.24,6.37Z"/>
              <path class="cls-35" d="M121.35,219.02c-.29,4.42-.25,8.98-.56,13.37l-1.12-.96c.38,6.52-1.84,12.79-3.91,18.78-3.12.65-8.59.1-10.62,1.27l-1.12-2.55c2.68-1.85,3.12-3.53,4.47-6.37,1.37-2.88,2-4.44,2.8-7.64,2.61-10.49,1.13-18.93,2.8-28.65,1.65,5.2,1.37,11.49,7.27,12.73Z"/>
              <path class="cls-7" d="M98.43,250.86c2.71,0,3.37-.38,5.59-1.91l1.12,2.55c-.45.26-1.4-.47-1.12,1.27-.34,1.63.5,2.44.56,3.18l-21.25,8.91c-2.99-4.9-4.58-8.62-5.03-14.64l7.83-5.09c2.93,3.36,8.14,5.74,12.3,5.73Z"/>
              <path class="cls-16" d="M120.79,232.39c-.41,5.82-.82,11.67-1.12,17.51-.45.72-3.03.13-3.91.32,2.07-6,4.3-12.26,3.91-18.78l1.12.96Z"/>
              <path class="cls-21" d="M109.05,205.02c-.16,7.58,2.69,7.16,3.35,10.51.8,3.99-2.15,14.77-1.12,19.42-.79,3.2-1.42,4.76-2.8,7.64-1.25.01-1.02-2.56-1.68-4.46-3.34-9.67-10.91-14.12-13.42-25.47,1.31,1.46,6.36,13.87,7.55,14.01,3.1.35,1.57-22.4,8.11-21.65Z"/>
              <path class="cls-71" d="M112.41,202.47c-.57,1.15-3.61,3.63-.56,5.73-.26,1.84.02,2.76-.28,4.46-2.02-3.72-2.43-10.36.84-13.37-.47,1.78.13,2.29,0,3.18Z"/>
              <path class="cls-25" d="M112.41,202.47c-.21,1.37-.31,3.96-.56,5.73-3.05-2.1-.01-4.58.56-5.73Z"/>
              <path class="cls-25" d="M106.82,238.12c.65,1.89.42,4.47,1.68,4.46-1.35,2.84-1.79,4.52-4.47,6.37-2.22,1.53-2.88,1.9-5.59,1.91-8.04-3-14.46-6.63-15.66-17.19.03-.03-.04-.2.56-.64,5.89-.06,9.04,6.93,14.82,9.55,1.73.78,3.48,2.06,4.19,0,.25-.72-10.1-8.37-11.74-7.64-1.45-1.3-3.18-2.19-3.91-3.18-2.11-2.86-4.41-8.29-4.47-12.1,2.76-3.73,6.33-2.8,10.06-5.09,2.22,7.86,9.83,17.24,14.54,23.56Z"/>
              <path class="cls-25" d="M86.13,245.13l-7.83,5.09c-.46-6.12-.79-8.43,2.24-14.01,2.85,1.64,3.08,6.04,5.59,8.91Z"/>
              <path class="cls-1" d="M98.43,250.86c-4.16.01-9.37-2.37-12.3-5.73-2.51-2.88-2.74-7.27-5.59-8.91.66-1.22,1.28-1.7,2.24-2.55,1.19,10.56,7.62,14.19,15.66,17.19Z"/>
              <path class="cls-1" d="M86.69,231.76c.73.99,2.46,1.88,3.91,3.18,3.53,3.18,6.97,7.13,11.74,7.64-.71,2.06-2.46.78-4.19,0-5.77-2.62-8.93-9.61-14.82-9.55,1.07-.78,1.13-1.93,3.35-1.27Z"/>
              <path class="cls-16" d="M102.34,242.58c-4.77-.51-8.21-4.46-11.74-7.64,1.64-.73,11.99,6.92,11.74,7.64Z"/>
            </g>
          </g>
          <g>
            <path class="cls-9" d="M154.34,119.7c1.82,1.09,1.83,2.88,2.8,4.46,3.96,6.51,3.53,3.32,10.06,2.55.71,3.29-1.72,2.25-2.8,4.46-.66.53-1.82,2.87-2.8,3.5,1.92,1.29,3.16-1.01,4.47-1.59l1.12,1.27s-.11.24-.56.64c-2.22,1.98-1.77,2.88-2.24,6.69-1.38,11.37-.95,25.52-1.68,37.25-1.3,21.08-4.63,48.82-3.35,69.4-2.96.13-5.98-.15-8.95,0-2.7-31.65-3.28-63.98-6.71-95.5-.35-3.2-.13-10.21-1.96-11.46-3.86-1.12-7.52-1.15-11.46-1.27-1.48-.05-3.68,1.29-4.47,1.27-.18,0-2.63-1.3-3.63-.64-.81-.81.19-1.2.28-1.91,7.57-1.65,12.52-2.92,19.85,1.27,1.02-1.16-.84-1.8-.84-1.91.01-3.34,1.73-5.01,0-8.28,11.93-1.31,2.76-8.34,4.19-8.91,2.95.1,5.81-.72,8.67-1.27Z"/>
            <path class="cls-62" d="M328.78,143.26c8.38,3.12,16.96,6.36,25.72,7.64-.11,5.5,0,11.05,0,16.55l-24.88-4.46c-1.68.87,1.05,14.54,1.4,17.19,1.39,10.65,3.41,21.23,5.03,31.83-1.8.56-2.65.49-3.35,3.5-2.43,10.35,3.64,23.26-3.91,32.15-.46.02-2.11.57-3.35.64-1.29.07-1.92-.66-2.24-.64,1.24-35.41-1.43-70.94,0-106.33,2,.07,3.76,1.23,5.59,1.91Z"/>
            <path class="cls-62" d="M354.5,170.63c.11,4.86.59,9.73.56,14.64-5.19,1.81-10.34-2.54-15.66-2.23,4.11,2,8.37,3.71,12.58,5.41,1.05.43,2.94-.07,3.08,0,4.08,2.15.57,4.13.56,4.78-.05,3.17.62,6.09.56,9.23l-13.42-.32,13.42,3.5c-.02.42.04.86,0,1.27-.14,1.46.56,4.99-.84,5.73-6.04-.34-13.41-2.47-19.29-.64-1.62-10.6-3.64-21.19-5.03-31.83,2.68-1.94-1.59-14.39.28-15.92l23.2,6.37Z"/>
            <path class="cls-17" d="M130.3,140.07l1.68,96.78c-.04-.44-1.08-3.67-1.12-4.14-.22-2.97-.07-20.72-.56-21.65-.41-.78-6.13-1.13-7.27-.96.83-22.64,3.45-45.52,2.8-68.13v-.64c.8.02,2.99-1.32,4.47-1.27Z"/>
            <path class="cls-3" d="M125.83,141.98c.65,22.6-1.97,45.49-2.8,68.13-.48,13.03-.33,26.13-1.12,39.16.71,1.83,8.35.36,10.06.32,5.19-.11,10.47-.36,15.66-.64,1.25-.07,2.3-.61,2.8-.64,2.96-.15,5.98.13,8.95,0,.04.63-.06,1.29,0,1.91l-55.35,2.55c-.28-1.74.67-1.01,1.12-1.27,2.03-1.18,7.5-.62,10.62-1.27.88-.19,3.46.4,3.91-.32.29-5.84.71-11.69,1.12-17.51.31-4.39.27-8.95.56-13.37.88-13.49,2.3-27.31,1.68-40.75.76-9.22.63-18.47,1.12-27.7.1-1.96.38-7.17,1.68-8.6Z"/>
            <path class="cls-9" d="M357.86,219.66c-5.01-3.13-16.3-7.38-21.81-5.73-.67.2-1.16-.05-1.68.96.78,7.87,3.24,15.2,5.59,22.6.27.86.83,1.36.56,2.55-2.18-5.03-4.36-9.93-5.03-15.6-1.77,7.86,1.93,16.18,5.59,22.6-1.92.17-4.81,1.17-6.71,1.27-1.04.05-3.68-.73-5.59-.64,7.56-8.89,1.48-21.8,3.91-32.15.71-3.01,1.56-2.94,3.35-3.5,5.88-1.83,13.25.3,19.29.64,1.4-.74.7-4.27.84-5.73l1.68,12.73Z"/>
            <path class="cls-74" d="M135.33,129.89c2.01-.21,4.14.22,6.15,0,1.73,3.27.01,4.94,0,8.28-5.89-4.56-11.85-4.01-18.45-2.55-1.01-4.76-1.38-.97-4.47-1.91l10.34-3.82c2.06-.65,4.63.19,6.43,0Z"/>
            <path class="cls-9" d="M354.5,167.45c0,.98-.02,2.27,0,3.18l-23.2-6.37c-1.87,1.53,2.41,13.98-.28,15.92-.35-2.65-3.08-16.32-1.4-17.19l24.88,4.46Z"/>
            <path class="cls-17" d="M141.48,138.16c0,.11,1.86.75.84,1.91-7.33-4.19-12.28-2.92-19.85-1.27.15-1.26,1.16-.35.56-3.18,6.6-1.47,12.56-2.01,18.45,2.55Z"/>
            <path class="cls-9" d="M355.06,185.28c0,1.06,0,2.13,0,3.18-.14-.07-2.02.43-3.08,0-4.21-1.7-8.47-3.41-12.58-5.41,5.31-.32,10.47,4.04,15.66,2.23Z"/>
            <path class="cls-9" d="M356.18,202.47c-.02,1.05.04,2.13,0,3.18l-13.42-3.5,13.42.32Z"/>
            <path class="cls-60" d="M244.36,115.88c0,.97-1.65,3.1-1.12,7,.11.79.99,1.85.56,3.18-9.24,5.97,6.37,3.2,6.99,3.18,6.01-.18,10.26.74,15.93,1.27-2.27.8-1.24,2.9-1.12,5.73-1.98-.13-3.59-.92-5.59-1.27-3.13-.56-6.23-.02-8.11-1.27l-.84,1.27c.23,37.25-4.4,74.33-5.59,111.42-.03,1.09.28,8.17-.28,8.28-.29-12.06-8.28-7.98-16.49-7.64-.44-18.25-1.98-36.49-2.8-54.76-.86-19.3-1.26-38.64-2.24-57.94-.1-1.89.07-3.84,0-5.73,1.37.13,2.81-.09,4.19,0-4.96-5.41-20.61-4.51-25.44.64.89-2.11,2.87-1.61,2.24-4.46,4.61-.35,9.35-1.37,13.98-1.91,3.73-.43,7.71-.17,11.46-.64.65-.39-.83-4.22-.84-4.46-.05-1.31.38-3.24,0-4.78l14.26-1.59c-.08.97.84,4.23.84,4.46Z"/>
            <path class="cls-66" d="M307.54,127.98c-1.45,34.46,5.62,67.84-5.59,100.92-3.18,9.39-9.59,9.4.56,17.19l-12.3-.32c.76-1.64,2.07-26.29,2.24-30.24,1.03-24.86,1.48-49.95,1.68-74.81.16-2.1-.22-10.24.84-11.46,1.28-1.47,10.42-1.95,12.58-1.27Z"/>
            <path class="cls-55" d="M312.57,247.04c-7.79-.21-15.71-.5-23.48-.64h.56c.63.1.47-.43.56-.64l12.3.32c-10.14-7.79-3.74-7.8-.56-17.19,11.21-33.07,4.15-66.46,5.59-100.92,1.07.33,3.57.7,3.91,1.59l4.47,116.52-3.35.96Z"/>
            <path class="cls-55" d="M265.6,136.25c1.55,35.23,4.37,73.18,7.83,108.24-3.24.96-6.73,1.15-10.06,1.27-.21-2.16-4.79-6.52-5.03-7.96-.2-1.15,4.16-18.59,4.47-22.92,1.85-25.62-2.27-54.15-2.8-79.91,2,.36,3.61,1.14,5.59,1.27Z"/>
            <path class="cls-40" d="M290.76,206.29c-.18,10.8-.58,21.69-1.12,32.47l-1.4,7c-1.71-.02-4.59.53-5.31-1.59-.7-2.05-.3-24.06-.56-28.65-.07-1.21-1.66-.34-1.68-.64-.62-12.66.46-25.52,0-38.2l10.62,1.27c-.54,6.33-.51,12.7-.56,19.1-.02,2.75.05,6.41,0,9.23Z"/>
            <path class="cls-66" d="M318.72,112.7c.98,1.9.98,6.2-.84,7l-28.51,3.82c-2.08-.81-.16-9.03-.28-10.19,10.64-5.79,18.94-4.37,29.63-.64Z"/>
            <path class="cls-66" d="M274.55,114.61c-.25,1.35.14,7.04-1.4,7.64-5.6-1.77-12.29-1.55-18.17-1.27-3.98.19-7.97.24-11.74,1.91-.53-3.91,1.11-6.04,1.12-7l30.19-1.27Z"/>
            <path class="cls-49" d="M290.21,245.77c-.09.2.07.74-.56.64-1.12-2.41-.13-5,0-7.64.53-10.79.94-21.67,1.12-32.47,1.73-21.78,1.71-43.79,3.35-65.58-.19,24.86-.65,49.95-1.68,74.81-.16,3.96-1.48,28.6-2.24,30.24Z"/>
            <path class="cls-40" d="M328.78,143.26c-1.83-.68-3.6-1.84-5.59-1.91.05-1.34-1.18-5.31-.56-7.32.75-1.45,24.61,10.93,27.4,12.1-7.63.75-15.61-5.47-21.25-2.87Z"/>
            <path class="cls-17" d="M257.22,124.79c4.38.37,9.92,1.61,12.86,5.41-1.17,1.86-2.02.44-3.35.32-5.68-.53-9.92-1.45-15.93-1.27-.62.02-16.23,2.78-6.99-3.18,2.12-1.37,10.75-1.5,13.42-1.27Z"/>
            <g>
              <path class="cls-9" d="M289.09,113.33c.12,1.15-1.8,9.38.28,10.19l28.51-3.82c1.82-.8,1.81-5.11.84-7,8.88,3.1,18.67,11.08,26.28,17.83,2.32,2.05,10.07,8.56,10.62,11.46.66,3.45-1.07,6.15-1.12,8.91-8.76-1.29-17.34-4.52-25.72-7.64,5.64-2.6,13.62,3.62,21.25,2.87-2.79-1.17-26.64-13.55-27.4-12.1-.62,2.01.61,5.98.56,7.32-1.43,35.39,1.24,70.92,0,106.33-.74.05-1.5-.04-2.24,0-2.81-.45-5.55-.56-8.39-.64l3.35-.96-4.47-116.52c-.34-.89-2.85-1.26-3.91-1.59-2.16-.67-11.31-.19-12.58,1.27-1.06,1.22-.68,9.36-.84,11.46-1.65,21.79-1.62,43.79-3.35,65.58.05-2.82-.02-6.48,0-9.23.05-6.4.02-12.77.56-19.1l-10.62-1.27c.46,12.68-.62,25.55,0,38.2.01.29,1.61-.57,1.68.64.26,4.59-.14,26.6.56,28.65.72,2.12,3.6,1.57,5.31,1.59l1.4-7c-.13,2.64-1.12,5.23,0,7.64h-.56c-4.99-.09-10.08.06-15.1,0,.27-.99-.49-1.23-.56-1.91-3.46-35.06-6.28-73.01-7.83-108.24-.12-2.83-1.15-4.93,1.12-5.73,1.33.13,2.18,1.54,3.35-.32-2.94-3.8-8.48-5.05-12.86-5.41l-2.24-3.82c5.88-.28,12.57-.5,18.17,1.27,1.54-.6,1.14-6.29,1.4-7.64.22-1.16.45-3.97.56-4.14.76-1.23,11.16-.92,13.14-.96.01,1.21.76,3,.84,3.82Z"/>
              <path class="cls-17" d="M301.67,122.25c1.16-.16,14.35-.11,13.14,2.87-8.15-1.67-15.87-.51-23.2,4.14-.24-3.99,6.97-6.58,10.06-7Z"/>
            </g>
            <path class="cls-37" d="M254.98,120.97l2.24,3.82c-2.67-.22-11.3-.1-13.42,1.27.43-1.34-.45-2.39-.56-3.18,3.77-1.67,7.76-1.72,11.74-1.91Z"/>
            <path class="cls-9" d="M197.39,117.15c.04.05.47,1.05.56,1.27.21.52-.21,2.03,0,2.55.45,1.12,1.07,4.05,1.96,4.46,1.4.64,3.7-.56,4.75-.64.64,2.84-1.35,2.34-2.24,4.46-.55.59-.94,1.74-1.68,2.23,4.49-.85,9.3-3.82,14.26-4.14,3.42-.22,5.64.99,8.67,1.27.07,1.89-.1,3.84,0,5.73-1.91-.74-3.64-1.9-5.59-2.55-2.51-.83-3.19-1.49-6.15-1.27-2.91.21-6.54,2.9-8.39,3.18-.58.09-.68-2.32-2.24-.96,1.83,1.05,1.21,5.75,1.12,7.64-.39,7.59-.82,26.87-2.24,33.11-1.68,7.39-7.22,2.57-7.83,3.82l1.12,64.31c-1.21.94-.03,4.13-.84,4.78-.41.33-3.81-.23-4.75,0-.89-12.15-.5-24.45-1.12-36.61-.6-11.77-1.41-32.04-3.35-42.98l-1.68-35.34,5.59-.64c.09-.17-2.39-2-2.8-2.23-4.75-2.63-15.74-.98-20.13,2.55,1.08-2.21,3.51-1.17,2.8-4.46,7.7-.92,15.42-3,23.2-1.27.95-.53.96-3.53,1.4-5.09.49-1.74-1-3.55,1.4-4.46,1.59-.6,3.23-.03,4.19,1.27Z"/>
            <path class="cls-32" d="M143.72,152.81c-1.15.2-2.15-.78-2.8.96-.53,1.41-.18,26.99,0,30.56,1.09,21.04,5.86,43.36,6.71,64.62-5.19.28-10.46.52-15.66.64,1.25-4.27.37-8.47,0-12.73l-1.68-96.78c3.94.12,7.6.15,11.46,1.27,1.82,1.25,1.61,8.26,1.96,11.46Z"/>
            <path class="cls-17" d="M169.44,134.34c-.75,34.85-3.88,71.68,3.35,105.69-.94,3.3-1.78,4.33.28,7.64l14.26-.64c.46.74.42,1.15.56,1.91l-26.28,1.27c.11-.69.82-.99.56-1.91,1.19-.06,6.86.33,7.27-.32-3.16-15.4-3.34-31.1-3.91-46.8l1.12-66.22c.45-.4.52-.62.56-.64.42-.21,1.58.14,2.24,0Z"/>
            <path class="cls-55" d="M143.72,152.81c3.43,31.53,4.01,63.86,6.71,95.5-.49.03-1.54.57-2.8.64-.85-21.26-5.62-43.58-6.71-64.62-.18-3.57-.53-29.16,0-30.56.65-1.74,1.64-.75,2.8-.96Z"/>
            <path class="cls-32" d="M184.53,128.61c.41.23,2.88,2.06,2.8,2.23l-5.59.64,1.68,35.34c-.01-.06-1,.23-1.12-.32-.51-2.38.13-6.3-1.96-8.6-.64,1.49.21,5.44-1.96,5.73-.18-4.57-.74-26.08-2.24-28.97-1.07-2.06-5.21-.64-6.71-.32-.65.14-1.81-.21-2.24,0l-1.12-1.27c6.15-2.73,11.85-3.93,18.45-4.46Z"/>
            <path class="cls-17" d="M191.8,120.34c-.44,1.56-.45,4.57-1.4,5.09-7.78-1.73-15.5.36-23.2,1.27-6.53.78-6.1,3.96-10.06-2.55l34.67-3.82Z"/>
            <path class="cls-49" d="M163.29,185.28l-1.68,63.03c-.74.03-1.5-.03-2.24,0-1.27-20.58,2.05-48.32,3.35-69.4l.56,6.37Z"/>
            <path class="cls-17" d="M165.52,201.2c-.16-4.36-.15-9.4-.56-13.69-.16-1.72.57-2.52-1.68-2.23l-.56-6.37c.73-11.73.29-25.88,1.68-37.25.46-3.8.02-4.7,2.24-6.69l-1.12,66.22Z"/>
            <path class="cls-17" d="M184.53,128.61c-6.6.53-12.3,1.72-18.45,4.46-1.31.58-2.55,2.88-4.47,1.59.98-.63,2.14-2.98,2.8-3.5,4.39-3.53,15.38-5.17,20.13-2.55Z"/>
            <path class="cls-66" d="M131.98,236.85c.37,4.26,1.25,8.46,0,12.73-1.71.04-9.35,1.51-10.06-.32.79-13.03.64-26.13,1.12-39.16,1.14-.17,6.86.18,7.27.96.49.93.34,18.68.56,21.65.04.47,1.08,3.7,1.12,4.14Z"/>
            <path class="cls-20" d="M340.53,240.04c1.04,2.41,2.76,4.72,3.91,7,.08.16-.08.48,0,.64-1.03-.81-2.18-.74-3.35-.64-3.66-6.42-7.37-14.74-5.59-22.6.67,5.67,2.85,10.57,5.03,15.6Z"/>
            <path class="cls-40" d="M203.54,133.71c-1.2,24.89-3.75,49.68-5.59,74.49-.94,12.63-2.22,25.63-1.68,38.2-.18.52-.5.76-.56,1.27-1.76.1-3.55-.07-5.31,0-.88.59-.66,1.15-.84,1.91-.33,1.4.81,11.37.28,11.46-1.14-3.91-1.21-8.09-1.96-12.1-.14-.76-.1-1.17-.56-1.91l.56-.64c.94-.23,4.34.33,4.75,0,.81-.65-.38-3.84.84-4.78l-1.12-64.31c.6-1.25,6.15,3.57,7.83-3.82,1.42-6.23,1.85-25.52,2.24-33.11.1-1.89.71-6.59-1.12-7.64,1.56-1.36,1.66,1.04,2.24.96Z"/>
            <path class="cls-17" d="M254.42,217.75c-1.05,2.55-5.44.44-6.15,1.59-.67,1.08-1.3,23.17-1.68,26.42-.06.02.03.98-1.12.64,1.19-37.1,5.82-74.18,5.59-111.42l1.68,16.24c-.03,22.2.55,44.39,1.68,66.53Z"/>
            <path class="cls-36" d="M225.91,192.28c.81,18.26,2.36,36.5,2.8,54.76-3.18.13-6.37.47-9.5.64-1.85-.09-3.75.13-5.59,0l11.18-1.59c.8-1.27-4.24-26.7-4.47-30.88-.23-4.08-.07-8.06.56-12.1.35-2.28,2.04-11.5,5.03-10.82Z"/>
            <path class="cls-69" d="M207.46,238.12c1.05,3.43,2.42,5.35,3.35,7.96.07.2-1.7.43-1.12,1.27.44.64,3,.25,3.91.32,1.84.13,3.74-.09,5.59,0-4.41.23-8.99,1.04-13.42,1.27.09-3.05-.25-1.23-1.4-1.27-2.84-.1-5.84-.16-8.67,0,.06-.51.38-.75.56-1.27,1.63-4.84,2.48-17.35,2.8-22.92,9.83.3,4.87,3.27,6.15,10.51.48,2.73,2.17,3.91,2.24,4.14Z"/>
            <path class="cls-69" d="M255.54,245.77c-2.65.02-5.85-.31-8.39,0-.18.02-.4-.05-.56,0,.37-3.25,1.01-25.34,1.68-26.42.71-1.15,5.1.96,6.15-1.59.48,9.37,1.82,18.74,1.12,28.01Z"/>
            <path class="cls-37" d="M260.01,134.98c.52,25.76,4.65,54.29,2.8,79.91-.31,4.34-4.67,21.77-4.47,22.92.24,1.43,4.83,5.8,5.03,7.96-2.59.1-5.23-.02-7.83,0,.7-9.27-.64-18.65-1.12-28.01-1.13-22.14-1.71-44.33-1.68-66.53l-1.68-16.24.84-1.27c1.87,1.26,4.98.71,8.11,1.27Z"/>
            <path class="cls-55" d="M223.67,134.34c.97,19.3,1.38,38.63,2.24,57.94-2.99-.67-4.68,8.55-5.03,10.82l-2.8-71.31c1.95.64,3.68,1.8,5.59,2.55Z"/>
            <path class="cls-66" d="M229.26,117.79c0,.24,1.49,4.07.84,4.46-3.76.47-7.74.2-11.46.64l.28-3.82-20.97,1.91c-.21-.52.21-2.03,0-2.55l31.31-.64Z"/>
            <path class="cls-17" d="M218.64,122.88c-4.63.54-9.36,1.56-13.98,1.91-1.05.08-3.36,1.28-4.75.64-.89-.41-1.51-3.34-1.96-4.46l20.97-1.91-.28,3.82Z"/>
            <path class="cls-17" d="M223.67,128.61c-3.02-.28-5.24-1.49-8.67-1.27-4.95.32-9.77,3.29-14.26,4.14.74-.49,1.12-1.64,1.68-2.23,4.83-5.15,20.48-6.05,25.44-.64-1.39-.09-2.82.13-4.19,0Z"/>
            <path class="cls-37" d="M218.08,131.8l2.8,71.31c-.63,4.03-.79,8.02-.56,12.1-3.14,8.12-5.85,17.18-12.86,22.28-1.53-35.66,2.69-71.39,4.47-106.97,2.96-.21,3.64.45,6.15,1.27Z"/>
            <path class="cls-17" d="M211.93,130.52c-1.78,35.58-6,71.3-4.47,106.97v.64c-.07-.23-1.75-1.41-2.24-4.14-1.28-7.24,3.68-10.2-6.15-10.51.26-4.61,1.51-11.68-1.12-15.28,1.84-24.81,4.39-49.6,5.59-74.49,1.84-.28,5.48-2.98,8.39-3.18Z"/>
            <path class="cls-55" d="M183.41,166.81c1.95,10.93,2.75,31.21,3.35,42.98.62,12.16.22,24.46,1.12,36.61l-.56.64-14.26.64c-2.06-3.31-1.22-4.34-.28-7.64,7.47-26.21,6.68-48.66,5.59-76.4,2.17-.29,1.32-4.24,1.96-5.73,2.08,2.29,1.45,6.22,1.96,8.6.12.55,1.11.25,1.12.32Z"/>
            <path class="cls-37" d="M178.38,163.63c1.09,27.74,1.88,50.19-5.59,76.4-7.23-34.01-4.11-70.84-3.35-105.69,1.5-.32,5.64-1.74,6.71.32,1.5,2.89,2.06,24.4,2.24,28.97Z"/>
            <path class="cls-66" d="M165.52,201.2c.58,15.7.75,31.4,3.91,46.8-.41.65-6.08.26-7.27.32-.19,0-.37,0-.56,0l1.68-63.03c2.25-.3,1.51.51,1.68,2.23.41,4.29.4,9.33.56,13.69Z"/>
            <g>
              <path class="cls-3" d="M225.91,29.29c-6.55,5.43-13.04,10.13-20.13,14.64-29.66,18.88-63.18,29.42-91.14,51.89-.43,2.07,12.33.12,13.14-.32.3-.16.5-1.61.84-1.91,3.5-1.15,7.02-1.94,10.62-2.55,6.2-1.05,12.77-1.98,19.01-2.55,18.98-1.73,38.53-2.01,57.59-2.55v1.91c-6.7.32-13.43,1.09-20.13,1.27-3.45.09-6.86-.85-10.34-.64-.33,3.04,3.24-1.34,1.68,3.18l-54.23,9.55,1.4,1.91c-5.84,1.01-13.06,2.65-18.73,4.46-3.57,1.13-9.01,3.25-12.02,5.73-.96-.12-1.55.27-2.24-.96,1.98-7.76,3.81-16.41,8.95-22.6,2.93-3.54,8.55-7.02,12.3-9.55.48-.1,1.14.3,1.12-.64.12-.06.36.03.56,0,.42-.06.62-.08.56-.64.18-.05.39.05.56,0,.34-.11.63,0,.56-.64.18-.05.39.05.56,0,.34-.11.63,0,.56-.64,10.64-3.32,26.61-15.6,37.74-21.01,20.06-9.77,42.45-14.54,60.38-29.29.87.36.77,1.84.84,1.91Z"/>
              <path class="cls-66" d="M225.91,29.29c5.45,5.81,6.67,6.59,13.42,10.19-4.57,1.88,6.96,8.09,9.23,9.55,3.38,2.19,26.91,16.99,28.51,17.19,1.23.15,2.06-.38,1.96-1.91,16.83,10.46,33.89,20.44,50.88,30.56,2.75,4.73,19.79,14.26,21.25,18.15.75,2-.74.12-1.12,1.59-10.44-7.46-21.47-13.37-32.43-19.74-15.95-8.7-31.73-20.51-47.8-28.65-16.23-8.22-34.2-11.03-48.08-23.56-11.82,7.36-24.38,12.81-36.62,19.1l20.69-17.83c7.09-4.51,13.57-9.22,20.13-14.64Z"/>
              <path class="cls-67" d="M310.89,99.32c-20.13-2.9-52.73,1.09-73.8,2.55-18.13,1.25-36.17,3.11-54.23,5.09-17.9,1.97-36.16,3.47-53.95,6.37-4.66.76-10.46,1.83-14.82,3.82-.18-1.9.47-3.96-.56-5.73,36.96-7.22,71.94-10.56,109.59-12.73,9.18-.53,18.49-1.63,27.68-1.91,19.48-.58,41.19-1.38,60.1,2.55Z"/>
              <path class="cls-55" d="M310.89,99.32c2.11.3,5.85,1.61,7.83,2.55,5.44,2.57,13.19,9.54,18.45,13.37,2.4,1.75,14.97,12.56,15.93,12.73.71.13.8-.47,1.4-.64,5.51,7.9,8.08,6.16,1.12,14.64-.56-2.91-8.31-9.41-10.62-11.46-6.52-5.41-13.37-14.19-20.41-18.46-20.84-12.65-63.98-6.37-87.5-3.82v-6.37c21.07-1.46,53.68-5.45,73.8-2.55Z"/>
              <path class="cls-36" d="M363.45,115.88c-10.47-8.63-22.19-14.24-33.55-21.01-16.99-10.12-34.05-20.1-50.88-30.56-5.01-3.11-9.8-7.09-14.82-10.19-6.07-3.74-13.68-6.37-18.73-11.46,26.05,12.85,103.59,46.99,117.97,73.22Z"/>
              <path class="cls-66" d="M182.86,106.97l.56,8.28c-9.65,1.43-19.48,2.59-29.07,4.46-2.86.56-5.72,1.37-8.67,1.27-1.44.57,7.73,7.61-4.19,8.91-2.01.22-4.14-.21-6.15,0,1.27-3.31,6.02-.53,8.11-2.55l-19.29-.32,10.34-2.87c4.86-3.72-17.02-10.87-19.29-3.18-.77-1.36-.97-2.22-1.12-3.82,4.36-1.99,10.16-3.06,14.82-3.82,17.79-2.9,36.06-4.4,53.95-6.37Z"/>
              <path class="cls-74" d="M223.11,96.78v1.91c-37.64,2.17-72.63,5.52-109.59,12.73-1.51.3-9.39,2-10.06,1.91,3.01-2.48,8.45-4.6,12.02-5.73,5.68-1.8,12.89-3.44,18.73-4.46,17.17-2.98,37.31-4,54.79-5.09,11.31-.71,22.78-.84,34.11-1.27Z"/>
              <path class="cls-3" d="M135.33,129.89c-1.8.19-4.37-.65-6.43,0l-10.34,3.82c-2.21-.67-4.05-10.39-3.35-12.73,2.27-7.69,24.15-.54,19.29,3.18l-10.34,2.87,19.29.32c-2.09,2.02-6.84-.76-8.11,2.55Z"/>
              <path class="cls-55" d="M363.45,115.88c1.04,1.89,2.74,2.99,1.12,6.05-1.2,2.27-2.67,1.18-3.35,1.59-2.25-3.61-6.99-4.13-10.06-6.37-.11-.08.58-1.33-1.12-2.55.37-1.48,1.87.41,1.12-1.59-1.46-3.89-18.49-13.41-21.25-18.15,11.36,6.77,23.08,12.38,33.55,21.01Z"/>
              <path class="cls-37" d="M245.48,42.66c5.05,5.09,12.66,7.72,18.73,11.46,5.02,3.1,9.81,7.07,14.82,10.19.11,1.53-.73,2.06-1.96,1.91-1.6-.2-25.13-15-28.51-17.19-2.26-1.46-13.79-7.67-9.23-9.55,1.99,1.06,4.14,2.19,6.15,3.18Z"/>
              <path class="cls-9" d="M351.15,117.15c3.07,2.23,7.81,2.76,10.06,6.37-.95.57-6.25,3.69-6.71,3.82-.59.17-.69.76-1.4.64-.96-.17-13.53-10.98-15.93-12.73l13.7,9.55.28-7.64Z"/>
              <path class="cls-41" d="M122.47,80.22c-3.76,2.53-9.37,6.01-12.3,9.55-.36-4.77,9.09-8.89,12.3-9.55Z"/>
              <path class="cls-41" d="M124.15,79.59c-.07-.61.19-.54.56-.64.06.56-.14.57-.56.64Z"/>
              <path class="cls-41" d="M123.59,79.59c.02.93-.64.54-1.12.64.52-.35.62-.38,1.12-.64Z"/>
              <path class="cls-41" d="M125.27,78.95c-.07-.61.19-.54.56-.64.07.63-.22.53-.56.64Z"/>
              <path class="cls-41" d="M126.38,78.31c-.07-.63.22-.53.56-.64.07.63-.22.53-.56.64Z"/>
              <path class="cls-15" d="M345,130.52c-7.61-6.75-17.4-14.72-26.28-17.83-10.69-3.74-18.99-5.15-29.63.64-.08-.82-.82-2.61-.84-3.82-1.98.03-12.38-.28-13.14.96-.11.17-.34,2.98-.56,4.14l-30.19,1.27c0-.23-.92-3.48-.84-4.46l-14.26,1.59c.38,1.53-.05,3.47,0,4.78l-31.31.64c-.09-.23-.52-1.22-.56-1.27l8.95-2.23-7.83-1.59c12.86-1.81,25.67-3.7,38.58-5.09,23.52-2.55,66.66-8.83,87.5,3.82,7.04,4.27,13.89,13.06,20.41,18.46Z"/>
              <path class="cls-74" d="M198.51,113.33l7.83,1.59-8.95,2.23c-.96-1.3-2.6-1.87-4.19-1.27-2.4.9-.91,2.71-1.4,4.46l-34.67,3.82c-.96-1.58-.97-3.36-2.8-4.46,9.59-1.86,19.42-3.03,29.07-4.46,4.98-.74,10.09-1.2,15.1-1.91Z"/>
              <path class="cls-59" d="M219.2,50.94c2.52,3.47,6.33,5.69,9.78,7.64,15.73,8.89,37.98,21.17,54.51,26.74-4.24,3.27-13.35,1.99-19.01,1.91-.74-1.63-6.08-1.83-7.55-1.91-13.61-.78-27.49.26-41.09.64-19.06.53-38.6.82-57.59,2.55,18.19-10.99,37.88-19.44,55.07-32.47,1.35-1.02,3.21-3.68,4.19-4.46.65-.52,1.43-.49,1.68-.64Z"/>
              <path class="cls-74" d="M317.6,94.87c-15.34-8.91-35.77-21.08-52.56-28.01-1.43-1.9-6.13-4.44-8.39-3.18-7.7-3.07-17.32-4.49-24.88-7.64-4.71-1.96-7.93-6.92-12.86-6.37-.64.37.6,1.08.28,1.27-.25.15-1.02.12-1.68.64l-78.28,39.48c-3.61.61-7.13,1.4-10.62,2.55.05-.04-1.36-.42-.28-1.27,1.76-1.39,6.17-3.75,8.39-5.09,14.67-8.91,32.98-17.56,48.36-25.47,12.24-6.29,24.8-11.74,36.62-19.1,13.89,12.53,31.86,15.34,48.08,23.56,16.08,8.15,31.85,19.95,47.8,28.65Z"/>
              <path class="cls-49" d="M185.09,61.76c-15.39,7.91-33.69,16.56-48.36,25.47-2.21,1.34-6.63,3.71-8.39,5.09-1.08.85.33,1.23.28,1.27-.33.3-.54,1.75-.84,1.91-.81.44-13.57,2.39-13.14.32,27.96-22.48,61.47-33.01,91.14-51.89l-20.69,17.83Z"/>
              <path class="cls-33" d="M217.52,51.57c-.99.78-2.84,3.43-4.19,4.46-17.19,13.04-36.88,21.48-55.07,32.47-6.24.57-12.81,1.5-19.01,2.55l78.28-39.48Z"/>
              <path class="cls-69" d="M195.71,89.14l5.03,3.82c-4.56,1.05-9.16,1.96-13.7,3.18l1.96,1.91c-17.48,1.09-37.62,2.11-54.79,5.09l-1.4-1.91,54.23-9.55c1.56-4.53-2.01-.14-1.68-3.18,3.48-.21,6.9.73,10.34.64Z"/>
              <path class="cls-66" d="M245.48,86.59c.24,1.91-1.5,1.24-2.52,1.27-14.6.48-27.94,1.8-42.21,5.09l-5.03-3.82c6.7-.18,13.42-.95,20.13-1.27,9.94-.48,19.63-1.18,29.63-1.27Z"/>
              <path class="cls-17" d="M264.49,87.23c-6.35-.09-12.63-.69-19.01-.64-10,.09-19.69.8-29.63,1.27v-1.91c13.6-.38,27.48-1.41,41.09-.64,1.46.08,6.81.28,7.55,1.91Z"/>
              <path class="cls-54" d="M256.66,63.67c2.76,1.1,5.65,2.05,8.39,3.18,16.78,6.93,37.22,19.11,52.56,28.01,10.96,6.36,21.99,12.27,32.43,19.74,1.7,1.21,1.01,2.47,1.12,2.55l-.28,7.64-13.7-9.55c-5.26-3.83-13.01-10.8-18.45-13.37,1.13-.18-.72-1.83-.84-1.91-10.59-6.9-52.18-4.69-66.26-4.46l41.09-7c-1.6-2.58-6.34-2.21-9.23-3.18-16.54-5.57-38.78-17.85-54.51-26.74-3.46-1.95-7.26-4.17-9.78-7.64.32-.19-.92-.91-.28-1.27,4.93-.55,8.15,4.4,12.86,6.37,7.56,3.15,17.18,4.57,24.88,7.64Z"/>
              <path class="cls-32" d="M237.09,101.87v6.37c-12.91,1.4-25.72,3.28-38.58,5.09-5.01.71-10.11,1.17-15.1,1.91l-.56-8.28c18.06-1.99,36.11-3.84,54.23-5.09Z"/>
              <path class="cls-15" d="M251.63,95.5c14.08-.23,55.66-2.45,66.26,4.46.12.08,1.97,1.73.84,1.91-1.97-.93-5.72-2.24-7.83-2.55-18.91-3.92-40.63-3.13-60.1-2.55-9.19.28-18.5,1.38-27.68,1.91v-1.91c9.44-.36,19.15-1.12,28.51-1.27Z"/>
              <path class="cls-32" d="M251.63,95.5c-9.36.16-19.07.91-28.51,1.27-11.32.44-22.8.57-34.11,1.27l-1.96-1.91c4.54-1.23,9.14-2.13,13.7-3.18,14.28-3.3,27.61-4.61,42.21-5.09,1.02-.03,2.76.64,2.52-1.27,6.38-.06,12.66.55,19.01.64,5.66.08,14.77,1.35,19.01-1.91,2.89.97,7.63.6,9.23,3.18l-41.09,7Z"/>
              <path class="cls-38" d="M265.04,66.85c-2.74-1.13-5.62-2.08-8.39-3.18,2.25-1.26,6.96,1.28,8.39,3.18Z"/>
            </g>
            <path class="cls-3" d="M199.07,223.48c-.32,5.57-1.16,18.08-2.8,22.92-.54-12.57.74-25.57,1.68-38.2,2.62,3.61,1.38,10.68,1.12,15.28Z"/>
            <path class="cls-55" d="M213.61,247.68c-.91-.07-3.47.32-3.91-.32-.59-.85,1.19-1.08,1.12-1.27-.94-2.6-2.3-4.53-3.35-7.96v-.64c7-5.1,9.72-14.16,12.86-22.28.24,4.18,5.27,29.61,4.47,30.88l-11.18,1.59Z"/>
          </g>
        </g>
      </g>
      <path class="cls-51" d="M124.86,134.61c-1.45,39.17-2.9,78.35-4.35,117.52"/>
      <path class="cls-51" d="M149.23,247.44c.7.12,1.4.24,2.09.36-3.44-39.25-6.38-78.56-8.83-117.93-1.83-2.22-2.41,4.66-4.89,5.38-6.96,2.01-13.92,4.03-20.88,6.04,10.64-2.28,21.15-.97,31.47,1.98-5.53-6.65-12.16-8.21-19.12-10.93,3.38-2.8,25.08.07,18.88-9.87,0,1.08-.6,2.95-1.76,2.42"/>
      <path class="cls-51" d="M114.34,119.7c-.03,4.52.74,9.05,2.23,13.16.31.84.69,1.73,1.37,2.1.64.35,1.38.13,2.06-.09,2.59-.85,5.18-1.69,7.77-2.54.37-.12.79-.29.94-.74s-.34-1.05-.6-.69"/>
      <path class="cls-51" d="M158.41,115.98c-2.2,1.98-2.24,6.44-.55,9.11,1.68,2.67,4.56,3.73,7.26,3.7s5.34-.97,7.99-1.63c5.25-1.3,10.67-1.45,15.96-.46.75.14,1.61.27,2.17-.37.39-.45.52-1.15.61-1.81.32-2.38.39-4.82.2-7.23-.61.24-1.22.49-1.83.73"/>
      <path class="cls-51" d="M161.08,130.84c8.09-2.65,16.61-3.12,24.85-1.38-8.68-.06-17.36,2.18-25.32,6.53,8.21-.98,16.42-1.96,24.63-2.94-.94-1.2-2.08,1.23-2.04,2.92.98,42.52,3.09,84.99,6.33,127.33,1.66-1.67,1.64-5.36-.05-7"/>
      <path class="cls-51" d="M164.31,131.44c1.94,33.79-2.06,67.61-4.23,101.37-.48,7.48-.86,15.13.71,22.37.29-1.54.59-3.07.88-4.61"/>
      <path class="cls-51" d="M200.3,113.78c-.75,3.04-1.01,6.28-.77,9.45.04.49.1,1.01.37,1.37.31.42.8.5,1.26.54,10.35,1.01,20.89-3.48,31.02-.61-2.08-2.88-3.33-6.7-3.46-10.6.97,1.8-.1,4.7-1.81,4.94"/>
      <path class="cls-51" d="M229.94,247.44c-4.74-36.54-4.6-82.96-6.07-119.94-.51,1.32,0,3.12,1.07,3.71-7.86-1.26-15.95-.12-23.39,3.3,7.12-6.04,16.04-8.6,24.53-7.04-7.37-.94-14.84-.6-22.14.99.46.19,1.17-.32.71-.17s-.59.9-.62,1.51c-2.23,39.2-4.47,78.4-6.7,117.6"/>
      <path class="cls-51" d="M245.28,111.03c-.42,4.16-.55,8.36-.38,12.55,9.37-1.96,18.86-2.99,28.36-3.1.71,0,1.52-.06,1.99-.72.36-.5.44-1.21.5-1.88.33-3.58.66-7.16.99-10.74-.46,1.05-.92,2.11-1.38,3.16"/>
      <path class="cls-51" d="M247.52,254.67c.48,1.03-1.04,1.99-1.74,1.18s-.64-2.2-.52-3.38c3.74-39.01,5.72-78.3,5.91-117.59.02-4.95,19.88-1.31,23.53-2.72-2.71,1.05-5.71.86-8.33-.52,2.44,42.42,4.87,84.83,7.31,127.25.76-1.16.33-3.2-.79-3.73"/>
      <path class="cls-51" d="M290.04,109.1c-1.21,4.45-1.84,9.14-1.88,13.85,10.2-3.15,21.02-3.02,31.18.37.29-5.42-.08-10.88-1.07-16.17"/>
      <path class="cls-51" d="M292.14,125.22c7.64-.03,15.28-.7,22.86-2-7.84,2.06-15.68,4.12-23.52,6.19,7.8-.4,15.61-.8,23.41-1.2-1.14-1.05-2.15,1.53-2.1,3.31,1.09,40.17,2.19,80.33,3.28,120.5"/>
      <path class="cls-51" d="M294.38,131.45c.09,41.91-1.97,83.83-6.15,125.41,1.4.22,2.63-1.97,2-3.56"/>
      <path class="cls-51" d="M359.86,247.52c-3.25-42.94-5.39-86-6.43-129.11.9,1.89,0,4.72-1.68,5.31,2.84,4.11,5.68,8.23,8.52,12.34-1.57-4.68-2.33-9.79-2.2-14.87-15.45-10.06-30.91-20.12-46.36-30.17.89,1,1.78,1.99,2.68,2.99"/>
      <path class="cls-51" d="M117.07,112.65c-3.29.6-6.57,1.19-9.86,1.79.56-.26,1.12-.51,1.68-.77-.32-2.27-.65-4.53-.97-6.8,1.13-1.05,2.26-2.1,3.38-3.15-2.95-.09-5.9-.17-8.85-.26.47-1.76,1.27-3.39,2.32-4.7,23.59-29.6,55.9-31.64,85.54-50.7,9.5-6.11,19.03-12.24,28.99-17.05,2.27-1.1,4.83-2.13,7.08-.94,1.84.97,3.03,3.2,4.5,4.91,2.67,3.1,6.29,4.47,9.76,5.79,39.58,15.08,77.57,36.82,112.63,64.47,5.14,4.05,10.54,8.74,12.53,15.96-2.36,2.64-5.2,4.61-8.24,5.72"/>
      <path class="cls-51" d="M222.51,42.35c6.78,9.13,17.22,11.8,26.78,15.12,18.08,6.29,35.3,16.54,50.64,30.16-7.19-.23-14.39-.47-21.58-.7-15.64-.51-31.28-1.02-46.91-.53-36.66,1.14-73.42,3.82-110.04,5.21-.55,7.27,16.04-3.61,19.55-5.33,9.11-4.45,18.19-9.03,27.22-13.74,18.3-9.54,36.42-19.61,54.34-30.2Z"/>
      <path class="cls-51" d="M111.8,108.3c61.75-9.49,124.13-12.46,186.28-8.89,3.04.17,6.09.37,9.1.9,16.41,2.9,30.72,15.71,42.37,30.57"/>
      <path class="cls-51" d="M346.1,132.65c-8.64-8.45-17.69-16.23-27.08-23.3,4.61,15.67,4.54,32.82,4.61,49.54.12,31.37.91,62.74,2.35,94.07"/>
      <path class="cls-51" d="M105.13,252.2c86.08-4.55,172.28-5.46,258.41-2.73-.06,3.25.61,6.53,1.92,9.33-10.56-2.52-21.43-.91-32.11.55-80.51,11.01-161.8,12.99-242.59,5.9.7,1.92,1.4,3.84,2.1,5.76,74.65,7.09,149.6-1.66,224.25-8.74,14-1.33,28.02-2.6,42.05-2.12,9.04.31,18.81,1.74,25.43,9.51-2.21,1.28-3.29,5-2.25,7.77-20.64-4.51-41.76-3.2-62.69-2.05-48.71,2.67-97.45,4.39-146.2,5.14-34.51.53-69.03.58-103.52-1.08.96-.9,2.33.35,2.76,1.76s.41,3.05,1.11,4.28c1.06,1.87,3.19,1.96,5.01,1.88,71.79-3.19,143.37,15.2,215.17,11.99,33.92-1.52,67.57-7.84,101.13-14.16-3.32-1.41-7-1.46-10.35-.14-.2-3.01-.41-6.03-.61-9.04.99,2.15,1.59,4.57,1.77,7.04-1.32-1-2.39-2.51-3.02-4.28"/>
      <path class="cls-51" d="M92.86,267.84c-.22,1.85-.45,3.7-.67,5.56-4.4.88-7.73-4.81-9.64-9.88-1.81-4.8-3.42-9.9-3.4-15.22.02-5.32,1.97-10.91,5.74-13.31,3.76-2.4,9.21-.31,10.42,4.78-5.87-4.31-12.53-10.33-12.2-18.89.16-4.15,2.04-7.89,4.21-11.03,4.18-6.05,9.66-10.64,15.7-13.17-.26,1.94-2.64.51-3.45-1.17-1.66-3.45-3.37-7.09-3.48-11.12-.11-4.03,2.01-8.46,5.2-8.76,1.56-.15,3.07.69,4.41,1.68,10.13,7.49,13.84,26.06,7.73,38.71-.78-6.58.5-13.51,3.5-18.97,1.84-3.35,5.56-6.28,8.1-3.75-.7,10.63-1.4,21.26-2.1,31.89-.14,2.16-.19,4.64,1.05,6.13-.16,1.98-1.14,3.83-2.53,4.77"/>
      <path class="cls-51" d="M76.51,266.31c.72,1.86-.84,4.11-2.48,4.23s-3.13-1.13-4.4-2.45c-4.28-4.44-7.7-10.2-9.86-16.63-1.29-3.83-2.14-8.07-1.46-12.14,1.06-6.35,5.52-10.8,9.87-14.27,3.37-2.69,7.46-5.21,11.18-3.42-1.01,4.19-3.75,7.82-7.17,8.63s-7.28-1.73-8.26-5.93c-.87-3.71.53-7.74,2.57-10.64s4.67-5.01,6.94-7.61c.49-.57,1-1.24,1.04-2.08.04-1.06-.67-1.89-1.28-2.61-7.85-9.19-7.68-27.02.33-35.98.06,1.35.52,2.67,1.27,3.65,2.48-2.8,4.96-5.59,7.44-8.39,1.14-1.28,2.52-2.66,4.02-2.3,1.57.37,2.46,2.45,3.03,4.33,4.13,13.71,2.74,29.87-3.63,42.13,1.35-2.85,3.6-5.01,6.14-5.87,1.12,3.92,1.05,8.36-.19,12.22-.47-2.01-.94-4.02-1.41-6.04"/>
      <path class="cls-51" d="M241.09,129.03c3.83,1.4,7.81,1.33,11.83.87,4.58-.52,9.23-1.55,13.81-1.52,1.85.01,4.12.56,4.66,2.58-6.53,1.79-8.58-2.61-13.69-5.48-2.27-1.28-3.59-2.38-6.26-2.26s-8.72,6.4-10.34,5.81Z"/>
      <path class="cls-51" d="M115.61,110.26c-.95,3.02-.91,6.44.11,9.43,9.3-2.82,18.68.82,28.31.92,29.73.31,59.05-6.98,88.48-11.74s60.04-6.9,88.37,3.38c-.97-4.04-1.94-8.08-2.91-12.12"/>
      <path class="cls-51" d="M240.26,107.16c-.75.33-1.5.67-2.25,1,12.74-2.08,25.73-2.14,38.48-.19-9.35-1.84-19.08-3.67-28.2-.72,9.66,5.61,21.22,3.79,31.93,1.84-8.09-1.4-16.45-.72-24.28,1.99,4.18-.79,8.37-1.58,12.55-2.36"/>
      <path class="cls-51" d="M344.21,137.69c-1.06-1.1-1.8-2.59-2.08-4.19,5.55,1.66,10.89,4.22,15.8,7.58-.91-.04-1.82-.09-2.74-.13,1.88.88.31,6.42,2.18,7.3.79.37,1.31,2.07.48,1.86"/>
      <path class="cls-51" d="M348.99,167.54c3.5,1.8,6.31,5.25,7.63,9.35"/>
      <path class="cls-51" d="M349.03,188.71c3.04-2.35,7.58-1.74,10.05,1.36-.4.56-.81,1.11-1.21,1.67,1.26.82-2.49,7.72-1.05,7.97s2.55,2.81,1.18,3.35"/>
      <path class="cls-51" d="M348.97,214.47c3.17-2.62,8.05-2.01,10.64,1.34"/>
      <path class="cls-51" d="M313.36,91.87c-18.61-6.32-38.47-.65-57.65,2.77-27.27,4.87-55,5.13-82.48,8.13-20.93,2.29-41.73,6.18-62.2,11.63-12.52,3.33-25.77,7.23-37.97,2.62.36-5.51,7.47-8.47,10.86-4.52"/>
      <path class="cls-51" d="M60.64,298.45c60.02,1.32,120.04,2.64,180.06,3.96,52.16,1.15,104.61,2.27,156.22-6.41-14.1,7.89-29.58,11.94-44.98,15.43-97.41,22.03-252.56-1.7-351.86-3.16,150.72,23.51,308.97-4.25,459.73,6.27-5.53,2.19-11.73,2.12-17.22-.19"/>
      <path class="cls-51" d="M423.39,302.57c-.17-1.26-2.16-.25-1.87.98.29,1.23,1.57,1.71,2.66,1.99,2.73.71,6.44.86,7.42-2.12.64-1.97-.43-4.09-1.54-5.77-3.35-5.11-7.37-9.63-11.9-13.37,6.37-10.67,10.95-23.44,9.64-36.25s-9.86-25.19-21.13-26.53c9.76-12.16,15.48-28.44,15.76-44.91.07-3.79-.18-7.72-1.77-11.04-1.6-3.32-4.86-5.86-8.14-5.25-1.84.34-3.45,1.59-4.88,2.95-6.33,6.06-10.3,15.22-10.65,24.63.94.5,1.87,1,2.81,1.5,6.02.14,10.16-8.38,8.2-14.86s-8.13-10.34-14.14-10.92c-6-.58-11.94,1.47-17.69,3.5-2.95,1.04-6.32,2.54-7.18,5.92,5.87,9.68,16.38,15.46,26.69,14.68-9.41-3.29-20.43.69-26.46,9.54-6.03,8.85-6.68,22-1.55,31.56-9.91-7.55-21.15-15.45-32.89-13.11,2.42,16.98,9.67,33.02,20.38,45.14-4.51-7.34-12.04-14.93-19.08-18.95-1.65-.94-3.95-1.62-5.08.04-.82,1.21-.46,2.96.05,4.37,3.52,9.7,12.86,16.22,22.05,15.38-.66-.03-1.31-.07-1.97-.1.67,0,1.34,0,2.01,0"/>
      <path class="cls-51" d="M103.99,145.45c-6.64.8-13.33,1.11-20,.92.85-.04,1.76-.11,2.45-.68s.98-1.87.35-2.52"/>
      <path class="cls-51" d="M106.76,75.74c-7.1-1.4-14-4.08-20.38-7.9,1.37-.83,2.5-2.19,3.15-3.8"/>
      <path class="cls-51" d="M160.97,41.76c-2.44-1.47-4.22-4-5.93-6.46-3.84-5.53-7.68-11.06-11.51-16.59,1.3,2.35,3.5,4.02,5.9,4.5"/>
      <path class="cls-51" d="M195.43,27.58l-8.93-25.73c.95.08,1.89.16,2.84.23"/>
      <path class="cls-51" d="M261,30.36c1.07-10.64,4.71-20.93,10.43-29.44"/>
      <path class="cls-51" d="M314.15,47.87c8.12-9.5,16.66-18.52,25.57-27.03-.56.59-1.12,1.17-1.67,1.76"/>
      <path class="cls-51" d="M354.72,79.42c9.91-5.7,20.09-10.79,30.48-15.26-.6-.56-1.2-1.12-1.79-1.69"/>
      <path class="cls-51" d="M380.66,128.32c.17.91.35,1.82.52,2.72,8.5,1.19,17.07,1.69,25.63,1.5"/>
    </g>
  </g>
</svg>