<?xml version="1.0" encoding="UTF-8"?>
<svg id="Ebene_2" data-name="Ebene 2" xmlns="http://www.w3.org/2000/svg" xmlns:xlink="http://www.w3.org/1999/xlink" viewBox="0 0 442.84 307.28">
  <defs>
    <style>
      .cls-1 {
        fill: #a3aaa5;
      }

      .cls-2 {
        fill: #6d6d6d;
      }

      .cls-3 {
        fill: #bcbcbd;
      }

      .cls-4 {
        fill: #dac02e;
      }

      .cls-5 {
        fill: #999f9d;
      }

      .cls-6 {
        fill: gray;
      }

      .cls-7 {
        fill: #bebfc0;
      }

      .cls-8 {
        fill: #fbc743;
      }

      .cls-9 {
        fill: #8f8f8f;
      }

      .cls-10 {
        fill: #e3c300;
      }

      .cls-11 {
        fill: #c0b9b5;
      }

      .cls-12 {
        fill: #abd278;
      }

      .cls-13 {
        fill: #efad2e;
      }

      .cls-14 {
        fill: #f5a03a;
      }

      .cls-15 {
        fill: #7c7c7c;
      }

      .cls-16 {
        fill: #595959;
      }

      .cls-17 {
        fill: #fdc940;
      }

      .cls-18 {
        fill: #cdcbce;
      }

      .cls-19 {
        fill: #65728c;
      }

      .cls-20 {
        fill: #dba20a;
      }

      .cls-21 {
        fill: #fcd539;
      }

      .cls-22 {
        fill: #85624e;
      }

      .cls-23 {
        fill: #f9ac95;
      }

      .cls-24 {
        fill: #909090;
      }

      .cls-25 {
        fill: #754f3e;
      }

      .cls-26 {
        fill: #f69b9b;
      }

      .cls-27 {
        fill: #eff0f1;
      }

      .cls-28 {
        fill: #cec29c;
      }

      .cls-29 {
        fill: #b7b4b7;
      }

      .cls-30 {
        fill: #a05e09;
      }

      .cls-31 {
        fill: #2c2c32;
      }

      .cls-32 {
        fill: #9a877b;
      }

      .cls-33 {
        fill: #aaa260;
      }

      .cls-34 {
        fill: #2c2e34;
      }

      .cls-35 {
        fill: #a26009;
      }

      .cls-36 {
        fill: #b9b3b4;
      }

      .cls-37 {
        fill: #7083ba;
      }

      .cls-38 {
        fill: #f26365;
      }

      .cls-39 {
        fill: #838891;
      }

      .cls-40 {
        fill: #d1a39a;
      }

      .cls-41 {
        fill: #9d9d9d;
      }

      .cls-42 {
        fill: #fefeff;
      }

      .cls-43 {
        fill: #ffd4c9;
      }

      .cls-44 {
        fill: #b1d790;
      }

      .cls-45 {
        fill: #f4a1af;
      }

      .cls-46 {
        fill: #f1baac;
      }

      .cls-47 {
        fill: #e1e3e7;
      }

      .cls-48 {
        fill: #c6c6c6;
      }

      .cls-49 {
        fill: #656565;
      }

      .cls-50 {
        fill: #b7adac;
      }

      .cls-51 {
        fill: #ededee;
      }

      .cls-52 {
        fill: #613310;
      }

      .cls-53 {
        fill: #bcae88;
      }

      .cls-54 {
        fill: #f18b37;
      }

      .cls-55 {
        fill: #a0a0a0;
      }

      .cls-56 {
        fill: #613a2f;
      }

      .cls-57 {
        fill: #525359;
      }

      .cls-58 {
        fill: #898989;
      }

      .cls-59 {
        fill: #dce1e3;
      }

      .cls-60 {
        fill: #e0bbb6;
      }

      .cls-61 {
        fill: #c7d0e4;
      }

      .cls-62 {
        fill: #583027;
      }

      .cls-63 {
        fill: #fab163;
      }

      .cls-64 {
        fill: #696567;
      }

      .cls-65 {
        fill: #6f6f6f;
      }

      .cls-66 {
        fill: #dcd13b;
      }

      .cls-67 {
        fill: #c1c7cb;
      }

      .cls-68 {
        fill: #c17a69;
      }

      .cls-69 {
        fill: #aa9c9a;
      }

      .cls-70 {
        fill: #878787;
      }

      .cls-71 {
        fill: #b7c397;
      }

      .cls-72 {
        fill: #ef584d;
      }

      .cls-73 {
        fill: #30546f;
      }

      .cls-74 {
        fill: #ada9a7;
      }

      .cls-75 {
        fill: #d19e8f;
      }

      .cls-76 {
        fill: #e3b300;
      }

      .cls-77 {
        fill: #5b575a;
      }

      .cls-78 {
        fill: none;
        stroke: #000;
        stroke-miterlimit: 10;
      }

      .cls-79 {
        fill: #365ab1;
      }

      .cls-80 {
        fill: #59565a;
      }

      .cls-81 {
        fill: #848484;
      }

      .cls-82 {
        fill: #858585;
      }

      .cls-83 {
        fill: #ededef;
      }

      .cls-84 {
        fill: #5670ba;
      }

      .cls-85 {
        fill: #bf9489;
      }

      .cls-86 {
        fill: #e4c400;
      }

      .cls-87 {
        fill: #909792;
      }

      .cls-88 {
        fill: #fcd879;
      }

      .cls-89 {
        fill: #74777c;
      }

      .cls-90 {
        fill: #365cb2;
      }

      .cls-91 {
        fill: #e8c900;
      }

      .cls-92 {
        fill: #818181;
      }

      .cls-93 {
        fill: url(#Unbenannter_Verlauf_152);
      }

      .cls-94 {
        fill: url(#Unbenannter_Verlauf_153);
      }

      .cls-95 {
        fill: url(#Unbenannter_Verlauf_155);
      }

      .cls-96 {
        fill: url(#Unbenannter_Verlauf_157);
      }

      .cls-97 {
        fill: url(#Unbenannter_Verlauf_156);
      }

      .cls-98 {
        fill: #ececee;
      }

      .cls-99 {
        fill: #696768;
      }

      .cls-100 {
        fill: #758fc5;
      }

      .cls-101 {
        fill: #838383;
      }

      .cls-102 {
        fill: #e3c100;
      }

      .cls-103 {
        fill: #cce7b2;
      }

      .cls-104 {
        fill: #fac440;
      }

      .cls-105 {
        fill: #f47c76;
      }

      .cls-106 {
        fill: #e9e8e9;
      }

      .cls-107 {
        fill: #eac3b8;
      }

      .cls-108 {
        fill: #6a6a6a;
      }

      .cls-109 {
        fill: #737373;
      }

      .cls-110 {
        fill: #c5ba88;
      }

      .cls-111 {
        fill: #39478e;
      }

      .cls-112 {
        fill: #484848;
      }

      .cls-113 {
        fill: #54565a;
      }

      .cls-114 {
        fill: #f4d3c7;
      }

      .cls-115 {
        fill: #df2f40;
      }

      .cls-116 {
        fill: #787878;
      }

      .cls-117 {
        fill: #928287;
      }

      .cls-118 {
        fill: #e7e5e7;
      }

      .cls-119 {
        fill: #ddb1aa;
      }

      .cls-120 {
        fill: #f28796;
      }

      .cls-121 {
        fill: #f6b035;
      }

      .cls-122 {
        fill: #a7badd;
      }

      .cls-123 {
        fill: #65673b;
      }

      .cls-124 {
        fill: #f48239;
      }

      .cls-125 {
        fill: #686868;
      }

      .cls-126 {
        fill: #7b7b7b;
      }

      .cls-127 {
        fill: #a46208;
      }
    </style>
    <linearGradient id="Unbenannter_Verlauf_156" data-name="Unbenannter Verlauf 156" x1="107.99" y1="44.71" x2="134.3" y2="88.4" gradientUnits="userSpaceOnUse">
      <stop offset="0" stop-color="#faba3e"/>
      <stop offset="1" stop-color="#f07e36"/>
    </linearGradient>
    <linearGradient id="Unbenannter_Verlauf_157" data-name="Unbenannter Verlauf 157" x1="124.34" y1="54.68" x2="126.24" y2="75.22" gradientUnits="userSpaceOnUse">
      <stop offset="0" stop-color="#fbc731"/>
      <stop offset="1" stop-color="#f7b132"/>
    </linearGradient>
    <linearGradient id="Unbenannter_Verlauf_155" data-name="Unbenannter Verlauf 155" x1="204.3" y1="216.15" x2="191.09" y2="241.51" gradientUnits="userSpaceOnUse">
      <stop offset="0" stop-color="#5567bb"/>
      <stop offset="1" stop-color="#5d7fbf"/>
    </linearGradient>
    <linearGradient id="Unbenannter_Verlauf_152" data-name="Unbenannter Verlauf 152" x1="128.5" y1="155.72" x2="288.34" y2="166.15" gradientUnits="userSpaceOnUse">
      <stop offset="0" stop-color="#fbb02d"/>
      <stop offset="1" stop-color="#eb3270"/>
    </linearGradient>
    <linearGradient id="Unbenannter_Verlauf_153" data-name="Unbenannter Verlauf 153" x1="214.84" y1="165.31" x2="261.99" y2="241.48" gradientUnits="userSpaceOnUse">
      <stop offset="0" stop-color="#ef285f"/>
      <stop offset="1" stop-color="#d03385"/>
    </linearGradient>
  </defs>
  <g id="versicherungen">
    <g>
      <g id="Generatives_Objekt" data-name="Generatives Objekt">
        <path class="cls-98" d="M397.5,285.05c1.82-.12,3.69-.03,5.68-.04.18.33.06.7.08.9-2.22.12-18.11,1.7-13.93,1.61l-6.62.14c-1.38.03-2.73-.03-3.91.22-4.72.97-9.15,1-13.71,1.13,2.51-.07-15.74,1.28-13.36,1.03-4.99.53-6.86.21-12.28.9-4.67.59-7.49.22-12.04-.27,1.3-.05,24.15-2.72,23.11-2.38l4.5-1.47,5.07-.41,23-.42,14.41-.93Z"/>
        <path class="cls-42" d="M166.75,291.85c1.04.31,2.29.55,3.38.56.12.1.14.34-.07.38l-17.32-.16c-8.61-.08-17.13-.1-25.77-.14l-8.85-.04-69.83-.14c-3.02,0-5.64.61-8.42-.32-1.96-.66-4.23.63-6.09-.63l49.97.3c4.99.03,9.61.16,14.62-.02,13.91-.5,27.85-.31,41.71-.07,3.82.07,7.43.61,11.18.14,2.02-.25,4.16-.23,6.07.25,3.15.78,6.33.25,9.42-.12Z"/>
        <path class="cls-27" d="M129.31,185.67l-8.02,4.54c-10.03,5.44-16.9,8.84-26.14,15.97l-3.65,2.82-10.46,7.21c-.87.6-1.46,1.58-2.59,1.5.5-1.15,9.27-8.14,10.96-9.37,6.89-5.03,13.91-9.66,20.95-14.23,1.8-1.17,9.31-4.16,10.87-5.21,2.43-1.64,5.25-2.83,8.07-3.23Z"/>
        <path class="cls-11" d="M357.25,59.38l1.19-4.23c.1-.34.27-.61.32-.85.3-.12.41.07.37.57,2.18.86,7.71.08,7.63,1.48-.03.63-.43,2.71-1.07,3.02-1.68.82-5.08-.41-8.45,0Z"/>
        <path class="cls-42" d="M403.26,285.9c-.02-.19.1-.57-.08-.9-1.98,0-3.86-.08-5.68.04-.29-.79,6.92-.43,10.58-.91,2.84-.37,5.75.32,8.39-.25,1.42-.31,2.86-.54,4.27.03,1.46.6,3.19-.35,4.63.45l-11.84.41c-4.7.16-7.95,1.01-10.27,1.13Z"/>
        <path class="cls-42" d="M356.24,272.17c-1.16.43-1.88,1.64-3.14,2-4.79,1.39-8.75,4-14.61,4.41.18-1.03,1.13-.73,1.87-.99l8.68-3.17c1.08-.4,2.45-.17,3.42-.91,1.12-.85,2.41-1.31,3.78-1.33Z"/>
        <path class="cls-98" d="M298.71,292.35c.6-.32,1.66-.32,2.32-.53.26-.08.75.02.55-.44.34.05.54-.28.89-.07.62.38,1.38-.25,1.56-.81.21-.05.48-.14.84-.07.28.1.81.1.56-.31.15.13.29.04.45-.03.17.51.67,1.72,1.47,1.7,2.95-.07,5.72.34,8.38-.14,1.57-.28,3.15-.56,4.59,0l-3.17.45c-2.67.38-5.51.23-8.41.33l-8.55.3c-.32.01-.58.84-1.18.47-.3-.18-.31-.4-.3-.85Z"/>
        <path class="cls-42" d="M244.42,301.39c-3.84.08-7.58.24-11.52-.08,2.61-.86,5.33-.26,8.01-.51l5.16-.47c2.55-.23,5.23-.18,8.02-.12l-4.5.66c-1.61.58-3.42-.45-5.18.53Z"/>
        <path class="cls-42" d="M363.92,245.62c-1.13.5-13.26-2.97-8.78-5.48.24-.04.43.1.5.27.15.35-.26.64-.48,1.18.64,1.1,1.96.78,2.85,1.41,1.89,1.33,4.03,1.71,5.9,2.62Z"/>
        <path class="cls-42" d="M283.34,295.99c2.06-2.53,3.99-1.52,7.69-1.76.92.51-8.3,2.33-7.69,1.76Z"/>
        <path class="cls-42" d="M355.28,231.89c-.85,0-1.53.07-2.31-.53-1.38-1.07-3.41-1.02-4.44-2.25.32-.38,6.81,2.41,6.84,2.17l-.09.61Z"/>
        <path class="cls-42" d="M365.84,268.97c-1.73,1.3-3.99,2.3-6.24,2.29.44-.69,5.39-2.69,6.24-2.29Z"/>
        <path class="cls-42" d="M347.1,227.79c-.77-.17-1.82.35-2.37-.4-.1-.33.13-.58.47-.69.44-.15.79,0,1.08.45.39.22,1,.07.83.64Z"/>
        <path class="cls-42" d="M259.37,299.84c-1.03.42-2.15.39-3.45.04,1.03-.42,2.15-.39,3.45-.04Z"/>
        <path class="cls-98" d="M325.58,291.14c-.68.43-1.52.4-2.48.05.68-.43,1.52-.4,2.48-.05Z"/>
        <path class="cls-42" d="M174.42,292.86c-.61-.08-1.65.21-1.98-.44.64-.09,1.92-.5,1.98.44Z"/>
        <path class="cls-42" d="M359.6,271.26c-.4.62-1.26.74-2,.17.81-.31,1.28-.17,2-.17Z"/>
        <path class="cls-42" d="M105.25,52.39c.14-.22.29-.13.44.03.2.68-.43.53-.44-.03Z"/>
        <path class="cls-42" d="M344.25,227.36c-.42-.02-.43-.21-.44-.56.44-.23.48.3.44.56Z"/>
        <path class="cls-42" d="M365.36,245.67c.06.49-.39.4-.72.42-.4.02-.79,0-.72-.47.37.18,1.01,0,1.44.05Z"/>
        <path class="cls-42" d="M345.29,210.37c-.2-.02-.41.01-.61.04-.28-.13-.06-.32-.06-.48.34-.18.83,0,.67.44Z"/>
        <path class="cls-42" d="M355.73,232.39c-.4.18-.48-.24-.44-.5h.49c-.02.16-.05.33-.05.5Z"/>
        <path class="cls-42" d="M119.16,37.4c.19-.03.38-.04.57-.03.04.56-.65.6-.57.03Z"/>
        <path class="cls-42" d="M371.12,246.04c.09.51-.31.52-.72.52s-.81,0-.72-.52c.47.04.97.04,1.44,0Z"/>
        <path class="cls-42" d="M113.93,44.62c-.09-.15-.09-.32.02-.47.61-.02.61.64-.02.47Z"/>
        <ellipse class="cls-42" cx="196.48" cy="300.32" rx=".39" ry=".37"/>
        <path class="cls-42" d="M338.49,278.58c-.14.77-1.15.62-1.49.16.68-.33,1.09-.12,1.49-.16Z"/>
        <ellipse class="cls-42" cx="367.52" cy="268.28" rx=".24" ry=".23"/>
        <path class="cls-42" d="M356.24,272.17c.57.11.66.12.56.1s-.38-.08-.56-.1Z"/>
        <path class="cls-42" d="M130.75,154.53c-.07.25.08.37.24.47.51.3,0,.35-.25.54.08-.22-.02-.54-.24-.53s-.49-.12-.71-.13c-.01-.49.58-.38.96-.36Z"/>
        <ellipse class="cls-42" cx="280.68" cy="296.66" rx=".24" ry=".23"/>
        <path class="cls-42" d="M365.84,268.97c.57.11.66.12.56.1s-.38-.08-.56-.1Z"/>
        <path class="cls-42" d="M75.1,220.45c-.33.09-.42.08-.38.05s.2-.08.38-.05Z"/>
        <path class="cls-42" d="M69.98,223.98l3.62-2.6c-.74,1.27-1.52,1.89-3.62,2.6Z"/>
        <path class="cls-42" d="M283.34,295.99c-.22,0-.32-.15-.32-.21s.11-.06.32.21Z"/>
        <path class="cls-42" d="M348.08,228.72c-.36-.03-1.09-.55-.97-.93.43.09.97.4.97.93Z"/>
        <path class="cls-27" d="M77.02,218.62c.26-.3.95-.95,1.44-.92-.25.57-.66,1.12-1.44.92Z"/>
        <path class="cls-27" d="M75.1,220.45c.04-.4.39-.79.96-.92-.04.4-.39.79-.96.92Z"/>
        <path class="cls-27" d="M76.06,219.54c-.03-.46.49-.69.96-.92-.02.28.08.54,0,.7-.14.26-.48.26-.95.21Z"/>
        <path class="cls-27" d="M129.31,185.67c.33-.09.42-.08.38-.05s-.2.08-.38.05Z"/>
        <g>
          <path class="cls-4" d="M371.12,246.04c-.47.05-.97.04-1.44,0l-4.32-.37c-.43-.04-1.07.13-1.44-.05-1.88-.91-4.02-1.29-5.9-2.62-.9-.63-2.21-.31-2.85-1.41.22-.54.62-.83.48-1.18-.07-.17-.26-.31-.5-.27.13-.4.36-1.05.71-1.37,1,.8,2.07,1.72,3.25,2.28,9.95,4.69,25.78.95,35.58-3.22.06,1.12-1.47,2.23-2.79,2.36-1.69.16-1.68,1.49-2.33,1.78-3.81,1.7-7.84,3.01-11.84,3.41l-6.61.66Z"/>
          <path class="cls-53" d="M350.48,225.46c1.98.8,5.72,1.65,7.98,1.01.24,1.13.39,2.45-.13,3.49-2.24,1.13-2.3.25-2.55,1.94h-.49s.09-.61.09-.61c-.04.24-6.52-2.54-6.84-2.17-.22,0-.56-.09-.46-.39,0-.53-.54-.83-.97-.93.18-.58-.43-.42-.83-.64-.29-.45-.64-.59-1.08-.45-.34.11-.57.36-.47.69-.17.12-.32-.03-.48-.03.04-.26,0-.79-.44-.56l-.39-13.69c-.03-1.15-.53-2.64.92-2.68-.14,1.29-.12,2.58.06,4.03.38,2.92-.76,6.09.09,9.15.64,2.31,4.33,3.08,5.99,1.85Z"/>
          <g>
            <path class="cls-42" d="M396.99,225.91c-.44-2.28.04-4.63,0-6.89l13.47-.19c1.63-.02,3.47-.03,4.76-.68.09,2.78,1.63,3.46.01,5.41.21,1.12-.43,2.05-1,2.98-1.24,2.05-4.31,1.37-6.58,1.44-3.33.1-6.49-.42-9.25-2.12-.52-.32-.99.02-1.42.04Z"/>
            <g>
              <g>
                <path class="cls-1" d="M413.3,187.46c-.17,6.89.29,13.8-.26,20.64-.25-.1-.54-.03-.67.23-.09.18.03.46,0,.69l-6.67.14-8.76-.47c.53-5.49-6.7-8.93-11.96-9.29v-4.97c0-.34.11-.7.04-1.05-.27-1.31,0-2.94.42-3.99,8.31,1.35,19.91.85,27.85-1.93Z"/>
                <path class="cls-66" d="M413.3,187.46c-7.94,2.78-19.55,3.28-27.85,1.93-.51-1.39-.49-3.06-.46-4.58l.57-1c6.42-2.4,19.17-2.86,25.78.13,2.03.92,2,2.04,1.97,3.52Z"/>
              </g>
              <g>
                <path class="cls-87" d="M415.23,218.16c-1.29.65-3.13.66-4.76.68l-13.47.19-.12-9.57.07-.78,8.76.47,6.67-.14c.42,0,1.31.28,1.44-.37,1.64.5,3.01-.49,4.94-1.25-.52,3.22-.79,9.38-3.53,10.76Z"/>
                <path class="cls-42" d="M413.81,208.65c-.13.64-1.02.36-1.44.37.03-.24-.09-.51,0-.69.13-.26.41-.32.67-.23l.77.55Z"/>
              </g>
            </g>
            <g>
              <g>
                <path class="cls-91" d="M384.95,165.53c-9.33,6.05-27.13,1.63-36.68-2.74-2.16-3.13-3.8-1.34-3.55-5.53,2.2-2.18,6.11-2.45,9.66-2.63,9.23-.48,18.71,1.25,26.6,5.43,2.46,1.3,3.94,3.26,3.97,5.47Z"/>
                <path class="cls-127" d="M384.95,165.53l.08,7.22c-.95-.13-1.7.94-2.53,1.28-8.33,3.47-17.27,3.19-25.89,1.91-4.05-.6-8.09-1.43-11.46-3.55-1.16-2.28,2.37-6.75.86-10.32-.76-1.8-1.09,2.84-2.24,1.4.78.98.15-7.61.95-6.21-.25,4.19,1.4,2.4,3.55,5.53,9.55,4.36,27.35,8.79,36.68,2.74Z"/>
              </g>
              <path class="cls-20" d="M345.29,210.37c1.71.19,3.32,1.02,5.18,1.36,2.76.49,5.3.79,7.75,1.4-.12.33-.12,1-.02,1.39-1.37-1.31-3.32-1.43-5.06-1.62l-3.1-.34c-1.55-.17-2.78-1.26-4.47-.89.41,3.93-.45,7.72.42,11.59.35,1.51,3.32,1.73,4.49,2.2-1.66,1.23-5.35.46-5.99-1.85-.86-3.07.28-6.23-.09-9.15-.19-1.45-.2-2.75-.06-4.03.11,0,.22,0,.34-.01.2-.03.41-.06.61-.04Z"/>
              <g>
                <path class="cls-127" d="M385.03,173.84v9.93c-5.21,2.29-11.04,3.41-17.01,3.02-.28-.02-.57.24-.97.31s-.78-.49-1.05-.35c-1.74.91-4.26-.26-5.96-.32-3.61-.13-6.77-.89-10.14-1.46-1.04-.18-1.84-.94-2.77-.68-.34-.63-1.41-1.01-2.01-1.37-.85-3.08-.09-6.35-.39-9.54,8.42,3.38,16.52,4.56,26.05,4.07,5.23-.27,9.75-1.94,14.25-3.61Z"/>
                <path class="cls-10" d="M385.02,172.76c0,.36,0,.72,0,1.08-4.49,1.67-9.01,3.34-14.25,3.61-9.54.49-17.64-.69-26.05-4.07-.04-.46.53-.55.41-.99,3.37,2.13,7.41,2.95,11.46,3.55,8.62,1.28,17.56,1.56,25.89-1.91.83-.35,1.58-1.41,2.53-1.28Z"/>
              </g>
              <g>
                <path class="cls-30" d="M384.99,194.42v4.97c-7.78-.53-19.21,1.16-25.25,6.99-.97.94-1.16,2.06-1.09,3.09-1.15,1.03.15,1.98-.43,3.65-2.45-.6-5-.9-7.75-1.4-1.86-.33-3.47-1.17-5.18-1.36.17-.43-.33-.62-.67-.44l.17-5.43c4.45,1.35,9.13,3.54,14.25,2.2-5.15-.84-9.94-.61-13.87-3.19-.45-2.98-.41-6.16-.08-9.13.61-.18,1.1.05,1.71.3,4.64,1.96,16.6,3.43,22.55,2.78l4.68-.51c1.01-.11,1.95.06,2.58-.12l8.4-2.41Z"/>
                <path class="cls-102" d="M385.03,193.37c.07.34-.03.71-.04,1.05l-8.4,2.41c-.63.18-1.57.01-2.58.12l-4.68.51c-5.95.65-17.91-.82-22.55-2.78-.61-.26-1.1-.48-1.71-.3-.17-.13-.28-.37-.35-.69-.03-.13.09-.3.33-.24,10.56,4.15,29.71,4.75,39.96-.08Z"/>
                <path class="cls-76" d="M344.79,204.5l.37-.99c3.93,2.58,8.72,2.35,13.87,3.19-5.12,1.34-9.8-.85-14.25-2.2Z"/>
              </g>
              <g>
                <path class="cls-35" d="M347.13,184.29c-1.21,1.3,13.04,3.06,13.45,3.07l11.71.33c-2.95-.08,7.97-.96,3.88-.2.21-.04.48-.78.72-.79,3.02-.14,5.52-1.07,8.11-1.9-.03,1.52-.06,3.19.46,4.58-.42,1.05-.69,2.68-.42,3.99-10.24,4.83-29.4,4.23-39.96.08-.38-3.12-.51-6.47-.06-9.57.76.11,1.32.64,2.12.42Z"/>
                <path class="cls-86" d="M385.56,183.8l-.57,1c-2.59.83-5.09,1.76-8.11,1.9-.23.01-.51.75-.72.79,4.09-.76-6.83.12-3.88.2l-11.71-.33c-.41-.01-14.66-1.78-13.45-3.07.93-.26,1.73.5,2.77.68,3.37.57,6.53,1.33,10.14,1.46,1.7.06,4.22,1.23,5.96.32.27-.14.66.41,1.05.35s.69-.33.97-.31c5.97.39,11.8-.73,17.01-3.02.16-.07.37,0,.53.03Z"/>
                <path class="cls-86" d="M347.13,184.29c-.79.22-1.36-.31-2.12-.42-.38.16-.32-.35-.13-.59.07-.09.04-.2.24-.36.59.36,1.67.74,2.01,1.37Z"/>
              </g>
              <path class="cls-52" d="M358.2,214.51c.47,1.73.46,3.7.1,5.46-.08.38-.03.64,0,1.01.09,1.86-.22,3.65.18,5.48-2.27.64-6-.21-7.98-1.01-1.18-.48-4.15-.69-4.49-2.2-.87-3.87,0-7.66-.42-11.59,1.69-.37,2.92.72,4.47.89l3.1.34c1.74.19,3.69.31,5.06,1.62Z"/>
            </g>
          </g>
          <g>
            <path class="cls-33" d="M396.87,209.45l.12,9.57c.03,2.26-.45,4.61,0,6.89.08.44-.06.99-.04,1.45-8.2,5-28.31,4.39-37.88,3.11-.39-.33-.32-1.06-.74-.51.53-1.04.38-2.36.13-3.49-.39-1.83-.08-3.63-.18-5.48,2.7-.11.97.42,6.1,1.13,2.72.37,5.62.37,7.92,1.11,3.57-2.98,1.52,6.63,2.35,7.33.56-3.45,1.67-1.51.24-3.04,1.03,1.1-.69-4.75.51-4.53,2.95-.28,5.77-.7,8.48-.55.51.03.98.15,1.63-.42,3.84-.55,7.49-1.13,10.88-3.43-6.71,2.64-13.85,3.45-21.44,3.28-5.86-.13-11.51-.03-16.67-1.88.37-1.76.37-3.74-.1-5.46-.1-.39-.1-1.05.02-1.39.59-1.67-.72-2.62.43-3.65,4.91,4.81,35.62,6.98,38.22-.02Z"/>
            <g>
              <path class="cls-19" d="M394.68,237.82c-9.8,4.17-25.64,7.91-35.58,3.22l-.03-10.58c9.57,1.28,29.68,1.89,37.88-3.11.12,2.68.33,5.34-.01,8.31-.09.81-1.54,1.86-2.26,2.17Z"/>
              <path class="cls-39" d="M358.33,229.96c.42-.55.35.18.74.51l.03,10.58c-1.18-.56-2.25-1.47-3.25-2.28l-.12-6.38c0-.16.03-.33.05-.5.25-1.68.31-.81,2.55-1.94Z"/>
            </g>
            <path class="cls-28" d="M384.99,199.39c5.26.36,12.48,3.8,11.96,9.29l-.07.78c-2.6,6.99-33.31,4.83-38.22.02-.08-1.03.11-2.16,1.09-3.09,6.05-5.83,17.47-7.53,25.25-6.99Z"/>
            <path class="cls-110" d="M358.29,220.99c-.02-.37-.07-.64,0-1.01,5.16,1.85,10.81,1.75,16.67,1.88,7.58.17,14.72-.64,21.44-3.28-3.4,2.3-7.05,2.89-10.88,3.43-.65.57-1.12.45-1.63.42-2.71-.15-5.54.26-8.48.55-1.2-.22.52,5.63-.51,4.53,1.43,1.53.32-.41-.24,3.04-.83-.7,1.22-10.3-2.35-7.33-2.3-.74-5.2-.73-7.92-1.11-5.12-.7-3.4-1.23-6.1-1.13Z"/>
          </g>
        </g>
        <path class="cls-118" d="M200.46,266.13c-.68-.1-1.12-.97-2.2-.4-.35.19-.25-.29-.13-.45.33-.49,6.27-1.58,3.8-.78.55-.18.21-1.17.39-1.5.3-.56.79-1.12,1.96-.95-.56,2.02.36,2.97,1.99,4.16-2.25-.08-4,.19-5.81-.09Z"/>
        <g>
          <path class="cls-42" d="M326.02,151.25c.01-.99.67-1.83.93-2.73,2.08.99,4.83-4.6,5.69-4.28,1.09.4,3.33-.06,5.27-.77l-3.33,11.92-7.8,18.98c-.34.76-.68.97-.98.06-.45-.07-.87.44-.64.72.17.21.1.81.3.85-4.55,1.3-9.36.21-13.82-1.24-1.92-1.95-4.84-2.62-5.41-5.03-1.19-5-2.39-15.05-3.78-20.2-1.02-3.79,0-8.02-.35-11.88.93-.99,1.54-2.41,2.03-3.7,2.14,0,3.62-3.85,7.57-1.04,1.48,1.05,2.87,3.16,4.07,4.58,4.34,5.12,6.01,12.47,8.64,18.84.73-1.84,1.61-3.47,1.63-5.07Z"/>
          <path class="cls-114" d="M310.66,175.03c3.4,3.04,7.54,5.36,11.43,7.92,1.57,1.04,3.42,3.11,4.85,4.46-.35,3.15-5.51,2.83-3.97,6.92l17.03-8.21c-.2,1.63.08,4.05.22,5.88.5,6.45-8.8,5.83-11.32,9.37-2.34.96-5.28,1.47-7.64,2.91-1.31,3.18-1.08,6.31-3.05,9.19l1.77-8.86c-3.57,1-6.93,1.5-9.82,2.92-.1-.82-.55.26-.93.08-1.16-.07-2.34.02-3.41.45-.09-.63-.53-.83-.01-1.84,1.07-2.09,2.98-4.29,3.05-6.81.27-8.76-.72-17.13-1.44-25.94,1.19.23,2.49.89,3.25,1.57Z"/>
          <path class="cls-13" d="M349.01,138.06c-.32-.39,0-.75.46-.88l5.31-1.44c.57-.15.89-.36,1.01-.62.08-.17.16-.95-.13-.96l-15.13-.68c.07-.62-.1-1.28-.06-1.91.74-.11,1.25-.6,1.93-1.34,6.8-7.39,17.06-21.04,18.56-30.62.06-.39-1-.51-.88-.66l.51-.66c.7.45,1.03-.76,1.41-.31,2.27,2.66,4.22,3.1,5.08,7.64.74,3.93-.46,7.68-2.53,11.1-3.55,5.85-6.16,11.86-7.37,18.61-2.86,1.12-5.44,2.13-8.17,2.74Z"/>
          <path class="cls-51" d="M339.99,186.12l-17.03,8.21c-1.53-4.09,3.62-3.77,3.97-6.92-1.43-1.35-3.28-3.43-4.85-4.46.75-.85,5.4-6.51,3.36-6.95-.2-.04-.14-.65-.3-.85-.22-.28.2-.79.64-.72.3.91.65.7.98-.06l7.8-18.98c.92,1.3-.39,3.08.39,4.69.47.96.29,2.13.59,3.06,1.16,3.58,1.25,7.02,1.96,10.76,1.32,6.96,2.99,8.03,2.48,12.23Z"/>
          <path class="cls-107" d="M143.19,160.06c3.25.39,2.97,3.26,4.06,4.44-1.7,2.94-4.6,1.58-5.16,2.42-.93,1.38,5.6,1.85,6.09,2.64-2.16,2.61-5.19,2.97-8.25,3.74l5.48,2.31c-2.29,4.25-7.94,1.61-8.74,3.66-.42-1.83-2.09.84-3.68-1.74-2.7-4.38-4.23-9.22-5.18-14.28-.58-3.08.57-5.89,2.93-7.7.25-.19.76-.24.25-.54-.17-.1-.31-.22-.24-.47.97.05,2.22-.44,3.33.01,1.38.56,1.73,4.63,9.12,5.52Z"/>
          <path class="cls-8" d="M360.59,98.27l-.51.66c-.12.16.94.28.88.66-1.5,9.59-11.76,23.23-18.56,30.62-.68.74-1.19,1.23-1.93,1.34-.83-1.56-.98-3.15-.49-4.95,2.59-9.51,6.36-18.43,11.27-26.85,1.02-1.76,2.56-3.06,4.33-3.18,2-.14,4.03.17,5.01,1.69Z"/>
          <path class="cls-42" d="M229.2,76.78c-.67,4.57,1.12,3.7-2.49,8.01-2.01.39-3.59,1.75-5.75,2.45-1.92-1.31-3.72-.03-5.6-2.72l9.44-5.52c1.5-.87,2.8-1.96,4.4-2.22Z"/>
          <path class="cls-104" d="M349.01,138.06c-3.05.68-5.7,2.09-8.94,3.11-.49-2.79.17-5.25.46-7.69l15.13.68c.29.01.22.79.13.96-.13.26-.45.47-1.01.62l-5.31,1.44c-.47.13-.79.49-.46.88Z"/>
          <path class="cls-71" d="M149.96,119.75c.08.89,1.15,1.13,1.4,1.93-1.98.46-3.99-.91-5.37-1.79.95-.88-.21-2-.31-3.35,1.49,1.16,2.53,2.76,4.28,3.21Z"/>
          <path class="cls-60" d="M306.21,169.72c.58,2.41,3.49,3.08,5.41,5.03.24.27-.08.41-.26.38-.23-.04-.38-.3-.7-.11-.76-.68-2.06-1.34-3.25-1.57.72,8.8,1.71,17.17,1.44,25.94-.08,2.52-1.99,4.73-3.05,6.81-.52,1.01-.07,1.21.01,1.84s-.49,2.21-1.3,1.87c.13-.45.49-.77.5-1.54-1.02-.05-1.81.26-2.65.31-1.56-2.27-.67-5.44-1.09-8.56-3,1.71-12.6,3.85-14.12.7-.92-1.9,6.8-4.65,8.25-5.38-3.63-.84-6.96-1.07-10.07-2.92,3.07-3,7.02-3.16,11-3.92-1.87-.53-13.42.62-13.99-1.89-.07-.32.37-.78.94-1.02l8.23-3.55c-2.94.61-5.87,1.12-9.09-.32,2.52-4.4,7.63-7.29,12.82-7.67l6.74-.49.22-6.71c.43-.32,3.18,3.71,4,2.76Z"/>
          <path class="cls-32" d="M309.15,128.47c1.64,1.43-3.37,1.03-5.04,5.47-.49,1.3-1.1,2.71-2.03,3.7-.16-1.83-.11-3.66-.51-5.46,5.11-2.43,4.11-5.52,7.58-3.71Z"/>
          <path class="cls-18" d="M290.51,285.41c-4.97,2.73-10.81,4.07-16.66,5.21-.2.04-.19.24-.13.36-.34.04-.65.36-.96.07-.15-.15-.42-.16-.7-.12-.2.03-.5.15-.3.43-3.06-.15-9.07.36-12.39,0,.18-.39-.23-.5-.52-.3-.41.29-1,.02-1.44-.09.07-.5-.35-.57-.73-.5-.27.05-.53-.07-.71.13-.29.32-.63-.01-.96-.08.06-.09.08-.35-.13-.4-9.48-2.25-18.2-6.38-25.78-12.01,1.05-.88,2.6-1.37,4.26-1.83,15.13,11.04,32.3,13.31,50.41,9.53,2.36-.49,4.58-.86,6.74-.41Z"/>
          <path class="cls-7" d="M325.45,175.99c2.04.44-2.6,6.11-3.36,6.95-3.88-2.56-8.03-4.88-11.43-7.92.32-.2.48.07.7.11.18.03.5-.11.26-.38,4.46,1.45,9.27,2.54,13.82,1.24Z"/>
          <path class="cls-123" d="M328.3,124.78c-1.86,4.97-4.64,8.59-10.37,9.57-1.16-2.43-6.41-4.75-7.66-5.91,5.05-2.16,10.37-3.27,15.8-4.08l2.23.41Z"/>
          <g>
            <path class="cls-44" d="M204.51,90.28c-.04-.2-.32-.55-.9-.41-13.73,3.33-26.26,8.97-38.18,15.67-5.65-9.09-12.23-17.94-21.2-24.3.95-.27,1.8-.79,2.83-.98,1.65-.3,4.05-.57,4.88-2.09l1.3-2.36c.04.56.51.44,1.05.43,18.06-.25,40.49,4.51,58.18,8.97-2.68,2.26-5.62,3.28-7.97,5.06Z"/>
            <path class="cls-103" d="M204.51,90.28c-13.78,10.46-27.05,21.91-36.84,35.9-5.44-1.27-11.42-1.74-16.31-4.5-.25-.8-1.32-1.04-1.4-1.93,4.89-4.86,10.55-9.7,15.47-14.21,11.92-6.7,24.45-12.33,38.18-15.67.58-.14.86.21.9.41Z"/>
            <path class="cls-74" d="M287.76,13.62l-7.74.83c-.34-1.82-1.4-3.4-1.65-5.44,3.09-1.7,5.91-3.33,9.17-4.34l.21,8.95Z"/>
            <g>
              <path class="cls-97" d="M142.27,45.67c.03.6-.66,1.01-.45,1.65-7.2-4.96-16.1-4.3-22.89.91-7.07,5.43-9.55,14.2-5.44,22.61,2.45,5.01,7.44,8.85,13.6,9.38,4.23.36,9.09-.65,12.31-3.41.31-.11.97-.17,1.46-.46,1.07,2.22,2.14,4.85,4.91,3.92.22-.08.59-.38.96-.34.19.02.31,0,.33.35-1.03.19-1.88.7-2.83.98-1.08.31-2.58.07-3.94.75l2.06,9.65c-6.76,2.04-13.15,4.66-18.5,9.1-1.72,1.43-3.57,2.36-5.61,3.03-6.53,2.16-7.36,5.53-14.46,7.66,8.91-5.86,18.1-13.27,15.14-25.12-1.14-4.57-10.38-.01-13.19,1.47l-20.57,10.87c-1.28.68-2.32,1.74-3.94,1.17,7.05-3.27,13.07-7.83,18.77-13.06,2.61-2.4,10.29-9.9,8.57-13.23-.32-.62-1.19-1.15-2.28-1.52-8.1-2.79-16.45-3-24.96-2.19-5.57.53-10.68,1.91-15.93,3.45-.44.13-.71.23-1.02-.17-.13-.17-.14-.46.35-.79,8.04-5.4,27.98-7.54,38.29-8.34-1.43-2.7-3.88-4.15-6.2-5.86-7.52-5.54-15.77-9.61-23.91-14.78l32.33,9.07c0,.56.64.71.44.03l-14.35-9.98c-7.83-5.45-15.42-11.36-20.94-18.94l43.54,21.13c.63.17.63-.49.02-.47-3.1-4.91-7.32-9.06-10.97-14.07-4.62-6.33-9.6-12.07-12.59-19.32,8.69,9.2,17.74,21.21,28.78,26.65-.09.57.61.52.57-.03-.09-4.5.14-9,.61-13.73l1.86-18.42,6.83,27.79c1.96-1.35,2.76-3.14,4.12-4.86,4.67-5.93,9.22-11.75,15.9-16.05-6.86,10.85-8.11,21.74-6.79,33.57Z"/>
              <path class="cls-14" d="M156.08,72.14c-1.4-1.39-6.71-5.91-8.56-5.44,2.5-6.79.67-14.48-5.7-19.38-.21-.64.48-1.04.45-1.65.57.55,1.35.07,2.13-.37,13.1-7.44,24.6-19.08,40.81-16.75-9.73,4.04-18.62,10.22-24.79,18.84-1.94,2.71-3.51,5.5-3.23,8.55,12.53-.05,26.37-2.61,37.89-1.68,5.51.45,7.25,3.31,6.3,4.13-.25.22-.95.63-1.56.67-15.76,1.06-30.29,5.74-43.74,13.08Z"/>
              <path class="cls-54" d="M156.08,72.14c-3.56,1.94-2.99,3.96-2.83,3.68l-1.3,2.36c-.83,1.51-3.24,1.79-4.88,2.09-.02-.34-.14-.33-.33-.35-.37-.04-.74.26-.96.34-2.77.93-3.84-1.7-4.91-3.92,3.1-2.76,5.24-5.75,6.67-9.64,1.85-.47,7.16,4.05,8.56,5.44Z"/>
              <path class="cls-96" d="M136.97,69.81c-2.12-2.84,5.21,9.43,2.43,7-3.22,2.76-8.07,3.77-12.31,3.41-6.16-.52-11.16-4.37-13.6-9.38-4.11-8.41-1.63-17.18,5.44-22.61.09-.23.29-.4.54-.18,1.36,2.75,4.6,3.27,6.13,4.94,1.73,1.89,4.04,3.26,5.89,4.68,1.88,4.24,2.83,8.6,5.47,12.14Z"/>
              <path class="cls-21" d="M141.82,47.32c6.38,4.91,8.2,12.59,5.7,19.38l-10.12,2.57c-.32.22-.29.48-.44.53-2.64-3.54-3.59-7.9-5.47-12.14-1.85-1.43-4.15-2.79-5.89-4.68-1.54-1.67-4.77-2.19-6.13-4.94-.25-.22-.45-.04-.54.18,6.79-5.22,15.69-5.87,22.89-.91Z"/>
              <path class="cls-121" d="M147.52,66.7c-1.43,3.89-3.56,6.88-6.67,9.64-.49.29-1.15.36-1.46.46,2.78,2.43-4.55-9.84-2.43-7,.15-.05.12-.31.44-.53l10.12-2.57Z"/>
            </g>
            <g>
              <path class="cls-9" d="M301.26,18.95c-7.16,13.56-6.98,16.55-1.74,30.75-6.2,3.07-6.85,11.33-5.09,17.4.39,1.35.98,2.5,2.24,2.83-1.99,1.96-5.61.58-7.52-1.56-1.15-1.28-9.6-12.23-8.46-12.24h-.74c-.26-.68-.32-1.59-.54-2.28,1.37-.48-2.79-7.13-2.29-5.91-2.19-5.27-6.42-9.37-11.54-11.86-3.39-1.64-6.74-3.34-10.91-3.34,4.83-6.87,16.76-16.43,25.35-17.86,3.77,8.34,5.53,17.39,7.46,26.59,1.41,6.74,1.93,13.16,4.36,19.85-.15-7.74-1.45-15.18-2.09-23.03-.68-8.33-1.52-16.3-1.65-24.37,4.87.15,9.94,1.67,13.16,5.02Z"/>
              <path class="cls-24" d="M358.76,54.31c-.05.23-.22.51-.32.85-11.18-.12-22.21,1.81-32.96,5.89l-15.75,5.98c-.69-.29-1.63.28-2.28.4.06-.38.22-.82.76-1.24,4.3-3.31,6.98-7.49,9.21-11.93.46.1,1.1.23,1.5-.32,5.34-7.14,12.27-14.55,20.94-17.89,5.05-1.94,10.51-.95,14.31,2.9,4.09,4.14,5.68,10,4.59,15.37Z"/>
              <path class="cls-2" d="M296.67,69.93c1.28.4,1.95-.88,3.01-1.37.49.21.92.07,1.41-.01.07.02.03.24-.13.69.78.31,1.7,1.18,2.49,1.11-.08.39-.58.67-.49,1.04.25,1.01,10.92,1.17,16.83,5.44l4.8,3.46c4.34,4.74,7.68,10,10.59,15.63,2.3,10.66-3.91,18.41-4.45,20.65-2.36-.17-2.91,1.4-6.08.48-.79-.23-1.46-.29-1.86-.98.31.12.82-.43.75-.9l-1.07-7.3c-.27-1.81-.23-3.39-.44-4.96-.62-4.59-2-8.99-5.04-13.1-4.45-6.01-10.39-12.22-17.29-14.37-.17-.05-.42-.14-.58-.07-4.49-3.85-13.68-4.55-16.8-12.91l-2.36-6.33h.74c-1.14,0,7.32,10.95,8.46,12.24,1.91,2.14,5.52,3.52,7.52,1.56Z"/>
              <path class="cls-6" d="M317.42,54.25c-2.23,4.45-4.92,8.62-9.21,11.93-.54.42-.7.86-.76,1.24l-6.36,1.13c-.48.09-.92.23-1.41.01,8.56-12.96,14.38-37.21,2.24-49.63.95-2.4,3.16-4.79,5.92-5.78,3.3-1.18,6.51.59,8.29,3.31,5.95,9.08,5.19,26.9-2.27,35.62,1.53.69,3.06,1.01,3.55,2.18Z"/>
              <path class="cls-116" d="M265.57,36.08c-.13,0-.36.17-.26.32,4.29,3.13,7.58,6.96,10.58,11.21.23.32.41.73.75.58.13-.06.24-.25.47-.25-.51-1.22,3.66,5.43,2.29,5.91l-5.69-1.43c-2.62-.66-4.34-2.46-6.59-3.75-2.7-1.56-12.91,9.42-23.73,7.71l-4.68-.74c.15-.45-.37-.39-.79-.51,2.99-8.62,8.77-15.37,15.1-21.82.62-.04,1.11-.29,1.65-.58,4.16,0,7.52,1.7,10.91,3.34Z"/>
              <path class="cls-92" d="M301.92,18.93c12.14,12.42,6.32,36.67-2.24,49.63-1.06.48-1.73,1.77-3.01,1.37-1.27-.33-1.85-1.48-2.24-2.83-1.76-6.07-1.1-14.33,5.09-17.4-5.25-14.2-5.43-17.2,1.74-30.75.18-.02.52-.16.67-.02Z"/>
              <path class="cls-126" d="M344.13,80.3c-.18,3.62.24,7.33-1.31,10.62l-1.76-.65c-5.74-2.13-10.16-7.34-16-10.28-.34-.17-.64.03-.48.28l-4.8-3.46c-5.92-4.27-16.59-4.43-16.83-5.44-.09-.37.41-.65.49-1.04,4.54-.4,8.99-1.39,13.46-2.26.58-.11,1.35.1,1.9-.05,10.69-2.97,20.41,3.4,25.32,12.28Z"/>
              <path class="cls-41" d="M253.01,33.32c-6.33,6.44-12.11,13.2-15.1,21.82.41.12.94.06.79.51-1.79,1.39-.33,4.01-.42,6.01,0,.15-.1.32-.06.47l-1.97.4c-4.38-.83-8.98-1.1-13.47-.95-.37-7.87,4.9-16.71,13.57-17.64,3.85-5.79,9.79-10.2,16.66-10.63Z"/>
              <path class="cls-82" d="M356.12,60.36c-2.29,5.28-6.98,9.26-12.39,12.31.58,2.68.51,5.14.39,7.63-4.91-8.89-14.63-15.25-25.32-12.28-.07-.3-.1-.57.06-.73.25-.25.63.08.94-.04,11.67-4.74,24-6.4,36.32-6.89Z"/>
              <path class="cls-112" d="M358.44,55.15l-1.19,4.23c-.47.22-.57.84-1.12.98-12.33.49-24.66,2.14-36.32,6.89-.31.13-.69-.21-.94.04-.16.17-.13.44-.06.73-.55.15-1.32-.06-1.9.05-.43-1.32-3.27.58-7.17-1.05l15.75-5.98c10.75-4.08,21.79-6.01,32.96-5.89Z"/>
              <path class="cls-65" d="M287.76,13.62c0,.14.14.3.33.31.14,8.06.97,16.04,1.65,24.37.64,7.86,1.94,15.29,2.09,23.03-2.43-6.69-2.95-13.11-4.36-19.85-1.93-9.21-3.7-18.26-7.46-26.59-.05-.12.04-.3.01-.43l7.74-.83Z"/>
              <path class="cls-57" d="M226.72,84.79c.49-.09.74,0,.9.06.43.41.96-.28,1.63.04-2.69,2.29-5.33,4.56-6.75,7.86-2.58,5.95.83,11.57,6.19,14.61-3.67.28-7.16-1.28-9.69-3.61-2.1-1.94-3.31-5.12-3.31-7.71-.01-4.05,2.84-6.24,5.29-8.79,2.15-.7,3.74-2.06,5.75-2.45Z"/>
              <path class="cls-101" d="M236.25,62.53l-4.8,9.55c-.69.53-1.23,1.46-2.27,1.52-1.43.09-2.6-.63-3.53-1.77-2.55-3.12-2.7-6.73-2.87-10.24,4.49-.16,9.09.12,13.47.95Z"/>
              <path class="cls-58" d="M342.82,90.93c-.65,1.38-.24,3.81-2.92,4.24l-4.72.75c-2.91-5.63-6.25-10.89-10.59-15.63-.16-.25.13-.45.48-.28,5.84,2.94,10.26,8.15,16,10.28l1.76.65Z"/>
              <path class="cls-15" d="M228.63,130.3c-.3.37-1.95.38-1.35,1.16.59.78,1.79.52,2.35.67.49.14,1.4.41,1.43.82l-11.95-.41c2.04-.91,3.69-2.53,5.64-3.33l5.2-2.15c.31,1.38-.74,2.53-1.31,3.25Z"/>
              <path class="cls-55" d="M330.72,116.56c-.66,2.77-1.42,5.54-2.43,8.22l-2.23-.41c1.32-4.39-.37-4.82-1.43-7.33,3.17.92,3.72-.64,6.08-.48Z"/>
              <path class="cls-48" d="M232.89,75.37c-1.26.02-2.27,1.33-3.58,1-.22-.93.42-1.92-.12-2.77,1.04-.06,1.58-.99,2.27-1.52,2.02-.57,3.73-1.68,5.26-3.05-.48,1.45-.56,2.9-2.28,4.24-.63.49-1.56,1.33-1.55,2.1Z"/>
              <path class="cls-119" d="M295.31,89.52l2.48,4.2-.99,6.32c1.6.49,2.41,1.48,3.97,2.26.88-1.64,1.52-3.06,1.81-4.47,1.12,0,2.01.8,3.33,1.64-1.79,3.87-3.59,7.72-4.58,12.15,2.34-.62,3.05-2.57,4.83-3.43.99-.49,2.03.25,2.74.72.85,2.24,1.26,4.8,1.74,7.17-3.13,1.75-7.22,1.7-10.45-1.27-1.34,5.09-.31,10.2.85,15.44.17.77.34,1.39.07,1.97-.18-.03-.36.08-.54.09-6.19.5-12.43.54-18.65.74,8.1-12.21,12.01-28.93,10.1-43.1-.09-.66.12-1.39.55-2.26.82.9,1.83,1.51,2.74,1.84Z"/>
              <path class="cls-70" d="M322.78,116.05c.4.7,1.08.76,1.86.98,1.06,2.51,2.75,2.94,1.43,7.33-5.43.81-10.75,1.92-15.8,4.08-.32.14-.78-.07-1.12.02-3.47-1.8-2.46,1.28-7.58,3.71-.16.08-.29.07-.46.04.26-.58.1-1.2-.07-1.97-1.16-5.24-2.18-10.35-.85-15.44,3.23,2.97,7.32,3.02,10.45,1.27,2.51-1.41,3.93-3.52,4.78-6.43,1.41.52,5.32,6.26,7.37,6.4Z"/>
              <path class="cls-46" d="M296.2,77.14c-1.28,1.42-3.7,2.49-4.21,4.63-.41,1.72,3.45,5.03,3.32,7.75-.92-.33-1.93-.94-2.74-1.84-.43.87-.64,1.6-.55,2.26-12.89-6.72-26.57-11.59-41.35-14.15-6.31-1.09-11.93-.51-17.79-.43-.01-.78.92-1.61,1.55-2.1,1.71-1.34,1.79-2.79,2.28-4.24.75-2.26,2.14-4.44,1.51-6.9-.04-.15.05-.32.06-.47,13.87,2.59,14.04-2.8,26.86-5.51,5.71-1.2,4.1,5.01,11.01,11.44,4.97,4.63,10.77,8.34,17.73,9.62.8.15,2.02-1.25,2.32-.07Z"/>
              <path class="cls-89" d="M228.68,107.36c-5.36-3.04-8.77-8.66-6.19-14.61,1.43-3.29,4.06-5.56,6.75-7.86-.68-.31-1.2.37-1.63-.04,3.4-1.53,7.16-.67,9.11,3.03,4.07,7.73-.05,18.86-8.04,19.48Z"/>
              <g>
                <path class="cls-43" d="M292.02,89.95c1.91,14.18-2,30.9-10.1,43.1-16.95.54-33.95.49-50.86-.1-.04-.41-.94-.68-1.43-.82.39-.23.42-.84.41-1.18-.02-.78-.77-.92-1.4-.65.57-.72,1.62-1.87,1.31-3.25l-5.2,2.15c-4.1-5.27-4.95-4.43-9.3-11.23-2.1-3.29,1.62-11.23,2.4-12.1.66-.74,1.64-1.17,1.15-2.13,2.53,2.33,6.02,3.9,9.69,3.61,7.99-.62,12.11-11.74,8.04-19.48-1.95-3.7-5.7-4.56-9.11-3.03-.16-.06-.41-.16-.9-.06,3.6-4.31,1.82-3.44,2.49-8.01.23-.11.16-.19.1-.41,1.31.34,2.32-.98,3.58-1,5.85-.09,11.47-.67,17.79.43,14.77,2.56,28.46,7.43,41.35,14.15Z"/>
                <path class="cls-89" d="M256.06,107.47c8.92-6.74,8.86-16.78,4.7-26.1,9.11.24,16.81,6.4,18.07,14.99.97,6.67-3.43,12.49-10.4,13.43-4.38.59-8.87-.17-12.36-2.32Z"/>
                <path class="cls-113" d="M260.76,81.37c4.17,9.32,4.22,19.35-4.7,26.1-4.41-1.58-7.84-4.59-9.65-8.68-2.27-5.13-.69-10.75,3.79-14.31,3.23-2.57,6.82-3.21,10.55-3.11Z"/>
              </g>
              <path class="cls-75" d="M279.4,53.85c.22.69.29,1.59.54,2.28l2.36,6.33c3.12,8.36,12.31,9.05,16.8,12.91-.41,1.05-2.32,1.14-2.89,1.77-.3-1.18-1.52.22-2.32.07-6.95-1.28-12.76-4.99-17.73-9.62-6.91-6.43-5.3-12.64-11.01-11.44-12.82,2.7-12.99,8.1-26.86,5.51.09-2-1.37-4.62.42-6.01l4.68.74c10.83,1.71,21.03-9.27,23.73-7.71,2.25,1.3,3.97,3.1,6.59,3.75l5.69,1.43Z"/>
              <path class="cls-49" d="M277.11,47.94c-.23,0-.34.2-.47.25-.34.15-.52-.26-.75-.58-3-4.25-6.3-8.08-10.58-11.21-.1-.15.13-.32.26-.32,5.13,2.49,9.36,6.59,11.54,11.86Z"/>
              <path class="cls-108" d="M309.73,67.02c3.9,1.64,6.74-.27,7.17,1.05-4.46.88-8.92,1.86-13.46,2.26-.79.07-1.71-.79-2.49-1.11.17-.45.21-.66.13-.69l6.36-1.13c.65-.12,1.59-.69,2.28-.4Z"/>
              <path class="cls-125" d="M299.68,75.44c6.13,5.05,17.15,13.98,18.81,21.19.08.34.81.32.67.7-.26.71-.43.59.19.97,1.51.91,1.3,5.22,2.66,4.61.21,1.56.18,3.15.44,4.96l1.07,7.3c.07.47-.44,1.01-.75.9-2.05-.15-5.96-5.89-7.37-6.4-.13-.74-.44-1.42-.51-2.16-.52-5.02-1.73-10.21-5-14.41-.58-.74-1.28-1.4-1.89-1.51-2.84-.5-4.34,4-5.03,5.38-.89.43-4.05-3.33-5.19-3.23l-2.48-4.2c.14-2.73-3.73-6.03-3.32-7.75.51-2.14,2.93-3.22,4.21-4.63.57-.63,2.49-.71,2.89-1.77.16-.07.42.01.58.07Z"/>
              <path class="cls-16" d="M322.01,102.9c-1.35.6-1.14-3.7-2.66-4.61-.63-.38-.45-.26-.19-.97.14-.39-.59-.36-.67-.7-1.66-7.2-12.69-16.14-18.81-21.19,6.91,2.16,12.84,8.37,17.29,14.37,3.04,4.11,4.42,8.5,5.04,13.1Z"/>
              <path class="cls-109" d="M238.22,62.13c.63,2.46-.76,4.64-1.51,6.9-1.53,1.38-3.24,2.48-5.26,3.05l4.8-9.55,1.97-.4Z"/>
              <path class="cls-85" d="M314.9,107.49c-.12-.04-.65.33-.91.05l-5.87-6.32c-.56-.06-.95.62-1.13.99-.28.61.35,1.29.96,1.72,1.73,1.24,2.19,3.92.95,4.98-.71-.47-1.75-1.21-2.74-.72-1.77.87-2.48,2.81-4.83,3.43,1-4.43,2.79-8.28,4.58-12.15-1.32-.84-2.21-1.65-3.33-1.64.07-.36.23-.55.4-.88.68-1.37,2.18-5.87,5.03-5.38.61.11,1.31.77,1.89,1.51,3.27,4.2,4.48,9.39,5,14.41Z"/>
              <path class="cls-40" d="M314.9,107.49c.08.74.38,1.43.51,2.16-.84,2.9-2.26,5.02-4.78,6.43-.49-2.36-.89-4.93-1.74-7.17,1.23-1.06.78-3.74-.95-4.98-.61-.44-1.24-1.12-.96-1.72.18-.37.57-1.05,1.13-.99l5.87,6.32c.26.28.79-.09.91-.05Z"/>
              <path class="cls-81" d="M302.99,96.95c-.17.34-.32.53-.4.88-.29,1.41-.94,2.83-1.81,4.47-1.56-.79-2.37-1.78-3.97-2.26l.99-6.32c1.14-.11,4.3,3.66,5.19,3.23Z"/>
            </g>
          </g>
          <g>
            <path class="cls-95" d="M179.61,223l7.67,1.73c20.41,4.61,40.88,8.02,61.9,9.88,2.55.22,4.68-.03,6.83.53.07.63-.27,1.24-.51,1.86-1.4,3.71-3.81,7.05-4.82,10.84l-3.28,4.68-1.11,1.01c1.1.6,2.32.73,3.17,1.69-.75,3.86-1.82,7.57-2.03,11.3.32.03.75.12.96.12-1.21,1.67-15.48-2.27-15.88-1.89-.27.25-.94.49-.62.92-.46-.62-1.53-1.02-1.92-1.92-6.95-2.18-13.5-4.86-20.12-7.45-.12-.05-.27-.09-.39-.1.3-.45-.28-.4-.54-.52l-13.42-6.01c-2.41-1.08-4.54-3.7-7.34-4.05,0-.29-.47-.28-.66-.41-3.67-2.37-7.49-5.41-11.64-6.43,1.37-.92-8.16-5.19-5.85-3.81-2.02-1.2-3.81-3.11-6.23-3.81-.15-.04-.35-.11-.5-.14-2.2-2.56-6.31-3.02-8.95-4.78-6.79-4.51-15.75-4.33-24.38-2.46,2.48-3.33,4.8-6.27,7.68-8.67,10.74,1.41,21.42,3.5,32.39,5.84l9.59,2.04Z"/>
            <path class="cls-42" d="M304.03,265.32c.04.35.04,1.38-.32,1.55-6.83.3-13.3-.57-19.94-2.47-8.81,1.87-17.29,3.48-26.26,3.72l-1.25,11.52c14.62,3.28,29.58,1.7,43.51-3.12,6.98-2.42,13.22-5.44,20.08-8.52,8.56-3.84,16.5-7.91,24.4-12.29,1.15.6,2.01,2.19,3.97,2.09-2-1.47-2.07-3.67-2.97-5.24,3.13.6,6,4.48,6.66,7.75-3.82.23-7.66,1.96-11.3,3.85l-7.11,3.68c-.46.24-7,3.13-7.1,3.2-1.47.91-3.03,2.02-5.02,2.29-2.4,1.67-7.34,3.49-9.54,4.56-6.01,2.92-11.99,5.34-18.37,7.25-.53.16-1.65-.52-1.5.31-.48,0-.97.06-1.44-.04-2.16-.44-4.38-.08-6.74.41-18.11,3.78-35.28,1.51-50.41-9.53-1.66.46-3.21.95-4.26,1.83-.16-.04-.39-.12-.53.07-.22.32-.49.03-.84-.02.23-.48-.49-.57-.5-.97-.02-.56-.7-.66-1.01-.92,0-.07-.02-.23.11-.55-4.96-5.3-9.87-7.87-13.14-14.27-.95-1.86-3.47-2.98-3.35-5.18,6.63,2.58,13.17,5.27,20.12,7.45.39.9,1.45,1.3,1.92,1.92,4.49,5.99,11.46,9.95,19.14,12.51l-1.43-10.12c-.12-.84-.62-1.41-1.21-1.41,1.03-2.08,4.36-.85,7.49-1.92.59-1.02,2.55-9.76,4.2-7.65.45.58-1.59,5.54-2.6,6.9,1.34,1.63,2.71-.03,4.07-.12l3.06-.21c5.23-.36,10.2-2.43,15.06-2.11,2.56.17,4.85-.85,7.06-.44l10.94,2.03.03-9.7c0-1.16.56-2.16.45-3.12,1.16-.69,1.99-2.41,3.58-2.43,1,4.53,1.79,13.11,2.29,17.47Z"/>
            <path class="cls-3" d="M322.19,229.7c-.87,2.71-6.22,2.92-9.38,3.34,1.62-6.42,4.97-13.65,5.44-19.61l-6.32,19.69c-3.46.87-6.97,1.01-10.37,1.18l5.25-15.22,3.03-9.61c.22-.7.61-1.35.33-1.96,2.88-1.42,6.24-1.93,9.82-2.92l-1.77,8.86c1.97-2.88,1.74-6.01,3.05-9.19,2.36-1.44,5.3-1.95,7.64-2.91.21.16.38.13.48.26.17.23.07.59,0,.93-2.13,9.24-4.34,18.27-7.18,27.15Z"/>
            <path class="cls-25" d="M141.88,245.52c.83.34,1.42,1.71,2.81,1.04.2.43.81.8,1.31.64,5.58,6,14.06,9.62,21.68,13.48-.96,1.95-.67,4.53-1.37,6.56-1.95.18-3.83-.59-5.87-1.48-10.19-4.41-18.73-11.66-24.68-20.59-1.91.88-3.42,2.11-5.03,2.07-7.9-1.88-13.28-6.73-19.72-11.17-.79-.55-1.67-.86-1.43-1.82,3.22.8,6.68.61,10.19,1.71,7.96,2.48,14.78,6.55,22.1,9.56Z"/>
            <path class="cls-73" d="M162.93,212.18c5.98.38,11.86,2.59,17.78,3.64l-.82,3.85c-.25,1.15-.15,2.27-.28,3.33l-9.59-2.04c-10.98-2.34-21.66-4.44-32.39-5.84.62-.9,1.28-2.12,2.16-2.9.41-.37.95-.77,1.06-1.42l22.1,1.39Z"/>
            <path class="cls-122" d="M345.24,252.56c.9,1.57.97,3.77,2.97,5.24-1.96.1-2.83-1.49-3.97-2.09-.11-.44-.37-.89-1.11-1.28-9.55-5.03-19.3-9.38-29.19-13.38-.26-.54.08-.75.63-.89l19.24-5.05c2.55,1.83,3.79,5.04,5.66,7.84,2.15,3.21,3.95,6.43,5.77,9.61Z"/>
            <path class="cls-56" d="M109.58,234.25c-.25.96.64,1.28,1.43,1.82,6.44,4.44,11.81,9.29,19.72,11.17-.48,2.97,1.85,12.84-2.87,10.2-1.15.07-1.12.58-.11.59.63-.07,1.33-.31,1.13.28-.32.06-.68.23-1,.25-11.73.7-17.7-15.52-20.46-24.3,1.05-.18,1.67-.13,2.16,0Z"/>
            <path class="cls-36" d="M172.05,278.12c-.5.09-.91.36-1.29.65-13.41-2.62-23.7-.81-34.23-10.68-1.5-4.26-1.1-5.98-4.54-7.4.7.29-1.64-1.76-4.12-2.14.32-.02.68-.19,1-.25,3.01-.52,7.58-2.14,8.85.37,3.83,7.57,10.78,12.01,19.41,13.23,5.62.8,10.4,3.75,14.92,6.21Z"/>
            <path class="cls-42" d="M322.19,229.7c.57.47,1.21.65,1.92.33-2.03,1.13-3.84,3-6.32,4.03-1.63.67-4.08-.3-5.65,1.19-.88.84-.82,2.49-1.21,3.68-.21.64.95,1.22.79,1.89-2.68.65-5.38,1.75-8.17,1.85,2.34-2.73,1.11-5.24,3.8-5.19.52.22,1.25.59,2.08.59,1.1,0,1.71-1.61,1.47-2.73-2.19.34-3.89.36-5.55.77-5.59,1.37-2.43-.61-5.08,1.7-.44.38-.5-.69-.74-.93l-17.52.46-6.81-.05-13.02-.34c-2.34-.06-4.56.09-6.68.05.23-.62.57-1.23.51-1.86.44.11.54-.49.92-.57l20.54-.06c7.71-.02,15.43.13,23.11-.28.43.32.72.09.96.08,3.4-.17,6.92-.31,10.37-1.18l6.32-19.69c-.46,5.96-3.82,13.18-5.44,19.61,3.16-.42,8.51-.63,9.38-3.34Z"/>
            <path class="cls-12" d="M326.94,148.52c-.26.91-.91,1.74-.93,2.73-.05-.15-.23-.18-.63-.02-2.33-5.68-4.8-11.33-7.45-16.87,5.73-.98,8.5-4.6,10.37-9.57,1.66.31,3.49,1.03,4.82,2.3l-6.17,21.43Z"/>
            <path class="cls-64" d="M163.28,231.02c-5.73,5.4-11.79,11.53-18.6,15.54-1.39.66-1.98-.7-2.81-1.04l12.46-19.28c2.64,1.76,6.75,2.22,8.95,4.78Z"/>
            <path class="cls-61" d="M333.81,235.11l-19.24,5.05c-.55.15-.89.35-.63.89-.16-.07-.35,0-.5-.03-.63-.15-1.12-.34-1.73-.19.16-.67-1-1.25-.79-1.89.4-1.18.33-2.84,1.21-3.68,1.58-1.5,4.02-.52,5.65-1.19,2.49-1.03,4.29-2.9,6.32-4.03.88-.49,2.35-.13,3.33-1.41.36-.47,1.22-.61,1.76-.44-.06-.02,4.86,6.39,4.61,6.92Z"/>
            <path class="cls-42" d="M140.84,210.79c-.1.65-.64,1.06-1.06,1.42.16-.46.08-.97.06-1.45.19-.04.29-.19.47,0,.14.15.37,0,.53.02Z"/>
            <path class="cls-27" d="M131.68,211.32c.05-.32.03-.64.03-.96.16.04.42-.05.5.26.12.47-.19.77-.53.7Z"/>
            <path class="cls-111" d="M260.21,226.52c-1.29,2.59-2.84,5.21-3.28,8.05-.38.08-.49.68-.92.57-2.15-.56-4.28-.3-6.83-.53-21.02-1.85-41.49-5.27-61.9-9.88l-7.67-1.73c.14-1.06.04-2.19.28-3.33l.82-3.85,38.8,6.86c13.67,2.42,27.11,3.55,40.7,3.84Z"/>
            <path class="cls-50" d="M306.24,217.63c-1.43,5.38-3.41,11.48-5.65,16.6-7.69.41-15.4.25-23.11.28.48-2.66,2.11-4.98,2.93-7.56,5.68.12,11.46-.47,17.2-1.23,5.63-.75,4.42-4.56,5.75-9.39.29.07.65-.07.9-.08.35,1.16,1.13,1.67,1.99,1.38Z"/>
            <path class="cls-69" d="M280.4,226.95c-.82,2.58-2.45,4.9-2.93,7.56l-20.54.06c.44-2.84,1.99-5.46,3.28-8.05l20.19.43Z"/>
            <path class="cls-29" d="M309.22,207.6c.15,2.12-2.62,8.67-2.98,10.03-.86.29-1.64-.22-1.99-1.38-.26,0-.62.16-.9.08.26-.96-.23-2.31-.36-3.28.89-.77,1.22-2.02,1.53-3.12.81.34,1.38-1.25,1.3-1.87,1.07-.44,2.26-.52,3.41-.45Z"/>
            <g>
              <path class="cls-93" d="M145.99,119.89c1.38.88,3.39,2.25,5.37,1.79,4.89,2.76,10.87,3.23,16.31,4.5,16.66,3.89,34.2,5.76,51.44,6.36l11.95.41c16.9.58,33.9.64,50.86.1,6.23-.2,12.47-.23,18.65-.74-10.13,16.11-22.27,33.03-36.13,46.81-11.59,11.52-28.26,25.48-45.39,27.32-9.92,1.07-19.43-2.29-25.75-9.44-1.24-1.4-2.81-3.94-3.04-5.44l20.05-2.78c.38.15.68.03.53-.31,4.02,1.12,10.23.34,14.43-.42.44,2.04,1.7,4.04,2.56,6.42,10.09-6.71,20.03-13.21,29.54-20.25.72-.53,2.41-.53,2.2-2.22l-40.09-2.33.87,3.64c-3.1.74-14.66,1.07-18.1.49,2.55-8.91,14.53-14.77,24.43-15.81-2.87-3.63-5.99-6.54-9.34-9.95-12.3,3.28-23.2,14.43-27.07,25.68-.08.22-.31.5-.55.59l-10.11.27c-.26,3.63-.53,7.38,1.5,10.06.09.12-.02.39.05.55-1.41-.4-8.25,1.91-9.6,3.34-.17.18-.34.19-.51,0-5.62-4.84-10.63-9.95-15.97-15.68l-7.82-8.38c-1.1-1.17-.81-4.05-4.06-4.44-1.17-1.88-2.65-3.8-4.48-5.42-.87-.78-2.14-.69-2.96-2.04-.54-.89-1.56-2.36-2.56-2.67.18-1.6-.4-3.18-.83-5.04-2.69-11.56-5.63-22.73-7.69-34.74,7.38,3.44,13.89,7.92,21.32,9.73Z"/>
              <path class="cls-94" d="M301.57,132.18c.41,1.8.35,3.63.51,5.46.34,3.86-.68,8.09.35,11.88l-.22,17.44-.22,6.71-6.74.49c-5.19.38-10.3,3.27-12.82,7.67,3.22,1.43,6.15.93,9.09.32l-8.23,3.55c-.56.24-1.01.71-.94,1.02.56,2.52,12.12,1.37,13.99,1.89-3.98.76-7.93.92-11,3.92,3.1,1.85,6.44,2.08,10.07,2.92-1.44.73-9.17,3.48-8.25,5.38,1.52,3.15,11.13,1.01,14.12-.7.41,3.12-.48,6.29,1.09,8.56-.68.68.8,5.67.62,4.35.13.97.63,2.32.36,3.28-1.32,4.83-.12,8.63-5.75,9.39-5.74.77-11.52,1.36-17.2,1.23l-20.19-.43c-13.59-.29-27.03-1.43-40.7-3.84l-38.8-6.86c-5.92-1.05-11.8-3.26-17.78-3.64-3.05-1.88-20.62-5.2-22.63-1.41-.18-.19-.27-.05-.47,0-1.28.27-2.59.21-3.87.35-.09-.35,0-1.02.47-1.26,3.45-1.78,6.17-4.18,9.32-6.51,7.94-5.89,16.15-11.41,25.3-14.8.17.18.34.18.51,0,3.63,4.34,9.04,3.94,14.33,2.61,1.18-.3,2.59.37,3.79-.05.21-.07.56.27.59.46.23,1.5,1.8,4.03,3.04,5.44,6.32,7.15,15.83,10.51,25.75,9.44,17.12-1.85,33.8-15.81,45.39-27.32,13.85-13.77,25.99-30.69,36.13-46.81.17-.01.36-.12.54-.09.17.02.3.03.46-.04Z"/>
              <path class="cls-124" d="M171.05,188.55c-9.15,3.39-17.36,8.92-25.3,14.8-3.15,2.33-5.87,4.73-9.32,6.51-.47.24-.56.92-.47,1.26-1.6.18-3.17.7-4.8,1.53-.49.25-.52-.75-.26-.87.21-.09.64.13.77-.47.34.07.65-.23.53-.7-.08-.31-.34-.22-.5-.26-.75-1.26-1.13-.34-.59-2.35l3.06-11.37c1.58-5.87,2.49-11.57,2.49-17.38.8-2.05,6.45.59,8.74-3.66l-5.48-2.31c3.06-.77,6.09-1.13,8.25-3.74-.49-.79-7.02-1.26-6.09-2.64.56-.83,3.46.52,5.16-2.42l7.82,8.38c5.35,5.73,10.35,10.84,15.97,15.68Z"/>
              <path class="cls-115" d="M133.19,149.93c1,.31,2.03,1.78,2.56,2.67.82,1.35,2.09,1.26,2.96,2.04,1.82,1.62,3.3,3.54,4.48,5.42-7.39-.89-7.74-4.96-9.12-5.52-1.1-.45-2.35.04-3.33-.01-.38-.02-.97-.14-.96.36-1.56-.06-3.22-.36-4.37-1.63-.99-1.09-.57-2.74.23-3.77.75-.96,2.2-1.18,3.65-.74l3.88,1.19Z"/>
              <path class="cls-45" d="M221.95,173.76l34.48-.07c.59,0,.97.25.96.53-9.51,7.04-19.45,13.54-29.54,20.25-.86-2.38-2.12-4.39-2.56-6.42-.6-2.77-1.55-5.36-2.82-7.88-.81-1.61-.46-4.46-1.78-6.09l1.27-.32Z"/>
              <path class="cls-17" d="M202.26,173.8c-.06.22-.17.36-.42.36l-10.95.13c-.21-.43-.31-.8-.6-.56,3.87-11.25,14.78-22.39,27.07-25.68,3.34,3.41,6.47,6.31,9.34,9.95-9.9,1.03-21.88,6.89-24.43,15.81Z"/>
              <path class="cls-38" d="M222.46,180.17c1.27,2.52,2.22,5.11,2.82,7.88-4.2.76-10.41,1.55-14.43.42-3.62-1.01-7.28-3.31-8.12-6.89l19.73-1.41Z"/>
              <path class="cls-63" d="M202.23,181.56l.5.02c.84,3.58,4.5,5.88,8.12,6.89.16.35-.14.46-.53.31l-20.05,2.78c-.03-.19-.37-.53-.59-.46-.29-2.62-1.19-5.13-1.26-7.78,0-.14.05-.28.06-.41,4.6-.07,9.18-1.54,13.75-1.36Z"/>
              <path class="cls-26" d="M221.95,173.76l-1.27.32c1.32,1.63.97,4.47,1.78,6.09l-19.73,1.41-.5-.02c-.51-2.45-.4-4.91-.39-7.39.25,0,.36-.14.42-.36,3.44.59,15,.26,18.1-.49.53-.13,1.53-.18,1.59.44Z"/>
              <path class="cls-120" d="M257.39,174.22c0-.29-.38-.53-.96-.53l-34.48.07c-.05-.62-1.06-.56-1.59-.44l-.87-3.64,40.09,2.33c.22,1.69-1.48,1.69-2.2,2.22Z"/>
              <path class="cls-88" d="M201.84,174.16c-.01,2.48-.12,4.94.39,7.39-4.57-.18-9.15,1.29-13.75,1.36.11-2.9.99-5.71,1.25-8.6.25-.09.48-.36.55-.59.29-.24.39.13.6.56l10.95-.13Z"/>
              <path class="cls-23" d="M189.73,174.32c-.27,2.89-1.14,5.7-1.25,8.6,0,.14-.06.27-.06.41-2.46.17-4.89.78-7.3,1.32-2.02-2.69-1.76-6.43-1.5-10.06l10.11-.27Z"/>
              <path class="cls-72" d="M181.17,185.2c1.05,2.33,3.09,3.99,4.72,5.95-5.29,1.32-10.7,1.73-14.33-2.61,1.35-1.43,8.19-3.75,9.6-3.34Z"/>
              <path class="cls-105" d="M188.42,183.33c.06,2.65.97,5.16,1.26,7.78-1.2.42-2.6-.25-3.79.05-1.63-1.96-3.68-3.63-4.72-5.95-.07-.16.04-.44-.05-.55,2.41-.54,4.84-1.15,7.3-1.32Z"/>
              <path class="cls-68" d="M162.93,212.18l-22.1-1.39c-.16,0-.39.14-.53-.02,2.01-3.79,19.58-.48,22.63,1.41Z"/>
            </g>
            <path class="cls-5" d="M306.21,169.72c-.82.95-3.57-3.08-4-2.76l.22-17.44c1.39,5.15,2.59,15.2,3.78,20.2Z"/>
            <path class="cls-117" d="M304.51,209.93c-.31,1.1-.64,2.35-1.53,3.12.18,1.32-1.3-3.67-.62-4.35.84-.05,1.63-.36,2.65-.31,0,.77-.37,1.09-.5,1.54Z"/>
            <path class="cls-62" d="M166.31,267.25c.01.21.33.26.51.3.61.12,1.22-.01,1.83.01,4.17.17,8.38.01,12.51.43.16.02.3,0,.46.06.78,4.13-1.41,8.43-5.75,10.17-1.38.55-2.65-.09-3.81-.08-4.52-2.47-9.3-5.42-14.92-6.21-8.63-1.23-15.58-5.66-19.41-13.23-1.27-2.51-5.84-.89-8.85-.37.21-.59-.5-.35-1.13-.28-1,0-1.04-.52.11-.59,4.72,2.64,2.38-7.22,2.87-10.2,1.61.04,3.13-1.19,5.03-2.07,5.95,8.94,14.49,16.18,24.68,20.59,2.05.89,3.92,1.66,5.87,1.48Z"/>
            <path class="cls-83" d="M307.35,237.48c-2.69-.05-1.46,2.46-3.8,5.19-1.46.05-2.1,1.32-3,1.56-9.78,2.62-20.03,3.53-30.09,3.72l-6.91.13-12.86-.25c1.01-3.79,3.42-7.13,4.82-10.84,2.12.03,4.34-.11,6.68-.05l13.02.34,6.81.05,17.52-.46c.25.24.3,1.32.74.93,2.65-2.31-.51-.33,5.08-1.7-.23,1.04,1.27,1.05,2,1.37Z"/>
            <path class="cls-47" d="M248.39,266.63c-.21,0-.64-.09-.96-.12.2-3.73,1.27-7.44,2.03-11.3-.85-.97-2.06-1.09-3.17-1.69l1.11-1.01,12.51,2.84c.41-1.49,1.4-2.56,1.92-3.78,1.27-.42-1.28,3.81-1.19,3.99,2.3,1.07,4.45,1.01,6.43,1.46l14.83,3.37c3.58-1.98,7.34-3.24,10.6-5.54,2.07-1.45,3.62-3.37,5.65-4.58.11.97-.45,1.96-.45,3.12l-.03,9.7-10.94-2.03c-2.21-.41-4.5.61-7.06.44-4.86-.32-9.84,1.75-15.06,2.11l-3.06.21c-1.35.09-2.72,1.75-4.07.12,1.01-1.36,3.06-6.32,2.6-6.9-1.65-2.11-3.61,6.64-4.2,7.65-3.13,1.07-6.46-.16-7.49,1.92Z"/>
            <path class="cls-99" d="M187.5,245.21c-4.39,6.13-9.48,12.13-15.33,17.46l-5.35,4.87c-.18-.04-.5-.08-.51-.3.69-2.03.41-4.61,1.37-6.56,3.41-6.96,5.36-14.62,8.18-21.9,4.15,1.02,7.97,4.06,11.64,6.43Z"/>
            <path class="cls-84" d="M248.39,266.63c.59,0,1.1.57,1.21,1.41l1.43,10.12c-7.69-2.56-14.66-6.52-19.14-12.51-.32-.43.35-.67.62-.92.4-.37,14.67,3.57,15.88,1.89Z"/>
            <path class="cls-77" d="M195.5,249.67c-6.3,5.6-13.44,10.22-20.51,14.88-.31.2-.8.27-1.13-.03.84-1.97,2.51-3.66,4.04-5.5,3.67-4.44,7.31-8.71,10.27-13.4,2.79.35,4.92,2.97,7.34,4.05Z"/>
            <path class="cls-79" d="M263.54,248.08c-.31,1.27-1.2,2.29-1.71,3.5s-1.5,2.28-1.92,3.78l-12.51-2.84,3.28-4.68,12.86.25Z"/>
            <path class="cls-80" d="M170.02,234.97c-5.72,3.02-11.23,6.41-17.08,9.1.04-.13-.07-.4-.05-.77l10.9-12.14c2.42.7,4.21,2.61,6.23,3.81Z"/>
            <path class="cls-31" d="M188.17,245.62c-2.96,4.69-6.6,8.96-10.27,13.4-1.52,1.85-3.2,3.53-4.04,5.5-1.58,1.13-3.53,2.12-5.21,3.03-.61-.02-1.21.11-1.83-.01l5.35-4.87c5.85-5.33,10.93-11.32,15.33-17.46.19.12.66.12.66.41Z"/>
            <path class="cls-34" d="M152.94,244.07c-2.29,1.05-4.42,2.59-6.94,3.13-.5.15-1.11-.22-1.31-.64,6.81-4.01,12.87-10.13,18.6-15.54.15.03.35.09.5.14l-10.9,12.14c-.02.37.09.64.05.77Z"/>
            <path class="cls-118" d="M209.46,256.19c-.29-.02-.72-.14-.54-.52.26.12.84.06.54.52Z"/>
            <path class="cls-100" d="M344.24,255.71c-7.9,4.38-15.84,8.45-24.4,12.29-6.86,3.08-13.11,6.1-20.08,8.52-13.93,4.83-28.89,6.4-43.51,3.12l1.25-11.52c8.98-.25,17.45-1.85,26.26-3.72,6.64,1.9,13.11,2.77,19.94,2.47.36-.17.36-1.2.32-1.55l14.44.91c-.97-7.98-2.85-15.36-4.95-22.93-.25-.89-.63-1.6-.07-2.28.15.04.34-.03.5.03,9.89,4,19.64,8.35,29.19,13.38.74.39,1,.84,1.11,1.28Z"/>
            <path class="cls-90" d="M313.44,241.02c-.56.68-.17,1.39.07,2.28,2.1,7.57,3.98,14.95,4.95,22.93l-14.44-.91c-.51-4.36-1.29-12.94-2.29-17.47-1.59.02-2.43,1.75-3.58,2.43-2.03,1.21-3.58,3.12-5.65,4.58-3.27,2.3-7.02,3.56-10.6,5.54l-14.83-3.37c0-1.23,4.01-8.05,3.38-9.08,10.06-.19,20.32-1.1,30.09-3.72.91-.24,1.55-1.51,3-1.56,2.78-.1,5.49-1.2,8.17-1.85.6-.15,1.1.04,1.73.19Z"/>
            <path class="cls-59" d="M310.27,128.45c1.26,1.15,6.5,3.48,7.66,5.91,2.66,5.55,5.12,11.19,7.45,16.87.4-.16.59-.13.63.02-.02,1.6-.9,3.23-1.63,5.07-2.63-6.38-4.3-13.73-8.64-18.84-1.2-1.42-2.59-3.53-4.07-4.58-3.94-2.81-5.43,1.05-7.57,1.04,1.67-4.44,6.68-4.04,5.04-5.47.34-.1.81.11,1.12-.02Z"/>
            <path class="cls-106" d="M310.15,207.52c.28.61-.11,1.26-.33,1.96l-3.03,9.61-5.25,15.22c-.24.01-.54.24-.96-.08,2.24-5.12,4.23-11.23,5.65-16.6.36-1.36,3.13-7.91,2.98-10.03.38.18.83-.89.93-.08Z"/>
            <path class="cls-67" d="M307.35,237.48c-.73-.31-2.22-.33-2-1.37,1.66-.41,3.36-.43,5.55-.77.24,1.12-.37,2.73-1.47,2.73-.83,0-1.56-.37-2.08-.59Z"/>
            <path class="cls-22" d="M174.99,264.55c1.91,1.35,4.49,1.87,6.17,3.43-4.13-.42-8.34-.26-12.51-.43,1.68-.92,3.63-1.9,5.21-3.03.33.3.83.23,1.13.03Z"/>
            <path class="cls-37" d="M270.45,247.95c.63,1.03-3.38,7.85-3.38,9.08-1.98-.45-4.14-.39-6.43-1.46-.09-.18,2.45-4.41,1.19-3.99.52-1.21,1.4-2.22,1.71-3.5l6.91-.13Z"/>
          </g>
        </g>
      </g>
      <path class="cls-78" d="M291.45,174.16c-3,1.69-5.52,4.04-8.01,6.37,2.16,1.5,5.09,1.25,7.75,1.15,2.67-.1,5.75.2,7.28,2.29-4.84-.96-10.31-1.81-14.35.91,4.4,3.08,9.95,4.6,15.39,4.23-3.75-1.66-8.28-1.6-11.98.15-.32.15-.66.34-.83.64-.45.83.6,1.65,1.49,2.02,3.58,1.47,7.45,2.29,11.35,2.42-3.03-.82-6.46-.16-8.92,1.71-.67.51-1.3,1.15-1.44,1.96-.18,1.05.54,2.09,1.49,2.64s2.09.71,3.2.81c4.23.41,8.51.28,12.7-.39.92-.15,1.88-.34,2.57-.93.94-.81,1.13-2.12,1.22-3.33.45-6.18.45-15.81-3.15-21.27-3.32-5.04-11.13-4.02-15.77-1.41Z"/>
      <path class="cls-78" d="M129.66,156.88c.03-.29.11-.64.4-.73s.55.43.24.46c-2.57-.99-4.39-3.52-4.45-6.16-.01-.51.04-1.05.32-1.48.5-.8,1.59-1.06,2.56-1.06,3.5-.01,6.52,2.33,8.74,4.91,2.22,2.58,4.03,5.54,6.77,7.6-4.76-2.02-9.75-3.56-14.85-4.58-.1-.66.39-1.36,1.07-1.52-.33,1.59,1.4,2.86,3,3.41,2.56.88,5.32,1.06,7.97,1.64s5.36,1.68,6.87,3.84c.26.37.48.79.45,1.24-.07.95-1.19,1.46-2.17,1.66-3.12.65-6.49.16-9.27-1.33,3.31.75,6.5,1.98,9.43,3.63.57.32,1.2.8,1.1,1.42-.1.64-.89.91-1.56,1.03-2.91.55-5.9.71-8.86.48,3.72-.08,8.06.13,10.21,3.02-3.61,1.27-7.13,2.81-10.49,4.59,1.37.13,2.74.24,4.1.42-11.44,3.07-12.37-15.49-11.6-22.5Z"/>
      <path class="cls-78" d="M301.58,197.8c.2,9.27,1.06,18.47,3.2,27.55-4.25-1.81-9.15-.95-13.75-.3-54.4,7.72-109.11-18.64-163.72-12.43,2.68.98,4.66-2.44,5.26-5.12,2.59-11.49,4.44-23.14,5.54-34.84-.25,1.45-.49,2.91-.74,4.36"/>
      <path class="cls-78" d="M134.42,152.89c-2.91-14.79-5.82-29.59-8.73-44.38,5.87,5.11,13.16,8.49,20.58,11.18,17.2,6.24,35.52,9.14,53.81,11.07,35.71,3.77,71.84,3.98,107.59.62-1.18,1.52-3.06,2.52-5.04,2.69.9,13.94-.05,28-.66,42.01"/>
      <path class="cls-78" d="M133.08,223.93c-.76-.08-1.5-.4-2.06-.9,2.3-2.24,5.95-2.53,9.22-2.25,9.16.78,17.62,4.9,25.52,9.39,18.38,10.43,35.59,23.42,56.01,29.51,6.07,1.81,12.32,2.97,18.56,4.13,4.02.75,8.04,1.49,12.05,2.24-.75,1.29-2.71,1.76-4.01.95.4-14.85,5.4-29.57,14.21-41.83-2.25,3.21-4.51,6.42-6.76,9.62,1.29-.85,2.26-2.14,2.69-3.58.03.52.05,1.08-.28,1.5s-1.14.47-1.34,0"/>
      <path class="cls-78" d="M144.65,236.19c-6.3-3.36-12.61-6.73-18.91-10.09,7.01-7.68,14.29-15.57,23.92-19.95,1.35-.61,3.08-1.11,4.23-.2-.07.87-1.58,1.14-1.98.37"/>
      <path class="cls-78" d="M245.96,247.27c2.12-.82,4.49-.6,6.77-.43,24.95,1.83,49.72-4.21,73.88-10.4,1.9-.49,3.86-1.01,5.34-2.25,1.47-1.24,2.28-3.42,1.29-5.03-.85-1.4-2.77-1.94-4.45-1.74s-3.22,1-4.74,1.72c-10.85,5.12-23.11,7.04-35.21,7.17s-24.14-1.47-36.13-3.07c1.7.46,3.35,1.09,4.91,1.87"/>
      <path class="cls-78" d="M301.05,204.68l-1.03.75c13.89,2.53,28.92-1.46,39.43-10.48-.36-.38-1.02-.46-1.48-.19.62-1,.14-2.46-.96-2.95"/>
      <path class="cls-78" d="M331.13,199.07l.47-2.76c-3.12,13.47-6.83,26.81-11.09,39.99.89-1.15,1.51-2.48,1.8-3.88"/>
      <path class="cls-78" d="M325.84,199.07c-3.1,12.67-6.2,25.35-9.3,38.02.01-.82.36-1.63.96-2.22"/>
      <path class="cls-78" d="M318.49,203.77c.17-.27-.28-.58-.58-.46s-.44.46-.55.76c-4.37,12.42-8.74,24.85-13.11,37.27.73-1.8,1.46-3.6,2.19-5.4"/>
      <path class="cls-78" d="M309.75,205.06c-2.18,11.99-5.56,23.78-10.06,35.16.43-1.25,1.13-2.41,2.04-3.38"/>
      <path class="cls-78" d="M297.79,224.26l-.03-.81c-1.02,3.75-2.05,7.5-3.07,11.25"/>
      <path class="cls-78" d="M291.49,224.53c-1.04.74-1.48,2.01-1.84,3.19-1.11,3.56-2.16,7.14-3.16,10.73.25-.43.49-.86.74-1.29"/>
      <path class="cls-78" d="M285.05,226.09c-1.3,4.24-2.6,8.48-3.89,12.71-.05.16-.13.34-.3.36s-3.99-3.3-3.83-3.24c-.29.52-.57,1.05-.86,1.57,1.26-4.2,2.51-8.4,3.77-12.6l1.02.31"/>
      <path class="cls-78" d="M329.1,170.41c-.04.46-.08.91-.12,1.37,4.39-14.71,9.33-29.27,14.79-43.65-.62.27-1.13.78-1.36,1.39.69.51.65,1.68-.07,2.15"/>
      <path class="cls-78" d="M300.52,241.62c.15.03.05-.27-.09-.2s-.13.26-.11.4c2.1,11.56,4.21,23.12,6.31,34.67-.26-1.02-.25-2.1.02-3.12"/>
      <path class="cls-78" d="M312.39,237.15c2.93,9.52,5.86,19.04,8.78,28.55-.61-.72-1.22-1.44-1.83-2.16"/>
      <path class="cls-78" d="M262.34,247.28c-1.45,9.19-3.3,18.32-5.55,27.37.47-.5.61-1.25.35-1.87"/>
      <path class="cls-78" d="M350.27,255.43c-.98.01-1.96.03-2.94.04,1.61-.51,3.42-.42,4.96.26-4.86,3.87-10.48,6.77-16.05,9.65-8.28,4.27-16.57,8.55-24.99,12.58-10.22,4.89-20.79,9.46-32.07,11.25-12.61,2-25.75.12-37.39-4.84-5.82-2.48-11.29-5.74-16.16-9.68-4.43-3.58-7.59-8.15-11.72-11.91,4.06-1.32,9.49-1.12,13.85-1.25-.95-.38-2.02-.46-3.02-.22-.08.59.08,1.2.44,1.68"/>
      <path class="cls-78" d="M178.3,263.62l-1.16-.2c12,5.42,25.66,7.43,38.81,5.73.21-1.01-1.05-1.73-2.12-1.86s-2.31-.09-3.04-.85c.27-.22.54-.44.81-.65"/>
      <path class="cls-78" d="M259.83,266.77l-2.16.58c6.73-.31,13.52-.63,20.03-2.28,6.51-1.65,12.81-4.77,17.02-9.78-9.24,4.12-19.13,6.92-29.23,8.26-.44-.8.27-1.74,1.04-2.25.77-.51,1.73-.94,2.05-1.79.17-.43.14-.91.1-1.37-.14-1.92-.28-3.84-.42-5.76-1.22,1.76-1.84,3.9-1.73,6.02.4.06.81.13,1.21.19"/>
      <path class="cls-78" d="M238.59,132.53c.61.92-1.3,1.37-2.36.95-4.71-1.83-9.49-3.69-13.51-6.66-4.02-2.97-7.27-7.23-7.76-12.06-.47-4.64,1.61-9.17,4.14-13.16,2.53-3.99,5.58-7.73,7.37-12.06,2.25-5.43,2.42-11.49,4.81-16.86,2.26-5.05,6.49-9.27,11.69-11.63"/>
      <path class="cls-78" d="M230.48,72.56c.62.49-.78.96-1.46.56-5.88-3.55-7.52-11.49-5.25-17.77,2.27-6.28,7.6-11.11,13.24-14.99,7.55-5.2,17.28-9.28,26-6.14,1.84.66,3.62,1.68,4.64,3.28,2.34,3.64-.18,8.41-3.42,11.36-5.58,5.07-13.5,7.7-21.18,7.05-1.26-.11-2.68-.4-3.32-1.44-.72-1.17-.09-2.66.58-3.86,6.31-11.36,15.42-21.3,26.38-28.78,5-3.42,10.5-6.37,16.54-7.51,6.04-1.14,12.7-.27,17.55,3.33,5.69,4.21,8.06,11.41,8.54,18.26.51,7.18-.73,14.47-3.58,21.13-1.58,3.71-3.89,7.43-7.68,9.16-5.82-14.4-4.71-31.2,2.97-44.78,1.4-2.48,3.09-4.94,5.57-6.47,2.48-1.54,5.93-1.95,8.35-.33,1.37.91,2.26,2.35,2.94,3.8,2.94,6.32,2.59,13.54,1.94,20.43-.57,6.01-1.32,12.01-2.07,18.01,4.27-6.71,8.76-13.66,15.67-17.93,6.91-4.27,16.97-4.99,22.83.52,5.31,4.99,5.41,13.54,1.86,19.79-3.55,6.25-9.98,10.54-16.62,13.75,3.05,4.81,3.87,10.85,2.21,16.23-.76,2.47-2.23,4.98-4.74,5.92-2.51.94-6.02-.67-5.93-3.24,4,4.04,3.99,10.38,2.63,15.78-.75,2.97-1.98,6.06-4.63,7.77-2.65,1.71-7.02,1.18-8.16-1.67,2.77,2.13,5.05,4.99,5.83,8.3s-.12,7.08-2.77,9.34c-2.65,2.26-7.09,2.59-9.75.34.58-.45.91-1.16.88-1.87"/>
      <path class="cls-78" d="M232.99,127.25c-5.65,1.59-11.18,3.56-16.54,5.88,4.49-2.1,9.47-3.25,14.47-3.36-1.71,1.83-3.58,3.54-5.57,5.09.74-.44,1.73-.47,2.5-.08"/>
      <path class="cls-78" d="M176.65,235.28c-1.9,10.07-5.92,19.77-11.75,28.36,1.66,2,4.27,3.36,6.94,3.27,3.99-.12,7.1-3.16,9.9-5.88,4.74-4.6,10-8.93,16.32-11.23-.91-.38-1.94-.5-2.91-.33"/>
      <path class="cls-78" d="M165.89,259.13c-11.03-3.1-18.68-14.66-30.18-15.09-1.9,11.4,6.4,23.52,18.1,26.43,4.94,1.23,10.58,1.14,14.41,4.35,2.31,1.94,3.83,4.98,6.78,5.8,1.98-2.79,5.73-4.6,6.33-7.92.42-2.32-1.15-4.82-3.49-5.56"/>
      <path class="cls-78" d="M135.02,239.91c-.05.8-1.34.63-2.06.23-6.16-3.41-12.94-5.77-19.95-6.96-.85-.14-1.72-.27-2.55-.06s-1.6.85-1.68,1.66c-.04.39.09.78.21,1.15,2.5,7.58,6.25,15.11,12.7,20.14.94.74,1.96,1.42,3.14,1.74.93.25,1.91.24,2.87.21,3.17-.1,6.32-.49,9.41-1.15-.34-.36-.88-.54-1.38-.47"/>
      <path class="cls-78" d="M134.33,240.99c-.19-.26-.31.34-.05.53,2.26,1.65,5.29,2.31,8.08,1.77-.29-.55.12-1.18.51-1.67,4.36-5.46,8.74-10.93,13.78-15.83-.48.54-.96,1.08-1.45,1.62"/>
      <path class="cls-78" d="M148.97,247.62c6.8-5.14,14.12-9.65,21.82-13.45"/>
      <path class="cls-78" d="M251.99,252.36c3.99,1.48,8.74,1.79,12.86,3.2,4.44,1.51,8.75,3.31,13.14,4.94,5.17,1.92,17.17,7.25,22.46,4.38-3.17-4.41-12.47-4.61-17.4-5.15-10.62-1.17-21.09-3.65-31.06-7.36Z"/>
      <path class="cls-78" d="M293.77,102.52c4.35-1.3,5.39-7.25,2.97-10.93-2.42-3.69-6.94-5.53-11.26-6.9-11-3.48-23.46-5.18-33.89-.37-1.56.72-3.08,1.61-4.11,2.94-2.08,2.7-1.59,6.49-.32,9.62,1.97,4.84,5.68,9.13,10.59,11.37,4.91,2.24,11.02,2.25,15.66-.47,4.64-2.72,7.44-8.26,6.25-13.33-1.27-5.44-6.42-9.2-11.51-11.94-7.87-4.24-17.08-7.28-25.9-5.36-3.89.85-7.49,2.61-10.96,4.49-5.01,2.71-9.87,5.69-14.54,8.91-.85.59-1.75,1.26-2.05,2.22-.36,1.18.28,2.4.9,3.47,1.76,3.02,3.62,6.1,6.43,8.28,2.81,2.18,6.82,3.3,10.13,1.89,3.32-1.41,5.1-4.92,5.81-8.31,1.25-5.99-.57-13.06-6.09-16.17-5.57-3.14-12.78-1.26-18.42,1.76-1.09.59-2.33,1.57-1.98,2.72.51,1.67,3.15,1.01,4.65.02"/>
      <path class="cls-78" d="M238.26,113.36c1.34,2.57,3.04,4.98,5.03,7.13,1.45,1.57,3.25,3.1,5.44,3.28,2.69.22,5.05-1.63,6.95-3.46,2.38-2.29,4.62-4.78,6.16-7.66-.45-.11-.97,0-1.31.31.15-.19.3-.37.45-.56"/>
      <path class="cls-78" d="M340.5,129.03c5.43,2.6,10.86,5.2,16.3,7.81,3.72-10.12,7.44-20.25,11.17-30.37,1.12-3.04-.95-6.55-3.97-8-3.02-1.44-6.66-1.18-9.88-.2-1.98.61-4.03,1.63-4.79,3.47-3.72,8.99-7.05,18.14-9.96,27.4-.5,1.59-.98,3.33-.31,4.86,3.68-2.32,6.35-5.81,8.79-9.32,4.21-6.05,7.98-12.37,11.3-18.9-1.07.77-1.42,2.32-.78,3.45"/>
      <path class="cls-78" d="M350.6,101.49c-5.3-.72-10.56-1.71-15.74-2.99,1.24.52,2.28,1.46,2.9,2.61"/>
      <path class="cls-78" d="M340.74,127.47c-6.01-1.98-12.28-3.23-18.61-3.73,1.83-.58,3.79-.78,5.7-.59"/>
      <path class="cls-78" d="M339.72,130.38c-2.12-.54-4.33-.77-6.52-.69-1.72,7.38-3.89,14.66-6.49,21.8-.07-.3.61-.25.5.03"/>
      <path class="cls-78" d="M120.07,52.65c-1.89-.86-3.71,1.31-4.49,3.16-1.76,4.17-2.94,8.79-1.75,13.14,1.39,5.09,6.09,9.11,11.47,10.27s11.23-.43,15.46-3.81c4.23-3.38,6.85-8.41,7.56-13.63.54-3.93-.02-8.13-2.33-11.42-2.46-3.51-6.75-5.67-11.15-6.14-4.4-.47-8.89.62-12.81,2.59-2.94,1.47-5.66,3.48-7.41,6.17s-2.39,6.14-1.2,9.09c.39.96,1,1.89,1.94,2.39.94.5,2.27.43,2.96-.36"/>
      <path class="cls-78" d="M73.59,66.78c7.56.94,15.33.37,22.66-1.64,1.65-.45,3.47-1.14,4.11-2.66.95-2.26-1.27-4.52-3.3-5.99-8.67-6.27-18.08-11.62-27.99-15.9,13.1,4.92,26.45,9.25,39.99,12.97-14.01-9.18-28.27-18.59-38.46-31.56,12.66,7.05,25.52,13.78,38.55,20.19,1.81.89,4.17,1.73,5.72.47-10.38-10.02-18.79-21.9-24.65-34.84,7.57,9.55,15.22,19.18,24.68,27.05.93.78,2.03,1.58,3.26,1.45,2.08-.22,2.78-2.74,2.94-4.74.77-9.17,1.14-18.38,1.12-27.58,2.55,9.93,5.1,19.86,7.65,29.79,6.4-7.44,12.81-14.89,19.21-22.33-3.32,8.21-6.7,16.67-6.54,25.47.04,2.55,1.11,5.78,3.78,5.89,1.05.04,2.03-.46,2.95-.97,11.15-6.14,22.62-14.17,35.42-12.86-10.33,3.71-19.25,10.91-24.78,20.03-.67,1.11-1.32,2.44-.82,3.63.56,1.34,2.26,1.83,3.75,2.05,13.1,1.91,27.4-4.03,39.29,1.54.48.98-.95,1.76-2.06,1.98-14.83,2.91-30.35,5.34-42.78,13.6-.9.6-1.89,1.59-1.41,2.54,11.27,1.73,22.54,3.46,33.81,5.2-12.11-1.41-24.3-2.82-36.48-2.19-1.47.08-3.12.27-4.04,1.37-1.53,1.83.07,4.47,1.64,6.27,4.57,5.25,9.13,10.51,13.7,15.76-6.92-7.58-13.84-15.16-20.76-22.74-1.67,11.17-3.34,22.34-5,33.51,1.29-6.7,1.28-13.63-.03-20.33-10.25,7.23-21.11,13.68-32.44,19.27,8.34-5.66,13.96-15.19,13.55-24.95-.02-.58-.1-1.22-.53-1.62-.45-.41-1.15-.44-1.78-.4-3.87.24-7.44,2-10.86,3.75-9.71,4.99-19.27,10.24-28.83,15.49,8-4.52,15.49-9.87,22.3-15.91,3.7-3.28,7.28-6.89,9.16-11.36.29-.69.54-1.44.35-2.17-.34-1.32-1.93-1.91-3.31-2.25-13.65-3.41-28.39-2.75-41.65,1.86.77-.19,1.54-.39,2.31-.58"/>
      <path class="cls-78" d="M134.16,245.15c0,.41-.78-.05-.49-.36s.81-.15,1.19.04c11.33,5.58,17.4,17.38,25.78,26.55,3.14,3.43,7,6.71,11.73,7.29.56.07,1.26.2,1.39.72s-1.07.62-.8.15"/>
      <path class="cls-78" d="M109.32,235.91l-2.07-1.65c12.36,4.87,23.03,13.55,30.01,24.43.49.76.97,1.71.54,2.5"/>
      <path class="cls-78" d="M137.91,182.71c-15.62,5.21-30.28,13.05-43.1,23.04-8.18,6.38-15.63,13.63-24.41,19.23-.55-.39-.6-1.27-.11-1.72-3.61-.1-7.22-.19-10.83-.29,1.54,0,3.08.01,4.62.02"/>
      <path class="cls-78" d="M196.98,163.49c-4.91,6.35-9.74,13.77-8.47,21.56,1.01,6.17,5.71,11.22,10.93,14.99,3.62,2.62,7.66,4.83,12.1,5.75,12.05,2.5,23.84-4.86,32.89-12.85-2.14-1.87-3.72-4.31-4.53-6.97-6.01,4.31-13.29,7.01-20.77,7.7-2.98.27-6.14.2-8.75-1.19-2.08-1.11-3.63-2.96-4.81-4.94-3.84-6.43-4.03-14.96.38-21.05,1.78-2.47,4.34-4.39,7.21-5.59,3.27-1.37,7.06-.15,9.92-1.15,3.53-1.24,3.31-2.92,1.13-6.5-7.94-13.05-21.77,3.18-27.22,10.24Z"/>
      <path class="cls-78" d="M221.03,169.73c-1.09.99-1.6,2.53-1.3,3.93-16.17-.03-32.33-.06-48.49-.09,4.01.86,5.84-.85,9.32-1.93,4.2-1.3,9.31-1.51,13.68-2.01,4.56-.52,9.14-.89,13.73-.9,1.85,0,12.17,1.81,13.06,1Z"/>
      <path class="cls-78" d="M221.33,179.23c-.05,2.83-.11,5.66-.16,8.49-10.1.7-20.19,1.39-30.29,2.09-3.82.26-18.54,3.59-17.14-1.26,1.57-5.47,13.7-6.29,17.88-6.76,9.88-1.11,19.78-1.96,29.71-2.56Z"/>
      <path class="cls-78" d="M324.9,177.72c5.3-13.74,3.09-29.9-5.72-41.88-2.4-3.27-5.4-6.33-9.3-7.78.71-.27,1.41-.55,2.12-.82.3,1.53.6,3.06.89,4.59"/>
      <path class="cls-78" d="M317.61,148.42c.3-.33-.43-.76-.76-.46s-.27.81-.18,1.24c2.06,10.09,2.87,20.42,2.41,30.69-2.31-2.02-4.63-4.04-6.94-6.06,3.29,1.06,6.71,1.74,10.17,2.01-2.69-.7-5.37-1.4-8.06-2.1,3.61,5.41,10.65,8.16,13.95,13.75-5.56,2.92-12.01,4.29-18.34,3.88.66.27,1.33.54,1.99.81.45-.32.79-.79.94-1.31"/>
      <path class="cls-78" d="M353.95,55.46c5.24-1.57,11.07-1.26,16.1.84-.91.01-1.83.03-2.74.04"/>
      <path class="cls-78" d="M351.92,62.4c1.8.06,3.66.13,5.3.85,1.64.72,3.02,2.26,2.92,3.98"/>
      <path class="cls-78" d="M289,17.53c.4-4.29-.06-8.66-1.34-12.79-.83.17-1.26,1.28-.74,1.92,1.41-.4,2.59-1.5,3.02-2.84"/>
      <path class="cls-78" d="M280.19,16.08c-1.49-2.51-2.99-5.03-4.48-7.54"/>
      <path class="cls-78" d="M226.12,52.08c-2.17-1.09-4.23-2.37-6.16-3.81.92.44,1.84.89,2.76,1.33"/>
      <path class="cls-78" d="M224.18,58.62c-1.83-.1-3.67.05-5.46.43.83-.3,1.66-.6,2.49-.9"/>
      <path class="cls-78" d="M393.07,203.12c.46.16,1.04-.17,1.11-.63-6.44-2.95-13.93-2.8-21.04-2.13-3.6.34-7.39.89-10.17,3.09-1.23.98-2.26,2.46-1.93,3.96.29,1.31,1.52,2.21,2.72,2.91,7.48,4.32,16.88,4.7,25.42,2.91,3.09-.65,6.65-2.1,7.15-5.09.49-2.95-2.33-5.37-4.96-6.98-3.14-1.92-6.81-3.65-10.46-2.94,1.37.92,3.01,1.48,4.68,1.6"/>
      <path class="cls-78" d="M396.12,204.54c.8,8.66,1.6,17.33,2.4,25.99.29,3.1.54,6.39-.94,9.17-2.65,4.98-9.51,6.15-15.36,6.09-5.82-.07-11.63-.76-17.29-2.06-2.03-.47-4.09-1.03-5.78-2.21s-2.96-3.07-2.81-5.06c.03-.44.18-.94.6-1.15s.93,4.41.75,4.82c-.84.45-1.61,1.02-2.26,1.7,2.35-11.62,3.69-23.43,4.01-35.26.01-.53.11-1.18.64-1.36s.88.87.33.8"/>
      <path class="cls-78" d="M356.3,227.17c-4.14,3.82-11.75,3.29-15.26-1.07,2.56-.56,3.18-3.71,3.27-6.21.74-19.77,1.49-39.54,2.23-59.31,6,3.86,12.8,6.81,20,7.46,7.2.65,14.83-1.22,20.12-5.93-9.29-4.39-19.4-7.2-29.71-8.26-4.7-.48-10.12-.34-13.24,3.05.52,2.59,2.6,4.84,5.24,5.66"/>
      <path class="cls-78" d="M385.16,161.6c-.18,11.21-.34,22.41-.49,33.62-.02,1.3-.03,2.6-.14,3.9.6.19.86-.99.23-1.04"/>
      <path class="cls-78" d="M413.78,187.58c-.92.24-1.84.46-2.77.65-4.29.87-20.79,4.03-15.85-4.02,4.79-7.79,14.38-1.1,18.62,3.37Z"/>
      <path class="cls-78" d="M413.63,185.9c.35.09.16-.62-.18-.5s-.38.55-.37.9c.58,13.95,1.16,27.91,1.74,41.86.21-.95-1.4-1.08-2.36-.76-5.6,1.85-11.75,2.15-17.51.86,1.32-1.32,3.11-2.19,5-2.44"/>
      <path class="cls-78" d="M343.51,170.57l-1.76-.07c12.49,5.07,26.22,7.32,39.77,6.5.54-.03,1.12-.09,1.5-.46s.27-1.15-.26-1.22"/>
      <path class="cls-78" d="M347.94,183.36c-1.6-.74-3.62-.58-5.07.4,3.21,1.56,6.81,2.23,10.39,2.65,7.76.92,15.66.77,23.38-.47,3.86-.62,8.01-1.7,10.33-4.71-.62-.25-1.25-.5-1.87-.75"/>
      <path class="cls-78" d="M345.98,190.83c-.68.02-1.37.05-2.05.07.79,2.28,3.66,3.12,6.14,3.52,11.87,1.93,24.18,1.37,35.81-1.63,1-.26,2.09-.6,2.65-1.43s.11-2.27-.93-2.27"/>
      <path class="cls-78" d="M343.01,201.75l-1.63.98c6.67,2.85,14.18,3.92,21.43,3.04-.51-.37-1.03-.73-1.54-1.1"/>
      <path class="cls-78" d="M344.01,216.37c5.14,2.05,10.84,2.82,16.37,2.2"/>
      <path class="cls-78" d="M357.94,215.48c-.63.11-.31,1.04.16,1.46,6.13,5.42,15.2,7.19,23.41,5.7,8.21-1.49,15.59-5.93,21.57-11.49-.59-.46-1-1.13-1.13-1.85"/>
      <path class="cls-78" d="M358.24,228.56c7.17,1.94,14.68,3.11,22.08,2.27,7.4-.84,14.71-3.85,19.59-9.22,1.82-2,3.34-4.62,2.68-7.19"/>
      <path class="cls-78" d="M359.82,239.59c13.67,4.58,29.71,2.03,41.09-6.52-.66-.5-1.32-1.01-1.98-1.51"/>
      <path class="cls-78" d="M392.96,197.06c1.66,1.84,4.46,2.23,7,2.3,4.85.13,9.72-.48,14.37-1.81"/>
      <path class="cls-78" d="M397.46,206.51c6.12,1.9,12.69,2.45,19.06,1.58.68-.09,1.36-1.1.68-1.12"/>
      <path class="cls-78" d="M399.91,218.89c3.65-.32,7.35-.06,10.97-.6s7.32-2.05,9.28-5c-.34.18-.77.37-1.11.17s-.04-.87.27-.65"/>
      <path class="cls-78" d="M117.78,61.15c2.95-.74,5.99-1.12,9.04-1.12-1.7,3.19-3.93,6.13-6.57,8.67-.03-.63.37-1.26.97-1.53"/>
      <path class="cls-78" d="M126.27,51.46c3.56,4.89,6.15,10.43,7.59,16.23.08-.66.16-1.31.24-1.97"/>
      <path class="cls-78" d="M138.98,48.69c-1.14,2.61-2.79,5.01-4.85,7.05,3.75-.65,7.66-.43,11.29.64"/>
      <path class="cls-78" d="M232.08,262.23c-.79-.46-1.83-.49-2.64-.09,7.67,10.48,20.85,16.5,34.16,17.93,13.31,1.44,26.78-1.28,39.44-5.49,13.75-4.57,26.84-10.93,38.82-18.83,1.11-.74,2.07-2.64.76-2.97,2.44.21,4.75,1.48,6.17,3.39-1.2.18-2.46-.04-3.52-.62.57-1.09,1.14-2.18,1.71-3.26"/>
      <path class="cls-78" d="M276.64,53.46c-1.02-.77-2.36-1.14-3.64-1-3.11,5.25-.23,12.32,4.92,15.82,5.14,3.5,11.83,4.16,18.15,3.96,1.18-.04,2.74.18,2.9,1.29.07.48-.18.94-.43,1.35-1.3,2.09-3.02,3.93-4.14,6.12-1.11,2.18-1.52,4.93-.13,6.96,1.64,2.4,5.02,2.92,7.99,3.38.66.1,1.4.26,1.78.79.46.64.2,1.51-.09,2.24-.96,2.46-1.91,4.91-2.87,7.37,1.02-4.19,3.24-8.11,6.35-11.22,6.85,5.41,9.77,14.93,7.07,23.01-.39,1.17-.95,2.38-2.03,3.05-2.8,1.72-6.12-1.28-7.95-3.93.97.37,1.95.74,2.92,1.11"/>
      <path class="cls-78" d="M329.63,162.94c5.29.15,10.6-.2,15.83-1.05"/>
      <path class="cls-78" d="M288.18,288.86c21.55-.97,43.09-1.94,64.64-2.91,29.38-1.32,58.84-2.65,88.17-.6-2.2,1.1-141.19,15.66-143.39,16.77,39.31-24.46,83.75-47.28,116.22,4.89"/>
      <path class="cls-78" d="M227.84,288.66c-1.89-3.25-6.7-3.25-10.57-2.85-72.11,7.51-145.05,7.69-217.2.53,51.52,7.46,103.92-1.38,155.2-10.19-14.77,3.1-30.11,3.75-45.12,1.91,4.87.22,9.74.44,14.61.67"/>
    </g>
  </g>
</svg>