<?xml version="1.0" encoding="UTF-8"?>
<svg id="Ebene_2" data-name="Ebene 2" xmlns="http://www.w3.org/2000/svg" xmlns:xlink="http://www.w3.org/1999/xlink" viewBox="0 0 462.35 300.3">
  <defs>
    <style>
      .cls-1 {
        fill: #fcd89d;
      }

      .cls-2 {
        fill: #db580f;
      }

      .cls-3 {
        fill: #2a9400;
      }

      .cls-4 {
        fill: #fde374;
      }

      .cls-5 {
        fill: #f6990c;
      }

      .cls-6 {
        fill: #b6856a;
      }

      .cls-7 {
        fill: #b36f54;
      }

      .cls-8 {
        fill: #d27e50;
      }

      .cls-9 {
        fill: #fcc585;
      }

      .cls-10 {
        fill: #469aa3;
      }

      .cls-11 {
        fill: #63ba00;
      }

      .cls-12 {
        fill: #398793;
      }

      .cls-13 {
        fill: #e0cabc;
      }

      .cls-14 {
        fill: #d5e1e5;
      }

      .cls-15 {
        fill: #fffffe;
      }

      .cls-16 {
        fill: #f7b37a;
      }

      .cls-17 {
        fill: #906a5d;
      }

      .cls-18 {
        fill: #f5ebe3;
      }

      .cls-19 {
        fill: #8b8c8e;
      }

      .cls-20 {
        fill: #c4cace;
      }

      .cls-21 {
        fill: none;
        stroke: #000;
        stroke-miterlimit: 10;
      }

      .cls-22 {
        fill: #bdbdb1;
      }

      .cls-23 {
        fill: #c9a690;
      }

      .cls-24 {
        fill: #f1840f;
      }

      .cls-25 {
        fill: url(#Unbenannter_Verlauf_175);
      }

      .cls-26 {
        fill: url(#Unbenannter_Verlauf_182);
      }

      .cls-27 {
        fill: #68787b;
      }

      .cls-28 {
        fill: #f7b11c;
      }

      .cls-29 {
        fill: #adbdc3;
      }

      .cls-30 {
        fill: #e29464;
      }

      .cls-31 {
        fill: #90a4ab;
      }

      .cls-32 {
        fill: #2d6876;
      }
    </style>
    <linearGradient id="Unbenannter_Verlauf_182" data-name="Unbenannter Verlauf 182" x1="628.51" y1="-871.12" x2="566.69" y2="-864.39" gradientTransform="translate(-329.98 810.28) scale(.73)" gradientUnits="userSpaceOnUse">
      <stop offset="0" stop-color="#ed7c10"/>
      <stop offset="1" stop-color="#f9b526"/>
    </linearGradient>
    <linearGradient id="Unbenannter_Verlauf_175" data-name="Unbenannter Verlauf 175" x1="661.13" y1="-1007.78" x2="793.5" y2="-728.61" gradientTransform="translate(-329.98 810.28) scale(.73)" gradientUnits="userSpaceOnUse">
      <stop offset="0" stop-color="#fee256"/>
      <stop offset=".91" stop-color="#f7930c"/>
    </linearGradient>
  </defs>
  <g id="versicherungen">
    <g>
      <path class="cls-23" d="M404.91,68.26c-.34,31.17-.69,62.33-1.03,93.5-.04-10.32,2.33-20.65,6.88-29.92,3.14,7.98,3.66,16.97,1.47,25.26-.75-1.32-1.5-2.63-2.24-3.95,6.29-1.2,12.74-1.53,19.12-.97-4.68,5.58-9.55,10.99-14.61,16.21,3.63,2.87,10.74.72,12.28,5.09.37,1.05.23,2.22-.14,3.26-1.51,4.22-6.42,6.31-10.9,6.37-4.48.07-8.83-1.38-13.28-1.94-1.47-.19-3.61,1.29-2.38,2.11-2.92-1.92-6.5,2.3-9.94,1.74-3.38-.55-4.25-4.95-4.29-8.37-.43-34.73,3.08-69.51,10.46-103.44-1.78.17-3.78.44-4.87,1.86s-.06,4.17,1.68,3.75"/>
      <g id="Generatives_Objekt" data-name="Generatives Objekt">
        <path class="cls-4" d="M114.93,33.5c2.12,7.18.28,17.91,10.29,18.42-9.04,3.29-8.04,8.57-8.37,16.99-2.11-8.75.27-14.11-10.77-15.55,11.37-2.71,7.71-10.8,8.85-19.86Z"/>
        <path class="cls-4" d="M95.79,60.77c1.9,5.87-1.09,14.44,6.94,16.03-7.61,2.42-5.46,6.43-6.94,12.68-.74-7.37.38-10.54-7.9-12.68,9.81-.66,6.83-9,7.9-16.03Z"/>
        <g>
          <g>
            <path class="cls-18" d="M36.69,226.82l-1.2,1.91c1.2.28,2.07-.36,3.11-.48l41.63,28.71c.93,1.94,2.48,5.17,4.79,5.74.56.14,1.69,0,2.39,0,26.11,11.26,52.68,24.97,79.91,33.02,1.2.35,2.7.68,3.35,1.91-12.83-.21-25.67-.8-38.52-.48-15.83.4-36.68,4.14-51.68,2.87-10.37-.88-24.62-5.73-35.41-7.66-12.81-2.28-25.83-3.75-38.76-5.26.86-1.15,5.61-3.91,6.7-4.31,1.26-.46,5.83-1.44,7.66-1.91,18.68-4.86,38.92-4.82,57.66-9.81-12.38-3-22.67-10.99-34.22-16.03-12.74-5.56-26.16-9.31-39.96-11.25-.25-1.31.83-1.68,1.67-2.15,6.82-3.8,19.37-6.13,26.32-10.53,2.22-1.41,2.02-1.73,3.11-3.83.53-.43,1.02-.34,1.44-.48Z"/>
            <path class="cls-15" d="M389.37,280.42l-90.68-8.61c.56-2.03,17.73-4.31,16.51-5.98l-19.14-3.59c9.14-5.31,17.69-11.72,25.84-18.42-4.93-4.61-9.42-9.53-13.88-14.6,3.32-1.46,8.12-.08,11.72.96,24.32,7.03,48.14,23.84,75.13,24.88l67.47,22.01c-15.95,3.08-33.29,1.29-49.77,1.91-7.72.29-15.49,1.16-23.21,1.44Z"/>
            <path class="cls-18" d="M418.08,180.89c-2.81,1.76-21.33,6.45-22.01,8.85-.2.7.15,1.3.72,1.67,1.99,1.3,12.13,2.7,15.07,4.79-4.46,2.29-10.98,3.59-16.03,6.22-3.78,1.97-14.95,12.05-16.75,12.44-8.29,1.78-23.02,1.18-32.54,2.39-14.33,1.82-28.69,4.28-42.83,7.18-7.76-9.32-15.06-19.27-20.58-30.15,28.05-.95,56.18-.23,84.22-.48,8.02-.07,16.11.05,24.17,0,1.06-.44.89-2.76,1.2-3.35,2.1-3.99,2.65-5.54,2.87-10.05,0-.16,0-.32,0-.48,7.46.25,15.09.34,22.49.96Z"/>
            <path class="cls-13" d="M389.37,280.42c-44.51,1.61-89.01,2.65-133.27,7.66-17.25,1.95-34.45,5.67-51.68,7.66-.4.05-3.32.5-2.15-.96,11.67-1.49,23.68-4.12,35.17-6.7,11.54-2.59,46.06-10.21,55.03-14.83.71-.37,1.63-.94,1.44-1.91l-12.68-1.44c5-2.28,10.08-4.9,14.83-7.66l19.14,3.59c1.22,1.67-15.95,3.95-16.51,5.98l90.68,8.61Z"/>
            <path class="cls-23" d="M202.26,294.78c-6.15.78-12.47,1.01-18.66,1.44,32.63-7.57,67.04-12.35,97.62-26.32l12.68,1.44c.2.97-.72,1.55-1.44,1.91-8.97,4.62-43.49,12.25-55.03,14.83-11.49,2.58-23.5,5.21-35.17,6.7Z"/>
            <path class="cls-23" d="M174.99,298.6c-1.52.04-2.71-.93-4.31-.96-.65-1.24-2.15-1.56-3.35-1.91-14.9-9.25-17.83-29.27-22.01-44.98,1.38-.43,3.56-2.1,5.26-2.39,6.22,17.85,12.97,35.02,24.41,50.25Z"/>
            <path class="cls-2" d="M62.53,205.29c2.81,5.71,4.58,11.73,6.7,17.71-10.32.94-20.36,4.07-30.63,5.26-1.04.12-1.91.76-3.11.48l1.2-1.91c3.23-1.09,12.89-11.11,16.27-13.88,2-1.64,7.82-6.97,9.57-7.66Z"/>
            <path class="cls-18" d="M411.86,196.2c-2.95-2.09-13.09-3.49-15.07-4.79-.57-.37-.92-.98-.72-1.67.68-2.4,19.2-7.09,22.01-8.85.74.06,3-.25,3.35.24-2.88,6.33-3.03,11.71-9.57,15.07Z"/>
            <path class="cls-18" d="M52.96,212.95c-3.38,2.77-13.04,12.79-16.27,13.88-.42.14-.91.05-1.44.48.34-.65-.71-1.17-.48-1.67.41-.9,13.74-10.96,15.55-12.2.95-.65,1.47-.93,2.63-.48Z"/>
            <g>
              <path class="cls-26" d="M104.64,91.4c16.91,34.62,19.03,54.36,27.75,90.92l11.01,63.17c-13.8,5.39-28.12,9.52-42.11,14.36-4.27.7-9.43,2.88-13.88,2.87-.71,0-1.83.14-2.39,0l5.26-61.25c1.09.2,1.34-2.88,1.44-3.59,4.16-30.66,4.06-78.69,12.44-106.47h.48Z"/>
              <path class="cls-24" d="M90.29,201.46l-5.26,61.25c-2.3-.57-3.85-3.8-4.79-5.74-4.2-8.77-7.45-23.93-11.01-33.98-2.12-5.98-3.89-11.99-6.7-17.71,6.88-2.68,20.16-1.35,27.75-3.83Z"/>
              <path class="cls-2" d="M148.67,243.09c-1.59,1.1-3.48,1.7-5.26,2.39l-11.01-63.17c4.87,20.4,9.66,40.86,16.27,60.77Z"/>
              <g>
                <path class="cls-25" d="M218.53,78c6.8.14,12.68,1.34,19.14,3.35.26.65.46.45.48.48,1.86,8.22,4.1,16.4,6.7,24.41,2.21,6.81,5.13,13.42,7.66,20.1,2.19,5.79,4.32,11.51,6.7,17.23,1.5,3.6,3.24,6.99,4.79,10.53,1.76,4.01,3.42,7.98,5.26,11.96.63,1.35,1.16,3.19,1.91,4.79,2.82,5.99,5.83,11.94,9.09,17.71.39,1,.99,1.93,1.44,2.87.48,1.02.94,1.89,1.44,2.87,5.52,10.88,12.82,20.82,20.58,30.15,1.41,1.69,2.88,3.16,4.31,4.79,4.46,5.07,8.94,9.98,13.88,14.6-8.15,6.71-16.7,13.11-25.84,18.42-4.75,2.76-9.84,5.37-14.83,7.66-30.58,13.97-64.99,18.75-97.62,26.32-2.71.63-5.84,2.31-8.61,2.39-11.44-15.22-18.19-32.4-24.41-50.25-.61-1.76-1.33-3.51-1.91-5.26-6.61-19.92-11.4-40.37-16.27-60.77-8.73-36.56-10.84-56.3-27.75-90.92-.08-.17.06-.55-.48-.48.03-.07-1.17-.65.24-1.44,26.92-3.42,54.2-7.47,81.35-9.57,10.16-.78,22.8-2.12,32.78-1.91Z"/>
                <g>
                  <path class="cls-18" d="M104.64,91.4h-.48c.05-.16-.06-.36,0-.48.53-.07.4.31.48.48Z"/>
                  <g>
                    <path class="cls-24" d="M165.42,105.76c2.26,3.23,4.08,8.47,4.31,12.44.31,5.5-1.18,11.49-4.79,15.79-.68.81-1.84,1.46-2.39,2.39-1.98.46-4.16,2.26-6.46,2.39-6.41.36-12.66-4.91-15.07-10.53.05-.01-.17-.84.24-.96,3.17-.88,18.67-5.85,19.38-8.37.38-1.34-.04-4.15-1.67-4.55-1.2-.29-18.39,2.74-20.82,3.35-1.2-16.21,16.63-27.18,27.28-11.96Z"/>
                    <path class="cls-28" d="M169.72,118.2c-.22-3.98-2.05-9.21-4.31-12.44l71.06-10.05c1.12.45,2.11,4.46,1.67,5.5-1.37,3.26-60.85,13.73-68.43,16.99Z"/>
                    <path class="cls-5" d="M245.57,132.55c1.62,4.81-1.19,6.24-5.26,7.66-15.64,5.44-82.42,20.95-97.62,21.53-3.33.13-4.58-.97-2.87-4.31l105.76-24.88Z"/>
                    <path class="cls-24" d="M235.76,229.7c.9,1.01,1.32,2.55,1.91,3.83-1.66-.48-.7-1.46-3.11-1.44-4.41.05-34.87,11.76-42.11,13.88-4.46,1.3-34.56,10.1-36.37,9.57-1.22-.36-2.32-2.82-.48-3.83,4.86-2.65,25.12-6.52,32.06-8.61,15.68-4.73,31.26-10.04,46.9-14.83.48.44.77.95,1.2,1.44Z"/>
                    <path class="cls-5" d="M247.01,168.92c.61.12.81.2,1.2.72-.16.95.33,2.91-.24,3.59-.51.62-13.4,4.25-15.31,4.79-26.22,7.26-54.68,10.93-81.11,17.94l5.98-3.59,89.49-23.45Z"/>
                    <path class="cls-24" d="M261.12,200.03c-.72,1.68-1.29,3.54-1.91,5.26-.39.04-.54.33-.96.48l-99.06,27.99,101.93-33.74Z"/>
                    <path class="cls-24" d="M245.57,187.11c.95-.06,1.92.04,2.87,0-30.74,13.01-65.41,18.98-98.34,26.56,2.02-2.03,6.16-3.21,8.85-4.07,17.56-5.59,70.57-21.43,86.61-22.49Z"/>
                    <path class="cls-5" d="M238.87,151.22c1.11,3.54-1.17,4.77-3.83,5.74-18.47,6.78-50.33,13.24-70.34,17.71-2.12.47-17.34,3.89-17.94,3.11l2.15-2.15c30.26-7.06,60.66-14.02,89.96-24.41Z"/>
                    <g>
                      <path class="cls-11" d="M262.56,211.03c.56,4.31,10.8,26.07,10.53,27.52l-28.95,11.72c-.83-.35-5.48-14.64-6.46-16.75-.59-1.27-1.01-2.82-1.91-3.83l-4.79-13.64c8.82-4.09,18.15-6.99,27.28-10.29.42-.15.57-.44.96-.48-2.77,7.68-4.47,15.81-7.42,23.45l-12.68-4.07,15.55,16.51,7.9-30.15Z"/>
                      <path class="cls-3" d="M262.56,211.03l-7.9,30.15-15.55-16.51,12.68,4.07c2.95-7.63,4.65-15.77,7.42-23.45.62-1.73,1.2-3.58,1.91-5.26.63-1.48,1.64-4.02,2.87-5.02.54,4.7-1.97,11.92-1.44,16.03Z"/>
                    </g>
                    <path class="cls-28" d="M141.01,128.25c-.32.08-3.5-.64-4.55.48-1.12-.31-3.72-8.8-3.11-9.81,1.55-.61,3.19-.79,4.79-1.2,2.43-.61,19.61-3.64,20.82-3.35,1.64.39,2.05,3.21,1.67,4.55-.71,2.53-16.21,7.49-19.38,8.37-.41.12-.19.94-.24.96Z"/>
                    <path class="cls-28" d="M162.55,136.38c.55-.93,1.71-1.58,2.39-2.39,21.92-6.95,44.53-11.62,67.23-15.31l.48,1.44c-23.41,5.22-46.74,10.88-70.1,16.27Z"/>
                  </g>
                </g>
              </g>
              <path class="cls-6" d="M150.58,248.36c-1.7.29-3.88,1.96-5.26,2.39-14.16,4.4-29.41,6.7-44.02,9.09,13.99-4.84,28.31-8.96,42.11-14.36,1.78-.7,3.67-1.3,5.26-2.39.58,1.75,1.3,3.5,1.91,5.26Z"/>
            </g>
            <path class="cls-23" d="M145.32,250.75c4.19,15.71,7.12,35.73,22.01,44.98-27.23-8.05-53.81-21.76-79.91-33.02,4.45.01,9.61-2.17,13.88-2.87,14.62-2.39,29.86-4.69,44.02-9.09Z"/>
            <path class="cls-13" d="M69.23,223c3.56,10.04,6.81,25.21,11.01,33.98l-41.63-28.71c10.26-1.19,20.31-4.33,30.63-5.26Z"/>
          </g>
          <g>
            <g>
              <path class="cls-30" d="M375.01,174.66c1.84.04,10.48-.34,11.25,0,1.31.58.45,3.25.72,4.31.73,2.92,5.8.82,8.61,1.44-.22,4.51-.77,6.05-2.87,10.05-5.36,1.47-20.37-1.64-24.64,0-.88.34-.07,2.55-.72,3.35-28.04.25-56.17-.47-84.22.48-.5-.98-.96-1.85-1.44-2.87,9.69-2.34,80.37,2.24,83.03-.96.43-.52.37-7.4,0-7.66-21.3.14-42.59-.36-63.88-.48v-.96c19.88.32,39.69-1.22,59.58,0l.72-6.7c4.62.07,9.26-.1,13.88,0Z"/>
              <path class="cls-16" d="M300.84,182.32c21.3.12,42.58.62,63.88.48.37.26.43,7.13,0,7.66-2.65,3.19-73.33-1.38-83.03.96-.44-.94-1.04-1.87-1.44-2.87-.3-.77-2.65-6.41-2.15-6.7,7.58-.43,15.18.44,22.73.48Z"/>
              <path class="cls-16" d="M292.71,167.01v3.11c21.36,1.48,43.13.08,64.6,1.67-.07,1.03-.14,1.9-.48,2.87-18.9-.31-37.8-.75-56.71-.96l-.24,7.66c-3.42-.06-21.67-.07-22.73-.48-.52-.2-3.93-7.34-3.35-7.66l18.18.48c-.43-.7-.61-3-.72-3.11-.7-.72-17.88-.22-20.1.24-.75-1.59-1.29-3.43-1.91-4.79,7.77.66,15.65.71,23.45.96Z"/>
              <path class="cls-30" d="M299.88,181.36c.32,0,.64,0,.96,0v.96c-7.55-.04-15.15-.91-22.73-.48-.5.29,1.85,5.93,2.15,6.7-3.26-5.76-6.27-11.72-9.09-17.71,2.22-.46,19.4-.96,20.1-.24.11.12.29,2.41.72,3.11l-18.18-.48c-.59.32,2.83,7.46,3.35,7.66,1.06.41,19.31.42,22.73.48Z"/>
              <path class="cls-30" d="M392.72,190.46c-.31.59-.14,2.91-1.2,3.35-8.05.05-16.14-.07-24.17,0,.65-.8-.17-3.01.72-3.35,4.27-1.64,19.28,1.47,24.64,0Z"/>
              <path class="cls-9" d="M308.98,167.49c7.18.23,14.36.28,21.53.48,4.44.12,8.93.37,13.4.48,4.44.1,8.92.42,13.4.48v1.91c0,.32.02.64,0,.96-21.47-1.59-43.24-.19-64.6-1.67v-3.11c5.42.17,10.85.31,16.27.48Z"/>
              <path class="cls-9" d="M356.83,174.66c1.43.02,2.88-.02,4.31,0l-.72,6.7c-19.89-1.22-39.7.32-59.58,0-.32,0-.64,0-.96,0l.24-7.66c18.9.21,37.81.64,56.71.96Z"/>
              <path class="cls-30" d="M375.49,170.84c.13,1.42-.37,2.48-.48,3.83-4.61-.1-9.26.07-13.88,0-1.43-.02-2.88.02-4.31,0,.34-.97.41-1.84.48-2.87.02-.31,0-.64,0-.96h18.18Z"/>
              <path class="cls-16" d="M375.01,169.4c.07.45.4.56.48,1.44h-18.18v-1.91c5.89.08,11.85-.37,17.71.48Z"/>
            </g>
            <g>
              <path class="cls-9" d="M368.79,40.68c-.08.55.36.41.48.48,11.74,6.99,23.48,14.33,34.45,22.49-8.67-2.16-21.38-1.2-28.95-3.35-2.56-.73-4.17-4.79-6.94-5.74-.01-.16.03-.33,0-.48-.45-2.63-13.24-11.01-16.03-12.92C329.9,26.21,306.02,13.85,283.61,0c3.83-.06,40.58,16.68,46.66,19.62,13.1,6.35,26.02,13.62,38.52,21.06Z"/>
              <path class="cls-30" d="M403.73,63.64c3.22.8,5.4.41,5.74,4.07-.19.73-3.83,1.8-4.79,2.15.57-1.8.73-1.86-1.2-2.39-6.82-1.89-19.04-1.53-26.56-2.39-1.63-4.75-6.65-3.94-11.01-4.31.79-1.91,2.09-4.06,1.91-6.22,2.77.95,4.38,5.02,6.94,5.74,7.57,2.15,20.28,1.19,28.95,3.35Z"/>
              <path class="cls-18" d="M262.56,9.09c-18.7,15.97-36.28,33.41-55.51,48.81,2.24-6.5,47.3-45.9,55.51-48.81Z"/>
              <path class="cls-17" d="M404.68,69.87c-1.92.71-4.23,1.3-6.22,1.91-3.62-.54-7.39-1.5-11.01-1.91l-11.48-4.79c.31.03.65-.04.96,0,7.52.86,19.73.5,26.56,2.39,1.93.53,1.77.59,1.2,2.39Z"/>
              <path class="cls-30" d="M227.63,59.82l-.24,4.79c-2.8-1.17-6.05,0-8.85-.48-.57-.1-10.43-3.53-11.01-3.83,6.62-.95,13.43-.38,20.1-.48Z"/>
              <path class="cls-15" d="M369.27,41.15c-.12-.07-.56.07-.48-.48.12.07.56-.07.48.48Z"/>
              <path class="cls-30" d="M315.68,57.9c2.3,1.5,5.35,1.22,8.14,1.44l.48,5.98c-.48,1.2-3.65.6-4.79.72-1.05.11-2.27.48-2.39.48-2.85.05-7.04-.96-10.05-.96-.16-1.28-.28-4.06-.48-4.79-.14-.54-.59-1.22-.72-1.91-1.97.37-13.67-.49-14.36,0-.74.52.17,6.36-.24,6.94-.3.43-5.72.27-6.7.24-2.33-.08-9.69-.58-11.72-.96-1.89-.35-.64-.42-1.67-1.44-.02-.31.02-.64,0-.96-.06-1.22.07-2.58,0-3.83,14.83-.3,29.67-.66,44.5-.96Z"/>
              <path class="cls-16" d="M367.84,54.07c.03.15-.01.32,0,.48.18,2.16-1.12,4.31-1.91,6.22-4.96-.42-10.29-.26-15.31-.48-2.7-.12-5.44.11-8.14,0-6.24-.25-12.44-.47-18.66-.96-2.79-.22-5.83.06-8.14-1.44,6.02-.12,45.67.41,47.61-.96,2.24-1.57-.92-5.45-2.15-6.7,2.34,1.17,4.24,2.89,6.7,3.83Z"/>
              <path class="cls-30" d="M252.51,59.34c-.03,1.74.85,3.48.48,5.26l-16.75-1.44c-.08-1.1.06-2.24,0-3.35,5.41-.11,10.87-.36,16.27-.48Z"/>
              <path class="cls-30" d="M252.99,64.6c-.67,3.18-1.93,1.59-4.79,1.91-1.1-.04-2.25.09-3.35,0-2.7-.22-5.38-.82-8.14-.48-.08-.92-.39-1.7-.48-2.87l16.75,1.44Z"/>
              <path class="cls-7" d="M365.92,60.77c4.36.37,9.37-.45,11.01,4.31-.31-.04-.65.03-.96,0-3.42-.38-6.95-1.99-10.29-2.39-3.4-.41-2.92.98-3.11.96-2.02-.23-4.21-.6-6.22-.96-1.82-.32-6.22-.48-5.74-2.39,5.02.22,10.35.06,15.31.48Z"/>
              <g>
                <path class="cls-1" d="M283.61,0c22.41,13.85,46.29,26.21,68.19,41.15,2.79,1.91,15.58,10.29,16.03,12.92-2.46-.93-4.36-2.66-6.7-3.83-.08-.04-.63-1.61-1.44-.72.27.74,1.38.66,1.44.72,1.23,1.25,4.39,5.13,2.15,6.7-1.95,1.37-41.59.84-47.61.96-14.83.3-29.68.66-44.5.96-6.22.13-12.45.34-18.66.48-5.4.12-10.86.37-16.27.48-2.86.06-5.75-.04-8.61,0-6.67.1-13.47-.47-20.1.48-.25-.13-1.11.08-1.44-.72.4-.43.77-1.13.96-1.67,19.23-15.4,36.81-32.84,55.51-48.81.66-.23.45-.46.48-.48.08-.06.56.07.48-.48.11-.06.32.04.48,0,.29-.08.54,0,.48-.48.15-.04.33.04.48,0,.29-.08.54,0,.48-.48.15-.04.33.04.48,0,.29-.08.54,0,.48-.48.15-.04.33.04.48,0,.29-.08.54,0,.48-.48.16-.04.35.05.48,0,.66-.24.45-.47.48-.48.27-.12.99.27.96-.48.15-.03.33.04.48,0,3.12-.78,4.63-2.03,7.18-2.87,1.69-.56,5.32-2.37,6.7-2.39Z"/>
                <g>
                  <path class="cls-18" d="M276.91,2.39c-2.55.84-4.06,2.09-7.18,2.87l7.18-2.87Z"/>
                  <path class="cls-18" d="M262.56,9.09s.13-.21.48-.48c-.03.02.18.25-.48.48Z"/>
                  <path class="cls-18" d="M263.04,8.61s-.12-.17.48-.48c.08.55-.4.42-.48.48Z"/>
                  <path class="cls-18" d="M263.99,8.14c-.06-.46.16-.4.48-.48.06.48-.19.4-.48.48Z"/>
                  <path class="cls-18" d="M265.91,7.18c-.06-.46.16-.4.48-.48.06.48-.18.4-.48.48Z"/>
                  <path class="cls-18" d="M269.26,5.26c.03.75-.69.36-.96.48.29-.18.01-.27.96-.48Z"/>
                  <path class="cls-18" d="M264.95,7.66c-.06-.46.16-.4.48-.48.06.48-.18.4-.48.48Z"/>
                  <path class="cls-18" d="M267.82,6.22c-.08-.55.36-.41.48-.48-.03.01.18.24-.48.48Z"/>
                  <path class="cls-18" d="M266.87,6.7c-.06-.46.16-.4.48-.48.06.48-.18.4-.48.48Z"/>
                  <path class="cls-29" d="M306.58,29.19l-27.04-12.44-40.2,33.02,95.71-2.87c.81-.86-.4-1.11-.72-1.44-.35-2.36,3.26.03,4.07.48,3.55,1.97,8.16,5.41,11.25,8.14-41.79,1.33-89.43,4.93-130.64,3.35,7.15-6.01,14.66-11.63,21.77-17.71,5.41-4.62,29.8-24.76,32.3-28.71,11.52,5.41,22.49,11.83,33.5,18.18Z"/>
                  <path class="cls-31" d="M349.65,54.07c-3.08-2.72-7.7-6.17-11.25-8.14-.81-.45-4.41-2.84-4.07-.48-3.01-3.07-22.45-13.21-27.75-16.27-11-6.35-21.98-12.77-33.5-18.18.17-.27.4-.63.48-.96,11.23,3.92,23.87,10.13,34.69,15.31,17.56,8.41,35.09,17.49,51.44,27.99-3.33.7-6.68.61-10.05.72Z"/>
                  <path class="cls-19" d="M273.56,10.05c-.08.32-.31.68-.48.96-2.5,3.95-26.89,24.09-32.3,28.71-7.11,6.07-14.62,11.69-21.77,17.71-1.51-.06-3.03.04-4.55,0,18.3-16.13,37.43-31.72,55.03-48.81l.96-.48c.3-.01,2.71,1.78,3.11,1.91Z"/>
                  <path class="cls-16" d="M355.15,45.94c.92.28,1.88,1.07,2.63,1.67-.82.48-2.78-.71-2.63-1.67Z"/>
                  <path class="cls-16" d="M361.14,50.25c-.06-.06-1.17.03-1.44-.72.81-.89,1.36.68,1.44.72Z"/>
                  <path class="cls-14" d="M306.58,29.19c5.3,3.06,24.75,13.2,27.75,16.27.32.33,1.52.57.72,1.44l-95.71,2.87,40.2-33.02,27.04,12.44Z"/>
                </g>
              </g>
              <path class="cls-30" d="M350.61,60.3c-.47,1.91,3.92,2.07,5.74,2.39l-.48,2.87c-4.29-.69-8.64-.75-12.92-1.44-.07-.84-.92-2.57-.48-3.83,2.7.11,5.44-.12,8.14,0Z"/>
              <path class="cls-8" d="M362.57,63.64c.08.94-.12,1.95,0,2.87-2.38.45-4.49-.6-6.7-.96l.48-2.87c2.02.36,4.2.72,6.22.96Z"/>
              <path class="cls-30" d="M355.87,65.56c2.21.35,4.32,1.41,6.7.96.06.51.42,1.28.48,2.39-1.98-.12-4.72-.83-6.7-.96-4.41-.28-8.96-.41-13.4-.48-.05-.96.06-2.66,0-3.35,4.28.68,8.63.75,12.92,1.44Z"/>
            </g>
            <g>
              <path class="cls-10" d="M395.59,179.93c0,.16,0,.32,0,.48-2.81-.61-7.88,1.48-8.61-1.44l7.66.24c-.34-3.61.47-7.99,0-11.48-.48-3.58-4.56-9.94-5.74-13.88-7.29-24.31-5.91-53.73-8.61-78.96.84-1.55,13.95-.67,16.03-1.2.14-.04,1.1-1.59,2.15-1.91-.62,26.73-1.87,53.44-2.87,80.15-.34,9.02.5,19.19,0,27.99Z"/>
              <path class="cls-12" d="M236.24,59.82c.06,1.11-.08,2.25,0,3.35.08,1.17.4,1.95.48,2.87.24,2.74.35,13.78.96,15.31-6.46-2.01-12.34-3.21-19.14-3.35-.05-.42.12-.44.48-.48,3.12-.37,6.77.18,9.81.96,1.09-.72.24-9.66-.48-10.05-.34-.18-7.26.34-7.66.48-2.47.9.03,3.52-2.15,3.83-.15-2.85.11-5.76,0-8.61,2.81.48,6.05-.69,8.85.48l.24-4.79c2.86-.04,5.75.06,8.61,0Z"/>
              <path class="cls-10" d="M219.01,77.52c.19-1.65-.39-3.16-.48-4.79,2.18-.3-.32-2.93,2.15-3.83.39-.14,7.32-.66,7.66-.48.72.39,1.57,9.33.48,10.05-3.04-.77-6.69-1.32-9.81-.96Z"/>
              <path class="cls-10" d="M306.58,60.77c.19.73.32,3.5.48,4.79.11.93-.08,1.94,0,2.87,2.79,32.17,1.91,65.81,1.91,98.1v.96c-5.42-.17-10.85-.31-16.27-.48-7.8-.24-15.67-.3-23.45-.96-1.85-3.98-3.51-7.95-5.26-11.96-.92-18.88-4.68-38.12-5.74-57.18-.54-9.7-.45-19.47-.48-29.19l13.88-.72c.03.47-.03.96,0,1.44,1.82,26.44,2.64,52.93,3.35,79.44.16,5.81-.12,11.65,0,17.47,1.74.06,3.57.54,5.26.72,2.1.22,4.53-.1,6.7,0,2.27.1,3.98-.45,5.74-.48.72-.01,3.62,1.49,4.55.96l.24-.96c1.89,1.58,7.33.59,9.57-.24-1.96-.36-3.45-.12-4.79-1.91-3.14-4.22-5.9-55.82-6.22-64.6-.39-10.51-.4-21.06-.48-31.58l10.29.24c1.36-2.76-2.75-6.33.72-6.7Z"/>
              <path class="cls-12" d="M271.17,62.69c.02.31-.02.64,0,.96.08,1.28.4,2.17.48,3.35l-13.88.72c.03,9.72-.06,19.49.48,29.19,1.06,19.06,4.83,38.31,5.74,57.18-1.55-3.53-3.29-6.92-4.79-10.53l-6.7-76.57c3.04-.8.25-5.09,2.15-5.74.79-.27,14.9.52,16.51,1.44Z"/>
              <path class="cls-31" d="M248.2,66.52c1,.04,2.79.88,4.31.48l6.7,76.57c-2.37-5.72-4.51-11.43-6.7-17.23l-3.83-57.66-3.83.24v-2.39c1.1.09,2.25-.04,3.35,0Z"/>
              <path class="cls-29" d="M252.51,126.33c-2.52-6.68-5.44-13.29-7.66-20.1.58-.76.68-1.02.96-1.91,1.8-5.84-.96-27.6-.96-35.41l3.83-.24,3.83,57.66Z"/>
              <path class="cls-14" d="M244.85,66.52v1.91c-.74.16-2.68-.24-3.11,0-1.51.82,1.33,16.43-.24,19.14-.59-1.51-.85-3.78-1.44-5.02-.48-1.03-1.86-.63-1.91-.72-.02-.03-.22.18-.48-.48-.61-1.53-.72-12.57-.96-15.31,2.75-.34,5.44.26,8.14.48Z"/>
              <path class="cls-22" d="M241.5,87.57c2.12,5.46,3.14,11.05,4.31,16.75-.27.89-.37,1.16-.96,1.91-2.6-8.01-4.84-16.19-6.7-24.41.05.09,1.43-.31,1.91.72.58,1.24.85,3.51,1.44,5.02Z"/>
              <path class="cls-27" d="M271.17,58.86c.07,1.25-.06,2.61,0,3.83-1.61-.91-15.72-1.71-16.51-1.44-1.9.65.88,4.94-2.15,5.74-1.51.4-3.31-.44-4.31-.48,2.85-.32,4.12,1.27,4.79-1.91.37-1.78-.51-3.52-.48-5.26,6.21-.13,12.44-.35,18.66-.48Z"/>
              <path class="cls-12" d="M387.46,69.87c3.61.41,7.39,1.38,11.01,1.91-1.05.32-2.01,1.88-2.15,1.91-2.08.53-15.2-.36-16.03,1.2,2.71,25.23,1.33,54.65,8.61,78.96,1.18,3.94,5.27,10.3,5.74,13.88.47,3.5-.34,7.87,0,11.48l-7.66-.24c-.26-1.05.59-3.73-.72-4.31-.77-.34-9.41.04-11.25,0,.11-1.35.61-2.4.48-3.83-.08-.87-.41-.99-.48-1.44-5.35-33.11-10.1-64.42-11.96-98.1-.04-.81.03-1.78,0-2.39,7.98.49,16.46.05,24.41.96Z"/>
              <path class="cls-32" d="M375.97,65.08l11.48,4.79c-7.95-.9-16.42-.47-24.41-.96-.06-1.11-.41-1.88-.48-2.39-.12-.93.08-1.94,0-2.87.19.02-.29-1.36,3.11-.96,3.34.4,6.87,2.01,10.29,2.39Z"/>
              <path class="cls-14" d="M314.24,68.91l1.91,98.1c-2.32-.01-5,.37-7.18-.48,0-32.29.87-65.93-1.91-98.1,2.46-.29,4.77.18,7.18.48Z"/>
              <path class="cls-12" d="M306.58,60.77c-3.47.37.64,3.94-.72,6.7l-10.29-.24c.08,10.52.09,21.08.48,31.58.32,8.79,3.08,60.39,6.22,64.6,1.33,1.79,2.83,1.56,4.79,1.91-2.25.83-7.68,1.82-9.57.24-4.1-32.26-5.73-64.82-6.22-97.38-.98-1.68-3.34-.18-3.83-.24-1.21-.15-3.39-.37-2.87-1.91.98.03,6.4.19,6.7-.24.41-.58-.5-6.42.24-6.94.69-.49,12.39.37,14.36,0,.13.7.57,1.38.72,1.91Z"/>
              <path class="cls-29" d="M284.57,66.04c-.52,1.55,1.66,1.76,2.87,1.91l5.26,97.62c-1.76.03-3.47.58-5.74.48l-2.87-97.86c-.31-.43-2.64-.25-3.35-.24-.54,0-3.32.94-3.83.96-1,.04-3.78-1.01-5.26-.48-.03-.47.03-.96,0-1.44-.08-1.18-.4-2.07-.48-3.35,1.04,1.02-.22,1.09,1.67,1.44,2.04.37,9.39.88,11.72.96Z"/>
              <path class="cls-14" d="M286.96,166.05c-2.17-.1-4.6.22-6.7,0l.48-98.1c.71,0,3.04-.19,3.35.24l2.87,97.86Z"/>
              <path class="cls-15" d="M280.26,166.05c-1.69-.18-3.52-.66-5.26-.72-.12-5.82.16-11.66,0-17.47l1.91-78.96c.51-.02,3.28-.95,3.83-.96l-.48,98.1Z"/>
              <path class="cls-29" d="M317.11,66.52c-1.67,2.28,2.31.99,2.87,2.15,1.28,24.88,2.17,49.8,3.83,74.65.18,2.76,3.04,23.74,1.67,24.17-1-.8-2.84-.52-4.07-.48l-4.31-97.86c-.89-1.6-2.73-.22-2.87-.24-2.41-.3-4.72-.77-7.18-.48-.08-.94.11-1.94,0-2.87,3.01,0,7.2,1.01,10.05.96Z"/>
              <path class="cls-31" d="M319.5,66.04c-.84,3.52,3.51.81,4.31,2.63.81,33.03,2.91,66.04,6.7,98.82v.48c-7.18-.2-14.36-.25-21.53-.48v-.96c2.18.85,4.86.46,7.18.48,1.74.01,3.52.06,5.26,0,1.23-.04,3.06-.32,4.07.48,1.36-.42-1.49-21.4-1.67-24.17-1.66-24.85-2.55-49.77-3.83-74.65-.56-1.17-4.54.12-2.87-2.15.12,0,1.34-.37,2.39-.48Z"/>
              <path class="cls-31" d="M297.49,165.57l-.24.96c-.93.54-3.82-.97-4.55-.96l-5.26-97.62c.49.06,2.85-1.44,3.83.24.49,32.56,2.12,65.12,6.22,97.38Z"/>
              <path class="cls-15" d="M276.91,68.91l-1.91,78.96c-.71-26.5-1.53-53-3.35-79.44,1.49-.53,4.26.52,5.26.48Z"/>
              <path class="cls-14" d="M244.85,68.43v.48c0,7.81,2.76,29.57.96,35.41-1.17-5.7-2.19-11.29-4.31-16.75,1.57-2.71-1.27-18.32.24-19.14.43-.24,2.37.16,3.11,0Z"/>
              <path class="cls-12" d="M342.47,60.3c-.44,1.26.41,2.99.48,3.83.06.69-.05,2.39,0,3.35.03.63-.03,1.28,0,1.91l-16.27,1.2c1.54,19.91,2.25,39.91,3.83,59.82.34,4.27,4.76,36.2,3.11,37.09-.44.24-2.37-.16-3.11,0-3.79-32.78-5.89-65.79-6.7-98.82-.8-1.82-5.15.89-4.31-2.63,1.14-.12,4.3.49,4.79-.72l-.48-5.98c6.22.49,12.42.71,18.66.96Z"/>
              <path class="cls-31" d="M363.05,71.3c1.86,33.68,6.62,64.99,11.96,98.1-5.86-.85-11.81-.4-17.71-.48-4.48-.06-8.96-.37-13.4-.48,1.49.25.5-1.03,1.44-1.44,2.56-1.1,13.63-.39,17.23-.48,2.72-.07,5.87,1.9,6.22-1.67.48-4.92-4.42-26.16-5.26-33.02-2.51-20.26-3.65-40.81-6.22-61.01l5.74.48Z"/>
              <path class="cls-19" d="M363.05,68.91c.03.61-.04,1.58,0,2.39l-5.74-.48c-.08-.64-.71-2.14-.96-2.87,1.98.13,4.72.84,6.7.96Z"/>
              <path class="cls-29" d="M321.42,167.01c-1.74.06-3.52.01-5.26,0l-1.91-98.1c.14.02,1.98-1.36,2.87.24l4.31,97.86Z"/>
              <path class="cls-10" d="M342.95,69.39c.02.31-.02.64,0,.96,1.5,31.38.66,62.9,1.91,94.27.04.93-.15,1.55.48,2.39-.94.4.06,1.69-1.44,1.44-4.47-.11-8.96-.36-13.4-.48v-.48c.74-.16,2.67.24,3.11,0,1.65-.88-2.77-32.82-3.11-37.09-1.58-19.91-2.29-39.9-3.83-59.82l16.27-1.2Z"/>
              <path class="cls-20" d="M356.35,67.95c.25.73.88,2.23.96,2.87,2.57,20.2,3.71,40.75,6.22,61.01.85,6.86,5.75,28.1,5.26,33.02-.35,3.58-3.5,1.61-6.22,1.67l-10.05-95.47c-1.69-1.53-3.46-.27-4.79-.24-1.65.04-3.2.1-4.79-.48-.02-.32.02-.64,0-.96-.03-.63.03-1.28,0-1.91,4.44.07,8.99.2,13.4.48Z"/>
              <path class="cls-14" d="M362.57,166.53c-3.6.09-14.67-.62-17.23.48-.63-.84-.44-1.46-.48-2.39,2.98,1.35,6.3,1.15,9.57.72l-6.7-94.51c1.32-.03,3.1-1.29,4.79.24l10.05,95.47Z"/>
              <path class="cls-15" d="M347.74,70.82l6.7,94.51c-3.27.43-6.59.63-9.57-.72-1.26-31.37-.41-62.89-1.91-94.27,1.58.58,3.14.51,4.79.48Z"/>
            </g>
          </g>
        </g>
      </g>
      <path class="cls-21" d="M166.11,286.64c-18.78-38.92-30.13-81.09-37.41-123.69-4.38-25.67-7.9-53-24.16-73.35-6.28,32.43-14.39,142.52-20.67,174.95-8.59-19.04-14.33-39.36-16.96-60.09-11.62,6.5-22.36,14.55-31.85,23.88,1.06-.3,2.12-.61,3.18-.91"/>
      <path class="cls-21" d="M106.7,88.89c18.15-2.04,36.3-4.07,54.46-6.11,16.61-1.86,33.24-3.73,49.95-3.98,9.62-.15,19.39.26,28.56,3.15-1.43.45-2.86.89-4.29,1.34.93.03,1.85.05,2.78.08,6.27,28.07,16.99,54.96,29.23,80.98,13.92,29.6,30.33,58.87,54.87,80.49-7.96,3.54-14.61,9.4-21.78,14.35-21.82,15.05-48.29,21.43-74.08,27.52-15.38,3.63-30.77,7.26-46.23,10.56-7.42,1.58-15.09,3.1-22.55,1.71,4.82-1.52,9.93-2.1,14.96-1.7"/>
      <path class="cls-21" d="M86.66,261.25c-1.17.45-2.17,1.33-2.76,2.44,3.1.42,6.23-.3,9.24-1.14,15.1-4.21,29.28-11.66,44.71-14.44.5,1.92-.58,4.13-2.4,4.91-1.83.78-4.17.04-5.21-1.65"/>
      <path class="cls-21" d="M66.09,203.75c12.27,2.27,24.67-3.3,37.14-2.96-1.09.45-2.25-1.22-1.45-2.09"/>
      <path class="cls-21" d="M36.6,228.76c9.65-1.1,19.17-3.42,28.24-6.9"/>
      <path class="cls-21" d="M186.45,102.65l-4.77,1.22c12.13-3.09,24.69-4.53,37.2-4.26-1.21.21-2.42.43-3.63.64"/>
      <path class="cls-21" d="M181.5,115.56c15.2-3.56,30.41-7.13,45.61-10.69-.43.92-.86,1.84-1.29,2.76"/>
      <path class="cls-21" d="M186.47,128.77c13.82-4.06,28.1-6.6,42.48-7.54-.84.33-1.67.65-2.51.98"/>
      <path class="cls-21" d="M143.95,161.68c22.95-4.8,45.9-9.6,68.85-14.39,11.66-2.44,23.68-5.03,33.4-11.91-1.02-.85-2.65-.85-3.68,0"/>
      <path class="cls-21" d="M146.75,178.55c29.29-13.21,63.45-13.28,91.92-28.18,1.39,1.05,3.35,1.29,4.95.6"/>
      <path class="cls-21" d="M153.15,196.72c26.69-6.43,53.38-12.85,80.07-19.28,6.06-1.46,12.16-2.93,17.9-5.37"/>
      <path class="cls-21" d="M153.3,214.17c28.02-12.45,57.88-20.73,88.31-24.5,1.81-.22,3.69-.46,5.23-1.43,1.54-.97,2.63-2.93,2.01-4.64"/>
      <path class="cls-21" d="M244.34,251.2c8.39-5.63,17.89-9.59,27.79-11.59-3.57-12.1-7.26-24.46-14.57-34.74-10.16,5.41-21.26,9.07-32.65,10.76,2.46.34,4.28,1,5.8-.21.94,3.15,13.82,35.64,13.62,35.77Z"/>
      <path class="cls-21" d="M253.51,239.89c4.54-15.32,9.11-30.79,10.19-46.73-4.83,12.14-9.02,24.53-12.54,37.11-4.47-.9-8.76-2.69-12.54-5.24,1.05.71,2.5.17,2.92-.61,3.85,5.25,7.56,10.6,11.97,15.46Z"/>
      <path class="cls-21" d="M163.62,105.15c-2.1-3.91-6.29-6.61-10.72-6.91-1.42-.09-2.89.05-4.15.7-1.61.82-2.71,2.36-3.73,3.85-3.66,5.36-7.15,11.41-6.68,17.89.33,4.54,2.63,8.75,5.61,12.2,2.07,2.39,4.55,4.52,7.52,5.6,6.17,2.25,13.05-.39,18.6-3.91,1.35-.85,2.71-1.81,3.49-3.2.78-1.39.82-3.33-.33-4.43"/>
      <path class="cls-21" d="M131.03,119.95c9.58-2.49,19.3-4.43,29.1-5.82-.15,1.08-.65,2.11-1.39,2.91"/>
      <path class="cls-21" d="M134.29,129.69c4.63-1.54,9.25-3.08,13.88-4.61.36-.12.76-.27.91-.62s-.22-.85-.55-.66"/>
      <path class="cls-21" d="M107.14,95.74c.52,1.99,1.46,3.84,2.35,5.69,21.46,44.31,22.39,95.41,33.92,143.28,2.7,11.21,5.99,22.27,9.28,33.32.52,1.75,1.06,3.53,2.14,5.01,1.11,1.51,2.77,2.62,4.6,3.05"/>
      <path class="cls-21" d="M163.8,296.07c22.98,3.08,46.26-.68,69.22-3.95,67.6-9.63,136.02-15.09,204.19-11.19-47.12,1.43-94.13-4.27-140.92-9.95,29.03,7.29,59.59,8.4,89.07,3.23-29.78-3.32-59.61-6.64-88.96-12.67,8.17-3.64,17.94-3.49,26,.39"/>
      <path class="cls-21" d="M363.05,61.52c2.6.24,5.73.27,7.19-1.83,2.1-3.02-1.34-6.72-4.42-8.8-12.54-8.48-25.25-16.71-38.13-24.69-15.51-9.61-31.5-18.96-49.16-23.97-1.03-.29-2.1-.57-3.15-.38-1.37.24-2.46,1.22-3.46,2.16-10.92,10.27-21.4,20.99-32.35,31.23-4.93,4.61-25.25,16.15-15.09,22.24,9.91,5.94,26.39,1.96,37.1,1.5,16.27-.7,32.57-.86,48.85-.5,17.57.39,35.12,1.4,52.61,3.03Z"/>
      <path class="cls-21" d="M218.19,58.97c19.59-16.73,39.19-33.46,58.78-50.2-1.37.21-.4,2.27.77,2.98,17.16,10.36,36.45,16.88,54.46,25.8,9.99,4.95,19.6,10.64,28.7,17-43.33,1.79-86.69,2.82-130.06,3.09-9.52.06-19.16.07-28.41-2.12,8.9-2.95,19.28-1.26,26.7,4.35"/>
      <path class="cls-21" d="M236.96,62.52c.61,14.32.78,28.66.52,42.99.01-2.01.03-4.01.04-6.02"/>
      <path class="cls-21" d="M270.84,58.94c2.49,32.98,4.04,66.03,4.64,99.09.39-1.28.79-2.56,1.18-3.83"/>
      <path class="cls-21" d="M290.98,59.98c1.25,34.13,3.04,68.24,5.36,102.31.17-.9-.18-1.87-.89-2.47"/>
      <path class="cls-21" d="M305.15,58c4.61,35.23,5.82,70.88,3.62,106.33.41-1.65.82-3.3,1.23-4.96"/>
      <path class="cls-21" d="M324.2,58.45c-1.79,39.77,1.24,79.75,8.99,118.84-.66-.85-1.32-1.7-1.99-2.55"/>
      <path class="cls-21" d="M341.85,59.39c1.2,5.45,1.28,11.07,1.36,16.64.43,29.74.86,59.47,1.29,89.21.05-1.65.11-3.3.16-4.96"/>
      <path class="cls-21" d="M361.74,61.48c2.07,37.23,6.37,74.34,12.87,111.09.25,1.41-1.05,3.6-1.94,2.46"/>
      <path class="cls-21" d="M291.32,163.84c-2.82.93-5.57,2.09-8.19,3.47,8.66-.23,17.31-.64,25.95-1.21-3.1-.4-6.59-.5-8.97,1.46,15.52,3.64,29.38,2.67,44.92.96,5.84-.64,11.64-1.72,17.52-1.97,3.06-.13,6.29-.24,9.3.41,1.23.27,5.04,2.41,5.93,2.27-6.17.96-12.8,2.41-19.1,2-8.78-.57-17.54-4.64-26.32-1.66"/>
      <path class="cls-21" d="M289.62,174.09c-1.55-1.18-4.17-.55-4.97,1.19,31.24-1.84,62.75-3.67,93.72.73,2.82.4,5.62.85,8.43,1.3.58.09,1.27.29,1.39.85s-1.08.75-.92.2"/>
      <path class="cls-21" d="M283.77,180.62c.28-.47-.91-.4-.79.12s.82.65,1.37.68c29.74,1.29,59.58,2.58,89.25.17,6.9-.56,13.85-1.32,20.72-.53-.78,3.13-.97,6.41-.54,9.6"/>
      <path class="cls-21" d="M287.12,4.17c-.75-.96,1.33-1.55,2.48-1.1,37.34,14.43,72.91,33.19,105.7,55.74,5.21,3.58,10.53,7.34,16.75,8.74-14.7.38-29.43-.55-43.95-2.78,2.07-.4,4.3.06,6.02,1.25-1.06.36-2.13.73-3.19,1.09,1.07.24,2.28-.17,2.95-1.02"/>
      <path class="cls-21" d="M400.39,71.86c.56.37.56-1.05-.1-.92s-.85.95-.89,1.61c-.71,11.17-1.42,22.33-2.13,33.5-1.14,17.96-2.29,35.93-2.25,53.92.02,8.07.29,16.24,2.49,24.02-.33-1.66-1.94-3-3.69-3.07,7.47-.81,15.06-.61,22.48.58-9.81,3.56-19.31,7.95-28.35,13.08,3.33-1.56,5.73-4.85,6.15-8.42"/>
      <path class="cls-21" d="M229.13,65.6c-1.47-.2-3.02.71-3.56,2.09,9.29-.63,18.59-1.26,27.88-1.88-.98.23-2.06-.68-1.99-1.69.88.28,1.03,1.44,1.02,2.36-.13,16.73.93,33.47,3.17,50.04-.15-.93-.3-1.86-.45-2.79"/>
      <path class="cls-21" d="M405.46,60.51l.06-1.44c-.79,5.5-1.59,11-2.38,16.49.64-.35,1.09-1.02,1.17-1.74"/>
      <path class="cls-21" d="M224.2,38.95c.83-.53,2-.46,2.75.17-8.1,8.86-16.4,17.54-24.89,26.03,9.09.66,18.24.43,27.28-.7-1.97,3.21-4.96,5.79-8.43,7.26.9-1.74,1.34-3.71,1.26-5.67-.02-.43-.09-.92-.45-1.17-.91-.62-1.64,1.01-1.57,2.1.33,4.64.65,9.29.98,13.93.05-1.77.76-3.51,1.96-4.82"/>
      <path class="cls-21" d="M88.52,77.15c.07,1.34,1.84,2.05,3.08,1.52s1.97-1.8,2.49-3.04c1.68-4.05,1.97-8.53,2.23-12.91.14,3.85.29,7.71.43,11.56.03.88.08,1.81.54,2.56,1.3,2.13,4.53,1.38,6.81.37-2.53-.22-5.13.99-6.59,3.06s-1.74,4.92-.7,7.23c-1.34-2.16-1.62-4.82-2.83-7.06s-4.15-3.99-6.24-2.55c.66-.63,1.07-1.52,1.1-2.44"/>
      <path class="cls-21" d="M113.75,46.64c-1.26,3.53-3.66,6.83-7.11,8.31,2.22-.21,4.62-.35,6.5.84,2.05,1.3,2.94,3.86,3.17,6.27s-.04,4.87.38,7.26c-.68-3.46-.51-7.24,1.31-10.26,1.82-3.02,5.57-5.02,8.97-4.08-4.51-.36-8.77-3.03-11.06-6.92-2.03-3.47-2.75-8.49-.82-12.03.65,3.32-.19,7.38-1.35,10.6Z"/>
      <path class="cls-21" d="M287.23,196.85c-1.16.3-2.46-.75-2.42-1.95,41.41-3.69,83.26-2.34,124.34,4.03-1.3,1.42-3.64,1.76-5.29.76-1.15-2.87.07-6.48,2.71-8.07-8.22,9.54-18.09,17.66-29.03,23.89.72-.39,1.44-.78,2.15-1.16-24.67,1.91-49.24,5.24-73.54,9.96,24.18,12.8,53.34,15.67,75.18,32.14-23.24,3.23-46.49,6.46-69.73,9.69,3.19,1.13,6.38,2.27,9.57,3.4"/>
      <path class="cls-21" d="M153.81,295.88c-11.84.87-23.68,1.75-35.51,2.62-11.04.81-22.12,1.63-33.16.92-25.59-1.65-50.19-11.44-75.81-12.61,22.86-6.9,46.3-11.86,69.99-14.81-25.48-10.28-49.52-27.76-77-27.25,9.86-4.66,20.56-7.54,31.43-8.47-1.59-.14-2.09-2.79-.66-3.5"/>
    </g>
  </g>
</svg>