<?xml version="1.0" encoding="UTF-8"?>
<svg id="Ebene_2" data-name="Ebene 2" xmlns="http://www.w3.org/2000/svg" xmlns:xlink="http://www.w3.org/1999/xlink" viewBox="0 0 507.99 302.91">
  <defs>
    <style>
      .cls-1 {
        fill: #579f00;
      }

      .cls-2 {
        fill: #b2511c;
      }

      .cls-3 {
        fill: #4f6600;
      }

      .cls-4 {
        fill: #6eb800;
      }

      .cls-5 {
        fill: #558e00;
      }

      .cls-6 {
        fill: #21e745;
      }

      .cls-7 {
        fill: #ce8126;
      }

      .cls-8 {
        fill: #317500;
      }

      .cls-9 {
        fill: #fcf3b5;
      }

      .cls-10 {
        fill: #64e400;
      }

      .cls-11 {
        fill: #296800;
      }

      .cls-12 {
        fill: #d8e4e7;
      }

      .cls-13 {
        fill: #57cc00;
      }

      .cls-14 {
        fill: #bfd0d6;
      }

      .cls-15 {
        fill: #299000;
      }

      .cls-16 {
        fill: #369600;
      }

      .cls-17 {
        fill: #77ac00;
      }

      .cls-18 {
        fill: #ffde00;
      }

      .cls-19 {
        fill: #29a710;
      }

      .cls-20 {
        fill: #f8e077;
      }

      .cls-21 {
        fill: #68d900;
      }

      .cls-22 {
        fill: #129c2a;
      }

      .cls-23 {
        fill: #fff000;
      }

      .cls-24 {
        fill: #6aff00;
      }

      .cls-25 {
        fill: #46b223;
      }

      .cls-26 {
        fill: #ffff7a;
      }

      .cls-27 {
        fill: #298000;
      }

      .cls-28 {
        fill: #7ac800;
      }

      .cls-29 {
        fill: #43c932;
      }

      .cls-30 {
        fill: #437b00;
      }

      .cls-31 {
        fill: #368100;
      }

      .cls-32 {
        fill: #ffff04;
      }

      .cls-33 {
        fill: #85bb00;
      }

      .cls-34 {
        fill: #a6b4bc;
      }

      .cls-35 {
        fill: #56cd00;
      }

      .cls-36 {
        fill: #d4ad41;
      }

      .cls-37 {
        fill: #6b9600;
      }

      .cls-38 {
        fill: #c2c4c7;
      }

      .cls-39 {
        fill: #88f508;
      }

      .cls-40 {
        fill: #157200;
      }

      .cls-41 {
        fill: #6bf600;
      }

      .cls-42 {
        fill: #ebe092;
      }

      .cls-43 {
        fill: #fff;
      }

      .cls-44 {
        fill: #51be00;
      }

      .cls-45 {
        fill: #e8a621;
      }

      .cls-46 {
        fill: #73ff82;
      }

      .cls-47 {
        fill: #fffff2;
      }

      .cls-48 {
        fill: #5bd645;
      }

      .cls-49 {
        fill: #9cff75;
      }

      .cls-50 {
        fill: #5ce54c;
      }

      .cls-51 {
        fill: #63b400;
      }

      .cls-52 {
        fill: #5bff00;
      }

      .cls-53 {
        fill: #1ace3d;
      }

      .cls-54 {
        fill: #b4a390;
      }

      .cls-55 {
        fill: none;
        stroke: #000;
        stroke-miterlimit: 10;
      }

      .cls-56 {
        fill: #297d00;
      }

      .cls-57 {
        fill: #37980a;
      }

      .cls-58 {
        fill: #3bd138;
      }

      .cls-59 {
        fill: url(#Unbenannter_Verlauf_118);
      }

      .cls-60 {
        fill: url(#Unbenannter_Verlauf_117);
      }

      .cls-61 {
        fill: url(#Unbenannter_Verlauf_119);
      }

      .cls-62 {
        fill: #72ff1d;
      }

      .cls-63 {
        fill: #c37227;
      }

      .cls-64 {
        fill: #e6e0cd;
      }

      .cls-65 {
        fill: #3ba41d;
      }

      .cls-66 {
        fill: #87cd00;
      }

      .cls-67 {
        fill: #90ea00;
      }

      .cls-68 {
        fill: #0cbd1e;
      }

      .cls-69 {
        fill: #eab829;
      }

      .cls-70 {
        fill: #4cf16a;
      }

      .cls-71 {
        fill: #29e400;
      }

      .cls-72 {
        fill: #ccbf68;
      }

      .cls-73 {
        fill: #51c73a;
      }

      .cls-74 {
        fill: #95f500;
      }

      .cls-75 {
        fill: #007507;
      }

      .cls-76 {
        fill: #499900;
      }

      .cls-77 {
        fill: #a19583;
      }

      .cls-78 {
        fill: #296300;
      }

      .cls-79 {
        fill: #47ff1b;
      }

      .cls-80 {
        fill: #f3d53f;
      }

      .cls-81 {
        fill: #85fe65;
      }

      .cls-82 {
        fill: #7fd500;
      }

      .cls-83 {
        fill: #297c00;
      }

      .cls-84 {
        fill: #35ad26;
      }

      .cls-85 {
        fill: #75f95d;
      }

      .cls-86 {
        fill: #6c7300;
      }

      .cls-87 {
        fill: #005100;
      }

      .cls-88 {
        fill: #72ff36;
      }

      .cls-89 {
        fill: #935a25;
      }

      .cls-90 {
        fill: #e2c065;
      }

      .cls-91 {
        fill: #da9739;
      }
    </style>
    <linearGradient id="Unbenannter_Verlauf_119" data-name="Unbenannter Verlauf 119" x1="236.28" y1="36.04" x2="169.73" y2="123.2" gradientUnits="userSpaceOnUse">
      <stop offset="0" stop-color="#67dd00"/>
      <stop offset="1" stop-color="#4f8200"/>
    </linearGradient>
    <linearGradient id="Unbenannter_Verlauf_118" data-name="Unbenannter Verlauf 118" x1="283.75" y1="27.46" x2="222.4" y2="98.5" gradientUnits="userSpaceOnUse">
      <stop offset="0" stop-color="#6cfa00"/>
      <stop offset="1" stop-color="#5fba00"/>
    </linearGradient>
    <linearGradient id="Unbenannter_Verlauf_117" data-name="Unbenannter Verlauf 117" x1="163.3" y1="112.34" x2="148.31" y2="120.71" gradientUnits="userSpaceOnUse">
      <stop offset="0" stop-color="#54b300"/>
      <stop offset="1" stop-color="#4d9900"/>
    </linearGradient>
  </defs>
  <g id="versicherungen">
    <g>
      <path class="cls-12" d="M115.65,252.72c-19.92.42-39.84.84-59.75,1.27-2.4.05-4.95.15-6.95,1.65-1.99,1.49-3,4.93-1.37,6.9,1.19,1.44,3.17,1.52,4.92,1.49,16.85-.33,33.68-1.97,50.33-4.91,10.96-1.94,24.66-3.19,30.64,7.22-22.32-1.21-44.9,4.37-64.67,15.96,45.46-1.02,90.59,9.36,136.05,9.66,23.44.16,46.82-2.36,70.21-4.15,31.47-2.41,63.16-3.5,94.5.54-24,.64-48.01,1.28-72.01,1.92,54.37,6.38,109.23,4.3,163.85,1.59.47-.02.94-.05,1.41-.07,2.16.04,4.33-.3,6.4-1-13.55-9.97-29.13-16.49-45.22-18.92,2.5-2.65,4.32-6.08,5.21-9.79-7.41.22-14.83.45-22.24.67-15.33.46-30.67.93-45.99.06-21.24-1.21-42.42-4.98-63.67-3.82-17.62.96-34.94,5.29-52.15,9.6,2.5-1.62,5.78-1.63,8.29-.03"/>
      <g id="Generatives_Objekt" data-name="Generatives Objekt">
        <path class="cls-26" d="M120.78,24.66c2.33,5.81,1.93,15.61,1.84,22-.05,3.45-.75,5.88-.92,8.7-23.79-.85-38.32-16.48-45.03-40.93,13.22-11.51,37.02-7.46,44.11,10.23Z"/>
        <path class="cls-12" d="M182.81,52.29l3.68.51c1.03.4-.85,1.45-.92,1.53-21.18,4.26-42.76-.65-62.95-7.67.09-6.39.49-16.19-1.84-22,2.67-1.09.47-12.83,2.53-13.3,3.39,4.18,5.31,9.3,8.96,14.07,14.44,18.86,29.07,24.51,50.55,26.86Z"/>
        <path class="cls-32" d="M121.7,55.36c-.14,2.31-.27,4.35-.46,6.65l-34-1.53c-1.14-1.1-2.13-1.77-3.22-3.07-8.43-10.08-13.13-23.45-11.95-37.35,1.52-2.25,2.57-3.86,4.6-5.63,6.72,24.45,21.24,40.09,45.03,40.93Z"/>
        <path class="cls-18" d="M84.02,57.41c1.09,1.3,2.08,1.97,3.22,3.07,9.67,9.32,21.93,14.24,34.69,14.84l-1.15,2.56c-22.3,14.69-53.35.55-56.06-29.16l19.3,8.7Z"/>
        <path class="cls-14" d="M185.57,54.34c-7.98,10.48-42.51,10.74-54.22,11.26-3.28.14-6.59-.11-9.88,0-1.22-.99-.34-2.19-.23-3.58.19-2.3.32-4.34.46-6.65.17-2.82.87-5.24.92-8.7,20.19,7.02,41.77,11.94,62.95,7.67Z"/>
        <path class="cls-12" d="M414.4,31.83c8.11-3.48,11.54-14.38,13.79-23.02,1.23-.04,2.16-.08,3.22.77-4.32,12.62,4.71,20.71,15.16,23.02-4.08,5.81-23.25,10.4-28.03,6.65-.76-.6-3.29-6.14-4.14-7.42Z"/>
        <path class="cls-12" d="M417.16,54.34c-11.59.48-9.2-.52-18.61-3.07-2.28-.62-7.77-.6-10.34-.51-1.38-.96-3.08-1.6-4.14-3.07.91.02,8.07-1.69,8.5-2.05,1.17-.97.21-5.47.23-6.65.09-5.86.26-12.35,0-18.16-.08-1.86-3.86-13.28,1.61-9.98,3.24,1.95,1.9,9.06,2.53,12.02,2.88,13.55,7.84,26.12,20.22,31.47Z"/>
        <path class="cls-18" d="M121.24,62.01c-.11,1.39-.99,2.59.23,3.58,3.29-.11,6.6.14,9.88,0,.9,1.27-1.63,4.06-2.3,4.86-2.17,2.61-5.52,5.61-8.27,7.42l1.15-2.56c-12.76-.6-25.02-5.52-34.69-14.84l34,1.53Z"/>
        <path class="cls-43" d="M175.46,38.99c-7.57-6.81-15.48-11.31-23.89-16.63,1.54-7.86-4.63-26.9,7.12-15.6,10.03,9.64,6.21,15,11.26,24.81,1.02,1.99,4.02,5.11,5.51,7.42Z"/>
        <path class="cls-23" d="M84.02,57.41l-19.3-8.7c-1.01-11.07,1.43-19.89,7.35-28.65-1.18,13.9,3.52,27.27,11.95,37.35Z"/>
        <path class="cls-43" d="M428.18,8.8c-2.25,8.64-5.67,19.54-13.79,23.02-2.56-3.87-4.8-8-7.81-11.51.08-2.45,18.71-11.41,21.6-11.51Z"/>
        <path class="cls-43" d="M371.67,32.85c-2.21-3.6-1.41-4.7-3.22-8.19,1.13-7.45,9.11-7.02,13.56-10.74,2.56-.62,1.24,1.84,1.61,2.3,1.11,1.36,6.36,4.41,3.45,6.91-2.43,2.08-5.21-.5-5.51-.51-1.98-.06-9.02.03-10.11,1.02-3.09,2.82.24,5.84.23,9.21Z"/>
        <path class="cls-12" d="M371.67,32.85c3.98,6.48,13.41,9.62,20.22,9.72-.14.28.25,1.25-.23,1.53-1.35.78-11.64-1.61-14.01-1.02-3.03-2.31-5.08-1.5-6.66-2.56-2.23-1.5-2.97-12.98-2.53-15.86,1.81,3.49,1.01,4.58,3.22,8.19Z"/>
        <path class="cls-14" d="M417.16,54.34c.88-.04,1.09-.6,2.07,0-9.14,4.3-22.72,2.17-31.02-3.58,2.57-.09,8.06-.11,10.34.51,9.41,2.55,7.02,3.55,18.61,3.07Z"/>
        <path class="cls-43" d="M377.87,25.69c1.97-1.61,2.24,3.33,2.76,3.58,1.94.94,1.5-2.65,1.61-2.81.38-.57,5.94-.45,6.2-.26.23.17.64,4.53.69,5.37-1.8-1.3-2.61-4.56-5.28-3.84.4,4.45-2.41,4.13-5.05,6.65-.12-1.31-2.96-5.06-2.99-5.37-.16-2.15,1.11-.8,1.84-1.53.18-.18-.28-1.37.23-1.79Z"/>
        <path class="cls-34" d="M384.07,47.69c-4.44-.12-4.14-2.85-6.43-4.6,2.38-.58,12.67,1.81,14.01,1.02.48-.28.09-1.25.23-1.53.37-.71.61-2.66.92-3.58-.02,1.18.94,5.68-.23,6.65-.43.36-7.59,2.07-8.5,2.05Z"/>
        <path class="cls-43" d="M175.46,38.99c4.07,3.67,7.66,6.55,10.34,11.77-5.83,1.39-4.47-4.1-6.2-6.91-.92-1.49-2.72-2.68-4.14-4.86Z"/>
        <path class="cls-43" d="M186.49,52.8l-3.68-.51c1.09.12,2.9-.49,3.68.51Z"/>
        <g>
          <path class="cls-38" d="M493.89,259.5c-19.35.42-38.74-.97-58.13-.51-3.59.09-9.51,1.27-12.87,1.02-.1,0-.73-.71-.69-1.02v-.51c.83-1.3.83-.97,1.84-1.53,14.81-.36,29.51-.79,44.34,0,.08,0,1.3,1.02,1.38,1.02,7.82.45,16.7-.38,24.12,1.53Z"/>
          <path class="cls-12" d="M493.89,259.5c-7.43-1.92-16.3-1.08-24.12-1.53-.08,0-1.3-1.02-1.38-1.02-14.84-.79-29.53-.36-44.34,0,5.1-2.85,25.64-2.16,32.39-2.05,14.86.26,29.97,1.46,44.57,4.09-2.09.97-4.86.46-7.12.51Z"/>
          <g>
            <path class="cls-43" d="M104.7,224.2l.92,10.49c.15.41,3,1.09,3.68,1.28,1.02.29,3.11.81,4.14.51,2.22,2.62,6.51,4.99,8.27,6.65.09.09-.31,1.37.92,1.02,0,.17.01.34,0,.51-2.91-.03-4.83-.51-7.12.51l1.61,4.6c-1.05.54-1.37.22-2.76,1.02-.68.39-1.89-.9-2.3,1.79-1.12,7.37,4.96,9.24,10.11,11-1.63.49-11.26-2.46-11.72-2.05s-.21,1.92-.23,2.56l-70.99,1.02.46,1.53c-12.5-.49-24.96.54-36.99,4.6-.82-.94,1.93-4.09,2.53-4.6,4.03-3.45,26.3-13.53,32.17-15.86,15.33-6.1,31.54-8.82,47.56-11.77.59,2.15,4.06,6.89,5.74,8.19,2.12,1.64,16.53,7.11,17.69,5.37.23-.34-.47-4.14-.69-4.35-.47-.45-9.78-2.57-11.95-3.58-3.62-1.69-7.59-4.54-10.34-7.67-.76-3.42-3.36-6.33.23-8.7,3.05-2.01,14.9-3.06,19.07-4.09Z"/>
            <path class="cls-34" d="M110.21,264.11c-.04,1.37.43,1.94.92,3.07.23,1.36-.81,1.08-1.84,1.02-27.83-1.57-53.6-.24-81.33,0-.66,0-2.07-.36-2.3.51-.46,0-.92-.01-1.38,0-6.64.16-12.2,1.9-18.38,2.56-.82.09-2.59.52-3.22,0,12.03-4.07,24.49-5.09,36.99-4.6l-.46-1.53,70.99-1.02Z"/>
            <path class="cls-38" d="M84.94,239.04c-.38-1.36.48-1.94.46-2.05,2.75,3.13,6.71,5.98,10.34,7.67,2.17,1.01,11.48,3.13,11.95,3.58.22.21.91,4.01.69,4.35-1.16,1.73-15.57-3.74-17.69-5.37-1.68-1.29-5.15-6.04-5.74-8.19Z"/>
          </g>
          <path class="cls-43" d="M24.28,268.71l-18.38,2.56c6.18-.66,11.74-2.4,18.38-2.56Z"/>
          <path class="cls-43" d="M27.96,268.2c-.23.87-1.63.5-2.3.51.23-.87,1.63-.51,2.3-.51Z"/>
        </g>
        <path class="cls-12" d="M247.6,288.15c.2,1.15-3.37,1.49-3.91,1.53-17.69,1.49-51.75-2.31-69.84-5.63-.28-.05-1.98-.69-1.61-1.53.3-.67.45-.48.46-.51,24.81,3.56,49.81,6.37,74.9,6.14Z"/>
        <path class="cls-14" d="M249.9,288.15c-.58,1.09-1.78,1.9-1.84,0,.6.04,1.23-.03,1.84,0Z"/>
        <path class="cls-77" d="M170.17,286.11c.7-.28,1.01.75.46,1.02-.67.33-1.01-.8-.46-1.02Z"/>
        <g>
          <path class="cls-9" d="M156.62,192.48c.82.36.88.14,1.38.51l-.46,2.56c-.13-.06-.33.06-.46,0-9.15-3.87-41.26-5-45.95,6.14-2.11,5,5.19,5.63-.46,6.14-1.33-.74-2.67-1.65-4.14-2.05.06-.81.18-.9.46-1.53.4.05.42-.13.46-.51,1.57-14.63,38.77-15.83,49.17-11.26Z"/>
          <path class="cls-45" d="M110.67,207.83c.06.03.86,1,.92,1.02-3.02,1.67-1.32,8.8-1.38,12.02l-.92,8.44c-.04-.1-1.22-1.05-1.38-1.53-.29-.87-.75-3.54-.92-4.6-.68-4.3-.78-13.01-.46-17.4,1.46.4,2.8,1.31,4.14,2.05Z"/>
          <path class="cls-91" d="M111.59,208.85c4.58,2.11,11.98,3.21,17,3.58.56,1.59-.61,9.06.23,9.72.84.67,16.85-.18,17.46.51,1.5,1.71.31,7.63.69,9.98l3.22.26c-1.1.34-2.42.45-3.22,1.53-1.56-.11-3.04-1.32-3.91-1.02-.74.26-1.94,3.84-2.99,4.6-6.04.72-12.75,2.7-18.38,5.12-1.76-1.66-6.05-4.03-8.27-6.65-1.94-2.3-2.91-4.38-4.14-7.16l.92-8.44c.06-3.22-1.64-10.35,1.38-12.02Z"/>
          <path class="cls-69" d="M157.08,195.55c-2.86,3.92-.07,5.45,3.22,6.65.01.17,0,.34,0,.51-7.5,6.72-19.83,7.71-29.18,7.16-5.55-.33-18.01-1.67-19.99-8.19,4.69-11.14,36.8-10,45.95-6.14Z"/>
          <path class="cls-9" d="M160.3,202.71c.13,2.34,0,4.35,0,6.65-9.66,3.44-21.6,3.82-31.71,3.07-5.02-.37-12.42-1.47-17-3.58-.06-.03-.86-.99-.92-1.02,5.65-.51-1.65-1.14.46-6.14,1.98,6.51,14.43,7.86,19.99,8.19,9.35.55,21.68-.44,29.18-7.16Z"/>
          <path class="cls-45" d="M160.3,202.2c-3.29-1.2-6.08-2.74-3.22-6.65.13.06.33-.06.46,0,4.99,2.26,2.51,2.93,2.76,6.65Z"/>
          <path class="cls-45" d="M159.84,230.34c-2.41.18-7.13,1.78-9.65,2.56l-3.22-.26c-.38-2.35.81-8.27-.69-9.98-.61-.69-16.62.15-17.46-.51-.84-.66.33-8.13-.23-9.72,10.1.75,22.04.37,31.71-3.07.01,6.72-.13,13.82-.46,20.98Z"/>
          <path class="cls-89" d="M159.84,230.34c-.07,1.46-.51,3.11-.46,4.6-4.06-.36-8.3-.23-12.41-.51.8-1.08,2.11-1.19,3.22-1.53,2.52-.78,7.24-2.38,9.65-2.56Z"/>
        </g>
        <g>
          <g>
            <path class="cls-90" d="M403.37,242.11c5.67-.16,11.33-.56,17-.51-.09.83.04,1.72,0,2.56l-38.6,1.28,38.6.26c-.02,1.67-.1,3.45,0,5.12-13-.36-25.55-2.62-38.6-1.53.03-2.47.22-6.4-1.15-6.65-.65-.12-9.54.77-10.8,1.02-.88-1.05-2.65-6.92-3.45-7.16-1.17-.36-12.01,5.09-14.47,4.35,4.79-2,9.81-4.3,14.7-5.88,2.35-.76,13.59-4.16,15.16-4.09.73.03.92.1,1.38.77-1.97,2.58-.68,7.43-.69,11,6.97-.34,13.94-.32,20.91-.51Z"/>
            <path class="cls-45" d="M421.75,235.97c-1.21,1.97-1.12,3.14-1.38,5.63-5.67-.05-11.33.35-17,.51l.46-16.37c5.07-.37,10.73-1.08,15.62-2.56l1.38,2.3.92,10.49Z"/>
            <path class="cls-9" d="M418.99,209.88c6.64,4.33,4.74,4.51,5.05,11.77-1.61.21-3.04,1.07-4.6,1.53-4.9,1.47-10.56,2.19-15.62,2.56-7.11.51-14.15.94-21.14-1.02-1.8.16-.79-3.34.46-3.07,1.86.99,15.42,1.68,18.15,1.53,1.49-.08,8.85-1.2,10.11-1.53,2.17-.58,8.96-2.97,8.96-5.88,0-.68-1.58-2.36-1.84-2.81-.46-.81-.36-2.01-1.84-2.3l2.3-.77Z"/>
            <path class="cls-9" d="M418.99,209.88l-2.3.77c1.48.29,1.38,1.49,1.84,2.3-1.38-5.58-31.56-6.57-35.38-3.07-1.11-.9-.97-1.09-.92-2.56,10.8-3.72,26.86-3.9,36.76,2.56Z"/>
            <path class="cls-7" d="M420.37,244.15c-.02.51,0,1.03,0,1.53l-38.6-.26,38.6-1.28Z"/>
            <path class="cls-80" d="M424.05,221.64c.11,2.53.16,4.12,0,6.65-.06,1-.07,1.71.46,2.56-.5,5.01-1.01,2.27-2.76,5.12l-.92-10.49-1.38-2.3c1.56-.47,2.98-1.33,4.6-1.53Z"/>
            <path class="cls-64" d="M424.51,230.85c-.53-.85-.52-1.56-.46-2.56,2.03,2.86.48,2.37.46,2.56Z"/>
            <path class="cls-45" d="M403.83,225.74l-.46,16.37c-6.96.19-13.94.17-20.91.51,0-3.57-1.28-8.42.69-11-.46-.67-.65-.74-1.38-.77.19-1.35-.27-3.4,0-4.6.29-1.29.29-.68.92-1.53,6.98,1.97,14.03,1.54,21.14,1.02Z"/>
            <path class="cls-69" d="M418.54,212.94c.26.45,1.84,2.13,1.84,2.81,0,2.92-6.79,5.3-8.96,5.88-1.25.34-8.62,1.46-10.11,1.53-2.73.15-16.29-.54-18.15-1.53-.08-.04-1.36-1.18-1.38-1.28.85-2.44.16-5.07.46-7.42,2.51,2.08,7.13-.8,10.34-1.02,8.21-.58,17.32.71,25.27,3.07.64-.5.9-1.22.69-2.05Z"/>
            <path class="cls-45" d="M418.54,212.94c.21.83-.05,1.54-.69,2.05-7.95-2.36-17.06-3.65-25.27-3.07-3.21.23-7.83,3.1-10.34,1.02.21-1.65-.56-1.72.92-3.07,3.82-3.51,34-2.51,35.38,3.07Z"/>
          </g>
          <g>
            <path class="cls-9" d="M420.37,250.81c.17,2.79.23,5.61,1.84,7.67-.02.03-.19-.18-.46.51-.06.14-.43,2.77-.46,3.07-2.09-.9-4.67-.5-6.89-.51-6.85-.04-13.86-.26-20.68-.51-5.73-.21-11.47-.87-17.23-.51,5.05-2.44,6.45.74,5.74-7.42-2.51.27-4.91,1.17-7.35,1.79-6.95,1.77-17.21,4.2-22.52,9.21-.64-.22-1.52.29-2.3-.51,1.06-4.18-.08-3.31,2.3-8.19,9.69-2.47,19.43-5.31,29.41-6.14,13.05-1.09,25.6,1.17,38.6,1.53Z"/>
            <path class="cls-45" d="M361.1,272.29c11.98,2.96,25.96,3.39,38.14,1.53l.46,8.7c-3.4.59-7.15,1.39-10.57,1.53-13.25.57-29.13-1.27-40.44-9.21.07-.29-.06-.73,0-1.02,3.17-3.57,8.41-.16,12.41-1.53Z"/>
            <path class="cls-54" d="M389.13,284.06c1.92,1.83,3.3,1.14,5.51,2.56-11.55,1.35-37.33.14-46.64-8.19-2.32-2.07.14-1.17.69-3.58,11.31,7.94,27.19,9.78,40.44,9.21Z"/>
            <path class="cls-80" d="M421.29,262.06c-.3,2.85-.21,8.83,0,11.77-.24,1.27-1.69,1.17-2.3,1.53l-1.15-7.67c-3.49,1.99-7,3.08-10.8,4.09-4.36-.81-9.24,1.9-13.33-.51,5.91-.83,18.01-3.62,20.68-9.72,2.23.01,4.8-.39,6.89.51Z"/>
            <path class="cls-54" d="M394.64,286.62c-2.21-1.42-3.59-.73-5.51-2.56,3.42-.15,7.17-.95,10.57-1.53,7.93-1.38,12.19-2.93,19.3-7.16.61-.36,2.06-.26,2.3-1.53,0,.12,1.54.77,1.38,1.79-8.12,6.5-18.05,9.84-28.03,11Z"/>
            <path class="cls-12" d="M352.37,264.11c.62.21-.5.79,1.84.51.48,2.38,3.22,3.47,5.05,4.09l-.92,3.07c-2.03-.61-7.59-2.85-9.19-4.09-.52-.4-.67-.94-.92-1.53.04-.03.4-.96.46-1.02.44-.43.85.55,1.38-1.53.78.81,1.65.3,2.3.51Z"/>
            <path class="cls-7" d="M358.34,271.78c.98.3,1.94.31,2.76.51-4,1.38-9.24-2.03-12.41,1.53.45-2.09.6-3.99.46-6.14,1.6,1.24,7.16,3.48,9.19,4.09Z"/>
            <path class="cls-45" d="M414.4,261.55c-2.67,6.1-14.77,8.9-20.68,9.72-4.03.56-7.9.62-11.95.51-1.79-3.18,2.97-2.36,3.68-5.12,3.44-.76,9.64-.2,8.27-5.63,6.82.25,13.83.47,20.68.51Z"/>
            <path class="cls-63" d="M393.72,261.04c1.37,5.42-4.83,4.87-8.27,5.63-.21.05-3.22-.2-4.37,0-.74.13-2.01,1.96-2.3,2.05-1.51.44-1.08-1.03-1.15-1.02,1.02-.51,2.91-1.39,2.07-3.07-6.45-.08-12.85-.41-19.3-.51-.36,0,.01-1.02-.69-1.02,3.96-3.46,13.91-2.72,15.16-8.19,2.44-.62,4.84-1.53,7.35-1.79.71,8.16-.7,4.98-5.74,7.42,5.76-.36,11.5.3,17.23.51Z"/>
            <path class="cls-69" d="M418.99,275.36c-7.11,4.24-11.37,5.79-19.3,7.16l-.46-8.7c2.67-.41,5.22-1.35,7.81-2.05,3.79-1.01,7.31-2.1,10.8-4.09l1.15,7.67Z"/>
            <path class="cls-9" d="M367.07,270.25c4.59.87,10.03,1.41,14.7,1.53,4.05.11,7.92.05,11.95-.51,4.09,2.41,8.96-.3,13.33.51-2.59.69-5.14,1.64-7.81,2.05-12.18,1.86-26.16,1.42-38.14-1.53-.82-.2-1.77-.21-2.76-.51l.92-3.07c1.85.63,5.67,1.13,7.81,1.53Z"/>
            <path class="cls-2" d="M359.72,263.08c.7,0,.33,1.02.69,1.02,6.45.1,12.85.43,19.3.51.84,1.68-1.05,2.56-2.07,3.07-3.71.55-7.83-.2-10.57,2.56-2.14-.41-5.96-.91-7.81-1.53-1.84-.62-4.58-1.72-5.05-4.09,1.83-.22,3.68-1.54,5.51-1.53Z"/>
            <path class="cls-7" d="M385.45,266.67c-.7,2.76-5.47,1.93-3.68,5.12-4.67-.13-10.11-.66-14.7-1.53,2.74-2.76,6.86-2.01,10.57-2.56.07-.01-.36,1.47,1.15,1.02.29-.09,1.55-1.92,2.3-2.05,1.14-.2,4.15.05,4.37,0Z"/>
          </g>
        </g>
        <g>
          <path class="cls-45" d="M114.35,250.81c16.93,7.37,40.04,6.6,57.44,1.02,1.43,3.67.2,7.4.46,11.26l-21.14,5.12c-2.59-.37-6.12-.62-8.73-.51-6.67-1.71-13.64-1.85-20.22-4.09-5.15-1.76-11.23-3.63-10.11-11,.41-2.69,1.62-1.4,2.3-1.79Z"/>
          <path class="cls-80" d="M175.46,244.15c.66,2.62.03,2.94,0,5.12-2.36-.04-4.73-.71-7.12-.51-2.8.23-5.53,1.73-7.58,2.05-1.09-3.43-7.33-2.13-10.34-2.56-.5-.07-.74-1.51-.92-1.53-5.97-.75-15.83.51-21.83,1.53.89-3.11-2.96-4.58-5.05-4.09-1.23.35-.83-.94-.92-1.02,5.63-2.41,12.34-4.39,18.38-5.12,4.58-.55,16.32-1.3,20.68-1.02,1.72.11,13.45,3.35,14.01,4.09.14.18.48,2.24.69,3.07Z"/>
          <path class="cls-9" d="M123.54,249.78c14.43,3.95,22.74,3.25,37.22,1.02,2.05-.32,4.78-1.81,7.58-2.05,2.39-.2,4.76.47,7.12.51,0,.17,0,.34,0,.51,0,.34,0,.69,0,1.02-1.27,0-2.49.64-3.68,1.02-17.4,5.57-40.51,6.35-57.44-1.02,1.38-.81,1.71-.48,2.76-1.02,1.32-.68,1.71-.16,3.22-1.53.02,2.01,2.31,1.29,3.22,1.53Z"/>
          <path class="cls-7" d="M122.16,263.6c6.58,2.24,13.55,2.38,20.22,4.09-2.06.09-4.81.63-6.89,1.02-3.62.69-6.69,2.38-10.11,3.58-1.59.56-3.86.84-5.51,1.53-.76-.4-1.7-.43-1.84-.51-2.49-1.48-5.66-3.29-6.89-6.14-.49-1.13-.96-1.7-.92-3.07.02-.64-.21-2.16.23-2.56.46-.42,10.09,2.54,11.72,2.05Z"/>
          <path class="cls-20" d="M127.67,248.25c-1.2.2-4.27-.08-4.14,1.53-.91-.25-3.2.47-3.22-1.53.15-.14,2.28-3.31,2.3-3.58.01-.17,0-.34,0-.51,2.1-.49,5.94.98,5.05,4.09Z"/>
          <path class="cls-9" d="M122.62,244.67c-.02.27-2.14,3.44-2.3,3.58-1.51,1.37-1.9.85-3.22,1.53l-1.61-4.6c2.3-1.03,4.21-.55,7.12-.51Z"/>
          <path class="cls-36" d="M146.97,234.43c4.1.29,8.35.15,12.41.51.45.04.93-.04,1.38,0v2.05c-4.36-.28-16.1.48-20.68,1.02,1.05-.76,2.24-4.35,2.99-4.6.87-.3,2.35.91,3.91,1.02Z"/>
          <path class="cls-45" d="M174.08,263.08c-.43,5.84-1.4,11.08-7.35,10.23-3.77-.53-7.24-2.86-11.03-3.58-1.22-1-3.12-1.32-4.6-1.53l21.14-5.12h1.84Z"/>
          <path class="cls-80" d="M175.46,250.81c0,.17,0,.34,0,.51-.07,2.22-.29,4.91-.46,7.16-.1,1.3-.35,2.72-.46,4.09-.39-.05-.43.12-.46.51h-1.84c-.26-3.85.97-7.58-.46-11.26,1.18-.38,2.4-1.02,3.68-1.02Z"/>
          <path class="cls-45" d="M160.75,250.81c-14.48,2.23-22.79,2.92-37.22-1.02-.14-1.62,2.94-1.33,4.14-1.53,6-1.02,15.86-2.28,21.83-1.53.18.02.42,1.46.92,1.53,3.01.43,9.25-.87,10.34,2.56Z"/>
          <path class="cls-72" d="M175.46,244.15c-.21-.83-.55-2.88-.69-3.07-.57-.74-12.3-3.98-14.01-4.09v-2.05c5.92.51,16.87-.68,14.7,9.21Z"/>
          <g>
            <path class="cls-45" d="M169.94,285.08c-11.81,12.14-42.97,10.75-56.06,1.02.28-3.64-.13-3.8.92-7.16,2.36.98,4.82,1.47,7.35,1.53,1.01,1.21,5.31,2.36,6.66,2.56,5.15.75,18.13,1.19,22.98,0,.36-.09,2.38-1.37,2.53-2.05,5.45-.29,10.05-1.31,14.93-3.07l.23,4.35,1.38-.51-.92,3.33Z"/>
            <path class="cls-90" d="M119.86,273.83c9,4.73,19.65,7.1,30.33,7.16,1.36,0,2.77.07,4.14,0-.14.68-2.16,1.96-2.53,2.05-4.84,1.19-17.83.75-22.98,0-1.35-.2-5.65-1.35-6.66-2.56,1.06.03,3.15.4,3.91-.51-2.77-1.42-6.35-2.54-8.96-4.09-.06-.03-.86-.99-.92-1.02,1.06-.94,2.88.1,1.84-1.53.14.08,1.08.11,1.84.51Z"/>
            <path class="cls-43" d="M117.1,275.88c2.62,1.55,6.19,2.68,8.96,4.09-.76.91-2.84.54-3.91.51-2.53-.07-4.99-.55-7.35-1.53.47-1.52,0-2.92,2.3-3.07Z"/>
            <path class="cls-42" d="M175,263.6c-.1,1.2-.33,2.36-.46,3.58-.04.42-.36.64-.46,1.53-.06.55-.84,1.97-.92,2.56-.44,3.31.12,3.77,0,5.63-.13,1.97.23,3.06-.46,5.12-.01.03-.16-.16-.46.51-.45,1-1.58,1.82-2.3,2.56l.92-3.33-1.38.51-.23-4.35c-4.88,1.76-9.49,2.78-14.93,3.07-1.36.07-2.77,0-4.14,0,.44-1.71,4.04-2.91,5.28-4.09.62-.59,1.12-1.63,1.15-2.56,3.42.4,6.75.17,10.11-1.02,5.95.84,6.92-4.39,7.35-10.23.03-.39.07-.56.46-.51-.1,1.24.46.97.46,1.02Z"/>
            <path class="cls-80" d="M125.37,272.29c2.41,1.18,5.17,1.72,7.81,1.53.41,1.28,4.7,1.47,5.74,1.53,4.86.29,12.83.9,16.77-1.53.44.05.48.46.92.51-.03.93-.52,1.97-1.15,2.56-1.24,1.18-4.85,2.39-5.28,4.09-10.68-.07-21.33-2.44-30.33-7.16,1.66-.69,3.92-.97,5.51-1.53Z"/>
            <path class="cls-20" d="M142.37,267.69c2.61-.11,6.14.14,8.73.51,1.48.21,3.38.53,4.6,1.53-6.76-1.29-13.45-.67-20.22-1.02,2.08-.4,4.84-.94,6.89-1.02Z"/>
            <path class="cls-69" d="M135.48,268.71c6.77.36,13.46-.27,20.22,1.02,3.79.72,7.26,3.05,11.03,3.58-3.36,1.19-6.69,1.42-10.11,1.02-.44-.05-.48-.46-.92-.51-10.39-1.13-12.49-.69-22.52,0-2.64.18-5.4-.36-7.81-1.53,3.42-1.2,6.49-2.89,10.11-3.58Z"/>
            <path class="cls-80" d="M155.7,273.83c-3.94,2.43-11.91,1.82-16.77,1.53-1.04-.06-5.33-.25-5.74-1.53,10.02-.69,12.13-1.13,22.52,0Z"/>
          </g>
        </g>
        <g>
          <path class="cls-53" d="M107.91,227.78c-2.61,1.97,2.53,5.36,1.38,8.19-.68-.19-3.52-.87-3.68-1.28l-.92-10.49c.42-.1,1.72-.83,2.3-1.02.17,1.06.63,3.73.92,4.6Z"/>
          <path class="cls-68" d="M109.29,229.32c1.23,2.78,2.19,4.87,4.14,7.16-1.03.3-3.11-.22-4.14-.51,1.15-2.83-3.99-6.22-1.38-8.19.16.49,1.34,1.44,1.38,1.53Z"/>
          <path class="cls-40" d="M241.63,266.15c.1.23,2.4,3.6,2.76,4.09l-69.38-6.65c0-.06-.56.22-.46-1.02.11-1.37.36-2.8.46-4.09l66.63,7.67Z"/>
          <path class="cls-87" d="M244.38,270.25c.1.13.38.92.46,1.02.25,1.15-.91,2.42-.92,2.56l-69.38-6.65c.13-1.22.36-2.38.46-3.58l69.38,6.65Z"/>
          <path class="cls-31" d="M207.16,255.41c10.95,1.47,22.19,2.39,33.08,4.09-.17,2.4.42,4.54,1.38,6.65l-66.63-7.67c.17-2.25.39-4.94.46-7.16,10.56,1.37,21.15,2.67,31.71,4.09Z"/>
          <path class="cls-6" d="M213.6,252.85c9.27.55,19.57,3.75,28.95,2.56-.41,1.18-.41,3.29-.92,4.6-.73-.14-1.02-.46-1.38-.51-10.89-1.71-22.13-2.62-33.08-4.09.79-3.62,3.12-2.75,6.43-2.56Z"/>
        </g>
        <g>
          <path class="cls-81" d="M386.83,146.43c-.48.09-3.45,3.01-3.68,3.07-1.38.39-2.75.67-4.14,1.02-.25-.75.47-1.21.46-1.28-.09-.42-.99-.02-.92-.77.63-.22.43-.49.46-.51.19-.14,1.1.34.92-.77l-8.27-13.05c2.4-.43,5.27-.55,7.35-2.05,2.68,4.7,5.9,9.09,7.81,14.33Z"/>
          <path class="cls-47" d="M306.88,16.48c-.05-.44.11-.47.46-.51.05.43-.11.48-.46.51Z"/>
          <path class="cls-47" d="M106.99,204.25c.08-.18-.05-.59.46-.51-.04.38-.06.57-.46.51Z"/>
          <path class="cls-47" d="M422.21,258.99h-.46c.27-.69.44-.48.46-.51v.51Z"/>
          <path class="cls-47" d="M155.24,164.85c.02-.5-.17-1.04.46-1.02-.02.49.17,1.04-.46,1.02Z"/>
          <polygon class="cls-47" points="388.9 14.43 389.13 14.69 388.9 14.94 388.9 14.43"/>
          <path class="cls-47" d="M155.7,160.76c0-.17,0-.34,0-.51h.46l-.46.51Z"/>
          <path class="cls-48" d="M370.75,134.15s.16.13.92,0l8.27,13.05c.18,1.11-.72.63-.92.77-11.19-7.84-23.28-6.98-35.84-6.14.99-2.21,5.21-3.56,7.12-4.09,6.08-1.68,14.06-2.43,20.45-3.58Z"/>
          <path class="cls-73" d="M370.75,134.15c-6.39,1.15-14.37,1.91-20.45,3.58-1.92.53-6.14,1.88-7.12,4.09-12.66.85-26.01,2.74-38.6,4.6l-.46-2.56c4.41-.06,31.51-4.28,35.61-5.63,1.07-.35,1.71-1.8,2.07-2.05.41-.28,2.23.56,2.76-.77v-40.16c7.25,13.14,18.58,25.75,26.19,38.88Z"/>
          <path class="cls-84" d="M299.06,141.32c1.26,2.25,2.71,2.59,5.05,2.56l.46,2.56c-6.78,1.01-13.52,2.02-20.22,3.58.39-1.99-1.67-5.56-1.84-7.67,3.54-.12,7.2-.97,10.8-.51,1.48-1.85,3.22-3.42,4.82-5.12-.27,2.59-.03,2.92.92,4.6Z"/>
          <path class="cls-81" d="M339.04,85.04c.08,2.63.46,5.65.46,8.19.01,13.67-.96,27.48-.46,41.19l-30.79,4.35c.92-1.13,3.6-13.87,4.14-16.37.36-1.68.87-3.38.92-5.12,6.25-8,12.21-16.45,18.38-24.56,2.25-2.96,4.67-5.7,6.89-8.7.63-.02.44.53.46,1.02Z"/>
          <path class="cls-65" d="M344.56,95.27v40.16c-.52,1.33-2.34.48-2.76.77-1.24-12.72.43-25.67-.92-38.37,1.54-2.62.76-5.37.46-8.19,2.21.16,2.3,3.97,3.22,5.63Z"/>
          <path class="cls-48" d="M308.25,138.76c-.98,1.21-7.38,2.34-8.04.51l-1.15,2.05c-.95-1.68-1.19-2.02-.92-4.6.66-.7,1.18-1.8,1.84-2.56l1.15,5.12,11.26-16.88c-.54,2.51-3.22,15.24-4.14,16.37Z"/>
          <g>
            <path class="cls-61" d="M264.6,27.22c-.63.16-1.3,1-1.38,1.02-2.12.54-8.01,1.14-9.42,2.05-1.63,1.05-8.09,12.43-9.88,14.84-.15-.02-.31.02-.46,0-2.52-.33-5.02-.85-7.58-.51-13.48,1.79-30.02,24.22-19.53,38.37-.1.14-.36.88-.46,1.02-10.94,14.92-22.28,29.39-33.54,44-.7.9-2.04,1.44-2.3,3.07-6.68-.7-13.53-1.44-20.22-2.05,1.09-1.09,2.51-1.54,3.68-2.56,5.73-5,8.94-12.38,8.27-20.47-.19-2.28-1.19-6.65-3.22-7.67-.84-1.33-.37-1.12.23-2.05,4.28-6.62,15.64-17.6,21.37-24.05,9.94-11.18,19.99-22.26,29.87-33.51l-6.89-.26c4.87-3.98,14.91-4.22,20.91-5.63.84-.2,1.28-1.51,1.38-1.53,3.68-.86,6.93-1.02,10.34-1.02.53,0,1.35.27,1.38-.51.3-.01.62.01.92,0,.59-.02,1.72.33,1.84-.51.45-.02.93.05,1.38,0,.35-.04.51-.07.46-.51.44-.06.93.04,1.38,0,3.04-.25,5.59-1.33,8.5-2.05.15-.04,4.26-1.06,2.99.51Z"/>
            <path class="cls-30" d="M352.37,65.08l59.28,80.84v.51c-5.7.13-20.71-.78-24.81,0-1.91-5.23-5.13-9.62-7.81-14.33-10.94-19.17-22.54-37.72-34.92-55.77-.09-.13.09-.89,0-1.02l8.27-10.23Z"/>
            <path class="cls-30" d="M258.17,100.9c.6.79-.53,2.48-.92,3.07-3.54,5.32-7.4,10.59-11.03,15.86-5.04,7.31-10.53,14.35-15.16,22-.46,0-.92,0-1.38,0-2.29.01-4.62,0-6.89,0-1.1,0-3,.51-4.6.51-7.35.02-14.71,0-22.06,0-.45,0-.92,0-1.38,0-1.06,0-2.16,0-3.22,0-11.59-.02-23.29-.49-34.92-.51-11.63-.02-23.3-.16-34.92.26,6.86-9.03,14.49-17.56,22.06-25.84l1.38,9.47c3.69,5.95,9.53,2.85,14.7,3.33,6.68.61,13.54,1.35,20.22,2.05,15.41,1.62,30.78,3.9,46.18,5.63,1.63-.5,10.32-13.54,12.18-15.86,2.09-2.61,14.18-18.77,15.16-19.44.27-.18.6-.43.92-.51,1.2-.12,2.49.17,3.68,0Z"/>
            <path class="cls-51" d="M411.64,146.43v-.51l-1.38-5.37c-18.9-26.04-37.65-52.29-57.44-77.51.64-1.96,3.1-4.33,3.68-6.65l64.79,89.79c-.22,1.84-8.65.23-9.65.26Z"/>
            <path class="cls-1" d="M190.16,72.25l-3.68-4.09c7.65-8.56,18.38-22.91,26.65-29.67l6.89.26c-9.88,11.25-19.93,22.33-29.87,33.51Z"/>
            <path class="cls-30" d="M190.16,72.25c-5.73,6.45-17.08,17.43-21.37,24.05-.6.93-1.07.71-.23,2.05-3.19-1.62-8.23.6-11.03,2.56,9.24-11.36,19.25-21.89,28.95-32.74l3.68,4.09Z"/>
            <path class="cls-21" d="M320.2,15.46c3.28,4.5,23.06,36.16,25.04,36.84,3.67,1.24,9.23-2.59,11.26,4.09-.58,2.33-3.03,4.69-3.68,6.65-.16.48-.43.63-.46,1.02l-32.39-46.56-9.42,11.77c-.64-.81-1.97-1.81-2.76-2.56,3.13-3.89,6.73-13.24,12.41-11.26Z"/>
            <path class="cls-88" d="M301.36,16.99c-.64,3.39-.82,2.07-3.22,3.07-10.11,4.21-23.32,4.63-33.54,7.16,1.28-1.57-2.84-.55-2.99-.51-2.91.72-5.46,1.79-8.5,2.05,15.92-4.66,32.03-8.55,48.25-11.77Z"/>
            <path class="cls-88" d="M249.9,29.27c-.11.85-1.25.49-1.84.51.12-.85,1.25-.48,1.84-.51Z"/>
            <path class="cls-88" d="M247.14,29.78c-.03.78-.85.51-1.38.51.04-.8.85-.49,1.38-.51Z"/>
            <path class="cls-88" d="M251.28,29.27c-.05-.45.12-.46.46-.51.05.44-.11.47-.46.51Z"/>
            <path class="cls-59" d="M277.01,49.73c-6.3,8.5-12.54,17.08-18.84,25.58-6.03,8.14-12.57,15.97-18.38,24.3-.51.73-2.01,2.42-1.38,3.33-.82.1-1.74.5-1.84.51-7.26.92-14.77,1.73-22.06,2.05,3.12-5.07,5.52-10.83,8.73-15.86.13.06.32-.05.46,0,12.16,4.87,22.29-11.41,26.19-22.26,2.16-6.01,6-16.24,0-20.21l13.33-18.93c.08-.02.74-.87,1.38-1.02,10.22-2.53,23.43-2.95,33.54-7.16-6.31,10.29-13.96,19.98-21.14,29.67Z"/>
            <path class="cls-1" d="M236.57,103.46c-.76,2.98-11.92,15.03-11.03,17.14l12.87.26c-1.86,2.32-10.55,15.36-12.18,15.86-15.4-1.73-30.77-4.01-46.18-5.63.26-1.63,1.6-2.17,2.3-3.07l15.85,1.53c4.81-8.51,11.23-15.79,16.31-24.05,7.29-.32,14.8-1.13,22.06-2.05Z"/>
            <path class="cls-30" d="M223.25,89.64c-3.21,5.03-5.61,10.79-8.73,15.86-5.09,8.26-11.51,15.53-16.31,24.05l-15.85-1.53c11.26-14.61,22.6-29.08,33.54-44,3.23.17,4.53,4.3,7.35,5.63Z"/>
            <path class="cls-10" d="M243.47,45.13c-4.66,6.26-8.78,13.09-13.33,19.44-4.45,6.22-9.27,12.24-13.79,18.42-10.49-14.16,6.05-36.58,19.53-38.37,2.56-.34,5.07.18,7.58.51Z"/>
            <path class="cls-13" d="M234.73,69.18c-3.9,6.59-7.4,13.68-11.03,20.47-.14-.05-.33.06-.46,0-2.83-1.33-4.13-5.46-7.35-5.63.1-.14.35-.88.46-1.02,4.52-6.17,9.33-12.2,13.79-18.42l4.6,4.6Z"/>
            <path class="cls-10" d="M249.44,47.18c-5.49,6.85-10.18,14.35-14.7,22l-4.6-4.6c4.55-6.35,8.66-13.18,13.33-19.44.15.02.31-.02.46,0,2.39.39,3.4.8,5.51,2.05Z"/>
            <path class="cls-21" d="M263.22,28.25l-13.33,18.93c-.11-.07-.34.07-.46,0-2.11-1.25-3.12-1.66-5.51-2.05,1.79-2.41,8.25-13.79,9.88-14.84,1.41-.91,7.3-1.5,9.42-2.05Z"/>
            <path class="cls-13" d="M171.78,106.01c.67,8.09-2.54,15.47-8.27,20.47-.06-2.88,2.84-3.49,3.68-6.4l-2.76-.51c3.39-4.03,2.66-12.08,7.35-13.56Z"/>
            <path class="cls-30" d="M352.37,64.06c-.02.34.01.69,0,1.02l-8.27,10.23c-1.54-2.26-4.09-4.59-5.51-7.16l5.51-11c-.6-1.6-10.23.8-11.95,1.28-.25-.18-.63-.46-.92-.51-5.07-6.68-9.15-14.63-14.24-21.23-1.91-2.48-4.51-4.12-6.43-6.4-.09-.1.09-.91,0-1.02l9.42-11.77,32.39,46.56Z"/>
            <path class="cls-79" d="M379.02,132.11c-2.08,1.5-4.95,1.62-7.35,2.05-.75.13-.87,0-.92,0-7.61-13.13-18.94-25.75-26.19-38.88-.92-1.66-1.01-5.46-3.22-5.63-.2-1.89.96-6.49-2.3-4.6-.02-.5.17-1.04-.46-1.02.12-.16-.14-1.09,0-1.28,1.47-2.01,4.29-3.88,5.51-6.4,12.38,18.05,23.99,36.6,34.92,55.77Z"/>
            <path class="cls-1" d="M411.64,145.92l-59.28-80.84c.01-.34-.02-.69,0-1.02.03-.4.3-.55.46-1.02,19.79,25.22,38.54,51.47,57.44,77.51l1.38,5.37Z"/>
            <path class="cls-41" d="M344.1,75.32c.09.13-.09.89,0,1.02-1.23,2.52-4.05,4.39-5.51,6.4-.14.19.12,1.12,0,1.28-2.22,2.99-4.64,5.74-6.89,8.7-3.16,1.06-6.4,1.11-9.65,1.53l16.08-26.09h.46c1.42,2.57,3.98,4.9,5.51,7.16Z"/>
            <path class="cls-1" d="M331.69,92.71c-6.17,8.11-12.13,16.56-18.38,24.56-4.33,5.54-8.74,11.66-13.33,16.88-.66.75-1.17,1.86-1.84,2.56-1.61,1.69-3.34,3.26-4.82,5.12-3.6-.46-7.26.4-10.8.51-10.87.35-22.14-.64-33.08-.51-6.12.07-12.26-.03-18.38,0,4.63-7.65,10.13-14.69,15.16-22l50.77-.51c4.68-6.18,9.54-12.32,14.01-18.67.8-1.13,2.94-3.91,2.76-5.37.6-.08,1.24.08,1.84,0,2.1-.27,4.33-.75,6.43-1.02,3.25-.43,6.49-.48,9.65-1.53Z"/>
            <path class="cls-1" d="M313.77,95.27c.19,1.46-1.96,4.24-2.76,5.37-4.48,6.35-9.34,12.5-14.01,18.67l-50.77.51c3.63-5.27,7.49-10.54,11.03-15.86-.57,5.51,8.25,11.21,12.41,11.77,8.23,1.1,14.58-4.23,18.84-11.51.75-1.29,1.67-5.64,1.84-5.88.02-.03.54.07.46-.51,7.71-.18,15.34-1.58,22.98-2.56Z"/>
            <path class="cls-13" d="M286.66,98.85c-2.52,6.71-6.39,10.24-12.18,13.3-1.82.96-4.82-.2-4.82,3.58-4.16-.56-12.98-6.26-12.41-11.77.39-.59,1.52-2.28.92-3.07.99-.15,1.31-.5,1.38-.51,8.66-1.08,18.34-.56,27.11-1.53Z"/>
            <path class="cls-41" d="M265.06,81.97c-4.11,5.9-8.18,11.85-12.41,17.65l2.3.26c-.17.29-.39.68-.46,1.02-.32.08-.65.33-.92.51-5.06-.09-10.15.91-15.16,1.53-.63-.91.87-2.6,1.38-3.33,5.81-8.33,12.35-16.17,18.38-24.3.45,2.71,4.57,5.75,6.89,6.65Z"/>
            <path class="cls-51" d="M253.57,101.41c-.99.67-13.07,16.83-15.16,19.44l-12.87-.26c-.9-2.11,10.27-14.16,11.03-17.14.09-.01,1.02-.41,1.84-.51,5.01-.63,10.11-1.63,15.16-1.53Z"/>
            <path class="cls-44" d="M276.09,76.85c-5.75,7.58-10.69,16.03-16.54,23.54-.07,0-.39.37-1.38.51-1.18.17-2.48-.12-3.68,0,.07-.35.29-.73.46-1.02.81-1.42,1.73-2.86,2.76-4.09,6.11-7.35,12.33-14.58,18.38-22,1.91,1.46-.41,1.69,0,3.07Z"/>
            <path class="cls-41" d="M265.06,81.97c-2.32-.9-6.45-3.94-6.89-6.65,6.3-8.5,12.54-17.08,18.84-25.58.62,1.38,6.78,5.42,6.89,5.88.38,1.63-16.53,23.02-18.84,26.35Z"/>
            <path class="cls-41" d="M305.96,35.92c.07.11-.07.4,0,.51-9.65,12.76-19.8,25.01-29.87,37.35-6.05,7.42-12.27,14.65-18.38,22,15.13-20.84,29.34-42.6,45.03-62.93,1.22.13,2.55,2.07,3.22,3.07Z"/>
            <g>
              <path class="cls-62" d="M320.2,15.46c-5.68-1.98-9.28,7.36-12.41,11.26-1.67,2.08-3.39,3.99-5.05,6.14-15.69,20.33-29.9,42.09-45.03,62.93-1.03,1.23-1.95,2.67-2.76,4.09l-2.3-.26c4.23-5.8,8.3-11.75,12.41-17.65,2.31-3.33,19.22-24.72,18.84-26.35-.11-.47-6.28-4.51-6.89-5.88,7.18-9.7,14.83-19.38,21.14-29.67,2.4-1,2.57.32,3.22-3.07,1.37-.27,1.94-1.52,2.07-1.53.44-.07,1.67,1.18,3.45,1.02.35-.03.51-.08.46-.51,2.97-.39,11.28-3.59,13.1-1.53.44.5-.45.72-.23,1.02Z"/>
              <path class="cls-41" d="M309.86,16.99c.64-.04,2.16-.39,2.07.77l-4.82,6.91-4.82-5.37c.12-.42,7.08-2.27,7.58-2.3Z"/>
            </g>
            <path class="cls-62" d="M310.55,29.27c.09.11-.09.92,0,1.02l-4.6,5.63c-.66-1-1.99-2.94-3.22-3.07,1.66-2.15,3.38-4.06,5.05-6.14.78.75,2.12,1.74,2.76,2.56Z"/>
            <g>
              <path class="cls-60" d="M168.57,98.34c2.03,1.03,3.03,5.4,3.22,7.67-4.7,1.48-3.97,9.52-7.35,13.56l2.76.51c-.83,2.91-3.73,3.52-3.68,6.4-1.16,1.01-2.59,1.47-3.68,2.56-5.17-.47-11.02,2.63-14.7-3.33l-1.38-9.47c3.68-4.03,9.82-12.57,13.79-15.35,2.8-1.96,7.84-4.18,11.03-2.56Z"/>
              <polygon class="cls-13" points="162.36 122.39 163.05 122.64 162.36 123.41 162.13 123.15 162.36 122.39"/>
            </g>
            <path class="cls-10" d="M223.71,89.64c3.63-6.79,7.13-13.87,11.03-20.47,4.52-7.65,9.22-15.15,14.7-22,.12.07.35-.07.46,0,6,3.97,2.16,14.2,0,20.21-3.9,10.85-14.03,27.13-26.19,22.26Z"/>
            <path class="cls-21" d="M331.23,57.92c-1.12-.19-6.51,2.03-8.27,1.79l7.81,11.77c.54,2.99-14.4,18.78-15.16,23.79-.6.08-1.24-.08-1.84,0-7.63.98-15.26,2.37-22.98,2.56.71-4.7.61-9.34-.92-13.81-1.75-5.15-6.9-9.73-11.95-9.21,2.04-2.61,3.69-5.58,5.74-8.19l38.37-6.91c-5.37-7.76-10.87-15.39-16.08-23.28-.07-.11.07-.4,0-.51l4.6-5.63c1.92,2.28,4.52,3.92,6.43,6.4,5.09,6.61,9.18,14.56,14.24,21.23Z"/>
            <path class="cls-41" d="M332.15,58.43c.76.54,5.33,8.13,5.97,9.72l-16.08,26.09c-2.11.28-4.33.75-6.43,1.02.76-5.01,15.7-20.8,15.16-23.79l-7.81-11.77c1.76.23,7.16-1.98,8.27-1.79.29.05.67.33.92.51Z"/>
            <path class="cls-21" d="M338.58,68.15h-.46c-.64-1.59-5.21-9.18-5.97-9.72,1.72-.48,11.34-2.88,11.95-1.28l-5.51,11Z"/>
            <path class="cls-62" d="M341.34,89.64c.3,2.81,1.08,5.57-.46,8.19-.13-1.22.35-4.37-1.38-4.6,0-2.53-.38-5.55-.46-8.19,3.26-1.89,2.09,2.71,2.3,4.6Z"/>
            <path class="cls-71" d="M312.39,122.39l-11.26,16.88-1.15-5.12c4.58-5.22,8.99-11.34,13.33-16.88-.05,1.74-.56,3.44-.92,5.12Z"/>
            <path class="cls-10" d="M290.33,98.34c-.17.24-1.08,4.6-1.84,5.88-4.26,7.28-10.61,12.61-18.84,11.51,0-3.78,3-2.62,4.82-3.58,5.79-3.06,9.65-6.59,12.18-13.3.01-.03.23.19.46-.51h3.22Z"/>
            <path class="cls-52" d="M290.79,97.83c.08.58-.44.48-.46.51h-3.22c.38-1.2,1.21-3.21,1.38-4.35.51-3.5-1.56-8.42,1.38-9.98,1.52,4.48,1.63,9.12.92,13.81Z"/>
            <path class="cls-24" d="M289.87,84.01c-2.93,1.56-.86,6.48-1.38,9.98-.17,1.14-1,3.15-1.38,4.35-.23.71-.45.48-.46.51-8.77.98-18.45.46-27.11,1.53,5.85-7.51,10.79-15.95,16.54-23.54.43-.56,1.28-1.33,1.84-2.05,5.05-.52,10.19,4.06,11.95,9.21Z"/>
            <path class="cls-51" d="M277.93,74.8c-.56.71-1.41,1.48-1.84,2.05-.41-1.38,1.91-1.61,0-3.07,10.07-12.34,20.22-24.59,29.87-37.35,5.21,7.89,10.71,15.52,16.08,23.28l-38.37,6.91c-2.06,2.6-3.7,5.58-5.74,8.19Z"/>
          </g>
          <g>
            <path class="cls-48" d="M187.41,161.27c.19,4.9,1.61,8.11,3.68,12.28,9.12,18.39,30.73,15.11,37.22-3.58.25-.71.71-2.69.92-3.58,12.83,1.04,25.75.38,38.6.51l-47.79,56.79c7.45-23.13-21.01-29.58-34.46-12.28-.07.08-.4-.08-.46,0l-28.95-35.81c-2.16-3.56-.86-2.66-.92-3.84-.11-2.25-.07-4.66,0-6.91.63.02.44-.53.46-1.02.04-1.01-.04-2.05,0-3.07l.46-.51,31.25,1.02Z"/>
            <path class="cls-65" d="M191.54,142.34c-2.79,5.38-4.38,12.7-4.14,18.93l-31.25-1.02h-.46c.34-6.13.65-12.28.92-18.42,11.64.02,23.33.49,34.92.51Z"/>
            <path class="cls-85" d="M185.11,211.41c-1.87,2.54-4.16,5.66-4.14,9.21-4.67-5.52-18.86-24.58-22.98-27.63-.5-.37-.56-.15-1.38-.51-1.58-5.66-1.27-10.99-.46-16.88l28.95,35.81Z"/>
            <path class="cls-49" d="M277.93,167.41c-.84.73-1.97,3.22-2.3,3.58-2.73,2.97-5.21,6.12-7.81,9.21-.97,1.16-1.8,2.44-2.76,3.58-16.25,19.44-37.67,49.49-55.14,65.74-1.12,1.04-2.27,1.51-3.68,1.79-.44-1.21-4.4-5.21-5.51-6.65-6.17-7.99-12.88-15.32-19.3-23.02-.08-.09-.38-.93-.46-1.02-.02-3.55,2.26-6.67,4.14-9.21.06-.08.39.08.46,0,.17,1.33,1.22,1.77,1.84,2.56,6.59,8.42,12.62,17.45,19.53,25.58,3.53-4.33,8.28-8.49,11.26-13.3.55-.89,1.19-.56,1.84-2.56l47.79-56.79c.15,0,.31,0,.46,0,3.12.03,6.54.09,9.65.51Z"/>
            <path class="cls-39" d="M220.03,223.69c-.65,2-1.29,1.67-1.84,2.56l-1.84.77c1.45-4.6-.4-12.36-3.22-16.12-6.11-8.15-14.84-4.89-21.6,0-1.39,1.01-2.67,2.19-4.14,3.07-.62-.79-1.67-1.23-1.84-2.56,13.46-17.3,41.91-10.85,34.46,12.28Z"/>
            <path class="cls-25" d="M228.3,169.97c-6.49,18.69-28.1,21.97-37.22,3.58h.92c.51,1.43,6.95,7.06,8.5,7.67,4.38,1.73,5.89,1,9.88,0,1.52-.38,2.71-.82,4.14-1.53,6.22,1.43,8.39-4.89,11.72-8.7.68-.78.31-1.4,2.07-1.02Z"/>
            <path class="cls-65" d="M268.74,164.85c.3-.04.63.06.92,0l-1.38,2.05c-.15,0-.31,0-.46,0-12.85-.13-25.77.52-38.6-.51.25-1.07.45-2.46.46-3.58h.46c11.72,0,27.72,3.34,38.6,2.05Z"/>
            <path class="cls-17" d="M194.76,142.34c-1.86,2.94-2.95,7.71-3.22,11.26-4,3.31-.76,13.04,1.38,16.88-.81,0-.97,2.92-.92,3.07h-.92c-2.07-4.17-3.48-7.38-3.68-12.28-.24-6.23,1.34-13.55,4.14-18.93,1.06,0,2.16,0,3.22,0Z"/>
            <path class="cls-57" d="M229.68,162.81c0,1.12-.2,2.51-.46,3.58-.21.89-.67,2.87-.92,3.58-1.75-.37-1.38.24-2.07,1.02-3.32,3.81-5.49,10.13-11.72,8.7,3.9-1.95,5.55-3.49,8.27-7.16,2.1-2.83,4.45-5.95,5.05-9.72h1.84Z"/>
            <path class="cls-81" d="M379.02,147.97s.18.29-.46.51c-9.11,3.2-32.41,3.13-43.42,4.6-12.27,1.65-24.42,4.52-36.76,5.63-.25.15-.1,2.51,0,2.56.75.37,14.09-1.32,16.31-1.53.01.7-.47.49-.92.51-5.88.24-11,2.2-16.08,3.07-5.43.93-15.72.58-19.76,4.09-3.11-.42-6.53-.48-9.65-.51l1.38-2.05c.49-.09,1.24.15,1.61,0,.88-.35,12.9-13.82,13.1-14.84,6.7-1.56,13.43-2.57,20.22-3.58,12.59-1.87,25.94-3.76,38.6-4.6,12.56-.84,24.65-1.7,35.84,6.14Z"/>
            <path class="cls-56" d="M231.06,141.83c6.12-.03,12.26.07,18.38,0l19.3,23.02c-10.88,1.29-26.88-2.05-38.6-2.05.1-6.91,1.94-14.29-.46-20.98.46,0,.92,0,1.38,0Z"/>
            <path class="cls-86" d="M218.19,142.34c.82,2.75,2.27,5.29,2.76,8.19-2.99-.33-.86,5.37-.92,5.88-.2,1.89-1.74,3.57-1.84,4.09-.3,1.7,1.17,1.04.92,2.05-.28,1.14-2.54,5.54-3.22,6.91.28-.61,1.94-6.97,1.61-7.16h-8.96c-.28-.18-.6-.42-.92-.51l-11.49-19.44c7.35,0,14.71.02,22.06,0Z"/>
            <path class="cls-3" d="M227.84,162.81c-.6,3.77-2.96,6.89-5.05,9.72-2.76.97-4.52,6.87-5.97.51,4.8-5.74,5.43-14.91,4.14-22.51-.49-2.9-1.94-5.43-2.76-8.19,1.6,0,3.49-.51,4.6-.51,3.85,5.65,6.19,13.89,5.05,20.98Z"/>
            <path class="cls-37" d="M196.14,142.34l11.49,19.44c-3.56-1.01-11.93.4-16.08-.51-.24-1.7-.14-5.83,0-7.67.27-3.55,1.36-8.32,3.22-11.26.45,0,.92,0,1.38,0Z"/>
            <path class="cls-11" d="M229.68,141.83c2.4,6.68.56,14.06.46,20.98h-2.3c1.13-7.08-1.2-15.33-5.05-20.98,2.27,0,4.6.01,6.89,0Z"/>
            <path class="cls-19" d="M180.97,220.62c.08.09.38.93.46,1.02-1.18,3.18-1.55,4.64-1.38,8.19-1.56-.32-.55,1.71-1.15,2.05-2.09,1.16-15.24-1.81-19.07-1.53.33-7.16.47-14.26.46-20.98,0-2.3.13-4.31,0-6.65,0-.17.01-.34,0-.51-.25-3.72,2.24-4.39-2.76-6.65l.46-2.56c4.12,3.05,18.31,22.11,22.98,27.63Z"/>
            <path class="cls-48" d="M378.56,148.48c-.07.74.83.35.92.77.01.07-.71.53-.46,1.28-13.05,3.37-32.64,5.33-46.41,7.16-.09.01-.53-.68-1.84-.51-2.47.32-5.08,1.2-7.81,1.53-1.89.23-4.02,1.32-5.97,1.53-1.61.17-1.97-.54-2.3-.51-2.22.21-15.57,1.91-16.31,1.53-.1-.05-.25-2.41,0-2.56,12.34-1.1,24.49-3.98,36.76-5.63,11.01-1.48,34.31-1.4,43.42-4.6Z"/>
            <path class="cls-66" d="M213.14,210.9c2.82,3.76,4.66,11.52,3.22,16.12l1.84-.77c-2.97,4.81-7.73,8.97-11.26,13.3-6.91-8.13-12.94-17.16-19.53-25.58,1.47-.88,2.74-2.06,4.14-3.07h21.6Z"/>
            <path class="cls-19" d="M265.52,196.06c-3.22,1.05-6.44,3.78-8.96,6.14-15.35,14.38-28.69,34.82-42.96,50.65-3.32-.2-5.65-1.07-6.43,2.56-10.56-1.42-21.14-2.72-31.71-4.09,0-.17,0-.34,0-.51,0-.34,0-.69,0-1.02,10.44.35,20.73,2.71,31.02,3.58.64-.78,0-1.39-.23-2.05,1.4-.28,2.56-.75,3.68-1.79,17.47-16.25,38.89-46.31,55.14-65.74,1.31-.26.98,1.44.92,2.3-.26,3.42-.37,6.56-.46,9.98Z"/>
            <path class="cls-15" d="M180.05,229.83c.55,11.27,11.55,17.5,20.68,14.84,1.11,1.44,5.07,5.44,5.51,6.65.24.66.87,1.27.23,2.05-10.29-.87-20.58-3.23-31.02-3.58,0-.17,0-.34,0-.51.03-2.18.66-2.5,0-5.12,2.16-9.89-8.79-8.7-14.7-9.21-.45-.04-.93.04-1.38,0-.05-1.5.39-3.14.46-4.6,3.83-.28,16.98,2.7,19.07,1.53.6-.33-.41-2.37,1.15-2.05Z"/>
            <path class="cls-27" d="M200.73,244.67c-9.13,2.67-20.13-3.57-20.68-14.84-.17-3.54.2-5,1.38-8.19,6.42,7.7,13.13,15.03,19.3,23.02Z"/>
            <path class="cls-50" d="M268.28,190.94c-.47,17.03-.95,34.19-2.3,51.16-.09,0-.99.4-1.84.51.5-15.51.96-31.05,1.38-46.56.09-3.42.2-6.56.46-9.98.07-.86.39-2.56-.92-2.3.96-1.14,1.78-2.43,2.76-3.58.75,3.32.55,7.32.46,10.74Z"/>
            <path class="cls-33" d="M213.14,210.9h-21.6c6.76-4.89,15.49-8.15,21.6,0Z"/>
            <path class="cls-4" d="M208.08,178.15c-.17,3.17,3.41,1.16,2.3,3.07-3.98,1-5.5,1.73-9.88,0-1.55-.61-7.99-6.25-8.5-7.67-.05-.15.11-3.07.92-3.07,3.57,6.4,8.71,8.76,15.16,7.67Z"/>
            <path class="cls-5" d="M222.79,172.53c-2.72,3.67-4.37,5.21-8.27,7.16-1.43.72-2.61,1.15-4.14,1.53,1.12-1.9-2.47.1-2.3-3.07,3.67-.62,6.2-2.09,8.73-5.12,1.45,6.36,3.21.46,5.97-.51Z"/>
            <path class="cls-78" d="M282.52,142.34c.17,2.12,2.22,5.68,1.84,7.67-.2,1.02-12.22,14.49-13.1,14.84-.37.15-1.12-.09-1.61,0-.29.06-.62-.04-.92,0l-19.3-23.02c10.95-.13,22.22.87,33.08.51Z"/>
            <path class="cls-74" d="M220.95,150.53c1.29,7.61.66,16.78-4.14,22.51-2.53,3.03-5.06,4.5-8.73,5.12-6.45,1.09-11.6-1.28-15.16-7.67-2.14-3.84-5.37-13.57-1.38-16.88-.14,1.84-.24,5.97,0,7.67,1.7,11.94,15.69,21.71,23.43,9.72.35-.54.64-.93.92-1.53.68-1.36,2.94-5.77,3.22-6.91.25-1.01-1.22-.34-.92-2.05.09-.52,1.63-2.2,1.84-4.09.06-.51-2.08-6.21.92-5.88Z"/>
            <g>
              <path class="cls-83" d="M333.53,160.76c3.81,26.87,10.53,53.14,15.16,79.81-.08.02-.7.77-1.38.77l1.38,23.79c-.06.06-.41,1-.46,1.02-11.54,7.21-34.73,2.1-48.25,5.63-.93.24-1.8.87-2.76,0,.2-1.05-.03-2.28,0-3.07,2.18-1.42,15.03.91,16.08-1.28,3.41-7.07-13.21-4.52-16.08-2.81.06-2.72-.02-5.47,0-8.19.14-17,.3-34.17,0-51.16.7-12.76.46-25.59.46-38.37v-3.58c5.09-.87,10.2-2.83,16.08-3.07v104.12c1.01,1.23,2.32.94,3.22,1.28,2.41.9,5.29,1.15,7.81,1.53.03,0-.16.43.46.51,2.98.4,4.76.89,7.81,0,.88-.26.87-.49.92-.51s.42-.99.46-1.02c.35-.26,2.75-.24,3.22-1.79.33-1.09.02-7.43,0-9.21-.22-22.54-2.41-47.15-3.68-69.84-.5-9.03-1.24-18.05-1.38-27.12,1.48-.26.75,1.38.92,2.56Z"/>
              <path class="cls-82" d="M383.61,156.67c.04,7.31-.31,14.69-.46,22-23-10.78-19.46,45.55-9.42,48.09,2.87.73,5.69-2.08,8.04-.51-.27,1.2.19,3.26,0,4.6-1.57-.06-12.81,3.33-15.16,4.09-7.38-15.75-13.26-57.32-3.68-71.88,1.47-2.23,4.06-2.98,5.05-5.37,5.2-.49,10.36-1.46,15.62-1.02Z"/>
              <path class="cls-82" d="M383.15,178.67c-.2,9.55-.62,19.11-.92,28.65-.05,1.47-.19,1.65.92,2.56-1.48,1.35-.71,1.42-.92,3.07-.3,2.35.39,4.98-.46,7.42.02.1,1.3,1.24,1.38,1.28-1.25-.27-2.26,3.23-.46,3.07-.63.85-.63.25-.92,1.53-2.36-1.57-5.17,1.24-8.04.51-10.04-2.54-13.58-58.88,9.42-48.09Z"/>
              <path class="cls-76" d="M383.61,156.67c-5.26-.43-10.42.53-15.62,1.02-8.36.79-23.75,4.37-30.79,4.09-.21,0-1.95-1.92-3.68-1.02-.17-1.17.56-2.82-.92-2.56v-.51c13.77-1.83,33.36-3.8,46.41-7.16,1.38-.36,2.76-.64,4.14-1.02.81,2.16.45,4.85.46,7.16Z"/>
              <path class="cls-82" d="M297.23,205.27c.3,17,.14,34.16,0,51.16-4.18-7.56-9.38-10.83-17-12.79-.68-.18-4.18-.97-4.6-1.02,1-20.28.32-40.62.46-60.88,0-1.19-.01-2.39,0-3.58l20.68-.26c-.37,9.13.3,18.28.46,27.37Z"/>
              <path class="cls-85" d="M333.99,265.13c.02.49-.17,1.04.46,1.02-.04.03-.41,1-.46,1.02-.95-.28-.87.5-.92.51-2.3.41-5.4-.3-7.81,0-.62-.08-.43-.51-.46-.51l-1.84-108.47c2.73-.33,5.34-1.21,7.81-1.53l.92,107.7,2.3.26Z"/>
              <path class="cls-19" d="M322.96,158.71l1.84,108.47c-2.52-.38-5.4-.63-7.81-1.53v-105.4c1.95-.21,4.08-1.3,5.97-1.53Z"/>
              <path class="cls-29" d="M316.99,160.25v105.4c-.89-.33-2.2-.05-3.22-1.28v-104.12c.45-.02.93.19.92-.51.33-.03.69.68,2.3.51Z"/>
              <path class="cls-8" d="M337.2,161.78c4.46,26.46,10.39,52.71,14.24,79.3-1.23.89-2.6-.55-2.76-.51-4.63-26.67-11.36-52.94-15.16-79.81,1.72-.9,3.47,1.02,3.68,1.02Z"/>
              <path class="cls-49" d="M332.61,157.69v.51c.14,9.07.88,18.08,1.38,27.12-2.4-.2-.91.61-.92,1.28-.32,25.72-.18,52.88.92,78.54l-2.3-.26-.92-107.7c1.3-.17,1.74.52,1.84.51Z"/>
              <path class="cls-29" d="M333.99,185.32c1.26,22.68,3.45,47.3,3.68,69.84.02,1.78.33,8.12,0,9.21-.47,1.55-2.87,1.53-3.22,1.79-.63.02-.44-.53-.46-1.02-1.1-25.66-1.24-52.81-.92-78.54,0-.67-1.48-1.48.92-1.28Z"/>
              <path class="cls-4" d="M297.69,166.9c0,12.79.24,25.61-.46,38.37-.16-9.09-.83-18.24-.46-27.37l-20.68.26c.01-1.02-.03-2.05,0-3.07,7.4.68,13.46-9.05,21.6-8.19Z"/>
              <path class="cls-76" d="M297.69,163.32v3.58c-8.14-.86-14.19,8.87-21.6,8.19.05-1.6,1.22-4.28-.46-4.09.33-.36,1.46-2.85,2.3-3.58,4.03-3.51,14.32-3.17,19.76-4.09Z"/>
              <path class="cls-16" d="M351.45,241.08c.57,3.92,1.13,7.88,1.84,11.77-.55.74-.64,1.98-.92,2.56-2.37,4.87-1.23,4.01-2.3,8.19-.53,2.09-.94,1.11-1.38,1.53l-1.38-23.79c.68,0,1.3-.75,1.38-.77.16-.04,1.52,1.4,2.76.51Z"/>
              <path class="cls-78" d="M297.23,268.71c.05-1.18-.02-2.4,0-3.58,0-.17,0-.34,0-.51,2.87-1.71,19.49-4.25,16.08,2.81-1.06,2.19-13.9-.14-16.08,1.28Z"/>
              <path class="cls-4" d="M367.99,157.69c-1,2.39-3.58,3.14-5.05,5.37-9.59,14.56-3.7,56.14,3.68,71.88-4.9,1.58-9.91,3.88-14.7,5.88,2.46.74,13.3-4.71,14.47-4.35.8.24,2.57,6.12,3.45,7.16-4.65.93-13.48,5.08-16.54,9.21-.71-3.89-1.27-7.85-1.84-11.77-3.86-26.6-9.78-52.84-14.24-79.3,7.04.28,22.43-3.31,30.79-4.09Z"/>
              <path class="cls-67" d="M381.78,249.27c-9.98.83-19.72,3.66-29.41,6.14.28-.58.37-1.82.92-2.56,3.06-4.13,11.9-8.28,16.54-9.21,1.26-.25,10.15-1.14,10.8-1.02,1.37.25,1.18,4.18,1.15,6.65Z"/>
              <path class="cls-28" d="M374.88,254.9c-1.25,5.47-11.2,4.73-15.16,8.19-1.84,0-3.68,1.32-5.51,1.53-2.34.28-1.22-.3-1.84-.51,5.31-5.01,15.57-7.44,22.52-9.21Z"/>
              <path class="cls-8" d="M276.09,175.08c-.03,1.02.01,2.05,0,3.07-.01,1.19,0,2.39,0,3.58l-7.81,9.21c.09-3.42.29-7.43-.46-10.74,2.6-3.09,5.08-6.24,7.81-9.21,1.68-.18.51,2.49.46,4.09Z"/>
              <path class="cls-76" d="M275.63,242.62c-2.76-.37-6.92-.71-9.65-.51,1.35-16.97,1.82-34.13,2.3-51.16l7.81-9.21c-.14,20.26.54,40.6-.46,60.88Z"/>
            </g>
            <path class="cls-33" d="M207.62,161.78c.32.09.64.33.92.51,1.22.81,4.32,7.73,6.43,8.7-7.75,11.99-21.74,2.22-23.43-9.72,4.15.91,12.52-.5,16.08.51Z"/>
            <path class="cls-37" d="M215.9,169.46c-.28.6-.57,1-.92,1.53-2.12-.97-5.21-7.88-6.43-8.7h8.96c.33.2-1.32,6.56-1.61,7.16Z"/>
            <path class="cls-58" d="M265.52,196.06c-.42,15.51-.88,31.05-1.38,46.56-6.21.81-19.22,5.92-21.6,12.79-9.38,1.19-19.67-2.01-28.95-2.56,14.28-15.83,27.61-36.27,42.96-50.65,2.52-2.36,5.74-5.09,8.96-6.14Z"/>
          </g>
          <path class="cls-49" d="M340.88,97.83c1.35,12.7-.33,25.65.92,38.37-.36.24-1,1.69-2.07,2.05-4.1,1.35-31.2,5.56-35.61,5.63-2.34.03-3.79-.31-5.05-2.56l1.15-2.05c.66,1.83,7.06.7,8.04-.51l30.79-4.35c-.5-13.71.47-27.51.46-41.19,1.73.24,1.25,3.38,1.38,4.6Z"/>
        </g>
        <path class="cls-31" d="M265.58,235.45c-.25,13-.5,26-.75,39-9.95-4.14-20.73-5.81-31.32-4.85,3.48,5.57,10.73,5.34,16.79,5.98,5.77.61,11.43,2.55,16.51,5.67,2.54,1.56,5.41,3.48,8.15,2.42.75-11.05,1.5-22.11,2.25-33.16.47-6.87.93-13.85-.29-20.6-.02.58-.54,1.82-.55,2.4-.36,14.86-.72,29.73-1.08,44.59-.1,4-.18,8.1,1,11.87,4.25-7.47,12.55-10.44,18.97-15.64.71-.58,1.42-1.22,1.82-2.09.45-.99.44-2.16.41-3.27-.27-11.89-.53-23.79-.8-35.68-.03-1.18-.07-2.42-.65-3.41-.45-.77-1.17-1.28-1.89-1.73-3.03-1.9-6.4-3.11-9.85-3.53"/>
        <path class="cls-46" d="M267.9,236.09c-.76,12.51-1.52,25.02-2.27,37.53-7.28-1.92-14.7-3.16-22.17-3.69-.38-3.82-.73-7.82.56-11.39,1.32-3.64,4.2-6.3,7.24-8.27,5.5-3.55,9.34-5.73,15.35-3.41"/>
        <path class="cls-70" d="M249.9,252.14c4.75-3.57,10.35-5.71,16.07-6.15-.41-1.4-.82-2.81-1.23-4.21-6.75.65-13.63,2.47-19.02,7.04-5.38,4.57-8.94,12.37-7.48,19.73,1,4.96,4.92-7.03,4.48-6,1.86-4.34,3.43-7.59,7.18-10.4Z"/>
        <path class="cls-46" d="M205.71,243.34c4.38-6.94,9.28-13.48,14.63-19.51-4.46-7.81-11.7-13.58-19.78-15.77-2.3-.62-4.75-.96-7.03-.22-3.87,1.27-6.39,5.3-8.6,9.07.89.94,2.62.48,3.03-.82.75-2.38-1.69-2.83-2.95-2.18.55,4.29,21.78,27.7,20.69,29.43Z"/>
        <path class="cls-22" d="M187.32,165.9c.82,3.28,2.16,6.51,4.42,8.81,2.06,2.11,4.72,3.31,7.38,4.27,3.69,1.33,7.48,2.29,11.32,2.86,2.56.38,5.21.58,7.71-.14,6.83-1.96,10.72-10.11,12.06-17.82,1.24-7.13.53-15.67-4.76-19.92-3.42-2.75-7.92-3.02-12.14-3.19-5.99-.24-17.02-3.23-22.19.78-6.12,4.75-5.5,17.54-3.79,24.34Z"/>
        <path class="cls-75" d="M212.09,157.13l2.2-1.05c-2.82-4.03-6.36-7.44-10.35-9.96.7.61-.49,1.61-1.38,1.66-15.1.97-30.39-3.95-45.26-.82,9.53,0,19.44-2.79,29.04-3.3,9.96-.53,19.94-.46,29.88.22,6.19.42,22.46-.25,16.42,11.78-3.75,7.47-14.89,2.35-20.55,1.46Z"/>
        <path class="cls-35" d="M277.84,218.34c-.63,17.98-1.25,35.96-1.88,53.94-.08,2.43.04,5.33,1.88,6.63,6.05-2.99,11.94-6.36,17.65-10.08,1.22-18.96-1.2-37.96-3.62-56.78"/>
      </g>
      <path class="cls-55" d="M157.02,192.96c16.99,20.08,33.97,40.16,50.96,60.24,29.13-35.68,58.26-71.36,87.39-107.05.63-.62.48,1.54-.06.82"/>
      <path class="cls-55" d="M156.13,196.54c-.33-18.24-.16-36.49.52-54.71.41,1.91.35,3.95-.18,5.83"/>
      <path class="cls-55" d="M297.57,171.17c-.77,33.35-.89,66.73-.38,100.09-7.37,5.86-15.52,10.51-24.1,13.73,1.17-.42,2.33-.85,3.5-1.27-17.44-7.12-36.05-10.67-54.62-10.39-24.6.36-51.44,6.76-72.2-7.94,2.42.21,4.83.42,7.25.63,1.2-22.9,2.4-45.8,3.6-68.7-.15,1.94-1.34,3.73-2.95,4.47"/>
      <path class="cls-55" d="M275.22,286.2c-.68-.12-.29,1.42.37,1.18s.8-1.2.78-1.97c-1.16-38.29-1.22-76.63-.19-114.93-.28-1.18-.55-2.37-.83-3.55"/>
      <path class="cls-55" d="M277.63,164.49c34.17.06,71.44-13.69,105.6-13.63.11,30.59-2.27,74.99-.94,105.55l1.72-5.18c-14.99,8.43-30.79,15.07-47.04,19.76-.58,1.05,1.47.17,1.41-1.06-1.84-36.6-3.67-73.2-5.51-109.79"/>
      <path class="cls-55" d="M396.94,132.63c-35.46-3.65-71.59,21.67-105.41,9.28-56.04.01-112.08.02-168.11.03"/>
      <path class="cls-55" d="M118.43,144.43c38.3-38.01,62.47-73.02,100.77-111.04-1.76-.82-4.01-1.62-4.92,2.49,36.29-.74,76.88-19.03,112.86-19.64-2.01.99-4.44.85-6.35-.36,11.18,22.19,24.58,42.99,39.87,61.9"/>
      <path class="cls-55" d="M230.34,143.08c28.01-43.06,57.78-84.71,89.18-124.78-.17,1.61-.34,3.22-.5,4.83"/>
      <path class="cls-55" d="M311.81,31.59c-1.67-2.03-3.34-4.06-5.01-6.09,10.95,12.49,20.82,26.14,29.45,40.71-.55-1.11-1.1-2.21-1.65-3.32"/>
      <path class="cls-55" d="M284.47,65.48c-1.62.21-3.12,1.33-3.9,2.91,22.02-4.6,44.07-9.2,66.33-12.03,3.45-.44,7.02-.82,10.33.36-1.4-.09-2.82.65-3.65,1.91"/>
      <path class="cls-55" d="M355.83,53.63l-2.45-2.95c18.99,28.8,38.99,56.78,59.93,83.86,2.86,3.7,5.87,7.7,6.36,12.55-12.48.01-24.96-.84-37.34-2.56,1.83-1.5,4.31-1.97,6.48-1.21"/>
      <path class="cls-55" d="M343.74,72.95c-1.29-.33-2.58-.66-3.87-.98,12.96,16.49,24.67,34.2,34.97,52.88,7.23,13.12,13.95,26.97,24.24,37.25-1.04-1.75-2.64-3.07-4.44-3.68"/>
      <path class="cls-55" d="M289.03,149.17c-.91.71-1.82,1.42-2.72,2.14,28.44-36.96,56.87-73.92,85.31-110.87-2.26,2.32-4.53,4.64-6.79,6.96"/>
      <path class="cls-55" d="M186.95,213.01c6.99,9.42,13.99,18.85,20.98,28.27,20.15-29.43,43.12-56.47,68.38-80.53,3.02-2.88,6.21-5.92,7.5-10.11s-.25-9.8-4.1-10.91"/>
      <path class="cls-55" d="M187.15,212.63c-.95-3.76,2.92-6.66,6.18-8.12,6.65-2.98,14.6-5.56,20.63-1.25,3.66,2.62,6.12,7.53,10.37,8.55,15.52-14.96,30.72-30.32,45.59-46.07-6.8-5.12-11.78-13.16-13.66-22.05-.35-1.63-.58-3.41.02-4.95s2.34-2.63,3.67-1.84c1.33.79,1,3.65-.5,3.63"/>
      <path class="cls-55" d="M168.31,98.56c6.37,9.49,3.08,25.04-6.43,30.37,6.69-1.05,13.48-.43,20.21.2,12.71,1.18,25.41,2.36,38.12,3.55,1.45-16.58,15.66-30.49,30.61-29.96-7.33,12.66-16.59,23.94-27.26,33.2-3,2.61-25.67-4.04-30.26-4.52-10.75-1.11-21.55-1.72-32.34-1.79-28.24-.2-4.12-21.03,7.35-31.05Z"/>
      <path class="cls-55" d="M347.54,260.52c7.24-4.36,15.11-7.4,23.22-8.94-.22-4.88-1.03-9.73-2.41-14.37-.37-1.26-.87-2.61-1.92-3.23-1.03-.61-2.3-.33-3.42.01-4.22,1.29-8.25,3.32-11.91,5.99-.79-21.57-12.11-42.49-8.19-63.64,4.53-.17,9.3-.42,13.12-3.13,3.82-2.71,6.08-8.81,3.51-12.97-4.27.15-22.67-1.77-23.87,2.81-.52,2,3.17,6.38,3.8,8.31,1.65,5.09,1.84,10.79,2.42,16.15,2.64,24.26,4.53,48.61,5.66,73.01Z"/>
      <path class="cls-55" d="M336.11,269.52c-7.25-.55-14.43-2.11-21.34-4.63.07-25.57.13-51.18-1.9-76.65-.35-4.34-.75-8.73-.09-13.02.42-2.74,1.27-5.57.57-8.24,0,1.39-.01,2.78-.02,4.17"/>
      <path class="cls-55" d="M343.19,76.1c0,.25-.02.49-.02.74-.71,21.33.41,42.73,3.34,63.83"/>
      <path class="cls-55" d="M232.68,47.56c-.19-1.29-1.55-2.04-2.72-1.87-1.17.17-2.16,1.01-3.06,1.85-7.12,6.63-12.47,15.59-15.21,25.46-1.1,3.98-1.72,8.55.24,12.09,1.69,3.06,4.96,4.61,8.15,5.16,9.71,1.66,19.52-4.69,25.14-13.67,5.62-8.97,7.7-20.13,8.46-31.04-.56,1.06-1.55,1.83-2.63,2.06"/>
      <path class="cls-55" d="M207.73,96.72c7.74-12.79,16.1-25.12,25.03-36.9-.48,1.72-1.25,3.34-2.24,4.76"/>
      <path class="cls-55" d="M215.91,103.38c6.78-13.77,14.12-27.19,22.02-40.21.29,1.71-1.29,3.45-2.82,3.13"/>
      <path class="cls-55" d="M265.11,274.13c-6.76-3.81-14.47-5.51-22.03-4.86-1.47-6.43.1-13.63,4.06-18.6,3.96-4.96,10.19-7.55,16.11-6.68.77-16.56.43-33.81,2.53-50.18,4.83,7.12.76,28.69.51,37.66-.39,14.22-.79,28.44-1.18,42.66Z"/>
      <path class="cls-55" d="M380.28,179.41c-3.74-1.66-8.18.5-10.65,4.03-2.47,3.53-3.35,8.12-3.77,12.57-.7,7.47-.17,15.53,3.8,21.61s12.22,9.08,17.74,4.77c-.65-1.56-1.29-3.11-1.94-4.67"/>
      <path class="cls-55" d="M361.18,199.35c7.37.63,14.84-.13,21.98-2.24"/>
      <path class="cls-55" d="M361.93,207.91c6.6.64,13.35-.74,19.3-3.96"/>
      <path class="cls-55" d="M180.32,222.38c-2.21,7.11-.1,15.62,5.06,20.47s13.05,5.73,18.97,2.11c-.65-.07-1.29-.14-1.94-.21"/>
      <path class="cls-55" d="M174.31,231.22c-1.94-.1-2.47-.08-1.6.06,4.74-.77,16.45-2.14,17.55-1.76"/>
      <path class="cls-55" d="M151.22,195.63c-.69-1.38-2.21-1.92-3.6-2.27-12.38-3.1-25.85-.34-36.42,7.45-1.96,1.45-4,4.35-2.47,6.34.62.8,1.61,1.06,2.54,1.27,13.61,3.06,27.61,4,41.45,2.78,1.93-.17,4.12-.55,5.18-2.35,1.11-1.89.41-4.46-.69-6.35-2.89-4.98-8.21-7.75-13.5-8.36-5.3-.61-10.63.7-15.72,2.43,2.85.22,5.75-.37,8.35-1.69"/>
      <path class="cls-55" d="M106.69,204.15l.12-2.96c.74,9.25.93,18.55.58,27.83.07-2.02.79-3.94.74-5.95-7.39,2.85-15.86,1.41-22.92,6.23,18.57,7.6,38.76,10.25,58.4,7.65-.91.63-1.82,1.25-2.73,1.88"/>
      <path class="cls-55" d="M86.79,230.85c.38.05.14-.8-.22-.66s-.45.67-.46,1.1c-.18,4.6-.37,9.21-.55,13.81-.1,2.61-.02,3.62,2.19,4.46,12.33,4.68,25.58,9.36,38.14,5.52,1.89-.58,3.75-1.34,5.7-1.54,3.65-.36,7.65,1.26,10.81-.79-.25.15-.51.3-.76.45"/>
      <path class="cls-55" d="M115.63,243.19c9.11-4.93,28.9-.63,38.66.61,6.39.81,32.17,6.54,18-8.23-6.67-6.95-14.2-4.03-21.93-2.66-12.56,2.23-23.07,3.97-34.73,10.28Z"/>
      <path class="cls-55" d="M116.53,241.38c0,15.33.01,30.66.02,45.99-.67-2.32-.33-4.97.88-7"/>
      <path class="cls-55" d="M118.84,287.06c-1.25-.97-2.73-1.56-4.25-1.67.87,3.11,3.86,4.77,6.63,5.84,17.19,6.68,34.93,4.9,49.89-6.65.34,1.04.69,2.09,1.03,3.13,1.08-14.9,2.16-29.79,3.24-44.69"/>
      <path class="cls-55" d="M113.4,250.7c-.17-.42-.81.09-.65.52s.65.54,1.06.59c20.33,2.66,40.9,3.05,61.31,1.16-2-1.6-5.16-.95-6.51,1.36"/>
      <path class="cls-55" d="M108.97,265.06l-2.08-.45c-.68,2.06,1.58,3.78,3.47,4.39,8.49,2.74,17.54,1.46,26.3.16,12.72-1.88,25.43-3.76,38.15-5.65-.93-.33-1.85-.66-2.78-.99"/>
      <path class="cls-55" d="M108.89,276.41c21.87,8.55,46.57,4.76,67.56-6.2,1.81-.95,3.73-2.09,4.57-4.11.84-2.02-.2-5.05-2.2-5.05"/>
      <path class="cls-55" d="M99.66,217.13c17.65,3.66,35.61,5.46,53.57,5.38.78,0,1.69-.07,2.15-.77s-.23-2.03-.9-1.56"/>
      <path class="cls-55" d="M80.59,236.99c15.84,7.82,32.93,12.47,50.23,13.66.49-1.08-.02-2.58-1.04-3.02"/>
      <path class="cls-55" d="M383.6,210.71c6.42-2.15,12.96-4.32,19.67-4.2,6.7.12,13.71,2.92,17.64,8.96.5.77.96,1.63.99,2.58.03.97-.41,1.89-.93,2.66-3.01,4.41-8.67,5.07-13.64,4.94-9.5-.24-18.96-2.01-28.01-5.23,3.88-1.81,8.37-1.94,12.33-.34"/>
      <path class="cls-55" d="M411.36,245.63c-16.41-4.13-33.73-3.67-49.94,1.33-3.74,1.15-8.14,3.59-8.12,7.91,7.1,3.71,15.05,4.85,22.88,5.47,9.03.72,18.1.81,27.14.28,6.4-.37,13-1.13,18.61-4.6-11.79-5.76-24.44-9.35-37.27-10.58,2.56.05,5.12.1,7.69.15"/>
      <path class="cls-55" d="M422.13,215.88c.27-.3-.27-.78-.59-.54s-.35.73-.35,1.15c0,16.39,0,32.78.01,49.17.3-1.03.59-2.06.89-3.09"/>
      <path class="cls-55" d="M381.43,231.22c14.68,1.02,29.36,2.03,44.04,3.05,1.46.1,3.07.16,4.23-.84s1.25-3.48-.14-3.99c-.76.59-1.52,1.18-2.27,1.78"/>
      <path class="cls-55" d="M380.99,236.61c-.69,1.04-.25,2.61.63,3.44s2.08,1.1,3.22,1.32c12.55,2.46,25.47,2.58,38.06.35-.58-1.29-1.92-2.1-3.21-1.96"/>
      <path class="cls-55" d="M350.85,254.01c-.66,8.36-.44,16.81.65,25.12.6-1.48.8-3.16.56-4.76-.66-.16-2.07,1.38-2.73,1.22,21.63,14.15,50.48,13.25,71.35-2.23.55-.41,1.12-.86,1.41-1.52.31-.72.24-1.57.15-2.37-.41-3.93-.83-7.87-1.24-11.8-.17,2.78-2.62,5.13-5.12,4.9"/>
      <path class="cls-55" d="M348.11,265.22c3.75,4.18,9.33,5.38,14.57,6.31,11.22,1.98,22.6,3.57,33.91,2.38,11.31-1.2,22.64-5.39,31.14-13.78-1.57.78-3.46.7-4.97-.21"/>
      <path class="cls-55" d="M328.52,276.9c-.74-.27-1.48-.54-2.21-.81,10.22-1.49,20.77-.12,30.4,3.96-1.79-.24-3.59-.49-5.38-.73"/>
      <path class="cls-55" d="M420.45,262.52l-2.62-1.3c14-5.83,29.4-5.74,44.3-4.37,14.9,1.37,29.8,3.96,44.71,2.88-.72-.71-1.45-1.42-2.17-2.13,1.15-.64,2.54,1.33,1.71,2.43"/>
      <path class="cls-55" d="M81.63,246.41c-12.14-3.19-25.15-2.14-36.74,2.98,18.44,12.66,42.99,6.06,63.04,15.2-22.81,4-75.97-.5-106.53,7.93,8.01-9.74,20.63-14.46,32.3-12.1"/>
      <path class="cls-55" d="M85.91,32.62c.76-9.84,8.97-18.25,17.84-18.27,8.87-.02,17.11,8.35,17.91,18.19-1.22-5.15-1.63-10.53-1.21-15.83.16-2.04.57-4.3,2.07-5.49,1.85-1.47,4.41-.63,6.52.29,7.93,3.45,15.71,7.34,23.29,11.64-1.5-7.23-1.75-14.79-.73-22.13,10.55,9.86,18.51,23.13,22.63,37.76-2.77-.66-5.32-2.43-7.06-4.92,8.42,3.93,15.88,10.38,21.38,18.48-4.5,7.07-12.89,9.36-20.58,10.7-17.34,3.03-34.93,3.87-52.47,4.72,4.88-3.73,11.65-4.1,16.84-.94-8.23,12.94-23.59,19.72-37.55,16.58-13.96-3.14-25.75-16.02-28.83-31.5-2.26-11.35.19-24.01,7.28-32.55,7.08-8.54,18.87-12.23,28.59-7.99,9.72,4.24,16.23,16.74,13.78,28.04-6.47-.65-12.2-6.63-13.21-13.77"/>
      <path class="cls-55" d="M387.2,30.18c3.35.56,7.62-2.79,6.09-6.15-.7-1.56-2.32-2.26-3.8-2.83-4.48-1.73-9.17-3.49-13.86-2.71s-9.28,5-9.15,10.27c.05,2.16.87,4.21,1.93,6.02,4.56,7.75,14.18,11.24,21.97,7.97-3.41-2.21-8.43-.12-9.7,4.05,3.89,5.23,10.28,7.18,16.32,8.11,7.22,1.11,14.58,1.18,21.81.19,2.6-.36,5.67-1.28,6.47-4.06.42-1.47.06-3.06.2-4.6.38-4.23,4.36-6.9,8.1-7.79s7.74-.72,11.19-2.55c.9-.48,1.78-1.13,2.22-2.13.65-1.48.15-3.24-.42-4.76-1.56-4.19-3.55-8.18-5.92-11.86-2.57-3.98-6.09-7.89-10.49-8.04-2.13-.08-4.2.75-6.2,1.57-5.74,2.34-14.27,7.96-20.49,7.52-4.64-.33-6.51-4.38-10.48-5.96-12.96-5.17-19.11,15.67-5.81,17.73Z"/>
      <path class="cls-55" d="M204.7,296.35c-1.27-.48-2.55-.96-3.82-1.44,18.82,1.04,37.64,2.07,56.46,3.11,6.89.38,13.86.75,20.61-.85-10.79,2.36-21.9,2.94-32.84,1.7,6.73,3.49,14.5,4.45,21.75,2.67"/>
      <path class="cls-55" d="M231.96,60.88c-.35-.46-.13-1.29.38-1.46-1.05-1.51-2.09-3.01-3.14-4.52-3.29,5.14-29.3,39.59-26.89,43.82,1.05,1.84,10.59,1.27,12.66,1.82,7.5,1.99,12.93,2.96,19.75-2.62,4.66-3.82,8.09-9.19,11.14-14.66,5.57-9.99,10.29-21.33,9.32-33.04-1.96-.5-3.98-.7-5.99-.61.89.79,2.03,1.23,3.17,1.22"/>
      <path class="cls-55" d="M215.62,103.66c-.18.93.9,1.65,1.72,1.38s1.35-1.12,1.82-1.92c7.85-13.39,14.85-27.4,20.93-41.89-.93.89-1.86,1.79-2.78,2.68"/>
      <path class="cls-55" d="M182.73,222.24c-.23-.63-.92.34-.83,1.02.32,2.52.64,5.04.95,7.56-1.5-3.8-5.47-6.17-9.14-5.45,2.93,3.37,6.82,5.7,10.97,6.57-.54-1.62-3.07-.8-3.36.9s.78,3.3,1.87,4.53c2.16,2.45,4.64,4.55,7.35,6.2,1.26.77,2.67,1.45,4.09,1.17,1.41-.28,2.66-1.96,2.15-3.45"/>
      <path class="cls-55" d="M297.95,166.93l-2.3-.68c6.96.03,13.92-.18,20.87-.63-6.53.81-13.38,1.75-18.71,6.02,5.51,1.51,11.17,2.36,16.85,2.55-2.52,1.36-5.34,2.02-8.13,1.91,1.34.9,2.98,1.25,4.52.96"/>
      <path class="cls-55" d="M169.58,281.21c37.56,2.28,75.11,4.56,112.67,6.85,9.48.58,19.04,1.16,28.22,3.61-11,3.48-23.43,2.08-33.4-3.76,15.6,1.53,31.26,2.35,46.93,2.46,6.68.04,13.5-.06,19.81-2.27,3.53-1.24,6.84-3.12,9.72-5.53"/>
    </g>
  </g>
</svg>