<?xml version="1.0" encoding="UTF-8"?>
<svg id="Ebene_2" data-name="Ebene 2" xmlns="http://www.w3.org/2000/svg" xmlns:xlink="http://www.w3.org/1999/xlink" viewBox="0 0 438.99 317.22">
  <defs>
    <style>
      .cls-1 {
        fill: #fdf87b;
      }

      .cls-2 {
        fill: #558000;
      }

      .cls-3 {
        fill: #fec8ff;
      }

      .cls-4 {
        fill: #dfdfdd;
      }

      .cls-5 {
        fill: #ebaa0f;
      }

      .cls-6 {
        fill: #fda6ba;
      }

      .cls-7 {
        fill: #eb747f;
      }

      .cls-8 {
        fill: #ff9d00;
      }

      .cls-9 {
        fill: #fc8991;
      }

      .cls-10 {
        fill: #fddc4a;
      }

      .cls-11 {
        fill: #c7c7c7;
      }

      .cls-12 {
        fill: #fdc2eb;
      }

      .cls-13 {
        fill: #abadaa;
      }

      .cls-14 {
        fill: #da91ff;
      }

      .cls-15 {
        fill: none;
        stroke: #000;
        stroke-miterlimit: 10;
      }

      .cls-16 {
        fill: #ffba21;
      }

      .cls-17 {
        fill: #fefefe;
      }

      .cls-18 {
        fill: #6d9f00;
      }

      .cls-19 {
        fill: #ffd621;
      }

      .cls-20 {
        fill: url(#Unbenannter_Verlauf_270);
      }

      .cls-21 {
        fill: url(#Unbenannter_Verlauf_236);
      }

      .cls-22 {
        fill: url(#Unbenannter_Verlauf_232);
      }

      .cls-23 {
        fill: #fcbf21;
      }

      .cls-24 {
        fill: #e6d6c9;
      }

      .cls-25 {
        fill: #e4a8ff;
      }

      .cls-26 {
        fill: #8bc106;
      }

      .cls-27 {
        fill: #b1d275;
      }

      .cls-28 {
        fill: #e78ed8;
      }

      .cls-29 {
        fill: #e4ded0;
      }
    </style>
    <linearGradient id="Unbenannter_Verlauf_236" data-name="Unbenannter Verlauf 236" x1="258.4" y1="233.45" x2="318.5" y2="239.26" gradientUnits="userSpaceOnUse">
      <stop offset="0" stop-color="#fdd740"/>
      <stop offset="1" stop-color="#fcbe18"/>
    </linearGradient>
    <linearGradient id="Unbenannter_Verlauf_270" data-name="Unbenannter Verlauf 270" x1="162.66" y1="19.2" x2="210.2" y2="136.39" gradientUnits="userSpaceOnUse">
      <stop offset="0" stop-color="#fe9bb4"/>
      <stop offset="1" stop-color="#fd837d"/>
    </linearGradient>
    <linearGradient id="Unbenannter_Verlauf_232" data-name="Unbenannter Verlauf 232" x1="85.92" y1="171.49" x2="63.05" y2="183.95" gradientUnits="userSpaceOnUse">
      <stop offset="0" stop-color="#f7a809"/>
      <stop offset="1" stop-color="#fcc633"/>
    </linearGradient>
  </defs>
  <g id="versicherungen">
    <g>
      <path class="cls-11" d="M140.78,142.18c-1.27-.88-2.53-1.77-3.8-2.65,2.31,9.92,5.27,19.7,8.85,29.26.57,1.53,1.28,3.19,2.8,3.92,1.31.63,2.88.38,4.32.12,22.1-4.05,44.2-8.1,66.3-12.15.05,9.98.1,19.96.15,29.93,34.53.88,69,3.76,103.17,8.63l5.17-40.11c-7.29-.39-12.6-6.61-16.62-12.46-10.32-14.99-18.73-31.18-24.99-48.11-1.15-3.1-2.44-6.49-5.39-8.15-1.83-1.03-4.03-1.23-6.14-1.38-37.04-2.69-74.49-.16-110.77,7.5-13.38,2.82-27.95,7.3-34.79,18.7"/>
      <path class="cls-24" d="M175.82,275.57c-18-2.98-36.45-.31-54.5,2.37-14.43,2.14-28.86,4.27-43.29,6.41,29.28,6.83,60.42,1.25,90.06,6.56-2.13,1.86-5.05,2.89-7.96,2.83,3.34-.7,6.81-.83,10.19-.39,1.15,8.44,10.97,13.01,19.64,15.47,40.77,11.59,84.6,9.78,126.59,3.04-15.74-6.87-31.15-14.41-46.16-22.6,48.06,13.09,99.3-2.77,149.3-1.06-34.38-2.2-68.76-4.4-103.15-6.59-12.62-.81-25.27-1.62-37.71-3.74,1.38.38,2.76.77,4.14,1.15"/>
      <g id="Generatives_Objekt" data-name="Generatives Objekt">
        <path class="cls-4" d="M118.2,299.73l-.48.46c-16.97-2.97-59.6-4.3-76.47-1.84-4.53.66-12.11,2.06-7.19,7.37-3.26.39-31.69-.81-31.4-3.91,3.3-2.27,8.65-3.25,12.7-3.91,31.4-5.11,71.58-2.27,102.84,1.84Z"/>
        <path class="cls-17" d="M142.17,300.19c.44,2.89,3.53,3.84,5.75,5.06-10.59-1.15-20.16-3.31-30.2-5.06l.48-.46c8.52,1.12,15.6,3.43,23.97.46Z"/>
        <path class="cls-10" d="M61.86,213.17c2.61,4.59-.73,8.2,6.95,7.6-7.27.7-6.18,3.91-7.91,9.44-.54-5.83.55-8.28-6.47-8.98,6.06-.35,6.88-2.68,7.43-8.06Z"/>
        <path class="cls-29" d="M234.7,297.89c3.98-.07,8,0,11.99,0-3.27,4.87-11.43,2.64-16.06,2.76-1.8.05-5.17,1.73-6.71,1.38-.47-.11-.01-1.29-.48-1.38-2.26-.44-5.73.88-8.63.92-.35,0-.13-.93-.48-.92-1.83.04-6.62,1.45-7.67.92-.27-.14-.53-2.23-.96-2.3-.34-.06-.12.89-.48.92-2.72.2-5.56,1.25-7.91,0,4.29-.36,8.64-1.45,12.94-1.84,1.27-.03,2.56.03,3.84,0,1.11-.03,2.24.02,3.36,0,1.75-.03,3.52.03,5.27,0,1.59-.02,3.36-.44,4.79-.46,2.39-.03,4.8.04,7.19,0Z"/>
        <g>
          <path class="cls-17" d="M201.14,308.02c-4.78,0-9.61.11-14.38,0-13.53-.31-25.48-1.31-38.83-2.76-2.22-1.22-5.31-2.18-5.75-5.06,2.85-1.01,2.41-2.87,7.67-2.76,7.74.15,18.46,2.37,28.29,2.3-.21,1.38,1.28.9,2.16.92,3.85.11,7.47-.26,11.27-.46,1.44.88,3.91,1.05,5.27,0,.16-.01.32.01.48,0,2.35,1.25,5.19.2,7.91,0,.36-.03.14-.98.48-.92.43.07.69,2.17.96,2.3,1.05.53,5.84-.88,7.67-.92.35,0,.12.93.48.92,2.9-.04,6.37-1.36,8.63-.92.47.09,0,1.28.48,1.38,1.54.35,4.91-1.33,6.71-1.38,4.64-.13,12.79,2.11,16.06-2.76,1.42,0,3.64.37,4.79-.46,2.23,0,4.48,0,6.71,0,1.75,0,4.22.38,5.75-.46,5.23-.17,10.61-.46,15.82-.92,4.88-.43,9.81-1.17,14.62-1.84l-.72-.92c38.44-7.13,81.18-8.1,120.58-8.29,7.1-.03,14.32.04,21.33,1.15-23.01,5.04-46.76,8.08-70.24,10.82-53.36,6.22-110.44,11.02-164.2,11.05Z"/>
          <path class="cls-4" d="M293.67,293.29l.72.92c-4.81.67-9.74,1.41-14.62,1.84-.14-1.07.16-.82.96-.92,4.39-.55,8.59-1.03,12.94-1.84Z"/>
          <path class="cls-17" d="M201.14,308.02h-14.38c4.78.11,9.6,0,14.38,0Z"/>
          <path class="cls-29" d="M196.82,300.19c-1.36,1.05-3.83.88-5.27,0,1.74-.09,3.54.13,5.27,0Z"/>
        </g>
        <g>
          <path class="cls-4" d="M298.94,262.44c-1.12,1.62-6.74,6.26-8.39,6.45-2.36.26-2.93-1.72-5.03-.46-.7-.79-2.2-1.97-2.88-2.76-.08-.09.08-.37,0-.46,5.25.78,10.88-2.18,16.3-2.76Z"/>
          <path class="cls-10" d="M85.6,245.86c-3.79,2.11-2.46,6.97-4.55,10.13-1-5.99,2.27-9.85-5.51-11.74,2.33.06,3.82.9,5.75-.69.15-.13.18,0,.48-.46s.38-1.75.48-2.3c.67.01.45-.48.48-.92.02-.3-.02-.62,0-.92.67.01.45-.48.48-.92.02-.3-.01-.62,0-.92,1.31-.92,1.04.37.96,1.15-.36,3.44-1.45,4.7,1.44,7.6Z"/>
          <path class="cls-17" d="M81.28,243.56l.48-.46c-.3.45-.33.33-.48.46Z"/>
          <path class="cls-17" d="M82.24,240.8c.07-.4-.22-.94.48-.92-.03.44.19.94-.48.92Z"/>
          <path class="cls-17" d="M176.21,50.19c-.11.15.28.97-.48.92-.04-.39-.35-.47-.48-.92h.96Z"/>
          <path class="cls-17" d="M82.72,238.96c.02-.44-.18-.94.48-.92-.03.44.19.94-.48.92Z"/>
          <polygon class="cls-4" points="298.94 262.44 299.18 261.98 299.42 262.21 299.18 262.44 298.94 262.44"/>
          <g>
            <path class="cls-21" d="M253.39,222.84c13.69.8,62.63,1.82,71.67,8.75,8.55,6.54-13.56,11.25-17.74,13.35l-17.98,3.22c-1.03-.13-2.37-.27-3.36-.46-9.04-1.75-35.63-15.94-38.83-24.4,1.57-.47,4.6-.56,6.23-.46Z"/>
            <path class="cls-5" d="M330.1,243.56c-10.12,5.23-29.46,6.08-40.75,4.6l17.98-3.22c4.18-2.1,26.29-6.81,17.74-13.35-9.05-6.92-57.98-7.95-71.67-8.75h86.06c2.25,9.4-2.92,14.55-9.35,20.72Z"/>
            <path class="cls-10" d="M268.26,218.7c14.82.41,29.74,1.58,44.59,1.84,4.52.08,9.12-.02,13.66,0,.37,0-.01-.92.72-.92.05,0-.15.92.24.92,3.2-.03,6.39.05,9.59,0,.12,0,1.81.94,1.92.92,1.22-.24.47-1.61,1.44-1.84.82-.2,11.66.31,13.18.46l2.88,4.6c-5.21-.05-10.36.75-15.58.46.41,7.77-3.54,14.68-10.79,18.42,6.43-6.16,11.6-11.32,9.35-20.72h-86.06c-1.64-.1-4.67,0-6.23.46-.56-1.47-.58-2.87-.96-4.37.62-2.32,4.74.22,5.99.23,5.27.05,10.7-.61,16.06-.46Z"/>
            <path class="cls-23" d="M327.23,207.19l-14.38,13.35c-14.85-.26-29.77-1.43-44.59-1.84-.03-5.94-.8-12.4,4.55-16.57l54.41,5.06Z"/>
            <path class="cls-5" d="M327.23,219.62c-.73,0-.35.92-.72.92-4.54-.02-9.15.08-13.66,0l14.38-13.35.96.23-.96,12.2Z"/>
          </g>
          <g>
            <path class="cls-10" d="M367.5,213.17c-.99-2.84.13-5.5-.48-8.06-.43-1.8-2.88-2.9-2.88-3.22,0-.23,2.37-2.04,2.88-3.68,1.18-3.84.69-7.9,2.4-11.74.7,7.29-2.54,13.06,7.19,14.04-9.1-1.02-7.63,6.53-9.11,12.66Z"/>
            <path class="cls-10" d="M369.41,231.59c4.68-2.81,3.76-7.16,3.84-11.97,1.59,2.49.67,5.06,1.92,7.6.37.76,2.25,1.06,2.4,1.38s-2.26,5.2-2.4,6.91c-.16,1.92.86,4.92.96,6.91-2.4-1.76-1.57-7.97-3.36-9.67-.61-.58-2.63-1.07-3.36-1.15Z"/>
            <path class="cls-29" d="M358.87,225.14c-.24-.78-1.7-.45-2.4-.46l-2.88-4.6c3.11.31,4.21.09,5.75,3.45.53,1.14-.52,1.54-.48,1.61Z"/>
            <g>
              <path class="cls-4" d="M342.09,157.92c1.76.25,1.59-.55,3.12-1.84l-2.4,5.52c9.95,4.36,20.02,9.38,28.05,16.57-3.88,1.26-29.62-2.18-30.92-1.38-.52.31.18,1.79-.96,2.3-.99.44-1.82-.49-1.92-.46-8.19,2.4-3.38.7-6.71-.46-1.31-.46-1.27.96-1.44.92-.21-.05-1.41-2.8-1.68-3.22-1.4-2.19-3.62-5.29-4.79-7.37-2.5-4.43-3.56-10.46-7.67-13.81,1.78-2.25,5.08-5.45,7.19-8.29,4.81,1.69,15.92,10.91,20.14,11.51Z"/>
              <path class="cls-17" d="M354.55,146.87l-.24-2.3-21.33-13.81c.98-1.47,1.92-3.1,2.88-4.6,4.96-.05,22.53,15.99,24.21,16.11.94.07,4.77-3.26,5.03-3.91.99-2.47-21.56-17.36-24.45-19.57,1.13-1.83,2.2-3.68,3.36-5.52,3,2.44,23.95,19.2,25.65,18.88.41-.08,2.45-2.58,3.12-2.99l-28.29-16.81c.59-.93,1.22-2.56,1.92-3.68,5.13,1.12,30.46,9.54,31.64,13.58,1.64,5.64-13.09,17.86-17.5,21.41-1.74,1.4-5.23,2.64-5.99,3.22Z"/>
              <path class="cls-4" d="M354.55,146.87c-4.43,3.39-8.26,7.42-12.47,11.05-4.21-.61-15.33-9.82-20.14-11.51,3.75-5.05,7.55-10.43,11.03-15.65l21.33,13.81.24,2.3Z"/>
              <path class="cls-4" d="M335.86,126.15c1.56-2.46,3.27-4.91,4.79-7.37,2.89,2.21,25.44,17.1,24.45,19.57-.26.66-4.1,3.99-5.03,3.91-1.68-.13-19.25-16.17-24.21-16.11Z"/>
              <path class="cls-13" d="M322.43,168.51c-2.16,3.36-7.97,4.72-11.75,4.14l1.2,2.3c-5-.2-9.92.05-14.86-.23,7.78-4.87,12.26-13.11,17.74-20.03,4.11,3.35,5.17,9.38,7.67,13.81Z"/>
              <path class="cls-4" d="M344.01,113.26c.17-.26.31-.66.48-.92l28.29,16.81c-.67.41-2.71,2.92-3.12,2.99-1.69.32-22.65-16.44-25.65-18.88Z"/>
              <path class="cls-4" d="M327.23,175.88c-5.11.06-10.26-.71-15.34-.92l-1.2-2.3c3.77.58,9.58-.78,11.75-4.14,1.17,2.08,3.4,5.18,4.79,7.37Z"/>
            </g>
          </g>
          <g>
            <path class="cls-4" d="M269.69,48.34c.26-1.52.17-5.74,0-7.37l48.66,5.99c1.89,1.13,1,5.18,1.2,7.14l-49.86-5.76Z"/>
            <path class="cls-4" d="M304.21,136.28l-4.08,5.06.48.92c4.51.95,13.23.57,17.26,1.84,2.41.76.69,2.26-.48,3.22l-53.7-4.6c-1.39-1.28-.89-3.28.48-4.14l33.08,3.22,4.55-6.91c1.55.39,2.26,1.34,2.4,1.38Z"/>
            <g>
              <path class="cls-17" d="M228.7,95.77l14.14-1.84c1.28-.69,1.85-2.18,3.6-2.3,1.71,2.6,2.41,5.66,4.08,8.29,5.01,7.91,16.05,17.81,2.88,25.09,8.4,1.37,16.96,1.79,25.41,2.53.47.04.97-.04,1.44,0,4.54.36,18.21,2.73,21.33,2.3,1.22-.17,1.58-1.48,2.64-1.84,3.22-1.11,3.42-2.51,7.67-1.38,8.03,2.13,4.26,12.09-4.55,11.05-1.04-.12-2.33-1.14-3.12-1.38l-4.08,5.06.48.92c4.51.95,13.23.57,17.26,1.84,2.41.76.69,2.26-.48,3.22l-53.7-4.6c-1.39-1.28-.89-3.28.48-4.14l33.08,3.22,4.55-6.91c-4.99-1.26-48.46-1.34-54.41-.46-.36.05-5.55,1.71-7.1,2.2-.09.24-.18.48-.27.72.23.51.91-.05.41,1-.22.47-.71.99-1.37,1.51-2.89,7.38-6.29,14.55-10.11,21.51l.73,6.05c12.95,2.56,25.8,5.54,38.65,8.49,16.17,3.71,32.24,7.95,48.99,7.7,15.84-.24,31.5-3.19,47.2-5.23-8.94-.4-23.64-2.18-24.62-1.58-.52.31.18,1.79-.96,2.3-.99.44-1.82-.49-1.92-.46-8.19,2.4-3.38.7-6.71-.46-1.31-.45-1.27.96-1.44.92-.21-.05-1.41-2.8-1.68-3.22-5.11.06-10.26-.71-15.34-.92-5-.2-9.92.05-14.86-.23,7.78-4.87,12.26-13.11,17.74-20.03,1.78-2.25,5.08-5.45,7.19-8.29,3.75-5.05,7.55-10.43,11.03-15.65.98-1.47,1.92-3.1,2.88-4.6,1.56-2.46,3.27-4.91,4.79-7.37,1.13-1.83,2.2-3.68,3.36-5.53.17-.26.31-.66.48-.92.59-.93,1.22-2.56,1.92-3.68,6.14-9.83,13.03-19.79,19.18-29.7,2.64-4.26,6.77-8.65.72-11.28-11.36-4.93-30.5-1.69-42.19-3.68-.79-.13-3.37-.74-3.6-1.61-.61-2.33,4.98-14.53,5.75-17.5,1.52-5.83,2.31-13.26,3.84-19.34.84-3.36,5.11-7.54.72-10.36L261.3,0c-1.25.77-2.02.2-3.12,1.61-.96,1.24-3.7,16.53-3.84,18.88-.05.92,2.53,3.23-.48,2.99,5.1,2.07,11.62,7.32,13.9,11.97,1.26,2.57,1.58,2.34,1.92,5.53l48.66,5.99c1.89,1.13,1,5.18,1.2,7.14l-49.86-5.76c-1.28,7.58-11.18,14.71-17.02,19.34-.54-.1-4.99-7.67-5.99-8.75-1.45-1.55-4.06-3.58-6.23-4.14.15.84-2.84,8.8-3.36,10.59-.67,2.32-1.69,4.62-2.4,6.91-1.17,3.8-2.18,7.7-3.36,11.51-.57,1.85-4.95,10.99-2.64,11.97Z"/>
              <g>
                <g>
                  <g>
                    <path class="cls-4" d="M263.7,10.13c15.57,3.25,33.17,4.81,48.42,8.75,1.59.41,12.87,3.73,13.42,4.14,1.6,1.19.55,4.99-.96,5.99l-60.41-11.97c-4.89-1.39-4.63-4.84-.48-6.91Z"/>
                    <path class="cls-4" d="M261.78,149.17l48.42,4.6c1.71,2.43.48,4.23-2.4,4.14-5.05-.14-13.94-2.68-19.66-3.22-8.69-.82-17.67-.64-26.37-1.84v-3.68Z"/>
                  </g>
                  <g>
                    <path class="cls-4" d="M313.8,80.57c-5.87-.62-11.92-1.06-17.74-1.84-3.29-.44-4.76.29-1.68-4.14l55.13,3.22c1.28.39,1.02,2.91.48,3.22-1.62.94-31.65-2.03-36.2-.46Z"/>
                    <g>
                      <path class="cls-10" d="M305.65,103.59c-1.72.35-.81-.11-1.92-.69-.13.92.33,3.56,1.2,3.91,3.59,1.46,18.37-12.2,21.81-14.5,1.11-.74.47-.5,1.92-.23-5.3,8.9-6.43,18.01-10.31,27.16-10.51-7.6-21.85-8.52-34.52-5.99-4.83-2.15,10.89-29.57,12.23-33.61l9.59,23.94Z"/>
                      <path class="cls-1" d="M313.8,80.57c3.42.36,19.57.68,21.09,2.76-7.66,5.53-19.79,18.35-29.24,20.26l-9.59-23.94c.07-.22-.04-.63,0-.92,5.82.78,11.87,1.22,17.74,1.84Z"/>
                      <path class="cls-23" d="M328.66,92.08c-1.44-.27-.81-.51-1.92.23-3.44,2.31-18.22,15.97-21.81,14.5-.87-.36-1.33-3-1.2-3.91,1.11.58.2,1.04,1.92.69,9.45-1.91,21.59-14.73,29.24-20.26-.54,3.39-4.66,6.1-6.23,8.75Z"/>
                    </g>
                  </g>
                </g>
                <path class="cls-10" d="M317.91,193.89c3.15.85,2.91,4.44,4.28,8.69.62-3.97-.05-7.2,1.85-8.95-2.04.12-4.08.21-6.13.26Z"/>
              </g>
            </g>
          </g>
          <g>
            <g>
              <g>
                <path class="cls-19" d="M253.87,23.48c5.1,2.07,11.62,7.32,13.9,11.97-2.09.05-3.93-1.09-5.75-1.84-24.41-10.01-44.46-14.42-67.36,1.84-6.46,4.59-12.27,10.85-17.02,17.04-.5-.06-1.02-.77-1.92-.46,0-.05,0-.87,0-.92.76.04.37-.77.48-.92,15.73-20.82,51.54-37.31,77.67-26.7Z"/>
                <path class="cls-16" d="M262.02,33.61l-15.34,25.32c-1.45-1.55-4.06-3.58-6.23-4.14-.62-3.49-4.39-1.34-5.03-1.38-18.28-1.2-40.38,1.15-57.77-.92,4.75-6.18,10.56-12.45,17.02-17.04,22.9-16.26,42.95-11.85,67.36-1.84Z"/>
                <path class="cls-16" d="M194.9,65.84l-1.2,5.99c11.88.79,23.82.46,35.72.46l-2.88,11.51c-10.26.48-20.62,1.42-30.92,1.84,7.95,18.66,31.7,16.63,47.22,8.29,1.28-.69,1.85-2.18,3.6-2.3,1.71,2.6,2.41,5.66,4.08,8.29l.96,10.36c-1.78,6.25-25.62,4.63-30.92,3.91-17-2.29-40.58-10.51-45.31-28.09l18.94-.46c.2-4-1.64-9-1.44-13.81h-18.94c-.14-2.04-.5-3.16-.48-5.52,7.12-.85,14.42-.44,21.57-.46Z"/>
                <path class="cls-16" d="M177.65,52.49c17.39,2.08,39.49-.28,57.77.92.65.04,4.41-2.11,5.03,1.38.15.84-2.84,8.8-3.36,10.59-13.99-.22-28.13.42-42.19.46-7.16.02-14.46-.39-21.57.46.02-2.05-.8-4.65-.48-7.14.26-2,2.75-6.34,2.88-7.14.9-.31,1.42.4,1.92.46Z"/>
                <path class="cls-8" d="M226.55,83.8c1.59-.07,3.21.05,4.79,0-.57,1.85-4.95,10.99-2.64,11.97l14.14-1.84c-15.52,8.34-39.27,10.38-47.22-8.29,10.3-.42,20.66-1.36,30.92-1.84Z"/>
                <path class="cls-8" d="M267.78,35.45c1.26,2.57,1.58,2.34,1.92,5.52.17,1.63.26,5.85,0,7.37-1.28,7.58-11.18,14.71-17.02,19.34-.54-.1-4.99-7.67-5.99-8.75l15.34-25.32c1.83.75,3.66,1.89,5.75,1.84Z"/>
                <path class="cls-16" d="M237.09,65.38c-.67,2.32-1.69,4.62-2.4,6.91h-5.27c-11.89,0-23.84.33-35.72-.46l1.2-5.99c14.06-.04,28.2-.68,42.19-.46Z"/>
                <path class="cls-16" d="M234.7,72.29c-1.17,3.8-2.18,7.7-3.36,11.51-1.59.05-3.21-.07-4.79,0l2.88-11.51h5.27Z"/>
                <path class="cls-16" d="M175.25,86.1c-1.42-5.29-1.09-9.27-1.44-14.27h18.94c-.2,4.81,1.64,9.82,1.44,13.81l-18.94.46Z"/>
              </g>
              <g>
                <path class="cls-20" d="M175.25,50.19c.13.45.44.53.48.92,0,.05,0,.88,0,.92-.13.79-2.62,5.14-2.88,7.14-.32,2.49.5,5.08.48,7.14-.02,2.36.34,3.48.48,5.52.35,5,.01,8.98,1.44,14.27,4.73,17.58,28.31,25.8,45.31,28.09,5.3.71,29.15,2.34,30.92-3.91l-.96-10.36c5.01,7.91,16.05,17.81,2.88,25.09,8.4,1.37,16.96,1.79,25.41,2.53l-43.15-1.38c-1.87-1.88-4.89-4.67-7.19-5.99-8.02-4.59-12.65-2.36-20.62.46l-21.33-11.05-45.07,17.5c-11.76-19.94-21.19-41.22-30.92-62.16-3.82-8.21-8.1-16.24-11.51-24.63,18.61-7.85,37.96-14.77,57.29-20.49,2.41.56,17.9,26.82,18.94,30.39Z"/>
                <g>
                  <path class="cls-6" d="M169.73,85.64c.63-.05,1.28.04,1.92,0,.35.14,1.22,1.96,1.2,2.07-.28,1.43-18.43,6.6-21.33,7.6-2.33.8-15.64,7.25-16.54,5.29-1.05-2.3.8-3.52,2.64-4.37,2.86-1.33,30.07-10.42,32.12-10.59Z"/>
                  <path class="cls-6" d="M158.71,75.05c3.01.04,2.49,2.68,0,4.14-1.33.78-25.42,9.56-26.85,9.67-2.19.17-2.55-.3-3.6-2.07-.05-.67,1.07-2.18,1.68-2.53,2.35-1.37,14.51-3.94,18.22-5.06,1.76-.53,9.69-4.15,10.55-4.14Z"/>
                  <path class="cls-6" d="M173.57,95.31c.64-.03,1.28.02,1.92,0,1.62,1.82,1.58,2.09-.48,3.22-1.47.81-30.9,9.15-32.6,9.21-.94.03-1.55.16-2.16-.69.06-1.88-.59-2.52,1.2-3.45,1.46-.77,30.46-8.22,32.12-8.29Z"/>
                  <g>
                    <path class="cls-12" d="M135.46,43.74c-.57.15-1-.04-1.44.69l1.92,18.42c1.38,1.66,11.46-1.57,14.38-1.15.41.06,1.26.61,1.92.69-4.18,11.77-25.13,14.42-32.12,4.14-3.21-4.72.47-3.13.48-5.06.02-4.16-2.48-5.53.48-10.82,1.88-3.36,10.74-8.95,14.38-6.91Z"/>
                    <path class="cls-6" d="M135.46,43.74c7.1-1.82,14.05,2.86,18.22,7.83.31,3.96-1.76,6.59-3.36,10.13-2.92-.41-13.01,2.82-14.38,1.15l-1.92-18.42c.44-.73.87-.55,1.44-.69Z"/>
                    <path class="cls-6" d="M153.67,51.57c-4.17-4.97-11.11-9.64-18.22-7.83-3.64-2.05-12.5,3.54-14.38,6.91,3.01-14.65,31.49-13.17,32.6.92Z"/>
                  </g>
                </g>
              </g>
            </g>
            <g>
              <g>
                <path class="cls-26" d="M274.49,254.61c2.88,3.32,5.27,7.24,8.15,10.59.08.09-.08.37,0,.46-40.97,6.47-82.38,18.46-124.17,16.11,1.52-1.89,9.96-12.36,11.27-12.89,2.83-1.14,24.53-2.06,29.96-2.76,3.43-.44,6.65-.8,10.07-1.38,11-1.86,20.95-5.19,30.68-8.29,8.98-2.86,18.15-5.44,26.61-9.67.61.03,6.53,6.79,7.43,7.83Z"/>
                <path class="cls-2" d="M286.47,270.26c1.66,1.79,4.06,4.6,5.99,5.99,3.49,2.49,7.69,3.69,11.51,5.52-36.92-.77-73.47,6.39-110.27,6.91-8.26.12-18.21.26-26.37-.46-1.61-.14-12.3-1.4-12.23-2.76,42.62,6.63,87.66-11.28,131.36-15.19Z"/>
                <path class="cls-18" d="M282.64,265.66c.68.79,2.18,1.97,2.88,2.76.07.08.44,1.28.96,1.84-43.7,3.92-88.74,21.83-131.36,15.19v-.46c.96-.46,1.33-1.53,1.92-2.3.08-.1,1.34-.8,1.44-.92,41.79,2.34,83.21-9.65,124.17-16.11Z"/>
                <path class="cls-27" d="M157.03,282.7c-.59.78-.95,1.84-1.92,2.3-3.9-.5-5.47-3.29-7.67-5.52l9.59,3.22Z"/>
              </g>
              <g>
                <path class="cls-7" d="M228.46,120.17c2.3,1.32,5.32,4.11,7.19,5.99.11.11.12,2.36,1.2,2.76,8.57-.99,60.85,5.44,64.72,3.22.39-.22.39-1.07,0-1.38-.72-.87-15.78-1.14-18.22-1.38-.75-.07-3.74-.32-3.12-1.84,4.54.36,18.21,2.73,21.33,2.3,1.22-.17,1.58-1.48,2.64-1.84-3.89,7.68,4.78.45,8.39.92l-.72-2.3c8.03,2.13,4.26,12.09-4.55,11.05-1.04-.12-2.33-1.14-3.12-1.38-.13-.04-.84-.99-2.4-1.38-4.99-1.26-48.46-1.34-54.41-.46-.4.06-6.53,2.02-7.43,2.3-2.96.94-9.16,5.34-11.51,7.83-.05.06-1.17-.03-1.44.69l13.42,111.19c-9.73,3.1-19.69,6.43-30.68,8.29v-8.29c.16,0,.32,0,.48,0,6.15-.03,12.31.02,18.46,0,.77-.41.56-.88.72-1.38.35-1.1-.51-2.03-.48-2.3.38-3.88.2-7.18,0-11.05-1.64-31.35-6.07-62.71-7.19-94.16-.83-2.55-3.61-1.1-3.84-1.15-1.25-.27-3.25-.56-4.31-.92-3.99-1.36-9.68-6.65-11.27-10.59-14.89.57-29.92.03-44.83.46-4.35.13-14.82-.23-18.22.46-2.83-1.67-.55-2.01-.48-2.3l70.95-4.6c-.7,5.37,7.39,8.12,11.99,7.83l3.12.46c1.48-.88,3.1-1.77,4.08-3.22,2.57-3.8,1.78-8.69-2.88-10.59.55-1.11.92-3.37,2.4-3.22Z"/>
                <path class="cls-6" d="M278.8,127.54c.47.04.97-.04,1.44,0-.62,1.52,2.37,1.77,3.12,1.84,2.44.24,17.49.51,18.22,1.38.39.32.39,1.16,0,1.38-3.87,2.22-56.15-4.21-64.72-3.22-1.08-.4-1.09-2.65-1.2-2.76l43.15,1.38Z"/>
                <path class="cls-6" d="M311.88,126.61l.72,2.3c-3.61-.47-12.28,6.76-8.39-.92,3.22-1.1,3.42-2.51,7.67-1.38Z"/>
                <path class="cls-25" d="M228.46,144.57c2.35-2.49,8.54-6.89,11.51-7.83-.11,1.51,1.1.3.48,1.61-1.14,2.41-9.02,5.9-11.99,6.22Z"/>
                <path class="cls-12" d="M217.92,146.41c-2.85,31.71-4.86,63.55-7.19,95.31-.01.15.01.31,0,.46l-11.51-.46c3.11-32.23,8.93-64.34,14.38-96.23,1.06.36,3.07.65,4.31.92Z"/>
                <path class="cls-6" d="M209.77,256.45v8.29c-3.42.58-6.64.94-10.07,1.38-.23-2.89-1.68-6.48-1.92-9.21,3.94-.75,8.02-.44,11.99-.46Z"/>
                <path class="cls-6" d="M210.73,242.18c-.19,2.54,0,4.83-.48,7.37l-11.99-.46c.15-2.5.72-4.92.96-7.37l11.51.46Z"/>
                <path class="cls-6" d="M209.77,252.31c6.39.13,12.77.69,19.18.46-.03.27.83,1.21.48,2.3-2.44.07-18.13-1.4-18.94-.92-1.08.65-.82,1.46-.24,2.3-.16,0-.32,0-.48,0-3.96.02-8.04-.29-11.99.46-.14-1.65.47-3.26.48-4.6,3.83.06,7.68-.08,11.51,0Z"/>
                <path class="cls-6" d="M210.25,249.55c-.17.89-.07,1.86-.48,2.76-3.83-.08-7.68.06-11.51,0,0-1.13-.07-2.02,0-3.22l11.99.46Z"/>
                <path class="cls-28" d="M139.29,130.3c.08.53-.46.43-.48.46-1.07,1.59.94.57.96,1.15,0,.09-.68.53-.96,1.61-.08.3-2.35.63.48,2.3-1.84.37-2.07,1.85-3.36,2.3-1.41.49-4.86.4-6.23,0-1.85-.54-2.96-1.6-3.84-3.22,1.23-.77,2.64-1.44,3.36-2.76,3.77-2.15,1.28-1.28,2.88-4.6,3.04-.09,4.74,1.65,7.19,2.76Z"/>
                <path class="cls-14" d="M129.22,132.14c-2.04,1.16-3.19,2.38-3.36-.92.88-.43,2.02-3.56,6.23-3.68-1.59,3.32.89,2.46-2.88,4.6Z"/>
                <path class="cls-6" d="M228.94,241.72h-18.22c2.34-31.75,4.34-63.59,7.19-95.31.22.05,3.01-1.4,3.84,1.15,1.12,31.44,5.55,62.8,7.19,94.16Z"/>
                <path class="cls-9" d="M228.94,241.72c.2,3.87.38,7.17,0,11.05-6.41.23-12.79-.33-19.18-.46.41-.9.31-1.87.48-2.76.48-2.54.29-4.83.48-7.37.01-.15-.01-.31,0-.46h18.22Z"/>
                <path class="cls-6" d="M229.42,255.07c-.16.5.05.97-.72,1.38-6.15.02-12.31-.03-18.46,0-.58-.84-.84-1.65.24-2.3.8-.48,16.5.99,18.94.92Z"/>
                <g>
                  <path class="cls-6" d="M228.46,120.17c-1.48-.15-1.84,2.11-2.4,3.22-5.07-2.07-15.47-.87-16.3,5.52l-70.95,4.6c.27-1.08.96-1.52.96-1.61-.02-.58-2.03.44-.96-1.15l64.96-5.06.72-2.76c2.22-.63,3.1-2.21,3.36-2.3,7.97-2.82,12.6-5.05,20.62-.46Z"/>
                  <path class="cls-3" d="M226.07,123.39c4.66,1.9,5.44,6.79,2.88,10.59-2.45.77-4.47,2.59-7.19,2.76-4.6.29-12.69-2.46-11.99-7.83.83-6.39,11.23-7.59,16.3-5.52Z"/>
                  <path class="cls-6" d="M228.94,133.98c-.98,1.45-2.59,2.35-4.08,3.22l-3.12-.46c2.72-.17,4.74-1.99,7.19-2.76Z"/>
                </g>
              </g>
            </g>
          </g>
          <g>
            <path class="cls-17" d="M119.64,171.74c-.77,1.48-.97,3.19-1.92,4.6-.15.03-.33-.04-.48,0-4.17,1.08-6.36,8.85-7.19,12.89-.27,1.31.15,1.99,0,2.76-1.13-.84-1.48.4-1.92,1.15-4.93,8.47-8.78,19.04-13.9,27.16-.97,1.54-2.13-.04-2.88,2.99-.1.42-.04,1.33,0,1.84s-.55.13,0,1.38l-6.71,5.99c1.45-3.83,2.87-7.68,4.31-11.51,1.32-.71,3.69-4.21,1.92-4.6.35-.91.61-1.88.96-2.76,2.26-2.71,3.93-5.81,4.79-9.21,4.95-8.18,9.36-16.91,13.9-25.32.67-1.23,2.59-3.19,3.36-4.6l5.75-2.76Z"/>
            <path class="cls-17" d="M88.95,221c.59-1.56,1.31-3.05,1.92-4.6,1.77.39-.59,3.89-1.92,4.6Z"/>
            <g>
              <path class="cls-17" d="M157.51,135.36l6.23,9.44-13.18,8.06-.24,1.61,33.08,64.92c-.24.29-4.53.39-5.03.23-1.83-.59-13.5-29.51-15.58-33.84-4.9-10.17-10.43-20.11-15.58-30.16l-26.13,14.73c2.99-5.56,5.58-11.28,7.19-16.81.53-1.82,3.6-4.27.48-5.06l8.15-4.6c-3.69-2.05-.23-2.55-.96-5.76,1.28-.45,1.52-1.93,3.36-2.3,3.4-.69,13.87-.33,18.22-.46Z"/>
              <path class="cls-4" d="M135.94,138.12c.73,3.21-2.73,3.71.96,5.76l-8.15,4.6c3.13.8.05,3.24-.48,5.06-1.62,5.53-4.2,11.24-7.19,16.81-.06.1-1.26,1.03-1.44,1.38l-5.75,2.76c3.67-6.81,6.86-14.49,9.83-21.64-3.78,1.83-28.93,18.84-30.68,18.42-.51-.12-1.38-1.96-1.2-2.53l33.32-18.65,5.27-9.21-40.75,22.56c-1.29.65-2.29-2.08-2.16-2.53.65-2.24,38.25-18.58,42.19-22.79,1.37.4,4.82.49,6.23,0Z"/>
              <path class="cls-4" d="M125.87,131.22c.16,3.3,1.31,2.08,3.36.92-.72,1.32-2.13,2-3.36,2.76-12.24,7.64-27.51,13.22-40.03,20.72-.58-.45-1.82-1.89-1.68-2.53.48-2.24,36.89-19.49,41.71-21.87Z"/>
              <g>
                <path class="cls-17" d="M150.07,126.46c-.93-.56-1.86-1.11-2.82-1.63l-5.8,2.25c-11.76-19.94-21.19-41.22-30.92-62.16-10.91,2.05-21.03,6.28-30.92,11.05-4.68,2.26-33.57,18.47-34.76,21.41-.45,1.12.06,3.1.48,4.14,3.72,9.18,14.19,23.55,19.18,33.15.87,1.68,1.46,4.87,1.92,5.76,8.36,16.11,17.35,31.96,25.17,48.34,2.31-2.33,15.37-12.01,17.74-11.51.31.07,1.43,1.27,1.2,1.84.67-1.23,2.59-3.19,3.36-4.6,3.67-6.81,6.86-14.49,9.83-21.64-3.78,1.83-28.93,18.84-30.68,18.42-.51-.12-1.38-1.96-1.2-2.53l33.32-18.65,5.27-9.21-40.75,22.56c-1.29.65-2.29-2.08-2.16-2.53.65-2.24,38.25-18.58,42.19-22.79-1.85-.54-2.96-1.6-3.84-3.22-12.24,7.64-27.51,13.22-40.03,20.72-.58-.45-1.82-1.89-1.68-2.53.48-2.24,36.89-19.49,41.71-21.87.88-.43,2.02-3.56,6.23-3.68,3.04-.09,4.74,1.65,7.19,2.76,4.36-.77,9.15-1.29,14.16-1.71-1.12-.72-2.24-1.43-3.38-2.13Z"/>
                <g>
                  <g>
                    <path class="cls-4" d="M126.11,119.25c.27.02,2.17,2.27,2.16,2.53-.1,2.51-40.58,21.2-45.31,25.09-.77.38-2.58-1.33-2.64-1.61-.66-3.13,41.36-22.27,45.78-26.01Z"/>
                    <path class="cls-4" d="M122.75,110.96l1.68.69c.09,1.68.7,2.15-.72,3.45l-46.98,23.48c-1.1.81-2.68-1.72-2.64-2.07.32-2.65,43.92-21.34,48.66-25.55Z"/>
                    <path class="cls-4" d="M117.96,102.67c1.96-.17,2.28.91,3.6,2.07l-48.18,24.63c-1.62.51-3.47-1.51-1.92-2.76l46.5-23.94Z"/>
                    <path class="cls-4" d="M110.77,89.32c.46.09,1.8,2.06,1.68,2.53-.65,2.49-42.94,19.12-47.7,23.25l-2.16-2.07c5.63-2.5,45.52-24.21,48.18-23.71Z"/>
                    <path class="cls-4" d="M105.49,81.49c.35.07,1.3,1.74,1.2,2.07-.74,2.46-42.28,20.07-47.22,23.71-1,.09-1.88-1.79-1.68-2.53.67-2.49,42.48-20.26,47.7-23.25Z"/>
                    <path class="cls-4" d="M114.12,96.23c.44.58,1.8,1.3,1.68,2.07-.39,2.49-41.92,18.87-46.74,22.79-.74.05-1.78.12-2.16-.69-1.1-2.39,44.56-20.65,47.22-24.17Z"/>
                  </g>
                  <path class="cls-5" d="M169.3,127.48c.39.27.78.54,1.17.81l33.3-2.6.72-2.76c-9.91,2.83-22.59,3.75-35.19,4.55Z"/>
                  <path class="cls-5" d="M153.45,128.58c-5.01.42-9.8.95-14.16,1.71.08.53-.46.43-.48.46l16.06-1.25c-.47-.31-.95-.62-1.42-.92Z"/>
                </g>
              </g>
            </g>
            <path class="cls-17" d="M110.05,191.99c-.03.15.03.31,0,.46-.57,3.08-.64,6.11-.96,9.21-.14,1.36-1.41,1.79-1.44,2.07-.48,5.36-.02,11.88.48,17.27-.05,0,.15.91-.24.92-3.98.08-11.49-.66-14.86,0-1.3.26-.89.92-1.68,1.38.74-3.04,1.91-1.45,2.88-2.99,5.12-8.12,8.97-18.7,13.9-27.16.44-.75.78-1.99,1.92-1.15Z"/>
            <g>
              <g>
                <path class="cls-22" d="M110.53,179.1c-4.54,8.41-8.95,17.14-13.9,25.32-.82,1.35-4.38,4.4-4.79,5.52-19.71-12.67-32.26-32.11-49.38-47.19l23.97-22.33c8.36,16.11,17.35,31.96,25.17,48.34,2.31-2.33,15.37-12.01,17.74-11.51.31.07,1.43,1.27,1.2,1.84Z"/>
                <path class="cls-17" d="M91.83,213.63c.61-1.54-.06-3.51,0-3.68.41-1.13,3.98-4.17,4.79-5.52-.87,3.4-2.53,6.5-4.79,9.21Z"/>
                <path class="cls-10" d="M70.97,160.22c2.28,3.23.97,11.22,2.16,14.04.39.93,2.75,1.12,2.88,1.38.28.57-3.31,5.85-4.08,6.68-.95.2-5.47-6.18-5.51-6.68-.31-3.72,4.39-.52,4.79-1.84l-.24-13.58Z"/>
                <path class="cls-10" d="M61.39,147.79c1.58,2.03.62,11.9,1.68,13.12.3.34,2.57.28,2.88.92.53,1.13-3.74,5.61-4.55,6.68-2.68-3-9.87-10.94-.72-8.52l.72-12.2Z"/>
                <path class="cls-10" d="M82.48,173.12c.84,2.41-.46,10.46.72,12.2.67,1,3.11.71,3.36,1.38.14.39-4.37,5.79-5.03,6.68-9.97-11.54-1.21-7.99-.72-8.52.83-.89.14-9.82,1.68-11.74Z"/>
              </g>
              <path class="cls-29" d="M117.24,176.34l-7.19,12.89c.83-4.04,3.02-11.81,7.19-12.89Z"/>
              <g>
                <path class="cls-23" d="M135.94,250.47c-11.11.12-38.78-14.39-44.11-23.48,7.64-.36,15.34-.68,23.01-.92,8.99-.28,77.26-2.73,42.91,17.5-4.77,2.81-16.37,6.84-21.81,6.91Z"/>
                <path class="cls-23" d="M160.39,204.42c.11.86.39,1.87.48,2.76-2.68,1.23-3.08,5.05-4.79,7.14-2.61,3.18-6.31,4.01-9.11,6.68-9.26.18-18.57.27-27.81.46-2.29-1.3-8.29-.13-9.59-2.53-.47-.87-.82-13.64-.48-14.27,1.24-.27,3.89,1.23,3.84-.69l47.46.46Z"/>
                <path class="cls-10" d="M157.51,181.86l-27.33,7.6,28.29-1.61c.15,1.12-.59,1.55-.48,2.3l-47.94,2.3c.03-.15-.03-.31,0-.46.15-.78-.27-1.46,0-2.76l7.19-12.89c.15-.04.33.03.48,0,11.73-2.22,25.69-.75,37.63-2.3l1.2,1.15c.07,2.25.58,4.47.96,6.68Z"/>
                <path class="cls-10" d="M157.99,190.15c.28,1.99.71,4,.96,5.99-14.08,6.51-32.39,7.07-47.94,6.45-.08-.07-1.51-.37-1.92-.92.31-3.09.38-6.13.96-9.21l47.94-2.3Z"/>
                <path class="cls-5" d="M135.94,250.47c5.45-.06,17.04-4.1,21.81-6.91,34.35-20.23-33.92-17.78-42.91-17.5v-1.38c21.79-.66,43.62-1.01,65.44-.92l-1.2-3.22c5.09.2,6.58-.61,4.31,6.22-4.3,12.99-32.85,29.91-47.46,23.71Z"/>
                <path class="cls-10" d="M179.08,220.54l1.2,3.22c-21.82-.09-43.65.26-65.44.92-7.78.24-15.71,1.06-23.49.46-.04-.51-.1-1.42,0-1.84.79-.46.37-1.13,1.68-1.38,3.38-.66,10.88.08,14.86,0,.39,0,.19-.92.24-.92.72-.02.35.93.72.92,3.43-.07,6.85-.39,10.31-.46,9.24-.19,18.55-.28,27.81-.46,3.27-.06,6.56.06,9.83,0,1.25-.02,3.86-1.38,4.08-1.38.05,0-.15.93.24.92,5.99-.1,12.01-.24,17.98,0Z"/>
                <path class="cls-5" d="M158.95,196.14c.35,2.75,1.09,5.51,1.44,8.29l-47.46-.46c-2.62.54-1.71-1.2-1.92-1.38,15.55.62,33.87.06,47.94-6.45Z"/>
                <path class="cls-5" d="M157.51,181.86c.34,1.98.68,4,.96,5.99l-28.29,1.61,27.33-7.6Z"/>
                <path class="cls-5" d="M160.87,207.19c.4,4.16.99,8.27,0,12.43-.22,0-2.83,1.36-4.08,1.38-3.27.06-6.56-.06-9.83,0,2.8-2.67,6.5-3.49,9.11-6.68,1.71-2.08,2.12-5.91,4.79-7.14Z"/>
                <path class="cls-23" d="M114.84,224.68v1.38c-7.67.24-15.37.56-23.01.92-.02-.03-.2.16-.48-.46-.55-1.25.04-.87,0-1.38,7.78.6,15.71-.22,23.49-.46Z"/>
                <path class="cls-23" d="M111.01,202.58c.21.18-.71,1.92,1.92,1.38.05,1.92-2.59.42-3.84.69-.34.64,0,13.41.48,14.27,1.3,2.4,7.3,1.23,9.59,2.53-3.45.07-6.87.39-10.31.46-.37,0,0-.94-.72-.92-.5-5.38-.96-11.91-.48-17.27.02-.28,1.3-.71,1.44-2.07.41.55,1.84.85,1.92.92Z"/>
              </g>
            </g>
          </g>
        </g>
      </g>
      <path class="cls-15" d="M206.96,141.91c2.08,2.51,5.92,3.14,9.39,3.51,3.51.38,7.11.7,10.56-.03,3.44-.73,6.75-2.69,8-5.65.59-1.41.69-2.94.68-4.44-.04-8.39-6.93-21.03-18.7-16.64-7.38,2.75-15.18,16.94-9.93,23.25Z"/>
      <path class="cls-15" d="M225.28,125.19c-3.11-.14-5.85-2.3-8.95-2.11-2.3.15-4.28,1.62-5.47,3.39s-1.7,3.82-2.2,5.84c-.88,3.53-1.38,7.98,1.95,10.02,2.12,1.3,4.98.99,7.45.32,5.78-1.58,11.2-5.23,12.93-10.4,1.73-5.18-1.44-11.69-7.33-12.88-2.12-.43-4.71.02-5.73,1.74s1.06,4.34,3.01,3.49"/>
      <path class="cls-15" d="M213.91,141.66c-4.4,29.79-8.8,59.58-13.2,89.37-1.32,8.91-2.63,17.91-1.72,26.87,1.2-.76.82-2.77-.59-3.13"/>
      <path class="cls-15" d="M227.3,140.6c5,38.92,10.01,77.84,15.01,116.76,1.65,1.37,4.74-1.1,3.39-2.72-1.34-1.62-4.88.3-3.9,2.11"/>
      <path class="cls-15" d="M242.99,250.36c-17.93-2.19-36.3-1.49-53.96,2.05,21.1,4.42,43.41,4.09,64.34-.95-30.74,11.89-64.78,14.6-98.15,17.16,6.52.14,13.08-1.31,18.78-4.15-7.88,6.52-15.32,13.48-22.26,20.81,2.05-1.09,4.1-2.18,6.16-3.27-.48-.52-1.44.34-1.12.94s1.18.78,1.92.88c49.95,6.72,100.68-5.36,151.16-3.95-3.41-3.11-9.28-2.15-13.69-4-2.64-1.11-4.61-3.17-6.44-5.21-5.93-6.58-11.36-13.53-16.24-20.77-3.02,1.14-6.83.29-8.89-2-.04-.05-.08-.09-.12-.14"/>
      <path class="cls-15" d="M146.17,278.12c.13.02.27.03.4.05,52.13,7.19,103.87-13.42,156.55-15.73-1.78.42-3.55.85-5.33,1.27"/>
      <path class="cls-15" d="M209.24,123.05c-.64-.54,1.26-.82,1.18-.04s-1.17,1.08-2.04,1.18c-27.31,3.26-54.63,6.52-81.94,9.78,1.97.03,2.82-2.57,1.67-3.99s-3.3-1.85-5.26-2.02c.94.96,1.87,1.92,2.81,2.88-3.08-.15-6.18,1.46-7.55,3.93,7.02,1.13,14.52-.25,20.46-3.79-.81-3.16-6.08-4.45-8.57-2.09.65,1.49,2.49,2.49,4.26,2.33-.95.71-1.66,1.68-2.01,2.74,29.35,3.15,59.11,3.27,88.49.36-1.27.08-2.35,1.18-2.27,2.31"/>
      <path class="cls-15" d="M230.76,125.44c12.87.73,25.75,1.46,38.62,2.18,8.5.48,17.06.97,25.3,2.87,4.25.98,8.56,2.34,12.9,1.82,2.3-.28,4.6-1.08,6.88-.66-.78-2.01-3.24-3.2-5.62-3.27-2.37-.06-4.66.8-6.73,1.85-.74.37-1.5.83-1.8,1.54-.46,1.13.49,2.33,1.53,3.1,3.34,2.47,8.26,3.1,12.23,1.55,2.08-.81,4.09-2.78,3.24-4.66-1.08-2.41-5.05-1.79-7.7-.74,2.48-.34,4.97-.68,7.45-1.02-4.54-2.04-10.36-1.55-14.39,1.22-1.38.95-2.61,2.26-2.73,3.81s1.35,3.22,3.07,3.01c-2.32-1.67-5.49-1.95-8.46-2.14-23.85-1.48-47.88-.67-71.54,2.41,1.83-1.43,4.11-2.39,6.5-2.75"/>
      <path class="cls-15" d="M248.46,220.14c36.56-1.48,73.25-.16,109.56,3.95,1.15.13,2.61.14,3.15-.79.54-.92-1.64-1.85-1.63-.8,1.17.18-.52,2-.93,1.01"/>
      <path class="cls-15" d="M339.28,217.85c1.06.64,2.51.72,3.64.2-.81-.83-1.62-1.66-2.43-2.49-1.34,5.52,2.64,11.3,1.07,16.77-1.42,4.94-6.91,8-12.18,9.95-14,5.16-29.93,6.04-44.54,2.47-14.61-3.58-27.81-11.59-36.93-22.42-.89-1.06-1-3.29.44-2.99-1.95.75.83-4.28-.39-2.72s-1.15,4.08.69,5.03c.94.48,2.08.46,3.16.42,33.58-1.24,67.16-2.48,100.74-3.72-22.37-28.03-30.77-64.06-56.24-89.87,8.05,5.61,13.3,13.77,18.3,21.73,16.24,25.87,32.03,51.96,47.81,78.05-1.02-.9-2.05-1.8-3.07-2.7"/>
      <path class="cls-15" d="M302.63,137.18c.46-.65.94-1.43.66-2.16s-1.75-.9-1.88-.14c1.99,2.02.43,5.16-1.18,7.44-8.05,11.39-16.1,22.79-24.16,34.18-4.03,5.7-8.05,11.39-12.08,17.09-2.6,3.68-5.93,11.55-10.69,12.43,14.42-23.69,33.21-45.99,49.33-68.84Z"/>
      <path class="cls-15" d="M84.35,225.91c4.4,1.17,7.98-3.17,10.02-6.84,6.99-12.58,13.98-25.16,20.97-37.74,3.38-6.09,6.76-12.17,10.15-18.26,2.41-4.34,8.29-11.42,8.15-16.03-11.7.84-19.81,26.05-24.31,34.11-2.15,3.85-23.88,45.09-24.97,44.76Z"/>
      <path class="cls-15" d="M126.55,131.19c-.39-1.37-.78-2.75-1.17-4.12,19.76,23.27,35.52,49.26,46.58,76.76,2.73,6.79,6.1,14.54,13.73,16.87-1.43-1.3-2.86-2.59-4.29-3.89"/>
      <path class="cls-15" d="M88.04,222.5c9.67,8.04,19.5,16.19,31.28,21.51,11.78,5.32,25.99,7.53,38.25,3.17,7.79-2.77,14.21-7.92,20.06-13.3,4.46-4.11,8.99-9.86,6.37-15.08-5.97-11.89-11.94-23.78-17.91-35.67-6.29-12.52-12.58-25.06-19.61-37.26-4.02-6.98-8.46-14.05-15.34-18.93-.12-.09-.26-.15-.41-.2"/>
      <path class="cls-15" d="M93.86,222.15c12.64-.64,25.28-1.27,37.93-1.91,11.09-.56,22.18-1.12,33.28-1.16,6.8-.03,13.81.18,19.99,2.71-2.24.1-4.48.2-6.71.3"/>
      <path class="cls-15" d="M108.38,218.47c-.18-5.14-.18-10.28,0-15.42,17.83.93,35.66,1.86,53.49,2.79.02,4.4.04,8.81.05,13.21.19-7.13-.73-14.24-1.65-21.32-.79-6.09-1.58-12.18-2.37-18.28-.18-1.42-.48-3.02-1.8-3.84-.82-.5-1.85-.59-2.84-.65-15.14-.91-30.43.18-45.22,3.21.95-.78,2.04.84,2.07,1.99.27,8.87.55,17.74.82,26.62.13-1.02.26-2.03.39-3.05"/>
      <path class="cls-15" d="M106.93,191.49c3.97-1.38,8.27-1.74,12.51-2.08,12.47-1.01,24.95-2.02,37.42-3.03-.76-.03-1.52-.07-2.28-.1"/>
      <path class="cls-15" d="M269.18,217.53c-.5-.25-.38.85.17.71s.63-.8.61-1.31c-.21-5.42-.42-10.84-.62-16.26,19.58,1.95,39.15,3.89,58.73,5.84.44.04.93.12,1.18.45.18.25.16.57.14.86-.4,4.6-.8,9.21-1.2,13.81.03-.87.06-1.75.08-2.62"/>
      <path class="cls-15" d="M222.23,139.37c1.99,38.16,4.7,76.3,8.13,114.38-.02-.68-.03-1.36-.05-2.04"/>
      <path class="cls-15" d="M230.75,237.57c4.48.8,8.96,1.6,13.44,2.39-.42-.26-.83-.52-1.25-.78"/>
      <path class="cls-15" d="M231.37,231.54c1.97-.51,4.05-.7,6.09-.55"/>
      <path class="cls-15" d="M216.1,146c1.14-6.88,2.28-13.76,3.41-20.64.42,6.74.84,13.47,1.26,20.21-.04-.26-.09-.53-.13-.79"/>
      <path class="cls-15" d="M301.38,284.37c-47.18-2.6-93.76,9.42-140.93,12.26-4.04.24-8.67.22-11.38-2.47,14.67-3.02,29.96-1.3,44.96-.2,39.02,2.85,78.43,1.33,117.03-4.51,12.54-1.9,112.6-7.19,125.08-4.99-59.63,10.68-207.47,24.35-268.04,19.52-23.85-1.9-47.39-6.2-71.22-8.33-31.55-2.82-63.53-1.8-94.78,3.03,10.85,3.7,22.79,4.8,34.26,3.15"/>
      <path class="cls-15" d="M238.4,25.37c-12.2-.29-24.34,2.91-34.91,8.37-12.83,6.63-23.7,16.96-28.13,29.61-4.43,12.65-1.6,27.62,8.87,37,5.93,5.31,13.78,8.56,21.73,10.93,9.42,2.82,19.25,4.57,29.16,5.19,5.42.34,11.65.04,15.09-3.72,2.51-2.75,2.78-6.72,1.67-10.13s-3.41-6.39-5.67-9.31c-6.56,7.68-18.98,9.12-29.65,7.58-6.61-.95-13.45-3.03-17.65-7.7-5.99-6.67-4.81-16.31-2.72-24.66,1.72-6.89,4.03-14.01,9.44-19.14,6.2-5.88,15.93-8.27,24.84-6.95,8.91,1.32,16.93,6.07,22.65,12.32-1.33-1.45,4.27-11.48,5.12-13.14,1.22-2.36,5.57-7.13,4.12-9.17-.42-.59-8.32-3.53-9.48-4.06-4.43-2.03-9.54-2.9-14.48-3.02Z"/>
      <path class="cls-15" d="M239.23,54.12c-3.21,4.9-6.41,9.8-9.62,14.69-.01.02-27.5-1.41-30.04-1.32-10.12.36-20.56,1.01-30.54-.95-9.2-1.8-6.32-6.04,1.06-8.66,8.77-3.11,20.6-1.81,29.92-2.18,13.07-.53,26.15-1.06,39.22-1.59Z"/>
      <path class="cls-15" d="M186.52,74.44c14.4-.75,28.91-1.51,43.18.37-2.77,2.99-4.61,6.65-5.28,10.49-7.49-1-15.05.68-22.53,1.72-13.64,1.89-27.64,1.63-41.18-.77-.88-.18-2.35-9.52-2.45-10.48,9.16-1.13,18.96-.84,28.26-1.33Z"/>
      <path class="cls-15" d="M278.84,168.79c5.86,2.36,12.09,3.99,18.45,4.81.94.12,1.96.22,2.8-.19.59-.28,1.02-.77,1.42-1.25,4.01-4.7,8.02-9.4,12.03-14.1-.51.59.72-.56.21.03,2.77-3.81,5.54-7.62,8.31-11.43,3.44-4.73,6.88-9.46,10.25-14.24,13.45-19.08,25.68-38.85,36.62-59.18-24.39-9.26-52.41-5.8-78.21-11.22-2.97,7.81-6.38,15.59-10.18,23.08-8.64,17.01-19.35,33.02-30.05,48.96-.24.36-.6.77-1.04.68s-.2-.94.14-.66"/>
      <path class="cls-15" d="M283.35,111.89c12.86.17,25.65,3.4,36.71,9.26,2.5-12.6,6.01-25.05,10.49-37.21-7.99-.63-27.99-5.75-34.46-.57-2.82,2.26-3.97,7.77-5.24,10.78-2.49,5.92-5,11.82-7.5,17.74Z"/>
      <path class="cls-15" d="M305.64,106.74c8.51-4.49,17.15-8.79,25.91-12.89,1.46-.68,2.99-1.41,3.89-2.65s.85-3.15-.53-3.96c-3.77,2.37-7.54,4.73-11.31,7.1-3.47,2.18-6.96,4.37-10.77,6.04-6.28,2.75-10.16.94-15.04-2.92,3.32,2.59,5.46,6.03,7.85,9.28Z"/>
      <path class="cls-15" d="M178.45,59.16c-6.01-12.17-12.45-24.18-19.28-36-19.89,6.44-39.78,12.88-59.68,19.32,13.63,28.15,27.27,56.3,40.9,84.44.29.6.65,1.26,1.33,1.51.7.25,1.48-.02,2.16-.3,15.25-6.03,30.46-12.15,45.62-18.35.56-.23,1.19-.54,1.3-1.08s-.87-1.03-1.12-.53"/>
      <path class="cls-15" d="M100.58,71.27c-20.78,5.21-36.36,21.5-57.14,26.72,16.31,29.94,32.63,59.88,48.94,89.82,6.02-5.13,12.53-9.79,19.45-13.92-.57-.65-1.15-1.31-1.72-1.96"/>
      <path class="cls-15" d="M130.23,167.17c-.5-.53.19-1.29.82-1.7,10.75-6.95,21.8-13.51,33.13-19.68-6.72-10.67-14.1-21.02-22.09-30.97.82.47.18,1.89-.77,1.71s-.92-1.7.04-1.85"/>
      <path class="cls-15" d="M251.26,26.22c-.13.83-.25,1.67-.38,2.5,3.22-8.38,6.45-16.77,9.67-25.15,24.47,5.53,48.94,11.06,73.41,16.59-3.36,15.3-7.99,30.38-13.86,45.07-.31-1.33-.62-2.66-.93-3.98"/>
      <path class="cls-15" d="M259.39,38.93c-.3.25-.39-.59-.04-.39,6.11,3.45,12.85,7.75,13.66,14.18-6.16,6.08-12.75,11.82-19.72,17.16-2.96-5.42-7.47-10.15-12.98-13.62-3.34,13.2-7.48,26.23-12.39,39.03,4.32.78,8.71,1.22,13.12,1.3"/>
      <path class="cls-15" d="M249.13,102.2c7.36.85,14.61,2.4,21.6,4.63-.74-.24-1.49-.49-2.23-.73"/>
      <path class="cls-15" d="M347.21,213.56c-1.94-5.87-4.72-11.52-8.25-16.76,1.09,1.49,3.65.71,5.35-.22,10.47-5.69,20.94-11.39,31.42-17.08-11.77-5.18-23.53-10.35-35.3-15.53,14.16-13.22,28.31-26.44,42.47-39.66-9.85-9.26-20.62-17.74-32.15-25.3"/>
      <path class="cls-15" d="M63.78,144.28c.34-.78.68-1.56,1.02-2.34-7.82,6.76-15.64,13.53-23.46,20.29,6.83,4.06,11.84,10.09,17,15.79,10.84,11.98,22.94,23.04,36.09,33-.62-1.18-1.25-2.36-1.87-3.53"/>
      <path class="cls-15" d="M62.76,102.97c-1.54.62-3.07,1.24-4.61,1.85,10.75-4.49,21.51-8.97,32.26-13.46"/>
      <path class="cls-15" d="M63.83,113.74c10.98-5.64,22.46-10.5,34.3-14.52-1.5.11-2.95.74-3.97,1.74"/>
      <path class="cls-15" d="M68.27,122.19l31.46-15.35c-2.04.31-3.9,1.44-4.98,3.02"/>
      <path class="cls-15" d="M141.79,44.99c-1.9-2.27-5.57-2.92-8.59-2.09s-5.46,2.89-7.31,5.18c-3.15,3.89-4.94,8.64-5.07,13.44-.11,3.93,1.05,8.12,4.29,10.78,2.49,2.04,6.08,2.96,9.4,2.39,2.44-.42,4.64-1.56,6.78-2.68,3.97-2.08,7.98-4.2,11.26-7.09"/>
      <path class="cls-15" d="M117.5,60.57c5.27-2.07,10.54-4.14,15.81-6.22-.63-.04-1.25.42-1.32.98"/>
      <path class="cls-15" d="M120.88,70.58l10.6-6.22"/>
      <path class="cls-15" d="M130.81,86.87c-.76.25-1.53.5-2.29.75,6.54-3.22,13.43-5.88,20.54-7.93"/>
      <path class="cls-15" d="M133.41,95.96c.13.26-.51.27-.52-.02s.33-.46.61-.57c7.67-3,15.56-5.55,23.6-7.63-.67.24-1.35.48-2.02.72"/>
      <path class="cls-15" d="M136.12,102.77c10.81-3.92,21.62-7.83,32.43-11.75.41.7-.82,1.22-1.7,1.27"/>
      <path class="cls-15" d="M138.52,111.02l-1.55.17c13.52-4.23,27.03-8.46,40.55-12.69-.65.35-1.57.2-2.05-.33"/>
      <path class="cls-15" d="M267.91,13.77c-1.9.41-3.8.81-5.71,1.22,22.77,2.3,45.92,4.69,67.01,12.71-1.14-.16-2.29-.31-3.43-.47"/>
      <path class="cls-15" d="M309.81,28.71c.77,0,1.55,0,2.32,0-16.61-2.92-33.2-5.9-49.78-8.93-.6.6-.26,5.44-.21,6.24,3.71.64,7.43,1.28,11.14,1.92,7.87,1.36,15.81,2.73,23.23,5.44,4.53,1.65,9,3.82,13.89,4.01"/>
      <path class="cls-15" d="M267.37,34.85c18.7,1.62,37.19,5.18,54.97,10.61-.68-.18-1.37-.37-2.05-.55"/>
      <path class="cls-15" d="M270.69,42.6c12.89,1.41,25.65,3.75,38.11,6.99"/>
      <path class="cls-15" d="M276.54,49.69c3.32,1.79,7.38,1.87,11.24,2.18,5.75.46,11.43,1.54,16.89,3.19,1.14.35,2.05-1.45,1-1.99-1.04-.54-2.32,1.07-1.41,1.78"/>
      <path class="cls-15" d="M361.81,110.97c-1.55-.83-3.09-1.67-4.64-2.5,8.66,2.9,16.54,7.63,22.83,13.68-9.45-2.04-17.36-7.71-26.36-11.01-3.01-1.11-6.47-1.93-9.47-.8,9.32,9.2,22.93,14.22,32.22,23.45-1.21-.32-2.43-.64-3.64-.96"/>
      <path class="cls-15" d="M344.55,121.38c8.44,5.81,16.31,12.28,23.51,19.3-.62-.09-.65-1.08-.04-1.2s1.05.79.53,1.11"/>
      <path class="cls-15" d="M339.23,127.92c-.57-.12-1.14-.24-1.71-.36,9.11,4.96,17.62,10.81,25.32,17.41"/>
      <path class="cls-15" d="M332.56,140.41c6.07,3.08,11.61,6.98,16.38,11.54"/>
      <path class="cls-15" d="M56.48,162.33c-.77.04-1.5.42-1.91,1,3.01,1.57,5.53,3.89,7.2,6.62.45-2.67,1.8-5.21,3.84-7.2-2.47-1.86-5.75-2.82-8.97-2.62-.2,1.13-.62,2.24-1.23,3.25.56-.19,1.12-.37,1.68-.56"/>
      <path class="cls-15" d="M66.81,176.2c1.63,2.33,3.97,4.27,6.7,5.54,1.62-1.15,3.09-2.59,3.61-4.38s-.18-3.95-2.01-4.8c-1.79-.83-4.08-.16-5.53,1.09s-2.25,2.98-3.01,4.65c.31-.06.63-.11.94-.17"/>
      <path class="cls-15" d="M79.02,188.46c1.38,1.48,3.04,2.76,4.89,3.76,1.01-1.29,2.03-2.57,3.04-3.86.32-.41.66-.91.47-1.38-.15-.37-.57-.58-.96-.76-1.46-.68-2.91-1.35-4.37-2.03-.15,2.07-1.52,4.03-3.52,5.06"/>
      <path class="cls-15" d="M52.2,162.82c4.16.28,8.27,1.01,12.23,2.17-.17-4.49-1.4-8.94-3.58-12.99.82-.65,2.3-.41,2.82.45"/>
      <path class="cls-15" d="M64.94,173.92c-.81-.14-.27,1.13.51,1.36,2.78.83,5.71,1.25,8.64,1.24-.49-4.48-.99-8.96-1.48-13.45-.05-.42-.21-.95-.68-.97s-.18.87.07.51"/>
      <path class="cls-15" d="M75.64,187.75c2.05,1,4.42,1.44,6.75,1.27.74-.05,1.61-.26,1.86-.89.16-.4,0-.85-.14-1.26-1.42-4-1.89-8.27-1.38-12.45.14.56-.12,1.18-.63,1.52"/>
      <path class="cls-15" d="M62.81,212.69c.96,4.22-3.23,8.74-8.04,8.67,1.97-1.1,4.66-1.03,6.56.17,1.89,1.2,2.86,3.45,2.36,5.48.17-1.82.61-3.68,1.82-5.15,1.21-1.47,3.35-2.44,5.32-1.97-2.31-.32-4.74-.68-6.58-1.97-1.84-1.3-2.79-3.86-1.39-5.54.15.56.29,1.13.44,1.69"/>
      <path class="cls-15" d="M76.52,243.12c3.13.16,5.46,2.93,5.89,5.71.43,2.78-.58,5.56-1.57,8.23,1.56-2.49,1.09-5.57,1.73-8.36s3.6-5.74,6.55-4.65c-2.25-1.02-4.52-2.28-5.7-4.28-1.25-2.14-.62-4.72,1.59-5.84-1.99,2.53-3.37,9.46-8.48,9.19Z"/>
      <path class="cls-15" d="M373.83,219.57c.94,4.35-1.28,9.11-5.4,11.57,1.74-1.48,4.82-.89,6.38.74s1.92,3.93,1.84,6.07c-.58-1.88-1.16-3.84-.78-5.75.38-1.92,2.04-3.78,4.21-3.89-4.16-.98-6.63-5.66-4.86-9.16-.02.5-1.12.38-1-.11"/>
      <path class="cls-15" d="M368.62,197.52c-.26,1.24-.64,2.52-1.56,3.47s-2.53,1.49-3.79.91c2.57.63,4.28,2.93,4.77,5.28s-.01,4.76-.51,7.1c.45-3.19.91-6.37,1.36-9.56.13-.94.36-2.02,1.26-2.52,1.65-.92,4.34.73,5.56-.62-5.64-3.75-6.06-9.5-5.52-15-.44-.07-.85,0-1.23.2.06,3.56-.34,7.18-.34,10.74Z"/>
      <path class="cls-15" d="M315.94,193.79c2.15-.61,4.68.1,6.05,1.7,1.37,1.6,1.49,3.97.28,5.67.96-1.96.53-4.24,1.18-6.3.65-2.06,3.49-3.9,5.31-2.52-3.26-2.47-6.94-1.99-7.34-7.08-.53,3.32-2.49,6.49-5.49,8.53Z"/>
      <path class="cls-15" d="M188.73,111.52l-1.09-1.34c15.93,11.41,35.73,17.98,55.75,18.49,2.27-5.15,4.93-10.15,7.95-14.94-.73.67-1.82.96-2.82.77"/>
    </g>
  </g>
</svg>