<?xml version="1.0" encoding="UTF-8"?>
<svg id="Ebene_2" data-name="Ebene 2" xmlns="http://www.w3.org/2000/svg" viewBox="0 0 434.96 360.52">
  <defs>
    <style>
      .cls-1 {
        fill: #d8dce5;
      }

      .cls-2 {
        fill: none;
        stroke: #161917;
        stroke-miterlimit: 10;
      }

      .cls-3 {
        fill: #4a4c52;
      }

      .cls-4 {
        fill: #bbb7b7;
      }

      .cls-5 {
        fill: #f6961c;
      }

      .cls-6 {
        fill: #5d5d63;
      }

      .cls-7 {
        fill: #545454;
      }

      .cls-8 {
        fill: #c3cad8;
      }

      .cls-9 {
        fill: #fff807;
      }

      .cls-10 {
        fill: #ff829a;
      }

      .cls-11 {
        fill: #772aa8;
      }

      .cls-12 {
        fill: #ffdcff;
      }

      .cls-13 {
        fill: #ffc8e0;
      }

      .cls-14 {
        fill: #ffd7ff;
      }

      .cls-15 {
        fill: #d350a3;
      }

      .cls-16 {
        fill: #ffd300;
      }

      .cls-17 {
        fill: #ffe700;
      }

      .cls-18 {
        fill: #fdc50d;
      }

      .cls-19 {
        fill: #fddf63;
      }

      .cls-20 {
        fill: #ff6897;
      }

      .cls-21 {
        fill: #ffbc00;
      }

      .cls-22 {
        fill: #6723ac;
      }

      .cls-23 {
        fill: #ffbe94;
      }

      .cls-24 {
        fill: #faaa15;
      }

      .cls-25 {
        fill: #e7eef7;
      }

      .cls-26 {
        fill: #b94aa2;
      }

      .cls-27 {
        fill: #ffe5ff;
      }

      .cls-28 {
        fill: #ffa5dc;
      }

      .cls-29 {
        fill: #a5afc1;
      }

      .cls-30 {
        fill: #ff9392;
      }

      .cls-31 {
        fill: #ffe0ff;
      }

      .cls-32 {
        fill: #f2f3f9;
      }

      .cls-33 {
        fill: #ffae8a;
      }
    </style>
  </defs>
  <g id="versicherungen">
    <g>
      <g id="Generatives_Objekt" data-name="Generatives Objekt">
        <path class="cls-32" d="M180.18,45.06c2.48,5.07.31,11.92.55,17.58l-.55-17.58Z"/>
        <path class="cls-32" d="M358.96,36.27c1.27-.62,11.13-3.9,11.53-3.02-2.94,3.8-7.2,2.76-11.53,3.02Z"/>
        <path class="cls-32" d="M419.93,305.95l3.84-2.2.82,1.1c-1.52.53-3.12.7-4.67,1.1Z"/>
        <path class="cls-32" d="M166.44,50.55c.41.01.45,5.42,0,5.49-1.05-1.84-.65-3.58,0-5.49Z"/>
        <path class="cls-32" d="M249.11,106.58c-.55.47-.89,1.97-2.2,1.65.06-1.28,2-1.49,2.2-1.65Z"/>
        <path class="cls-32" d="M165.35,67.58c.42,0,.42,2.2,0,2.2s-.42-2.2,0-2.2Z"/>
        <path class="cls-32" d="M159.03,151.07v-.55c.14.08.41-.08.55,0,.06.49-.15.48-.55.55Z"/>
        <path class="cls-32" d="M114.54,168.64c.08-.14-.08-.41,0-.55v.55Z"/>
        <path class="cls-32" d="M249.66,106.03s-.08-.65.55-.55c.09.63-.43.47-.55.55Z"/>
        <polygon class="cls-32" points="368.57 65.38 369.12 65.38 369.39 65.66 369.12 65.93 368.57 65.38"/>
        <polygon class="cls-32" points="246.91 108.22 246.64 108.77 246.36 108.5 246.64 108.22 246.91 108.22"/>
        <path class="cls-32" d="M358.96,36.27c-.08,0-.61,1.25-1.65.27.37-.58,1.29-.1,1.65-.27Z"/>
        <polygon class="cls-32" points="250.21 105.48 250.48 104.93 250.76 105.2 250.48 105.48 250.21 105.48"/>
        <path class="cls-32" d="M114.54,169.19c-.63.1-.52-.53-.55-.55h.55c-.08.14.07.4,0,.55Z"/>
        <polygon class="cls-32" points="361.98 64.83 362.53 64.83 362.8 65.11 362.53 65.38 361.98 64.83"/>
        <path class="cls-32" d="M249.11,106.58c.06-.05.44-.43.55-.55-.03.02-.18.24-.55.55Z"/>
        <g>
          <path class="cls-32" d="M323.81,220.82l-.55,2.75c-4.08-1.65-7.83-.11-9.61-.55-1.26-.31-1.87-4.86-4.12-1.65-.93-7.57-3.03-15.1-3.3-22.79l-1.1-.55-5.49,6.87c-3.05-10.12-8.49-18.99-15.38-26.91-1.71-1.97-3.59-4.28-5.49-6.04l47.79-3.57c-7.98.83-13.4.98-14.83,10.44-1.22,8.09,7.57,34.93,12.08,42.02Z"/>
          <path class="cls-32" d="M328.75,145.02c-11.15-3-24.6-3.45-35.7,0-1.43-2.28.43-5.52.55-8.79,4.13,2.2,8.32.03,12.36,0,6.16-.04,20.85,1.12,25.81,0,1.06-.24,1.78-1.52,2.47-2.2-1.05,6.13-5.63,2.46-5.49,10.99Z"/>
          <path class="cls-1" d="M328.75,145.02c0,.47,1.08,1.06,1.1,3.3-8.67,1.16-24.71,1.84-32.96-.55-1.43-.42-3.01-1.42-3.84-2.75,11.11-3.45,24.55-3,35.7,0Z"/>
          <path class="cls-1" d="M328.2,154.91c-.94,1.34-.5,1.54-2.47,2.2-2.43.81-22.9-.35-25.81-1.1-5.57-1.43-3.12-1.69-3.02-3.3,10.01-1.61,22.15-2.38,31.31,2.2Z"/>
          <path class="cls-32" d="M329.85,148.32c0,1.26-1.29,6.08-1.65,6.59-9.15-4.58-21.29-3.8-31.31-2.2.09-1.5.28-3.47,0-4.94,8.25,2.39,24.28,1.71,32.96.55Z"/>
          <path class="cls-32" d="M298.54,129.64c-.83,2.67-4.18,2.95-6.04,4.94-.14-.36-.99-4.29-1.1-4.94,2.36.09,4.78-.13,7.14,0Z"/>
          <path class="cls-32" d="M151.89,305.41c.34.06.76-.06,1.1,0,6.94,1.25,13.32,2.01,20.32,2.75.55.06.61.58,1.1.55.21,1.32.54,1.04.55,1.1.17.81.33,1.41.55,2.2-7.02.34-13.94,1.8-20.87,2.75-.02-2.42,4.43.34,3.02-2.75-9.09,1.16-18.32,1.2-27.46,1.65-5.31.26-12.08-.83-16.75.55,2.99-5.11,5.94-10.8,7.69-16.48.01-.04.33.21.55-.55,9.69,3.99,19.95,6.31,30.21,8.24Z"/>
          <g>
            <path class="cls-25" d="M175.51,312c.96,3.42,2.33,6.97,4.39,9.89l-89.25,10.44-2.2,1.65c90.74-.39,180.79-13.05,271.33-17.58l1.37-2.2c.99.39,4.53.03,6.04,1.1-1.69.47-3.26,1.87-5.77,1.1-2.65,6.8-5.68,12.08-12.08,15.93-14.65,8.79-105.73,19.66-128.53,22.52-60.55,7.59-120.87,10.02-177.68-15.65-.33-3.72,27.28-4.38,30.21-4.67,2.22-.22,5.9-.2,7.69-1.37-2.75-.2-5.5-.57-8.24-.82-8.04-.76-12.98-1.34-20.87-3.3,33.85-6.67,68.49-9.61,102.71-14.28,6.94-.95,13.85-2.4,20.87-2.75Z"/>
            <path class="cls-1" d="M106.85,314.19c3.49,5.37,5.52.32,6.59,0,4.67-1.38,11.45-.29,16.75-.55,9.14-.45,18.37-.49,27.46-1.65,1.41,3.08-3.04.33-3.02,2.75-34.22,4.67-68.86,7.61-102.71,14.28-7.27-1.8-16.36-4.46-22.79-8.24-2-1.17-15.51-11.4-12.08-13.73,29.65,4.84,59.69,7.44,89.8,7.14Z"/>
            <path class="cls-1" d="M360.06,305.41c.89,1.86.33,7.89.55,8.24-28.08-.95-56.48-3.08-84.58-2.75,1.49-.86,2.65-2.28,3.3-3.84,26.66-.7,53.45.12,79.92-3.3.06.77.68,1.35.82,1.65Z"/>
            <path class="cls-1" d="M423.77,303.76l-3.84,2.2c-16.86,4.28-36.53,4.84-52.73,9.34-1.51-1.06-5.05-.71-6.04-1.1-.63-.25-.39-.29-.55-.55-.22-.35.34-6.37-.55-8.24l63.71-1.65Z"/>
            <path class="cls-32" d="M73.35,334.52l-.55-2.2c2.74.26,5.49.63,8.24.82-1.78,1.18-5.47,1.15-7.69,1.37Z"/>
            <path class="cls-29" d="M276.02,310.9c28.11-.34,56.51,1.8,84.58,2.75.16.26-.08.3.55.55l-1.37,2.2c-90.54,4.52-180.59,17.19-271.33,17.58l2.2-1.65,89.25-10.44c6.24,8.84,8.04,3.48,10.44-3.84l34.6-3.84c3.26,4.92,4.79,4.19,7.14-1.1,13.8.02,27.99-1.99,41.74-2.2.73-.01,1.47,0,2.2,0Z"/>
            <path class="cls-32" d="M261.74,287.83c.3,1.49,1.24,3.01,1.65,4.39,1.36,4.61,2.89,9.67,5.49,13.73l-35.7,1.65c.6-2.35,1.65-4.65,1.65-7.14,9.37-3.43,18.22-7.7,26.91-12.63Z"/>
            <path class="cls-8" d="M273.82,310.9c-13.76.21-27.95,2.22-41.74,2.2.56-1.26.75-4.13,1.1-5.49l35.7-1.65c1.27,1.98,2.76,3.86,4.94,4.94Z"/>
            <path class="cls-8" d="M222.19,308.15c.18-.03.37.03.55,0-.09,1.95,1.17,4.49,2.2,6.04l-34.6,3.84c.85-2.61,1.2-5.01,1.65-7.69,9.36-2.18,21.09-.67,30.21-2.2Z"/>
            <g>
              <path class="cls-32" d="M323.26,223.57l.55-2.75c2.97,4.66,23.23,15.21,29.39,18.13,10.86,5.14,66.9,23.75,70.03,29.93,5.89,11.62-12.22,20.04-20.6,23.34-13.67,5.39-28.55,7.23-42.84,10.44-4.05-15.79-9.92-31.1-16.75-45.86-2.39-5.18-14.07-29.15-17.03-31.86-.9-.82-1.67-.94-2.75-1.37Z"/>
              <path class="cls-1" d="M333.14,131.84c.11.81,1.31.96,1.1,2.2-.7.68-1.41,1.96-2.47,2.2-4.97,1.12-19.65-.04-25.81,0-4.04.03-8.23,2.2-12.36,0-1.32-.71-.78-.84-1.1-1.65,1.86-1.99,5.22-2.27,6.04-4.94,11.51.63,23.04,2.19,34.6,2.2Z"/>
              <g>
                <path class="cls-16" d="M346.33,32.43c.19,6.46,1.83,12.9,1.1,19.5-.8,7.23-6,17.39-9.89,23.62-9.15,14.67-26.99,26.04-20.87,45.59-9.27,2.63-19.38.55-23.62-8.79-.45-1-.26-5.4-.55-6.04-2.74-6.1-9.08-9.13-15.65-8.51.2.7,3.15,3.51,3.57,3.84l-15.93-9.89c1.51.69,10.99,2.6,12.91,2.75,7.89.62,15.88-.78,23.34-3.3,2.36,8.87,4.3,18.81,9.61,26.36,5.47,0-.79-27.21-1.37-30.76,27.85-15.8,40.08-56.81,3.84-71.4,15.54-1.23,25.11,4.48,33.5,17.03Z"/>
                <path class="cls-21" d="M333.14,131.84c-11.56,0-23.1-1.57-34.6-2.2-2.36-.13-4.78.09-7.14,0-.03-.16-1.22-.26-1.1-3.02.17-3.65,2.8-8.22,2.2-13.18-.87-7.13-7.44-8.11-12.08-11.81-.42-.34-3.37-3.14-3.57-3.84,6.57-.61,12.92,2.41,15.65,8.51.29.64.1,5.05.55,6.04,4.24,9.33,14.34,11.42,23.62,8.79-6.12-19.55,11.72-30.92,20.87-45.59,3.88-6.23,9.09-16.38,9.89-23.62.73-6.59-.91-13.04-1.1-19.5,26.3,39.3-14.48,49.83-20.32,74.97-2.47,10.64,6.04,15.74,8.24,23.62.09.32-1.11.76-1.1.82Z"/>
                <g>
                  <path class="cls-17" d="M312.82,15.4c36.24,14.59,24,55.6-3.84,71.4-.32-1.95-2.98-12.81-2.75-13.46.27-.74,11.06-4.88,12.08-9.89,3.22-15.8-36.35-7.31-33.5,6.59,1.19,5.8,11.52,4.66,12.63,6.04.59.74,2.67,12.74,3.3,15.1-7.46,2.52-15.45,3.91-23.34,3.3-1.92-.15-11.39-2.06-12.91-2.75-5.91-2.7-10.4-12.28-10.99-18.4-2.78-29.02,33-55.87,59.32-57.95Z"/>
                  <path class="cls-9" d="M302.11,22.54c18.06-1.3.58,19.19-4.67,24.99-5.67,6.26-27.34,25.47-35.98,21.7-7.2-3.15,3.04-21.85,6.32-26.09,6.61-8.55,23.47-19.82,34.33-20.6Z"/>
                </g>
                <path class="cls-16" d="M308.98,86.8c.58,3.55,6.84,30.76,1.37,30.76-5.31-7.55-7.25-17.5-9.61-26.36-.63-2.37-2.7-14.36-3.3-15.1-1.11-1.38-11.45-.24-12.63-6.04-2.84-13.9,36.72-22.39,33.5-6.59-1.02,5.01-11.81,9.14-12.08,9.89-.24.64,2.43,11.51,2.75,13.46Z"/>
              </g>
              <path class="cls-32" d="M221.1,305.41l1.1,2.75c-9.11,1.53-20.85.01-30.21,2.2.15-.88.49-1.22.55-1.65,3.93.38,7.7-.63,11.53-1.1.35-.04.75.05,1.1,0,4.95-.65,11.19-1.08,15.93-2.2Z"/>
              <g>
                <path class="cls-30" d="M299.64,204.89c2.75,9.12,3.37,16.2,2.75,25.81-.29,4.47-1.68,11.46-2.75,15.93l-4.12-13.18c-3.25,10.77-8.6,21.94-17.3,29.11-.68-1.48-3.97-6.21-5.49-6.59-10.31-2.55-12.21,15.73-12.08,21.97-7.77,3.35-15.5,7.38-23.62,9.89-.18.06-.36-.37-1.65,0-9.49,2.75-20.41,5.51-30.21,6.59-.36.04-.74-.04-1.1,0-3.39.35-7.02.18-10.44.55-.56-8.7-5.77-25.94-14.83-11.53-5.42.82-8.98,6.06-8.79,11.53-5.84-.25-11.82-.72-17.58-1.65-.51-.08-.58-.46-1.1-.55-9.69-1.66-16.73-4.21-25.81-6.59,7.59-2.09,14.05-5.85,20.32-10.44,6.21,2.76,16.38,1.87,23.34,1.1,30.9-3.41,60.54-23.83,79.92-47.24,3.88.93,9.46-7.47,10.71-7.14.97.25,10.77,13.43,14.83,12.63,3.56-.7,9.59-13.99,10.44-14.28.49-.17,4.7,3.87,6.87.27,1.94-3.22-3.71-6.8-3.84-7.69-.06-.37,2.11-5.74,2.2-7.14.56-8.93-3.06-12.85-8.79-18.95,1.1-2.68,2.21-6.39,2.2-9.34h.55c6.89,7.93,12.33,16.8,15.38,26.91Z"/>
                <path class="cls-31" d="M143.65,154.91l10.99,5.49c-1.03.92-6.16,6.11-5.22,7.14,1.83-.2,5.8,2.46,7.14,2.2.28-.05,3.2-3.19,4.12-3.84,3.03,3.62,9.16,12.41,9.34,17.03.46,11.97-24.1.55-30.21-1.65-8.31-2.99-20.12-10.83-29.11-8.79,1.6-1.35,2.82-1.12,3.84-3.3.07-.15-.08-.41,0-.55v-.55c.04-.07-1.31-.23.27-1.65,4.29-3.83,22.7-9.74,28.84-11.53Z"/>
                <path class="cls-23" d="M242.52,151.61c.77,11.07-20.64,5.89-28.01,9.34-4.11,1.92-22.64,36.51-28.01,41.74-3.5-3.81-5.31-15.08-7.14-20.6l31.31-19.77c-.61-1.03-21.43,2.77-23.62,3.57,11.83-10.46,31.3-7.41,42.29-17.58,4.46.89,8.85,1.92,13.18,3.3Z"/>
                <path class="cls-13" d="M229.33,148.32c-10.99,10.17-30.47,7.12-42.29,17.58-7.49,2.75-12.82,10.65-17.03,17.03-.18-4.62-6.31-13.41-9.34-17.03,4.03-2.89,12.52-8.89,17.03-10.44,6.86-2.35,14.29-3.89,21.97-6.59,1.94-.68,5.39-.57,7.41-1.65l-.82-1.1c7.17-1.26,15.92.76,23.07,2.2Z"/>
                <path class="cls-23" d="M110.7,172.49c8.99-2.04,20.8,5.8,29.11,8.79l-22.79,2.2c-5.75.54-30.82,19.35-29.93,4.39.01-.18-.04-.38,0-.55l1.1-1.65c1.5-1.26,3.73-2.17,5.49-3.3,2.96-1.88,14.54-9.32,17.03-9.89Z"/>
                <path class="cls-30" d="M113.99,168.64s-.08.64.55.55c-1.03,2.18-2.24,1.95-3.84,3.3-2.49.57-14.07,8.01-17.03,9.89l-12.08-27.46c.09-.34-.21-.87.27-1.1,9.15,5.23,23.66,9.14,32.13,14.83Z"/>
                <path class="cls-20" d="M299.64,246.64c-2.94,12.37-9,24.05-18.13,32.96-.46-5.21-1.11-12.23-3.3-17.03,8.7-7.17,14.05-18.34,17.3-29.11l4.12,13.18Z"/>
                <path class="cls-20" d="M94.77,274.65c-1.31,1.52,1.45,3.48,2.47,4.39,6.97,6.21,15.33,8.52,24.44,7.69-.21,3.3-1.58,6.5-1.1,9.89-.35-.05-.87.09-1.1,0-5.32-2.05-11.69-4.61-16.48-7.69-12.02-7.73-15.73-15.44-20.32-28.01,3.7,4.87,7.05,10.14,12.08,13.73Z"/>
                <path class="cls-7" d="M309.53,221.37c.41,3.38,1.11,6.73,1.1,10.16l-8.24-.82c.62-9.61,0-16.7-2.75-25.81l5.49-6.87,1.1.55c.26,7.7,2.36,15.22,3.3,22.79Z"/>
                <path class="cls-33" d="M93.67,182.37c-1.77,1.12-4,2.04-5.49,3.3-.18.15-.55-.38-1.1.55-1.38.22-1.57.93-2.2-.82s-3.67-29-3.3-30.48l12.08,27.46Z"/>
                <g>
                  <path class="cls-3" d="M119.48,296.62c.23.09.75-.05,1.1,0,.08.55.57.62.55,1.1-1.75,5.67-4.7,11.36-7.69,16.48-1.07.32-3.1,5.37-6.59,0-1.82-2.8-3.61-14.46-3.84-18.13,3.51,6.75,14.69,10.36,16.48.55Z"/>
                  <path class="cls-6" d="M119.48,296.62c-1.79,9.81-12.97,6.2-16.48-.55-.15-2.35.11-4.78,0-7.14,4.78,3.08,11.16,5.63,16.48,7.69Z"/>
                </g>
                <path class="cls-11" d="M72.8,220.27c.68.28,2.01,1.38,3.02,1.65,2.1.55,6.62-2.54,7.41,2.75.19,1.28-.69,5.59-1.92,6.04-.35.13-7.06.09-7.41,0-1.56-.4-7.12-4.96-4.39-6.59l3.57,1.65c.96-1.31-2.35-2.08-2.47-2.2-2.09-2.1-3.37-3.84-3.84-6.87,2.27,1.41,3.42,2.48,6.04,3.57Z"/>
                <path class="cls-13" d="M165.07,153.81c-1.33.33-9.14,5.43-10.44,6.59l-10.99-5.49c4.76-1.39,10.53-3.03,15.38-3.84.4-.07.61-.05.55-.55,1.83,1.01,4.04,1.79,5.49,3.3Z"/>
                <path class="cls-11" d="M206.27,146.12l.82,1.1c-2.03,1.07-5.48.97-7.41,1.65.99-1.6,3.59-2.18,4.94-3.3,0,.77,1.11.64,1.65.55Z"/>
                <path class="cls-12" d="M69.5,224.12c.22-.13,1.15.32,1.1-.55.12.12,3.43.88,2.47,2.2l-3.57-1.65Z"/>
                <path class="cls-12" d="M88.18,185.67l-1.1,1.65c.07-.34-.09-.94,0-1.1.55-.93.92-.4,1.1-.55Z"/>
                <path class="cls-30" d="M186.49,202.7c5.37-5.24,23.9-39.82,28.01-41.74l19.77,43.12c-.89,2.26-43.59-.41-48.33-.55.23-.23.74-.61.55-.82Z"/>
                <g>
                  <path class="cls-33" d="M278.77,171.94c1.9,1.76,3.78,4.07,5.49,6.04h-.55c-4.3-4.73-5.14,1.04-7.14,4.39l-12.36-8.79c-1.6.36-5.55,14.19-7.69,14.83-1.64.49-5.71-1.75-7.41.55-.53-.26-3.53-1.51-3.84-.82,2.34,2.37,5.1,4.26,7.69,6.32-.14,2.06-6.52,9.27-6.59,10.16-.15,1.95,8.21,11.09,8.24,12.08.05,1.79-11.89,11.37-5.49,12.91-19.38,23.41-49.01,43.82-79.92,47.24-6.96.77-17.13,1.66-23.34-1.1,16.84-12.32,24.44-32.88,8.24-49.43-13.53-13.82-32.19-15.17-50.26-10.44-7.22,1.89-13.8,5.9-20.6,8.79-.8-5.29-5.31-2.2-7.41-2.75-1.01-.26-2.34-1.36-3.02-1.65,1.28-12.08,6.22-23.33,14.28-32.41-.89,14.96,24.18-3.85,29.93-4.39l22.79-2.2c6.1,2.19,30.67,13.62,30.21,1.65,4.21-6.38,9.54-14.28,17.03-17.03,2.19-.8,23.01-4.6,23.62-3.57l-31.31,19.77c1.83,5.51,3.64,16.79,7.14,20.6.19.21-.32.59-.55.82,4.74.14,47.45,2.81,48.33.55l-19.77-43.12c7.37-3.45,28.78,1.73,28.01-9.34,12.63,4.01,26.5,11.28,36.25,20.32Z"/>
                  <path class="cls-11" d="M178.53,209.29c3.21,4.09-.9,8.51-2.47,12.36.44.77,7.43-4.25,7.41-5.77,1.37,3.83-1.6,6.86-4.67,8.51,3.67,1.9,9.76-7.94,8.24-1.1-.9,4.07-11.42,6.65-15.1,6.87-.63-3.9-8.1-7.86-6.87-11.81,1.1-3.53,5.97,1.77,7.96,1.37,1.88-.37,5.11-8.38,5.49-10.44Z"/>
                </g>
                <path class="cls-20" d="M260.64,277.94c.06,3.06.57,5.8,1.1,8.79.06.34-.07.76,0,1.1-8.69,4.93-17.55,9.2-26.91,12.63-1.49.55-2.86,1.15-4.39,1.65-2.66.86-6.96,2.73-9.34,3.3-4.74,1.11-10.98,1.55-15.93,2.2v-13.18c9.8-1.08,20.72-3.84,30.21-6.59l1.37,11.53c2.24.11.07-9.69.27-11.53,8.12-2.51,15.84-6.53,23.62-9.89Z"/>
                <path class="cls-20" d="M125.53,286.18c9.09,2.38,16.13,4.93,25.81,6.59l.55,12.63c-10.26-1.93-20.51-4.25-30.21-8.24.93-3.32,1.95-6.95.55-10.44.46-.05-1.52-1.81,3.3-.55Z"/>
                <path class="cls-20" d="M170.02,294.97c.15,4.18,3.14,8.89,3.3,13.18-7.01-.74-13.39-1.49-20.32-2.75l-.55-12.08c5.76.93,11.74,1.39,17.58,1.65Z"/>
                <g>
                  <path class="cls-6" d="M278.22,262.56c2.19,4.79,2.84,11.81,3.3,17.03.13,1.51.51,3.07.55,4.39-2.04-.02-.78,3-1.1,4.12-.09.31-1.88,4.91-2.2,5.49-2.01,3.73-6.42,5.39-10.16,3.02l-5.22-4.39c-.41-1.39-1.35-2.9-1.65-4.39-.07-.34.06-.75,0-1.1l10.99-30.76c1.52.38,4.82,5.11,5.49,6.59Z"/>
                  <path class="cls-3" d="M282.06,283.98c.19,6.52-.23,17.04-2.75,23.07-.65,1.56-1.81,2.98-3.3,3.84-.73,0-1.47-.01-2.2,0-2.18-1.09-3.67-2.96-4.94-4.94-2.6-4.06-4.13-9.12-5.49-13.73l5.22,4.39c3.74,2.36,8.15.7,10.16-3.02.31-.58,2.11-5.18,2.2-5.49.32-1.12-.95-4.13,1.1-4.12Z"/>
                  <path class="cls-4" d="M272.73,255.97l-10.99,30.76c-.52-2.99-1.04-5.73-1.1-8.79-.12-6.24,1.78-24.52,12.08-21.97Z"/>
                </g>
                <path class="cls-20" d="M204.07,294.42v13.18c-3.83.47-7.61,1.48-11.53,1.1.22-1.6.45-3.33.55-4.94.13-1.98.64-7.35.55-8.79,3.41-.37,7.04-.2,10.44-.55Z"/>
                <g>
                  <path class="cls-3" d="M193.08,303.76c-.1,1.61-.33,3.34-.55,4.94-.06.42-.4.77-.55,1.65-.45,2.68-.8,5.08-1.65,7.69-2.39,7.32-4.19,12.68-10.44,3.84-2.06-2.91-3.43-6.47-4.39-9.89-.22-.78-.38-1.38-.55-2.2,4.36-1.13,9.05,1.07,13.46-.55,3.91-1.44,1.78-4.46,4.67-5.49Z"/>
                  <path class="cls-6" d="M193.63,294.97c.09,1.44-.42,6.81-.55,8.79-2.89,1.03-.76,4.05-4.67,5.49-4.41,1.62-9.1-.58-13.46.55-.01-.06-.34.22-.55-1.1-1.32-8.15-.04-18.21,4.39-25.27,9.06-14.41,14.27,2.83,14.83,11.53Z"/>
                  <path class="cls-4" d="M178.8,283.44c-4.44,7.06-5.72,17.11-4.39,25.27-.49.03-.55-.49-1.1-.55-.15-4.29-3.15-9-3.3-13.18-.19-5.47,3.36-10.72,8.79-11.53Z"/>
                </g>
                <path class="cls-26" d="M205.17,294.42v13.18c-.35.05-.74-.04-1.1,0v-13.18c.36-.04.74.04,1.1,0Z"/>
                <path class="cls-26" d="M237.02,287.83c-.21,1.84,1.96,11.65-.27,11.53l-1.37-11.53c1.29-.37,1.47.06,1.65,0Z"/>
                <path class="cls-26" d="M152.44,293.32l.55,12.08c-.34-.06-.76.06-1.1,0l-.55-12.63c.52.09.59.47,1.1.55Z"/>
                <g>
                  <path class="cls-10" d="M145.85,275.75c-6.27,4.59-12.73,8.35-20.32,10.44-4.81-1.26-2.84.5-3.3.55-.18.02-.37-.02-.55,0-9.12.83-17.47-1.48-24.44-7.69-1.02-.91-3.78-2.88-2.47-4.39,16.33,11.65,37.86,3.3,51.9-8.24,12.98-10.67,16.83-25.34,7.41-40.1,16.2,16.56,8.6,37.11-8.24,49.43Z"/>
                  <g>
                    <path class="cls-23" d="M154.09,226.31c9.42,14.75,5.57,29.43-7.41,40.1-14.04,11.54-35.57,19.89-51.9,8.24-5.04-3.59-8.39-8.86-12.08-13.73-3.56-9.77-7.51-19.94-8.79-30.21.36.09,7.07.13,7.41,0,1.23-.46,2.12-4.76,1.92-6.04,6.8-2.89,13.37-6.89,20.6-8.79,18.06-4.74,36.73-3.39,50.26,10.44Z"/>
                    <path class="cls-30" d="M101.63,227.96c9.15,1.21,6.71,28.57-.55,28.56-6.83,0-6.4-19.78-4.12-23.89l.27,5.22c1.2-3.48,1.5-7.34,4.39-9.89Z"/>
                    <path class="cls-10" d="M134.31,227.96c5.84,6.26,5.34,21.39-.55,27.46-.57.04-.77.82-1.37.55-4.28-3.85-4.35-10-4.12-15.38,2.15-2.29,2.7-7.66,2.75-10.99.4-.56.76-1.27,1.37-1.65,1.22-.75,1.34-.03,1.92,0Z"/>
                    <path class="cls-27" d="M133.76,255.42c5.89-6.07,6.39-21.21.55-27.46.05,0,.05-.88.82-.55,5.67,2.52,5.52,24.79-.55,28.56-.78.35-.77-.55-.82-.55Z"/>
                    <path class="cls-28" d="M128.27,240.59c.16-3.74.43-7.72,2.75-10.99-.05,3.33-.6,8.7-2.75,10.99Z"/>
                  </g>
                </g>
                <g>
                  <path class="cls-5" d="M204.62,145.57c-1.35,1.11-3.96,1.69-4.94,3.3-7.68,2.7-15.11,4.24-21.97,6.59-3.54.03-9.5-2.42-12.63-1.65-1.45-1.51-3.66-2.28-5.49-3.3-.14-.08-.41.08-.55,0-10.86-6.25-27.1-24.48-28.01-37.35,2.13-.68,2.82,1.05,3.84,1.65,9.99,39.69,79.81,36.18,81.84-6.59,2.57,14.45-.41,27.72-12.08,37.35Z"/>
                  <path class="cls-24" d="M216.7,108.22c-2.03,42.77-71.85,46.28-81.84,6.59,18.01,10.44,29.4,22.81,52.45,20.32,18.26-1.97,30.71-16.88,24.44-35.43-1.81-5.34-8.24-8.95-11.81-12.91-.92-1.02-1.14-.89-.27-2.2,10.44,5.37,14.97,12.07,17.03,23.62Z"/>
                  <g>
                    <path class="cls-18" d="M199.67,84.61c-.87,1.31-.64,1.18.27,2.2,3.57,3.96,10,7.56,11.81,12.91,6.27,18.55-6.18,33.46-24.44,35.43-23.05,2.49-34.44-9.89-52.45-20.32-1.03-.6-1.72-2.32-3.84-1.65-1.93-27.34,47.44-39.47,68.66-28.56Z"/>
                    <path class="cls-19" d="M173.59,82.96c5.63-.1,22.37,3.8,13.18,11.53-5.08,4.28-38.82,10.21-40.92,3.02-2.34-7.98,22.1-14.45,27.74-14.56Z"/>
                    <path class="cls-19" d="M173.59,102.73c2.34-.17,17.76-.61,15.1,4.67s-35.6,8.83-36.8,4.39c-1.3-4.8,18.23-8.82,21.7-9.06Z"/>
                  </g>
                </g>
                <path class="cls-22" d="M177.7,155.46c-4.51,1.54-13,7.55-17.03,10.44-.92.66-3.84,3.79-4.12,3.84-1.34.26-5.31-2.4-7.14-2.2-.94-1.03,4.19-6.23,5.22-7.14,1.3-1.16,9.1-6.26,10.44-6.59,3.14-.78,9.09,1.68,12.63,1.65Z"/>
                <path class="cls-15" d="M121.68,297.17c-.21.76-.54.51-.55.55.02-.48-.47-.55-.55-1.1-.48-3.38.89-6.59,1.1-9.89.18-.02.37.02.55,0,1.4,3.49.39,7.12-.55,10.44Z"/>
                <g>
                  <path class="cls-23" d="M249.11,229.61c-6.39-1.54,5.55-11.12,5.49-12.91-.03-.99-8.39-10.14-8.24-12.08.07-.89,6.45-8.1,6.59-10.16,3.77,2.99,7.77,5.77,11.53,8.79-.71,2.14-9.3,12.6-9.34,13.46s3.62,5.17,4.12,5.22c2.05.21,8.97-12.37,11.26-13.73,1.86,1.47,13.37,11.63,14.28,11.53.9-.09,3.28-4.27,3.3-4.67.08-2.78-11.79-11.17-14.28-13.46.35-.62.45-1.46.55-1.65,2.25-4.08,5.37-8.33,7.14-12.63,5.73,6.1,9.35,10.02,8.79,18.95-.09,1.4-2.25,6.77-2.2,7.14.13.89,5.79,4.47,3.84,7.69-2.17,3.6-6.38-.44-6.87-.27-.84.29-6.88,13.58-10.44,14.28-4.06.8-13.86-12.38-14.83-12.63-1.25-.33-6.84,8.07-10.71,7.14Z"/>
                  <path class="cls-23" d="M276.57,182.37c-2.78,4.67-5.16,9.62-7.96,14.28-5.1-1.54-11.03-11.76-14.56-4.39-1.06-.69-4.3-2.98-4.94-3.3,1.71-2.3,5.78-.06,7.41-.55,2.14-.64,6.09-14.47,7.69-14.83l12.36,8.79Z"/>
                  <path class="cls-13" d="M283.71,177.98c.02,2.95-1.09,6.66-2.2,9.34-1.77,4.3-4.89,8.56-7.14,12.63-2.1,2.05-4.8-3.11-6.32-2.75l-3.02,3.84c-3.43-2.75-7.37-6.42-10.99-8.79,3.53-7.36,9.46,2.86,14.56,4.39,2.81-4.66,5.18-9.61,7.96-14.28,2-3.35,2.84-9.12,7.14-4.39Z"/>
                  <path class="cls-27" d="M249.11,188.96c.65.32,3.88,2.6,4.94,3.3,3.61,2.37,7.55,6.03,10.99,8.79,2.15,1.72,4.52,3.12,6.59,4.94,4.41,3.89,9.28,9.25,13.18,13.73-.91.09-12.42-10.07-14.28-11.53-2.04-1.61-4.02-3.32-6.04-4.94-3.77-3.02-7.76-5.79-11.53-8.79-2.59-2.06-5.35-3.95-7.69-6.32.31-.68,3.32.56,3.84.82Z"/>
                  <path class="cls-14" d="M270.53,208.19c-2.29,1.36-9.21,13.94-11.26,13.73-.5-.05-4.15-4.37-4.12-5.22s8.62-11.32,9.34-13.46c2.02,1.62,4,3.33,6.04,4.94Z"/>
                  <path class="cls-13" d="M284.81,219.72c-3.9-4.48-8.77-9.84-13.18-13.73.29-1.65,1.41-2.98,2.2-4.39,2.49,2.28,14.36,10.68,14.28,13.46-.01.4-2.39,4.58-3.3,4.67Z"/>
                  <path class="cls-31" d="M274.37,199.95c-.1.19-.2,1.03-.55,1.65-.79,1.41-1.91,2.74-2.2,4.39-2.07-1.83-4.44-3.22-6.59-4.94l3.02-3.84c1.51-.37,4.22,4.79,6.32,2.75Z"/>
                </g>
                <path class="cls-3" d="M234.83,300.46c0,2.49-1.05,4.79-1.65,7.14-.35,1.36-.54,4.23-1.1,5.49-2.35,5.29-3.88,6.02-7.14,1.1-1.03-1.55-2.29-4.1-2.2-6.04,2.04-.39,8.84-2.9,7.69-6.04,1.54-.49,2.9-1.1,4.39-1.65Z"/>
                <path class="cls-6" d="M222.74,308.15c-.18.03-.37-.03-.55,0l-1.1-2.75c2.38-.56,6.67-2.44,9.34-3.3,1.15,3.14-5.65,5.65-7.69,6.04Z"/>
              </g>
            </g>
          </g>
        </g>
      </g>
      <path class="cls-2" d="M265.62,273.49c.83,2.52-.45,5.27-1.86,7.44-9.81,15.08-26.97,21.42-43.31,24.58-36.05,6.99-73.76,2.69-107.84-12.29-5.99-2.63-11.93-5.63-17.01-10.08-11.57-10.13-17.52-27.83-14.81-44.07.79-4.74,2.32-9.45,5.14-13.08,3.65-4.7,9.08-7.13,14.44-8.7,12.3-3.6,25.44-3.52,37.7.24,9.55,2.92,19.51,9.31,21.96,20.13,1.89,8.39-1.43,17.44-6.79,23.63-5.37,6.18-12.51,9.96-19.65,13.12-9.4,4.14-19.7,7.46-29.47,4.64-10.25-2.96-18.35-12.5-22.4-23.53-4.04-11.03-10.13-21.31-8.88-33.16.82-7.72,4.25-19.54,10.62-27.61,8.3-10.52,17.2-16.85,27.99-23.22,32.45-19.16,69.79-27.59,106.27-24.01,17.7,1.74,35.48,6.38,50.75,16.63,15.27,10.24,27.85,26.58,32.04,46.07,5.76,26.81-5.06,55.22-21.25,75.89"/>
      <path class="cls-2" d="M90.38,191.89c.16.39-.44.74-.82.54s-.52-.65-.63-1.06c-4.38-16.14-7.15-20.96-6.89-37.67,15.37,12.01,31.41,12.09,46.77,24.1-1.27-.88-2.55-1.75-3.82-2.63.71.93,2.39-.7,1.48-1.44"/>
      <path class="cls-2" d="M176.39,179.77c-1.47.61-3.24.3-4.44-.77,9.98-11.57,23.91-19.37,38.68-21.65,1.42-.22,2.94-.38,4.24.25,1.31.63,2.25,2.32,1.61,3.66-.29.62-.87,1.08-1.09,1.73-.28.82.07,1.71.42,2.49,5.69,12.82,14.26,24.71,15.96,38.72-11.3.28-22.61.57-33.91.85-2.57.06-5.25.11-7.6-1-2.73-1.3-4.62-3.99-5.97-6.79-2.94-6.09-3.89-13.21-2.66-19.9.08-.45.21-.96.6-1.19.3-.17.67-.12,1.01-.07,3.8.6,7.59,1.21,11.39,1.81"/>
      <path class="cls-2" d="M214.46,205.37c-.68-.27-1.36-.53-2.04-.8-.23-16.45.98-32.92,3.63-49.14.06.94.1,1.99-.48,2.72s-2.01.64-2.14-.3"/>
      <path class="cls-2" d="M175.49,222.37c-1.26-1.95-3.62-3.7-5.76-2.8-1.96.82-2.51,3.55-1.59,5.47.92,1.92,2.85,3.13,4.78,4.02,2.09.96,4.47,1.66,6.67,1,2.2-.65,3.98-3.12,3.15-5.26-.4-1.03-1.28-1.78-2.21-2.38-4.02-2.57-9.5-2.66-13.61-.23,1.41,1.38,3.74,1.7,5.47.77-.14-.67-.28-1.35-.41-2.02"/>
      <path class="cls-2" d="M100.75,235.68c-1-.69-2-1.38-3-2.07-3.61,6.18-3.4,14.4.52,20.38.47.72,1.03,1.43,1.82,1.76,2.15.89,4.19-1.5,5.1-3.64,2.01-4.76,2.75-10.05,2.12-15.17-.36-2.91-1.59-6.24-4.43-6.99-2.5-.66-5.13,1.2-6.12,3.58s-.69,5.1-.08,7.61c1.73-.19,3.34-1.2,4.28-2.66"/>
      <path class="cls-2" d="M133.69,235.02c.09-1.33-1.93-1.91-2.99-1.09-1.06.82-1.32,2.28-1.51,3.6-.51,3.57-1.03,7.2-.48,10.77.55,3.56,2.32,7.12,5.43,8.95,2.79-7.59,3.73-15.85,2.73-23.87-.13-1.08-.39-2.29-1.31-2.86-1.01-.63-2.34-.19-3.35.45-2.26,1.44-3.87,3.86-4.33,6.51.44-.43.88-.87,1.32-1.3"/>
      <path class="cls-2" d="M175.46,314.86c1.1,3.19,2.44,6.4,4.93,9.05,1.47,1.56,3.85,3,6.17,2.37,2.13-.57,3.03-2.55,3.57-4.29,1.94-6.22,7.1-48.99-7.18-42.65-1.69.75-4.84,4.47-6.66,5.74-2.71,1.89-4.18,1.33-5.52,4.34-2.85,6.38,2.51,19.16,4.69,25.44Z"/>
      <path class="cls-2" d="M105.6,290.98c-.08-.7-.65-1.37-1.5-1.76-1.72,9.61-.21,19.48,4.37,28.64,2.52.48,4.48-1.49,5.43-3.16,3.96-6.92,6.48-14.22,7.45-21.62.26-1.99-.2-4.59-3.05-5.06.99.98,1.77,2.6.19,3.1"/>
      <path class="cls-2" d="M268.76,305.9c1.31,2.43,3.53,5.17,6.74,4.95,3.38-.23,4.95-3.51,5.59-6.25,1.49-6.28,2.56-57.15-14.17-47.07-5.59,3.37-5.65,14.69-5.73,19.61-.16,9.84,2.73,19.78,7.56,28.75Z"/>
      <path class="cls-2" d="M221.23,295.28c.11-.81-1.23-.01-1.26.81-.23,6.96,1.4,13.96,4.66,20.11.87,1.64,2.52,3.47,4.25,2.78,5.58-8.06,7.83-18.36,6.11-28.01-.78.36-.77,1.71.02,2.05"/>
      <path class="cls-2" d="M177.61,153.69c-.05,1.53-.09,3.07-.14,4.6-15.02-4.17-28.52-13.59-37.62-26.24-6.78-9.43-10.85-23.08-3.68-32.21,1.93-2.46,4.51-4.33,7.12-6.05,11.84-7.78,25.78-13.25,39.9-12.2,14.12,1.04,28.21,9.69,32.8,23.09,3.36,9.8,1.4,20.68-2.34,30.34-1.96,5.08-4.81,10.37-9.84,12.45-5.03,2.08-12.27-1.35-11.8-6.77,1.82.76,3.64,1.52,5.45,2.27"/>
      <path class="cls-2" d="M182.51,109.09c.56-2.33-.89-4.8-2.96-6.01s-4.6-1.34-6.97-1.03c-4.88.63-9.58,3.1-12.52,7.05-2.93,3.95-3.92,9.39-2.16,13.98,2.81,7.36,11.22,10.69,18.81,12.78,3.04.84,6.28,1.62,9.32.74,3.03-.87,5.65-4.01,4.8-7.05-1.1.23-2.2.46-3.31.69"/>
      <path class="cls-2" d="M151.42,122.92c10-.02,19.99-1.43,29.59-4.19-1.13.28-3.08-3.41-4.11-3.98.74-.02,1.47-.05,2.21-.07-10.49-.64-20.99-1.24-31.49-1.78,1.05.32,2.1.65,3.14.97"/>
      <path class="cls-2" d="M164.07,68.04c-.45-5.93.08-11.93,1.55-17.69"/>
      <path class="cls-2" d="M180.45,66.62c.24-5.9.47-11.8.71-17.7"/>
      <path class="cls-2" d="M298.77,203.18c.06-.02.12-.04.18-.05,2.91-.7,5.83-1.39,8.74-2.09-1.19-.22-1.53,1.57-1.32,2.76,1.7,9.72,3.41,19.45,5.11,29.17-5.58-1.21-11.46-1-16.94.6,2.01.49,4.29-.37,5.48-2.06"/>
      <path class="cls-2" d="M317.81,168.69l6.75-.82c-8.54-.42-17.11-.12-25.59.92,10.07,1.67,20.46,1.41,30.43-.76-8.81-5.09-18.44-8.74-28.41-10.78,10.51,1.43,21.22,1.46,31.74.08-13.96-5.33-28.7-8.64-43.61-9.79,18.75,3.31,38.15,2.97,56.77-.98-20.33-.05-40.65-2.68-60.32-7.8,19.27-1.22,38.53-2.45,57.8-3.67-17.68-2.08-35.35-4.15-53.03-6.23.74-5.1,1.11-10.25,1.08-15.4,0-1.91-.08-3.89-.91-5.62-1.69-3.52-5.87-4.93-9.56-6.21-7.67-2.66-15.26-6.45-20.35-12.77-8.23-10.23-8.12-25.48-2.19-37.19,5.92-11.72,16.71-20.3,28.25-26.56,14.13-7.66,31.69-12.27,46.06-5.08,7.83,3.92,13.81,11.01,17.4,18.99,4.28,9.5,5.33,20.68,1.6,30.42-4.41,11.52-14.63,19.63-21.94,29.57-1.81,2.47-3.5,5.19-3.84,8.23-.34,3.13.78,6.22,1.89,9.17,2.61,6.97,5.23,13.94,7.84,20.91"/>
      <path class="cls-2" d="M297.53,59.75c-.1-.6-.21-1.22-.58-1.7-1.25-1.6-3.79-.2-5.1,1.35-2.21,2.6-3.99,5.58-5.24,8.76-.55,1.39-1,2.88-.74,4.35.41,2.32,2.57,4.03,4.86,4.57,2.29.54,4.7.11,6.98-.48,5.45-1.4,10.67-3.72,15.37-6.83,2.08-1.38,4.13-2.98,5.28-5.2,1.16-2.21,1.21-5.17-.47-7.02-2.7-2.97-8.11-1.16-10.03,2.37s-1.44,7.83-.9,11.81c1.81,13.36,7.72,31.86,5.5,44.93-12.26-1.86-13.27-46.7-14.92-56.91Z"/>
      <path class="cls-2" d="M258.29,98.45c-2.39,3.58-5.08,6.97-8.03,10.12-.8.86-1.67,1.73-2.79,2.09s-2.55.02-3.06-1.03c.39-.65.77-1.29,1.16-1.94"/>
      <path class="cls-2" d="M248.41,79.36c-4.77,1.72-9.41,3.8-13.86,6.24,1.08-.66,2.16-1.33,3.25-1.99"/>
      <path class="cls-2" d="M249.79,56.11c-3.53-1.15-6.75-3.2-9.3-5.9.51-.43,1.03-.86,1.54-1.29"/>
      <path class="cls-2" d="M264.01,34.02c-3.53-2.45-6.08-6.26-7.02-10.45"/>
      <path class="cls-2" d="M288.06,19.18c-1.4-1.49-5.79-11.74-3.54-9.2"/>
      <path class="cls-2" d="M307.36,10c.38-3.31.75-6.63,1.13-9.94"/>
      <path class="cls-2" d="M334.84,16.4c2.75-3.37,5.5-6.73,8.24-10.1-.41.76-.81,1.51-1.22,2.27"/>
      <path class="cls-2" d="M360.98,36.89l9.2-.75"/>
      <path class="cls-2" d="M363.82,66.59c3.35,1.3,6.57,2.91,9.61,4.82.49.31,1.03.69,1.11,1.27s-.67,1.18-1.07.76"/>
      <path class="cls-2" d="M355.17,95.73c2.04,3.3,4.52,6.33,7.34,8.99"/>
      <path class="cls-2" d="M341.15,116.17c2.4,1.91,4.8,3.82,7.2,5.74,1-.52,1.53-1.8,1.19-2.88"/>
      <path class="cls-2" d="M316.52,167.58c-5.64,9.08-5.83,20.71-3.01,31.03,2.81,10.32,8.32,19.65,13.61,28.94,13.31,23.37,25.74,47.62,32.03,73.77,1.64,6.81,2.8,14.19.05,20.63-4.95,11.57-19.56,14.7-32.02,16.51-47.94,6.97-95.5,17.13-143.83,20.48-48.33,3.35-98.22-.47-142.42-20.3,14.98-5.98,31.59-5.71,47.71-6.42,48.44-2.14,95.96-13.88,144.24-18.34,48.42-4.47,97.2-1.6,145.67,2.26-91.9,2.07-183.21,15.96-275.1,18.41-18.69.5-37.71.48-55.63-4.87,11.68-1.72,23.37-3.44,35.05-5.16,48.51-7.14,97.13-14.28,146.11-16.44,35.38-1.55,70.86-.5,106.2-2.73,26.9-1.7,54.33-5.51,78.17-18.06,5.38-2.83,11.33-8.08,9.33-13.83-.83-2.37-2.88-4.08-4.95-5.5-8.32-5.67-18.21-8.44-27.76-11.62-24.61-8.19-48.11-19.7-69.67-34.12-5.33-3.56-13.08-7.1-17.38-2.35,1.45-.43,2.9-.87,4.36-1.3"/>
      <path class="cls-2" d="M105.81,309.51c-.23-.57.88-.61.75.07s-.8.93-1.32,1.03c-10.45,1.98-20.93,3.57-31.3,3.68-20.8.22-52.92-4.48-73.87-1.7,7.15-.94,14.3-1.88,21.44-2.82"/>
      <path class="cls-2" d="M379.51,305.48c-.61-.24-1,.86-.51,1.3s1.25.34,1.89.21c14.41-2.8,39.47-2.2,53.99-.05"/>
      <path class="cls-2" d="M247.25,207.22c.14.92.89,1.6,1.57,2.23,8.93,8.27,14.42,20.81,25.68,25.45.75.31,1.59.58,2.36.32.84-.28,1.36-1.1,1.8-1.86,5.24-8.98,9.77-18.37,13.54-28.06.32-.83.65-1.71.53-2.6-.12-.93-.7-1.73-1.27-2.48-5.59-7.43-15.45-22.12-26.53-19.57-7.42,1.71-18.82,19.29-17.68,26.57Z"/>
      <path class="cls-2" d="M257.59,196.99c-4.37-.94-8.18-4.2-9.79-8.37"/>
      <path class="cls-2" d="M260.42,191.34c-3.53-.81-6.54-3.56-7.68-6.99"/>
      <path class="cls-2" d="M259.37,214.97c-2.39,3.04-4.79,6.08-7.18,9.12-.26.33-.53.79-.28,1.13s.88-.29.47-.38"/>
      <path class="cls-2" d="M263.94,219.46c-2.9,1.96-4.95,5.13-5.56,8.58"/>
      <path class="cls-2" d="M283.72,218.21c.96.92,1.92,1.85,2.89,2.77"/>
      <path class="cls-2" d="M285.2,212.49c2.57,1.92,5.15,3.84,7.72,5.75"/>
      <path class="cls-2" d="M274.3,187.22c1.18-1.83,2.36-3.67,3.54-5.5.19-.3.5-.64.83-.51s-.14.75-.23.41"/>
      <path class="cls-2" d="M282.38,190.62c1.18.13,2.31-1.06,2.12-2.23"/>
      <path class="cls-2" d="M165.83,151.73c-5.47,4.56-10.56,9.57-15.21,14.97,1.48,1.55,3.47,2.61,5.58,2.97.57.1,1.16.14,1.71,0,.84-.23,1.49-.86,2.13-1.45,12.61-11.7,31.53-13.19,46.51-21.65-.66-1.17-1.32-2.35-1.98-3.52"/>
      <path class="cls-2" d="M77.82,222.08c-1.71.06-3.48.19-5.01.97-1.53.78-2.76,2.38-2.62,4.09.16,1.84,1.87,3.26,3.68,3.64s3.69-.04,5.47-.53c1.6-.44,3.33-1.07,4.1-2.54.97-1.88-.22-4.29-2.03-5.38s-4.03-1.2-6.14-1.26c-.02,1.15,1.46,2.02,2.46,1.44"/>
      <path class="cls-2" d="M66.7,217.66c1.31,2.48,3.48,4.5,6.05,5.63-1.88-1.63-5.7-3.16-6.05-5.63Z"/>
      <path class="cls-2" d="M174.96,219.62l2.83-5.66"/>
      <path class="cls-2" d="M178.89,222.18c1.57-1.22,3.14-2.43,4.71-3.65"/>
      <path class="cls-2" d="M182.56,225.16l4.95-.74"/>
      <path class="cls-2" d="M74.76,222.61c-1.63-1.79-2.54-4.21-2.5-6.63"/>
    </g>
  </g>
</svg>