<?xml version="1.0" encoding="UTF-8"?>
<svg id="Ebene_2" data-name="Ebene 2" xmlns="http://www.w3.org/2000/svg" xmlns:xlink="http://www.w3.org/1999/xlink" viewBox="0 0 523.37 291.56">
  <defs>
    <style>
      .cls-1 {
        fill: #e65148;
      }

      .cls-2 {
        fill: #648187;
      }

      .cls-3 {
        fill: #c7c5c5;
      }

      .cls-4 {
        fill: #e9eaea;
      }

      .cls-5 {
        fill: #6a8f94;
      }

      .cls-6 {
        fill: #f19658;
      }

      .cls-7 {
        fill: #fac8bb;
      }

      .cls-8 {
        fill: #fdc494;
      }

      .cls-9 {
        fill: #c3dfe0;
      }

      .cls-10 {
        fill: #ffb89a;
      }

      .cls-11 {
        fill: #ffe8e1;
      }

      .cls-12 {
        fill: #fba95a;
      }

      .cls-13 {
        fill: #8aaeb3;
      }

      .cls-14 {
        fill: none;
        stroke: #000;
        stroke-miterlimit: 10;
      }

      .cls-15 {
        fill: #945148;
      }

      .cls-16 {
        fill: #363d41;
      }

      .cls-17 {
        fill: url(#Unbenannter_Verlauf_293);
      }

      .cls-18 {
        fill: url(#Unbenannter_Verlauf_292);
      }

      .cls-19 {
        fill: #b37061;
      }

      .cls-20 {
        fill: #ccd7b3;
      }

      .cls-21 {
        fill: #ff7bbd;
      }

      .cls-22 {
        fill: #dcebeb;
      }
    </style>
    <linearGradient id="Unbenannter_Verlauf_292" data-name="Unbenannter Verlauf 292" x1="1411.73" y1="-1733.57" x2="1395.7" y2="-1496.35" gradientTransform="translate(-538.43 1206.69) scale(.63)" gradientUnits="userSpaceOnUse">
      <stop offset="0" stop-color="#9dc0c4"/>
      <stop offset="1" stop-color="#769ea4"/>
    </linearGradient>
    <linearGradient id="Unbenannter_Verlauf_293" data-name="Unbenannter Verlauf 293" x1="1495.88" y1="-1754.91" x2="1504.71" y2="-1551.77" gradientTransform="translate(-538.43 1206.69) scale(.63)" gradientUnits="userSpaceOnUse">
      <stop offset="0" stop-color="#96b8bd"/>
      <stop offset="1" stop-color="#688f96"/>
    </linearGradient>
  </defs>
  <g id="versicherungen">
    <g>
      <path class="cls-3" d="M176.28,261.7c-24.76-2.43-48.67,8.49-71.15,19.15-5.16,2.44-10.74,5.32-12.94,10.58,43.27-5.19,86.22-13.01,128.53-23.42-10.5-8.49-24.39-12.67-37.83-11.36,2.07-1.54,5.26-1.29,7.06.55"/>
      <path class="cls-3" d="M308.04,265.86c-20.42,4.14-40.52,9.89-60.04,17.18,19.26-.49,38.02,5.74,57.17,7.77,37.62,3.99,75.17-8.36,109.17-24.96-4.9-.07-9.78-1.12-14.27-3.09-3.08,3.13-1.73,9.3,2.37,10.85,4.1,1.56,9.21-2.16,8.98-6.55s-5.69-7.55-9.61-5.57"/>
      <g id="Generatives_Objekt" data-name="Generatives Objekt">
        <path class="cls-3" d="M288.38,260.32c-.82.97-2.3,4.15-2.01,5.52,1.46,2.67,4.87,2.66,7.52,3.51.95.31,4.21.18,5.02.5s1.39,1.95,1.5,2.01c.42.21-.51.41,2.01,1-.44.55-1.61.93-2.26,1-23.95,2.55-62.75-.38-88.03-1,3.91.15.32-5.93,1.76-6.02,4.08,2.25,9.67,3.21,14.29,3.51,19.39,1.27,41.13-6.83,60.19-10.03Z"/>
        <path class="cls-4" d="M389.7,278.88c46.24-10.94,85.68-14.17,133.67-10.03"/>
        <path class="cls-4" d="M112.33,273.86v1c-24.44.9-52.21,2.34-76.49,1-9.51-.52-19.44-1.37-27.84-6.27,11.07,3.49,22.28,4.28,33.86,4.76,22.83.95,47.58.19,70.47-.5Z"/>
        <path class="cls-4" d="M96.53,279.38c.59,0,1.34-.18,1.76.25,2.05,2.76-15.6,3.12-17.05,2.51,4.46.21,11.33-2.79,15.3-2.76Z"/>
        <path class="cls-3" d="M112.33,274.86v-1c5.09-.15,10.21-.51,15.3-.5,1.98,0,1.57-1.68,4.26.75-6.52.11-13.06.51-19.56.75Z"/>
        <path class="cls-4" d="M365.12,282.89c-3.77,1.61-8.03,1.51-12.04,1.5v-.5c1.52-.06,3.78.45,5.02-.5.17,0,.33,0,.5,0,1.35-.07,2.79-.43,4.01-.5.83-.05,1.68.03,2.51,0Z"/>
        <path class="cls-4" d="M258.04,287.4c4.42.15,8.89-.32,13.29.25,0,.67-12.28.37-13.29-.25Z"/>
        <path class="cls-4" d="M289.64,287.4c3.41.14,6.9-.31,10.28.25,0,.52-9.45.49-10.28-.25Z"/>
        <path class="cls-4" d="M318.23,286.4c2.57.14,5.24-.31,7.77.25,0,.39-7.14.59-7.77-.25Z"/>
        <path class="cls-4" d="M387.69,279.38c-2.1.32-4.19,1.79-6.52.75,1.87-.61,4.74-.35,6.52-.75Z"/>
        <path class="cls-4" d="M150.2,280.38c1.9.13,3.91-.3,5.77.25,0,.29-5.33.68-5.77-.25Z"/>
        <path class="cls-4" d="M160.73,279.88c1.9.13,3.91-.3,5.77.25,0,.29-5.33.68-5.77-.25Z"/>
        <path class="cls-4" d="M129.13,281.89c1.73.13,3.58-.3,5.27.25,0,.27-4.91.7-5.27-.25Z"/>
        <path class="cls-4" d="M135.65,281.38c1.56.13,3.26-.29,4.76.25,0,.24-4.49.72-4.76-.25Z"/>
        <path class="cls-4" d="M358.1,283.39c-1.23.95-3.5.44-5.02.5,1.24-.96,3.49-.43,5.02-.5Z"/>
        <path class="cls-4" d="M353.08,283.89v.5l-4.51-.25c0-.43,3.83-.23,4.51-.25Z"/>
        <path class="cls-4" d="M362.61,282.89c-1.22.08-2.66.43-4.01.5l4.01-.5Z"/>
        <path class="cls-4" d="M339.29,284.89c1.21.12,2.63-.28,3.76.25,0,.21-3.7.74-3.76-.25Z"/>
        <path class="cls-4" d="M230.95,285.9c1.21.12,2.63-.28,3.76.25,0,.21-3.7.74-3.76-.25Z"/>
        <path class="cls-4" d="M249.01,286.9c1.05.11,2.32-.27,3.26.25,0,.23-3.32.72-3.26-.25Z"/>
        <path class="cls-4" d="M240.48,286.4c.89.1,2-.26,2.76.25,0,.25-2.97.7-2.76-.25Z"/>
        <path class="cls-4" d="M306.19,286.9c.89.1,2-.26,2.76.25,0,.25-2.97.7-2.76-.25Z"/>
        <path class="cls-4" d="M332.77,285.4c.5.05,2.24-.19,2.26.25-.27.33-2.65.61-2.26-.25Z"/>
        <path class="cls-4" d="M389.7,278.88c-.64.15-1.32.35-2.01.5.26-.04,1.16-.38,2.01-.5Z"/>
        <path class="cls-4" d="M370.89,281.38h.5c.99-.08.99.58,0,.5l-.5-.5Z"/>
        <polygon class="cls-4" points="328.26 285.9 328.76 285.9 329.01 286.15 328.76 286.4 328.26 285.9"/>
        <path class="cls-4" d="M367.88,281.89h.5c.99-.08.99.58,0,.5l-.5-.5Z"/>
        <polygon class="cls-4" points="365.12 282.89 365.37 282.39 365.62 282.64 365.37 282.89 365.12 282.89"/>
        <path class="cls-4" d="M378.41,280.38h.5c.99-.08.99.58,0,.5l-.5-.5Z"/>
        <g>
          <g>
            <g>
              <path class="cls-19" d="M143.93,213.17c.98-.11,2.02.07,3.01,0,.48,10.86,1.5,21.78,2.51,32.6-6.83-.09-13.1,7.73-13.54,14.04-4.46-2.26-9.46,1.26-12.79,1.5-5.45.4-42.5-18.96-46.9-23.57,8.42-3.23,17.23-5.76,26.33-5.02-1.76-.89-4.35-3.75-5.77-4.51-.36-.19-.68-.33-1-.5-1.18-.62-2.04-.3-2.51-.5l29.34-10.03c7.09-1.3,14.14-3.23,21.32-4.01Z"/>
              <path class="cls-19" d="M189.57,250.29c-5.67,1.22-10.45,8.65-11.54,14.04l-13.04-1c4.95-5.89,4.87-49.15,8.03-60.69.11-.42.35-.59.5-1,4.06-3.91,8.07-8.09,11.54-12.54,6.21,19.29,3.04,41.02,4.51,61.19Z"/>
              <path class="cls-12" d="M148.94,164.01c-.99.89-1.5,4.68-1.5,5.77-.11,13.74,16.69,37.3,18.06,50.66.38,3.71-1.14,28.78-2.01,32.6-.45,1.97-1.18,3.43-2.76,4.76-4.23,3.57-15.42,4.68-20.31,2.51.33-.61.14-2.78,1.5-4.76,4.39-6.38,12.12-4.61,17.56-1-1.58-3.68-5.93-8.72-10.03-8.78-1.01-10.82-2.03-21.74-2.51-32.6-.8-18.38.69-37.2,0-55.17,1.17,1.76,1.35,4.07,2.01,6.02Z"/>
              <path class="cls-6" d="M234.71,247.78c-4.82-.74-12.14-.86-16.8.5-3.68,1.07-5.25,1.21-4.26,5.02.38,1.46-.23,1.05,1.25,2.01,1.54,1,11.15,4.32,13.04,4.51,9.64.99,19.47-3.14,28.84-1.76-8.26,5.24-21.02,5.36-30.85,5.27-.11,0-1.91-1.06-2.01-1-.25.15-1.34,5.49-1.25,5.77.64,2.07,5.19.2,5.52,2.26-4.62-.3-10.21-1.27-14.29-3.51-1.43.09,2.15,6.17-1.76,6.02-5.38-.13-30.92.59-33.86-1.5-1.11-.79-.65-1.47-.75-2.51l3.76,2.01c.12-2.94,1.02-4.99,2.51-7.52v8.03c2.26-5.53,9.03-1.93,10.03-8.03l1,4.01c2.91-2.31,6.36-3.91,8.78-6.77.54-.64.36-2.48.75-2.76,2.31-1.66,2.06,6.03,4.51,6.02,2.17-7.81,2.49-16.21,4.26-24.08,1.34-5.94,3.16-11.77,5.02-17.56,3.49,10.05,7.6,19.22,16.55,25.58Z"/>
              <path class="cls-6" d="M169.01,205.65c1.52-.86,2.24-2.75,4.01-3.01-3.15,11.54-3.08,54.8-8.03,60.69s-19.11,6.09-25.58,2.51c.09-.57-.48-.48-.5-.5-.09-.09.01-.17-.5-.5-.03-.02.08-.59-.5-.5,1.1-2.24,1.77-2.68,2.51-4.01,4.9,2.17,16.09,1.07,20.31-2.51,1.58-1.33,2.31-2.8,2.76-4.76.87-3.82,2.39-28.89,2.01-32.6-1.37-13.36-18.16-36.92-18.06-50.66,0-1.09.52-4.88,1.5-5.77,4.97,14.71,11.8,28.85,18.81,42.63.8.28,1.18-.96,1.25-1Z"/>
              <path class="cls-8" d="M225.18,89.78c2.79,3.68,8.4,15.39,11.54,20.56,11.89,19.65,17.14,29.68,34.61,45.64.03.02-.07.59.5.5.49,3.02,2.13,5.95,2.51,9.03-.97-1.1-3.79-2.09-4.76-3.01-10.93-10.31-20.21-20.32-28.34-33.1-8.4-13.2-15.05-27.99-20.56-42.63,1.1.26,3.94,2.25,4.51,3.01Z"/>
              <path class="cls-20" d="M143.93,213.17c-7.18.79-14.23,2.71-21.32,4.01l-29.34,10.03c-1.4-.6-3.09-.98-4.26-2.01,17.56-6.24,35.84-14.18,54.92-12.04Z"/>
              <path class="cls-8" d="M149.45,245.77c4.1.06,8.45,5.1,10.03,8.78-5.44-3.61-13.16-5.38-17.56,1-1.36,1.98-1.17,4.16-1.5,4.76-.73,1.33-1.41,1.77-2.51,4.01-1.72,3.51-2.14-2.56-2.01-4.51.45-6.32,6.71-14.14,13.54-14.04Z"/>
              <g>
                <path class="cls-6" d="M177.53,268.84c-.12-1.18.33-2.34.5-3.51,4.04.48,1.95-1.11,4.01-3.76,6.02-7.73,12.41-5.16,20.31-4.76.88.04,2.25.39,1.25-1,.29.25,1.15-.38,1.25,1.5,1.35-.94-.95-3.16,1.25-3.01-.14,2,.34,1.78,1,.25,2.11-4.85,3.23-10.22,6.02-14.8-1.78,7.87-2.09,16.27-4.26,24.08-2.46,0-2.2-7.68-4.51-6.02-.39.28-.21,2.12-.75,2.76-2.42,2.86-5.87,4.46-8.78,6.77l-1-4.01c-1.01,6.1-7.77,2.5-10.03,8.03v-8.03c-1.49,2.53-2.38,4.59-2.51,7.52l-3.76-2.01Z"/>
                <path class="cls-8" d="M203.62,255.8c1,1.4-.37,1.05-1.25,1-7.9-.4-14.3-2.96-20.31,4.76-2.07,2.65.03,4.24-4.01,3.76.05-.32-.06-.69,0-1,1.08-5.4,5.87-12.82,11.54-14.04,6.53-1.41,9.84,1.85,14.04,5.52Z"/>
              </g>
              <path class="cls-10" d="M96.78,228.22c1.42.76,4.01,3.62,5.77,4.51-9.1-.74-17.92,1.79-26.33,5.02-.2-.21-1.35-.55-1-1.25,6.67-2.95,13.56-6.11,20.56-8.28.25-.08.68.04,1,0Z"/>
              <path class="cls-4" d="M138.41,264.83l-.5-.5c.58-.09.47.48.5.5Z"/>
              <path class="cls-4" d="M271.83,156.49c-.57.09-.48-.48-.5-.5h.5c.02.16-.03.34,0,.5Z"/>
              <path class="cls-4" d="M267.82,94.8v.5c-.62-.98-.45-.92-.5-1l.5.5Z"/>
              <path class="cls-4" d="M138.91,265.33c-.07-.06-.59.08-.5-.5.52.33.41.41.5.5Z"/>
              <path class="cls-4" d="M139.41,265.83c-.61-.34-.47-.48-.5-.5.02.03.59-.07.5.5Z"/>
              <path class="cls-4" d="M96.78,228.22c-.32.04-.76-.08-1,0v-.5c.33.17.64.31,1,.5Z"/>
              <path class="cls-12" d="M241.23,129.41c8.13,12.78,17.41,22.79,28.34,33.1.98.92,3.79,1.91,4.76,3.01,2.8,3.16,6.6,12.52,10.03,17.05-.2,3.25.05,6.32.5,9.53.45,3.18,1.38,6.38,2.01,9.53.16.82.33,1.69.5,2.51-7.05-12.5-25.38-34.76-41.38-31.1-7.83,1.79-14.45,11.15-18.81,17.3,7.15-19.18,12.72-39.25,12.54-59.94l1.5-1Z"/>
              <path class="cls-6" d="M220.67,86.77c5.51,14.64,12.16,29.43,20.56,42.63l-1.5,1-33.61,123.89c-2.21-.15.1,2.07-1.25,3.01-.11-1.89-.97-1.25-1.25-1.5-4.2-3.67-7.51-6.93-14.04-5.52-1.48-20.17,1.7-41.9-4.51-61.19,19.59-25.19,36.88-63.11,32.6-95.3-.28-2.08.07-4.51-1-6.52.49.04,2.52-.86,4.01-.5Z"/>
              <path class="cls-6" d="M288.38,209.66c3.35,15.16,8.06,30.23,11.54,45.39l-.75,1.25c-.83.08-2.57.24-3.26.5-2.56.95-5.58,1.21-7.52,3.51-19.06,3.2-40.79,11.3-60.19,10.03-.32-2.05-4.87-.19-5.52-2.26-.09-.28,1-5.62,1.25-5.77.1-.06,1.89,1,2.01,1,9.83.09,22.59-.03,30.85-5.27-9.37-1.38-19.2,2.75-28.84,1.76-1.89-.2-11.5-3.52-13.04-4.51-1.48-.96-.87-.54-1.25-2.01,18.52-9.44,33.21.19,50.41,6.52-8.13-4.59-20.11-10.62-29.34-12.04-8.95-6.36-13.06-15.53-16.55-25.58.8-2.51,1.1-5.7,3.01-7.77l3.51,18.06c-1.18-13.86.66-29.4,9.53-40.63,2.88-3.65,11.15-10.2,15.8-10.78,12.31-1.54,31.01,19.75,38.37,28.59Z"/>
              <path class="cls-8" d="M287.38,204.14c.37,1.79.62,3.78,1,5.52-7.36-8.84-26.07-30.13-38.37-28.59-4.65.58-12.92,7.14-15.8,10.78-8.87,11.23-10.71,26.76-9.53,40.63l-3.51-18.06c-1.91,2.07-2.21,5.27-3.01,7.77-1.85,5.78-3.68,11.62-5.02,17.56-2.79,4.58-3.91,9.95-6.02,14.8-.67,1.53-1.15,1.74-1-.25l33.61-123.89c.18,20.69-5.39,40.75-12.54,59.94,4.36-6.15,10.98-15.51,18.81-17.3,16-3.66,34.33,18.6,41.38,31.1Z"/>
              <path class="cls-8" d="M234.71,247.78c9.23,1.42,21.21,7.45,29.34,12.04-17.2-6.33-31.89-15.96-50.41-6.52-.99-3.81.59-3.94,4.26-5.02,4.66-1.36,11.99-1.24,16.8-.5Z"/>
            </g>
            <g>
              <path class="cls-6" d="M178.54,62.2c-3.65-1.64-7.37-3.49-11.03-5.02-.5-.21-.95-.48-1-.5-.2-.93,1.68-.54,1.76-.5,1.42.77,7.33,4.96,8.28,2.26-2.43-5.4-7.36-4.92-4.01-11.54-.05-.1-1.92.69-2.01.75l-19.81-3.51c-7.12-3.28-18.39-4.85-24.83-9.03l30.6-31.1c2.49.42,5.49,4.26,7.02,6.27,10.8,14.15,12.12,29.97,17.56,46.14.43,1.27,4.7,7.3,2.76,7.77l-5.27-2.01Z"/>
              <path class="cls-6" d="M256.28,31.6c.24.55.58.87,1,1.25l-1.76,1.25-19.81,10.53c.32-2.6-5.98-15.23-8.03-17.56,2.4-2.29-2.07-9.57-2.01-12.29.02-.72,1.75-3.33,1.5-4.51.28-.4.79-.27,1.25-.25,1.76.07,24.22,19.4,27.84,21.57Z"/>
              <path class="cls-8" d="M256.28,31.6c-3.61-2.17-26.08-21.5-27.84-21.57-.46-.02-.98-.15-1.25.25.25,1.18-1.49,3.8-1.5,4.51-.06,2.72,4.41,10,2.01,12.29-8.27-9.44-6.06,2.74-9.78,3.01-.33.02-.69-.99-.75-1-1.04-2.73,3.92-9.89,1.76-11.54-.61-.46-13.26-4.37-14.55-4.51-8.34-.97-10.45.05-16.8,4.01-.76-.23-.93-1.45-1-1.5l4.26-15.55,3.51,12.54,8.53-9.03,1,7.52c2.33-.68,12.27,3.63,13.04,3.51,2.3-.34,4.35-8.37,12.04-6.52,5.09,1.22,25.29,18.78,27.34,23.57Z"/>
              <path class="cls-1" d="M238.22,84.26c6.41,7.62,4.63,18.85-1.5,26.08-3.13-5.18-8.75-16.88-11.54-20.56,2.61-5.65,7.83-3.69,13.04-5.52Z"/>
              <path class="cls-15" d="M251.77,61.19c4.91,2.92,7.92,12.77,1.5,14.04-7.38,1.46-23.18-11.98-12.29-15.55,3.44-1.13,7.7-.33,10.78,1.5Z"/>
              <path class="cls-8" d="M186.56,15.55c.07.06.24,1.28,1,1.5-.08.05-.94,1.53-1.25,1.5-2.2-.16-22.49-23.49-29.84-14.55l-30.6,31.1c-.31-.2-1.68.49-1.5-.75,6.93-7.4,22.61-31.23,31.85-33.86,8.66-2.46,23.36,9.61,30.35,15.05Z"/>
              <path class="cls-12" d="M166.5,56.68c-.22-.08-.69.04-1,0-.22-.65-1.51-.79-1.5-1.25,0-.51,6.1-7.49,6.52-7.77.09-.06,1.96-.85,2.01-.75-3.34,6.61,1.59,6.14,4.01,11.54-.95,2.7-6.86-1.49-8.28-2.26-.08-.04-1.96-.43-1.76.5Z"/>
              <path class="cls-12" d="M187.57,17.05c6.35-3.96,8.46-4.98,16.8-4.01,1.28.15,13.94,4.05,14.55,4.51,2.16,1.65-2.8,8.81-1.76,11.54-9.19-2.37-12.96-5.48-23.32-2.01-16.5,5.53-13.13,26.55-7.27,38.87-.23.45-7.32-3.45-8.03-3.76l5.27,2.01c1.94-.48-2.33-6.51-2.76-7.77-5.44-16.17-6.76-32-17.56-46.14-1.53-2.01-4.53-5.85-7.02-6.27,7.35-8.94,27.64,14.39,29.84,14.55.31.02,1.17-1.45,1.25-1.5Z"/>
              <path class="cls-7" d="M216.66,87.27c1.08,2.01.73,4.44,1,6.52-7.88.29-15.81-3.67-21.07-9.28,6.66,1.4,13.28,2.15,20.06,2.76Z"/>
              <g>
                <path class="cls-11" d="M227.69,27.09c2.04,2.33,8.34,14.95,8.03,17.56-.09.77-1.35.24-1,1.5-.67-.29-2.81.2-3.76,0-1.82.91,13.04,6.91,14.04,7.52,2.35,1.44,5.05,3.84,6.77,6.02-.09.09.06,1.1,0,1.5-3.08-1.83-7.35-2.63-10.78-1.5-10.89,3.57,4.91,17.01,12.29,15.55-2.06,5.51-8.59,5.88-13.29,7.52-.86.3-1.65,1.47-1.76,1.5-5.21,1.83-10.43-.13-13.04,5.52-.57-.76-3.42-2.75-4.51-3.01-1.49-.35-3.52.55-4.01.5-6.78-.6-13.4-1.36-20.06-2.76,5.26,5.61,13.19,9.56,21.07,9.28,4.28,32.19-13.01,70.11-32.6,95.3-3.46,4.45-7.47,8.63-11.54,12.54,1.67-4.64,8.73-8.62,11.03-13.29,3.17-6.42,4.96-18.61,6.77-25.83-4.1,7.47-5.8,16.94-9.78,24.33-3,5.55-11.04,12.98-13.29,17.81-.78,1.66.69.13.75,1-.07.04-.45,1.28-1.25,1-7.01-13.78-13.84-27.93-18.81-42.63-.66-1.94-.84-4.26-2.01-6.02-.5-13.03-3.68-21.42-2.01-35.61.22-1.82,1.08-4.95,1.5-7.02.14-.7.35-1.31.5-2.01.91-.14.37-1.37.5-2.01.02-.1.98-1.07.5-2.01.53-2.14,1.38-4.39,2.01-6.52.29-.97.7-2.01,1-3.01.88-2.85,1.83-5.6,2.51-8.53,1.03-.49.83-1.68,1-2.51,1.42-6.64,7.87-22.8,11.03-29.09.44-.87,1.31-1.8,2.01-2.51,3.67,1.52,7.39,3.38,11.03,5.02.7.31,7.8,4.21,8.03,3.76-5.86-12.33-9.23-33.34,7.27-38.87,10.36-3.47,14.14-.36,23.32,2.01.06.02.42,1.03.75,1,3.72-.27,1.51-12.45,9.78-3.01Z"/>
                <g>
                  <path class="cls-4" d="M234.71,46.14c.1.04.28,1.81.75,2.01,3.86,1.58,7.54,1.87,11.54,4.51.76.5,6.21,5.35,6.27,5.77.27,1.99-1.25,1.01-1.5,1.25-1.72-2.18-4.43-4.58-6.77-6.02-1.01-.62-15.86-6.61-14.04-7.52.95.2,3.1-.29,3.76,0Z"/>
                  <path class="cls-4" d="M144.93,122.38c-.17-2.46.1-4.92,1.5-7.02-.43,2.08-1.29,5.2-1.5,7.02Z"/>
                  <path class="cls-4" d="M166.5,56.68c.05.02.5.29,1,.5-.7.71-1.57,1.63-2.01,2.51-.16-.85.23-2.33,0-3.01.32.04.78-.08,1,0Z"/>
                  <path class="cls-4" d="M150.95,99.81c-.31.99-.72,2.04-1,3.01.15-1.25-.63-3.27,1-3.01Z"/>
                  <path class="cls-4" d="M153.46,91.29c.2-.86-.05-1.99,1-2.51-.18.83.03,2.02-1,2.51Z"/>
                  <path class="cls-4" d="M147.44,111.35c.16-.68.34-1.35.5-2.01.48.94-.48,1.9-.5,2.01Z"/>
                  <path class="cls-4" d="M146.94,113.36c.16-.7.34-1.35.5-2.01-.13.63.41,1.86-.5,2.01Z"/>
                  <path class="cls-16" d="M196.84,29.09c5.88-.88,2.08,2.86,2.26,3.76.39,2.04,3.67,2.31,2.26-1.76,5.33,5.03.68,20.73-7.52,15.55-5.24-3.31-3.64-16.55,3.01-17.56Z"/>
                  <path class="cls-7" d="M173.52,201.63c-.15.41-.39.59-.5,1-1.77.26-2.5,2.15-4.01,3.01-.06-.88-1.53.66-.75-1,2.25-4.83,10.3-12.25,13.29-17.81,3.99-7.39,5.68-16.85,9.78-24.33-1.81,7.22-3.6,19.41-6.77,25.83-2.31,4.67-9.36,8.66-11.03,13.29Z"/>
                  <g>
                    <path class="cls-16" d="M218.91,30.6c9.83-1.81,8.99,22.52-2.01,17.56-5.66-2.56-3.97-16.45,2.01-17.56Z"/>
                    <path class="cls-4" d="M221.42,31.6c1.09-.2,1.82,2.69.5,3.01-1.49.36-1.69-2.79-.5-3.01Z"/>
                  </g>
                </g>
              </g>
            </g>
          </g>
          <g>
            <path class="cls-18" d="M337.03,114.36c4.73,19.48,23.65,26.85,37.62,38.12,31.09,25.07,47.87,67.24,30.6,105.83-.4.89-5.76,9.73-6.27,10.03-1.54.9-7.09,1.09-9.28,1.5l1.25-2.51c-.75-.97-20.37-11.31-21.57-11.54-3.99-.77-30.06-.27-33.35,1-2.4-3.49-5.09-6.15-7.02-10.03,1.42.25,1.08-1.42,1-2.26-2.06-23.42,6.18-52.03,32.85-56.93,16.36-3.01,17.87,4.92,28.59,12.54.48.34,4.7,3.31,4.76,1.76-7.92-14-19.95-24.88-37.12-20.82-23.66,1.61-39.99,27.92-41.13,49.91-.76,14.57,4.57,28.46-.5,42.88-4.73-.44-10.44.08-15.05-1-2.51-.59-1.59-.79-2.01-1l9.03-8.28c1.1-1.88-.04-3.1,0-3.26,3.6-15.69,1.45-34.72,2.51-51.41-9.31-8.57-19.88-16.15-27.59-26.33-3.43-4.54-7.23-13.89-10.03-17.05-.38-3.07-2.02-6.01-2.51-9.03-.03-.16.02-.34,0-.5-2.31-16.21,1.51-31.93,6.52-47.15,9.08,5.24,19.66,6.66,29.84,8.53,8.25-.2,16.69.91,24.58-2.01l.5,11.54c1.2-3.83,1.51-8.38.75-12.29l3.01-.25Z"/>
            <path class="cls-17" d="M402.24,103.32c4.57,1.33,10.5,11.84,9.53,16.3-1.27,5.84-20.16,3.48-18.06,18.06,2.49,17.27,39.09,36.26,40.63,60.19,1.13,17.5-16.69,48.29-29.09,60.44,17.27-38.6.49-80.76-30.6-105.83-3.88-7.79-7.85-14.2-5.52-23.07,3.15-12,19.31-30.08,33.1-26.08Z"/>
            <path class="cls-13" d="M325.5,61.69c-1.18-.36-3.49.05-5.52-.5-2.38-.65-5.02-2.5-8.28-3.01-8.08-1.27-16.68-.4-23.32,4.51-1.04-.51-2.33-1.02-3.51-1-1.67-1.88-5.89-3.37-8.28-3.51-4.06-.24-7.07,1.93-10.78,2.01,3.16-13.56,10.04-27.96,13.54-41.63l11.29,28.09c11.26-3.39,22.43-3.77,34.11-3.51,1.09.02,6.08,1.56,6.52,1.5,2.1-.27,23.51-20.32,28.09-22.07l-9.78,41.38-1.25.75c-6.46-5.9-15.03-7.05-22.82-3.01Z"/>
            <path class="cls-13" d="M389.7,269.85c-10.06,1.89-52.53,9.44-59.94,8.03-2.75-.52-3.6-2.92-5.27-3.51,2-6.22,4.65-14.91,11.54-17.56,3.3-1.27,29.37-1.77,33.35-1,1.2.23,20.82,10.57,21.57,11.54l-1.25,2.51Z"/>
            <path class="cls-5" d="M359.1,181.07c-25.33,6-41.98,41.88-30.09,65.71,1.94,3.88,4.62,6.54,7.02,10.03-6.88,2.65-9.53,11.34-11.54,17.56-2.24-.8-4.74-.29-7.02-.5,5.07-14.42-.25-28.31.5-42.88,1.14-21.99,17.47-48.3,41.13-49.91Z"/>
            <path class="cls-13" d="M331.52,109.34c.71,1.17.83,2.48,1.76,3.51l-.75-3.51c1.11-1.3,3.76.06,4.01,0,.18,1.41.19,3.74.5,5.02l-3.01.25c.76,3.91.45,8.46-.75,12.29l-.5-11.54c-7.88,2.92-16.33,1.8-24.58,2.01-10.18-1.87-20.77-3.29-29.84-8.53.22-.67.08-3.27.5-4.01l.75-1c16.53,5.73,34.51,5.67,51.91,5.52Z"/>
            <path class="cls-9" d="M402.24,103.32c-13.79-4-29.96,14.08-33.1,26.08-.63-14.42,18.63-36.05,33.1-26.08Z"/>
            <path class="cls-9" d="M267.32,93.79c-1.04-1.93-2.54-3.62-2.51-6.02.1-.01,1.56-.99,1.76-1,6.46-.52,13.94.31,19.81,3.26-6.61.08-13,.95-19.06,3.76Z"/>
            <path class="cls-5" d="M309.45,260.32l-5.77,3.01-4.76,6.52c-.81-.32-4.06-.2-5.02-.5,1.2-5.27,6.57-5.24,8.03-9.78,2.16-6.71,3.77-34.13,1.5-40.38-3.11-8.57-13.18-19.51-18.56-27.09-.45-3.21-.7-6.28-.5-9.53,7.71,10.18,18.28,17.77,27.59,26.33-1.06,16.69,1.1,35.72-2.51,51.41Z"/>
            <path class="cls-13" d="M329.01,246.77c-11.88-23.83,4.77-59.71,30.09-65.71,17.17-4.07,29.2,6.82,37.12,20.82-.06,1.55-4.29-1.42-4.76-1.76-10.72-7.62-12.23-15.55-28.59-12.54-26.67,4.9-34.92,33.5-32.85,56.93.07.84.42,2.51-1,2.26Z"/>
            <path class="cls-13" d="M309.45,260.32c-.04.16,1.1,1.38,0,3.26l-9.03,8.28c-.11-.06-.69-1.68-1.5-2.01l4.76-6.52,5.77-3.01Z"/>
            <g>
              <path class="cls-9" d="M349.57,95.8c-12.25-5.2-26.24-6.77-39.12-2.76,1.21,1.2,3.9-.91,1.25,1.76,11.21-1.86,22.89.89,32.1,7.52,1.54-.33-1.87-2.42-2.01-2.51-2.46-1.53-8.76-4.3-11.54-5.02-5.5-1.42-11.21-1.34-16.8-1.76,11.88-2.74,24.33-1.27,35.61,3.26-.57,1.19-3.61,5.6-3.51,6.27l5.02,5.52c-1.63-.22-4.48-4.9-5.77-4.76-.51.05-5.56,5.4-8.28,6.02-.25.06-2.9-1.3-4.01,0-1.82-5.22-13.27-13.18-18.31-13.04-.83.02-1.72-.15-1,1,8.02.96,14.16,5.19,18.31,12.04-17.4.15-35.38.21-51.91-5.52l-.75,1c-6.02-6.38-8.1-3.18-11.79,3.01-1.07-2.15,5.27-7.3,5.27-7.77,0-.33-3.82-3.67-4.51-4.76v-.5c6.09-3.22,13.12-4.72,19.81-3.01-.14-.56-.19-2.16-.25-2.26-1.92-3.12-19.45-3.72-23.07-3.26-1.91-8.56-.46-17.66,1.5-26.08,3.72-.07,6.72-2.25,10.78-2.01,2.38.14,6.61,1.63,8.28,3.51-4.37.06-9.4,4.04-6.52,8.53-3.13,14.44,15.02,16.76,13.54,1.5,1.49-3.74.16-7.24-3.51-9.03,6.64-4.91,15.25-5.78,23.32-4.51,3.25.51,5.89,2.36,8.28,3.01l-6.52,5.27v4.26c-5.54,19.46,21.03,22.59,19.56,4.01l1,1.76c1.33-8.53-.42-12.34-8.53-14.8,7.79-4.04,16.36-2.89,22.82,3.01l1.25-.75,9.78-41.38c-4.58,1.75-25.99,21.8-28.09,22.07-.44.06-5.43-1.48-6.52-1.5-11.68-.26-22.85.12-34.11,3.51l-11.29-28.09c-1.36-2,.26-3.57.75-5.52l12.04,31.1c8.63-2.4,17.14-3.26,26.08-3.01,2.32.07,11.53,2.23,12.54,2.01,2.15-.48,24.17-24.37,30.85-24.33,2.38,27.14-.67,52.32-12.04,76.99Z"/>
              <g>
                <path class="cls-5" d="M349.57,95.8c-.31.67-.49.47-.5.5-11.28-4.53-23.73-6-35.61-3.26,5.59.41,11.3.34,16.8,1.76,2.78.72,9.07,3.49,11.54,5.02.14.08,3.55,2.18,2.01,2.51-9.21-6.63-20.9-9.38-32.1-7.52,2.65-2.67-.04-.55-1.25-1.76,12.89-4.01,26.88-2.44,39.12,2.76Z"/>
                <path class="cls-2" d="M267.82,94.8l-.5-.5c-.07-.12.07-.37,0-.5,6.06-2.81,12.45-3.68,19.06-3.76-5.87-2.95-13.35-3.78-19.81-3.26-.2.02-1.66.99-1.76,1-6.49.92-9.94,2.62-16.05,4.76,4.44-2.35,10.54-5.64,15.55-6.27,3.62-.46,21.15.14,23.07,3.26.06.1.11,1.7.25,2.26-6.69-1.71-13.72-.21-19.81,3.01Z"/>
                <path class="cls-1" d="M295.65,81.76c.78-.27,12.56,1.15,12.79,1.76-1.84,1.9-8.72,7.06-11.29,6.27-1.65-.51-3.78-7.22-1.5-8.03Z"/>
                <path class="cls-22" d="M325.5,61.69c8.1,2.45,9.86,6.26,8.53,14.8l-1-1.76c-.94-11.94-16.11-16.14-19.56-4.01v-4.26l6.52-5.27c2.03.56,4.33.14,5.52.5Z"/>
                <path class="cls-22" d="M288.38,62.7c3.67,1.79,5,5.29,3.51,9.03-.94-9.71-11.51-10.9-13.54-1.5-2.88-4.49,2.15-8.46,6.52-8.53,1.18-.02,2.47.5,3.51,1Z"/>
                <path class="cls-5" d="M332.52,109.34l.75,3.51c-.92-1.03-1.05-2.34-1.76-3.51-4.15-6.85-10.29-11.07-18.31-12.04-.72-1.15.17-.98,1-1,5.04-.14,16.49,7.82,18.31,13.04Z"/>
                <path class="cls-1" d="M301.67,89.28c.42-.04,1.05-.13,1.25.25-.51.63-8.41,6.71-8.53,4.01,1.45-.76,6.05-4.13,7.27-4.26Z"/>
                <path class="cls-5" d="M283.62,94.3c.66-.07,1.34.04,2.01,0-3.54,1.57-8.2,3.5-12.29,5.27,2.08-1.74,7.82-5.02,10.28-5.27Z"/>
              </g>
            </g>
            <path class="cls-13" d="M303.43,219.19c2.27,6.25.65,33.67-1.5,40.38-1.46,4.54-6.83,4.51-8.03,9.78-2.65-.85-6.07-.84-7.52-3.51,1.81-1.41,11.51-5.59,11.03-7.27-.22-.77-1.86-.51-1.5-1.76.69-.26,2.43-.42,3.26-.5l.75-1.25c-3.48-15.16-8.19-30.23-11.54-45.39-.38-1.73-.63-3.73-1-5.52-.17-.82-.34-1.69-.5-2.51,1.28-.98,1.69-.15,2.51.75,4.61,5.11,7.9,13.07,14.04,16.8Z"/>
            <path class="cls-13" d="M295.91,256.81c-.35,1.24,1.29.98,1.5,1.76.48,1.68-9.22,5.87-11.03,7.27-.29-1.36,1.18-4.55,2.01-5.52,1.95-2.3,4.97-2.56,7.52-3.51Z"/>
            <path class="cls-13" d="M303.43,219.19c-6.14-3.73-9.43-11.69-14.04-16.8-.82-.91-1.23-1.73-2.51-.75-.63-3.15-1.56-6.35-2.01-9.53,5.38,7.57,15.45,18.52,18.56,27.09Z"/>
            <g>
              <path class="cls-16" d="M333.02,74.73c1.47,18.57-25.11,15.45-19.56-4.01,3.45-12.13,18.62-7.92,19.56,4.01Z"/>
              <path class="cls-4" d="M328.26,71.22c3.25.5,3.42,6.53,1,7.02-2.88.59-3.85-5.77-1-7.02Z"/>
            </g>
            <g>
              <path class="cls-16" d="M291.89,71.73c1.48,15.26-16.67,12.93-13.54-1.5,2.04-9.4,12.6-8.21,13.54,1.5Z"/>
              <path class="cls-4" d="M289.13,70.22c1.92-.15,2.32,4.29.5,4.51-2.23.27-2.2-4.38-.5-4.51Z"/>
            </g>
          </g>
        </g>
      </g>
      <path class="cls-21" d="M222.5,87.13c2.86,6.39,4.84,13.17,5.89,20.09.2,1.31.64,2.93,1.95,3.14.63.1,1.25-.19,1.81-.48,2.31-1.18,4.63-2.51,6.2-4.57,1.76-2.33,2.35-5.33,2.57-8.24.32-4.33.9-9.81-3.53-12.05-4.26-2.16-11.06-.12-14.89,2.11Z"/>
      <path class="cls-14" d="M147.34,157.8c-1.02,25.96-2.26,63.29,3.14,88.63-5.09-1.43-9.51,3.65-12.08,8.27-1.43,2.57-2.79,5.51-2.04,8.35,1.33,5.04,7.92,6.16,13.12,5.95,5.69-.24,11.35-.9,16.94-1.97"/>
      <path class="cls-14" d="M185.17,17.3l1.82,1.83c-8.53-6.65-17.53-12.7-26.91-18.1-11.93,11.8-23.86,23.59-35.78,35.39,24.58,5.25,39.11,11.06,59.65,25.55-6.84-16.9-6.93-24.78-14.68-41.28-2.63-5.59-5.5-11.32-10.25-15.27.78.29,1.68.71,1.84,1.53s-1.3,1.46-1.48.64"/>
      <path class="cls-14" d="M187.24,14.38c-1.51.81-3.03,1.62-4.54,2.43,8.29-7.9,22.06-9.29,31.76-3.2,9.7,6.09,14.43,19.1,10.91,30,12.96,7.02,26.27,14.69,34.56,26.88.5.73,1,1.57.85,2.44-.15.9-.94,1.54-1.68,2.08-16.31,11.76-38.08,15.56-57.41,10.04,1.47.03,2.95-.41,4.16-1.25"/>
      <path class="cls-14" d="M252.83,61.58c-3.42-1.53-7.17-2.3-10.92-2.26-.96.01-1.97.09-2.79.6-2.28,1.41-1.64,4.94-.19,7.2,3.06,4.79,8.56,7.93,14.24,8.14,1.21.04,2.49-.06,3.46-.77,1.39-1.01,1.75-2.98,1.46-4.67-.4-2.37-1.89-4.53-3.96-5.75"/>
      <path class="cls-14" d="M185.62,34.62c-.88-.06-.41-1.45.26-2.01,2.27-1.87,4.6-3.79,7.39-4.72,2.79-.93,6.18-.67,8.26,1.42,1.16,1.16,1.79,2.75,2.19,4.34.83,3.29.73,6.98-1.12,9.82-1.85,2.84-5.75,4.46-8.82,3.02-3.16-1.49-4.36-5.67-3.38-9.03.98-3.36,3.62-5.98,6.44-8.04,1.44-1.05,2.98-2.01,4.66-2.61,3.68-1.3,7.82-.76,11.45.7s6.84,3.75,10.02,6.03c1.27.91,2.59,1.87,3.29,3.27,1.61,3.19-.6,6.93-2.86,9.7-.82,1-1.75,2.05-3.02,2.32-.9.19-1.84-.05-2.66-.46-2.99-1.48-4.56-5.03-4.46-8.37s1.59-6.48,3.39-9.29c.78-1.22,1.83-2.52,3.27-2.62,1.45-.1,2.73,2,1.54,2.84"/>
      <path class="cls-14" d="M267.16,56.7c-2.5,8.94-4.44,18.28-3.06,27.46,1.07,7.09,4.43,14.2,10.52,17.98,3.05,1.89,6.58,2.84,10.08,3.65,16.81,3.86,34.25,4.96,51.41,3.24,1.93-.19,3.91-.44,5.6-1.39,1.91-1.08,3.23-2.95,4.42-4.8,15.37-24.06,17.49-54.35,14.59-82.75-9.27,7.2-18.54,14.39-27.81,21.59-1.76,1.36-3.57,2.76-5.72,3.35-1.37.38-2.8.41-4.22.44-9.36.19-14.36.03-23.72.23-4.58.09-9.73-.86-11.75-4.97-.68-7.51-4.75-16.6-7.24-23.56-5.59,12.17-9.4,26.63-13.08,39.54Z"/>
      <path class="cls-14" d="M293.36,82.35c4.44-.44,8.96-.11,13.29.98-2.59,3.67-5.37,7.21-8.34,10.59-1.67-3.73-3.09-7.57-4.24-11.49.14.83,1.76.28,1.36-.47"/>
      <path class="cls-14" d="M273.26,60.57c.47-1.95,3.15-2.22,5.09-1.74,6.42,1.6,11.71,7.07,13.1,13.55.58,2.71.43,5.8-1.38,7.9-2.94,3.41-9.17,2.13-11.39-1.79-2.23-3.91-.93-9.13,2.11-12.45,3.04-3.32,7.44-5.05,11.83-6.06,6.03-1.39,12.3-1.62,18.45-.89,5.41.64,10.88,2.1,15.19,5.43,4.31,3.32,7.25,8.8,6.41,14.18-.84,5.38-6.21,9.99-11.56,8.99-3.74-.7-6.72-3.93-7.68-7.61s-.06-7.69,1.88-10.96c1.74-2.94,4.3-5.38,7.31-6.97,6.66-3.52,15.01-2.64,21.72.79-.8.47-1.85.49-2.67.06"/>
      <path class="cls-14" d="M389.47,193.55c-3.48-6.38-10.06-10.97-17.25-12.04-9.02-1.34-18.04,2.63-25.51,7.86-12.53,8.77-22.74,22.61-22.49,37.9.14,8.87,3.79,17.41,8.87,24.68,4.6,6.58,11.02,12.63,18.98,13.7,7.63,1.03,15.01-2.66,21.83-6.24-11.08-4.45-23.53-3.5-35.33-1.67-4.33.67-8.76,1.5-12.49,3.81-3.73,2.31-6.64,6.43-6.28,10.8.07.81.26,1.65.81,2.24.61.67,1.55.91,2.44,1.1,24.73,5.32,50.11-7.85,75.28-5.25,10.9-17.06,15.46-38.07,12.64-58.11-2.83-20.05-13.02-38.97-28.21-52.35-8.55-7.53-18.52-13.3-27.25-20.62-8.73-7.32-16.45-16.82-18.13-28.09-.36.99,1.96.57,1.27-.23"/>
      <path class="cls-14" d="M280.96,101.88c-3.63,8.68-6.34,17.74-8.06,26.99-1.51,8.12-2.26,16.46-1.08,24.63,3.2,22.12,19.92,39.84,37.77,53.28,1.75,1.32,3.71,3.56,2.48,5.37,1.81,16.59,1.01,33.46-2.37,49.79-4.61-1.11-9.8.7-12.7,4.45-.4.51-.77,1.11-.76,1.76.01,1.23,1.3,2.01,2.43,2.48,7.62,3.16,16.32,3.63,24.23,1.31-1.32-.11-2.5-1.19-2.73-2.49"/>
      <path class="cls-14" d="M284.62,181.32c-1.54-.71-2.24,1.96-1.83,3.61,5.85,23.57,11.69,47.15,17.54,70.72-2.76,1.14-5.84,1.1-8.73,1.84s-5.87,2.73-6.15,5.7c-.27,2.83,2.14,5.35,4.85,6.19s5.63.42,8.44,0c-.31-.87-.63-1.74-.94-2.6"/>
      <path class="cls-14" d="M225.59,86.67c3.94,11.72,9.43,22.93,16.27,33.23,9.55,14.38,19.13,26.88,31.16,39.26"/>
      <path class="cls-14" d="M217.61,89.66c.54.16.16-1-.33-.71s-.4,1.01-.25,1.55c5.46,20.25-.62,41.86-9.37,60.92-8.21,17.89-18.81,34.68-31.42,49.8-2.6,3.11-5.72,6.39-9.77,6.65-5.61-19.26-16.5-36.83-20.63-56.46-3.61-17.19-1.74-35.49,5.27-51.59"/>
      <path class="cls-14" d="M187.77,177.6c.28-.34-.39-.79-.74-.52s-.36.79-.33,1.23c1.42,24.06,2.83,48.12,4.25,72.19-2.66-.72-5.54.57-7.44,2.57-1.89,2-2.99,4.61-3.98,7.18-1.12,2.9-2.16,6.23-.8,9.03,1.67,3.44,6.06,4.4,9.88,4.67,7.01.5,14.09.07,20.99-1.26,1.04-.2,2.12-.44,2.99-1.05,2.49-1.76,2.16-5.47,1.76-8.49-1.95-14.5.62-29.27,4.59-43.35,3.98-14.08,9.36-27.74,13.23-41.86,4.37-15.95,6.79-32.39,7.95-48.88,1.08.03,1.13,2.04.06,2.13"/>
      <path class="cls-14" d="M280.23,263.41c-11.39.11-22.37,3.92-33.49,6.4s-23.27,3.52-33.47-1.55c-.9-.45-1.79-.95-2.42-1.74-.8-1.01-1.05-2.35-1.06-3.64-.03-6.41,5.54-11.8,11.71-13.56,6.17-1.75,12.77-.65,19.01.81,7.26,1.7,14.4,3.86,21.38,6.47,4.82,1.8,9.7,3.92,13.27,7.63-.7-.12-1.3-.68-1.48-1.36-11.52-2.53-22.73-6.46-33.31-11.68-3.7-1.83-7.37-3.84-10.32-6.72-7.08-6.9-8.94-17.63-8.3-27.5.64-9.86,3.4-19.58,8.05-28.3,3.63-6.81,9.17-13.5,16.8-14.7,7.03-1.11,13.85,2.74,19.52,7.04,7.17,5.42,13.61,11.81,19.1,18.92,4.94,6.41,9.28,14,8.71,22.07-1.57-.1-2.47-2.35-1.41-3.51"/>
      <path class="cls-14" d="M171.34,204.81c-.04-.79-.08-1.58-.13-2.37,1.27,20.56-2.06,41.09-5.38,61.41.89-.3,1.78-.61,2.68-.91.05,1.32.09,2.64.14,3.95,2.88-.76,5.77-1.51,8.65-2.27-.65,1.12-2.8.19-2.44-1.05s2.67-.85,2.61.44"/>
      <path class="cls-14" d="M164.98,56.08c-.32-2.8.55-5.72,2.34-7.9.36,3.23-.54,6.46-1.47,9.57-4.55,15.1-10.43,29.81-17.54,43.89,1.58-1.04,2.93-2.4,3.97-3.98"/>
      <path class="cls-14" d="M215.6,15.4c.62-.15,13.14-8.46,13.7-8.09,9.02,5.95,17.41,13.42,24.9,22.16,1.15,1.34,2.31,3.69,1.17,5.05-.39.46-.93.62-1.45.78-8.16,2.52-12.87,7.01-18.88,14.46-.36-12.43-4.79-21.47-9.56-32.33.97,1.02,1.93,2.03,2.9,3.05"/>
      <path class="cls-14" d="M223.2,88.98c-.7-.37-1.04-.99-.83-1.54,7.26,16.76,5,27.33,14.6,21.8,3.96-2.15,5.21-9.35,5.32-14.27.08-3.42-1.11-7.3-5.76-9.15.89.62,1.78,1.25,2.67,1.87"/>
      <path class="cls-14" d="M405.09,257.09c3.16-1.4,5.39-4.26,7.4-7.07,7.37-10.31,13.46-21.54,18.08-33.35,1.82-4.65,3.43-9.47,3.69-14.46.64-12.48-7.17-23.78-15.75-32.86-8.58-9.09-18.49-17.38-23.89-28.65-1.24-2.6-2.23-5.62-1.19-8.31.75-1.93,2.43-3.33,4.11-4.54,3.59-2.6,7.5-4.76,11.61-6.42.76-.31,1.57-.63,2.05-1.29.46-.63.54-1.45.54-2.23.03-5.06-2.59-10.06-6.77-12.91-4.18-2.85-9.8-3.46-14.49-1.58-2.59,1.04-4.86,2.75-7,4.55-6.31,5.27-12.11,11.74-14.11,19.7-2.16,8.56.49,17.9,5.82,24.93,5.33,7.03,13.11,11.93,21.36,15.06-.5-.47-1.13-.98-1.8-.82s-.76,1.42-.07,1.39"/>
      <path class="cls-14" d="M149.6,213.28c-26.13.34-52.05,9.84-72.21,26.47,12.49,7.07,25.38,13.44,38.59,19.06,2.78,1.18,5.67,2.35,8.69,2.36s6.25-1.43,7.48-4.19c1.85.73,4.07.47,5.7-.67"/>
      <path class="cls-14" d="M84.5,234.2c-1.05.03-2.1.06-3.15.09,5.56-1.06,11.35-.86,16.83.58-.8-.18-1.6-.36-2.41-.54"/>
      <path class="cls-14" d="M86.85,223.71c4.68,4.2,9.73,8.59,15.93,9.58-2.18-1.27-4.13-2.94-5.71-4.9"/>
      <path class="cls-14" d="M313.69,94.97c-.42-.9.7-1.74,1.64-2.07,6.54-2.34,13.8-2.06,20.54-.38s13.07,4.7,19.28,7.81c5.11,2.55,10.27,5.25,14.29,9.31-.75.35-1.76-.27-1.79-1.1"/>
      <path class="cls-14" d="M314.94,97.11c2.25-2.18,5.73-2.36,8.84-2.1,7.36.61,14.62,3.06,20.6,7.41,5.98,4.34,10.61,10.63,12.56,17.75-.85-.42-1.7-.84-2.55-1.26"/>
      <path class="cls-14" d="M313.69,98.55c6.69-.71,13.27,3.37,16.91,9.02,3.64,5.65,4.74,12.61,4.66,19.34-.02,1.44-.26,3.16-1.55,3.79.1-.77.2-1.53.3-2.3"/>
      <path class="cls-14" d="M286.12,92.44c.61-.31.03-1.21-.55-1.57-9.68-5.85-22.53-6-32.35-.38-1.81,1.04-3.61,2.37-4.36,4.32,1.4.27,2.84.32,4.26.14"/>
      <path class="cls-14" d="M281.37,95.06c.54-1.02-.05-2.36-1.02-2.99s-2.19-.71-3.34-.66c-4.72.21-9.21,2.29-12.95,5.19-3.73,2.89-6.79,6.56-9.66,10.32-2.72,3.56-5.41,7.54-5.41,12.02,1.06-.31,2-1,2.61-1.92"/>
      <path class="cls-14" d="M281.02,98.67c.7-1.37-.86-3.02-2.4-2.99s-2.83,1.11-3.93,2.19c-5.69,5.64-9.66,12.99-11.25,20.85-.31,1.52-.53,3.1-.18,4.62.35,1.51,1.37,2.95,2.85,3.41.06-.8.12-1.59.18-2.39"/>
      <path class="cls-14" d="M362.05,17.06c-.59.34-.81,1.07-.98,1.73-3.62,13.96-7.24,27.91-10.86,41.87.8-1.07,1.59-2.13,2.39-3.2"/>
      <path class="cls-14" d="M390.56,106.26l.42-7.55c.3.41.6.82.9,1.24"/>
      <path class="cls-14" d="M396.93,103.59c1.28-1.86,2.56-3.72,3.84-5.58"/>
      <path class="cls-14" d="M195.81,12.47c.19,0-.07.35-.12.17-.87-2.88-1.75-5.75-2.62-8.63.21.37.43.74.64,1.1"/>
      <path class="cls-14" d="M203.81,9.51c.31-1.3.62-2.61.94-3.91.05-.2.08-.46-.1-.57s-.38.28-.17.27"/>
      <path class="cls-14" d="M210.8,13.51c.88-3.02,2.61-5.79,4.94-7.9"/>
      <path class="cls-14" d="M181.53,276.7c-.13-3.97.39-7.95,1.52-11.75.11-.35.25-.74.58-.91s.84.13.72.48"/>
      <path class="cls-14" d="M191.43,276.68c.33-4.45,2.22-8.76,5.26-12.03-.48.07-.95.13-1.43.2"/>
      <path class="cls-14" d="M138.57,268.08c.43-2.9.87-5.8,1.3-8.69.12-.82.26-1.67.72-2.36s1.35-1.17,2.13-.89"/>
      <path class="cls-14" d="M145.6,271.16c.83-2.99,1.65-5.99,2.48-8.98.07-.26.11-.6-.13-.73s-.37.44-.13.33"/>
      <path class="cls-14" d="M300.94,274.48c-.34-2.34-.68-4.73-.23-7.05s1.84-4.6,4.04-5.47"/>
      <path class="cls-14" d="M310.39,274.43c.06-2.54.12-5.08.18-7.62.04-1.86.25-4.03,1.81-5.04.45-.06.43.86-.02.79"/>
      <path class="cls-14" d="M291.26,269.97c-.47-2.56-.92-5.2-.39-7.75.53-2.55,2.26-5.02,4.79-5.64.27.47.24,1.09-.05,1.54"/>
      <path class="cls-14" d="M327.26,277.14l-1.22.25c-.39-3.49-.22-7.05.5-10.49.07-.32.16-.67.43-.86s.75-.05.75.28"/>
      <path class="cls-14" d="M334.43,280.75c.65-3.89.81-7.85.47-11.78"/>
      <path class="cls-14" d="M140.46,269.5c-20.31,4.64-40.61,9.28-60.92,13.92,36.39,2.06,73.03-.43,108.81-7.39-3.35,2.15-7.34,3.3-11.32,3.27.15-1.32,2.53-.13,2.02,1.09s-2.11,1.45-3.44,1.47c-9.14.16-18.29-.63-27.26-2.36,73.31,6.74,147.4,13.46,220.3,3.2,34.17-4.81,78.89-16.28,113.38-15.13.09-1.72-3.87-1.57-5.59-1.64-8.19-.34-16.43.22-24.5,1.66,3.86,6.02,8.66,11.42,14.19,15.96-8.87-13.37-17.01-27.23-24.35-41.5,7.47,10.39,14.94,20.78,22.41,31.16-2.72-9.63-5.44-19.26-8.17-28.88,2.3,7.42,6.6,14.2,12.33,19.44-.2-2.16-.4-4.32-.6-6.48,1.74,1.09,4.04,1.21,5.88.31"/>
      <path class="cls-14" d="M138.3,275.58c-45.3.15-90.6.3-135.9.44,3.26-1.43,6.52-2.87,9.78-4.3"/>
      <path class="cls-14" d="M306.76,47.98c-2.84-4.09-.11-10.73,4.79-11.64,1.4-.26,3.39-.68,3.22-2.09"/>
    </g>
  </g>
</svg>