<?xml version="1.0" encoding="UTF-8"?>
<svg id="Ebene_2" data-name="Ebene 2" xmlns="http://www.w3.org/2000/svg" xmlns:xlink="http://www.w3.org/1999/xlink" viewBox="0 0 448.52 292.58">
  <defs>
    <style>
      .cls-1 {
        fill: #b49f98;
      }

      .cls-2 {
        fill: #a46629;
      }

      .cls-3 {
        fill: #c2d5e2;
      }

      .cls-4 {
        fill: #a98f77;
      }

      .cls-5 {
        fill: #f9c384;
      }

      .cls-6 {
        fill: #2d3544;
      }

      .cls-7 {
        fill: #b7b4b0;
      }

      .cls-8 {
        fill: #dae6ee;
      }

      .cls-9 {
        fill: #984425;
      }

      .cls-10 {
        fill: #949bed;
      }

      .cls-11 {
        fill: #b46e3c;
      }

      .cls-12 {
        fill: #a9c8dc;
      }

      .cls-13 {
        fill: #fdb829;
      }

      .cls-14 {
        fill: #f4a94f;
      }

      .cls-15 {
        fill: #4f5869;
      }

      .cls-16 {
        fill: #67a500;
      }

      .cls-17 {
        fill: #b8bec1;
      }

      .cls-18 {
        fill: #fff;
      }

      .cls-19 {
        fill: #a6b8c3;
      }

      .cls-20 {
        fill: #cca279;
      }

      .cls-21 {
        fill: #e2a329;
      }

      .cls-22 {
        fill: none;
        stroke: #000;
        stroke-miterlimit: 10;
      }

      .cls-23 {
        fill: url(#Unbenannter_Verlauf_192);
      }

      .cls-24 {
        fill: url(#Unbenannter_Verlauf_190);
      }

      .cls-25 {
        fill: #a07184;
      }

      .cls-26 {
        fill: #c4b7a6;
      }

      .cls-27 {
        fill: #ededed;
      }

      .cls-28 {
        fill: #cdcccb;
      }

      .cls-29 {
        fill: #7caf00;
      }

      .cls-30 {
        fill: #f19625;
      }

      .cls-31 {
        fill: #e9ae7d;
      }

      .cls-32 {
        fill: #979187;
      }

      .cls-33 {
        fill: #3a4553;
      }
    </style>
    <linearGradient id="Unbenannter_Verlauf_190" data-name="Unbenannter Verlauf 190" x1="700.06" y1="-1282.47" x2="714.82" y2="-1228.51" gradientTransform="translate(-306.87 1182.32) scale(.84)" gradientUnits="userSpaceOnUse">
      <stop offset="0" stop-color="#fec233"/>
      <stop offset="1" stop-color="#f8a721"/>
    </linearGradient>
    <linearGradient id="Unbenannter_Verlauf_192" data-name="Unbenannter Verlauf 192" x1="515.16" y1="-1323.47" x2="510.07" y2="-1256.16" gradientTransform="translate(-306.87 1182.32) scale(.84)" gradientUnits="userSpaceOnUse">
      <stop offset="0" stop-color="#fec030"/>
      <stop offset="1" stop-color="#f8a71e"/>
    </linearGradient>
  </defs>
  <g id="versicherungen">
    <g>
      <path class="cls-9" d="M123.03,284.26c14.85,1.74,29.71,3.37,44.68,4,16.21.69,32.39.16,48.59.44,16.1.27,32.16,1.42,48.23,2.39,13.45.82,26.94,1.53,40.42,1.49.66-2.4,1.58-4.79,1.54-7.25-.03-2.42-.98-4.73-1.94-6.97-3.92-9.18-8.3-18.38-15.18-25.79-9.99-10.76-24.21-16.7-38.28-21.97-2.76,2.05-5.53,4.1-8.29,6.15l-75.04-7.31c-22.45,13.55-45.35,27.48-61.86,47.39,16.88-7.63,34.44-13.88,52.42-18.66-11.76,8.7-23.53,17.39-35.29,26.09Z"/>
      <g id="Generatives_Objekt" data-name="Generatives Objekt">
        <path class="cls-27" d="M317.99,285.56c.1-1.96-1.27-3.54-1.96-5.17-1.86-4.37-3.46-12.31-5.39-15.76-1.31-2.35-42.1-29.68-45.34-30.34-.91-.18-1.91-.02-2.7.47-2.28-3.01-5.64-6.72-8.33-9.41,1,.29,1.09-.88,1.96-.71.6.12,9.12,5.07,10.54,5.88,7.92,4.54,39.35,23.16,44.11,28.22,3.98,4.23,8.76,21.17,7.11,26.81Z"/>
        <path class="cls-27" d="M168,229.6c-.16.6-.43,1.19-.49,1.41l-56.86,33.86c2.33-10.42,14.05-12.97,22.3-17.87,7.26-4.31,15.68-10.45,23.04-14.11,3.32-1.65,8.54-4.51,12.01-3.29Z"/>
        <path class="cls-28" d="M104.9,282.13c.38-1.68.75-3.36,1.09-5.03l-1.92,4.94c.28.03.55.06.83.1Z"/>
        <path class="cls-28" d="M317.99,285.56l-1.96-5.17c.7,1.64,2.06,3.21,1.96,5.17Z"/>
        <path class="cls-28" d="M109.92,265.81l-.98,3.29c-.68-1.4-.21-2.45.98-3.29Z"/>
        <polygon class="cls-27" points="110.65 264.87 110.41 265.34 110.16 265.11 110.41 264.87 110.65 264.87"/>
        <polygon class="cls-28" points="106.97 274.75 107.22 274.98 106.97 275.22 106.97 274.75"/>
        <polygon class="cls-28" points="107.96 271.45 108.2 271.69 107.96 271.92 107.96 271.45"/>
        <polygon class="cls-28" points="106.48 276.16 106.73 276.39 106.48 276.63 106.48 276.16"/>
        <polygon class="cls-28" points="108.45 269.57 108.69 269.81 108.45 270.04 108.45 269.57"/>
        <path class="cls-28" d="M318.23,287.45c.24-.01.33.41.25.71-.28,1.75-.87-.67-.25-.71Z"/>
        <polygon class="cls-28" points="318.72 289.8 318.97 290.03 318.72 290.27 318.72 289.8"/>
        <g>
          <g>
            <path class="cls-13" d="M155.75,63.1c-8.5-.57-17.57,1.06-25.98.47-1.29-.09-3.57.48-4.41-.71-.67-6-1.36-12.09-1.47-18.11-.07-3.85-.26-7.66,0-11.52.17-.37,4.19-1.49,4.9-1.65,3.07-.69,23.89-1.73,25-.24-.35,10.51,1.65,21.41,1.96,31.75Z"/>
            <path class="cls-28" d="M249.37,127.54c5.2,11.95,11.11,24.04,16.42,35.74,3.62.39,7.03-.48,10.54-.94,4.77-.62,21.41-4.36,25-6.58.99,2.01-.02,2.1-.49,3.76-7.59,2.46-16.34,5.93-24.26,7.05-4.06.57-7.62,1.55-10.78-.94-2.4-1.89-16.74-35.08-19.85-41.15-1.36-2.65-4.82-3.49-.49-5.41.69,2.61,2.79,5.87,3.92,8.47Z"/>
            <path class="cls-28" d="M155.75,63.1c.03,1,.61,4.82-.25,5.17-4.23-1.53-22.38.87-24.51,0-.68-.28-1.59-3.79-1.23-4.7,8.41.59,17.48-1.04,25.98-.47Z"/>
            <g>
              <path class="cls-28" d="M357.69,142.12c-3.32-1.1-.44-4.73-.49-6.35-.08-2.84-2.37-3.53-2.45-3.76-.05-.14,1.47.12.49-2.35s-3.3-3.76-5.39-5.64c-.4-.36,1.04-.68-.25-1.65-.33-.25-7.74-1.11-8.33-.94-1.06.3-5.46,6.45-5.64,7.29-1.25,6.09,4.95,13.53,11.03,14.82,1.54.32,1.21-.98,1.47-.94,2.72.41,5.26,1.23,8.09.94.23,11.36-6.15,31.89-21.81,27.28-8.69-2.56-13.34-13.69-15.93-21.16,2.82-.76,5.64-2.67,8.58-3.29,1.21-1.54-9.07-32.81-10.54-37.16l16.42,10.35c.76-.09,1.17-1.21,1.72-1.88,1.21,1.5,3.6,2.77,4.9.71,2.26-3.13,13.37-27.95,14.95-28.45,1.15-.37,3.57.82,5.39.47,4.43-.86,12.04-5.07,13.48-9.41,6.78,2.72,12.01,2.73,17.16,9.17,14.92,18.66-.54,44.4-21.81,50.56-2.63.76-9.41.74-11.03,1.41Z"/>
              <path class="cls-28" d="M373.38,79.56c-2.96.3-6.71-.41-9.56,0-2.07.3-4.37,2.45-6.86,2.35-.1,0,.39-2.29-1.72-.94.8-1.62,6.14-11.81,5.64-12.7-4.86-2.31-10.27-3.5-15.19-5.64-4.08-1.78-19.4-8.47-21.81-10.82-.42-.41-6.42-9.07-6.37-9.64.04-.48,5.46-5.5,6.37-6.58s1.8-4.28,1.96-4.47c.04-.05-.07-.55.49-.47,19.6-2.49,33.04,9.13,41.66,24.69,4.4,7.94,7.43,15.13,5.39,24.22Z"/>
              <path class="cls-28" d="M357.69,142.12c-.22.09-1.44.99-1.47,1.41-2.83.29-5.37-.53-8.09-.94-.26-.04.06,1.26-1.47.94-6.07-1.28-12.28-8.73-11.03-14.82.17-.84,4.57-6.99,5.64-7.29.59-.17,8,.69,8.33.94,1.29.96-.16,1.28.25,1.65,2.09,1.88,4.4,3.14,5.39,5.64s-.54,2.21-.49,2.35c.08.23,2.37.92,2.45,3.76.05,1.62-2.83,5.25.49,6.35Z"/>
              <path class="cls-28" d="M373.38,79.56c-.06.28.08.7,0,.94-.75.06-.64.22,0,.47-1.44,4.34-9.05,8.54-13.48,9.41-1.82.35-4.24-.84-5.39-.47-1.58.5-12.69,25.32-14.95,28.45-1.3,2.07-3.69.8-4.9-.71,5.79-7.12,16.19-27.78,20.59-36.69,2.1-1.35,1.62.94,1.72.94,2.49.1,4.79-2.05,6.86-2.35,2.85-.41,6.6.3,9.56,0Z"/>
              <path class="cls-28" d="M373.38,80.97c-.64-.25-.75-.41,0-.47-.04.14.05.33,0,.47Z"/>
              <path class="cls-28" d="M325.83,31.12c-.16.18-1.02,3.34-1.96,4.47s-6.33,6.11-6.37,6.58c-.05.57,5.95,9.24,6.37,9.64-3.63,2.7-12.26-11.56-12.25-12.46.02-3.13,11.12-8.73,14.21-8.23Z"/>
            </g>
            <path class="cls-28" d="M159.18,165.16c-1.22.09-2.77.47-2.94.47-3.73-.08-4.47-2.74-6.86-4.94-.36-1.4,2.14-1.42,3.19-1.65,1.32-.28,10.96-1.17,11.76-.94.39.11,6.25,5.23,4.9,5.64-3.4-.3-6.77,1.16-10.05,1.41Z"/>
            <path class="cls-28" d="M156.73,168.92c.15,1.26-.38,2.6.49,3.76-1.43,0-10.78,6.04-11.76,4.47.11-4.7,6.39-10.11,11.27-8.23Z"/>
            <path class="cls-32" d="M159.18,165.16c.55,1.39.86,5.37.49,6.58-.03.1-1.86,0-1.47,1.41-.5-.1-.56-.47-.98-.47-.87-1.17-.34-2.5-.49-3.76-.13-1.08-.8-2.04-.49-3.29.17,0,1.72-.38,2.94-.47Z"/>
            <g>
              <path class="cls-14" d="M276.32,162.34c-3.51.46-6.92,1.33-10.54.94-5.31-11.7-11.22-23.8-16.42-35.74,2.14-.64,1.29-.6,2.45.71,1.06,1.18,3.9,6.64,4.9,8.47,4.44,8.08,7.93,16.84,11.27,25.4l8.33.24Z"/>
              <g>
                <path class="cls-24" d="M316.52,109.19c1.47,4.35,11.75,35.61,10.54,37.16-2.94.62-5.76,2.54-8.58,3.29-1.42.38-4.03,1.13-5.39.94l-1.47-.94c-.48-.24-1.99-1.46-2.45-1.88-1.74-1.6-3.02-3.62-4.17-5.64-.28,3.25-.28,6.23-1.23,9.41-.64,2.14-.3,2.9-2.45,4.23-3.58,2.22-20.23,5.96-25,6.58l-8.33-.24c-3.35-8.55-6.83-17.31-11.27-25.4-1-1.82-3.84-7.28-4.9-8.47-1.16-1.3-.31-1.34-2.45-.71-1.13-2.59-3.23-5.85-3.92-8.47-.26-.99-1.33-2.17-.25-2.82l22.79-5.64c1.11-.06,1.3-.33,1.96-.47.78-.16,2.17-1.17,2.94-1.41,12.74-3.97,25.7-9.87,37.99-15.05.8.3,5,13.63,5.64,15.52Z"/>
                <g>
                  <path class="cls-28" d="M309.16,147.76c-4.79-.34.45,3.56.25,3.76h-5.64c.95-3.17.95-6.16,1.23-9.41,1.15,2.02,2.43,4.04,4.17,5.64Z"/>
                  <path class="cls-28" d="M313.09,150.58c-1.43-.2-1.34-.87-1.47-.94l1.47.94Z"/>
                  <g>
                    <path class="cls-27" d="M309.16,128.01l-24.02,9.88c-1.24-2.6-9.04-22.66-8.09-23.52.05-.04.44.74,1.23.47l17.4,13.17c.7-.53.12-14.9.25-17.17.02-.35.97-.65.98-.71,2.98,1.23,1.42-3.41,2.94-3.53,2.1,6.62,7.66,13.93,9.8,20.22.21.6-.58.78-.49,1.18Z"/>
                    <path class="cls-7" d="M296.91,110.13c0,.06-.96.35-.98.71-.13,2.26.46,16.64-.25,17.17l-17.4-13.17c2.65-.92,15.99-7.04,16.91-7.05,1.8-.03,1.89.86,1.72,2.35Z"/>
                  </g>
                  <path class="cls-21" d="M309.16,128.01c.03.12,1.28,1.65,1.47,2.12-3.68,1.34-20.68,11-23.28,11.05-2.45.05-1.61-2.04-2.21-3.29l24.02-9.88Z"/>
                </g>
              </g>
            </g>
            <g>
              <g>
                <path class="cls-13" d="M236.13,102.14c.92.25.93.46.98.47.78,2.49,2.32,4.67,3.43,7.05l-49.26,23.52-12.5-24.22c.27-1.2,5.3-1.06,6.37-1.18,9.66-1.05,34.43-.39,41.42-2.35,2.44-.69,1.37-1.02,1.72-2.82.04-.2-.92-1.3-.49-2.12l1.23-.71c2.38.77,4.71,1.7,7.11,2.35Z"/>
                <path class="cls-30" d="M177.31,105.9c.15-.04.34.04.49,0-.4,3.38,5.54.12,7.35,1.88-1.07.12-6.1-.02-6.37,1.18l12.5,24.22,49.26-23.52c.56,1.2.43,1.45.98,3.29-6.28,4.34-12.9,8.05-19.61,11.76-9.94,5.49-20.42,10.2-29.9,16.46-7.51-8.25-9.92-24.94-16.18-34.57.45-.75.92-.55,1.47-.71Z"/>
                <path class="cls-21" d="M228.29,102.61c-.35,1.8.72,2.14-1.72,2.82-6.99,1.97-31.76,1.3-41.42,2.35-1.81-1.76-7.76,1.5-7.35-1.88.83-.19,2.79-.32,3.92-.47.63-.08,1.33.08,1.96,0,1.31-.16,2.61-.34,3.92-.47.8-.08,1.65.08,2.45,0,1.32-.14,2.6-.34,3.92-.47.48-.05.99.05,1.47,0,3.6-.37,7.22-1.03,10.78-1.41.32-.03.66.03.98,0,1.48-.16,2.93-.3,4.41-.47.32-.04.66.04.98,0,1.32-.15,2.61-.3,3.92-.47,1.94-.24,3.71-.02,5.88-.47.99-.2,2.19.47,2.94-.71-.05-.7-.5-.8-.49-1.65,4.84-1.54.86,2.72,3.43,3.29Z"/>
              </g>
              <g>
                <path class="cls-30" d="M296.42,49.93c.88.91-1.37,6.48-1.96,8-.03.08-.76.86-.98,1.41-.49,1.23-.93,2.56-1.47,3.76-.26.59-.7,1.27-.98,1.88-.84,1.86-1.6,3.8-2.45,5.64-4.03,8.78-17.08,30.65-18.63,38.57l-35.54-11.76,1.72,4.7c-2.4-.66-4.73-1.58-7.11-2.35l-1.23.71c-.43.82.53,1.92.49,2.12-2.57-.58,1.4-4.83-3.43-3.29.02-2.22-.73-4.02-.98-6.11,2.96,2.58,6.69,2.21,10.05,3.29,9.8,3.15,20.67,7.11,27.94,8.47,2.08.39,4.28.54,6.37.94l28.18-55.97Z"/>
                <path class="cls-20" d="M269.95,109.19c-.06.29.03.64,0,.94-.66.14-.85.41-1.96.47-5.43.29-24.29-6.15-30.88-8-.05-.01-.06-.22-.98-.47l-1.72-4.7,35.54,11.76Z"/>
                <g>
                  <path class="cls-14" d="M266.52,42.88c4.03,1.43,6.31,1.82,10.29,2.82,6.53,1.64,12.96,3.09,19.61,4.23l-28.18,55.97c-2.09-.41-4.29-.55-6.37-.94-7.27-1.35-18.14-5.32-27.94-8.47-3.36-1.08-7.09-.71-10.05-3.29-.62-5.11-1.58-10.15-1.96-15.29l29.65-42.09c4.43,3.37,9.77,5.21,14.95,7.05Z"/>
                  <path class="cls-27" d="M253.04,59.81c2.26.47,17.9,3.57,17.89,5.41,0,.17-2.04,2.55-2.21,2.59-1.44.31-15.16-4.56-18.14-4.23-.37-2.35,3.56-1.45,3.68-1.65l-1.23-2.12Z"/>
                </g>
              </g>
            </g>
            <g>
              <g>
                <path class="cls-27" d="M236.62,16.54c1.17.55,10.11,6.7,10.29,7.29.25.8-.54,1.57-.98,2.12-.65.81-6.85,4.55-8.33,5.64-.72-2.99-5.67-2.95-7.6-4.23-2.39-1.59-.89-2.91-2.45-4.23-1.1-.93-16.6-8.49-18.87-9.41-.67-.45-1.15-1.45-2.45-1.18,0,1.26,1.97.98,2.45,1.18,3.55,2.38,6.95,3.13,4.41,6.82l-11.03-4.94c2.81,2.11,3.04,2.14,1.96,5.64-6.26-3.22-16.34-3.1-7.11-10.82.59-.5,3.38-1.42,4.66-2.35s5.28-5.61,6.37-5.64c8.29,5.14,16.69,9.85,25.49,14.11.53.26,2.64-.26,3.19,0Z"/>
                <path class="cls-27" d="M208.68,13.72c-.48-.19-2.45.08-2.45-1.18,1.3-.28,1.78.72,2.45,1.18Z"/>
              </g>
              <g>
                <path class="cls-28" d="M222.41,101.67c-2.17.45-3.94.23-5.88.47l-.49-5.88c.32-.83,5.98-1,6.37-.47v5.88Z"/>
                <path class="cls-28" d="M173.88,106.37l.49,2.35c-2.65-.54-13.76,2-14.95,1.41-2.12-2.32.18-2.45,2.21-2.82,1-.18,2.38.15,3.43,0,1.31-.19,2.61-.31,3.92-.47.91-.11,1.64-.42,1.96-.47.87-.14,2.21.2,2.94,0Z"/>
                <path class="cls-27" d="M198.88,92.26c.11.5.47,3.49-.25,3.76-4.95,1.87-4.02-2.75-3.68-6.11.71,0,2.87-.15,3.19,0,1.11.52.56,1.59.74,2.35Z"/>
                <path class="cls-27" d="M204.76,89.91c-.51,1.71,2.5,8.05-3.19,5.64-1.13-.48-.67-2.36-.74-3.29-.25-3.46-.16-3.39,3.92-2.35Z"/>
                <path class="cls-27" d="M206.23,103.08c-3.56.38-7.19,1.05-10.78,1.41.35-2.26-1.32-6.74,2.21-6.58s.26,4,2.94,5.17c2.22-4.03-2.11-5.09,4.41-5.64l1.23,5.64Z"/>
                <path class="cls-27" d="M181.72,105.43c-1.13.15-3.09.28-3.92.47-.15.04-.34-.04-.49,0l-.98-5.88c6.46-2.23,4.36.98,5.39,5.41Z"/>
                <path class="cls-27" d="M187.61,104.96c-1.31.13-2.61.31-3.92.47l-.98-5.88c1.06-.47,4.25-1.42,4.9,0v5.41Z"/>
                <path class="cls-27" d="M193.98,104.49c-1.32.13-2.6.33-3.92.47l-.98-5.88c.85-.02,3.94-1.15,4.41-.47l.49,5.88Z"/>
                <g>
                  <path class="cls-28" d="M212.6,102.61c-.32.04-.66-.04-.98,0,.05-1.11.07-5.11-.74-5.64-1.19-.78-2.97,1.97-1.47-1.41l-22.55,1.88c-.64.69-.3.84.49.94,2.67.35,18.78-2.4,19.61-1.88l.25,6.58c-.32.03-.66-.03-.98,0l-1.23-5.64c-6.52.55-2.19,1.61-4.41,5.64-2.68-1.17.47-5.02-2.94-5.17s-1.86,4.32-2.21,6.58c-.48.05-.99-.05-1.47,0l-.49-5.88c-.48-.68-3.56.45-4.41.47l.98,5.88c-.8.08-1.65-.08-2.45,0v-5.41c-.65-1.42-3.84-.47-4.9,0l.98,5.88c-.63.08-1.33-.08-1.96,0-1.03-4.43,1.06-7.64-5.39-5.41l.98,5.88c-.56.15-1.02-.05-1.47.71,6.26,9.63,8.66,26.32,16.18,34.57.17.19-.19,2.58,2.21,2.35l27.69-18.81c6.7-3.71,13.32-7.42,19.61-11.76.04.15,2.33,1.66,1.23,2.82-6.74,1.97-44.7,30.9-47.55,30.57-.43-.05-6.14-4.71-6.62-5.41-4.28-6.35-7.14-21.58-11.27-29.16-1.01-1.86-.98-2.66-2.94-3.06l-.49-2.35c.41-.11,1.21.24,1.47-.24l-.74-6.35c-5.91-.79-3.16,2.5-3.68,6.58-.32.05-1.05.36-1.96.47v-5.88c-5.21-2.51-3.82,2.95-3.92,6.35-1.05.15-2.43-.18-3.43,0-.69-1.08-.76-6.52-.25-7.05,1.09-1.15,20.87-.76,23.77-2.59-3.06-.61-23.27,2.32-24.26,1.65-.32-.22-1.46-6.9,0-7.53.92-.39,18.78-1.63,20.1-1.41,1.33.22.91.97,1.72,1.41-.22.58,0,4.56.49,4.94l3.19.24.25-6.11c1.59-.28,1.83,0,1.96,0,.9,2.3-.52,7.54,4.17,5.64,1.22-.5-.05-4.41.25-5.64.11-.45-.24-1.08.25-1.41,1.03-.43,1.63.47,1.72.47-.34,3.37-1.28,7.99,3.68,6.11.71-.27.36-3.26.25-3.76h1.96c.07.93-.39,2.81.74,3.29,5.69,2.41,2.68-3.94,3.19-5.64s6.72-2.38,8.09-1.88c.99.36-.34,6.53,1.96,6.58,1.32-1.29-.95-5.75.49-6.58,5.91-3.43,7.92,4.23,6.37,6.11-.53.64-9.01.88-10.54,1.65,3.34.05,3.09,4.51,1.47,6.82Z"/>
                  <g>
                    <path class="cls-26" d="M192.02,141.18c9.48-6.26,19.96-10.97,29.9-16.46l-27.69,18.81c-2.39.23-2.03-2.16-2.21-2.35Z"/>
                    <g>
                      <path class="cls-27" d="M186.63,90.85l-.25,6.11-3.19-.24c-.5-.38-.71-4.36-.49-4.94.63-1.62,2.48-.69,3.92-.94Z"/>
                      <path class="cls-27" d="M193,90.85c-.3,1.23.98,5.15-.25,5.64-4.69,1.9-3.27-3.34-4.17-5.64,1.38-.07,2.92-1.11,4.41,0Z"/>
                      <path class="cls-27" d="M211.62,102.61c-1.48.17-2.93.31-4.41.47l-.25-6.58c-.82-.52-16.94,2.23-19.61,1.88-.79-.1-1.13-.25-.49-.94l22.55-1.88c-1.5,3.38.28.63,1.47,1.41.81.53.79,4.54.74,5.64Z"/>
                      <path class="cls-27" d="M173.88,106.37c-.73.2-2.07-.14-2.94,0,.51-4.08-2.23-7.38,3.68-6.58l.74,6.35c-.26.47-1.06.12-1.47.24Z"/>
                      <path class="cls-27" d="M168.98,106.84c-1.31.16-2.61.28-3.92.47.1-3.39-1.29-8.86,3.92-6.35v5.88Z"/>
                      <path class="cls-27" d="M177.07,91.32c3.1-2.11,5.37,2.91,3.92,5.64l-4.17-.24c.19-1-.36-5,.25-5.41Z"/>
                      <path class="cls-27" d="M173.64,91.32c.61.13.83.18,1.23.71-.15,4.26,2.59,6.05-3.68,5.41-.51-2.25-1.04-6.84,2.45-6.11Z"/>
                      <path class="cls-27" d="M167.26,91.79c.84.04,1.17-.05,1.72.71l-.25,5.41c-4.75,1.7-5.09-6.27-1.47-6.11Z"/>
                      <path class="cls-27" d="M208.44,88.97c.96,0,1.57-.19,2.21.71l-.25,5.41c-5.12.76-2.89-2.24-4.17-5.41.66.03,2.09-.71,2.21-.71Z"/>
                    </g>
                  </g>
                </g>
              </g>
            </g>
            <g>
              <path class="cls-27" d="M276.81,45.7c-3.98-1-6.26-1.39-10.29-2.82l-11.27-15.76c1.54-.48,11.97-4.37,12.5-4,.35.24,2.47,7.26,3.43,7.53.11.03,1.46-1.14,1.96-.94.61.25,1.04,3.31,1.23,3.53,1,1.16,1.74-.22,2.21.24.32.32.78,2.05,1.96,3.29.36.38.76-1.01,1.72.24,4.63,6.03.42,5.27-3.43,8.7Z"/>
              <path class="cls-27" d="M277.55,37.23c1.64.68-2.78,2.69-3.19,2.12l3.19-2.12Z"/>
            </g>
            <g>
              <path class="cls-27" d="M326.32,30.65c-.56-.08-.45.42-.49.47-3.1-.5-14.2,5.1-14.21,8.23,0,.91,8.63,15.16,12.25,12.46,2.41,2.34,17.73,9.04,21.81,10.82,4.93,2.15,10.33,3.34,15.19,5.64.5.88-4.83,11.07-5.64,12.7-4.4,8.9-14.79,29.56-20.59,36.69-.55.68-.95,1.79-1.72,1.88l-16.42-10.35c-.64-1.89-4.84-15.22-5.64-15.52-12.28,5.18-25.24,11.08-37.99,15.05l13.72-32.69c5.56-2.29,11.06-4.59,16.42-7.29.54-.27.94.75,1.47.47,1.35-.71,3.21-3.51,4.66-4.47l-20.59,5.88c.85-1.85,1.61-3.78,2.45-5.64l16.18-5.88c-4.83-.19-9.32,2.95-13.48,4.47-.36.13-2.1.74-1.72-.47.54-1.2.98-2.54,1.47-3.76l10.78-4-9.8,2.59c.59-1.52,2.84-7.09,1.96-8-6.65-1.15-13.07-2.59-19.61-4.23,3.85-3.43,8.06-2.67,3.43-8.7-.96-1.24-1.35.15-1.72-.24-1.18-1.24-1.64-2.98-1.96-3.29-.46-.46-1.2.93-2.21-.24-.19-.22-.61-3.28-1.23-3.53-.5-.2-1.86.97-1.96.94-.96-.26-3.08-7.28-3.43-7.53-.53-.37-10.96,3.52-12.5,4l11.27,15.76c-5.18-1.84-10.52-3.69-14.95-7.05l-29.65,42.09c.38,5.14,1.35,10.18,1.96,15.29.25,2.1,1,3.9.98,6.11,0,.85.44.95.49,1.65-.76,1.17-1.95.5-2.94.71v-5.88c-.39-.53-6.05-.36-6.37.47l.49,5.88c-1.31.17-2.6.32-3.92.47,1.62-2.31,1.87-6.77-1.47-6.82,1.53-.76,10.01-1,10.54-1.65,1.55-1.88-.46-9.54-6.37-6.11-1.44.84.83,5.29-.49,6.58-2.3-.05-.97-6.23-1.96-6.58-1.37-.5-7.6.23-8.09,1.88-4.08-1.04-4.17-1.11-3.92,2.35h-1.96c-.17-.76.37-1.83-.74-2.35-.31-.15-2.48,0-3.19,0-.09,0-.68-.9-1.72-.47-.48.33-.14.97-.25,1.41-1.49-1.11-3.03-.07-4.41,0-.13,0-.37-.28-1.96,0-1.44.25-3.29-.68-3.92.94-.81-.44-.38-1.19-1.72-1.41-1.31-.22-19.18,1.02-20.1,1.41-1.46.62-.32,7.31,0,7.53.99.68,21.2-2.26,24.26-1.65-2.9,1.82-22.68,1.44-23.77,2.59-.51.54-.44,5.98.25,7.05-2.02.37-4.33.51-2.21,2.82,1.19.59,12.3-1.95,14.95-1.41,1.97.4,1.93,1.2,2.94,3.06,4.13,7.58,6.99,22.81,11.27,29.16.47.7,6.19,5.36,6.62,5.41,2.84.33,40.81-28.6,47.55-30.57,1.11-1.16-1.18-2.67-1.23-2.82-.55-1.85-.42-2.1-.98-3.29-1.11-2.38-2.66-4.57-3.43-7.05,6.59,1.85,25.45,8.29,30.88,8l-22.79,5.64c-1.09.65-.01,1.84.25,2.82-4.33,1.92-.87,2.76.49,5.41,3.11,6.07,17.45,39.26,19.85,41.15,3.16,2.49,6.72,1.52,10.78.94,7.92-1.12,16.67-4.59,24.26-7.05-2.86,10.1-8.87,20.85-21.32,19.75-1.61-.14-8.18-3.09-9.07-1.18-.28,11.53-5.52,31.83-20.1,32.22.44-1.19,1.85-4.78,1.96-5.64,6.54-2.15,4.94-6.82,5.39-11.76,1.09-12.04.76-16.61-4.9-27.28-.37-.7-.49-3.13-1.47-4.47-4.71-6.42-16.93-6.26-24.02-5.41-.92.11-2.11-.17-2.94,0-14.38-3.74-33.09.31-45.83,7.53-4.39,2.49-7.59,6.62-11.03,8.94-3.41,2.29-4.25.95-7.84-.47.37-1.22.06-5.19-.49-6.58,3.28-.25,6.64-1.71,10.05-1.41,1.35-.42-4.52-5.53-4.9-5.64-.81-.23-10.45.66-11.76.94-1.05.23-3.54.24-3.19,1.65,2.39,2.2,3.13,4.86,6.86,4.94-.31,1.25.36,2.22.49,3.29-4.88-1.88-11.16,3.53-11.27,8.23.99,1.58,10.33-4.48,11.76-4.47.42,0,.48.37.98.47,3.05.61,8.2,3.07,11.76,3.53-.81,3.96-1.67,7.95-1.96,11.99-.37,5.26-1.8,9.89,4.41,12.7.13,5.31,3.83,17.79,5.88,23.05l-4.9,3.29c-.59-2.94-.98-5.97-1.47-8.94-.23-1.38.53-3.35.49-3.53-.1-.41-.94-.18-.98-.24-1.28-2.13-11.26-6.3-14.46-8.94-8.09-6.66-12.95-17.69-12.01-27.98-.5-1.09-9.22.48-11.52.24-7.97-.83-17.89-7.87-21.32-14.82-1.58-3.2-1.98-11.29-5.15-10.58-1.21.27-14.83,12.49-19.61,14.58-24.49,10.73-52.29-10.44-51.71-34.57.1-4.09,5.82-13.55,5.39-15.05-.21-.73-8.73-8.18-10.78-11.05,2.36-.03.13-2.67-.98-1.41-17-26.36,1.95-56.53,29.16-67.26,18.12-7.14,33.55-5.81,51.47.94,4.62,1.74,9.13,5.35,13.97,5.64.11,6.01.8,12.11,1.47,18.11.84,1.19,3.12.62,4.41.71-.36.91.54,4.42,1.23,4.7,2.12.87,20.28-1.53,24.51,0,.86-.35.27-4.17.25-5.17-.31-10.34-2.31-21.24-1.96-31.75-1.1-1.49-21.93-.45-25,.24,3.86-11.42,16.12-22.12,28.18-25.4,13.98-3.79,26.65.01,39.95,4.23-9.24,7.72.84,7.59,7.11,10.82,1.08-3.51.85-3.54-1.96-5.64l11.03,4.94c2.54-3.69-.86-4.44-4.41-6.82,2.27.91,17.77,8.48,18.87,9.41,1.57,1.32.06,2.64,2.45,4.23,1.93,1.28,6.87,1.24,7.6,4.23-9.46,6.97-19.51,13.15-29.41,19.52.1.51,7.01.37,7.6.24,1.8-.42,26.74-19.18,29.41-21.63,1.76-1.62,4.03-2.81.74-3.76.44-.55,1.23-1.32.98-2.12-.18-.59-9.12-6.74-10.29-7.29,10.64-7.38,22.38-15.64,36.03-16.46,20.96-1.26,44.29,12.77,53.67,30.57Z"/>
              <g>
                <path class="cls-27" d="M171.92,218.78h-.49c.21-1.09-.15-2.59,0-3.76.04.06.88-.18.98.24.04.17-.72,2.15-.49,3.53Z"/>
                <g>
                  <path class="cls-28" d="M272.89,108.72c-.77.24-2.16,1.25-2.94,1.41.03-.3-.06-.65,0-.94,1.55-7.92,14.6-29.78,18.63-38.57l20.59-5.88c-1.45.96-3.31,3.76-4.66,4.47-.53.28-.93-.74-1.47-.47-5.36,2.7-10.86,5-16.42,7.29l-13.72,32.69Z"/>
                  <path class="cls-28" d="M129.28,136c8.47-.42,17.1-.41,25.49-1.65-1.58-8.15-2.01-16.46-2.94-24.69l5.88,27.98-28.43-1.65Z"/>
                  <g>
                    <path class="cls-27" d="M30.27,106.84c-.39-.54-.6-.82-.98-1.41,1.11-1.26,3.34,1.38.98,1.41Z"/>
                    <path class="cls-28" d="M55.02,109.19c1.86-.1,1.57.28,2.7,1.18.59.47,9.52,10.61,9.8,11.29.41.98.58.86-.25,1.65-4.1,3.91-21.1-.48-25.24-4.47-.52-2.18,10.96-9.54,12.99-9.64Z"/>
                    <path class="cls-28" d="M120.94,136.47l-12.01,15.52c-.38-5.82,3.37-10.7,6.13-15.52,1.95-.07,3.93.07,5.88,0Z"/>
                  </g>
                  <path class="cls-28" d="M269.22,170.34c.69.2,2.33,5.93,1.47,6.58-5.33-1.92-8.27-3.68-1.47-6.58Z"/>
                  <g>
                    <g>
                      <path class="cls-28" d="M291.03,64.98c.28-.61.72-1.3.98-1.88-.38,1.21,1.36.6,1.72.47,4.16-1.52,8.65-4.66,13.48-4.47l-16.18,5.88Z"/>
                      <path class="cls-28" d="M293.48,59.34c.22-.55.95-1.33.98-1.41l9.8-2.59-10.78,4Z"/>
                      <path class="cls-28" d="M313.33,52.28c.53,1.57-3.64,2-4.66,1.65l4.66-1.65Z"/>
                    </g>
                    <g>
                      <path class="cls-28" d="M345.93,73.92c.71.43,3.21.91,3.92,2.12-1.54.73-2.97-1.41-3.92-2.12Z"/>
                      <path class="cls-28" d="M345.93,73.92c-1.33-.8-2.98-1.14-3.92-2.59,1.54-.34,3.03,1.93,3.92,2.59Z"/>
                    </g>
                  </g>
                  <g>
                    <g>
                      <path class="cls-23" d="M151.82,109.66c.93,8.23,1.36,16.54,2.94,24.69-8.39,1.23-17.02,1.23-25.49,1.65-2.76.14-5.6.37-8.33.47-1.95.07-3.93-.07-5.88,0-4.61.16-9.31.88-13.97.47-1.34-.12-1.94.46-1.72-1.41l54.41-1.65-6.37-52.21,2.94,49.38-51.47,3.06c-1.31-3.88-1.67-13.97-2.45-18.81-.28-1.73-.7-3.47-.98-5.17-1.11-6.72-2.4-13.53-3.43-20.22-.13-.84-.42-1.42-.49-1.88-.39-2.54-.77-6.33-.98-8.94-.02-.31,0-.63,0-.94-.03-.88-1.43-2.67.25-3.76,1.15-.13,2.61.19,3.68,0,.45-.08.64-.36,1.47-.47,16.66-2.31,34.86-1.98,51.71-3.29-.26,12.99,2.71,26.08,4.17,39.04Z"/>
                      <path class="cls-30" d="M99.38,135.53c.19-.66-.32-.9-.49-1.41l51.47-3.06-2.94-49.38,6.37,52.21-54.41,1.65Z"/>
                    </g>
                    <g>
                      <path class="cls-28" d="M95.46,110.13c.28,1.7.7,3.44.98,5.17l-18.38,15.99c-.46-.61-2.15-1.37-2.21-2.12-.09-1.34,16.48-17.88,19.61-19.05Z"/>
                      <path class="cls-27" d="M83.45,89.44c.54.76,4.63,4.61,4.66,4.94.11,1.24-3.78,2.52-3.19,4.47-4.23-3.98-5.34-4.61-1.47-9.41Z"/>
                      <path class="cls-28" d="M81.24,102.14c-3.16-3.08-6.85-5.86-9.8-9.17,3.98,1.86,7.07,5.98,9.8,9.17Z"/>
                      <path class="cls-28" d="M79.04,75.8c2.67,2.32,6.28,5.32,7.84,8.47-2.7-2.7-5.84-5.2-7.84-8.47Z"/>
                      <path class="cls-28" d="M95.95,73.92c-.83.12-1.02.39-1.47.47l-5.64-6.58,7.11,6.11Z"/>
                      <path class="cls-28" d="M81.24,102.14c1.8,1.76,4.33,3.66,5.15,6.11-2.46-1.39-3.5-4.19-5.15-6.11Z"/>
                      <path class="cls-28" d="M91.53,88.03c.07.47.36,1.04.49,1.88l-2.94-3.06,2.45,1.18Z"/>
                      <path class="cls-28" d="M88.59,77.21c-1.14-.8-2.01-1.58-2.94-2.59,1.64-.47,2.36,1.7,2.94,2.59Z"/>
                      <path class="cls-28" d="M67.52,88.97c.56.47,2.73,1.42,2.21,2.35-1.7-.5-1.6-1.54-2.21-2.35Z"/>
                      <path class="cls-28" d="M90.55,78.15c0,.31-.02.63,0,.94-1.58.21-1.57-1.28-1.96-1.88.58.41,1.15,1.03,1.96.94Z"/>
                      <path class="cls-28" d="M67.52,88.97c-.11-.15-1.71-.78-1.23-1.41,1.21-.21,1.15,1.35,1.23,1.41Z"/>
                    </g>
                  </g>
                  <g>
                    <g>
                      <path class="cls-28" d="M237.6,31.59c1.48-1.09,7.68-4.83,8.33-5.64,3.3.96,1.02,2.15-.74,3.76-2.67,2.46-27.61,21.22-29.41,21.63-.58.14-7.5.27-7.6-.24,9.89-6.37,19.95-12.55,29.41-19.52Z"/>
                      <path class="cls-28" d="M168.24,48.99l11.03,3.53c-4.22,1.27-7.75-1.36-11.03-3.53Z"/>
                      <path class="cls-28" d="M201.09,48.99c.09-.01,1.09.69,1.72.71l-2.21.24c-.49-.24.4-.93.49-.94Z"/>
                    </g>
                    <g>
                      <path class="cls-28" d="M215.3,72.04c.85.02,2.61-.23,3.19.24.38.3.74,5.66.49,6.11-.41.73-9.24,1.04-10.05.71-.28-.12-.39-5.62-.25-5.88.24-.45,5.95-1.19,6.62-1.18Z"/>
                      <path class="cls-28" d="M209.42,80.5c.47-.13,2.87-.09,3.19.24l.49,6.11-10.05.71c-1.21-2.67.28-10.2,3.68-5.88.21.27-.86,7.32,1.72,5.41,1.26-.93-1.23-5.96.98-6.58Z"/>
                      <path class="cls-28" d="M206.48,72.51c.77.1,1.17-.11,1.72.71.66,7.7-.12,6.09-7.11,6.82-2.22-5.51-.93-8.33,5.39-7.53Z"/>
                      <path class="cls-3" d="M214.32,67.33c.83-.03,3.04-.37,3.43.47-19.74,2.04-39.69,3.77-59.55,4.94l56.12-5.41Z"/>
                      <path class="cls-3" d="M187.12,63.1c-.17.02-2.41.6-1.96,1.41-2.29.1-4.58.64-6.86.24,6.16-2.84-3.16-8.07,8.09-7.76l.74,6.11Z"/>
                      <path class="cls-28" d="M219.71,79.56c.3.15,1.35,6.05,1.23,6.35-.39.93-5.02,1.11-6.13,1.18-1.03-.46-.94-6.54-.74-6.82.16-.22,5.39-.83,5.64-.71Z"/>
                      <path class="cls-12" d="M172.17,74.86c5.82-.94,3.75,2.21,4.41,6.11l-6.62.24c-.22-3.51-2.27-5.63,2.21-6.35Z"/>
                      <path class="cls-12" d="M184.91,73.92c.58-.11,3.42-.11,3.68.24.28,5.47.65,7.33-5.88,6.11.46-3.1-1.56-5.61,2.21-6.35Z"/>
                      <path class="cls-12" d="M165.79,75.33c4-.46,2.86,4.06,2.45,6.58-5.39.84-4.68-1.66-4.66-5.88.64.02,2.06-.69,2.21-.71Z"/>
                      <path class="cls-12" d="M175.11,82.86c.55,0,1.89-.19,2.21.24,2.71,8.35-5.77,8.4-4.9.47.7.05,2.56-.71,2.7-.71Z"/>
                      <polygon class="cls-12" points="163.83 83.8 164.57 89.68 159.91 89.91 159.67 84.5 163.83 83.8"/>
                      <path class="cls-12" d="M180.01,74.39c.77.1,1.17-.11,1.72.71.9,2.41-.46,8.42-4.17,5.88-.36-.25-1.59-7.09,2.45-6.58Z"/>
                      <path class="cls-12" d="M181.97,82.39c.49.02,1.42-.19,1.72.24-.12,4.8,2.71,5.81-3.68,6.35-.8-.26-2.37-6.78,1.96-6.58Z"/>
                      <path class="cls-12" d="M169.71,83.33c1.51.48,2.36,8.77-2.94,6.11-1.43-.72-1.61-7.56,2.94-6.11Z"/>
                      <path class="cls-19" d="M190.3,73.45c.15-.1,2.5.81,3.68.24l-.25,6.35c-5.05,1.9-3.84-6.32-3.43-6.58Z"/>
                      <path class="cls-17" d="M188.83,81.91c1.78.62,1.12,9.38-2.94,6.58-1.09-.75-.02-7.62,2.94-6.58Z"/>
                      <path class="cls-12" d="M161.38,75.8c1,.33.98,4.84,1.23,5.88-5.27,3.9-5.56-7.32-1.23-5.88Z"/>
                      <path class="cls-28" d="M197.65,81.44c3.36-2.29,3.44,6.19,2.45,6.58-4.06,1.64-2.83-6.33-2.45-6.58Z"/>
                      <path class="cls-28" d="M191.77,81.91c3.48-2.37,4.93,8.49.49,6.11-.9-.48-1.03-5.74-.49-6.11Z"/>
                      <path class="cls-17" d="M195.69,73.45c.29-.14,2.47-.07,2.7.24-.6,2.47,2.06,7.62-2.45,5.64.4-.88-.52-5.75-.25-5.88Z"/>
                      <g>
                        <path class="cls-3" d="M185.15,64.51c-.44-.81,1.79-1.39,1.96-1.41.22-.03,1.89,1.1,2.45.24.68-1.04-.9-5.76-.25-6.35.41-.37,8.46-.72,8.82-.47,1.08.74-1.3,7.39,2.45,6.58,3.87-.83.05-6.31,1.96-7.05,2.32-.9,10.36.38,13.23-1.41l.49,8c-10.36.73-20.76,1.42-31.13,1.88Z"/>
                        <path class="cls-27" d="M190.79,57.46c9.35-1.98,9.91,7.91,0,5.64v-5.64Z"/>
                        <path class="cls-27" d="M210.4,56.05c4.43-1.97,5.1,8.76-.74,5.88.25-1.26-.65-5.26.74-5.88Z"/>
                      </g>
                      <g>
                        <path class="cls-3" d="M172.66,57.93c6.34-.14,3.92,1.81,4.9,7.05l-19.36,1.18-.25-6.82c1.88.52,5.85-1.11,7.35-.47,1.33.57.05,8.05,2.45,6.11,2.11-1.7-3.73-6.86,4.9-7.05Z"/>
                        <path class="cls-3" d="M170.21,58.87c.27-.1,5.15-.12,5.39,0,4.58,7.41-9.48,8.75-6.62.71.46-.09,1.01-.63,1.23-.71Z"/>
                        <path class="cls-8" d="M160.4,59.81c7.9-1.49,6,8.73-1.72,5.41.55-3.09-1.72-4.76,1.72-5.41Z"/>
                      </g>
                    </g>
                  </g>
                </g>
              </g>
            </g>
          </g>
          <g>
            <path class="cls-15" d="M224.37,155.76c-1.93.38-12.73,5.11-12.99,6.58l.49.94c.87.28,17.32-2.42,18.14-2.82,2.95-1.44-1.02-3.85-2.7-4.7,7.09-.86,19.31-1.01,24.02,5.41.98,1.34,1.1,3.76,1.47,4.47-5.94,15.58-23.35,6.58-35.54,5.17-4.03-.47-8.71-.88-12.74-.94-3.22-.05-20.63,1.93-21.57,1.41-.56-.31.08-1.5-.49-1.88-1.59-1.06-12.48,4.46-14.95,2.82,3.44-2.32,6.64-6.45,11.03-8.94,12.74-7.22,31.45-11.27,45.83-7.53Z"/>
            <path class="cls-27" d="M198.88,254.52c-1.24,1.34-2.74,4.03-3.92,5.64-1.09,1.48-1.53,2.3-2.45,3.76-2.84,4.52-5.39,8.93-7.84,13.64-4.11-16.45-7.94-33.24-11.27-49.85l4.9-3.29c4.45,11.38,12.47,20.93,20.59,30.1Z"/>
            <path class="cls-13" d="M227.31,155.76c1.67.86,5.64,3.27,2.7,4.7-.82.4-17.27,3.1-18.14,2.82l-.49-.94c.26-1.47,11.06-6.2,12.99-6.58.84-.17,2.02.11,2.94,0Z"/>
            <path class="cls-27" d="M249.37,229.13c1.42,3.76,4.77,10.82,5.39,14.34,1.23,6.96-4.48,19.49-6.86,26.57-1.46-3.77-4.84-8.53-8.33-10.82-.53-.35-1.14-1.69-2.45-1.88-1.76-1.82-7.75-8.3-9.8-8.94,6.28-9.4,13.56-18.58,18.63-28.69.99,3.18,2.25,6.29,3.43,9.41Z"/>
            <g>
              <path class="cls-31" d="M248.88,188.68c1.61,4.32,4,11.46,3.43,15.99-.11.87-1.52,4.45-1.96,5.64-.77,2.1-2.86,5.3-3.92,7.53-.49,1.02-.36,1.62-.49,1.88-5.07,10.11-12.34,19.29-18.63,28.69-1.68-.52-6.85,1.6-9.31,1.88l-.98-14.11c1.68-.36,8.53-2.32,8.82-4,.52-2.95-6.46,1.11-8.82,1.65l.49-48.44c1.25.03,4.89-.98,5.15-.94.48.07,5.1,4.1,6.37,4.7,6.59,3.13,13.55,3.24,19.85-.47Z"/>
              <path class="cls-5" d="M217.51,185.39l-.49,48.44c-9.33,2.12-18.83.78-26.22-5.17-2.7,1.44,1.19,3.71,2.94,4.7,6.49,3.67,16.02,4.37,23.28,2.82l.98,14.11c-2.85.32-15.82.9-16.91,1.41-.37.17-1.61,2.18-2.21,2.82-8.11-9.17-16.14-18.72-20.59-30.1-2.05-5.26-5.75-17.74-5.88-23.05-.12-5.14,2.19-13.18,3.43-18.34,7.84,6.35,13.07,8.74,23.77,6.11,9.11-2.24,5.96-4.01,17.89-3.76Z"/>
              <path class="cls-4" d="M257.7,192.91c-.45,4.94,1.15,9.61-5.39,11.76.57-4.53-1.82-11.67-3.43-15.99.64-.38,1.93-2.84,2.7-2.82s4.79,6.55,6.13,7.05Z"/>
              <path class="cls-4" d="M175.84,183.03c-1.24,5.16-3.55,13.2-3.43,18.34-6.21-2.81-4.79-7.44-4.41-12.7l6.62-7.53c.74.35.82,1.55,1.23,1.88Z"/>
              <path class="cls-11" d="M217.02,233.83c2.36-.54,9.34-4.6,8.82-1.65-.3,1.68-7.14,3.64-8.82,4-7.26,1.54-16.8.85-23.28-2.82-1.75-.99-5.64-3.26-2.94-4.7,7.39,5.95,16.9,7.29,26.22,5.17Z"/>
            </g>
            <g>
              <path class="cls-6" d="M257.7,192.91c-1.33-.5-5.39-7.03-6.13-7.05s-2.06,2.45-2.7,2.82c-6.31,3.71-13.26,3.61-19.85.47-1.27-.6-5.89-4.63-6.37-4.7-.26-.04-3.9.97-5.15.94-11.93-.25-8.78,1.53-17.89,3.76-10.7,2.63-15.93.24-23.77-6.11-.41-.33-.49-1.53-1.23-1.88l-6.62,7.53c.29-4.04,1.15-8.03,1.96-11.99-3.56-.46-8.71-2.92-11.76-3.53-.39-1.41,1.44-1.32,1.47-1.41,3.59,1.42,4.43,2.76,7.84.47,2.47,1.64,13.36-3.89,14.95-2.82.57.38-.07,1.57.49,1.88.94.52,18.34-1.46,21.57-1.41,4.03.06,8.71.48,12.74.94,12.19,1.41,29.59,10.41,35.54-5.17,5.66,10.67,5.99,15.24,4.9,27.28Z"/>
              <path class="cls-33" d="M205.5,175.04c3.4-.11,28.15,1.63,29.41,2.82,2.38,2.24-8.5,6.25-10.29,6.58-6.6,1.23-19.51.47-25-3.29-9.55-6.55-1.29-5.88,5.88-6.11Z"/>
            </g>
            <g>
              <path class="cls-2" d="M250.84,227.48l10.29,16.93c-4.19,15.35-8.94,30.57-14.3,45.59,5.9.35,11.79.73,17.69,1.09,2.1.13,4.21.25,6.31.37-4.64-1.62-9.29-2.93-5.3-7.78-.92-.47-5.18-2.16-5.39-2.35-.25-.23-.97-.27,0-.47l22.06-5.88c-5.42-13.66-10.57-28.29-19.61-40.21-2.28-3.01-5.64-6.72-8.33-9.41-2.38-2.37-6.41-4.16-7.84-7.53-.49,1.02-.36,1.62-.49,1.88.99,3.18,2.25,6.29,3.43,9.41l1.47-1.65Z"/>
              <path class="cls-2" d="M176.82,281.33c.55.3.83.35,0,.47l-9.98,6.41c.29.01.58.03.86.04,4.88.21,9.76.3,14.63.34-5.05-18.86-7.57-38.03-10.91-57.36-.35-2.02.34-5.71-1.47-7.29-.49,1.85-1.45,3.76-1.96,5.64-.16.6-.43,1.19-.49,1.41-4,14.79-7.85,29.63-11.76,44.45.69,1.38,18.73,4.58,21.08,5.88Z"/>
              <path class="cls-25" d="M182.34,288.6c1.76.02,3.52.03,5.28.03-.98-3.36-1.93-6.95-2.96-11.06-4.11-16.45-7.94-33.24-11.27-49.85-.59-2.94-.98-5.97-1.47-8.94h-.49c-.22,1.14-1.08,3.69-1.47,5.17,1.81,1.58,1.12,5.27,1.47,7.29,3.34,19.32,5.86,38.5,10.91,57.36Z"/>
              <path class="cls-9" d="M270.84,291.46c3.91.22,7.82.43,11.74.61-4.54-2.72-15.1-7.4-17.03-8.39-3.99,4.85.65,6.16,5.3,7.78Z"/>
              <path class="cls-10" d="M260.15,281.33c-.25-.23-.97-.27,0-.47v.47Z"/>
              <path class="cls-10" d="M176.82,281.8v-.47c.55.3.83.35,0,.47Z"/>
              <path class="cls-9" d="M240.76,289.65c2.02.11,4.05.23,6.07.35,5.36-15.02,10.11-30.24,14.3-45.59l-10.29-16.93-1.47,1.65c1.42,3.76,4.77,10.82,5.39,14.34,1.23,6.96-4.48,19.49-6.86,26.57-2.22,6.59-4.61,13.12-7.13,19.6Z"/>
              <path class="cls-29" d="M209.42,254.99c.59.82.45,3.12.74,3.76.61,1.39,1.76,3.72,2.94,4.7.64.53,2.01.6,2.45,1.41,1.89-1.91,4.52-2.28,3.92,1.18-.9,5.24-5.5,14.82-8.6,22.59,1.81.01,3.62.03,5.43.06,3.14.05,6.28.15,9.42.26-1.2-5.77-5.97-21.92-5.76-25.26.13-2.06,2.63-6.69,4.9-6.82.89-.05,4.17.84,5.39.94.73-.1,6.52-.52,6.86-.47-1.76-1.82-7.75-8.3-9.8-8.94-1.68-.52-6.85,1.6-9.31,1.88-2.85.32-15.82.9-16.91,1.41-.37.17-1.61,2.18-2.21,2.82-1.24,1.34-2.74,4.03-3.92,5.64,2.4,1.44,13.79-5.56,14.46-5.17Z"/>
              <path class="cls-28" d="M205.12,288.61c2.63-7.71,5.65-15.21,9.44-21.39l-1.47-3.76c-1.18-.98-2.33-3.32-2.94-4.7-5.06,2.72-11.81,7.78-17.65,5.17-2.84,4.52-5.39,8.93-7.84,13.64,1.03,4.11,1.97,7.7,2.96,11.06,5.83.01,11.67-.02,17.5-.02Z"/>
              <path class="cls-16" d="M210.86,288.63c3.1-7.77,7.7-17.35,8.6-22.59.6-3.45-2.03-3.09-3.92-1.18-.09.09-.53,1.62-.98,2.35-3.8,6.18-6.82,13.68-9.44,21.39,1.91,0,3.83,0,5.74.02Z"/>
              <path class="cls-28" d="M210.15,258.76c-5.06,2.72-11.81,7.78-17.65,5.17.92-1.46,1.36-2.28,2.45-3.76,2.4,1.44,13.79-5.56,14.46-5.17.59.82.45,3.12.74,3.76Z"/>
              <path class="cls-27" d="M226.53,288.98c4.75.18,9.49.4,14.23.66,2.52-6.48,4.91-13.01,7.13-19.6-1.46-3.77-4.84-8.53-8.33-10.82-3.75,1.17-8.06-.22-11.76-.71.7.04,2.25-.68,2.45-.71-1.22-.11-4.51-.99-5.39-.94-.29,3.21-3.5,5.44-2.94,8.7l4.61,23.41Z"/>
              <path class="cls-28" d="M226.53,288.98l-4.61-23.41c-.56-3.26,2.66-5.5,2.94-8.7-2.27.13-4.78,4.76-4.9,6.82-.2,3.34,4.57,19.49,5.76,25.26.27,0,.54.02.81.03Z"/>
              <path class="cls-28" d="M239.56,259.23c-3.75,1.17-8.06-.22-11.76-.71.7.04,2.25-.68,2.45-.71.73-.1,6.52-.52,6.86-.47,1.31.19,1.92,1.53,2.45,1.88Z"/>
              <path class="cls-1" d="M215.54,264.87c-.09.09-.53,1.62-.98,2.35l-1.47-3.76c.64.53,2.01.6,2.45,1.41Z"/>
            </g>
          </g>
        </g>
      </g>
      <path class="cls-18" d="M310.32,95.26c-1.25,3.72-7.07,3.08-9.8.25-2.73-2.83-4.04-6.89-7.12-9.34,6.81-11.25,13.63-22.5,20.44-33.75.6-1,1.28-2.05,2.35-2.5,1.52-.63,3.22.18,4.67.97,12.76,7.01,25.51,14.01,38.27,21.02-3.97,8.92-7.94,17.84-11.92,26.76-3.7,8.31-7.27,22.25-18.68,18.22-6.58-2.33-21.2-12.77-18.22-21.63Z"/>
      <path class="cls-14" d="M220.15,65.4c-.5-2.81-1-5.61-1.5-8.42-.33-1.84-31.03-2.6-26.7,13.13,2.29-.45,28.1-5.3,28.2-4.71Z"/>
      <path class="cls-18" d="M92.94,56.59c-11.38,15.65-34.86,19.34-44.92,35.88,8.98,13.78,18.93,26.93,29.77,39.31,2.9-6.6,7.01-12.67,12.06-17.8,1.01-1.03,2.1-2.08,2.58-3.44.55-1.59.19-3.32-.14-4.97-2.17-10.96-2.45-22.29-.81-33.33-.39,2.62,13.95,5.15,15.02.8.83-3.38-11.33-13.91-13.56-16.43Z"/>
      <path class="cls-18" d="M200.01,52.37c1.7-.24,3.55-.55,4.71-1.81,10.83-11.81,22.9-22.48,35.96-31.77-11.7-5.22-22.93-11.49-33.5-18.72-9.05,10.44-18.2,20.95-29.22,29.29-7.43,5.62-20.25,11.77-7.68,18.66,9.9,5.43,18.75,5.9,29.74,4.36Z"/>
      <path class="cls-9" d="M247.54,229.28c1.18.44,2.36.88,3.54,1.32,1.01-.75,2.02-1.5,3.02-2.24-1.83-1.71-5.32-1.22-6.57.93Z"/>
      <path class="cls-22" d="M162,169.25c-7.29,8.16-19.58,11.86-30.42,9.15-10.84-2.71-19.69-11.69-21.91-22.23-.59-2.81-.16-6.56,2.72-7.33-10.7,10.86-23.44,22.56-39,21.98-9.37-.35-18.03-5.34-24.46-11.88-8.96-9.11-14.29-22.61-9.89-34.4,4.4-11.79,20.86-19.01,31.53-11.8,1.81,1.22,3.46,2.93,3.75,5.03.72,5.1-6.26,7.79-11.61,7.62-21.54-.68-40.44-20.28-39.46-40.95.35-7.35,2.87-14.52,6.65-20.93,9.21-15.6,26.24-26.71,44.74-29.2,18.5-2.49,38.06,3.71,51.38,16.28.66-18.18,10.94-37.29,28.88-43.2,16.07-5.3,33.73.96,48.53,8.96,5.81,3.14,11.86,6.67,18.52,6.52,10.67-.23,18.37-9.49,27.7-14.45,10.85-5.77,28.57-9.78,40.47-6.39,11.9,3.39,18.32,13.88,28.88,20.14,2.71,1.6,5.53,3.32,7.06,6,3.83,6.71-2.97,15.08-10.66,17.14-1.45.39-3.29.51-4.16-.66-.82-1.12-.21-2.67.55-3.83,7.19-11.12,24.33-13.22,36.46-7.24,12.14,5.98,19.89,17.9,24.88,30.09,2.16,5.27,3.87,11.35,1.27,16.43-2.6,5.08-11.44,6.9-14.18,1.89,11.37-4.05,25.16,1,31.73,10.78,6.57,9.78,5.98,23.22-.51,33.05-6.49,9.83-18.26,15.96-30.34,16.95-1.77.14-3.66.16-5.16-.75-1.85-1.13-2.59-3.34-3.17-5.37-1.3-4.53-2.52-9.08-3.67-13.64,4.79,8.61,7.19,18.44,6.87,28.19-.22,6.65-2.08,13.88-7.7,17.78-8.31,5.76-20.49,1.16-27.17-6.3s-10.01-17.13-15.83-25.22c-.21,10.79-2.48,21.54-6.64,31.56-1.7,4.09-3.93,8.28-7.88,10.51-7.25,4.09-17.03-.62-21.25-7.6-1.91-3.15-3.05-6.72-3.33-10.36"/>
      <path class="cls-22" d="M159.22,57.26c-.52.1-1.06.21-1.44.56-.5.44-.6,1.15-.67,1.8-1.8,16.52-.66,33.33,3.35,49.49,21.46-4.28,43.45-6.08,65.35-5.37-2.2-17.21-4.41-34.42-6.61-51.63.95,4.91-7.36,2.15-10.61,1.96-5.5-.32-11.02-.42-16.53-.29-11.02.26-22.02,1.42-32.84,3.49Z"/>
      <path class="cls-22" d="M251.84,36.42c9.8,5.94,20.97,9.77,32.47,11.14,4.64.55,9.82.91,13.02,4.19-9.74,18.53-19.48,37.06-29.22,55.59-.95,1.81-25.87-7.05-28.38-7.98-6.38-2.39-20.87-5.57-19.63-13.39,1.28-8.09,9.86-18.38,14.28-25.28,5.37-8.38,11.19-16.48,17.46-24.26Z"/>
      <path class="cls-22" d="M153.92,135.99c-17.41.13-34.81.92-52.16,2.36-5.67-20.89-8.97-42.38-9.82-63.95,10.71-.78,21.43-1.43,32.16-1.94,9.06-.43,19.39-1.99,28.29-.81-1.74,1.52-4.24,2.84-4.89,5.18-1.32,4.76,2.69,14.45,3.43,19.47.48,3.26,4.06,39.69,2.99,39.69Z"/>
      <path class="cls-22" d="M315.23,108.04c.38-1.24-1.52-2.42-2.54-1.57,7.21,4.73,14.42,9.47,21.63,14.2,8.71-15.76,17.41-31.52,26.12-47.29.52-.95,1.07-1.99.87-3.05-.28-1.57-1.99-2.45-3.5-3.1-12.52-5.43-25.04-10.86-37.55-16.29-10.41,11.27-19.44,23.72-26.82,37.02,2.31,2.23,5.94,7.52,9.1,8.5,1.57.49,9.19-.43,9.99-1.67-1.43,2.19-.39,5.03.64,7.42,6.09,14.09,11.1,28.61,14.97,43.41-16.12,7.25-32.96,13-50.23,17.16-1.55.37-3.23.73-4.71.14-1.27-.5-2.16-1.61-2.96-2.68-5.15-6.83-9.72-14.07-13.65-21.61-1.79-3.44-11.42-19.22-8.99-22.65,1.25-1.76,4.4-.73,6.25-.83,4.2-.22,7.1-1.22,11.03-2.79,9.67-3.85,19.35-7.7,29.02-11.56,2.88-1.15,5.77-2.3,8.71-3.32"/>
      <path class="cls-22" d="M159.44,45.51c15.29-14.47,31.15-28.38,47.53-41.71,11.29,11.19,29.9,12.23,42.75,21.75-1.82-1.35-20.98,11.57-23.33,13.05-7.49,4.69-14.33,10.62-22.05,14.91-13.68,7.6-31.2-4.65-44.89-8Z"/>
      <path class="cls-22" d="M95.7,109.82c-6.66,6.88-13.32,13.76-19.98,20.64-9.25-10.47-18.51-20.94-27.76-31.41,14.32-14.96,30.1-28.63,47.07-40.77,3.5,5.41,7.85,10.31,12.86,14.48-1.03-.92-2.05-1.84-3.08-2.75"/>
      <path class="cls-22" d="M178.17,104.92c.48-.19-.28-.9-.65-.55s-.2.94,0,1.4c4.04,9.56,8.75,18.85,14.09,27.8,16.61-9.07,33.95-16.9,51.82-23.38-2.06-6.13-5.58-11.79-10.22-16.44"/>
      <path class="cls-22" d="M263.48,42.16c-2.43-4.39-4.85-8.78-7.28-13.17,13.51-5.58,27.23-10.67,41.13-15.28,7.49,15.58,16.55,30.47,27.01,44.38-11.6,6.89-24.98,11-38.59,11.84.49.53,1.57.28,1.75-.4"/>
      <path class="cls-22" d="M286.72,138.88c6.31-5.06,14.86-6.62,22-10.53.32-.17.66-.38.79-.71.14-.37-.02-.78-.17-1.14-2.89-6.65-5.79-13.31-8.68-19.96-4.66,2.17-20.09,6.16-22.07,10.76-1.46,3.4,9.25,20.69,8.13,21.58Z"/>
      <path class="cls-22" d="M270.28,56.28c.83-.25.48-1.49-.14-2.08-2.9-2.78-7.94-2.53-11.34-.34-3.4,2.2-5.44,5.87-6.85,9.56-.99,2.59-1.74,5.51-.6,8.04,1.11,2.46,3.81,3.98,6.56,4.46s5.57.09,8.33-.3c-.62.04-1.25.07-1.87.11"/>
      <path class="cls-22" d="M247.34,56.99c5.19,2.9,10.78,5.15,16.58,6.66"/>
      <path class="cls-22" d="M245.54,62.36c3.84.6,7.56,1.93,10.87,3.89"/>
      <path class="cls-22" d="M242.68,80.02c5.86,1.27,11.73,2.53,17.59,3.8-.96-.12-1.91-.24-2.87-.35"/>
      <path class="cls-22" d="M234.45,82.42c.31-.32-.68-.41-.61.02s.64.56,1.09.6c9.79.8,19.37,3.92,27.66,9"/>
      <path class="cls-22" d="M99.83,83.3c6.65-1.03,13.4-1.44,20.13-1.22-.43.26-.86.52-1.29.78"/>
      <path class="cls-22" d="M101.34,92.57c8.25-.74,16.5-1.48,24.75-2.22"/>
      <path class="cls-22" d="M102.01,100.11c.05.17-.34.11-.29-.07s.27-.23.46-.26c6.8-.79,13.61-1.58,20.41-2.38-.48.38-.97.76-1.45,1.14"/>
      <path class="cls-22" d="M122.21,124.58c5.75-2.32,12.26-2.89,18.35-1.61-.41-4.24-1.15-8.44-2.22-12.57-.14-.53-16.2.96-17.21,2.12-1.66,1.9.77,9.39,1.08,12.05Z"/>
      <path class="cls-22" d="M123.49,116.42c1.18,1.97,2.89,3.66,4.91,4.84,2.9-6.5,6.12-12.85,9.67-19.05-.35.52-.71,1.04-1.06,1.57"/>
      <path class="cls-22" d="M205.83,11.22c-.32-.31-.9.18-.79.61s.56.67.96.87c7.79,3.76,15.59,7.52,23.38,11.27"/>
      <path class="cls-22" d="M171.28,40.92c.09-.33-.64-.1-.46.19s.64.22.96.06.66-.38.99-.26c8.85,3.17,17.7,6.35,26.55,9.52-.29.19-.58.39-.87.58"/>
      <path class="cls-22" d="M174.15,35.84c11.32,4.08,22.77,7.8,34.34,11.18-.87.2-1.74.41-2.61.61"/>
      <path class="cls-22" d="M181.46,32.14c1.75,1.38,3.92,2.15,6.06,2.88,8.64,2.95,17.39,5.58,26.24,7.89-.64,0-1.28.01-1.93.02"/>
      <path class="cls-22" d="M185.58,27.67c9.49,3.4,18.86,7.09,28.11,11.05-.79.13-1.57.26-2.36.4"/>
      <path class="cls-22" d="M190.46,22.13c-.21-.2-.57.13-.49.4s.37.41.64.53c10.68,4.57,21.35,9.15,32.03,13.72-.63.13-1.27.26-1.9.38"/>
      <path class="cls-22" d="M196.2,17.7c9.03,4.84,18.37,9.13,27.96,12.85-.47,0-.95,0-1.42,0"/>
      <path class="cls-22" d="M190.28,52.49c1.35,5.61,2.02,11.38,2,17.14,3.97-2.69,9.26-2.39,14.12-2.17,5.13.24,10.28.28,15.41.12-.52-.45-1.04-.9-1.55-1.35"/>
      <path class="cls-22" d="M93.29,66.25c-.2-.37-.86-.36-1.05.01,2.29,2.12,4.58,4.24,6.86,6.35"/>
      <path class="cls-22" d="M87.94,68.13c2.09,1.08,3.94,2.6,5.38,4.42.31.39-.17,1.22-.3.75"/>
      <path class="cls-22" d="M85.16,72.66c2.85,2.3,5.32,5.02,7.3,8.04.74-.3.35-1.64-.44-1.53"/>
      <path class="cls-22" d="M81.48,76.7c3.44,3.67,6.88,7.34,10.32,11.01"/>
      <path class="cls-22" d="M76.48,81.07c5.75,6.33,11.88,12.33,18.35,17.98-.38-.59-1.46-.56-1.8.06"/>
      <path class="cls-22" d="M71.97,84.87c6.64,6.77,13.28,13.54,19.91,20.32-.65,0-1.3.02-1.95.02"/>
      <path class="cls-22" d="M66.83,87.4c7.87,6.34,14.86,13.68,20.75,21.76.19-.56-.47-1.19-1.05-1"/>
      <path class="cls-22" d="M64.62,91.94c5.45,3.86,8.69,9.85,12.7,15.09.21.27.53.58.86.47s.02-.76-.19-.49"/>
      <path class="cls-22" d="M287.65,122.35c2.53,2.03,5.3,4.16,8.6,4.38.39-8.09.92-16.17,1.59-24.25-.21.31-.42.63-.64.94"/>
      <path class="cls-22" d="M179.5,115.84c4.61,9.84,9.49,19.57,14.63,29.17.23-.36.48-.79.33-1.19s-.89-.51-.97-.09c16.78-9.07,32.8-19.43,47.84-30.97-.14,1.57-1.15,3.04-2.6,3.79"/>
      <path class="cls-22" d="M325.96,63.78c6.77,1.94,13.14,5.14,18.65,9.37-.62.27-1.41.14-1.91-.3"/>
      <path class="cls-22" d="M322.73,67.23c1.97,3.05,5.89,4.24,9.28,5.77,4.97,2.23,9.37,5.63,12.71,9.81"/>
      <path class="cls-22" d="M320.85,76.66c-.68-.1-1.3-.46-1.72-.98,6.46,1.03,12.71,3.22,18.33,6.43-.42-.06-.83-.13-1.25-.19"/>
      <path class="cls-22" d="M273.8,34.42c6.17-3.06,12.82-5.24,19.66-6.44-.57.22-1.06.63-1.35,1.15"/>
      <path class="cls-22" d="M283.54,36c3.99-1.87,8.17-3.36,12.46-4.46.22-.06.51-.1.65.08s-.22.47-.29.26"/>
      <path class="cls-22" d="M285.29,42.17c5.28-1.02,10.49-2.36,15.59-4.02-.62-.13-1.24-.26-1.86-.39"/>
      <path class="cls-22" d="M295.58,44.37c2.99-.42,5.95-1.07,8.83-1.96-.47.01-.93.02-1.4.04"/>
      <path class="cls-22" d="M296.07,58.62c-.66.19-1.31.37-1.97.56,4.77-1.35,9.54-2.7,14.31-4.04"/>
      <path class="cls-22" d="M320.85,89.05c-.82.05-1.65.1-2.47.14,2.21-1.41,4.42-2.83,6.63-4.24-.77,1.42-1.55,2.83-2.32,4.25,1.87.47,3.9.33,5.68-.39-1.09,3.87-2.18,7.74-3.27,11.6,3.01-2.01,5.6-4.59,7.58-7.55-.03,2.67-.06,5.34-.09,8.01.96-1.35,1.92-2.7,2.88-4.05.12.41.21.91-.12,1.2s-.98-.28-.6-.49"/>
      <path class="cls-22" d="M126.76,64.3c9.48-.81,18.99-1.21,28.5-1.19.35-10.9-.02-21.82-1.1-32.67.05.53-25.2-.2-28.09,3.61-4.97,6.56-1.12,23.13.68,30.25Z"/>
      <path class="cls-22" d="M144.74,38.81c-2.97-3.21-8.99-2.78-11.75.59-2.76,3.38-2.02,8.75,1.28,11.65,3.3,2.9,8.59,3.25,12.52,1.2-.28-.42-.55-.85-.83-1.27"/>
      <path class="cls-22" d="M129.07,43.39c4.28.02,8.56.03,12.83.05-.34.38-.91.56-1.42.43"/>
      <path class="cls-22" d="M129.57,49.13c2.34-.97,4.89-1.47,7.43-1.45"/>
      <path class="cls-22" d="M171.55,188.95c-1.73-.31-2.32,2.15-2.08,3.82,2.97,20.65,11.48,40.54,24.5,57.22.59.75,1.21,1.52,2.09,1.94,1.06.51,2.31.41,3.49.3,7.27-.65,14.53-1.31,21.8-1.96,1.82-.16,3.7-.35,5.29-1.2,1.61-.87,2.75-2.33,3.83-3.77,10.97-14.71,19.31-31.22,24.57-48.6.93-3.07,1.33-7.19-1.62-8.67.85-.31,1.49,1.23.65,1.56"/>
      <path class="cls-22" d="M195.69,233.97c.04.34-.66.1-.52-.22s.58-.35.94-.34c9.98.4,19.97.79,29.95,1.19-3.68-1.88-7.52-3.5-11.53-4.58-.67-.18-1.4-.35-2.06-.12-1.35.47-1.63,2.24-2.79,3.04-1.22.84-2.94.33-4.19-.47s-2.36-1.88-3.81-2.23c-2.55-.61-5.33,1.85-4.9,4.34,7.93,2.29,16.38,2.93,24.59,1.87.1-.32.2-.65.3-.97"/>
      <path class="cls-22" d="M254.34,189.66c-.02-1.35-.08-2.8-.94-3.86-.86-1.06-2.84-1.35-3.57-.2-.29.46-.32,1.04-.31,1.58.13,5.21,3.15,10.28,7.77,13.02,2.8-12.6,1.18-26.07-4.54-37.73-.69-1.41-1.56-2.91-3.07-3.51-2.65-1.06-5.39,1.19-7.32,3.23-1.69,1.8-3.43,3.67-4.17,5.98s-.17,5.2,1.98,6.47c2.86,1.7,6.55-.24,8.97-2.47,1.74-1.6,3.37-3.55,3.58-5.85.39-4.18-3.91-7.34-8-8.83-10.65-3.87-23.33-2.08-32.36,4.57,5.8,1.71,12.52.11,16.81-4-12.16-6.44-27.46-3.84-40.1,1.67-8.61,3.75-16.62,8.75-23.68,14.78,1.41,1.14,2.81,2.28,4.22,3.42-8.28-3.64-15.01-10.4-18.42-18.5,4.21-1.56,9.4-.18,12.16,3.25"/>
      <path class="cls-22" d="M180.11,183.19c-1.25-.44-2.62-.57-3.94-.36,3.44,4.72,9.11,7.86,15.08,8.37,5.97.5,12.13-1.64,16.37-5.71-4.21-1.95-7.65-5.41-9.47-9.55,13.25.38,26.48,1.5,39.6,3.37-4.78,1.32-9.46,2.98-13.99,4.96,3.03,4.44,8.27,7.41,13.79,7.83s11.18-1.72,14.9-5.64c-.44.4-.88.79-1.32,1.19"/>
      <path class="cls-22" d="M204.72,208.01c-.43,1.24-.78,2.64-.17,3.8.71,1.35,2.41,1.85,3.94,2.21,6.78,1.57,13.66,2.72,20.59,3.46-.94-5.55-2.16-11.06-3.66-16.5-1.17-4.25-4.87-18.28-11.13-12.82-2.07,1.81-2.73,6.42-3.95,8.82-1.9,3.72-4.24,7.05-5.62,11.03Z"/>
      <path class="cls-22" d="M167.73,193.18l1.57-10.28c2.77,8.02,3.95,16.55,3.46,24.98-.14,2.48-.61,5.27-2.73,6.7-6.03-2.49-10.81-7.07-15.23-11.71-5.06-5.32-10.11-11.49-10.28-18.69-.11-4.61,1.97-9.23,5.53-12.32,1.67-1.44,3.85-2.61,6.07-2.27,2.22.34,4.09,2.77,3.09,4.7-.49.21-.99.42-1.48.62"/>
      <path class="cls-22" d="M251.49,206.99l-1.09-.53c1.19,1.39,2.41,2.81,4.04,3.7,1.63.89,3.77,1.15,5.34.17,1.01-.63,1.65-1.66,2.21-2.68,1.29-2.34,2.36-4.78,3.33-7.26,3-7.67,5.12-15.66,6.29-23.77.06-.44.09-.96-.27-1.24s-1.05.21-.72.52c.58.12,1.19-.42,1.11-.98s-.82-.93-1.34-.67c-.02,0-.03.02-.05.02"/>
      <path class="cls-22" d="M176.17,216.88c-1.27-.38-2.55-.75-3.82-1.13,1.75,19.29,5.52,38.4,11.23,56.97.49,1.61,1.83,3.61,3.42,2.94,1.06-.45,1.24-1.77,1.43-2.87.73-4.4,3.65-8.14,6.51-11.65,3.5-4.31,7.04-8.58,10.59-12.86-1.44,1.62-2.89,3.24-4.33,4.86,1.18-.9,2.37-1.81,3.55-2.71-.45.57-.9,1.14-1.35,1.71"/>
      <path class="cls-22" d="M187.05,285.68c-5.24-17.85-8.17-35.47-13.06-53.08,0,0-.98-.98-2.17-1.36.89,1.28,3.49,1.68,0,0,.89,1.28,2.3,2.11,3.84,2.3"/>
      <path class="cls-22" d="M226.98,246.63c8.16,7.93,16.32,15.87,24.48,23.8,5.53-16.19,3.7-34.58-4.77-49.43,9.49.85,13.4,11.61,11.45,20.42-3.91,15.66-9.79,31.31-15.56,45.56"/>
      <path class="cls-22" d="M169.33,216.54c-.24.41.74-.57.74-.57l.98.98c-3.91,21.53-7.83,41.1-15.51,60.54,8.66-1.42,17.75-.17,25.69,3.57-2.92,1.6-5.83,3.21-8.74,4.84"/>
      <path class="cls-22" d="M250.98,220.76l-2.28-1.95c8.15,8.77,15.36,18.42,21.44,28.74,3,5.09,5.72,10.33,8.15,15.71,2,4.43,6.76,11.25.59,13.99s-13.86,4.35-20.72,5.65c6.46,1.48,12.76,3.61,18.79,6.36"/>
      <path class="cls-22" d="M254.94,225.73c19.84,11.76,38.43,22.53,56.04,37.21.98.98.98,1.96.98,2.94,0,0-.98-.98-.65-.98,4.44,7.52.12.5,0,0,4.44,7.52,6.33,16.15,8.35,24.55.27,1.13.58,2.01,1.7,1.72-.17-7.55.49-15.11,1.96-22.51,1.78,5.62,4.91,12.33,10.81,12.49,2.55.07,4.91-1.21,7.28-2.16,8.91-3.59,18.89-2.72,28.48-2.17,24.65,1.41,49.44.3,73.87-3.3-3.53-.22-7.06-.45-10.58-.67.71.83,1.42,1.66,2.13,2.5"/>
      <path class="cls-22" d="M164.8,229.54c.37.13,1.35.13,1.35.13,0,.98-.98,1.96-.98,1.96-17.61,5.87-31.31,18.59-45.99,28.38-10.76,0-10.76,11.74-14.03,19.1-2.06,4.64-4.38,10.11-9.4,10.89s-10.35-2.7-11.65-7.62c5.09-1.79,10.51-2.61,15.9-2.41-12.24,3.81-25.38.61-38.05-1.25-20.48-3.01-41.48-2.45-61.77,1.65,6.69-2.56,13.6-4.55,20.63-5.93-1.09.15-2.17.3-3.26.45"/>
      <path class="cls-22" d="M206.82,286.5c3.03-7.69,6.47-15.22,10.3-22.55,3.7,7.14,6.55,14.71,8.47,22.52"/>
      <path class="cls-22" d="M199.94,258.32l-1.25-.34c5.08-.18,10.13-.98,14.99-2.39-2.1.24-3.35,2.6-3.06,4.62.29,2.01,1.65,3.71,2.96,5.31.72.87,1.6,1.82,2.75,1.82.64,0,1.23-.31,1.78-.62,2.38-1.31,4.7-2.73,6.94-4.26-1.05-1.71-1.85-3.56-2.39-5.48,3.84,1.98,8.69,2.03,12.57.13"/>
    </g>
  </g>
</svg>