<?xml version="1.0" encoding="UTF-8"?>
<svg id="Ebene_2" data-name="Ebene 2" xmlns="http://www.w3.org/2000/svg" xmlns:xlink="http://www.w3.org/1999/xlink" viewBox="0 0 390.1 330.26">
  <defs>
    <style>
      .cls-1 {
        fill: #102b33;
      }

      .cls-2 {
        fill: #fdbf66;
      }

      .cls-3 {
        fill: #bdbdbd;
      }

      .cls-4 {
        fill: #d2d2d2;
      }

      .cls-5 {
        fill: #e8aa82;
      }

      .cls-6 {
        fill: #ff9e42;
      }

      .cls-7 {
        fill: #d09977;
      }

      .cls-8 {
        fill: #fddb8d;
      }

      .cls-9 {
        fill: #d5d4d5;
      }

      .cls-10 {
        fill: #f8933a;
      }

      .cls-11 {
        fill: #a5a3a1;
      }

      .cls-12 {
        fill: #95918f;
      }

      .cls-13 {
        fill: #744110;
      }

      .cls-14 {
        fill: #ffb586;
      }

      .cls-15 {
        fill: #e29720;
      }

      .cls-16 {
        fill: #275e72;
      }

      .cls-17 {
        fill: #a4e4f7;
      }

      .cls-18 {
        fill: #cb881b;
      }

      .cls-19 {
        fill: #e7e7e7;
      }

      .cls-20 {
        fill: #f8cfb2;
      }

      .cls-21 {
        fill: #fff;
      }

      .cls-22 {
        fill: #ffcf9c;
      }

      .cls-23 {
        fill: #d89d72;
      }

      .cls-24 {
        fill: none;
        stroke: #000;
        stroke-miterlimit: 10;
      }

      .cls-25 {
        fill: #feba29;
      }

      .cls-26 {
        fill: #da8010;
      }

      .cls-27 {
        fill: #ba7e60;
      }

      .cls-28 {
        fill: url(#Unbenannter_Verlauf_377);
      }

      .cls-29 {
        fill: url(#Unbenannter_Verlauf_397);
      }

      .cls-30 {
        fill: #ffb359;
      }

      .cls-31 {
        fill: #a8a8a8;
      }

      .cls-32 {
        fill: #b7b4b4;
      }

      .cls-33 {
        fill: #854f1d;
      }
    </style>
    <linearGradient id="Unbenannter_Verlauf_377" data-name="Unbenannter Verlauf 377" x1="82.98" y1="224.02" x2="195.43" y2="317.46" gradientUnits="userSpaceOnUse">
      <stop offset="0" stop-color="#feba29"/>
      <stop offset="1" stop-color="#e29720"/>
    </linearGradient>
    <linearGradient id="Unbenannter_Verlauf_397" data-name="Unbenannter Verlauf 397" x1="116.42" y1="69.57" x2="386.96" y2="69.57" gradientUnits="userSpaceOnUse">
      <stop offset="0" stop-color="#ffb586"/>
      <stop offset="1" stop-color="#d89d72"/>
    </linearGradient>
  </defs>
  <g id="versicherungen">
    <g>
      <path class="cls-17" d="M74.95,137.02c52.79,2.78,105.72,5.58,157.85,14.55,52.13,8.96,40.74-12.9,86.81,13.57-86.58-12.46-110.44,12.24-197.84,9.74-31.26-.89-63.4-.35-92.47,11.43,23.87,6.62,48.68,8.64,73.28,11.21,113.5,11.85,157.65,21.6,269.31,45.47-66.97-20.66-70.33-6.4-140.25-8.53-63-1.92-125.95-5.77-188.72-11.56,114.14-28.6,233.12-32.77,347.19-61.64-39.87-18.17-86.1-16.59-126.47-33.56,10.53-.9,40.35,9.46,48.35,2.41,2.68-2.36-33.66-7.54-33.22-11.12.73-5.93,14.88-23.18,10.23-26.8-6.08-4.75-23.21,8.2-29.29,3.45,0,0-258.97,41.63-184.76,41.39Z"/>
      <path class="cls-25" d="M231.88,273.85c8.92-20.26,20.95-39.08,35.53-55.57,5.43,13.25,14.43,24.95,25.76,33.47-6.91-1.73-14.65.66-19.46,6.01,5.34.22,10.54,2.76,14.06,6.85,6.32,7.35,7.82,19.58,16.75,23.11-22.17,14.78-51.26,18.16-76.12,8.85,2.05-11.73,4.93-23.32,8.6-34.63"/>
      <path class="cls-18" d="M282.67,223.5c-6.55,8.03-14.89,14.52-24.21,18.83.06-1.56,1.25-3,2.75-3.33-5.7,13.19-11.39,26.39-17.09,39.58,1.68-3.15,3.08-6.46,4.16-9.88-2.31,20.52-4.63,41.04-6.94,61.57-5.49-25.08-5.55-51.38-.2-76.49,1.12-5.23,2.5-10.5,5.26-15.06,4.1-6.78,11.16-11.87,13.09-19.59.86,1.36.2,3.44-1.27,4.03"/>
      <path class="cls-28" d="M134.65,220.59c-12.67,6.26-26.06,11.01-39.8,14.13,12.18,5.41,22.32,15.48,27.96,27.77-4.97-10.8-16.44-18.12-28.12-17.93,6.89,4.71,12.02,12.03,14.19,20.2-14.71-1.75-29.46,11.28-29.88,26.4-.03,1.14.01,2.31.41,3.37.56,1.51,1.78,2.66,3.02,3.66,11.48,9.17,27.43,8.91,41.99,8.23,20.95-.98,41.9-1.97,62.86-2.95.24-17.96-.03-35.93-.8-53.87-.11-2.66-.25-5.36-1.02-7.91-1.05-3.48-3.24-6.48-5.45-9.34-3.75-4.86-7.82-9.69-13.15-12.62s-12.23-3.65-17.32-.28c.97-.09,1.94-.17,2.9-.26"/>
      <path class="cls-29" d="M386.96,84.49c-.17,1.4-1.4,2.59-2.78,2.69,6.43,3.35-15.66,4.66-31.83-2.44,16.29,24.39,32.7,35.2,14.08,25.94-3.06-1.52-6.47-3.64-6.84-7.09.91-.6,1.82-1.21,2.73-1.81-11.98,7.41-24.33,14.97-38.15,17.3-8.63,1.46-17.47.8-26.15-.32-28.45-3.66-55.09-.69-80.78-13.69-6.52-3.3-14.74-19.21-16.45-26.44-1.4-5.95.73-13.64-4.08-17.29,25.77,1.55,51.36,6.05,76.16,13.39-52-14.05-109.06-11.36-156.45-37.36,32.49-12.76,67.44-18.95,102.24-18.09,7.48.18,15.03.7,22.23,2.8,5.51,1.6,10.72,4.1,16.1,6.13,13.28,5.02,27.42,7.15,41.13,10.74,29.96,7.84,57.69,22.57,85.11,37.17"/>
      <g id="Generatives_Objekt" data-name="Generatives Objekt">
        <path class="cls-21" d="M66.27,256.81c1.75-1.29.52,1.65,0,1.37-.36-.19-.36-1.11,0-1.37Z"/>
        <path class="cls-21" d="M65.82,254.98c.41.55.49,1.4-.45,1.37-.39-.01.32-1.08.45-1.37Z"/>
        <g>
          <path class="cls-21" d="M96.11,225.19c9.34,3.63,17.2,17.67,21.09,26.58,2.41,5.52,3.77,11.48,6.28,16.95-.15,1.42.1,2.92,0,4.35-.77.85-1.24-.62-1.35-.69-4.53-8.59-10.57-17.99-18.4-23.83-2.48-1.85-9.71-6.38-12.34-5.96-3.68.59-3.1,4.25-6.06,5.96,2.09-5.92,3.41-12.6,5.39-18.33.98-2.84.69-3.34,2.69-5.96.51.99,1.84.58,2.69.92Z"/>
          <path class="cls-21" d="M247.79,300.34c.5-14.49-1.18-22.34,1.8-37.12-.58,1.87,2,2.26,2.24,2.98.99,2.95-.79,27.45-1.8,31.16-.56,2.06-2.18,2.8-2.24,2.98Z"/>
          <path class="cls-9" d="M85.34,248.56c-.57,1.61-1.1,3.02-1.8,4.58-.52,1.17-1.44,2.27-1.35,3.67-4.97,9.66-8.73,19.98-13.91,29.56,1.05-6.62,4.11-12.75,6.28-19.02.18-.52.29-.85.45-1.37.04-.13-.02-.31,0-.46,1.18-.29.73-1.17.9-1.83,2.76-11.01,10.96-22.64,14.81-33.45-1.97,5.73-3.3,12.41-5.39,18.33Z"/>
          <path class="cls-32" d="M141.88,159.21h.45c.46,1.65,1.24,3.69,1.8,5.5l-11.67-1.6c-.24-1.13,8.16-3.66,9.42-3.89Z"/>
          <path class="cls-9" d="M98.58,277.89c1.18,2.75,1.48,33.54-1.8,32.53l1.8-32.53Z"/>
          <path class="cls-21" d="M82.2,256.81c-.09-1.39.82-2.5,1.35-3.67.4,1.63-.73,2.47-1.35,3.67Z"/>
          <path class="cls-21" d="M75.02,265.51c.09-.58.26-1.61.9-1.83-.17.66.28,1.54-.9,1.83Z"/>
          <path class="cls-21" d="M74.57,267.35l.45-1.37c-.15.52-.27.85-.45,1.37Z"/>
          <polygon class="cls-9" points="305.68 252.68 306.13 252.91 305.91 253.14 305.68 252.91 305.68 252.68"/>
          <g>
            <path class="cls-9" d="M305.68,252.68c-12.33-13.47-7.8,2.23-8.98,10.77l-15.71-43.3c.23-.42,1.2-2.75,1.35-3.21l23.34,35.74Z"/>
            <path class="cls-12" d="M258.11,231.15l-17.05,30.7c-3.3.27-6.58.26-9.87.46l21.54-32.08c1.55.41,3.78.82,5.39.92Z"/>
            <path class="cls-32" d="M248.24,164.7l-21.99.92c.55-2.2.83-4.65,1.35-6.87,6.99,1.6,13.93,3.34,20.64,5.96Z"/>
            <g>
              <path class="cls-14" d="M323.18,35.03c13.44,3.86,27.18,8.13,39.94,13.52l-1.12.69c-21.54-5.8-43.82-8.34-65.52-13.29-7.36-1.68-15.22-5.55-21.99-6.87-14.47-2.82-31.21-.5-45.77-2.29-6.72-.82-13.34-4.36-19.75-5.04-15.29-1.61-40.65,6.65-56.54,9.62-3.59.67-7.34,1.2-10.99,1.37,1.22-21.07,22.52-19.97,37.47-19.7,46.3.82,99.82,9.22,144.28,21.99Z"/>
              <path class="cls-14" d="M228.94,119.8c-1.8-6.69-4.22-13.69-7.63-19.7,16.94.85,30.93,13.91,47.79,15.58,20.01,1.98,30.31-4.36,47.57-7.33,15.35-2.65,33.92,13.11,47.34,19.47-.23,1.59-7.77.83-9.2.69-12.57-1.27-26.6-7.04-39.49-7.79-11.45-.66-23.06,2.7-34.55,3.21-17.39.77-34.72-1.43-51.83-4.12Z"/>
              <g>
                <path class="cls-14" d="M323.18,34.11v.92c-44.46-12.77-97.97-21.17-144.28-21.99-14.95-.27-36.25-1.37-37.47,19.7-.42,7.33,3.14,10.76,7.85,15.58,19.42-8.94,37.12-18.71,59.24-17.41,30.28,1.77,84.95,28.5,108.15,48.57,2.05,1.77,5.8,4.01,4.71,6.64-2.72,6.61-41.01,19.37-48.69,20.39-28.59,3.8-37.92-14.5-52.51-34.83l-4.71,19.7c-.22-.23-1.08-.67-1.35-.92-6-7.29-14.19-13.16-23.34-15.58-.14-.04-.31.04-.45,0-1.51-.37-1.7-.9-1.8-.92-.92-1.24-.17-2.83-.45-4.12-1.03-4.77-5.55-4.96-9.2-6.87-.43.32-.22,7.46-.22,8.71v1.83c-.09.01-.5,1.17-1.35,1.37-.67.16-1.08.23-1.8.46-5.26,1.68-8.72,3.32-13.46,6.42-24.43,2.97-53.37,5.67-71.35,24.52.24,1.26,17.42-2.49,19.52-2.98,11.18-2.58,35.21-9.36,44.65-15.12-2.47,3.3-6.63,6.47-7.63,10.54-.76.42-1.01.73-1.35.92-1.08.59-2.15,1.31-3.14,1.83-11.43,6.01-27.43,12.82-40.16,14.66-2.36.34-15.49-.43-14.14-7.33.01-.07,1.16-.43.9-1.15l-.9-.23c-6.36-.65-20.76,4.85-26.25,3.21-2.08-.62-2.72-4.59-2.92-6.42.86-1.49.38-3.79.45-5.5.04-1.08.61-4.34.45-4.81-1-2.94-12.81-.33-12.05-10.96,1.63-22.83,61.22-51.44,80.04-60.29,15.37-7.23,42.71-20.88,59.01-21.08.57,0,1.69.29,1.8-.46,5.96-1.09,16.57.26,22.66,1.37,33.76,6.18,77.85,21.37,111.52,31.62Z"/>
                <g>
                  <path class="cls-22" d="M145.92,99.64c-.56,1.16-1.59,2.13-2.24,3.21l-.9-1.37c1-.52,2.06-1.24,3.14-1.83Z"/>
                  <g>
                    <path class="cls-22" d="M59.31,104.22c-.16-1.46-.25-4.17.45-5.5-.06,1.71.41,4.01-.45,5.5Z"/>
                    <path class="cls-22" d="M88.48,108.8v-1.37l.9.23c.27.71-.87,1.08-.9,1.15Z"/>
                    <path class="cls-22" d="M189,1.12c-.11.75-1.23.45-1.8.46.13-.82,1.22-.35,1.8-.46Z"/>
                    <path class="cls-23" d="M148.84,48.77c10.91,9.27,23.93,5.39,36.8,4.12l.45.92c-1.95,4.65-6.87,7.91-11.22,10.08-16.41,8.19-37.87,8.42-55.65,12.37-19.85,4.41-38.98,12.86-59.01,16.27.17-3.34.57-11.76,3.81-13.52,4.48-2.42,22.39-4.71,28.72-6.42,20.26-5.44,38.18-12.61,56.1-23.83Z"/>
                  </g>
                </g>
              </g>
              <path class="cls-23" d="M162.08,81.77c-2.3,1.5-4.89,5.02-7.18,6.42-9.44,5.76-33.47,12.54-44.65,15.12-2.1.49-19.28,4.23-19.52,2.98,17.99-18.85,46.92-21.54,71.35-24.52Z"/>
            </g>
            <path class="cls-21" d="M246.89,227.48l-20.19,35.28c-2.14.1-4.89-.1-6.73,0,5.28-9.28,10.39-18.7,15.71-27.95,2.03-3.54,4.27-6.99,6.28-10.54.96.84,3.73,2.54,4.94,3.21Z"/>
            <path class="cls-32" d="M252.73,230.23l-21.54,32.08c-1.44.09-2.97.39-4.49.46l20.19-35.28c1.48.82,4.32,2.34,5.83,2.75Z"/>
            <g>
              <path class="cls-6" d="M158.94,203.2c.05.12-.2,1.28.45,2.52,6.42,12.27,35.61,8.16,47.12,8.25l-16.38,32.31c-10.26-10.39-18.51-23.26-29.62-32.53-.99-.42-2.39.4-2.92.46-9.37,1.09-24.03,12.95-30.07,20.16,4.6-10.83,8.63-25.95,14.81-35.74.07-.11-.07-.35,0-.46,2.36-3.6,6.81-6.39,10.32-8.71,1.8,4.52,4.18,9.33,6.28,13.75Z"/>
              <path class="cls-25" d="M142.33,198.61c-6.18,9.79-10.21,24.92-14.81,35.74-.05.06-.07.9-.45,1.37-1.47,1.84-2.71,2.95-4.04,5.04-2.28,3.58-3.77,7.33-5.83,11-3.89-8.9-11.75-22.95-21.09-26.58-.15-1.07.84-1.4,1.57-1.83,13.13-7.69,26.39-15.62,39.72-22.91.46-.25,1.12-.8,1.35-.92.98-.49,2.46-1,3.59-.92Z"/>
              <path class="cls-3" d="M257.21,195.41c-.07,1.83-1.68,6.29-2.69,7.56-2.75,3.43-9.86,3.79,0,6.19-1.15,1.18-1.01.22,0,1.15,3.3,3.03,8.73,5.35,10.32,9.85-3.61-1.04-22.83-10.78-24.01-10.08,1.95,7.67,15.7,16.51,22.89,14.21.72-.23,2.34-2.61,2.02-3.67,4.22,1.12,8.75,1.08,13.01,1.83-5.41,6.64-12.08,9.2-20.64,8.71-1.6-.09-3.83-.5-5.39-.92-1.52-.41-4.35-1.93-5.83-2.75-1.2-.66-3.97-2.37-4.94-3.21-2.15-1.88-3.61-4.66-5.39-6.87-.09-.96-.83-2.1-.9-2.75-.68-6.12-3.75-10.8,2.24-16.04,1.53-1.34,6.99-3.74,8.98-4.12-1.89,2.29-5.95,3.51-5.61,7.33,2.77-3.97,12.81-3.13,14.81-4.12.27-.14.62-1.64,1.12-2.29Z"/>
              <path class="cls-9" d="M160.28,216.94c7.23,8.12,24.85,25.26,29.62,33.45.76,1.31,1.03.89,1.35,2.75.81,4.77-.27,12.63-.45,17.64,2.14,1.53,3.23-12.64,3.59-13.52.74,1.29,1.18,3.01,1.8,4.12l-1.35,5.96c-5.54,7.44-.06,40.59,3.59,49.49l-6.06-22.91-7.85,15.81,3.59-55.45c-6.97-13.02-18.54-22.1-27.82-33.22-1.22-1.46-1.15-2.58-3.59-3.44l3.59-.69Z"/>
              <path class="cls-21" d="M274.72,193.11c5.21,4.25,8.33,10.15,8.53,16.95.08,2.88-.34,3.15-.9,5.5l-19.75-8.25c4.5-4.94,6.67-9.01,12.12-14.21Z"/>
              <path class="cls-31" d="M282.35,215.57c-.1.4.11,1.02,0,1.37-.14.46-1.11,2.79-1.35,3.21-.3.54-1.86,1.82-2.24,2.29-4.27-.75-8.79-.71-13.01-1.83-.39-.1-.5-.34-.9-.46-1.59-4.5-7.02-6.83-10.32-9.85-1.01-.92-1.15.04,0-1.15.88.21,2.81.95,3.59.92,2.85-.11,2.81-.91,4.49-2.75l19.75,8.25Z"/>
              <g>
                <path class="cls-6" d="M249.59,263.22c-2.98,14.77-1.3,22.63-1.8,37.12-.02.05-.22-.03-.45.92-.69,2.9.47,10.44-1.8,13.06-1.63,1.88-15.77,1.89-19.52,2.52-3.88.65-22.12,5.99-24.01,5.5-5.29-17.83-7.07-37.28-5.83-55.9.49-.41,1.83-1.66,2.24-1.83,1.31-.56,7.04-1.73,8.53-1.83l-2.02,4.58c2,1.1,26.28-1.46,30.07-2.29,1.5-.33,6.5-1.32,6.51-3.21,2.82-.23,5.55-.78,8.3-1.37.41.25-.13,2.26-.22,2.75Z"/>
                <path class="cls-10" d="M202.02,322.34c-1.36-.36-3.06-4.22-3.59-5.5-3.65-8.89-9.13-42.05-3.59-49.49.1-.14,1.1-.71,1.35-.92-1.24,18.63.55,38.08,5.83,55.9Z"/>
                <path class="cls-30" d="M241.06,261.85c.15-.01.3.01.45,0,0,1.88-5.01,2.88-6.51,3.21-3.79.83-28.06,3.39-30.07,2.29l2.02-4.58c4.03-.27,8.45.25,13.01,0,1.84-.1,4.59.1,6.73,0,1.52-.07,3.05-.37,4.49-.46,3.29-.19,6.58-.18,9.87-.46Z"/>
              </g>
              <path class="cls-12" d="M157.59,214.19c1.18.61,1.85,1.8,2.69,2.75l-3.59.69c2.44.85,2.37,1.98,3.59,3.44-2.58-3.32-6.74-1.19-10.1,0-8.35,2.96-15.75,9.91-23.11,14.66.38-.48.4-1.32.45-1.37,6.03-7.21,20.69-19.07,30.07-20.16Z"/>
              <path class="cls-9" d="M123.48,268.72c-2.51-5.48-3.87-11.44-6.28-16.95,2.07-3.67,3.56-7.42,5.83-11,.25,9.22,1.4,18.74.45,27.95Z"/>
              <path class="cls-9" d="M137.39,200.45c-13.33,7.29-26.58,15.22-39.72,22.91-.73.43-1.72.77-1.57,1.83-.86-.33-2.18.07-2.69-.92,2.56-3.33,30.92-18.77,36.57-21.54,2.22-1.09,4.87-2.25,7.4-2.29Z"/>
              <path class="cls-9" d="M122.14,272.39c-5.57-3.2-14.05-18.37-18.4-23.83,7.83,5.84,13.87,15.24,18.4,23.83Z"/>
              <path class="cls-9" d="M142.33,198.16c-.07.11.07.35,0,.46-1.13-.08-2.61.42-3.59.92.5-2.02,1.85-1.28,3.59-1.37Z"/>
              <path class="cls-21" d="M247.34,301.26c.22-.94.43-.87.45-.92-.02.44.16.93-.45.92Z"/>
              <polygon class="cls-21" points="64.47 256.81 64.69 257.04 64.47 257.27 64.47 256.81"/>
              <path class="cls-21" d="M142.33,159.21h-.45l.45-.46c.04.14-.04.32,0,.46Z"/>
              <path class="cls-25" d="M236.57,217.4c.54,5.66-1.41,11.73-.9,17.41-5.32,9.26-10.42,18.67-15.71,27.95-4.56.25-8.99-.27-13.01,0-1.49.1-7.22,1.28-8.53,1.83-.35-1.03-1.84-2.47-2.24-3.21-.61-1.11-1.06-2.83-1.8-4.12-.42-.74-1.12-2.42-1.35-2.75l26.03-38.03c4.02,4.71,6.12,8.82,8.98,14.21.53,1,1.05,1.36,1.12,2.75,1.18.77,5.96-17.37,6.51-18.79.07.65.81,1.79.9,2.75Z"/>
              <path class="cls-21" d="M198.43,264.6c-.41.17-1.75,1.42-2.24,1.83-.25.21-1.24.78-1.35.92l1.35-5.96c.41.74,1.9,2.18,2.24,3.21Z"/>
              <path class="cls-10" d="M223.56,189.91c6.93,12.06,5.93,27.31,4.49,40.78-2.86-5.39-4.95-9.49-8.98-14.21-1.28-1.5-2.21-3.33-3.81-4.58l-25.36,38.49c-4.77-8.19-22.39-25.34-29.62-33.45-.85-.95-1.51-2.14-2.69-2.75.52-.06,1.92-.88,2.92-.46,11.11,9.28,19.36,22.14,29.62,32.53l16.38-32.31c-11.51-.08-40.7,4.02-47.12-8.25-.65-1.24-.39-2.41-.45-2.52,1.4,3.13,4.21,5.43,7.63,5.96,5.37.83,31.82-3.27,37.7-5.04,7.93-2.39,12.6-8.48,15.71-16.04,1.22.52,2.36,1.35,3.59,1.83Z"/>
              <path class="cls-18" d="M237.92,197.7c-.07.24.03.62,0,.92-5.99,5.24-2.92,9.92-2.24,16.04-.54,1.42-5.33,19.56-6.51,18.79-.07-1.39-.59-1.75-1.12-2.75,1.44-13.47,2.44-28.72-4.49-40.78,5.42,2.13,10.27,2.99,14.36,7.79Z"/>
              <path class="cls-19" d="M264.84,220.15c.4.11.5.35.9.46.32,1.05-1.3,3.44-2.02,3.67-7.19,2.31-20.94-6.54-22.89-14.21,1.18-.7,20.4,9.04,24.01,10.08Z"/>
              <path class="cls-21" d="M258.11,194.49c-3.47-.8-7.75-.67-11.22,0-1.98.38-7.44,2.78-8.98,4.12.03-.29-.07-.68,0-.92.89-3.2,9.73-9.59,12.79-10.54,2.5-.77,7.54-.51,9.2-1.37,1.32,1.39-1.01,7.26-1.8,8.71Z"/>
              <path class="cls-4" d="M258.11,194.49c-.7,1.3-.83.82-.9.92-.51.65-.85,2.16-1.12,2.29-2,1-12.04.16-14.81,4.12-.34-3.82,3.72-5.04,5.61-7.33,3.47-.67,7.75-.8,11.22,0Z"/>
              <path class="cls-15" d="M241.96,224.27c-2.01,3.55-4.25,7-6.28,10.54-.51-5.69,1.44-11.75.9-17.41,1.78,2.21,3.23,4.99,5.39,6.87Z"/>
              <path class="cls-15" d="M219.07,216.48l-26.03,38.03c-.13-.2-1.43-1.13-1.8-1.37-.31-1.86-.58-1.44-1.35-2.75l25.36-38.49c1.6,1.26,2.53,3.08,3.81,4.58Z"/>
              <path class="cls-11" d="M193.04,254.52c.22.32.92,2.01,1.35,2.75-.36.88-1.45,15.04-3.59,13.52.18-5.01,1.25-12.88.45-17.64.37.25,1.66,1.18,1.8,1.37Z"/>
              <g>
                <path class="cls-20" d="M149.06,157.37c-.09,3.94,1.04,7.67,1.8,11.46.21,1.05.44.87.45.92.03.15-.03.31,0,.46.16.72.11,3.11.45,4.35,3.19,11.79,9.75,23.55,14.81,34.6-3.42-.53-6.23-2.83-7.63-5.96-2.1-4.41-4.48-9.23-6.28-13.75-3.15-7.91-6.04-16.59-8.53-24.74-.55-1.81-1.34-3.85-1.8-5.5-.04-.14.04-.32,0-.46-.07-.25.07-.66,0-.92,2.2-.19,4.54-.21,6.73-.46Z"/>
                <path class="cls-7" d="M228.49,155.08c-.27,1.22-.61,2.45-.9,3.67-.52,2.22-.79,4.67-1.35,6.87-1.7,6.79-3.69,16.15-6.28,22.45-3.11,7.56-7.78,13.65-15.71,16.04,11.18-13.91,17.55-31.62,19.3-49.49,1.63.13,3.44-.4,4.94.46Z"/>
                <g>
                  <path class="cls-25" d="M188.55,73.98c.1.02.29.54,1.8.92.41,13.42-1.32,27.14-.45,40.55.02.35.87.1.9.46.37,5.03-.28,10.21,1.35,15.12l1.35.46c.12-2-.91-5.38,1.35-6.19,1.52,1.16,32.63,8.79,36.8,9.62.14.03.3-.03.45,0l-79.66,9.16c-7.34,2.17-16.03,3.38-22.44,7.79-.8.55-1.38.36-.67,1.37-.83.2-1.78.33-2.47.92,1.19-3.05,5.7-4.81,8.3-6.87,5.16-4.09,9.91-10.64,13.91-13.75.37-.29.42-.44.45-.46,5.03-3.45,19.32-5.01,25.58-5.96.08,1.2.68,2.83.67,4.12l15.48-1.15c-3.1-3.57-8.44-3.14-12.57-2.75l-1.35-52.47c.85-.2,1.25-1.36,1.35-1.37,2.41-.34,7.41,0,9.87.46Z"/>
                  <path class="cls-8" d="M149.06,133.54c-4,3.11-8.75,9.66-13.91,13.75-3.12-15.06-.67-26.66,6.28-39.87l9.42-5.73c-5.15,11.02-9.14,23.17-8.75,35.51l6.96-3.67Z"/>
                  <path class="cls-2" d="M149.96,127.59c-.22,1.81-.49,3.66-.45,5.5-.03.02-.08.17-.45.46l-6.96,3.67c-.39-12.34,3.6-24.49,8.75-35.51l-9.42,5.73c.77-1.47,1.38-3.16,2.24-4.58.66-1.08,1.68-2.04,2.24-3.21.34-.18.58-.5,1.35-.92,1.03-.57,12.05-8.25,12.57-7.1-5.31,11.12-8.4,23.7-9.87,35.97Z"/>
                  <path class="cls-25" d="M243.3,136.75c4.15.58,9.93,1.68,13.24,4.12-8.49,1.79-17.03.06-25.36,0-30.42-.22-60.77,4.62-90.65,10.08-.17.03-.41-.17-1.35,0,3.57-2.69,9.63-3.75,14.14-4.58,23.69-4.35,59.02-9.02,82.8-10.54,2.45-.16,4.8.58,7.18.92Z"/>
                  <path class="cls-15" d="M236.12,135.84c-23.78,1.52-59.11,6.19-82.8,10.54-4.51.83-10.56,1.89-14.14,4.58-3.56.66-6.42,1.44-9.87,2.29-.71-1.02-.13-.82.67-1.37,6.41-4.41,15.1-5.62,22.44-7.79l79.66-9.16c1.23.23,3.03.27,4.04.92Z"/>
                  <path class="cls-15" d="M214.13,90.47c.26.25,1.13.68,1.35.92,1.13,1.2,4.89,7.04,5.83,8.71,3.41,6.01,5.83,13.01,7.63,19.7.57,2.14.91,4.25,1.35,6.42l-27.15-3.21-1.57-1.6-3.59-39.41c5.67,1.5,11.82,4.44,16.16,8.48Z"/>
                  <path class="cls-26" d="M214.13,90.47c-4.34-4.04-10.49-6.98-16.16-8.48l3.59,39.41,1.57,1.6,27.15,3.21c.11.55.31,1.08.45,1.83.42,2.27,1.05,4.52.9,6.87-4.17-.83-35.28-8.46-36.8-9.62-.11-.09-.73.2-.9-.23l-3.14-50.18c9.14,2.42,17.33,8.29,23.34,15.58Z"/>
                  <path class="cls-9" d="M243.3,136.75c-2.38-.34-4.73-1.07-7.18-.92-1.01-.65-2.81-.69-4.04-.92-.14-.03-.3.03-.45,0,.15-2.35-.48-4.61-.9-6.87l20.87,7.33c1.09,1.95-7.63-.06-8.3,1.37Z"/>
                  <path class="cls-15" d="M175.54,75.35v5.5l-4.04,41.93-21.54,4.81c1.47-12.27,4.56-24.85,9.87-35.97-.52-1.14-11.54,6.53-12.57,7.1,1-4.07,5.16-7.24,7.63-10.54,2.29-1.4,4.88-4.92,7.18-6.42,4.74-3.09,8.2-4.73,13.46-6.42Z"/>
                  <path class="cls-8" d="M177.33,74.89l1.35,52.47c4.13-.39,9.47-.82,12.57,2.75l-15.48,1.15c0-1.3-.59-2.93-.67-4.12-.93-13.82.45-31.89.45-46.28v-5.5c.72-.23,1.13-.3,1.8-.46Z"/>
                  <path class="cls-15" d="M194.84,125.3c-2.26.81-1.23,4.19-1.35,6.19l-1.35-.46c-1.63-4.91-.98-10.09-1.35-15.12-.03-.36-.87-.1-.9-.46-.87-13.41.86-27.13.45-40.55.14.04.31-.04.45,0l3.14,50.18c.17.43.78.14.9.23Z"/>
                  <path class="cls-26" d="M188.1,69.85c-3.03.75-7.39-.55-9.42,1.83,0-1.24-.2-8.39.22-8.71,3.65,1.91,8.17,2.11,9.2,6.87Z"/>
                  <path class="cls-15" d="M188.1,69.85c.28,1.29-.47,2.88.45,4.12-2.46-.46-7.47-.79-9.87-.46v-1.83c2.04-2.38,6.39-1.09,9.42-1.83Z"/>
                  <path class="cls-26" d="M175.54,80.85c0,14.39-1.38,32.46-.45,46.28-6.26.95-20.55,2.51-25.58,5.96-.05-1.84.23-3.69.45-5.5l21.54-4.81,4.04-41.93Z"/>
                  <g>
                    <path class="cls-13" d="M231.19,140.88c-.22,4.89-1.65,9.49-2.69,14.21-1.5-.86-3.31-.33-4.94-.46-23.44-1.83-51.02.06-74.49,2.75-2.19.25-4.53.27-6.73.46-.61-2.28-1.22-4.58-1.8-6.87,29.88-5.46,60.23-10.3,90.65-10.08Z"/>
                    <path class="cls-33" d="M143.45,150.96c8.24-1.61,32.17-.02,41.73.46,1.2.06,13.69.68,13.69,1.6l-55.87,3.89-1.57-5.27c.67,0,1.72-.63,2.02-.69Z"/>
                  </g>
                </g>
                <g>
                  <path class="cls-16" d="M172.4,168.37c-.09.39-2.83,2.81-3.37,3.21-5.59,4.13-12.85,3.82-17.73-1.37-.03-.15.03-.31,0-.46,6.69-5.07,14.15-7.6,21.09-1.37Z"/>
                  <path class="cls-1" d="M172.4,168.37c-6.95-6.22-14.4-3.7-21.09,1.37-.01-.05-.24.13-.45-.92,3-5.15,9.33-12.48,15.93-10.08,2.56.93,6.24,6.88,5.61,9.62Z"/>
                </g>
                <g>
                  <path class="cls-5" d="M223.56,154.62c-1.75,17.87-8.12,35.58-19.3,49.49-5.88,1.77-32.32,5.87-37.7,5.04-5.06-11.05-11.62-22.8-14.81-34.6-.34-1.24-.29-3.64-.45-4.35,4.88,5.19,12.14,5.5,17.73,1.37.53-.39,3.28-2.82,3.37-3.21.63-2.74-3.05-8.69-5.61-9.62-6.6-2.4-12.93,4.93-15.93,10.08-.75-3.79-1.89-7.52-1.8-11.46,23.47-2.69,51.05-4.58,74.49-2.75Z"/>
                  <polygon class="cls-20" points="180.7 159.21 191.92 189.91 176.89 189.22 180.7 159.21"/>
                  <path class="cls-16" d="M220.86,161.96c-.06.93-4.25,5.29-5.16,5.96-6.84,5.04-15.93,5.34-23.11.92,7.77-7.48,17.9-9.44,28.27-6.87Z"/>
                  <path class="cls-1" d="M220.86,161.96c-10.37-2.57-20.5-.61-28.27,6.87,1.85-9.69,14.57-16.75,23.56-12.83,1.5.65,4.82,4.29,4.71,5.96Z"/>
                  <path class="cls-27" d="M185.64,192.2c2.69-.08,5.39.06,8.08,0-4.43,2.8-12.08,2.41-16.83.69,2.87,0,5.93-.6,8.75-.69Z"/>
                </g>
              </g>
            </g>
          </g>
        </g>
        <path class="cls-13" d="M176.71,207.94c.36.02-.04-.73-.31-.46s-.14.76.02,1.12c2.6,6.04,5.34,12.01,8.21,17.9.71,1.45,1.81,3.12,3.28,2.86,2.26-7.72,4.97-15.28,8.11-22.62-6.35-1.02-12.87-.72-19.11.88,1.26-.02,2.52-.04,3.77-.07"/>
      </g>
      <path class="cls-24" d="M318.63,26.99c-34.12-9.7-71.36-13.03-105.48-22.73-7.77-2.21-15.78-4.44-23.8-3.56-5.73.63-11.17,2.81-16.53,4.97-37.97,15.33-76.31,30.86-109.92,54.55-4.34,3.06-9.14,7.77-7.54,12.91,1.78,5.73,9.5,6.12,15.3,5.14,29.44-4.94,52.57-12.56,77.69-28.99"/>
      <path class="cls-24" d="M310.21,94.89c-7.43,2.88-14.94,5.57-22.51,8.05-11.05,3.62-23.06,6.8-34.1,3.15-10.35-3.43-18.02-12.29-24.33-21.35-3.51-5.03-6.81-10.3-11.28-14.47-5.18-4.83-11.64-7.92-17.99-10.94-3.15-1.5-6.31-3-9.46-4.5-1.15-.55-2.31-1.1-3.56-1.32-1.4-.24-2.83-.06-4.23.13-8.85,1.18-18.04,2.42-26.54-.36-8.5-2.78-16.06-10.87-15.21-19.95,17.74-3.33,35.48-6.67,53.21-10,3.09-.58,6.23-1.17,9.37-.94,2.89.21,5.69,1.1,8.5,1.84,18.82,5,38.59,3.69,58.03,4.4,2.6.09,6.21,1.76,5.12,4.17"/>
      <path class="cls-24" d="M55.84,74.46c-.26-1.85-3.09-.98-4.37.36-3.29,3.46-6.31,7.18-9.03,11.11-.58.84-1.16,1.73-1.27,2.75-.33,3.06,3.4,4.75,6.4,5.07,7.57.82,15.18-.64,22.59-2.43,21.09-5.11,41.53-12.98,62.86-16.88,15.22-2.78,31.31-3.7,44.62-11.72.65-.39,1.43-.81,2.12-.52s.63,1.69-.12,1.58"/>
      <path class="cls-24" d="M64.32,93.19c-.97-.59-1.93-1.17-2.9-1.76-.86,5.05-.92,10.25-.18,15.32.2,1.35.49,2.77,1.41,3.75,1.59,1.69,4.26,1.4,6.52.99,21.23-3.92,42.5-7.85,63.18-14.1,9.1-2.75,18.09-5.94,26.69-10.03-.97.86-1.94,1.72-2.91,2.58"/>
      <path class="cls-24" d="M220.58,101.12c13.27-1.27,25.04,7.95,37.69,12.22,20.39,6.87,42.47.67,63.45-4,1.85-.41,3.75-.81,5.62-.54,1.69.25,3.26,1.04,4.79,1.81,12.07,6.12,25.26,17.04,37.33,23.16-1.38-.46-7.47-2.55-8.77-1.9,5.43,8.53,9.67,17.82,12.57,27.51,1.12,3.75,1.91,8.21-.57,11.24-15.96-2.88-30.88-11.22-41.7-23.3,6.05-8.56,18.35-12.03,27.98-7.9-1.71,3.57-4.72,6.5-8.33,8.12,2.46-.41,4.77-1.69,6.42-3.56"/>
      <path class="cls-24" d="M133.03,135.29c2.02-22.69,15.13-44.07,34.24-55.83,4.21-2.59,8.82-4.78,13.72-5.13,3.66-.26,7.31.51,10.84,1.54,6.23,1.83,12.28,4.55,17.34,8.67,8.77,7.15,13.91,17.91,17.9,28.62,3.06,8.22,5.61,16.64,7.64,25.19.38,1.62-.13,4.19-1.7,3.72"/>
      <path class="cls-24" d="M178.32,135.1c.22-24.05.43-48.1.65-72.14,2.79,1.06,5.59,2.12,8.38,3.18,5.01,22.96,10.05,46.65,6.05,69.82-9.37-8.59-23.83-9.37-35.59-4.77-11.76,4.6-21.25,13.72-29.57,23.37,6.5-2.95,13.65-4.03,20.69-5.08,31.2-4.65,62.58-9.31,94.11-8.53,4.18.1,8.38.3,12.53-.22-16.23-3.88-32.47-7.76-48.7-11.65-8.34-1.99-16.81-4-25.37-3.6,1.31,1.43,2.63,2.85,3.94,4.28"/>
      <path class="cls-24" d="M93.58,106.74c-.28-1.02-1.52-1.51-2.53-1.28-1.01.23-1.83,1-2.52,1.79-2.72,3.1-4.42,7.13-4.74,11.28,17.77-1.31,36.33-2.87,51.46-12.48,2.69-1.71,6.48-3.56,8.63-1.19"/>
      <path class="cls-24" d="M137.18,161.29c-1.56-.03-3.12.5-4.35,1.46,5.45-.61,10.47-3.14,15.64-4.99s10.98-2.99,16.04-.83c5.05,2.16,8.54,8.73,5.83,13.59-2.37,4.25-8.01,5.24-12.75,4.55-3.21-.47-7.02-2.4-6.83-5.71.09-1.59,1.14-2.94,2.23-4.07,8.49-8.74,21.61-10.39,33.66-10.59,9.35-.16,18.72.26,28.02,1.25,1.86.2,3.84.48,5.24,1.75,2.1,1.92,1.96,5.53.36,7.9s-4.28,3.73-6.93,4.72c-3.23,1.2-6.6,1.98-10.02,2.33-2.27.23-4.79.19-6.51-1.33-2.57-2.27-1.95-6.63-.07-9.52,5.68-8.72,18.15-8.82,28.15-6.5,7.63,1.78,15.83,5.06,19.22,12.27-1.33.11-2.67.22-4,.34"/>
      <path class="cls-24" d="M177.83,194.15c5.21-.75,10.52-.79,15.74-.11-.15-4.53-2.05-8.77-3.91-12.88-2.01-4.45-4.03-8.89-6.04-13.34-3.69-8.13-4.99,2.14-5.24,5.18-.56,7.06-.88,14.07-.55,21.15Z"/>
      <path class="cls-24" d="M140.45,148.75c-.52-.76-1.05-1.51-1.57-2.27,6.45,21.37,13.63,42.6,21.52,63.69,8.96-.87,17.91-1.74,26.85-2.68,7.78-.82,15.99-1.85,22.01-5.7,4.77-3.05,7.57-7.52,9.63-12,2.91-6.32,4.64-12.91,6.36-19.48,2.96-11.28,5.91-22.56,8.87-33.85-2.07.54-2.46,3.11-.6,4"/>
      <path class="cls-24" d="M151.23,191.96c-1.67-1.49-4.12.5-5.39,2.35-7.82,11.43-13.31,24.51-16.01,38.17,7.74-9.59,19-16.15,31.03-18.07-.59,1.57-1.86,2.87-3.41,3.45,14.19,7.11,22.07,22.74,34,33.33,3.8-12.87,9.09-25.27,15.72-36.88-.75,1.83-1.49,3.66-2.24,5.48.62-1.46,1.25-2.92,1.87-4.38"/>
      <path class="cls-24" d="M201.29,328.05c-1.27-1.59-3.27-11.62-3.78-13.84-3.94-17.1-6.79-36.28-.87-52.33.39,2.17,5.19.8,4.59,2.88l-2.97,1.49c17.96-3.01,36.07-4.35,54.16-4-.91-1.53-2.5-2.27-3.92-1.81.52.45.78,1.39.6,2.19"/>
      <path class="cls-24" d="M220.5,262.44c8.74-18.22,14.47-21.34,23.21-39.55-5.33-.17-8.3-7.57-9.29-12.92-.99-5.35,1.67-9.44,4.84-13.81,4.65-6.42,13.54-9.55,17.81-9.53,1.56,0,3.49.56,3.79,2.13.17.85-.24,1.7-.64,2.47-3.29,6.39-6.69,9.37-9.99,15.77,4.81,1.88,10.02,6.42,15.16,6.73,2.15-7.1,5.01-13.98,8.52-20.5,8.05,4.97,11.43,16.52,7.36,25.19-4.07,8.66-14.18,15.56-23.02,12.27-10.82,22.27-16.99,29.57-18.5,33.24"/>
      <path class="cls-24" d="M184.14,248.43c2.63,2.64,6.13,4.34,9.79,4.77-1.23-2.08-3.24-3.66-5.53-4.34-.97,19.95-1.9,21.57-2.87,41.52-.02-2.38-.07,13.58-.08,11.2"/>
      <path class="cls-24" d="M215.9,207.99c-1.18.34-2.56-.54-2.77-1.78,4.91,8.45,9.82,16.89,14.74,25.34,2.42-13.71,1.35-28.05-3.07-41.23,5.48,3.42,10.88,4.88,16.87,7.26"/>
      <path class="cls-24" d="M96.33,226.33l-2.54-1.29c3.07-.81,6.04,1.51,8.28,3.81,11.29,11.62,18.87,26.95,21.31,43.14-5.97-8.94-12.24-18.18-21.4-23.61,5.68,5.56,10.21,12.34,13.21,19.77-4.45,1.5-9.55-4-13.54-1.49-1.57.99-2.28,2.91-2.73,4.73-3.52,14.25,2.64,30.52-4.21,43.45-.25-1.33-.5-2.66-.75-3.98"/>
      <path class="cls-24" d="M80.78,148.5c1.98,4.85-1.24,11.31-6,12.06,3.99-2.13,9.41,2.01,9,6.88-.27-1.86-.54-3.78-.12-5.6s1.7-3.55,3.39-3.75c-3.97-.77-6.76-5.84-5.54-10.08"/>
      <path class="cls-24" d="M98.38,133.76c.85,3.43,1.69,7.1.64,10.46s-4.82,5.9-7.57,4.05c2.25-1.33,5.17-.13,6.85,1.98s2.42,4.92,3.1,7.63c-1.49-2.29-1.56-5.61-.15-7.96,1.41-2.36,4.19-3.61,6.69-3-5.42-.9-9.82-6.66-9.71-12.71"/>
      <path class="cls-24" d="M297.19,185.79c-.96,3-3.63,6.34-6.16,4.84,3.53-.54,6.75,2.86,7.72,6.64.97,3.78.25,7.81-.47,11.66-.81-4.28-1.61-8.84-.24-12.94,1.38-4.1,5.83-7.27,9.37-5.3-4.16-.68-7.89-3.98-9.39-8.32-1.18-3.39-.96-7.25.52-10.47.57,4.53.05,9.49-1.35,13.88Z"/>
      <path class="cls-24" d="M22.94,297.11c-67.96-9.74,38.28-7.69,57.75-8.59-3.07-3.44-7.1-6.01-11.51-7.36,6.06-20.04,15.61-39.02,28.08-55.83,3.13-4.22,6.58-8.42,11.26-10.81-.04,4.5-1.76,8.98-4.75,12.35.02-3.47,1.39-6.91,3.76-9.44"/>
      <path class="cls-24" d="M283.64,227.51c-.92-2.18-1.84-4.36-2.77-6.54,17.95,22.1,29.06,49.69,31.43,78.06-10.78-.51-21.06-7.2-25.88-16.86,34.81-1.25,48.39,1.87,83.05-1.58-1.71.95-3.85,1.12-5.68.44"/>
    </g>
  </g>
</svg>