<?xml version="1.0" encoding="UTF-8"?>
<svg id="Ebene_2" data-name="Ebene 2" xmlns="http://www.w3.org/2000/svg" xmlns:xlink="http://www.w3.org/1999/xlink" viewBox="0 0 480.06 306.23">
  <defs>
    <style>
      .cls-1, .cls-2, .cls-3 {
        fill: none;
      }

      .cls-4 {
        fill: #ff8000;
      }

      .cls-5 {
        fill: #ffffb8;
      }

      .cls-6 {
        fill: #ffb5a8;
      }

      .cls-7 {
        fill: #ffe5d0;
      }

      .cls-8 {
        fill: #ffdbc4;
      }

      .cls-9 {
        fill: #e9524f;
      }

      .cls-10 {
        fill: #595259;
      }

      .cls-11 {
        fill: #ffd3c2;
      }

      .cls-12 {
        fill: #d64544;
      }

      .cls-13 {
        fill: #e8dcd4;
      }

      .cls-14 {
        fill: #b75915;
      }

      .cls-15 {
        fill: #cb8f3c;
      }

      .cls-16 {
        fill: #ffddb7;
      }

      .cls-17 {
        fill: #5c0600;
      }

      .cls-18 {
        fill: #e6e8e8;
      }

      .cls-19 {
        fill: #9d9aa6;
      }

      .cls-20 {
        fill: #ffcb31;
      }

      .cls-21 {
        fill: #ff998f;
      }

      .cls-2 {
        stroke: #260000;
      }

      .cls-2, .cls-3 {
        stroke-miterlimit: 10;
      }

      .cls-22 {
        fill: #e7e7e7;
      }

      .cls-23 {
        fill: #ffffe8;
      }

      .cls-24 {
        fill: #ff7b74;
      }

      .cls-25 {
        fill: #9d2b21;
      }

      .cls-26 {
        fill: #fff;
      }

      .cls-27 {
        fill: #99989d;
      }

      .cls-28 {
        fill: #ec6964;
      }

      .cls-29 {
        fill: #9a4100;
      }

      .cls-30 {
        fill: #7c2e00;
      }

      .cls-31 {
        fill: #9c110f;
      }

      .cls-32 {
        fill: #bb3f3c;
      }

      .cls-33 {
        fill: #ff9700;
      }

      .cls-3 {
        stroke: #000;
      }

      .cls-34 {
        fill: #faebe8;
      }

      .cls-35 {
        fill: #ffe86c;
      }

      .cls-36 {
        fill: #cb7361;
      }

      .cls-37 {
        fill: #d5d5d5;
      }

      .cls-38 {
        fill: #ab4a3a;
      }

      .cls-39 {
        fill: url(#Unbenannter_Verlauf_635);
      }

      .cls-40 {
        fill: #ffe0e8;
      }

      .cls-41 {
        fill: #cecad9;
      }

      .cls-42 {
        fill: #bb9789;
      }

      .cls-43 {
        fill: #fff3de;
      }

      .cls-44 {
        fill: #ffb92f;
      }

      .cls-45 {
        fill: #c5b6a1;
      }

      .cls-46 {
        fill: #f2e4dd;
      }

      .cls-47 {
        fill: #9b665a;
      }

      .cls-48 {
        fill: #792f48;
      }

      .cls-49 {
        fill: #f0e3d0;
      }
    </style>
    <linearGradient id="Unbenannter_Verlauf_635" data-name="Unbenannter Verlauf 635" x1="250.33" y1="116.42" x2="208.01" y2="137.34" gradientUnits="userSpaceOnUse">
      <stop offset="0" stop-color="#ffa298"/>
      <stop offset="1" stop-color="#ffc1b2"/>
    </linearGradient>
  </defs>
  <g id="versicherungen">
    <g>
      <path class="cls-16" d="M211.18,255.85c-36.47-6.49-75.13-.74-107.91,16.05,30.14.75,60.28,1.51,90.43,2.26-64.51,7.49-131.58-3.08-193.7,15.38,122.75.61,245.55-14.47,368.03-6.51-49.46-.54-99.42-1.03-147.77,9.1,42.5,1.42,85,2.85,127.49,4.27,24.83.83,49.99,1.64,74.23-3.64-9.96-5.13-21.81-4.88-33.09-5.16-28.43-.71-56.74-5.65-83.64-14.6-1.78-.59-3.67-1.29-4.7-2.81-1.03-1.51-.96-3.46-1.44-5.22-1.91-6.94-11.15-8.55-18.55-8.83-17.68-.67-35.35-1.34-53.03-2.01.93.33,1.86.67,2.79,1"/>
      <g id="Generatives_Objekt" data-name="Generatives Objekt">
        <path class="cls-23" d="M348.06,286.43c10.43.5,21.17,2.49,31.04,5.6l15.65,1.02c-37.16,1.07-74.56,1.31-111.39-4.07,2.57-.05,7.66,1.17,6.26-3.05,2.19-.03,14.55-.08,15.39-.51.9-.46-.43-1.81,0-2.04,3.25-1.74,32.62,1.9,38.09,2.54-6.08,1.05-15.82-3.88-18.52,3.31.95,3.03,23.66,3.87,26.87,2.8,6.4-2.14-.43-4.96-3.39-5.6Z"/>
        <path class="cls-23" d="M8.68,284.39l61.82.76c-6.28,1.28-14.26,3.2-20.61,3.31-5.02.08-10.24-1.51-15.13-1.53-4.38-.01-28.2,1.5-29.74,1.02-4.29-1.35,2.31-3.37,3.65-3.56Z"/>
        <path class="cls-8" d="M363.19,263.02c4.29-1.37,8.18-3.56,12.52-4.83-2.78-3.35.58-.59,1.04-4.07l-6-1.27c10.12-.66,20.36-3.5,30.52-1.27,2.05,2.76-35.68,11-38.09,11.45Z"/>
        <path class="cls-23" d="M459.45,281.85c1.2-.4,20.62,1.78,20.61,2.8-15.93,4.5-32.93,5.25-49.56,5.6,3.37-.94,25.12-2.63,26.35-3.82.2-.2.9-4.01,2.61-4.58Z"/>
        <path class="cls-8" d="M197.81,293.04c-26.7,7.86-45.59,10.05-73.56,11.19l50.61-6.61c3.57-.43,5.14-1.06,7.83-1.53,5.08-.89,10.04-2.24,15.13-3.05Z"/>
        <path class="cls-23" d="M174.85,297.62l-50.61,6.61c-7.26.3-14.69-8.49-21.91-8.07,6.84-3.54,25.23,6.33,33.65,5.53,12.92-1.24,26.28-2.57,38.87-4.07Z"/>
        <path class="cls-8" d="M278.67,284.9l-.78,1.53c1.33-.63,2.5-.53,3.91-.51,2.6.03,5.23.03,7.83,0,1.4,4.22-3.69,3-6.26,3.05-7.33.15-14.57-1.49-21.91-1.02v-.51c5.73-.68,11.41-2.25,17.22-2.54Z"/>
        <path class="cls-23" d="M201.46,287.95l.52,3.56c-1.41.43-2.74,1.1-4.17,1.53-5.09.82-10.05,2.16-15.13,3.05-.09-2.89,10.34-3.83,7.83-6.61,1.19-.16,2.45-.34,3.65-.51,1.05-.14,2.14-.37,3.13-.51.86-.12,1.87-.48,2.09-.51.17-.02.35.02.52,0,.5-.07,1.06.07,1.57,0Z"/>
        <path class="cls-23" d="M329.28,249.28c.22-1.27.76-1.98,1.04-3.05,1.73,3.04,3.65-.83,4.43-1.02,4.63-1.11,13.05-.77,18-.76l-23.48,4.83Z"/>
        <path class="cls-8" d="M220.24,286.43c-.07.44-.05,1.07,0,1.53-6.42-.24-12.25,1.74-18.26,3.56l-.52-3.56c1.07-.15,1.48-.5,1.57-.51,1.29-.03,1.95-.28,3.13-.51.56-.11,1.51.35,1.57-.51.17-.02.35.02.52,0,1.3-.15.99-.5,1.04-.51.17-.02.35.01.52,0,3.2-.22,7.31-.24,10.43.51Z"/>
        <path class="cls-8" d="M324.59,263.02c.66-1.72,1.55-3.63,2.09-5.09l5.74.76c-3.15-1.27-4.56,5.69-4.96,5.85-.17.07.07-1.76-2.87-1.53Z"/>
        <path class="cls-23" d="M90.85,303.29c1.23-1.32.33-2.34.52-4.07,2.14,3.54,3.06-.15,3.91,0,2.07,3.48-1.73,3.87-4.43,4.07Z"/>
        <path class="cls-23" d="M281.8,285.92c-1.41-.02-2.58-.12-3.91.51l.78-1.53c1.94-.1,3.55-1.24,3.13,1.02Z"/>
        <polygon class="cls-8" points="346.24 265.56 349.63 265.82 345.72 266.58 346.24 265.56"/>
        <path class="cls-23" d="M401.02,292.02c1.45.12,3.05-.29,4.43.25,0,.22-4.26.75-4.43-.25Z"/>
        <path class="cls-23" d="M409.37,291.51c1.26.12,2.74-.29,3.91.25,0,.22-3.85.75-3.91-.25Z"/>
        <path class="cls-23" d="M348.06,286.43c-1.36-.06-2.87.25-4.17-.25,1.48-.79,2.8-.04,4.17.25Z"/>
        <path class="cls-8" d="M259.89,287.44c-.42.87-2.28.53-3.13.51.45-.91,2.23-.47,3.13-.51Z"/>
        <path class="cls-8" d="M351.98,265.05c.52.06,2.33-.19,2.35.25-.28.34-2.76.62-2.35-.25Z"/>
        <path class="cls-8" d="M361.63,263.53c-.13.03-1.28,1.2-2.09.25.52-.55,1.48-.1,2.09-.25Z"/>
        <path class="cls-8" d="M357.72,264.04h.52c1.03-.08,1.03.59,0,.51l-.52-.51Z"/>
        <path class="cls-8" d="M323.54,264.55h-.52c-.09-.58.41-.44.52-.51v.51Z"/>
        <path class="cls-8" d="M355.63,264.55h.52c1.03-.08,1.03.59,0,.51l-.52-.51Z"/>
        <path class="cls-8" d="M363.19,263.02c-.53.17-.96.35-1.57.51.21-.05.68-.34,1.57-.51Z"/>
        <polygon class="cls-8" points="367.11 253.35 367.37 253.61 367.11 253.86 367.11 253.35"/>
        <polygon class="cls-8" points="351.98 254.88 352.5 254.88 352.76 255.13 352.5 255.39 351.98 254.88"/>
        <path class="cls-8" d="M324.06,263.53c-.05-.43.12-.48.52-.51-.27.7-.5.48-.52.51Z"/>
        <g>
          <path class="cls-11" d="M315.19,88.99c-7.48,3.19-17.07,4.71-24.78,7.63l-7.04-12.98c.16-.78,13.2-7.11,14.35-7.38.74-.17,13.37-2.06,14.09-2.04,1.91.06,5.44,6.01,6.52,8.14l5.22-4.07c-8.85-8.64-18.98-16.76-30.09-22.86-1.37-.61-2.74-1.19-4.13-1.75-7.98-3.18-16.54-5.23-25-6.64-5.13-.85-10.49-1.29-15.67-.69-3.62.42-6.98.81-10.48.57-2.87,1-5.89,2.26-8.54,2.87-.04,1.4-3.6,1.55-5.22,2.04l1.04,1.53c5.49-1.32,8.25-2.17,13.04,2.54,6.97-.63,21.06-.06,17.22,10.43-2.29,6.24-25.93,13.72-32.61,18.57-3.51,2.55-13.51,11.81-7.3,15.77,2.96,1.89,27.58-.99,33.91-.51,3.06.23,6.69.92,9.65,1.78-12.03,1.08-24.01,2.43-36,3.82l2.09,2.04c10.09-1.54,28.31-3.28,36,4.58,2.79-3.24,8.67-4.83,12.78-6.62,1.96-.85,1.95-1.2,4.17-2.04,5.85-2.2,7.73-4.94,11.22,1.53,4.32-2.81,10.12-2.83,14.61-3.56,2.17-.35,4.08-1.26,6.26-1.53-.08-2.92,12.14-4.74,14.61-6.11-.03-.04,1.13-.13.26-1.02-1.02-1.05-8.32-3.14-10.17-4.07Z"/>
          <path class="cls-24" d="M348.06,188.22c-1.92-.25-1.71.05-2.61,1.27-7.5,10.22-11.68,19.31-20.87,29.77-9.08,10.34-18.95,20.12-30.78,27.48,3.4-3.35,7.74-6.72,10.17-10.69-16.23,7.34-31.24,2.7-37.04-14.25l-2.35,1.53c-.37-2.38-.37-4.83-1.04-7.12,24.53-2.77,53.25-23.04,67.3-42.23,1.25-1.71,2.53-3.27,3.65-5.09,1.81-2.93,3.89-6.52,5.22-9.67.24-.58,1.01-1.44,1.04-1.53,1.62.33,11.24,5.71,12,3.82l.52-22.13c1.5,18.77-.61,31.04-5.22,48.85Z"/>
          <path class="cls-11" d="M94.87,110.21c-.21,2.54-.78,5.04-2.05,6.66,1.06-.04,2.29-.16,3.77-.4-.32-3.09,6.89-2.3,7.3-2.8-1.56-7.41-5.56-6.83-9.02-3.46Z"/>
          <path class="cls-11" d="M183.98,68.64c-.63.31-4.46,4.24-6.26,5.09-4.07,1.92-8.39,3.32-12.61,4.92-1.26.91-2.54,1.8-3.89,2.58-.44.35-.94.61-1.51.8-3.63,2.62-6.59,6.12-10.31,8.61-.33.35-.68.68-1.03.98-1.15,1.01-2.38,2.07-3.69,2.86-2.39,1.44-4.8.7-6.65-.95-1.76-.11-3.53-.39-5.28-.78-2.38-.53-4.69-1.31-7.01-2.05.47.19.71.39.59.59-3.92-.89-7.94-1.86-11.98-2.83-.52-.06-1.04-.11-1.57-.18-5.62-.67-11.19-1.65-16.84-1.71.59,2.47,4.74,6.11,4.3,8.79-.03.18-1.9,2.14-2.09,2.54-.04.09.54,1.09,0,2.04-.65,1.13-1.9,2.62-3.3,4.25.05.67.09,1.42.11,2.22,2.85-4.01,6.29-8.66,7.1-9.78.68,2.35,12.37,18.04,8.35,19.34-1.29-.7-6.05-1.38-6,1.02.99.1,5.68,3.17,6,3.05.44-.17.19-3.06,2.09-2.54,1.17,5.65,5.8,8.3,8.09,12.72,2.22-1.8,4.45-3.43,6.78-5.09,3.68-2.63,7.45-4.66,11.22-7.12,1.87.23.3,4.5.26,5.09-.1,1.68-.21,3.4-.26,5.09l3.91-1.53c.52-7.43-3.06-11.42-1.83-18.83-5.35-.25-18.49,16.68-20.35,16.79-.13,0-1.84-1.32-1.83-1.78-.14-1.87,18.79-21.25,21.65-23.66,10.76-9.06,16.93-12.5,32.09-12.21,1.45-7.99,9.47-13.09,15.13-18.32-.15.08-3.24-.07-3.39,0Z"/>
          <path class="cls-21" d="M126.21,223.18c.53.2,1.07.4,1.61.59,6.78-2.45,13.27-5.31,21.21-4,2.91-8.03-5.34-6.94-4.43-13.23-1.79.06-3.99.14-5.74,0-.64.84-3.2,1.18-3.91,1.53-.23.11.89,2.72-3.65,1.53-.52-.14,0-1.32-.52-1.53-1.62-.62-6.49.43-3.39-4.07-1.11-.4-2.74-.52-2.61-2.04-6.72-.42-13.48-4.98-18-9.67-3.88,5.21-7.68,11.16-14.09,13.74-3.7-7.51-12.94-13.01-21.5-11.94-.29,1.18-.55,2.47-.76,3.81,2.07-1.76,6.01-1.32,12.35,2.53,2.49,1.51,5.44,5.61,7.3,6.62.91.49,2.48-.95,2.87-.25,1.13,2.02.06,8.48.52,10.94.48-.5,2.74-1.67,3.65-2.54,1.79-1.72,3.31-5.97,6.52-7.12,6.5-2.34,10.85,5.25,13.16,11.91.37.09.75.23,1.14.44,1.77.93,3.62,1.73,5.4,2.59.83-.25,1.8-.24,2.88.18Z"/>
          <path class="cls-21" d="M349.63,114.44c-2.98,3.43.86,5.88,1.57,9.16,1.01,4.69,1.7,10.93,2.09,15.77l-.52,22.13c-.76,1.89-10.38-3.49-12-3.82.63-1.67,1.08-4.3,1.57-6.11,4.57-17.12.77-21.36,0-36.64-.22-4.46,2.44-1.39,3.13-3.31.12-.32-2.62-5.7-3.39-5.85-.72-.14-2.05,1.24-2.61,1.02-.18-.07-1.88-3.13-1.83-3.31.14-.48,2.46-.73,2.61-1.02.55-1.07-3.52-6.19-2.61-7.89,1.84,2.77,4.14,5.46,5.74,8.4,1.93,3.54,3.18,9.7,6.26,11.45Z"/>
          <path class="cls-6" d="M331.89,238.59c-1.31.12-7.33-2.7-7.83-2.29-1.19.98-7.62,21.82-8.87,24.93l-2.61,1.78c-1.3.02-2.01.46-2.61.51.57-3.51-.98-11.03.52-13.99.89-1.76,10.19-10.26,12.52-13.74,2.66-3.97,5.34-8.82,6.26-13.48,2.89-3.16,10.21-9.64,12-12.21-2.21,9.72-6.54,18.95-9.39,28.5Z"/>
          <path class="cls-6" d="M331.89,238.59c-.71,2.36-.96,5.38-1.57,7.63-.29,1.07-.82,1.78-1.04,3.05l-.52.51c-.56,2.44-1.24,5.86-2.09,8.14-.54,1.46-1.42,3.37-2.09,5.09-.4.03-.58.08-.52.51-.26.47-.23.32-.52.51-.11.07-.61-.08-.52.51-3.61-.71-6.66-1.58-10.43-1.53l2.61-1.78c1.25-3.11,7.68-23.95,8.87-24.93.5-.41,6.52,2.41,7.83,2.29Z"/>
          <path class="cls-7" d="M125.81,147.51c-.86,4.3,7.01,2.68,10.17,3.56,3.53.98,12.96,7.84,15.39,10.69.61.72,1.76,1.72,2.09,2.54-4.43,2.88-12.89-9.97-13.04-2.04-6.29-4.57-16.51-7.46-24.26-5.6-.37.09-3.21,2.31-4.17,2.54-3.14.77-6.08-.13-8.61,1.02.04-.67-.07-1.37,0-2.04,6.35,1.95,13.66-1.15,16.7-6.87,1.66-3.12,1.17-6.6,2.09-8.9.03-.07.97-.9,1.04-1.02l-1.57,7.89c.51.96,3.51-1.43,4.17-1.78Z"/>
          <path class="cls-28" d="M92.94,206.79c-.39-.7-1.96.74-2.87.25-1.87-1-4.82-5.11-7.3-6.62-6.34-3.84-10.28-4.28-12.35-2.53-1.09,7.07-.7,15.84,3.83,20.62.23-1.49.83-4.69.96-5.89-1.54-2.41-3.12-4.91.52-5.6,1.03-.2,11.71-.3,12.52,0,3.83,1.43,1.77,4.69,1.57,8.14-.11,1.89-1.86,3.06.52,5.09.1-.17,2.21-1.58,3.13-2.54-.46-2.46.61-8.92-.52-10.94Z"/>
          <path class="cls-7" d="M224.41,51.85c-.99.3-6.47,2.52-6.78,1.78l1.57-1.78c-12.36,3.49-21.58,6.46-32.87,12.72-.49.27-.82.38-1.04.51-2.42,1.37-3.29,2.39-6.26,3.56-.08.03-.56.95-1.57.51-.46.89-1.38,1.68-2.53,2.39-.37.58-.9,1.1-1.62,1.5-2.91,1.61-5.51,3.68-8.2,5.62,4.22-1.61,8.53-3.01,12.61-4.92,1.8-.85,5.63-4.78,6.26-5.09.15-.07,3.24.08,3.39,0,4.38-2.2,14.55-9.41,18.52-10.18.52-.1.68,1.81,1.57,1.53,6.03-1.93,11.4-5.03,18-6.62l-1.04-1.53Z"/>
          <path class="cls-28" d="M348.06,188.22c-1.36,5.26-4.12,18.06-6.78,21.88-1.79,2.57-9.11,9.05-12,12.21-.04.04-1,.47-1.04.51l-3.65-3.56c9.19-10.46,13.37-19.55,20.87-29.77.9-1.23.69-1.52,2.61-1.27Z"/>
          <path class="cls-38" d="M233.81,283.88c-.07.14.07.37,0,.51-.96,1.92-4.2,7.14-2.61,8.65-3.48.05-10.46-.5-10.96-5.09-.05-.45-.07-1.09,0-1.53.02-.11,1.39-1.24,1.04-2.04.35.49.9,1.48,1.57.76.65-.68.77-5.72,1.04-6.87,3.56,1.31,6.27,4.4,9.91,5.6Z"/>
          <path class="cls-25" d="M240.59,287.44c-.71,1.48-.67,3.33-2.09,4.58-1.96.23-5.86,1-7.3,1.02-1.59-1.51,1.65-6.73,2.61-8.65l6.78,3.05Z"/>
          <path class="cls-6" d="M125.74,90.7c-.78-.25-1.57-.49-2.36-.71-.52-.14-1.06-.28-1.6-.43-2.46-.58-4.92-.83-7.42-1.1,4.05.97,8.06,1.93,11.98,2.83.12-.2-.13-.39-.59-.59Z"/>
          <path class="cls-23" d="M224.41,49.81c.25-.06,3.24.45,5.22,0-.04,1.4-3.6,1.55-5.22,2.04-.99.3-6.47,2.52-6.78,1.78l1.57-1.78c1.72-.49,3.4-1.58,5.22-2.04Z"/>
          <path class="cls-15" d="M179.02,68.64c-.08.03-.56.95-1.57.51v-.51c.08,0,1.2-1.41,1.57,0Z"/>
          <path class="cls-23" d="M328.76,249.79l.52-.51c-.06.37-.05.57-.52.51Z"/>
          <path class="cls-21" d="M339.72,159.21c-1.33,3.15-3.4,6.73-5.22,9.67-25.66-9.28-50.53,16.45-73.56-3.31-1.17-1-4.05-6.68-5.74-5.6-1.79,3.45,1.42,4.31,1.57,4.58,1.76,3.23,2.75,5.67,6,7.89,18.05,12.28,48.12-8.41,68.09,1.53-14.05,19.19-42.78,39.46-67.3,42.23-4.97.56-9.65.24-14.61.25,5.57,2.09,13.33,3.92,12.52,11.19-.42,3.79-13.01,28.68-15.65,34.09-3.62,7.43-8.6,15.34-12,22.13-3.65-1.2-6.36-4.28-9.91-5.6,4.03-16.88,8.17-37.8,2.87-54.45-2.79-.11-7.82,49.03-10.17,53.43l-7.3-2.54c.01-.3-.62-1.26-.52-2.54.18-2.51,2.99-17.23,2.61-18.06-.24-.47-.91-.15-1.04-.25,7.41-15.54,5.46-34.11,5.74-51.14-4.69,5.14-5.43-6.41-6.78-9.67-1-2.39-3.15-4.46-4.17-6.87,5.27-3.3,8.35-12.21,3.65-16.79,2.77-6.53,12.34-4.97,9.91-13.23,1.15,1.22,6,6.27,7.57,5.6.62-.27-.83-.84,0-1.53.28-.23,1.91.35,2.35-.25.59-.81-.47-4.06-.52-4.83-.15-2.44-.18-5.86-1.04-8.14,4.58,2.74,9.56.26,13.56-2.54-.41,3.21-.84,6.06,3.91,5.6,3.99-.39,6.91-11.03,8.09-13.99.76-1.93,4.26-2.65.52-6.87,2.13-2.69,3.29-4.2,5.22-6.61,1.13,2.27,1.55,6.43,1.57,8.9.03,4.26-3.51,24.7-3.13,25.95.22.74,7.4,5.41,8.61,5.85,23.43,8.61,50.3-11.36,74.35-4.07Z"/>
          <path class="cls-39" d="M263.02,115.96c.15.74,1.47.44,1.04,1.27-.18.35-4.61,3.92-5.74,5.34-1.92,2.42-3.08,3.93-5.22,6.61-3.99,5.03-7.12,11.47-12.52,15.27-4,2.81-8.98,5.28-13.56,2.54-2.06-5.45-6.53-7.54-11.48-5.6-4.76,1.87-8.27,7.23-10.96,11.19-.33.04-.78-.08-1.04,0-.83-7.2,2.95-13.95-3.13-19.59,13.99-4.65-7.06-13.36,5.22-18.06,2.85-1.09,11.62-2.31,14.87-2.54,14.31-1.02,28.5,1.33,42.52,3.56Z"/>
          <path class="cls-7" d="M261.46,112.4c1.14,1.17,1.26,2.06,1.57,3.56-14.02-2.23-28.21-4.58-42.52-3.56-3.25.23-12.02,1.45-14.87,2.54,4.53-4.92,13.41-6.14,19.83-7.12,10.09-1.54,28.31-3.28,36,4.58Z"/>
          <g>
            <path class="cls-6" d="M318.33,82.38c.64,1.26.98,2.75,2.09,3.82-.09.59-4.36,2.43-5.22,2.8-7.48,3.19-17.07,4.71-24.78,7.63l-7.04-12.98c.16-.78,13.2-7.11,14.35-7.38.74-.17,13.37-2.06,14.09-2.04,1.91.06,5.44,6.01,6.52,8.14Z"/>
            <path class="cls-21" d="M310.5,100.19c-.08-2.92,12.14-4.74,14.61-6.11,2.31,3.73,3.34,9.16,5.74,12.98l-15.39,4.83c-.57-2.18-4.92-10.28-4.96-11.7Z"/>
            <path class="cls-21" d="M304.24,101.72l4.17,12.98-13.83,4.33c-1.15-.39-3.94-11.86-4.96-13.74,4.32-2.81,10.12-2.83,14.61-3.56Z"/>
          </g>
          <path class="cls-6" d="M342.32,114.95c.77,15.27,4.57,19.52,0,36.64-.48-7.33.38-14.78,0-22.13-.21-4.07-3.75-12.42,0-14.5Z"/>
          <g>
            <path class="cls-6" d="M337.63,94.59c-.91,1.7,3.16,6.81,2.61,7.89-.15.29-2.47.54-2.61,1.02-.05.18,1.65,3.24,1.83,3.31.56.22,1.89-1.16,2.61-1.02.77.15,3.51,5.53,3.39,5.85-.69,1.91-3.35-1.16-3.13,3.31-3.75,2.08-.21,10.44,0,14.5.38,7.36-.48,14.81,0,22.13-.48,1.8-.93,4.44-1.57,6.11-.03.09-.8.95-1.04,1.53-24.05-7.29-50.92,12.68-74.35,4.07-1.21-.44-8.38-5.12-8.61-5.85-.38-1.25,3.16-21.7,3.13-25.95-.02-2.48-.43-6.64-1.57-8.9,1.13-1.42,5.56-5,5.74-5.34.42-.84-.89-.53-1.04-1.27-.3-1.5-.42-2.4-1.57-3.56,2.79-3.24,8.67-4.83,12.78-6.61,1.96-.85,1.95-1.2,4.17-2.04,5.85-2.2,7.73-4.94,11.22,1.53,1.01,1.88,3.8,13.35,4.96,13.74l13.83-4.33-4.17-12.98c2.17-.35,4.08-1.26,6.26-1.53.04,1.42,4.39,9.52,4.96,11.7l15.39-4.83c-2.4-3.82-3.43-9.24-5.74-12.98-.03-.04,1.13-.13.26-1.02-1.02-1.05-8.32-3.14-10.17-4.07.86-.37,5.12-2.21,5.22-2.8-1.11-1.06-1.45-2.56-2.09-3.82l5.22-4.07c6.51,6.36,8.8,8.31,14.09,16.28Z"/>
            <path class="cls-21" d="M317.02,112.4c.35.11,3.45,6.01,3.39,6.36-.15.87-6.26,3.13-7.04,2.8-.34-.14-3.49-6.02-3.39-6.36s6.68-2.91,7.04-2.8Z"/>
          </g>
          <path class="cls-11" d="M182.15,88.49c2.92,1.6,8.81,8.53,12.78,11.19,12.2,8.19,14.37,7.73,28.43,6.11l2.09,2.04c-6.42.98-15.29,2.21-19.83,7.12-12.28,4.7,8.78,13.42-5.22,18.06,6.08,5.64,2.3,12.39,3.13,19.59-3.58,1.02-6.58-.03-8.87-3.05-1.98-2.61-1.96-6.74-3.65-9.92-5.36-10.11-20.47-15.08-30.78-9.92-5.27,2.64-8.26,8.78-9.13,14.25-.45.35-3.84-3.17-4.43-3.56-.17-2.74-4.49-4.69-6.78-5.6,1.52-2.06,2.44-5.69,2.61-8.14.52-7.43-3.06-11.42-1.83-18.83-5.35-.25-18.49,16.68-20.35,16.79-.13,0-1.84-1.32-1.83-1.78-.14-1.87,18.79-21.25,21.65-23.66,10.76-9.06,16.93-12.5,32.09-12.21,2.27.04,8.1.53,9.91,1.53Z"/>
          <path class="cls-7" d="M238.5,55.92c6.97-.63,21.06-.06,17.22,10.43-2.29,6.24-25.93,13.72-32.61,18.57-3.51,2.55-13.51,11.81-7.3,15.77,2.96,1.89,27.58-.99,33.91-.51,3.06.23,6.69.92,9.65,1.78-12.03,1.08-24.01,2.43-36,3.82-14.07,1.62-16.23,2.08-28.43-6.11-3.97-2.66-9.86-9.59-12.78-11.19,9.71-15.15,38.22-30.93,56.35-32.57Z"/>
          <path class="cls-31" d="M238.5,55.92c-18.13,1.63-46.64,17.41-56.35,32.57-1.81-.99-7.64-1.48-9.91-1.53,1.45-7.99,9.47-13.09,15.13-18.32,4.38-2.2,14.55-9.41,18.52-10.18.52-.1.68,1.81,1.57,1.53,6.03-1.93,11.4-5.03,18-6.61,5.49-1.32,8.25-2.17,13.04,2.54Z"/>
          <path class="cls-28" d="M293.8,246.74c-3.37,3.32-6.68,6.73-9.91,10.18-3.61-1.15-24.64-.38-28.17,1.02,2.55-6.53,10.58-15.17,10.96-22.13.16-2.91-1.59-9.28-2.09-12.47l2.35-1.53c5.8,16.95,20.81,21.58,37.04,14.25-2.43,3.97-6.78,7.34-10.17,10.69Z"/>
          <path class="cls-24" d="M263.54,216.21c.68,2.29.67,4.75,1.04,7.12.5,3.19,2.24,9.56,2.09,12.47-.37,6.97-8.41,15.61-10.96,22.13-2.5.99-3.92,6.56-5.22,9.16-1.18,2.36-2.01,4.81-3.13,7.12-2.15,4.44-4.66,8.8-6.78,13.23l-6.78-3.05c.07-.14-.07-.37,0-.51,3.4-6.8,8.38-14.71,12-22.13,2.64-5.41,15.23-30.3,15.65-34.09.81-7.28-6.95-9.1-12.52-11.19,4.96-.01,9.64.31,14.61-.25Z"/>
          <path class="cls-9" d="M328.24,222.82c-11.19,12.29-26.87,25.97-29.22,42.74-.34.04-.71-.04-1.04,0-.94.1-4.02,1.08-4.43,1.02-1.92-.31-4.61-5.65-7.04-6.11-.1-.45.13-1.13,0-1.53-.56-1.75-1.02-1.53-2.61-2.04,3.23-3.45,6.54-6.86,9.91-10.18,11.83-7.35,21.7-17.13,30.78-27.48l3.65,3.56Z"/>
          <path class="cls-6" d="M334.5,168.88c-1.12,1.82-2.4,3.38-3.65,5.09-19.97-9.93-50.03,10.75-68.09-1.53-3.25-2.21-4.24-4.66-6-7.89-.15-.27-3.36-1.13-1.57-4.58,1.69-1.08,4.57,4.59,5.74,5.6,23.04,19.76,47.9-5.97,73.56,3.31Z"/>
          <path class="cls-9" d="M172.24,183.13c-.59,6.37-3.29,11.89-7.3,16.79-4.42,1.35-7.35,2.31-12.26,1.02-.12.79,3.68,2.5,3.91,2.54-2.9,2.99-8.03,2.92-12,3.05-1.79.06-3.99.14-5.74,0-4.07-.34-7.69-1.17-11.48-2.54-1.11-.4-2.74-.52-2.61-2.04,13.86.86,30.45-15.89,30.78-29,.76.44,5.19,1.85,5.48,2.04,4.18,2.69,5.51,5.21,11.22,8.14Z"/>
          <path class="cls-24" d="M174.33,172.95c1.13,1.86-3.01,2.68-3.13,3.82-.1.97,1.55,1.69,1.57,2.04.06,1.73-.38,2.77-.52,4.33-5.71-2.93-7.04-5.45-11.22-8.14-.29-.19-4.72-1.6-5.48-2.04.04-1.72.7-5.21-1.57-5.09.02-1.53.07-2.07-.52-3.56-.33-.83-1.48-1.83-2.09-2.54l.52-.51c.28.39,1.02,1.66,1.57,1.27l-.52-3.31c3.53,8.35,12.01,14.37,21.39,13.74Z"/>
          <path class="cls-11" d="M153.46,164.3c.59,1.49.54,2.03.52,3.56-.14,13.03-9.39-2.56-13.56-5.6.16-7.94,8.62,4.92,13.04,2.04Z"/>
          <g>
            <path class="cls-6" d="M153.98,167.86c-.14,13.03-9.39-2.56-13.56-5.6-6.29-4.57-16.51-7.46-24.26-5.6-.37.09-3.21,2.31-4.17,2.54-3.14.77-6.08-.13-8.61,1.02-.07.03-.12.08-.19.11.06.37.07.76.04,1.19-.29,3.66-2.28,7.46-1.77,11.12.73,5.18-5.56,8.49-8.62,3.67-.04-.06-.1-.11-.14-.17-9.94.96-18.25,6.42-21.19,16.68-.12.4-.22.83-.33,1.26,8.57-1.07,17.8,4.43,21.5,11.94,6.4-2.58,10.21-8.52,14.09-13.74,4.52,4.69,11.28,9.25,18,9.67,13.86.86,30.45-15.89,30.78-29,.04-1.72.7-5.21-1.57-5.09Z"/>
            <path class="cls-7" d="M89.03,177.02c5.82-.37,11.33,10.46,7.04,16.03-4.92,6.39-12.57-2.18-18.78-3.05,2.89-2.02,8.87-12.79,11.74-12.98Z"/>
            <path class="cls-12" d="M133.63,184.66l-9.39-7.12c.05-2.33,2.06-6.22,4.43-6.61,5.5-.92,9.77,10.64,4.96,13.74Z"/>
            <path class="cls-12" d="M111.46,167.86c5.08-1.53,6.01,11.73,1.57,13.74-6.02.55-4.49-12.85-1.57-13.74Z"/>
            <path class="cls-28" d="M133.63,184.66c-4.89,3.15-9.49-2.6-9.39-7.12l9.39,7.12Z"/>
          </g>
          <path class="cls-6" d="M138.85,123.09c-.1,1.68-.21,3.4-.26,5.09l3.91-1.53c-.17,2.45-1.09,6.08-2.61,8.14-3.2-1.26-8.91-1.16-10.96-3.56.58-.94,1.35-4.93.52-6.11.97-.47,1.73-2.14,4.43-2.54,1.65-.24,3.38.06,4.96.51Z"/>
          <path class="cls-28" d="M127.37,125.12c.58-.11,1.73.17,2.09,0,.83,1.18.06,5.17-.52,6.11-1.57,2.53-1.67.99-2.61,1.53-1.15.66-4.51,1.37-4.7,1.53-.14-1.12-.56-3.14-1.04-4.07,2.22-1.8,4.45-3.43,6.78-5.09Z"/>
          <path class="cls-12" d="M138.85,123.09c-1.58-.45-3.31-.75-4.96-.51-2.71.4-3.47,2.08-4.43,2.54-.36.17-1.51-.11-2.09,0,3.68-2.63,7.45-4.66,11.22-7.12,1.87.23.3,4.5.26,5.09Z"/>
          <path class="cls-24" d="M216.07,202.72c-4.69,5.14-5.43-6.41-6.78-9.67-1-2.39-3.15-4.46-4.17-6.87-9.88,6.19-23.37,1.83-32.87-3.05-.59,6.37-3.29,11.89-7.3,16.79,4.83-1.47,6.74-1.67,8.09-7.12,3.53,3.44,5.66,9.7,2.61,13.74-1.67-7.51-5.65-3.19-10.43-3.05-2.21.06-6.71.36-8.61,0-2.9,2.99-8.03,2.92-12,3.05-.91,6.29,7.34,5.2,4.43,13.23-7.94-1.31-14.43,1.55-21.21,4,11.96,4.19,26,5.55,37.33,11.26.02,0,.04,0,.05,0,12.65,1.84,21.73,8.96,32.87,14.25,2.48,1.18,10.9,3.59,12.26,4.58,7.41-15.54,5.46-34.11,5.74-51.14Z"/>
          <path class="cls-28" d="M113.17,228.65c-5.01-2.63-1.25-9.91,3.62-8.67-2.3-6.67-6.66-14.26-13.16-11.91-3.21,1.16-4.73,5.41-6.52,7.12,5.05,2.45,12.06,22.46,14.87,23.92,6.07,3.15,6.13-2.3,7.57-5.09-.29-.87-.45-1.77-.55-2.68-1.93-.93-3.93-1.69-5.83-2.69Z"/>
          <path class="cls-24" d="M138.85,206.54c-.64.84-3.2,1.18-3.91,1.53-.23.11.89,2.72-3.65,1.53-.52-.14,0-1.32-.52-1.53-1.62-.62-6.49.43-3.39-4.07,3.79,1.38,7.4,2.21,11.48,2.54Z"/>
          <path class="cls-25" d="M297.98,265.56l-1.04,9.67c-.37-.05-.86.83-1.83.51-.15-.05-1.31-2.11-1.83-2.54,2.3-4.37-4.93-5.73-6.26-9.67-.21-1.01-.3-2.11-.52-3.05,2.43.45,5.12,5.79,7.04,6.11.41.07,3.5-.91,4.43-1.02Z"/>
          <path class="cls-17" d="M293.28,273.2c-.91-.76-6.13-4.71-6.26-5.09-.34-.94.25-3.35,0-4.58,1.33,3.93,8.56,5.3,6.26,9.67Z"/>
          <path class="cls-24" d="M309.98,263.53c-3.78.3-7.33,1.57-10.96,2.04,2.35-16.77,18.02-30.45,29.22-42.74.04-.04,1-.46,1.04-.51-.92,4.66-3.61,9.52-6.26,13.48-2.33,3.47-11.63,11.98-12.52,13.74-1.5,2.97.04,10.49-.52,13.99Z"/>
          <g>
            <path class="cls-38" d="M312.59,263.02c3.78-.06,6.83.82,10.43,1.53h.52c.53,1.53-.91,6.49-1.57,7.63-2.25,3.94-6.12,1.69-9.39,2.04l-1.83-3.56-1.83,4.07c-4.32.31-7.33,1.15-12,.51l1.04-9.67c.34-.04.71.04,1.04,0,3.62-.46,7.18-1.73,10.96-2.04.6-.05,1.31-.49,2.61-.51Z"/>
            <path class="cls-31" d="M312.59,274.21c-.3.03-1.63.36-3.65.51l1.83-4.07,1.83,3.56Z"/>
            <path class="cls-36" d="M313.37,265.56c3.04-.45,9.07,4.61,3.13,4.07-1.67-.15-3.7-2.92-5.22-.51-.93-1.91.1-3.27,2.09-3.56Z"/>
          </g>
          <path class="cls-11" d="M151.89,161.25l-.52.51c-2.43-2.85-11.86-9.7-15.39-10.69-3.16-.88-11.03.74-10.17-3.56,3.81-2.04,8.44-4.58,11.48-7.63,2.37.84,4.85,1.2,6.26,3.82.04.08-1.08,1.44-1.04,1.53.53,1.24,3.85,2.13,5.22,4.58,1.42,2.54,2.04,8.47,4.17,11.45Z"/>
          <g>
            <path class="cls-23" d="M80.94,222.82c-.19,13.7,6.57,25.51,5.74,39.44-.62,10.35-7.03,18.86-6.26,28.75-2.01,3.19-1.93,2.47-1.04,6.18-.28.06-2.77,2.64-4.7,2.54.42-18,2.36-27.59,2.61-45.61.14-10.41-1.08-20.87-.52-31.29.86.28,3.14,0,4.17,0Z"/>
            <path class="cls-45" d="M93.46,283.88c.26,2.85-.76,10.82-1.04,14.25-.2,2.43-.76-3.11-1.04-.44-3.47-.37-8.62-1.24-12-.51-.89-3.7-.96-2.99,1.04-6.18,1.7-2.7,6.55-3.59,9.13-5.09.88-.51,1.75-2.1,2.35-2.54.55-.41.47-.45.78-1.02.16.5.75,1.14.78,1.53Z"/>
            <path class="cls-42" d="M89.81,215.19c-.67-2.68-2.61-5.29-1.57-8.14-.81-.3-11.49-.2-12.52,0,.41,1.92-.33,3.78-.52,5.6-.13,1.19-.73,4.39-.96,5.89.15.16.28.33.44.48,1.17,1.1,1.57,2.37,1.44,3.58.2.08.41.17.64.24.86.28,3.14,0,4.17,0,1.14,0,2.58.14,3.65,0,.94-.12,3.4-.66,4.17-1.02.05-.02-.01-.79,1.04-.51.08-.37.34-.69.52-1.02-2.38-2.03-.63-3.2-.52-5.09Z"/>
            <path class="cls-45" d="M91.37,297.69c-.05.5.05,1.03,0,1.53-.19,1.73.71,2.75-.52,4.07-.4.03-.58.08-.52.51-5.2,1.18-9,1.65-13.56-.51,1.57-1.53-.25-1.83-1.04-.51-.53-.45-.32.44-1.04-1.02l-.52-.51c.02-1.44.52-1.45.52-1.53,1.92.1,4.41-2.48,4.7-2.54,3.38-.73,8.53.14,12,.51Z"/>
            <path class="cls-23" d="M76.77,303.29c-.23-.11-1-.47-1.04-.51.79-1.32,2.61-1.02,1.04.51Z"/>
            <path class="cls-49" d="M84.59,222.82c.48,15.44,2.34,30.87,6.26,45.8,0,1.16-.41,3.26.52,4.07,0,.17,0,.34,0,.51v.51c.06,1.28.52.96.52,1.02-.1,2.19.14,4.43,0,6.61-.05.85-1.04,1.78,0,2.04-.6.45-1.47,2.03-2.35,2.54-2.58,1.5-7.43,2.38-9.13,5.09-.77-9.89,5.64-18.4,6.26-28.75.84-13.93-5.93-25.73-5.74-39.44,1.14,0,2.58.14,3.65,0Z"/>
            <path class="cls-47" d="M89.81,215.19c-.67-2.68-2.61-5.29-1.57-8.14,3.83,1.43,1.77,4.69,1.57,8.14Z"/>
            <path class="cls-32" d="M75.72,207.05c.41,1.92-.33,3.78-.52,5.6-1.54-2.41-3.12-4.91.52-5.6Z"/>
            <path class="cls-43" d="M88.77,221.8c.07,11.88,1.56,23.79,2.09,35.62.06,1.35-.04,2.72,0,4.07.07,2.36,0,4.76,0,7.12-3.92-14.93-5.78-30.35-6.26-45.8.94-.12,3.4-.66,4.17-1.02Z"/>
          </g>
          <g>
            <path class="cls-24" d="M363.72,111.89c-1.92,5.58-6.42,10.68-12.52,11.7-.71-3.28-4.55-5.73-1.57-9.16.74-.85,4.21-1.94,4.17-4.07,1.67,1.06,7.93,1.91,9.91,1.53Z"/>
            <path class="cls-6" d="M354.32,101.21c-.17,1.17.11,3.77-.26,4.07-1.63,1.32-2.93-4.67-4.43-2.04-.88-3.73-1.32-8.27,1.57-11.19-.07,3.37-.15,7.23,3.13,9.16Z"/>
            <path class="cls-7" d="M355.89,90.01c-1.25,3.65-1.03,7.44-1.57,11.19-3.28-1.93-3.2-5.79-3.13-9.16,1.84-1.86,2.11-1.96,4.7-2.04Z"/>
            <g>
              <path class="cls-6" d="M363.72,111.89c-1.98.39-8.24-.46-9.91-1.53-1.43-.91-3.78-5.46-4.17-7.12,1.5-2.64,2.8,3.36,4.43,2.04.37-.3.1-2.9.26-4.07.53-3.76.32-7.55,1.57-11.19,4.88-.15,7.81,9.29,7.83,13.48,8.26.17,7.95-14.25,6.78-20.1.6,0,1.53.27,1.57-.51.11.66,1.49,3.24,1.57,4.33.47,7.07-.54,22.85-9.91,24.68Z"/>
              <path class="cls-23" d="M356.67,93.06c1.44,2.7,3.93,6.18,2.09,9.16-1.16.33-4.97-8.37-2.09-9.16Z"/>
            </g>
            <g>
              <path class="cls-37" d="M363.72,67.62c.24.16,1.42,2.01,1.83,2.04,1.64.09.3-1.74-.78-2.04-.87-2.63,3.51,2.09,3.65,2.29,3.73,5.22,2.82,7.78,3.65,12.98-.04.78-.97.51-1.57.51-8.13,0-11.84-6.42-12.78-13.23l.78.51,1.3,2.54c.79-.29-.66-2.01-.78-2.54-.07-.29.01-.69,0-1.02l1.04.25c.19-.67-.88-1.47-1.04-1.78-1.01-1.92-2.27-3.3-3.39-5.09,3,.81,5.56,2.92,8.09,4.58Z"/>
              <path class="cls-26" d="M364.76,67.62c1.09.3,2.42,2.12.78,2.04-.4-.02-1.58-1.88-1.83-2.04.34.04.77-.07,1.04,0Z"/>
              <path class="cls-26" d="M358.5,70.68h.52c.13.54,1.57,2.25.78,2.54l-1.3-2.54Z"/>
              <path class="cls-26" d="M359.02,69.66c-.02-.5.01-1.02,0-1.53.16.31,1.23,1.11,1.04,1.78l-1.04-.25Z"/>
              <path class="cls-22" d="M361.37,68.64c4.9,3.62,6.49,8.39,8.87,13.74-4.49,1.4-11.21-14.04-8.87-13.74Z"/>
            </g>
          </g>
          <path class="cls-38" d="M216.59,277.27v.51c-1.82.81-3.82,1.09-3.13,3.31.06.21,3.17,2.77,3.39,2.8.87.13,3.42-2.06,4.17-1.53.59.42.06,1.75.26,2.04.35.79-1.03,1.92-1.04,2.04-3.12-.75-7.24-.73-10.43-.51-1.58-2.23-.99-5-1.04-7.63,0-.17,0-.34,0-.51,0-1.35.49-2.4.52-3.05l7.3,2.54Z"/>
          <path class="cls-36" d="M223.89,278.28c-.27,1.15-.4,6.19-1.04,6.87-.67.72-1.22-.27-1.57-.76-.2-.28.33-1.62-.26-2.04-.76-.54-3.31,1.66-4.17,1.53-.22-.03-3.33-2.59-3.39-2.8-.69-2.22,1.31-2.5,3.13-3.31.23-.1,4.71-.56,4.96-.51.4.09,1.76.8,2.35,1.02Z"/>
          <path class="cls-6" d="M223.89,278.28c-.59-.22-1.95-.93-2.35-1.02-.24-.05-4.73.41-4.96.51v-.51c2.35-4.4,7.38-53.54,10.17-53.43,5.3,16.65,1.16,37.57-2.87,54.45Z"/>
          <path class="cls-6" d="M213.98,147.51c-1.44,2.5.64.55,1.04,1.27.05.09-1.09,1.16-.52,2.04.38.59,1.74-.08,2.09.51.14.23,2,4.53,2.09,4.83,2.43,8.26-7.14,6.7-9.91,13.23-2.69-2.62-6.66-.76-8.09-1.53-.27-.15.17-5.81.26-6.11.05-.16-.06-.37,0-.51.17-.41,5.63-4.4,6.78-5.85,2.61-3.27,2.73-4.88,6.26-7.89Z"/>
          <path class="cls-24" d="M240.59,144.46c5.4-3.79,8.53-10.23,12.52-15.27,3.74,4.22.24,4.94-.52,6.87-1.18,2.96-4.1,13.6-8.09,13.99-4.75.47-4.32-2.39-3.91-5.6Z"/>
          <path class="cls-24" d="M219.72,145.98c2.27,2.35,2.25,9.86,3.13,12.98,2.17,2.74,4.83-1.78,5.22-3.82.05.77,1.11,4.02.52,4.83-.44.6-2.07.03-2.35.25-.83.68.62,1.26,0,1.53-1.57.68-6.42-4.37-7.57-5.6-.09-.3-1.95-4.61-2.09-4.83-.35-.59-1.7.08-2.09-.51-.57-.87.57-1.94.52-2.04-.4-.73-2.48,1.22-1.04-1.27.1-.09-.34-.47.52-1.02l5.22-.51Z"/>
          <path class="cls-25" d="M156.59,203.48c-.23-.04-4.04-1.75-3.91-2.54,4.91,1.3,7.84.33,12.26-1.02,4.83-1.47,6.74-1.67,8.09-7.12,3.53,3.44,5.66,9.7,2.61,13.74-1.67-7.51-5.65-3.19-10.43-3.05-2.21.06-6.71.36-8.61,0Z"/>
          <g>
            <path class="cls-35" d="M227.02,16.74c-1.75.96-1.79-2.85-2.87-3.05-.15-.03-2.27,1.47-2.61,1.53-.07.01-.43-.75-1.3-.51-25.5-31.54-78.09,16.54-50.61,43.25-1.89,1.54-3.29,1.99-2.09,4.58-6.4-5.64-7.58-9.14-8.35-17.3v-1.02c-.1-1.15,0-2.4,0-3.56,0-.84-.02-1.7,0-2.54.01-.5-.05-1.03,0-1.53.45.05.48-.13.52-.51.32-2.65-.45-6.25,1.57-7.63.46.05.47-.13.52-.51.75-5.72,6.66-11.24,10.43-15.27.59.09.49-.47.52-.51.15-.16.35-.34.52-.51s.35-.34.52-.51.34-.33.52-.51c.03-.03.62.07.52-.51,15.23-13.29,45.37-15.79,52.17,6.61Z"/>
            <path class="cls-44" d="M225.98,41.16c-.84,2.22-2.46,5.14-4.17,6.87l.26,1.27,2.35.51c-1.82.46-3.49,1.55-5.22,2.04-12.36,3.49-21.58,6.46-32.87,12.72-1.06-.77-2.76-.57-4.17-1.02.91-2.55,3.84-2.89,4.96-3.56s.6-1.84,1.04-2.04c1.1-.48,6.7-.76,7.3-1.02,6.53-2.77,6.75-4.33,14.61-5.6,1.04-.17,2.42-3.52,3.65,1.02,1.68-1.61,2.7-3.68,3.91-5.6,2.52-3.99,4-11.15,8.35-5.6Z"/>
            <path class="cls-44" d="M169.63,57.95c-1.89,1.54-3.29,1.99-2.09,4.58.43.38,1.08.91,1.84,1.5.51.05,1.02.1,1.54.12,2.35.08,4.03,1.85,4.53,3.86.79.38,1.49.62,2,.63.08,0,1.2-1.41,1.57,0,2.97-1.17,3.84-2.2,6.26-3.56-5.31-.34-11.9-3.48-15.65-7.12Z"/>
            <path class="cls-5" d="M159.2,40.65v-2.54c-.02.84,0,1.7,0,2.54Z"/>
            <path class="cls-5" d="M90.33,303.8c-.05-.43.12-.48.52-.51-.04.04.07.6-.52.51Z"/>
            <path class="cls-5" d="M159.2,45.23c-.03-.33.03-.69,0-1.02v1.02Z"/>
            <path class="cls-5" d="M74.68,301.76s-.53.14-.52-.51l.52.51Z"/>
            <path class="cls-5" d="M159.2,36.58c.04-.39.07-.56.52-.51-.05.38-.07.56-.52.51Z"/>
            <path class="cls-5" d="M174.33,10.63c.16-.15.31-.32.52-.51.1.58-.5.48-.52.51Z"/>
            <path class="cls-5" d="M102.33,296.16c-.08,0-.58,1.16-1.57.25.34-.53,1.26-.09,1.57-.25Z"/>
            <path class="cls-5" d="M173.81,11.14c.17-.16.32-.33.52-.51-.18.18-.35.34-.52.51Z"/>
            <path class="cls-5" d="M161.29,28.44s-.08-.6.52-.51c-.05.38-.07.56-.52.51Z"/>
            <path class="cls-5" d="M173.29,11.65c.18-.17.34-.33.52-.51-.17.17-.35.34-.52.51Z"/>
            <path class="cls-5" d="M172.76,12.16c.18-.19.35-.34.52-.51-.17.17-.37.35-.52.51Z"/>
            <path class="cls-5" d="M172.24,12.67c.19-.2.36-.35.52-.51-.03.03.07.6-.52.51Z"/>
            <polygon class="cls-5" points="425.02 290.5 425.28 290.75 425.02 291.01 425.02 290.5"/>
            <path class="cls-5" d="M417.19,291.01h.52c1.03-.08,1.03.59,0,.51l-.52-.51Z"/>
            <path class="cls-20" d="M218.68,15.21c-11.67,4.19-24.36,10.32-36.52,14.76-1.02-6.39,10.53-3.17,7.83-10.18l1.3,4.58c2.63-1.03,2.08-3.1,2.87-5.34-.67-2.64-6.86-.96-6.78,1.27-2.73.5-8.53,2.66-8.87,5.85-.51,4.74,2.8,1.11,1.04,4.83-4.86,1.78-10.07,3.36-15.13,4.58,1.73-10.91,12.6-22.78,23.22-26.46,9.84-3.41,25.07-3.49,31.04,6.11Z"/>
            <path class="cls-33" d="M220.24,14.7c-.12.03-1.22.39-1.57.51-5.97-9.6-21.2-9.52-31.04-6.11-10.61,3.68-21.49,15.55-23.22,26.46-1.77,11.21,2.46,20.15,12.52,25.44,1.5.79,3.66,2.05,5.22,2.54,1.41.45,3.12.25,4.17,1.02-.49.27-.82.38-1.04.51-5.31-.34-11.9-3.48-15.65-7.12-27.49-26.71,25.11-74.79,50.61-43.25Z"/>
            <path class="cls-20" d="M217.63,46.76c-1.21,1.92-2.24,3.99-3.91,5.6-1.23-4.54-2.61-1.18-3.65-1.02-7.86,1.26-8.08,2.82-14.61,5.6-.6.25-6.2.54-7.3,1.02-.44.19.05,1.37-1.04,2.04s-4.04,1.02-4.96,3.56c-1.56-.49-3.72-1.76-5.22-2.54,1.91.42,2.5-2.36,2.87-2.54.97-.5,3.94-.37,4.17-.51.36-.2.87-2.42,2.09-3.05,1.6-.84,6.29-.64,7.3-1.02,1.52-.57,5.71-4.6,7.83-5.6,5.16-2.43,10.64-1.93,15.65-4.07,2.38.98.05,1.04.78,2.54Z"/>
            <path class="cls-20" d="M189.98,19.79c2.7,7.01-8.84,3.79-7.83,10.18-.86.31-1.75.7-2.61,1.02,1.76-3.73-1.55-.09-1.04-4.83.34-3.19,6.14-5.35,8.87-5.85.85-.16,1.55-1.38,2.61-.51Z"/>
            <g>
              <path class="cls-35" d="M227.02,16.74c2.33,7.67,1.76,17.05-1.04,24.42-4.34-5.55-5.83,1.61-8.35,5.6-.73-1.51,1.59-1.57-.78-2.54-5.02,2.14-10.49,1.64-15.65,4.07-2.11.99-6.3,5.03-7.83,5.6-1.01.38-5.71.18-7.3,1.02-1.22.64-1.73,2.85-2.09,3.05-.24.13-3.2.01-4.17.51-.36.19-.96,2.97-2.87,2.54-10.06-5.29-14.29-14.23-12.52-25.44,5.06-1.22,10.27-2.8,15.13-4.58.86-.32,1.75-.7,2.61-1.02,12.16-4.43,24.85-10.57,36.52-14.76.34-.12,1.45-.48,1.57-.51.87-.24,1.24.52,1.3.51.34-.06,2.46-1.55,2.61-1.53,1.08.2,1.12,4.02,2.87,3.05Z"/>
              <path class="cls-35" d="M221.55,17.76c.49.85,1.29,2.13.52,3.05-.87,1.05-18.48,5.98-19.3,7.12-1.24,1.73,1.4,2.65.52,3.56-.19.19-4.95,1.58-5.22,1.53-1.04-.23-.47-2.47-2.61-2.54-.78-.03-6.88,3.28-8.35,3.56-.64.12-5.79.45-5.48-.76l39.91-15.52Z"/>
              <path class="cls-35" d="M202.5,36.07c-2.29.95-5.16,1.88-7.3,3.05l.26-3.05c-5.45,1.45-9.88,5.71-15.65,5.6-3.59-2.37,15.86-8.17,16.7-7.63.6.39-.08,1.68.52,2.04,1.6.94,6.06-5.01,5.48,0Z"/>
              <path class="cls-35" d="M193.11,41.16c.17-.05,1.73.53,1.83.51,1.88-.51,5.3-2.94,7.04-4.07-2.84,6.97-12.79,9.97-19.83,7.38-.34-1.87,10.04-3.57,10.96-3.82Z"/>
              <path class="cls-44" d="M201.98,37.6c-1.74,1.13-5.17,3.57-7.04,4.07-.09.02-1.66-.55-1.83-.51.31-.75,1.42-1.67,2.09-2.04,2.14-1.18,5.02-2.1,7.3-3.05-.1.84-.27.9-.52,1.53Z"/>
            </g>
            <path class="cls-4" d="M189.98,19.79c-1.06-.87-1.76.35-2.61.51-.08-2.23,6.11-3.91,6.78-1.27-.79,2.24-.24,4.31-2.87,5.34l-1.3-4.58Z"/>
          </g>
          <g>
            <path class="cls-23" d="M104.42,116.98c.99.1,5.68,3.17,6,3.05.44-.17.19-3.06,2.09-2.54,1.17,5.65,5.8,8.3,8.09,12.72.48.94.9,2.95,1.04,4.07-.04.04-.06.37-.52,1.02l-1.3-3.05c-.42.43-.89.83-1.3,1.27-1.12,1.17-14.68,22.34-15.13,23.66-7.91-3.95-16.42-14.08-16.7-22.9,3.76.07,4.27-3.87,0-3.56.17-.57-.05-1.06.78-1.53,5.04,1.36,10.18-1.63,12.78-5.85.18-.29,1.68-6.09,2.09-6.36.1-.07,1.65-.04,2.09,0Z"/>
            <path class="cls-18" d="M121.11,135.3c-3.1,4.33-.35,3.68,1.04,7.12-.92,2.3-.43,5.79-2.09,8.9-3.04,5.72-10.35,8.82-16.7,6.87.03-.33-.08-.78,0-1.02.45-1.32,14.01-22.49,15.13-23.66.42-.44.88-.84,1.3-1.27l1.3,3.05Z"/>
            <path class="cls-23" d="M86.68,134.28c-.03-.89-.19-2.92,0-3.56,4.27-.31,3.76,3.63,0,3.56Z"/>
            <path class="cls-23" d="M151.89,144.97c-.38,2.35-.3,3.69,0,6.11.73,5.92,1.51,7.92,5.22,12.72,6.86,8.87,18.61,11.33,27.91,4.07,1.59-1.24,5.99-8.09,6.52-8.14-1.78,6.94-10.14,12.75-17.22,13.23-9.38.63-17.87-5.39-21.39-13.74-1.93-4.58-1.33-9.28-2.61-12.72-.41-1.1-.54-2.09-2.09-2.04-.38-.44-.67-.65-1.04-1.02-.58-.57-.86-.99-1.57-1.53-5.7-4.34-15.71-7.59-21.91-3.31l3.13-.25c-2.06.4-2.62,1.47-3.65,3.05-.08.11-1.02.95-1.04,1.02-1.39-3.45-4.14-2.8-1.04-7.12.46-.64.48-.98.52-1.02.18-.16,3.54-.87,4.7-1.53-.23,3.81,9.14,1.8,12.26,2.54.49.12,6.53,4.06,8.09,5.09.6.39,3.98,3.91,4.43,3.56.87-5.47,3.86-11.61,9.13-14.25-4.69,4.66-7.27,8.64-8.35,15.27Z"/>
            <path class="cls-48" d="M137.29,139.88c-3.04,3.05-7.67,5.6-11.48,7.63-.66.35-3.66,2.74-4.17,1.78l1.57-7.89c1.03-1.58,1.59-2.65,3.65-3.05,3.85-.76,7.04.32,10.43,1.53Z"/>
            <path class="cls-40" d="M194.68,149.55c2.29,3.02,5.29,4.07,8.87,3.05.26-.08.71.04,1.04,0-.8,1.18-3.51,3.53-2.09,4.58-5.64,2.66-11.92-1.62-7.83-7.63Z"/>
            <path class="cls-18" d="M139.9,134.79c2.29.9,6.62,2.85,6.78,5.6-1.56-1.03-7.59-4.97-8.09-5.09-3.12-.74-12.49,1.27-12.26-2.54.94-.54,1.03,1,2.61-1.53,2.04,2.4,7.75,2.3,10.96,3.56Z"/>
            <path class="cls-34" d="M145.63,141.91l1.57,1.53c.37.37.66.58,1.04,1.02.63.73,1.07,1.69,2.09,2.04,1.27,3.44.67,8.14,2.61,12.72l.52,3.31c-.55.39-1.28-.88-1.57-1.27-2.13-2.98-2.75-8.91-4.17-11.45-1.37-2.45-4.69-3.34-5.22-4.58-.04-.08,1.09-1.45,1.04-1.53-1.41-2.62-3.89-2.97-6.26-3.82-3.39-1.21-6.59-2.28-10.43-1.53l-3.13.25c6.21-4.29,16.21-1.03,21.91,3.31Z"/>
            <path class="cls-18" d="M200.94,161.25c-.06.14.05.35,0,.51-1.99,2.47-8.89-2.08-9.39-2.04-.53.05-4.93,6.9-6.52,8.14-9.31,7.26-21.06,4.8-27.91-4.07,3.45-5.11-1.46-9.12-5.22-12.72-.3-2.41-.38-3.75,0-6.11,11.09-.01,22.33,2.53,32.09,7.63,2.36,1.24,5.44,5.06,7.83,4.07-1.32,3.74.88,1.44,1.04,1.53,1.95,1.05,4.47,4.98,8.09,3.05Z"/>
            <path class="cls-18" d="M157.11,163.79c-3.71-4.8-4.49-6.8-5.22-12.72,3.76,3.6,8.66,7.61,5.22,12.72Z"/>
            <path class="cls-19" d="M147.2,143.44l-1.57-1.53c.71.54.98.95,1.57,1.53Z"/>
            <path class="cls-27" d="M150.33,146.49c-1.02-.35-1.46-1.31-2.09-2.04,1.54-.05,1.68.94,2.09,2.04Z"/>
            <g>
              <path class="cls-23" d="M194.68,149.55c-4.09,6.01,2.18,10.3,7.83,7.63,4.75-2.24,8.59-12.41,14.09-14.5l-1.04-1.27c4.95-1.94,9.42.15,11.48,5.6.86,2.28.89,5.7,1.04,8.14-.39,2.04-3.05,6.55-5.22,3.82-.88-3.12-.86-10.63-3.13-12.98-2.32-2.4-3.59-.53-5.22.51-.86.55-.42.93-.52,1.02-3.53,3.01-3.65,4.62-6.26,7.89-1.16,1.45-6.61,5.44-6.78,5.85-3.62,1.93-6.13-2.01-8.09-3.05-.17-.09-2.37,2.22-1.04-1.53-2.39.99-5.47-2.83-7.83-4.07-9.75-5.11-20.99-7.65-32.09-7.63,1.07-6.63,3.66-10.61,8.35-15.27,10.31-5.16,25.42-.18,30.78,9.92,1.69,3.18,1.68,7.31,3.65,9.92Z"/>
              <path class="cls-23" d="M166.24,130.21c10.81-1.81,15.42,6.91,5.74,8.65-10.93,1.96-15.48-7.02-5.74-8.65Z"/>
              <path class="cls-10" d="M219.72,145.98l-5.22.51c1.63-1.04,2.89-2.91,5.22-.51Z"/>
              <path class="cls-41" d="M217.89,141.4c.64-.43.69,1.95,0,1.53-.4-.24-.45-1.22,0-1.53Z"/>
            </g>
          </g>
          <g>
            <path class="cls-6" d="M200.94,161.76c-.09.29-.54,5.96-.26,6.11,1.42.77,5.4-1.09,8.09,1.53,4.7,4.58,1.61,13.49-3.65,16.79-9.88,6.19-23.37,1.83-32.87-3.05.14-1.55.58-2.6.52-4.33-.01-.34-1.67-1.06-1.57-2.04.12-1.14,4.26-1.96,3.13-3.82,7.07-.48,15.44-6.29,17.22-13.23.5-.04,7.4,4.51,9.39,2.04Z"/>
            <path class="cls-7" d="M197.55,168.37c.86-.05,1.74.04,2.61,0-1.28,11.19-16.02,13.53-24.26,7.38,6.85.01,15.73-7,21.65-7.38Z"/>
          </g>
        </g>
      </g>
      <path class="cls-13" d="M241.55,169.09c1.95-.39,3.47-2.08,4.1-3.99s.46-4-.01-5.95c2.88,1.12,6.46-.08,8.11-2.71,1.65-2.63,1.19-6.42-1.04-8.57,2.06,1.96,5.37,1.25,8.05.31,2.14-.75,4.47-1.76,5.37-3.86,1.27-2.98-1.06-6.26-3.57-8.29s-5.54-3.92-6.36-7.06c1.1,4.26-17.53,18.43-20.34,21.7-4.14,4.81-3.85,20.35,5.69,18.43Z"/>
      <path class="cls-13" d="M106.65,100.7c-2-1.78-4.34-1.82-6.72-.91-.68.73-1.6,1.27-2.62,1.52-.21,2.46-1.63,4.43-2.92,6.52,2.96-.67,6.07-.75,9.05-.16-3.28,1.54-6.62,3.13-9.74,5,.56,1.26.59,2.79.03,4.04,3.84-1.27,7.78-2.09,11.81-1.87-5.49,2.07-10.28,5.83-13.55,10.57.24.65.49,1.3.73,1.96,7.53-.16,15.04-1.19,22.32-3.07,2.71-.7-6.4-21.84-8.39-23.61Z"/>
      <path class="cls-46" d="M254.5,159.68c-.07-7.06-.14-14.11-.21-21.17,1.25,4,2.74,8.31,6.33,10.62,1.19-3.4,1.14-7.21-.15-10.58.75,1.31,1.86,2.42,3.2,3.19-1.53-2.15-3.12-4.25-4.79-6.3-.6-.73-1.28-1.51-2.22-1.7-1.01-.2-2.01.34-2.87.89-3.48,2.25-6.94,5.31-8.94,8.87,5.35-1.98,9.61,12.08,9.65,16.17Z"/>
      <path class="cls-13" d="M160.33,120.65c.44-1.41,1.91-2.34,3.41-2.59,1.5-.24,3.03.08,4.5.46,11.68,3.06,22.12,10.34,28.84,20.09.27.4.58.83,1.06.94.42.1.85-.08,1.22-.29,1.21-.68,2.19-1.74,2.76-2.98-5.05-8.2-11.65-15.5-19.37-21.43,2.29,1.14,5.11,1.24,7.48.27-5.04-1-10.07-2-15.11-3,3.5-1.88,7.43-3.01,11.42-3.3-.22-1.97-2-3.5-3.95-4.1-1.95-.6-4.04-.44-6.07-.29-3.31.26-9.33.24-11.83,2.76-2.63,2.65-3.52,9.92-4.36,13.44Z"/>
      <path class="cls-13" d="M127.17,124.11c-2.52,1.26-4.86,3.17-5.8,5.76-1.3-.13-2.62.84-3.86.42-1.47-.51-1.54-2.66-.54-3.82,1-1.16,2.58-1.63,4.01-2.23,2.73-1.16,5.15-3.02,6.94-5.33-2.04-.47-4.13-.89-6.12-1.49,3.52-1.42,15.88-7.42,18.82-1.87,2.36,4.47-10.35,7-13.46,8.56Z"/>
      <path class="cls-2" d="M133.03,114.65c-3.55,1.44-7.36,2.19-10.91,3.6,2.21.34,4.42.69,6.63,1.03-4.45,1.41-8.36,4.37-10.84,8.22,1.06,1.04,2.78,1.21,4.23.81,3.09-.83,5.84-3.22,8.71-4.57,2.94-1.39,6.37-2.12,9.12-3.85,4.89-3.09,5.41-7.82,1.55-12.19-1.95,3.27-4.9,5.5-8.49,6.95Z"/>
      <path class="cls-29" d="M95.2,214.52c1.36-1.1,3.3.39,4.32,1.8,3.09,4.26,5.65,8.88,7.59,13.73.93,2.31,1.77,4.76,3.57,6.51,1.81,1.75,4.94,2.53,6.92.96,1.8-1.43,1.89-4.03,1.82-6.29-.12-3.87-.24-7.79-1.45-11.48-1.21-3.69-3.66-7.17-7.28-8.79-6-2.67-12.92.38-18.75,3.37-4.28,2.2-8.96,4.85-10.32,9.36-1.39-.67-2.79-1.34-4.18-2.01-3.65,16.26-.32,33.15-.63,49.79-.18,9.71-1.6,19.37-2.16,29.07-.16,2.87-.23-2.71,1.06-.12,1.28,2.59,4.33,4.58,7.18,3.78.89-22.79,1.64-37,2.25-59.8.29,14.94,1.42,29.87,3.36,44.7,4.01-22.66-1.99-46.83,6.22-68.4,1.23-3.22,2.78-6.72,1.58-9.96-4.88,3.09-9.5,6.56-13.82,10.35"/>
      <path class="cls-14" d="M86.61,221.34c-2.14-.17-4.27-.35-6.41-.52-3.24,19.6-5.54,39.35-6.89,59.16-.21,3.08-3.09,22.63,3.24,19.92,3.89-1.66,2.27-19.5,2.56-23.58.33-4.72,5.19-55.17,7.5-54.98Z"/>
      <path class="cls-14" d="M101.3,213.68c1.62,3.93,4.23,7.47,7.53,10.24,1.12.94,2.94,1.75,3.92.67.54-.59.49-1.48.36-2.25-.59-3.52-2.36-6.85-4.98-9.35-1.98-1.89-4.93-3.36-7.48-2.29.72.81,1.06,1.92.94,2.98"/>
      <path class="cls-2" d="M105.87,209.98c.71-.02,1.39-.49,1.64-1.14-8.74,2.41-16.94,6.67-23.86,12.39-.78.64-1.5,1.97-.6,2.44-4.01-.19-7.1-3.55-8.98-6.99-4.49-8.21-4.78-18.45-.75-26.89,2.68-5.62,7.39-10.53,13.44-12.51s13.42-.55,17.47,4.24c.67.79.55,4.55,1.06,5.9.8,2.13,2.33,4.2,3.76,5.96,2.98,3.66,6.85,6.66,11.27,8.52,2.02.85,4.17,1.49,6.38,1.52,2.21.03,4.39-.56,6.46-1.32,10.43-3.82,18.9-12.38,22.41-22.65,1.41-4.13,2.05-8.64.87-12.84-1.99-7.07-8.85-12.06-16.12-14.06-7.27-2-21.32-3.41-33.57,6.82"/>
      <path class="cls-2" d="M215.69,222.11c3.64,22.74-2.7,25.54-6.03,48.33-.97,6.63-1.42,14.02,2.73,19.38,3.51,4.52,9.76,6.52,15.58,6.03s11.24-3.15,15.97-6.46c-.9.66-1.5-1.14-1.13-2.17,6.89-19.32,19.29-36.33,27.65-55.09.54-1.21,1.07-2.56.66-3.81-.41-1.26-2.26-2.07-3.18-1.09.41-.54,1.5-.16,1.46.51"/>
      <path class="cls-2" d="M118.21,221.84c5.22.7,27.9,6.49,33.01,7.81,33.29,8.58,31.83,14.98,61.78,25.58"/>
      <path class="cls-2" d="M253.44,260.07c9.3-3.64,19.89-5.29,29.36-2.08,9.47,3.21,17.25,12.21,16.52,21.91,8.5-1.17,16.83-3.51,24.66-6.93-1.64-1.8.12-4.48,1.18-6.65.87-1.78,1.22-3.75,1.6-5.69,5.9-29.61,21.56-56.85,26.5-86.63,4.77-28.72-1.14-59.31-17.89-83.45-16.75-24.13-44.54-41.21-74.42-43.85-29.88-2.64-61.14,9.86-79.03,33.21-2.7,3.53-7.17,5.2-10.32,8.36,6.78-.8,13.7-.57,20.41.68-2.9.91-6.02,1.19-9.05.81,11.97-14.05,28.47-24.41,46.58-29.25,3.59-.96,7.33-1.74,10.47-3.69-3.62-3.44-9.37-3.39-14.4-2.75-30.72,3.93-57.76,21.48-81.2,41.13-.58.48-1.2.99-1.96,1.08-.77.09-1.52-.27-2.21-.61-13.04-6.32-28.42-7.96-42.56-4.53,5.79,5.36,10.23,12.09,12.82,19.44,1.54,4.36,2.82,9.42,6.98,11.64-.71-.75-1.43-1.49-2.14-2.24"/>
      <path class="cls-2" d="M208.69,115.76c-.93.16-1.85.33-2.78.49,12.67-6.86,27.61-9.7,42.02-7.98,3.89.46,7.82,1.28,11.17,3.23,3.36,1.96,6.08,5.22,6.51,9-12.96,9.68-21.06,25.39-35.96,31.94-1.19.52-2.77.9-3.64-.04"/>
      <path class="cls-2" d="M187.69,72.82c-12.39-1.63-23.52-10.32-27.81-21.71s-1.55-24.99,6.84-33.98c4.88-5.22,11.36-8.84,18.16-11.32,7.04-2.57,14.68-4,22.12-2.96,7.45,1.04,14.68,4.79,18.8,10.9,5.46,8.11,4.63,18.93.91,27.92-3.07,7.44-7.97,14.16-14.16,19.47-2.09,1.79-4.8,3.52-7.49,2.77.81-2.67,3.91-4.46,6.72-3.89"/>
      <path class="cls-2" d="M198.03,25.68c1-2.59-1.37-5.53-4.17-6.08s-5.66.66-8,2.25c-4.3,2.91-7.6,7.18-9.27,12-.93,2.69-1.32,5.78.1,8.26,2.06,3.59,7.01,4.48,11.23,4.12,5.99-.52,11.8-2.78,16.49-6.43-.62-1.05-2.7-.26-2.42.92"/>
      <path class="cls-2" d="M168.36,38.33c6.97-3.07,14.16-5.68,21.5-7.79-.83-.16-1.72-.03-2.46.36"/>
      <path class="cls-2" d="M172.61,46.33l-1.18.82c5.38-3.87,11.14-7.25,17.17-10.08-.69.05-1.39.1-2.08.16"/>
      <path class="cls-2" d="M209.73,116.93c18.54-5.5,39.17-4.09,56.73,3.88-1.48.96-3.77,1.01-4.82-.39s.54-3.9,2.16-3.19c-.9-.97-2.2-1.59-3.54-1.68l2,.67"/>
      <path class="cls-2" d="M101.79,90.87c-1.9-.22-3.65-1.43-4.49-3.1,14.54,1.53,27.76,8.64,41.8,12.63.69-1.34-1.69-2.25-2.16-3.67-.55-1.66,1.62-2.87,3.35-3.34.34.48.46,1.1.32,1.67"/>
      <path class="cls-2" d="M208.96,274.95c-.65-.08-1.3-.16-1.96-.25,13.32,1.69,26.12,7.11,36.44,15.45-1.81-.31-3.33-1.85-3.57-3.62.58.1,1.16.2,1.74.31"/>
      <path class="cls-2" d="M295.45,265.64l-1.2.02c9.37-3.47,20.06-3.44,29.41.07,3.16,1.19,6.43,3.04,7.49,6.16-1.21-.44-2.42-.88-3.63-1.31"/>
      <path class="cls-2" d="M297.8,277.15c-3.77-2.75-7.9-5.04-12.26-6.79.79.74,2.25.17,2.69-.81s.18-2.11-.15-3.13c-1.43-4.43-4.04-8.49-7.52-11.68.52.68,1.2,1.24,1.99,1.62"/>
      <path class="cls-2" d="M296.67,120.67c1.44-2.21,4.49-2.68,7.17-3.06,9.97-1.41,19.69-4.52,28.56-9.16-6.52-9.16-8.33-21.13-15.94-29.46-.73-.79-1.53-1.57-2.54-1.97-1.23-.5-2.62-.4-3.95-.25-10.72,1.19-23.9,4.97-32,12.22,5.9-.24,8.84-2.12,10.53,4.71,2.26,9.09,2.31,19.11,8.18,26.97Z"/>
      <path class="cls-2" d="M289.83,73.33c2.35,5.27,4.69,10.55,7.04,15.82-.64-1.63-1.27-3.27-1.91-4.9"/>
      <path class="cls-2" d="M295.74,68.61c3.4,4.48,5.7,9.74,6.67,15.23.68-.85.42-2.25-.52-2.82"/>
      <path class="cls-2" d="M316.5,89.46c1.97-1.29,9.83-3.63,9.54-3.69"/>
      <path class="cls-2" d="M321.2,96.21c2.46-1.1,4.92-2.19,7.37-3.29"/>
      <path class="cls-2" d="M309.01,112.06c.54,3.9,2.29,7.63,4.97,10.59-.01-.54-.33-1.07-.8-1.36"/>
      <path class="cls-2" d="M315.43,111.66c1.25,2.81,2.69,5.54,4.32,8.16.14.23.37.5.64.43s.05-.6-.12-.39"/>
      <path class="cls-2" d="M282.68,103.41c2.99-1.6,6.13-2.94,9.37-3.98.29.16.06.71-.27.61"/>
      <path class="cls-2" d="M285.64,109.72c2.49-2.1,5.53-3.58,8.75-4.26"/>
      <path class="cls-2" d="M349.49,128.93c6.13-2.33,11.18-7.2,13.63-13.13s2.23-12.84-.56-18.62c-1.34-2.77-3.95-5.59-7.06-5.09-3.07.5-4.61,3.92-4.93,6.93-.32,2.94.01,5.95.95,8.77,1.32,3.96,4.46,7.86,8.74,8.11,4.13.24,7.61-2.97,9.84-6.35,3.85-5.81,5.7-12.84,5.19-19.73-.12-1.69-.97-3.85-2.71-3.69.18.29.36.59.54.88"/>
      <path class="cls-2" d="M71,197.1l-2.46,1.12c2.86-1.08,5.77-2.14,8.82-2.48s6.3.12,8.79,1.86c1.84,1.29,3.14,3.17,4.38,5.02,2.75,4.1,5.51,8.47,5.87,13.35-.56.11-1.11-.52-.92-1.03-.16.69-.31,1.37-.47,2.06"/>
      <path class="cls-2" d="M168.37,128.52c-4.1-.14-8.07,1.87-10.9,4.76-4.66,4.76-6.44,11.78-5.48,18.28s4.43,12.49,8.99,17.34c2.83,3.02,6.37,5.78,10.56,6.19,3.92.38,7.72-1.35,11.08-3.35,3.18-1.89,6.24-4.1,8.47-7,5.85-7.57,4.81-18.86-1.03-26.43-3.53-4.58-8.65-8.02-14.37-9.41-2.69-.65-5.49-.86-8.25-.6-2.27.21-4.68.84-6.08,2.59"/>
      <path class="cls-2" d="M107.58,123.45c-7.94.23-14.61,7.4-15.24,15.08-.63,7.68,3.98,15.22,10.57,19.52,3.06,2,6.97,3.42,10.42,2.15,1.39-.51,2.59-1.42,3.67-2.4,2-1.83,3.7-3.99,4.81-6.43,1.55-3.42,1.87-7.26,1.66-10.99-.27-4.87-1.56-9.98-5.16-13.39-3.19-3.03-8.05-4.32-12.39-3.29-1.66.39-3.28,1.14-4.39,2.4"/>
      <path class="cls-2" d="M149.11,146.4c.84,1.25,1.46,2.75,1.15,4.21,1.57-1.01,1.9-3.22,1.23-4.93s-2.08-3.02-3.49-4.24c-4.91-4.25-10.75-8.28-17.33-8.15-5.08.1-13.65,3.24-16.85,7.06,11.53,2.84,26.58-6.96,35.29,6.04Z"/>
      <path class="cls-2" d="M188.16,108.44c-3.85,3.68-9.56,4.94-14.97,5.01,5.51-.48,11.1-.13,16.5,1.05-1.18,1.05-2.73,1.72-4.33,1.85,5.27,2.08,7.74,7.75,10.67,12.48,2.44,3.94,5.5,7.51,9.06,10.55-2.41.42-4.79,1.06-7.07,1.92-.52-2.47-2.23-4.53-3.89-6.47-3.49-4.08-7.04-8.22-11.57-11.17-6.53-4.25-13.89-5.03-21.49-4.26,1.43-5.24,1.3-10.33,7.1-12.49,3.43-1.28,18.87-3.89,20,1.54Z"/>
      <path class="cls-2" d="M107.74,158.86c-6.62,4.74-9.18,14.14-5.83,21.43.16-.58.32-1.15.48-1.73"/>
      <path class="cls-2" d="M113.55,172.76c-.56-.68-1.32-1.2-2.16-1.49-1.38,1.92-1.93,4.39-1.51,6.69.24,1.31.94,2.7,2.25,3.09,1.47.44,3.07-.67,3.63-2.07s.35-2.96.05-4.43c-.38-1.87-1.09-3.96-2.9-4.71-.46-.19-1.08-.25-1.41.13s.17,1.12.58.83"/>
      <path class="cls-2" d="M130.81,173.2c-2.21.58-3.65,2.79-3.94,4.99-.3,2.2.32,4.42.96,6.55.18.61.39,1.25.87,1.69,1.11,1.02,2.95.4,4.21-.45,2.42-1.64,4.39-4.06,4.95-6.87s-.53-6-3.01-7.55c-2.48-1.56-6.26-1.01-7.82,1.42.94.83,2.13,1.38,3.38,1.56"/>
      <path class="cls-2" d="M170.58,175.17c7.31,4.8,17.5,6.21,25.18,2,2.43-1.33,4.87-3.73,4.19-6.36"/>
      <path class="cls-2" d="M176.51,183.75c-.06,1.02,1,1.73,1.94,2.2,2.9,1.44,5.94,2.62,9.07,3.52"/>
      <path class="cls-2" d="M73.2,286.77c-22.45-1.09-45.01-2-67.34.53,2.54-.49,5.08-.98,7.63-1.47"/>
      <path class="cls-2" d="M360.36,79.73c-.25-.22-.52-.48-.55-.81-.04-.49.45-.86.9-1.1,3.18-1.68,7.18-1.8,10.46-.3-.58,1.75-2.8,2.59-4.66,2.21-1.85-.38-3.36-1.67-4.6-3.06-1.75-1.96-3.18-4.84-1.8-7.06.3-.48.77-.92,1.35-.96.51-.03.98.24,1.37.55,1.37,1.06,2.32,2.63,2.61,4.32-3.11-2.1-5.78-4.82-7.77-7.94,3.75,1.54,7.51,3.08,11.26,4.63,1.16.48,2.47,1.12,2.76,2.31-.63-.32-1.26-.63-1.89-.95.18,2.46,1.03,4.88,2.44,6.94,1,1.45,2.31,2.83,2.52,4.56.89,7.5-12.61-1.76-14.39-3.33Z"/>
      <path class="cls-2" d="M155.18,202.08c6.58,1.4,13.62.63,19.71-2.15-.36.09-.35.58-.23.92.58,1.69,1.79,3.09,2.64,4.67.85,1.58,1.3,3.57.33,5.08"/>
      <path class="cls-1" d="M120.73,201.99c.96,4.88,4.22,9.07,8.07,12.35,7.42,6.31,17.08,9.7,26.82,11.18,9.74,1.48,19.67,1.17,29.53.85,9.48-.3,19.21-.66,27.94-4.25-.43.57-.85,1.13-1.28,1.7"/>
      <path class="cls-1" d="M212.61,188.96c-1.3,0-2.59,0-3.89,0"/>
      <path class="cls-2" d="M92.43,136.5l-.4.72c-.67-1.93-1.84-3.67-3.35-4.99-.96,3.37-.27,7.2,1.8,9.99.97-1.05,1.62-2.41,1.84-3.84"/>
      <path class="cls-30" d="M81.61,306.23c2.41-.68,4.76-1.6,7-2.74,1.55-.79,3.09-1.71,4.19-3.1,2.41-3.06,2.11,1.11,1.72-2.82-2.15-21.56-3.09-43.25-2.81-64.92-2.33,13.74-4.66,27.5-6.01,41.39.75-7.78-.04-17.41-1.46-25.07-1.84,3.56-1.45,9.55-1.79,13.57-.49,5.72-.85,11.45-1.07,17.18-.46,11.69-.38,14.82.24,26.51Z"/>
      <path class="cls-2" d="M106.49,208.74c2.66.18,7.16,3.23,8.63,5.85,3.16,5.63,4.87,12.02,4.92,18.43.01,1.74-.11,3.55-1.01,5.06s-2.77,2.59-4.49,2.09c-1.03-.3-1.83-1.08-2.5-1.89-3.14-3.74-4.72-8.45-6.83-12.82s-5.15-8.72-9.8-10.43c-2.85,12.36-4.21,25.05-4.03,37.71.22,16.29,2.97,32.48,3.22,48.78.05,3.2-.66-3.73-3.65-2.39-1.64.74-8.4,1.49-9.87.29-1.96-1.6-1.29-.68-.91-3.46,1.38-10.34,11.28-8.12,19.43-10.79-5.98-1.16-2.62,7.49-1.95,10.53.1.48.21.98.05,1.44-.16.45-.55.78-.92,1.09-2,1.65-4.01,3.31-6.01,4.96-1.02.84-2.11,1.72-3.43,1.96-1.41.26-2.83-.24-4.15-.79"/>
      <path class="cls-3" d="M196.71,161.36c1.61,1.1,3.6,1.87,5.45,1.3,2.1-.65,3.37-2.79,4.54-4.72,2.11-3.5,4.49-6.82,7.1-9.93.85-1.01,1.93-2.09,3.22-1.94,1.63.19,2.39,2.15,2.89,3.78.76,2.53,1.68,5.01,2.75,7.41.68,1.54,1.79,3.28,3.41,3.16,1.19-.09,2.08-1.21,2.53-2.36,1.26-3.23.14-6.92-1.38-10.03-1.16-2.36-2.67-4.72-4.97-5.85-3.62-1.78-8.04.05-10.92,2.94-3.07,3.08-6.11,11.96-10.69,12.4-1.46.14-2.72-1.79-4.22-1.23-2.69,1-1.54,3.79.31,5.06Z"/>
      <path class="cls-38" d="M76.28,217.68c.72,1.55,1.61,3.13,3.08,3.99.23.14.48.25.75.27.47.03.9-.27,1.26-.57,3.41-2.86,5-7.85,9.05-9.66.51-.23,1.08-.42,1.38-.89.42-.64.16-1.5-.14-2.21-1.83-4.25-4.92-7.93-8.78-10.43-3.61-2.34-9.9-1.83-11.08,3.06-1.06,4.37,2.69,12.57,4.48,16.45Z"/>
      <path class="cls-36" d="M76.91,198.35c.11-.38-.24-.81-.62-.78-1.8,4.32-1.78,9.39.08,13.69.24.57.71,1.22,1.3,1.07.23-.05.41-.22.58-.38,2.82-2.69,5.32-5.71,7.43-9,.22-.35.45-.73.45-1.15,0-.31-.14-.6-.29-.87-.96-1.71-2.76-2.9-4.69-3.13s-3.95.52-5.28,1.95"/>
      <path class="cls-2" d="M235.11,155.09c-.79-.57-1.52.81-1.54,1.79-.06,2.61-.01,5.34,1.15,7.68,1.16,2.34,3.75,4.15,6.27,3.56,1.47-.35,2.66-1.42,3.62-2.6,1.46-1.81,2.54-4.27,1.71-6.45s-4.31-3.05-5.44-1.01c1.47.85,3.2,1.2,4.9,1.19,2.35-.01,4.77-.73,6.51-2.33s2.68-4.17,2.03-6.46-3.08-4.02-5.39-3.54c3.7,2.31,8.49,2.74,12.54,1.14,1.64-.65,3.19-1.65,4.19-3.11,1.63-2.41,1.39-5.94-.56-8.09-1.07-1.19-2.54-1.92-3.79-2.91-1.26-.98-2.39-2.4-2.31-4-.2.8-.4,1.61-.6,2.41.23-.47.46-.94.68-1.42"/>
      <path class="cls-2" d="M103.22,101.51c.24-.63-.27-1.35-.91-1.56s-1.33-.03-1.95.2c-2.97,1.11-5.38,3.65-6.36,6.69-.55,1.71-.52,3.9.93,4.93,1.06.76,2.5.63,3.74.25,2.39-.73,4.53-2.27,5.98-4.32-2.9-.29-5.9.7-8.08,2.66-.74.67-1.41,1.48-1.64,2.46-.53,2.21,1.49,4.42,3.72,4.75s4.43-.78,6.19-2.2c-.27-1.06-1.64-1.29-2.72-1.21-2.67.19-5.29.98-7.62,2.3-1.91,1.08-3.78,2.77-3.93,4.98-.14,2.04,1.32,3.96,3.16,4.8s3.98.78,5.96.35c1.18-.26,2.37-.66,3.3-1.44s1.58-1.99,1.43-3.21"/>
      <path class="cls-2" d="M283.58,49.83c-1.71,1.64-2.63,4.07-2.44,6.44,1.87-1.07.57-5.38,2.44-6.44Z"/>
      <path class="cls-2" d="M288.3,58.58c3.35-1.54,5.73-5.03,5.97-8.75"/>
      <path class="cls-2" d="M255.77,104.05c-1.67,2.09-3.35,4.18-5.02,6.27-.88.22,7.34,2.42,8.25,2.36,2.84-.19,5.68-.39,8.51-.58"/>
      <path class="cls-2" d="M100.73,79.61c3.33,4.13,5.98,8.84,7.79,13.85-1.23-2.83,5.96-6.65,5.89-9.74"/>
      <path class="cls-2" d="M348.27,133.84c2.95-.14,5.94,1.04,8.01,3.17"/>
      <path class="cls-2" d="M350.66,146.72c3.2,0,6.39,0,9.59,0"/>
      <path class="cls-2" d="M217.81,299.21c40.58.09,81.36.16,121.45-3.99-29.32-2.23-58.64-4.45-87.96-6.68,14.74-6.13,33.73-3.6,50.95-1.89,65.64,6.51,58.59,2.67,124.96,2.6,9.81-.01,19.76.18,29.16,2.05-5.22,1.31-10.43,2.62-15.65,3.94"/>
      <path class="cls-2" d="M205.39,283.84c-19.58-1.76-39.39-3.51-58.82-.48-15.89,2.47-32.06,8.11-47.66,4.19-1.74-.44-3.72-2.7-2.15-3.56"/>
      <path class="cls-2" d="M200.21,275.09c-6.65,3.29-14.34,3.48-21.75,3.47-22.86-.03-45.73-1.32-68.45-3.88,5.38-4.2,12.42-5.43,19.15-6.39,18.7-2.65,38.41-4.06,55.87,3.2,3.51,1.46,7.5,4.76,6.04,8.3-18.92,2.69-38.52.34-56.29-6.75,5.58-1.24,11.3-1.83,17.02-1.77.69,0,1.49.08,1.88.66s-.33,1.6-.87,1.16"/>
      <path class="cls-2" d="M80.88,305.44c-4.32-2.07-7.51-6.41-8.22-11.19-.33-2.17-.17-4.38-.02-6.57,1.56-22.13,3.12-44.26,4.67-66.39"/>
    </g>
  </g>
</svg>