<?xml version="1.0" encoding="UTF-8"?>
<svg id="Ebene_2" data-name="Ebene 2" xmlns="http://www.w3.org/2000/svg" xmlns:xlink="http://www.w3.org/1999/xlink" viewBox="0 0 437.63 306.77">
  <defs>
    <style>
      .cls-1, .cls-2 {
        fill: none;
      }

      .cls-3 {
        fill: #bde042;
      }

      .cls-4 {
        fill: #ed5627;
      }

      .cls-5 {
        fill: #fee132;
      }

      .cls-6 {
        fill: #9c4c27;
      }

      .cls-7 {
        fill: #a3cb30;
      }

      .cls-8 {
        fill: #e7a35f;
      }

      .cls-9 {
        fill: #b3641e;
      }

      .cls-10 {
        fill: #bababd;
      }

      .cls-11 {
        fill: #6e290b;
      }

      .cls-12 {
        fill: #f26d35;
      }

      .cls-13 {
        fill: #e09a07;
      }

      .cls-14 {
        fill: #c08551;
      }

      .cls-15 {
        fill: #c3764c;
      }

      .cls-16 {
        fill: #85ad24;
      }

      .cls-17 {
        fill: #d6d8da;
      }

      .cls-18 {
        fill: #fac70c;
      }

      .cls-19 {
        fill: #d0ad64;
      }

      .cls-20 {
        fill: #fff;
      }

      .cls-21 {
        fill: #d0edef;
      }

      .cls-22 {
        fill: #d29353;
      }

      .cls-23 {
        fill: #bc8907;
      }

      .cls-24 {
        fill: #4d1900;
      }

      .cls-2 {
        stroke: #000;
        stroke-miterlimit: 10;
      }

      .cls-25 {
        fill: #f7b70b;
      }

      .cls-26 {
        fill: #c01201;
      }

      .cls-27 {
        fill: url(#Unbenannter_Verlauf_276);
      }

      .cls-28 {
        fill: url(#Unbenannter_Verlauf_278);
      }

      .cls-29 {
        fill: url(#Unbenannter_Verlauf_275);
      }

      .cls-30 {
        fill: url(#Unbenannter_Verlauf_319);
      }

      .cls-31 {
        fill: #d08601;
      }

      .cls-32 {
        fill: #853919;
      }

      .cls-33 {
        fill: #b7633b;
      }

      .cls-34 {
        fill: #d63216;
      }

      .cls-35 {
        fill: #6d9c16;
      }

      .cls-36 {
        fill: #598d0f;
      }

      .cls-37 {
        fill: #f7d78d;
      }

      .cls-38 {
        fill: #eab775;
      }
    </style>
    <linearGradient id="Unbenannter_Verlauf_275" data-name="Unbenannter Verlauf 275" x1="467.12" y1="-823.87" x2="462.63" y2="-789.8" gradientTransform="translate(-256.6 794.24) scale(.88)" gradientUnits="userSpaceOnUse">
      <stop offset="0" stop-color="#fcc30b"/>
      <stop offset="1" stop-color="#f5aa05"/>
    </linearGradient>
    <linearGradient id="Unbenannter_Verlauf_276" data-name="Unbenannter Verlauf 276" x1="512.54" y1="-807.73" x2="477.04" y2="-771.96" gradientTransform="translate(-256.6 794.24) scale(.88)" gradientUnits="userSpaceOnUse">
      <stop offset="0" stop-color="#e0a35f"/>
      <stop offset="1" stop-color="#f8c878"/>
    </linearGradient>
    <linearGradient id="Unbenannter_Verlauf_319" data-name="Unbenannter Verlauf 319" x1="235.4" y1="140.03" x2="317.47" y2="216.77" gradientUnits="userSpaceOnUse">
      <stop offset="0" stop-color="#f7b70b"/>
      <stop offset=".96" stop-color="#e19b07"/>
      <stop offset="1" stop-color="#e09a07"/>
    </linearGradient>
    <linearGradient id="Unbenannter_Verlauf_278" data-name="Unbenannter Verlauf 278" x1="521.33" y1="-663.59" x2="556.93" y2="-619.53" gradientTransform="translate(-256.6 794.24) scale(.88)" gradientUnits="userSpaceOnUse">
      <stop offset="0" stop-color="#eb411c"/>
      <stop offset="1" stop-color="#cd250d"/>
    </linearGradient>
  </defs>
  <g id="versicherungen">
    <g>
      <path class="cls-36" d="M119.78,246.38l-23.78-17.97c11.67,17.16,21.6,36.52,29.43,57.35-1.35-.29-2.7-.59-4.05-.88,27.02-7.39,54.46,9.19,82.01,8.88,26.25-.3,53.21-15.79,77.99-3.97-3.13-1.37-6.26-2.73-9.39-4.1,4.17-23.93,8.34-47.87,12.52-71.8-1.51,8.3-7.1,14.28-13.07,16.8s-12.37,2.16-18.62,1.78c-43.92-2.67-87.83-5.34-131.75-8,5.05-1.61,10.42-1.37,15.38.7"/>
      <path class="cls-21" d="M216.05,150.76c-30.29-30.61-76.65-30.76-115.24-47.22-16.17-6.89-31.09-16.75-45.91-26.56-15.15,44.46-26.79,90.31-34.74,136.9,61.7,9.49,124.41,11.29,186.5,5.35-6.14-16.37-10.53-33.5-13.03-50.95"/>
      <path class="cls-21" d="M196.26,0c34.1,18.33,74.06,17.01,112.12,15.27-24.06,53.91-46.08,109.71-72.46,162.33-7.46,14.88-25.37,21.8-34.62,3.11-4.93-9.97-3.63-25.92-4.38-36.95-1.04-15.34-1.77-30.71-2.18-46.09-.44-16.28-.54-32.57-.29-48.86.08-5.08,3.96-47.68,1.8-48.82Z"/>
      <path class="cls-21" d="M282.55,143.23c35.49-15.62,71.6-29.6,108.2-41.89,5.17,28.83,11.61,57.39,19.29,85.55-41.94-3.01-84.18-1.09-125.74,5.73,51.11,9.98,102.22,19.96,153.32,29.95-6.11,10.77-13.32,20.83-21.45,29.92-43.11-17.54-87.39-31.72-132.39-42.38,5.22-3,11.68-3.35,17.15-.94"/>
      <g id="Generatives_Objekt" data-name="Generatives Objekt">
        <path class="cls-10" d="M323.72,293.69c-.14.18-1.08.31,0,.56l.78,1.12-4.42,3.65-1.04-.56c.32-9.35,2.24-21.31,10.66-26.08.93-.53,5.76-1.07,5.98-1.4.59-.91.94-18.63,1.56-22.16.06-.35-.03-.76,0-1.12.26-.63.37-1.31.52-1.68l92.05,19.91-83.47-1.4-.52,1.12,15.86,7.57-28.86,5.33c-1.01.55-7.19,12.8-9.1,15.15Z"/>
        <path class="cls-20" d="M352.84,240.96c-2.93-3.59-7.4-3.66-11.44-5.05.8-2.61,1.43-5.2,2.08-7.85,3.15.48,4.49-.89,8.06,0,4.15,1.03,17.4,6.87,21.84,8.98,2.54,1.21,4.71,4.57,8.58,4.21-9.71.58-19.4-.25-29.12-.28Z"/>
        <path class="cls-10" d="M112.58,249.37c-.33,5.74,1.32,12.56,3.12,17.95.1.28-.03.64.52.56.05.35-.07.81,0,1.12.46,1.88,1.36,4.51,3.12,5.05.6,2.66-.19,4.02,0,4.77.11.44,4.72,4.55,3.12,7.85-2.55-1.98-3.81-6.56-5.2-8.69l-4.68-15.15-9.88-26.36c2.89,4.11,6.67,9.09,9.88,12.9Z"/>
        <path class="cls-20" d="M305.51,30.6c1.84-3.08,4.67-8.17,7.02-10.66,1.38-1.46,8.05-7.99,9.62-5.89,1.12,1.5-15.14,15.32-16.64,16.55Z"/>
        <path class="cls-20" d="M117.26,277.98c-3.42-5.25-7.54-9.77-11.96-14.02l7.28-1.12,4.68,15.15Z"/>
        <path class="cls-10" d="M352.84,240.96c-1.03,0-2.09.01-3.12,0-.12-.92-1.42-.55-2.08-.56-2.59-.04-5.21.03-7.8,0,.52-1.52,1.08-2.92,1.56-4.49,4.04,1.39,8.51,1.46,11.44,5.05Z"/>
        <path class="cls-17" d="M335.68,104.65c-1.03.46-13.44,7.15-12.48,3.65.39-1.41,10.62-3.04,12.48-3.65Z"/>
        <path class="cls-17" d="M346.08,100.16v.56c-3.42,1.53-6.85,2.78-10.4,3.93,3.21-1.43,6.55-4.52,10.4-4.49Z"/>
        <path class="cls-17" d="M119.34,274.06c-1.76-.54-2.66-3.17-3.12-5.05,2.78-.37,2.69,3.14,3.12,5.05Z"/>
        <path class="cls-17" d="M92.56,228.06c1.87-.31,2.37,1.76.52,1.12-.15-.05-1.03-.84-.52-1.12Z"/>
        <path class="cls-20" d="M347.64,99.6c-.19.1-.95.85-1.56,1.12v-.56c.05-.97,1.03-.41,1.56-.56Z"/>
        <path class="cls-20" d="M349.72,240.96c-.66,0-1.96.36-2.08-.56.66.01,1.96-.36,2.08.56Z"/>
        <polygon class="cls-17" points="72.8 225.25 73.32 225.25 73.58 225.53 73.32 225.81 72.8 225.25"/>
        <path class="cls-17" d="M69.16,224.69h.52c1.03-.09,1.03.65,0,.56l-.52-.56Z"/>
        <path class="cls-17" d="M116.22,267.89c-.55.08-.42-.28-.52-.56.47-.06.46.15.52.56Z"/>
        <path class="cls-20" d="M323.72,294.25c-1.08-.25-.14-.39,0-.56v.56Z"/>
        <path class="cls-20" d="M302.91,34.53c.13-.23-.3-1.17.52-1.12.32,1.08-.48,1.06-.52,1.12Z"/>
        <path class="cls-20" d="M304.99,31.16s.11-.22.52-.56c-.07.12.08.65-.52.56Z"/>
        <path class="cls-20" d="M302.39,35.09c-.09-.65.5-.53.52-.56-.08.14.07.65-.52.56Z"/>
        <path class="cls-20" d="M304.47,31.72c-.09-.64.45-.5.52-.56l-.52.56Z"/>
        <polygon class="cls-20" points="302.39 35.09 302.13 35.65 301.87 35.37 302.13 35.09 302.39 35.09"/>
        <polygon class="cls-20" points="304.47 31.72 304.21 32.28 303.95 32 304.21 31.72 304.47 31.72"/>
        <polygon class="cls-20" points="303.43 33.41 303.69 32.85 303.95 33.13 303.69 33.41 303.43 33.41"/>
        <polygon class="cls-20" points="356.22 96.23 356.48 96.51 356.22 96.79 356.22 96.23"/>
        <polygon class="cls-20" points="353.88 97.36 354.66 96.79 354.92 97.08 354.14 97.36 353.88 97.36"/>
        <path class="cls-20" d="M353.88,97.36l-.78.56c-1.03.09-1.03-.65,0-.56h.78Z"/>
        <polygon class="cls-20" points="350.76 98.48 351.54 97.92 351.8 98.2 351.02 98.48 350.76 98.48"/>
        <path class="cls-20" d="M350.76,98.48c-.04,1.01-1.15.37-1.56.56.08-.02.42-1.02,1.56-.56Z"/>
        <path class="cls-20" d="M349.2,99.04c-.78.37-1.26.41-1.56.56.22-.06.71-.38,1.56-.56Z"/>
        <path class="cls-20" d="M337.24,248.81h-.52c.16-.38.39-.81.52-1.12-.03.36.06.77,0,1.12Z"/>
        <polygon class="cls-20" points="105.3 263.96 104.78 263.68 105.04 263.4 105.3 263.68 105.3 263.96"/>
        <g>
          <path class="cls-37" d="M254.03,264.52c-2.25,1.69-4.27,4.7-7.28,5.61,0-.04-.45.19-.52-.56-.16-1.89-.5-1.6-.52-1.68-.03-.17.45-2.12,0-2.8,2.84.11,5.49-.73,8.32-.56Z"/>
          <g>
            <path class="cls-16" d="M231.15,84.45c.39.99,1.2,2.68,2.08,3.37.03,1.17-.65,3.35,0,5.05-2.37.45-7.27-1.73-9.36-2.8-5.44-2.79-11.32-6.58-17.16-9.54s-10.89-5.9-16.64-8.41c-4.53-1.98-9.01-3.25-13.52-5.05-3.96-1.58-8.02-2.91-11.96-4.49-4.47-1.78-8.81-3.73-13-6.17.26-.66.93-1.43,1.04-1.68,1.29,1.5,5.68-.45,7.28-.56l20.02,2.8c20.7,2.39,39.22,8.18,50.44,29.17l.78-1.68Z"/>
            <path class="cls-7" d="M203.59,28.36c.29,4.04,2.71,2.17,4.16,2.8,5.15,2.27,8.14,6.01,11.44,10.66-3.16,5.19-10.44.63-12.74,1.68-.42.19-4.02,7.08-5.46,7.85-6.17-1.83-14.88-1.59-21.32-1.68-1.82-.91-1.71-4.48-2.34-5.05-.2-.18-3.51-.94-4.94-1.68-1.52-.79-.86-1.57-2.34-2.24-.37-.17-6.24,0-7.02-2.8,12.94-11.33,24.97-11.18,40.56-9.54Z"/>
            <path class="cls-29" d="M163.54,65.94c-.05.17.05.39,0,.56-3.56,11.68-6.54,24.06-5.2,36.46l-6.76,12.9c-1.18-3.43-2.82-7.13-3.64-10.66-4.07-17.46-3.29-29.93,2.6-46.56l13,7.29Z"/>
            <path class="cls-16" d="M224.39,49.11c.11.29.84,5.14,1.04,6.17.1.52.44.61.52,1.12-3.63,1.22.16,8.02-2.6,10.66-3.27-3.37-11.28-8.87-15.6-10.1,3.47-1.52-6.1-5.41-6.76-5.61,1.44-.77,5.04-7.66,5.46-7.85,2.3-1.05,9.58,3.51,12.74-1.68.83,1.17,4.9,6.54,5.2,7.29Z"/>
            <path class="cls-35" d="M169.79,46.31c-.32.56-2.18,3.38-1.3,3.93,3.78.08,7.4-.61,11.18-.56,6.45.09,15.15-.15,21.32,1.68.66.2,10.23,4.09,6.76,5.61-11.13-3.17-36.08-3.62-47.84-2.8-1.6.11-5.99,2.06-7.28.56,1.94-4.42,1.66-5.57,4.68-10.1.68,1.08-.8,1.31,1.3,1.68,3.53.63,7.62.36,11.18,0Z"/>
            <path class="cls-16" d="M172.39,42.94c-.4,1.12-2.12,2.53-2.6,3.37-3.56.36-7.65.63-11.18,0-2.1-.37-.62-.6-1.3-1.68,1.94-2.9,3.12-4.45,5.72-6.73.79,2.8,6.65,2.64,7.02,2.8,1.48.67.82,1.46,2.34,2.24Z"/>
            <path class="cls-13" d="M164.59,62.58c.33,1.29-.76,2.43-1.04,3.37l-13-7.29c.27-.77.74-1.49,1.04-2.24,4.2,2.44,8.53,4.39,13,6.17Z"/>
            <path class="cls-16" d="M207.75,31.16c-1.45-.64-3.88,1.24-4.16-2.8.62.06,4.66-3.39,4.16,2.8Z"/>
            <path class="cls-22" d="M158.34,102.97c1.87,17.24,12.21,33.06,29.64,31.97-6.53,4.57-13.28,6.62-19.24,10.66-.17.11-.89-.11-1.04,0-7.44-8.22-12.39-18.51-16.12-29.17-.06-.16.06-.4,0-.56l6.76-12.9Z"/>
            <path class="cls-7" d="M207.75,56.97c4.32,1.23,12.33,6.73,15.6,10.1.56.58,2.86,2.98,3.12,3.37.36.53.75,1.1,1.04,1.68.36.73.74,1.49,1.04,2.24.87,2.18,1.43,7.14,2.6,10.1l-.78,1.68c-11.23-20.99-29.74-26.78-50.44-29.17l-20.02-2.8c11.76-.82,36.71-.37,47.84,2.8Z"/>
            <path class="cls-15" d="M223.87,90.06c-.72.66-1.13,2.52-1.56,3.37-1.15,2.23-2.83,4.11-4.16,6.17-.41-1.69-1.61-1.91-2.6-2.8,5.48-7.9-.33-15.42-7.28-7.29-1.82-1.61-4.16-2.52-6.24-3.65l4.68-5.33c5.84,2.95,11.72,6.75,17.16,9.54Z"/>
            <path class="cls-8" d="M176.55,67.06c.89.45,1.47,1.73,2.08,2.24l-1.04,3.37c-.05-.06-.87-.43-1.04-.56-3.69-2.77-8.6-4.26-13-5.61.05-.17-.05-.39,0-.56.28-.93,1.37-2.08,1.04-3.37,3.94,1.58,8,2.91,11.96,4.49Z"/>
            <path class="cls-9" d="M190.07,72.11c-3.59,2.34-8.42-.25-11.44-2.8-.61-.52-1.19-1.8-2.08-2.24,4.51,1.8,8.99,3.07,13.52,5.05Z"/>
            <path class="cls-16" d="M179.67,49.67c-3.78-.05-7.4.64-11.18.56-.88-.55.98-3.37,1.3-3.93.48-.84,2.2-2.25,2.6-3.37,1.43.74,4.74,1.5,4.94,1.68.63.57.52,4.14,2.34,5.05Z"/>
            <path class="cls-36" d="M225.95,56.41c.73,4.66.52,9.33.52,14.02-.26-.38-2.56-2.79-3.12-3.37,2.76-2.63-1.03-9.43,2.6-10.66Z"/>
            <path class="cls-24" d="M215.55,96.79c-2.39-2.15-5.73-5.92-7.28-7.29,6.95-8.13,12.76-.61,7.28,7.29Z"/>
            <g>
              <path class="cls-27" d="M176.55,72.11c-3.81-.34-5.66,1.65-6.76,5.33l13.78,7.57c.36-2.79-3.62-3.21-4.42-4.77-1.65-3.19,1-4.48-1.56-7.57l1.04-3.37c3.02,2.55,7.85,5.15,11.44,2.8,5.75,2.52,11.05,5.59,16.64,8.41l-4.68,5.33c2.08,1.13,4.42,2.03,6.24,3.65,1.55,1.37,4.89,5.14,7.28,7.29.99.89,2.19,1.11,2.6,2.8-5.46,8.48-12.95,19.85-19.76,26.93-3.09,3.21-6.8,5.89-10.4,8.41-17.43,1.09-27.77-14.74-29.64-31.97-1.34-12.4,1.64-24.78,5.2-36.46,4.41,1.35,9.31,2.84,13,5.61Z"/>
              <path class="cls-24" d="M176.55,72.11c.17.13.99.5,1.04.56,2.56,3.1-.09,4.38,1.56,7.57.8,1.56,4.78,1.98,4.42,4.77l-13.78-7.57c1.1-3.68,2.95-5.67,6.76-5.33Z"/>
              <path class="cls-15" d="M172.13,111.38c1.4,3.46,16.5,5.88,16.38,7.57-5.76,4.29-14.48-.87-16.38-7.57Z"/>
            </g>
            <g>
              <path class="cls-7" d="M167.71,145.6c-1.93,1.43-4.28,5.75-5.72,7.85-2,2.93-3.35,6.16-5.46,8.98l-16.12-22.44,11.7,24.4-27.04,23.84c-5.03-6.38-8.92-14.23-14.56-19.63-.59-1.38-2.04-6.59-2.34-6.73-.51-.24-7.4,3-7.54,3.65-.67,3.09,12.07,29.45,14.56,33.66,28.86,48.72,77.28,71.91,130.53,68.72.02.09.36-.21.52,1.68-59.84,5.88-108.42-16.11-143.01-68.72-5.28-8.04-11.53-23.77-16.12-29.73-2.23-2.9-3.33.64-4.16-1.96,23.42-15.7,42.41-23.1,62.4-45.44,2.11-2.36,4.94-4.12,6.24-7.29,3.73,10.66,8.68,20.94,16.12,29.17Z"/>
              <path class="cls-7" d="M82.94,169.16c.83,2.6,1.93-.93,4.16,1.96,4.59,5.96,10.84,21.7,16.12,29.73,34.59,52.61,83.17,74.6,143.01,68.72.07.75.52.52.52.56-.03,1.62.51,4.54-.78,5.61-.41.34-8.78,1.51-10.14,1.68-17.9,2.32-48.93.99-66.56-3.37-34.08-8.42-58.01-38.69-76.45-68.72l-15.6-32.25c.88-2.97,4.38-3.03,5.72-3.93Z"/>
              <path class="cls-35" d="M169.27,274.06c.86,4.03,2.11,11.24,5.2,14.02-23.99-5.13-45.59-19.35-61.88-38.71-3.21-3.81-6.99-8.79-9.88-12.9-12.59-17.92-25.36-40.22-25.48-63.39l15.6,32.25c18.44,30.02,42.36,60.3,76.45,68.72Z"/>
              <path class="cls-16" d="M161.98,153.45c4.31.18,3.95-7.48,6.76.84,2.53,7.51,6.74,39.6,5.2,47.12-6.37,31.09-39.77-1.62-48.88-13.18l27.04-23.84-11.7-24.4,16.12,22.44c2.11-2.81,3.46-6.04,5.46-8.98Z"/>
              <path class="cls-3" d="M110.5,168.6c11.21,26.09,38.84,58.1,61.36,73.49,5.78,3.95,9.13,6.14,15.6,8.98,14.61,6.39,42.6,13.41,58.24,14.02.45.68-.03,2.63,0,2.8-53.25,3.19-101.67-20-130.53-68.72-2.49-4.21-15.24-30.57-14.56-33.66.14-.64,7.03-3.89,7.54-3.65.3.15,1.75,5.36,2.34,6.73Z"/>
              <path class="cls-36" d="M168.75,145.6c.81,2.93,2.36,5.76,3.12,8.69.88,3.39-1,9.89,3.64,8.13-5.62,8.4,4.1,29.38,10.4,35.9,2.34,2.42,5.44,3.64,6.76,6.73-1.52.3-8.04,10.44-9.36,12.34-1.26.72-3.85,1.44-4.16,1.68-4.23,3.34-6.45,17.52-7.28,23-22.52-15.38-50.15-47.4-61.36-73.49,5.65,5.4,9.53,13.25,14.56,19.63,9.12,11.56,42.51,44.27,48.88,13.18,1.54-7.52-2.67-39.61-5.2-47.12-2.81-8.32-2.45-.66-6.76-.84,1.44-2.1,3.79-6.42,5.72-7.85.15-.11.87.11,1.04,0Z"/>
              <path class="cls-35" d="M202.55,138.31c-6.99,8.36-15.47,14.74-23.4,21.88-.98.88-2.88,1.1-3.64,2.24-4.64,1.76-2.76-4.74-3.64-8.13-.76-2.94-2.31-5.76-3.12-8.69,5.96-4.04,12.71-6.09,19.24-10.66,3.6-2.52,7.31-5.2,10.4-8.41,1.62,3.74,2.46,8.1,4.16,11.78Z"/>
              <path class="cls-36" d="M206.71,145.04c-9.44,2.21-17.33,9.03-23.4,16.83-.84-.6-3.18-.95-4.16-1.68,7.93-7.14,16.41-13.51,23.4-21.88,1.08,2.34,2.74,4.62,4.16,6.73Z"/>
            </g>
          </g>
          <g>
            <g>
              <path class="cls-24" d="M229.59,62.02c-.66,1.39-.8,2.97-1.04,4.49-.29,1.82-.43,4.01-1.04,5.61-.29-.59-.68-1.15-1.04-1.68,0-4.7.21-9.37-.52-14.02-.08-.52-.42-.6-.52-1.12,2.52.99,3.06,4.89,4.16,6.73Z"/>
              <g>
                <path class="cls-6" d="M330.48,168.04c-1.27-.57-2.61-.96-4.16-1.68-2.21-27.34-8.72-54.71-19.24-79.66-1.37-3.25-2.64-6.63-4.16-9.82-1.78-3.73-7.96-12.21-8.84-15.15-.03-.11,1.11-1.38,1.04-1.96,22.77,28.54,32.94,71.3,35.36,108.26Z"/>
                <path class="cls-33" d="M289.91,53.6c-4.69.12-8.95-12.32-10.92-1.68-9.47-8.49-22.33-12.37-34.58-11.22-.67.06-4.61.41-4.42,1.68-.66-.07-3.61-1.65-3.64-2.8,19.16-8.68,39.23-.62,53.56,14.02Z"/>
                <path class="cls-30" d="M314.88,160.18c.29.2.74.37,1.04.56.03.02-.1.17.52.56-2.32,4.37-.4,11.14-1.04,15.99-.09.7-1.44,3.05-1.56,3.65-12.15,18.35-27.97,62.49-54.34,40.39-19.27-16.15-9.25-47.52-20.54-69,1.52-1.94,4.87-3.91,6.76-5.61-.98,1.75.42,1.51.52,2.24.29,2.03.24,3.15,1.04,5.33,3.43,9.33,9.94,18.88,16.38,26.08,2.45-5.4,3.37-11.8,7.28-16.27,3.97,6.28,3.58,14.51,4.16,21.88,9.66-8.33,17.48-19.46,21.06-32.25l-17.94,22.72-7.02-18.51c8.34-8.91,13.21-16.14,15.08-29.17,2.53,9.83,20.55,26.03,28.6,31.41Z"/>
                <path class="cls-24" d="M305.51,111.94c1.96,7.11,3.42,15.39,4.68,22.72,1.44,8.36.99,18.43,4.68,25.52-8.05-5.39-26.07-21.59-28.6-31.41-1.45-5.64.57-11.81-1.56-17.39.6-2.89.14-5.88.52-8.41,0-.06.8.03.52-1.12,5.14,1.01,11.61.99,16.9,1.68,1.13.48,2.44,6.89,2.86,8.41Z"/>
                <path class="cls-11" d="M326.32,166.35c-2.97-1.38-5.51-2.8-8.32-4.49-.97-17.46-3.47-35.08-7.8-51.89-.79-3.09-6.77-18.05-6.76-19.07.03-2.46,3.66-1.16,3.64-4.21,10.53,24.94,17.03,52.31,19.24,79.66Z"/>
                <path class="cls-22" d="M262.35,93.99c.58.47,1.73.42,1.56,1.4l-2.08,2.52c-11.69-5.19-21.19-20.12-29.12-22.44-.29-.08-.74.08-1.04,0,.7-2.23-.1-10.2-3.12-8.98.24-1.52.38-3.09,1.04-4.49,10.12,16.86,19.03,20.87,32.76,31.97Z"/>
                <path class="cls-24" d="M315.92,160.74c-.3-.19-.75-.37-1.04-.56-3.69-7.1-3.24-17.16-4.68-25.52-1.26-7.33-2.72-15.61-4.68-22.72.88.19,2.08-.76,2.86,0,2.28,2.22,8.09,42.74,7.54,48.8Z"/>
                <path class="cls-32" d="M270.15,93.43c-2.48,5.81,11.83,7.67,15.6,8.41.28,1.16-.51,1.06-.52,1.12-8.42-.67-15.54-1.56-23.4-5.05l2.08-2.52c.17-.99-.98-.94-1.56-1.4l.52-3.93c2.58,1.43,4.57,2.29,7.28,3.37Z"/>
                <g>
                  <path class="cls-6" d="M236.35,39.58c.03,1.15,2.98,2.73,3.64,2.8,5.96.65,12.9-.33,19.5,1.12,16.83,3.7,25.08,14.81,34.32,29.17,1.4-2.28-2.15-3.92-2.34-4.21-3.92-5.96-7.14-11.76-12.48-16.55,1.97-10.63,6.23,1.8,10.92,1.68,2.04,2.08,3.4,3.92,5.2,6.17.07.58-1.07,1.86-1.04,1.96.88,2.94,7.06,11.42,8.84,15.15,1.52,3.18,2.79,6.56,4.16,9.82.02,3.05-3.61,1.75-3.64,4.21-.01,1.02,5.97,15.99,6.76,19.07,4.33,16.81,6.83,34.43,7.8,51.89-.18-.11-.97-.19-1.56-.56s-.49-.54-.52-.56c.55-6.06-5.26-46.59-7.54-48.8-.78-.76-1.98.19-2.86,0-.42-1.53-1.73-7.93-2.86-8.41-5.3-.69-11.76-.67-16.9-1.68-3.77-.74-18.09-2.6-15.6-8.41,8.29,3.29,17.34,5.95,26.26,5.61-6.7-1.44-13.75-2.25-20.28-4.49-8.74-2.99-19.9-9.97-27.04-16.27-4.86-4.29-9.86-10.05-14.04-15.15-1.04.53,1.45,3.68,1.82,4.21,5.61,7.94,17.73,18.15,26,22.72l-.52,3.93c-13.73-11.1-22.64-15.11-32.76-31.97-1.1-1.84-1.64-5.74-4.16-6.73-.2-1.04-.93-5.88-1.04-6.17,3.05-4.58,7.21-7.39,11.96-9.54Z"/>
                  <g>
                    <path class="cls-33" d="M235.05,55.28c19.21,17.44,38.1,33.98,63.7,38.43-26.21-1.55-46.53-18.55-63.7-38.43Z"/>
                    <path class="cls-33" d="M270.15,93.43c-2.71-1.08-4.7-1.94-7.28-3.37-8.27-4.57-20.39-14.78-26-22.72-.37-.52-2.86-3.68-1.82-4.21,4.18,5.1,9.18,10.86,14.04,15.15,7.14,6.3,18.31,13.28,27.04,16.27,6.53,2.23,13.58,3.04,20.28,4.49-8.92.34-17.98-2.32-26.26-5.61Z"/>
                    <path class="cls-33" d="M243.63,56.97c13.12,8.22,26.48,16.77,40.3,23.56.83.41,10.72,3.13,10.14,4.77-18.28-6.17-35.68-15.02-50.44-28.33Z"/>
                    <path class="cls-15" d="M278.99,51.92c5.35,4.79,8.56,10.59,12.48,16.55.19.29,3.74,1.93,2.34,4.21-9.24-14.36-17.49-25.47-34.32-29.17-6.6-1.45-13.54-.48-19.5-1.12-.19-1.27,3.75-1.62,4.42-1.68,12.25-1.15,25.12,2.73,34.58,11.22Z"/>
                    <path class="cls-15" d="M281.07,64.82c-13.86-9.22-29.14-15.98-44.72-21.04,17.29,1.84,31.2,10.09,44.72,21.04Z"/>
                    <path class="cls-33" d="M243.63,56.97c-1.63-1.02-3.44-2.07-4.68-3.65,2.41,0,3.24,2.35,4.68,3.65Z"/>
                    <path class="cls-15" d="M282.63,65.94c.6.48,2.92,1.19,3.12,2.52-1.64.35-2.4-2.02-3.12-2.52Z"/>
                    <path class="cls-15" d="M282.63,65.94c-.3-.24-.75-.47-1.56-1.12.54.36,1.04.76,1.56,1.12Z"/>
                  </g>
                </g>
                <path class="cls-13" d="M313.84,180.94c-5.57,27.82-31.17,59.78-51.48,77.41-.83-11.03-3.79-31.14-10.92-38.71-2.26-2.4-5.64-3.85-8.32-5.61-3.39-2.22-7.15-4.06-9.88-7.29,8.02-10.08,10.96-24.53,5.2-36.46l1.04-1.68c.85,1.63.29,3.31,2.34,2.24,2.53-4.69-5.32-14.24-3.9-17.39.4-.88.86-.9,1.04-1.12,11.29,21.48,1.27,52.85,20.54,69,26.38,22.11,42.19-22.04,54.34-40.39Z"/>
                <path class="cls-38" d="M233.23,92.87c1.18,3.12,3.71.41,3.9.56.6.48-1.42.77,1.3,2.24l-8.06,6.73c-1.9-5.45.6-10.73-7.02-7.85-.03-.07-.79-1.07-1.04-1.12.43-.84.84-2.7,1.56-3.37,2.09,1.07,6.99,3.25,9.36,2.8Z"/>
                <path class="cls-19" d="M231.67,75.48c.3.08.75-.08,1.04,0,1.19,4.06.4,8.43.52,12.34-.88-.68-1.69-2.38-2.08-3.37-1.17-2.96-1.74-7.92-2.6-10.1,1.14.18,1.98.82,3.12,1.12Z"/>
                <path class="cls-24" d="M238.43,95.67c1.37.74,5.67.57,4.68,4.77-.22.93-4.55,3.97-5.46,4.21-.68.18-5.94-.45-5.98.28,5.63,12.46,12.13,24.25,20.8,34.5-.45.17-6.5,6.83-6.76,7.29-1.89,1.7-5.24,3.67-6.76,5.61-.18.22-.64.24-1.04,1.12-2.11.67-3.82-2.79-6.24-4.49v-.56c-6.11-13.36-3.88-42.21-8.32-53.85,7.62-2.88,5.12,2.41,7.02,7.85l8.06-6.73Z"/>
                <path class="cls-15" d="M286.27,128.77c-1.87,13.03-6.75,20.26-15.08,29.17-.13.14-1.41-.14-1.56,0l-16.64-18.51c1.76-.15,6.2,2.43,10.66,1.68,10.04-1.69,19.05-20.09,21.06-29.73,2.13,5.58.11,11.75,1.56,17.39Z"/>
                <path class="cls-18" d="M269.63,157.94c-2.16,2.1-6.17,16.74-7.02,16.83-7.62-6.66-12.77-16.1-16.38-25.8-.11-.73-1.5-.49-.52-2.24.26-.47,6.31-7.12,6.76-7.29.13-.05.34.02.52,0l16.64,18.51Z"/>
                <path class="cls-25" d="M269.63,157.94c.15-.14,1.43.14,1.56,0l7.02,18.51,17.94-22.72c-3.58,12.8-11.4,23.92-21.06,32.25-.58-7.37-.19-15.6-4.16-21.88-3.91,4.46-4.83,10.87-7.28,16.27-6.44-7.2-12.95-16.75-16.38-26.08-.8-2.18-.75-3.3-1.04-5.33,3.61,9.7,8.76,19.15,16.38,25.8.85-.09,4.86-14.73,7.02-16.83Z"/>
                <path class="cls-14" d="M231.67,75.48c-1.14-.3-1.98-.94-3.12-1.12-.3-.75-.68-1.52-1.04-2.24.61-1.6.75-3.79,1.04-5.61,3.02-1.23,3.82,6.75,3.12,8.98Z"/>
                <g>
                  <path class="cls-8" d="M261.83,97.92c7.87,3.49,14.99,4.38,23.4,5.05-.38,2.53.08,5.52-.52,8.41-2.01,9.64-11.02,28.04-21.06,29.73-4.46.75-8.9-1.83-10.66-1.68-.18.02-.39-.05-.52,0-8.67-10.25-15.17-22.04-20.8-34.5.04-.73,5.3-.1,5.98-.28.91-.24,5.24-3.28,5.46-4.21.99-4.2-3.31-4.03-4.68-4.77-2.72-1.47-.7-1.76-1.3-2.24-.19-.16-2.72,2.56-3.9-.56-.65-1.7.03-3.88,0-5.05-.12-3.91.67-8.28-.52-12.34,7.93,2.32,17.43,17.25,29.12,22.44Z"/>
                  <path class="cls-15" d="M268.85,119.79c.55,5.13-6.76,8.09-11.18,6.45-1.16-1.54,10.37-4.86,11.18-6.45Z"/>
                </g>
              </g>
            </g>
            <g>
              <path class="cls-25" d="M346.08,174.21c2.24,1.98,1.62,3.64,2.08,6.17-1.78,73.56-68.06,110.82-126.89,123.41,0-3.54.09-7.12,0-10.66,58.82-15.25,103.88-52.7,122.73-115.84.26-.87.89-3.23,2.08-3.09Z"/>
              <path class="cls-5" d="M318,161.87c2.81,1.69,5.35,3.11,8.32,4.49,1.55.72,2.89,1.11,4.16,1.68.55.25,1.17.73,2.08,1.12-2.31,5.6-1.37,11.97-2.6,18.23-2.57,13.12-11.98,31.07-19.76,41.51-21.56,28.94-54.21,46.3-86.85,55.82,4.33-1.73,8.81-4.23,12.48-7.29,1.36-.18,9.73-1.34,10.14-1.68,1.29-1.07.75-3.99.78-5.61,3.01-.91,5.03-3.92,7.28-5.61,1.3-.97,2.53-1.51,4.16-2.8,1.44-1.14,2.75-2.14,4.16-3.37,20.31-17.63,45.91-49.6,51.48-77.41.12-.6,1.47-2.95,1.56-3.65.64-4.85-1.28-11.61,1.04-15.99.59.37,1.38.45,1.56.56Z"/>
              <path class="cls-13" d="M343.48,228.06c-.65,2.65-1.28,5.25-2.08,7.85-.48,1.56-1.04,2.97-1.56,4.49-.67,1.95-1.32,3.7-2.08,5.61-.15.38-.26,1.05-.52,1.68-.13.32-.36.75-.52,1.12-20.33,46.58-71.32,58.14-115.45,57.22v-2.24c58.83-12.59,125.11-49.85,126.89-123.41,2.74,14.9-1.09,33.12-4.68,47.68Z"/>
              <path class="cls-5" d="M346.08,174.21c-1.19-.15-1.82,2.21-2.08,3.09-18.85,63.14-63.91,100.59-122.73,115.84-.06-2.48-.09-4.86-.52-7.29.84-.29,1.73-.78,2.6-1.12,32.64-9.51,65.29-26.87,86.85-55.82,7.78-10.45,17.19-28.39,19.76-41.51,1.23-6.26.29-12.63,2.6-18.23,3.23,1.41,11.35,3.13,13.52,5.05Z"/>
              <g>
                <path class="cls-34" d="M235.83,277.42c-3.67,3.06-8.15,5.56-12.48,7.29-.87.35-1.76.83-2.6,1.12-9.59,3.31-33.69,6.52-43.16,3.93-.92-.25-2.41-1.05-3.12-1.68-3.09-2.78-4.34-10-5.2-14.02,17.63,4.36,48.67,5.69,66.56,3.37Z"/>
                <path class="cls-8" d="M220.75,285.84c.43,2.44.46,4.82.52,7.29.09,3.54,0,7.12,0,10.66v2.24c-15.61-.33-32.11-4.4-43.68-16.27,9.47,2.59,33.57-.62,43.16-3.93Z"/>
                <path class="cls-4" d="M262.35,258.35c-1.41,1.22-2.72,2.22-4.16,3.37l-7.02,2.24-6.5-.84c1.34-7.58.88-15.39,1.56-23,.32-3.57,1.88-7.4,2.08-10.94l3.12-9.54c7.13,7.56,10.09,27.68,10.92,38.71Z"/>
                <path class="cls-26" d="M248.31,229.18c-.2,3.54-1.76,7.37-2.08,10.94-.68,7.61-.22,15.42-1.56,23l6.5.84,7.02-2.24c-1.63,1.29-2.86,1.83-4.16,2.8-2.83-.17-5.48.67-8.32.56-15.65-.62-43.63-7.63-58.24-14.02l-5.2-23c7.87,18.66,17.46,28.01,37.7,29.73,26.52,2.25,18.62-12.72,28.08-31.97-.14.68.27,3.19.26,3.37Z"/>
                <path class="cls-12" d="M182.27,228.06l5.2,23c-6.47-2.83-9.82-5.03-15.6-8.98.83-5.48,3.05-19.66,7.28-23,1.7,2.76,1.87,6,3.12,8.98Z"/>
                <path class="cls-28" d="M243.11,214.03c2.69,1.76,6.06,3.21,8.32,5.61l-3.12,9.54c.01-.18-.4-2.69-.26-3.37-9.46,19.25-1.56,34.23-28.08,31.97-20.24-1.72-29.83-11.07-37.7-29.73-1.25-2.98-1.42-6.22-3.12-8.98.31-.25,2.9-.97,4.16-1.68,4.77-2.71,7.77-4.19,12.48-7.29.94-.62,2.71-1.23,4.16-2.24l1.04,4.77,15.86,21.6,3.64-11.78c3.22-1.15,3.24,6.62,5.72,7.85,1.1-.01,12.02-15.37,13-15.71,1.4-.48,3.01,1.81,3.9-.56Z"/>
                <path class="cls-13" d="M199.95,170.84c-.66.71-1.04,1.92-2.08,2.24-.17-.06-.4.07-.52,0,.24-.64.92-1.07.26-1.68-1.21,2.34-10.87,5.06-11.18,5.89-3.53,9.35,14.77,3.92,14.56,2.8-5.32-1.59,3.29-4.79,3.64-8.13,2.15-1.4,9.8-8.52,11.96-10.66l-7.8,8.69c.21.9,4.22-.73,4.42-.84,4.12-2.23,11.26-12.42,14.04-13.46.64-.24.79.59,1.3.56-.09.48-.38,1.99-.52,2.24-3.69,6.7-14.62,14.63-20.28,19.63-.82.16-2.17,1.34-3.12,1.68-5.34,1.9-10.55,4.42-16.38,3.93l.26,1.12c.18,4.5,6.4,14.61,9.36,17.95-4.02,2.41-7.75-3.56-11.96-4.49-6.3-6.52-16.02-27.5-10.4-35.9.76-1.14,2.66-1.36,3.64-2.24.99.74,3.32,1.08,4.16,1.68.14.1,2.52,2.09,2.6,2.24.3.6.04,5.2,1.04,6.45,1.27,1.19,4.55-3.94,1.3,2.52,1.78-.41,2.72-1.98,3.9-2.8,7.64-5.33,13.65-14.34,22.1-17.39l-14.3,17.95Z"/>
                <path class="cls-23" d="M195.79,210.11c-4.71,3.1-7.71,4.59-12.48,7.29,1.32-1.9,7.84-12.05,9.36-12.34,2.55-.5,5.29,2.32,3.12,5.05Z"/>
                <path class="cls-23" d="M197.87,202.82c.76.86,3.21,3.1,4.16,3.93-.9-.12-1.41.65-2.08,1.12-1.45,1.01-3.22,1.62-4.16,2.24,2.17-2.73-.57-5.54-3.12-5.05-1.32-3.09-4.42-4.31-6.76-6.73,4.21.93,7.94,6.89,11.96,4.49Z"/>
                <path class="cls-5" d="M231.15,148.4s-.04.17.52.56c2.42,1.7,4.13,5.15,6.24,4.49-1.42,3.15,6.43,12.7,3.9,17.39-2.06,1.07-1.49-.62-2.34-2.24-2.71-5.21-4.2-12.72-10.92-12.34-.51.03-.66-.8-1.3-.56-2.79,1.04-9.92,11.23-14.04,13.46-.2.11-4.21,1.74-4.42.84l7.8-8.69c2.31-2.29,6.41-5.14,5.98-8.41-8,4.88-15.89,10.74-22.62,17.95l14.3-17.95c-8.46,3.05-14.46,12.06-22.1,17.39l17.42-22.44-23.66,16.27c-.08-.16-2.46-2.14-2.6-2.24,6.07-7.8,13.96-14.62,23.4-16.83,8.73-2.04,16.68-1.71,24.44,3.37Z"/>
                <path class="cls-34" d="M202.03,206.74c11.05,9.6,21.01,12.81,31.2,0,2.73,3.23,6.49,5.07,9.88,7.29-.89,2.37-2.5.08-3.9.56-.98.34-11.9,15.69-13,15.71-2.48-1.23-2.5-9-5.72-7.85l-3.64,11.78-15.86-21.6-1.04-4.77c.67-.47,1.18-1.24,2.08-1.12Z"/>
                <path class="cls-8" d="M239.47,168.6l-1.04,1.68c-2.01-4.16-6.08-10.41-10.4-11.78.14-.25.43-1.76.52-2.24,6.72-.38,8.21,7.13,10.92,12.34Z"/>
                <path class="cls-25" d="M192.15,170.28c-1.18.82-2.12,2.39-3.9,2.8,3.25-6.47-.03-1.33-1.3-2.52-1-1.25-.74-5.85-1.04-6.45l23.66-16.27-17.42,22.44Z"/>
                <path class="cls-25" d="M216.59,161.3c-2.16,2.14-9.81,9.26-11.96,10.66-1.29.84-5.31,3.17-6.5,2.8-.49-.15-.17-1.65-.26-1.68,1.04-.32,1.42-1.54,2.08-2.24,6.73-7.21,14.62-13.07,22.62-17.95.43,3.27-3.67,6.13-5.98,8.41Z"/>
                <path class="cls-31" d="M197.35,173.08c-.02.06-1.29-.33-1.04.84l1.04-.84c.12.07.35-.06.52,0,.09.04-.23,1.53.26,1.68,1.19.36,5.21-1.96,6.5-2.8-.35,3.34-8.96,6.55-3.64,8.13.21,1.11-18.09,6.55-14.56-2.8.31-.83,9.97-3.55,11.18-5.89.66.61-.02,1.05-.26,1.68Z"/>
                <path class="cls-20" d="M231.67,148.96c-.56-.39-.49-.54-.52-.56h.52v.56Z"/>
                <g>
                  <path class="cls-8" d="M238.43,170.28c5.76,11.93,2.82,26.38-5.2,36.46-10.2,12.81-20.15,9.6-31.2,0-.95-.83-3.4-3.07-4.16-3.93-2.96-3.34-9.18-13.45-9.36-17.95,3.45,1.59,13.21-.79,15.6-3.37,1.89,2.45,9.9-4.61,3.64-3.37,5.66-5.01,16.59-12.94,20.28-19.63,4.32,1.37,8.39,7.62,10.4,11.78Z"/>
                  <g>
                    <path class="cls-22" d="M204.63,179.82c-.44.48-.46,1.62-.52,1.68-2.39,2.58-12.15,4.96-15.6,3.37l-.26-1.12c5.83.5,11.04-2.02,16.38-3.93Z"/>
                    <path class="cls-24" d="M204.11,181.5c.06-.06.08-1.21.52-1.68.95-.34,2.3-1.52,3.12-1.68,6.26-1.25-1.75,5.81-3.64,3.37Z"/>
                    <path class="cls-33" d="M228.29,197.21c-4.21,9.71-13.6,8.94-19.5,1.4,6.27,3.66,10.16,5.33,16.9,1.4l2.6-2.8Z"/>
                    <path class="cls-11" d="M225.17,172.52c5.04-.6,5.31,7.27-3.38,3.65-.48-.65,2.55-3.55,3.38-3.65Z"/>
                    <path class="cls-11" d="M226.73,164.11c1.34-.3,4.13.03,4.42,1.96l-7.02.84c-.2-.96,2.12-2.7,2.6-2.8Z"/>
                  </g>
                </g>
                <path class="cls-25" d="M197.35,173.08l-1.04.84c-.25-1.17,1.02-.78,1.04-.84Z"/>
              </g>
            </g>
          </g>
          <path class="cls-36" d="M182.81,154.09c-.63,5.16-.44,10.43.58,15.52,1.35-1.26,2.69-2.52,4.04-3.79-1.2,2.04-2.42,4.15-2.72,6.52-.34,2.69.56,5.37,1.44,7.93,1.48,4.29,2.97,8.58,4.73,12.76,2.04,4.85,4.44,9.53,7.17,14-4.34.27-8.71-.12-12.94-1.15-1.2-.29-2.44-.66-3.36-1.52-.79-.74-1.26-1.76-1.69-2.77-5.14-11.91-7.75-24.98-7.6-38.03.01-1.1.06-2.25.57-3.21s1.65-1.66,2.65-1.29"/>
        </g>
      </g>
      <path class="cls-2" d="M158.43,105.14c-.63,1.07-1.11,2.23-1.61,3.37-9.68,21.82-29.87,35.66-49.54,47.3-9.89,5.85-19.91,11.45-30.05,16.78,1.6,3.01,2.85,6.23,4.17,9.4,11.92,28.64,30.4,54.07,53.34,73.39,6.59,5.55,13.58,10.63,21.25,14.21,10.21,4.77,21.33,6.76,32.39,8.06,21.57,2.55,43.84,2.56,64.46-4.77-2.31,1.31-4.62,2.62-6.94,3.93,1.11-.35,2.22-.7,3.33-1.05.82-4.13-1.93-8.31-5.41-10.26-3.48-1.96-7.52-2.23-11.43-2.59-23.89-2.21-47.95-9.36-67.17-24.83-9.09-7.32-16.89-16.32-24.63-25.26-11.33-13.09-22.86-26.48-29.82-42.75-.7-1.64-1.4-3.38-2.71-4.52s-3.42-1.45-4.58-.14c1.5-.54,2.86-1.54,3.86-2.87"/>
      <path class="cls-2" d="M233.38,55.99c.13-1.59-1.88-2.55-3.23-1.89s-2.07,2.24-2.61,3.72c-3.99,11.08-3.32,23.65-.05,35,3.26,11.36,8.95,21.71,14.93,31.7,7.31,12.22,15.55,24.5,27.4,31.42,1.17.68,2.5,1.32,3.78.93,1.07-.33,1.84-1.33,2.5-2.29,8.33-12.05,11.71-27.94,9.08-42.71.29-2.63.57-5.26.86-7.89-25.57-7.94-49.44-22.19-69.26-41.35.85-.11,1.71-.23,2.56-.34.19-5.9,3.54-11.21,7.63-15.13,9.95-9.55,24.57-12.32,37.52-8.97,12.95,3.36,24.26,12.28,32.81,23.3s14.55,24.08,19.52,37.4c11.26,30.15,17.7,63.27,12.58,95.31-1.57,0-2.21-2.82-.81-3.59"/>
      <path class="cls-2" d="M247.75,82.29l-1.92-.04c3.95,15.52,7.36,31.19,10.22,46.99,3.25-3.79,7.66-6.41,12.37-7.35.32-.06.69-.17.79-.5s-.46-.63-.52-.29"/>
      <path class="cls-2" d="M200.96,75.63c-4.25,16.39-8.49,32.78-12.74,49.17-3.53-3.53-7.08-7.08-11.17-9.82,1.01,1.12,2.67,1.51,4.02.94.08-.61.15-1.23.23-1.84"/>
      <path class="cls-2" d="M155.79,56.47c-.1-.7-1.26-.15-1.1.53s.89.97,1.52,1.17c12.4,3.86,23.08,13.71,28.53,26.33-3.51-.27-7.25-.63-10.01-2.98-2.76-2.35-3.78-7.44-1.07-9.85,1.98-1.76,4.87-1.36,7.38-.77,11.39,2.69,22.33,7.55,32.19,14.27,1.72,1.18,3.59,2.72,3.72,4.92.09,1.55-.22,3.89,1.21,3.94-2.76,1.68-6.56,1.02-8.68-1.52-.97-1.16-1.54-3.09-.53-4.21.47-.52,1.15-.72,1.81-.85,4.75-.96,9.89.65,13.43,4.19"/>
      <path class="cls-2" d="M239.58,96.91c-3.38,1.47-6.17,4.45-7.57,8.07-.27.69-.41,1.67.2,2.04.3.19.67.13,1.01.06,3.5-.75,6.72-2.96,8.84-6.06.82-1.2,1.34-3.19.14-3.94-.53-.33-1.19-.24-1.79-.11-1.92.42-3.79,1.15-5.51,2.16,7.91-4.54,16.88-6.9,25.84-6.8"/>
      <path class="cls-2" d="M234.77,98.95c-2.09-.23-4.13-.91-5.98-1.97.99.15,1.98.3,2.97.45"/>
      <path class="cls-2" d="M231.73,103.78c-1.83,1.03-4,1.36-6.02.92"/>
      <path class="cls-2" d="M237.63,153.72c1.55,1.37,3.02,2.93,3.91,4.87,1.09,2.36,1.24,5.07,1.37,7.7.51,10.25.93,21.02-3.25,30.25-2.7,5.95-7.1,10.77-11.43,15.47-1.09,1.19-2.22,2.4-3.63,3.08-1.57.76-3.35.82-5.07.63-16.78-1.78-30.75-23.51-34.79-39.63-4.33-17.27,12.12-29.34,26.54-30.78,9.33-.93,19.08,1.94,26.35,8.4Z"/>
      <path class="cls-2" d="M234.76,174.44c-4.69,2.34-8.53,3.15-13.67,2.63.79,4.54,1.58,9.08,2.38,13.61.06.36.12.76-.04,1.08-.2.39-.66.53-1.06.62-3.4.76-6.93.87-10.37.34.83.05,1.66.11,2.5.16-.4-.58-.8-1.16-1.21-1.74"/>
      <path class="cls-2" d="M195.81,182.42c5.21,1.21,10.81.35,15.5-2.36-.51-.79-1.02-1.58-1.53-2.38"/>
      <path class="cls-2" d="M233.04,207.66c2.62,1.53,5.24,3.05,7.86,4.58,4.4,2.56,8.92,5.23,12.07,9.41,3.13,4.15,4.64,9.42,6.06,14.54,2.9,10.5,1.4,9.63,4.21,20.16"/>
      <path class="cls-2" d="M199.16,205.6c-4.62,3.44-9.24,6.88-13.85,10.33-2.93,2.18-5.91,4.42-8.03,7.5-4.02,5.85-4.36,13.87-8.08,19.95.37-.88.74-1.77,1.11-2.65"/>
      <path class="cls-2" d="M178,214.42c4.3,15.45,8.61,30.9,12.91,46.35.51-.8.63-1.86.32-2.77-.48-.02-.96-.04-1.43-.06"/>
      <path class="cls-2" d="M199.46,127.68c1.93,6.77,4.29,14.16,9.96,17.75,6.67,4.23,15.15,1.55,22.8,2.81-5.69-19.45-8.02-40.03-6.82-60.38-.39.38-.32,1.17.13,1.47s1.13.02,1.28-.53"/>
      <path class="cls-2" d="M194.77,155.04c-.98-2.04-2.03-4.05-3.14-6.02.19.69,1.29.69,1.49,0"/>
      <path class="cls-2" d="M198.14,151.93c-1.12-1.55-1.65-3.58-1.44-5.53"/>
      <path class="cls-2" d="M239.81,151.36c-1.55.99-3.09,1.98-4.64,2.97,1.83-1.16,2.53-2.71,4.64-2.97Z"/>
      <path class="cls-2" d="M237.76,158.82c2.02-1.61,4.48-2.56,6.99-2.71"/>
      <path class="cls-2" d="M186.31,165.74c-2.12-.32-4.23-.65-6.35-.97.45-.37.9-.74,1.34-1.1"/>
      <path class="cls-2" d="M199.55,127.96c-9.61,7.26-19.8,13.62-30.41,19-10.88-13.32-19.06-29.47-22-46.93-2.93-17.46-.34-36.24,8.54-51.18,3.34-5.61,7.62-10.73,13.03-13.95,6.24-3.71,13.53-4.67,20.63-5.36,8.25-.8,17.25-1.11,24.02,4.04,6.56,5,9.34,13.87,11.72,22.14"/>
      <path class="cls-2" d="M286.55,121.64c.07,10.32,6.31,19.4,13.27,26.48,11.08,11.26,24.75,19.54,39.44,23.87,2.27.67,4.66,1.3,6.46,2.93,2.69,2.43,3.47,6.51,3.79,10.28,1.05,12.6-1.29,25.25-4.35,37.46-5.98,23.89-15.87,48.41-35.11,61.88-5.27,3.69-11.07,6.41-16.96,8.79-22.87,9.27-47.43,13.66-71.84,12.85-10.29-.34-20.73-1.65-30.16-6.1-9.43-4.45-17.81-12.4-21.27-22.86-.53-1.6-.93-3.44-.21-4.95"/>
      <path class="cls-2" d="M245.29,267.31c9.97-.37,18.24-8.15,25.25-15.8,7.74-8.45,15.1-17.29,22.05-26.5,11.81-15.63,22.86-33.63,23.22-53.79.84,1.58.31,3.84-1.13,4.79"/>
      <path class="cls-2" d="M320.48,114.61c16.13-9.82,33.47-17.31,51.41-22.23.22-.06.44-.12.66-.18"/>
      <path class="cls-2" d="M151.21,126c-5.16-1.48-10.02-3.99-14.83-6.48-22.4-11.59-44.8-23.17-67.2-34.76,2.22.52,4.43,1.04,6.65,1.57"/>
      <path class="cls-2" d="M97.82,231.35c-18.77-3.81-37.65-6.99-56.6-9.53,1.35-.06,2.67-.63,3.68-1.59"/>
      <path class="cls-2" d="M344.13,224.5c-.02-.29-.07-.63-.31-.76s-.57.29-.33.43c13.51,8.15,28.11,14.21,43.21,17.94"/>
      <path class="cls-2" d="M93.2,208.67c8.8,25.07,17.6,50.14,26.39,75.21-3.47-5.9-7-11.87-11.7-16.67s-10.81-8.39-17.29-8.48c4.6,5.58,8.16,12.14,10.42,19.2-5.44,1.72-11.22-.03-16.73-1.45-27.44-7.1-56.06-6.13-84.26-5.01,3.3.17,6.61.35,9.91.52"/>
      <path class="cls-2" d="M336.56,247.77c.07.29-.45.43-.51.13s.45-.43.51-.13c3.88,17.21-6.12,38.18-15.63,52.61-1.51-7.06-.66-14.67,2.36-21.14.56-1.21,1.29-2.46,2.47-2.93,1.06-.42,2.23-.1,3.33.19,11.03,2.88,22.95,1.66,33.28-3.42-6.1-2.32-11.96-5.36-17.44-9.05,17.16.31,70.05,1.99,87.18,3.11"/>
      <path class="cls-2" d="M77.04,177.21c1.93,14.71,7.57,28.6,14.51,41.45,13.73,25.44,33.23,47.87,57.75,60.8,24.52,12.92,54.33,15.51,79.2,3.4-.84.61-1.69,1.22-2.53,1.84,2.23-.89,4.32-2.19,6.14-3.84.3-.27.62-.68.45-1.06s-.85.14-.49.3"/>
      <path class="cls-1" d="M134.13,228.61c-39.45-3.61-78.75-9.19-117.73-16.69-2.46-20.9,3.07-41.82,8.54-62.04,6.87-25.4,13.74-50.81,20.61-76.21,50.64,16.26,92.71,58.12,144.71,68.2,16.88,3.27,34.57,3.12,50.4,10.23-11.94,29.52-43.8,48.15-48.45,79.96-.24,1.62-.44,3.36-1.45,4.59-1.01,1.22-3.16,1.46-3.89.02-.72-1.44,1.79-3.16,2.34-1.63"/>
      <path class="cls-2" d="M290.46,56.06c.36.45-.66.89-.91.36s.11-1.14.45-1.61c7.21-9.86,14.42-19.72,21.64-29.59.36-.5.73-1.19.4-1.7s-1.23.43-.66.58"/>
      <path class="cls-8" d="M217.12,198.17c-4.25-.79-8.49-1.58-12.74-2.38,1.11,4.42,2.79,9.1,6.51,11.56,3.91,2.58,8.95,2.01,13.55,1.34,1.31-.19,2.66-.4,3.79-1.12,1.77-1.13,2.62-3.29,3.36-5.31.44-1.2.89-2.47.72-3.74-.32-2.36-3.14-3.93-5.23-2.93"/>
    </g>
  </g>
</svg>