<?xml version="1.0" encoding="UTF-8"?>
<svg id="Ebene_2" data-name="Ebene 2" xmlns="http://www.w3.org/2000/svg" xmlns:xlink="http://www.w3.org/1999/xlink" viewBox="0 0 527.59 311.81">
  <defs>
    <style>
      .cls-1 {
        fill: #4380a8;
      }

      .cls-2 {
        fill: #f37f5f;
      }

      .cls-3 {
        fill: #64b9cb;
      }

      .cls-4 {
        fill: #1e607f;
      }

      .cls-5 {
        fill: #6bbbff;
      }

      .cls-6 {
        fill: #0d2649;
      }

      .cls-7 {
        fill: #fde08a;
      }

      .cls-8 {
        fill: #fffffa;
      }

      .cls-9 {
        fill: #639dc2;
      }

      .cls-10 {
        fill: #87ccff;
      }

      .cls-11 {
        fill: #44a9d6;
      }

      .cls-12 {
        fill: url(#Unbenannter_Verlauf_5);
      }

      .cls-13 {
        fill: #578db8;
      }

      .cls-14 {
        fill: #d2d2d2;
      }

      .cls-15 {
        fill: #e2ebf1;
      }

      .cls-16 {
        fill: #57b2da;
      }

      .cls-17 {
        fill: #022c40;
      }

      .cls-18 {
        fill: #d11a31;
      }

      .cls-19 {
        fill: #4badd7;
      }

      .cls-20 {
        fill: #096979;
      }

      .cls-21 {
        fill: #03111c;
      }

      .cls-22 {
        fill: #3986aa;
      }

      .cls-23 {
        fill: #4487ad;
      }

      .cls-24 {
        fill: #fbe7ea;
      }

      .cls-25 {
        fill: #222a57;
      }

      .cls-26 {
        fill: #85afd5;
      }

      .cls-27 {
        fill: #255f82;
      }

      .cls-28 {
        fill: #e92c41;
      }

      .cls-29 {
        fill: #45598b;
      }

      .cls-30 {
        fill: #b7ddff;
      }

      .cls-31 {
        fill: #083a67;
      }

      .cls-32 {
        fill: #bff0ff;
      }

      .cls-33 {
        fill: #4179a2;
      }

      .cls-34 {
        fill: #fbd485;
      }

      .cls-35 {
        fill: #27698e;
      }

      .cls-36 {
        fill: #94ff95;
      }

      .cls-37 {
        fill: #0e707c;
      }

      .cls-38 {
        fill: #f38362;
      }

      .cls-39 {
        fill: #fbdd7d;
      }

      .cls-40 {
        fill: #ef4c50;
      }

      .cls-41 {
        fill: #f9c492;
      }

      .cls-42 {
        fill: #4580a9;
      }

      .cls-43 {
        fill: #2f97a6;
      }

      .cls-44 {
        fill: #87b2d7;
      }

      .cls-45 {
        fill: #e32840;
      }

      .cls-46 {
        fill: #aad3e8;
      }

      .cls-47 {
        fill: #3b8ead;
      }

      .cls-48 {
        fill: #c7d7e2;
      }

      .cls-49 {
        fill: #ef5754;
      }

      .cls-50 {
        fill: #bb192e;
      }

      .cls-51 {
        fill: #205f80;
      }

      .cls-52 {
        fill: #3779a0;
      }

      .cls-53 {
        fill: #2c6a92;
      }

      .cls-54 {
        fill: #0a3251;
      }

      .cls-55 {
        fill: #054c62;
      }

      .cls-56 {
        fill: #015263;
      }

      .cls-57 {
        fill: #041320;
      }

      .cls-58 {
        fill: #ef4b4f;
      }

      .cls-59 {
        fill: #012338;
      }

      .cls-60 {
        fill: #fad9b7;
      }

      .cls-61 {
        fill: #67bddf;
      }

      .cls-62 {
        fill: #277b96;
      }

      .cls-63 {
        fill: #3e89ac;
      }

      .cls-64 {
        fill: #8cf;
      }

      .cls-65 {
        fill: #4a8cb3;
      }

      .cls-66 {
        fill: #2b6a90;
      }

      .cls-67 {
        fill: #f59766;
      }

      .cls-68 {
        fill: #fff;
      }

      .cls-69 {
        fill: #043750;
      }

      .cls-70 {
        fill: #f59564;
      }

      .cls-71 {
        fill: #00354a;
      }

      .cls-72 {
        fill: #4caed5;
      }

      .cls-73 {
        fill: #46a6d4;
      }

      .cls-74 {
        fill: #4a88b0;
      }

      .cls-75 {
        fill: #fbf0f0;
      }

      .cls-76 {
        fill: #46aad6;
      }

      .cls-77 {
        fill: #fffff4;
      }

      .cls-78 {
        fill: #03354d;
      }

      .cls-79 {
        fill: #faf2c3;
      }

      .cls-80 {
        fill: #165f78;
      }

      .cls-81 {
        fill: #316993;
      }

      .cls-82 {
        fill: #e9eff4;
      }

      .cls-83 {
        fill: #fbe69f;
      }

      .cls-84 {
        fill: #155972;
      }

      .cls-85 {
        fill: #354473;
      }

      .cls-86 {
        fill: #2b6c92;
      }

      .cls-87 {
        fill: #4c6192;
      }

      .cls-88 {
        fill: #f59e35;
      }

      .cls-89 {
        fill: #69bfdf;
      }

      .cls-90 {
        fill: none;
        stroke: #000;
        stroke-miterlimit: 10;
      }

      .cls-91 {
        fill: #334170;
      }

      .cls-92 {
        fill: #eb454b;
      }

      .cls-93 {
        fill: #e1e1e1;
      }

      .cls-94 {
        fill: #043151;
      }

      .cls-95 {
        fill: #06526b;
      }

      .cls-96 {
        fill: #bee5f0;
      }

      .cls-97 {
        fill: #459bb5;
      }

      .cls-98 {
        fill: #ffa496;
      }

      .cls-99 {
        fill: #ffff9e;
      }

      .cls-100 {
        fill: #c1272d;
      }

      .cls-101 {
        fill: #8aceff;
      }

      .cls-102 {
        fill: #75c0ff;
      }

      .cls-103 {
        fill: #98d9ff;
      }

      .cls-104 {
        fill: #9ad9ff;
      }

      .cls-105 {
        fill: #5090b6;
      }

      .cls-106 {
        fill: #1d6080;
      }

      .cls-107 {
        fill: #185977;
      }

      .cls-108 {
        fill: #ffc9ad;
      }

      .cls-109 {
        fill: #31749b;
      }

      .cls-110 {
        fill: #f16355;
      }

      .cls-111 {
        fill: #ffbfa7;
      }

      .cls-112 {
        fill: #268dc6;
      }

      .cls-113 {
        fill: #7cc6ff;
      }

      .cls-114 {
        fill: #387fa3;
      }

      .cls-115 {
        fill: #014556;
      }

      .cls-116 {
        fill: #8ab1d7;
      }

      .cls-117 {
        fill: #fafcfd;
      }

      .cls-118 {
        fill: #c9dcd6;
      }

      .cls-119 {
        fill: #68bde0;
      }

      .cls-120 {
        fill: #3e7da7;
      }

      .cls-121 {
        fill: #68bedf;
      }

      .cls-122 {
        fill: #4aa9d4;
      }

      .cls-123 {
        fill: #2e94a0;
      }

      .cls-124 {
        fill: #37789f;
      }

      .cls-125 {
        fill: #e62a40;
      }

      .cls-126 {
        fill: #052d49;
      }
    </style>
    <linearGradient id="Unbenannter_Verlauf_5" data-name="Unbenannter Verlauf 5" x1="-1672.04" y1="-821.6" x2="-1691.86" y2="-735.9" gradientTransform="translate(1993.37 973.8) rotate(2.86) scale(.97)" gradientUnits="userSpaceOnUse">
      <stop offset="0" stop-color="#ffffcf"/>
      <stop offset="1" stop-color="#d4c28c"/>
    </linearGradient>
  </defs>
  <g id="versicherungen">
    <g>
      <g id="Generatives_Objekt" data-name="Generatives Objekt">
        <path class="cls-68" d="M391.75,273.29c-3.38,1.62-7.14,2.57-11,3.46l-8.56,1.98c-3.44.79-6.64,1.75-10.09,2.39-7.92,1.47-13.96,3.72-21.45,5.5l-16.49,3.91c-1.87.44-3.55.77-5.43,1.18l-27.93,6.14-17.3,3.73c-2.62.57-16.77,3.7-17.78,3.72-1.84.03-3.25.86-4.78,1.25-2.29.58-4.37.3-6.43,1.03-3.24,1.15-6.69,1.24-9.9,2.03-1.64.4-3.12,1.02-4.8,1.25l-6.9.95c-.98.13-1.7-1.18-1.62-1.77s.58-1.61,1.38-1.92c11.13-4.28,22.61-6.43,34.39-9.44,5.61-1.44,10.77-2.7,16.3-4.07l14.42-3.58,30.73-6.81c3.73-.83,15.05-3.04,18.51-3.15l4.16-.12c-1.64.82-14.6,3.37-15.89,2.72-.33-.17-.24.83-.52.96-.62.27-.76-.38-1.52-.83-.73,1.01-.06,1.82-.44,3.53,4.72-.9,9.62-1.7,14.6-3.12,2.44-.7,4.86-.92,7.38-1.42,15.83-3.17,30.48-6.67,46.95-9.49Z"/>
        <path class="cls-68" d="M3.98,268.73c-1.08.14-.73-1.25-.45-1.39.43-.21.65-.54,1.34-.5,3.61.2,50.03-7.32,52.99-7.67l16.92-1.96c.41-.05,8-1.25,8.03-1.25,2.92.31,7.05.31,9.27-.37s4.34.33,6.42-.09c2.8-.56,5.36-.28,7.81,1.7-1.59,2.97-9.27.7-14.11,1.22-4.64.5-9.2-.57-13.88.48-3.59.8-7.34.51-11.14,1l-63.22,8.84Z"/>
        <path class="cls-68" d="M323.47,28.78c-1.82-.1-2.32-4.27-1.2-4.55,3.69-.91,18.72-2.67,22.35.47-4.33,2.88-15.78,4.37-21.15,4.08Z"/>
        <path class="cls-82" d="M270.37,33.63c-1.39,1.91-12.4,1.08-15.89.17,2.96-1.59,6.03-2.07,9.36-2.66,2.48-.44,4.98.93,7.26-.44.29,1.78-.27,2.31-.73,2.94Z"/>
        <path class="cls-68" d="M181.03,255.99l-14.28-1.22c2.28-.84,4.49.24,6.84-.24,3.51-.72,7.02-.26,10.38.38-1.07.28-2.17,1.15-2.93,1.08Z"/>
        <path class="cls-68" d="M443.65,33.01c-1.21.18-2.22,1.1-3.28-.1,1-.57,2.06-.42,3.28.1Z"/>
        <path class="cls-68" d="M221.07,271.57c.16.38-.1.89-.18,1.4-.09.56-.76.21-1.13.17-.02-.53-.03-1.1.07-1.62.42-.03.83.04,1.24.05Z"/>
        <g>
          <path class="cls-12" d="M427.53,81.28l4.56,25.2c.5,2.76,1.08,5.38,1.3,7.84.35,3.92,1.46,7.64,2.07,11.49l6.13,38.36c-6.5,1.61-14.81,2.26-21.38,2.99l-40.15,3.35-38.56,2.68.03-33.48,17.43.4.88,23.78c6.89.62,20.02,2.34,20.46.4l.24-1.05c.6.36.13,1.83.83.91.09-1.31,1.38-.52,1.51-1.17.17-.83.48-1.66.53-2.54l1.41-21.24,13.24-1.23c.2-7.09.3-13.94.08-20.74.34.26.48.02.45-.32-.04-.44-.12-.93.47-.82l1.09,10.17c.27,2.51-.4,4.89.08,7.32.44,2.2-.8,4.45-.49,7.02.09.76,2.3,1.13,2.89.19,11.76-18.72,16.77-38.08,17.36-61.06.01-.53.29-.93.6-.8,2.34.61,4.88.9,6.95,2.37Z"/>
          <path class="cls-48" d="M438.28,259.57c5.21.82.13,1.43,4.65,2.79l1.08,3.07c-1.02,2.09-3.12,3.03-5.2,3.54l-2.46.6c.96-.23-11.71,2.99-7.35.92-.23.11-.37.78-.83.78l-5.89.02c-2.3,0-4.47.02-6.92.38-4.23.62-8.21.26-12.55.43l-5.33.21-5.74.98c-16.47,2.81-31.12,6.32-46.95,9.49-2.52.5-4.94.72-7.38,1.42-4.98,1.42-9.88,2.22-14.6,3.12.38-1.71-.29-2.52.44-3.53.75.45.89,1.1,1.52.83.28-.12.19-1.12.52-.96,1.29.65,14.25-1.9,15.89-2.72,4.97-.15,15.12-3.42,19.96-4.16l13.97-2.14c1.71-.26,3.12-1.03,4.33-1.77,3.44,1.08,8.18-1.46,10.87-.17,2.31-2.27-10.28-1.48-10.8-1.48-2.55,0-5.84,1.18-7.99-.13l-1.28-.78c-.43-.26-.77.73-1.37.75l-6.81.18-4.82.18c-2.18.08-3.92.46-6.02.53l-6.33.22c-6.28.22-9.29.71-14.54.84-.36,0-.97-.79-1.24-.65-.24.13-.39.79-.87.8l-6.85.2c-5.21.15-8.28.46-13.62.83l-5.83.41c-2.15.15-4.44.06-6.23.24-3.58.36-12.77,1.41-14.48.57-1.76,1.86-3.62.22-5.36.64-4.04.99-7.91.95-11.93,1.22l-6.26.43c-1.04.07-15.6,1.53-15.04,1.45l-5.62.81c-1.12.16-3.37.43-4.77.31-.94-.09-2.55,1.1-3.66-.05-.54.05-1,.99-1.39,1.06-.56.1-1.36-.61-1.81-.62-.81,1.51-11.05,1.59-10.89,1.52-1.64.69-3.67.74-5.4,1.03l-3.64.61c-1.53.26-3.16.07-4.69.3-7.62,1.16-11.71,1.12-18.91,2.56-1.85.37-3.85.13-5.2.29l-3.37.39c-2.69.31-17.05,2.61-18.74,2.68-1.11.05-2.71.61-3.87-.19-.61.09-1.17,1.38-1.87.97-.6-.35-.95-.56-1.6-.32-5.2,1.95-9.58,1.14-10.16,1.41-.91.43-10.23,2.94-11.07,1.35-.74.82-1.65,1.09-2.82.79-.13-.03-12.95,3.11-13.22.46-.06-.57.53-1.28,1.19-1.46l12.1-3.21,4.79-.93c6.9-1.34,13.66-3.15,20.79-4.48l18.74-3.5,9.15-1.49,30.74-4.87,4.85-.2c2.64-.11,5.02-1.47,7.47-1.24.36.03,1.04.39,1.13-.17.08-.51.33-1.02.18-1.4,2.66.05,9.7,1.46,10.05.58,5.11,2.78,11.4,2.86,17.1,1.56,3.82-.87,6.87-3.24,9.31-6.23l6.39-.02c-6.05.02,17.45-1.99,12.34-1.33,10.17-1.31,22.67-2.35,32.28-3.11l35.68-2.85,8.12.03,5.8-.64c2.5-.28,5.45-.66,7.55.43,3.13,1.63,6.13,3.33,9.96,3.87,8.09,1.15,16.38,1.49,24.03-1.95l6.07-2.73c-.05.36.96,1.7,1.43,1.21,1.99-2.05,8.6-1.25,9.33-1.27,7.36-.12,14.64-.67,21.77.46Z"/>
          <path class="cls-2" d="M212.99,145.11c.3,1.7-1.58,1.77-2.27,2.35-3.29,2.76-6.41,5.22-9.39,8.08-13.21,12.66-26.67,10.92-43.12,11.12l.02,1.99c-1.61-.19-1.83,2.45-2.65,5.46-4.89,5.92-9.29,12.41-14.68,18.09-11.21,11.82-25.2,8.67-37.09,1.19.89-7.93,2.59-15.69,5.13-23.53-3.03-.27-5.5-.28-8.01-.22-.1-.38-.01-.86.3-.82s.87.13.75-.28l-2.86-3.27c3.45-7.09,9.65-11.53,16.5-14,3.24,4.27,40.71.8,46.99.03l50.38-6.2Z"/>
          <path class="cls-91" d="M167.65,100.26l19.93,27.11c1.25-.73.13.56-.01.44l-1.33-1.14c-.45-.39-12.07,8.61-19.06,10.17-2.5.56-4.94,1.26-7.24,3.17-6.11-5.32-11.82-9.98-17.85-16.09,3.58-2.86,6.12-6.25,8.89-9.14,5.14-5.36,10.97-10.15,16.67-14.52Z"/>
          <path class="cls-59" d="M211.14,243.69c-.12,2.62.23,5.48,0,8.22-2.5.48-6.97-.33-8.48.74-.48-1.69-1.85-3.62-2.21-5.5-13.62.41-27.08,3.05-40.46,1.84-13.75-1.24-27.63-3.27-41.41-3.74-6.3-.21-12.7-3.46-19.84-2.69,1.23,3.52,3.62,7.07,5.72,9.82-9.1-.49-19.11-6.33-22.67-16.14,29.06,4.12,58.39,5.35,88.19,6.45l28.84,1.07,12.33-.07Z"/>
          <path class="cls-85" d="M162.61,151.32c-6.28.77-43.74,4.25-46.99-.03,2.85-4.65,6.73-8.5,10.76-12.6l12.93-13.19,23.83,24.22c.46.56-.77,1.07-.53,1.6Z"/>
          <path class="cls-14" d="M420.8,52.34c-.66,1.38-.81,3.35-.58,4.94-.06.4-1.21.69-1.23,1.51-.16,6.51-1.96,12.29-3.1,18.23-12.63-4.55-25.39-8.68-38.94-10.93-15.05-2.5-12.72,1.84-14.55,1.66-.24-.57-.43-1.41,0-1.92l3.84-2.2,6.56-1.86c4.29-1.21,8.82-1.63,13.62-2.67l29.53-6.41c1.74-.38,3.33-.6,4.83-.35Z"/>
          <path class="cls-31" d="M68.61,221.25c-.06.19-.05.4-.06.6-.24,2.68-.23,5.37.25,8.37,1.61.97,3.25,1.02,5.24,1.3,25.68,3.63,51.03,5.71,77.03,6.01l60.31.71c.41,2.01-.14,3.55-.22,5.45l-12.33.07-28.84-1.07c-29.81-1.1-59.13-2.34-88.19-6.45l-14.17-2.01c-.07-1.55-.05-12.89-.14-12.5.22-.88.77-.4,1.13-.48Z"/>
          <path class="cls-75" d="M103.81,193.41c-.39,3.44-1.08,6.67-1.09,11.14-6.33-.37-12.35-.99-18.28-2.34.76-1-.21-3.44.63-4.27,1.37-1.36.87-2.33,1.3-3.56l3.28-9.32c1.83-5.18,3.92-10.83,6.94-15.16,1.43.42,2.92-.22,4.35-.26,2.51-.07,4.99-.05,8.01.22-2.54,7.85-4.24,15.6-5.13,23.53Z"/>
          <path class="cls-68" d="M435.46,125.8c-.61-3.85-1.72-7.57-2.07-11.49,1.56.5,2.97-1.18,4.84-1.1,5.17.23,10.05-1.05,15.02-1.25,2.93-.12,5.67.16,8.56-.2,3.83-.48,7.6,1.16,11.32.18,3.13-.82,6.36.4,9.16,2.46-1.32,6.6-36.55,11.6-42.47,12.36-1.54.2-3.01-1.85-4.36-.98Z"/>
          <path class="cls-56" d="M159.99,248.98l-3.44,6.66c-9.94-.12-19.97-.06-30.29-.83-.7-.05-1.2.53-1.63.33-.22-.85-1.1.2-1.44-.61-.64-2.06-4.33-6.57-4.6-9.29,13.78.47,27.66,2.5,41.41,3.74Z"/>
          <path class="cls-118" d="M363.31,61.95c-2.22.27-4.34,1.53-6.56,2-3.94.83-8.01,1.36-12.02,2.76-2.1.73-3.41,2.8-4.46,4.6-4.46.55-8.97.59-13.74.68l-12.92.23c.16-2.81,1.06-5.54,1.36-8.34l16.03-.66,3.43-.4c3.49-.4,6.65-.19,10.21-.11,4.42.1,14.25-1.29,18.66-.75Z"/>
          <path class="cls-43" d="M156.54,255.64c-1.01,1.95-1.85,6.23-5.45,5.72-.61.04-1.1.38-1.75.47-5.15.68-10.33,1.27-15.49.48,1.07,1.95,3.11,1.35,3.62,3.03-2.5-.14-4.84-1.31-7.29-1.7.33-.63.77-1.21,1.69-1.78-2.5-2.36-5.4-3.94-7.26-6.71.44.2.94-.38,1.63-.33,10.33.77,20.35.71,30.29.83Z"/>
          <path class="cls-71" d="M118.58,245.24c.27,2.72,3.96,7.23,4.6,9.29-6.04.05-12.2-1.13-18.22-1.77-.32.15-.36-.21-.49-.38-2.1-2.75-4.49-6.3-5.72-9.82,7.14-.77,13.54,2.47,19.84,2.69Z"/>
          <path class="cls-126" d="M423.75,224.94c-.82-.42-.28-1.13-.52-1.52-.43-.69-1.3-1.28-1.76-.97,0-.32.3-.74.08-1.1.12-1.16,1.3-1.57,2.2-1.89,6.01-2.17,11.85-5.39,16.87-10.14,1.19-1.12,1-3.19,1.96-4.62,3.26-.19,5.49-2.66,6.99-5.66-.11-.66-.69-.45-.94-.56s-.12-.6-.03-.77c.98,0,1.93.12,3.26.32.16,3.45.49,6.68.33,9.92l-10.02,3.13c-4.49,1.4-.8,6-5.67,8.29-3.99,1.88-7.83,3.27-11.92,4.64-.55.18-.93.51-.82.91Z"/>
          <path class="cls-93" d="M427.53,81.28c-2.07-1.47-4.61-1.75-6.95-2.37-1.03-.27-2.18-1.76-3.53-1.3-.02-.79-.75-.44-1.17-.59,1.14-5.95,2.94-11.72,3.1-18.23.02-.82,1.17-1.11,1.23-1.51-.23-1.59-.08-3.56.58-4.94,1.58.27,6.12,25.56,6.73,28.93Z"/>
          <path class="cls-92" d="M199.66,83.16l.71,6.94c-1.04.1-1.39-1.05-1.83-.11-.83,1.77-2.79-.27-3.55.35-1.02.81-2.71.07-2.89,1.27-5.49.31-10.98,2.09-16.5,1.99l3.91-3.93,3.92-2.71c1.3-.9,2.98-2.51,4.4-2.74l5.81-.92,6.03-.14Z"/>
          <path class="cls-37" d="M123.17,254.53c.34.81,1.22-.24,1.44.61,1.86,2.77,4.76,4.36,7.26,6.71-.92.57-1.36,1.15-1.69,1.78l-5.95-.94c-5.75-.91-10.94-2.81-15.68-6.02.15-.72-.72-.95-1.05-1.26-.86-.81-2.05-1.49-2.55-2.65,6.02.64,12.18,1.82,18.22,1.77Z"/>
          <path class="cls-83" d="M444.99,173.84c-.09-.08-.37-.11-.39.07l-1.79,17.15c-.3,2.85-.68,5.66-.1,8.29-.01.61-.36,1.46-.57,2.05-1.32.48-.68-8.2-.43-9.27.83-3.54.05-7.38.27-11.4-6.93,2.43-13.43,4-20.52,5.07.71-1.46,2.09-1.14,3.11-1.38,5.93-1.41,18.08-4.19,18.16-13.74.02-1.89-.77-4.08-2.69-4.26-1.99-.19-3.88-.31-5.71-.09l-9.34,1.16c-1.69.21-3.63.86-4.77-.34,6.56-.73,14.87-1.38,21.38-2.99l1.76,1.66c1.67,1.57,1.35,5.4,1.64,8.02Z"/>
          <path class="cls-68" d="M317.67,15c-1.52.39-4.19-1.26-6.07-.42-.96.43-1.55,1.31-2.09.59-1.39-1.86,3.98-13.53,5.38-15.17,1.6,1.29,2.2,2.62,2.36,4.46.04.45,1.98,10.79.42,10.54Z"/>
          <path class="cls-45" d="M448.58,197.72c-.09.17-.23.65.03.77-.23-.04-.4.18-.5.4-1.82-.44-3.61.4-5.41.47-.58-2.62-.2-5.44.1-8.29l1.79-17.15c.02-.18.3-.16.39-.07.87,7.96,1.97,16.11,3.6,23.88Z"/>
          <path class="cls-15" d="M442.93,262.36c-4.52-1.36.56-1.96-4.65-2.79,1.14-.73,2.75-.68,4.3-.73,2.82-.08,5.32-1.18,8.04-1.66s5.76-.54,8.66-1.83c1.03-.46,2.12-.2,3.19-.34l63.47-6.21c.53-.07,1.41.03,1.6.47.29.67-.91,1.29-1.24,1.35l-69.27,7.97-13.46,2.14c-.49.08-.86.51-.87.74s.41.48.23.88Z"/>
          <path class="cls-96" d="M149.35,261.82c-.24.36.11.57.3.58.35.02.63,0,.86.14-2.1,3.82-8,4.99-10.14,3.08-.59-.52-2.18-.25-2.88-.29-.51-1.68-2.55-1.08-3.62-3.03,5.16.79,10.34.2,15.49-.48Z"/>
          <path class="cls-68" d="M372.82,61.77l-6.56,1.86-3.84,2.2c-.07.04-6.38.11-5.67-1.88,2.22-.47,4.34-1.74,6.56-2,1.77-.21,8.6-1.37,9.51-.18Z"/>
          <path class="cls-68" d="M379.44,272.86c-.16-.54.02-1.09.07-1.64.52,0,13.11-.8,10.8,1.48-2.69-1.3-7.43,1.24-10.87.17Z"/>
          <path class="cls-60" d="M100.93,169.66c-1.43.04-2.92.68-4.35.26-.51-1.9,1.8-3.22,2.54-4.62l2.86,3.27c.12.41-.44.32-.75.28s-.4.44-.3.82Z"/>
          <path class="cls-68" d="M150.51,262.54c-.22-.14-.51-.12-.86-.14-.2,0-.55-.22-.3-.58.64-.09,1.13-.43,1.75-.47.41.72-.4.86-.58,1.19Z"/>
          <path class="cls-68" d="M108.56,256.67c-.31-.21-.97.24-1.08-.35-.06-.34-.12-.63.03-.9.33.31,1.2.54,1.05,1.26Z"/>
          <path class="cls-68" d="M371.28,40.41c-.24.66-1.29.58-1.66-.04.76-.4,1.28-.25,1.66.04Z"/>
          <ellipse class="cls-68" cx="185.5" cy="254.47" rx=".49" ry=".44" transform="translate(-73.71 433.28) rotate(-88.51)"/>
          <ellipse class="cls-68" cx="432.65" cy="46.13" rx=".3" ry=".27" transform="translate(375.26 477.43) rotate(-88.51)"/>
          <path class="cls-68" d="M283.97,47.04c-.23-.14-.28-.32-.1-.54.22-.03.42-.2.65-.17.23.45-.13.9-.56.71Z"/>
          <path class="cls-68" d="M224.76,47.41c-.21.24-.04.62-.13.88-.07.22-.3.37-.57.28.31-.73-.31-1.18-.43-1.89.54-.06.54.9,1.13.73Z"/>
          <path class="cls-70" d="M337.89,79.65c-.24,2.85-.22,5.84.13,8.71l-24.18,2.24c-1.13.1-.54,2.86-.41,3.89.29,2.36-1.18,6.11-1.55,8.55-2.52,16.63-5.34,33.76-13.78,48.3-20.22-3.69-40.36-6.19-60.87-7.56-.68.02-1.19.14-1.08-.6.74.02,1.55-.19,2.32-.21l26.53-.37c9.41-.13,18.42-.07,27.78-.72,2.57-.18,4.56-1.09,5.64-3.82,3.38-8.54,4.15-29.18,3.98-38.93-.05-2.89-.58-5.56-1.9-7.93-8.46-.78-16.44-1.34-25.05-1.28l-60.17.4c.25-.44.42-1.33.91-1.24.54.1.88.29,1.77.17-.68-2.44-.46-4.74-.24-6.98.46,0,1.07-.47,1.5-.13.63.49,1.22-.17,1.88-.2l5.58-.22c23.83-.94,47.49-.74,71.59-.26,7.98.16,34.55,1.43,39.62-1.8Z"/>
          <g>
            <path class="cls-25" d="M236.15,143.17c-4.48-.15-8.98.26-13.44.65-3.03.27-6.1.39-9.06,1.13l-.65.16-50.38,6.2c-.24-.53.99-1.03.53-1.6l-23.83-24.22c3.55-3.62,7.46-6.76,11.09-10.89.2-.22.6.1.59.18-2.77,2.89-5.31,6.27-8.89,9.14,6.03,6.11,11.74,10.77,17.85,16.09,2.3-1.91,4.73-2.61,7.24-3.17,6.99-1.56,18.61-10.55,19.06-10.17l1.33,1.14c.14.12,1.27-1.17.01-.44l-19.93-27.11c2.55-1.95,4.84-5.54,7.94-6.67,5.52.1,11.02-1.68,16.5-1.99l23.2-1.3,60.17-.4c8.61-.06,16.59.5,25.05,1.28,1.32,2.37,1.85,5.04,1.9,7.93.17,9.75-.61,30.39-3.98,38.93-1.08,2.74-3.07,3.65-5.64,3.82-9.36.65-18.37.59-27.78.72l-26.53.37c-.77.01-1.58.23-2.32.21Z"/>
            <g>
              <path class="cls-29" d="M262.77,110.67c-.34.32-.9-.56-1.19-.38l-8.09,5.11c-.78.49-13.19,9.55-12.38,10.76l-29.85-30.93,41.8-1.49,9.71,16.93Z"/>
              <path class="cls-87" d="M294.97,132.71c-.65,1.33-.61,2.57-1.84,2.86l-33.87-41.42c12.74-.14,25.27.25,38.26,1.4.88,12.5-.07,24.77-2.55,37.16Z"/>
              <path class="cls-91" d="M262.77,110.67l10.03,17.98c-1.95,1.96-6.68,5.23-8.33,7.89-.62,1-1.05,2-2.16,2.53-.52.25-.66,1.83-1.08,2.23-.51.49-1.76-.03-2.34.27-2.35,1.21-3.73-.39-4.9-2.23-.87-1.37-2.82-1.69-3.84-2.92-3.06-3.69-6.6-6.46-9.05-10.25-.81-1.21,11.6-10.27,12.38-10.76l8.09-5.11c.29-.18.85.7,1.19.38Z"/>
              <path class="cls-29" d="M202.92,113c-.56.82-1.68,1.16-2.7,1.68-1.39.71-2.03,2.63-3.38,3.44-1.34.81-6.5,5.2-5.75,6.54l-21.2-25.35c7.23-2.2,13.95-3.55,21.22-4.5,4.38,5.9,7.91,12.25,11.8,18.19Z"/>
              <path class="cls-91" d="M191.1,124.66c-.75-1.33,4.41-5.73,5.75-6.54,1.35-.82,1.98-2.73,3.38-3.44,1.02-.52,2.13-.86,2.7-1.68,3.48,5.31,7.75,10.06,11.02,16-.77.74-1.66,2.24-2.68,2.84l-9.8,5.73c-3.65-4.61-7.44-8.34-10.36-12.91Z"/>
            </g>
          </g>
          <path class="cls-67" d="M222.71,143.83c-.04.59-.38,1.2-1.14,1.63-8.54,4.8-16.66,9.96-24.2,16.95,1.39,2.26,3.07,2.86,4.76,3.77,6.96,3.74,13.85,7.2,20.67,11.52,1.73,1.1,3.55,1.72,5.25,2.09-2.72.18,3.19,2.43,2.94,2.35-.77.16-.68,1.32-.17,2.07.29.43.55.64.24.96-.22,0-.71.23-1.21-.1-9.28-6.04-18.7-11.46-29.09-15.03-3.41-1.17-6.64-1.55-9.5-3.13.12-.19.05-.39.04-.6-.07-.89.72-1.44,1.52-1.8,2.66-1.19,4.56-3.42,6.65-5.62,4.85-5.08,9.63-9.67,15.24-12.95-.6-.52-1.22-.29-1.05-.99,2.97-.73,6.03-.86,9.06-1.13Z"/>
          <path class="cls-110" d="M217.72,82.26c-.22,2.24-.44,4.54.24,6.98-.88.12-1.23-.07-1.77-.17-.49-.09-.66.8-.91,1.24l-23.2,1.3c.18-1.2,1.88-.46,2.89-1.27.77-.61,2.73,1.42,3.55-.35.44-.93.79.21,1.83.11l-.71-6.94c5.99-.14,12.03-.87,18.06-.9Z"/>
          <path class="cls-41" d="M191.28,166.31c-2.58-.36-5.2.79-8.09.95l-24.96,1.4-.02-1.99c16.45-.2,29.91,1.54,43.12-11.12,2.99-2.86,6.1-5.32,9.39-8.08.69-.58,2.56-.66,2.27-2.35l.65-.16c-.17.7.45.47,1.05.99-5.62,3.28-10.39,7.87-15.24,12.95-2.1,2.19-3.99,4.43-6.65,5.62-.8.36-1.59.9-1.52,1.8Z"/>
          <path class="cls-108" d="M442.13,201.4c-.07.2.13.53.08.81-4.65,1.62-9.01,5.48-14.8,7.13-1.87-9.6-5.72-17.48-11.33-24.44-3.19-3.96-7.04-6.53-11.38-8.74-.3-.15-.58-.31-1.05-.38-.34-.05-.61.14-.82.66-3.6-1.88-7.59-2.64-11.42-1.31-1.88-4.5-15.01,6.7-16.98,9.23-5.95,1.13-11.77,1.91-18.14,2.6-28.51,3.08-56.79,4.31-85.48,3.57l-24.61-.63c-.62-.02-.93.15-1.22.4-1.72,1.47-4.68,1.03-5.93-.9-.32-.11-.87.27-1.13.03-.41-.39-.94-.68-1.28-1.06-1.4-1.55-3.82-2.26-5.6-3.21.31-.32.04-.54-.24-.96-.51-.76-.6-1.91.17-2.07,12.51,4.24,40.93,1.51,54.58-.15.4-.05,1.19.4,1.55-.02.17-.21-.25-.54-.26-.91,18.55-1.89,36-3.08,54.67-7.86l38.56-2.68,40.15-3.35c1.13,1.2,3.08.55,4.77.34l9.34-1.16c1.83-.23,3.72-.11,5.71.09,1.93.19,2.71,2.38,2.69,4.26-.08,9.55-12.23,12.33-18.16,13.74-1.01.24-2.39-.08-3.11,1.38,7.09-1.08,13.59-2.64,20.52-5.07-.22,4.02.56,7.86-.27,11.4-.25,1.07-.89,9.75.43,9.27Z"/>
          <path class="cls-100" d="M398.15,117.24c.23,6.81.12,13.66-.08,20.74l-13.24,1.23c-1.05.1-2.18-.19-3.35.21l-.93,23.82-.24,1.05c-.44,1.94-13.57.22-20.46-.4l-.88-23.78-17.43-.4c0-.39-.34-8.55-.4-10.28l-.35-9.21c1.36-.2.07-7.73,1.58-11.19,2.3,1.68,13,1.7,16.78,1.82l1.53-21.68,23.7.86-1.27,21.86,14.88-.06.18,5.43Z"/>
          <path class="cls-77" d="M417.06,77.62c1.35-.47,2.5,1.03,3.53,1.3-.31-.13-.59.28-.6.8-.58,22.98-5.6,42.34-17.36,61.06-.59.94-2.79.57-2.89-.19-.31-2.57.92-4.82.49-7.02-.48-2.43.19-4.81-.08-7.32l-1.09-10.17c-.59-.11-.51.38-.47.82.03.34-.1.59-.45.32l-.18-5.43-14.88.06,1.27-21.86-23.7-.86-1.53,21.68c-3.78-.12-14.48-.14-16.78-1.82,2.22-5.09.51-22.52,9.4-33.37.34-.42.46-.99.37-1.36,2.25-.17,4.45-2.15,6.49-3.06.51.55,1.14.81,2.11.75,13.25-.85,31.56,4.32,35.72,20.73.43,1.7.81,3.31,1.58,4.86,7.72-2.11,15.33-11.84,18.05-19.76.09-.25.88.03,1-.19Z"/>
          <path class="cls-36" d="M384.83,139.21l-1.41,21.24c-.06.87-.36,1.71-.53,2.54-.13.65-1.42-.15-1.51,1.17-.7.92-.23-.55-.83-.91l.93-23.82c1.18-.4,2.31-.12,3.35-.21Z"/>
          <path class="cls-24" d="M191.28,166.31c.02.2.08.4-.04.6-.53.88-.66,1.95-.99,2.93-3.49,10.16-6.76,20.43-8.85,31.26-.22,1.16-.4,2.22-1.53,2.19l-33.81,2.44c-.72-.38.05-1.42.34-2.15,3.85-9.64,6.48-19.57,9.18-29.45.82-3.01,1.05-5.65,2.65-5.46l24.96-1.4c2.89-.16,5.51-1.31,8.09-.95Z"/>
          <path class="cls-49" d="M231.05,185.16c1.78.94,4.2,1.66,5.6,3.21,0,.66-.52,1.11-.63,1.75-12.28-6.91-19.76,16.67-21.48,25.72l-1.59,8.36c-.39.29-.84.31-1.5-.06-11.59-6.64-19.75-15.73-20.33-30.97-.27-7.12-.04-13.97.06-20.94.01-.85-.7-1.85-.93-2.38.34-.98.46-2.05.99-2.93,2.86,1.57,6.1,1.95,9.5,3.13,10.39,3.57,19.8,8.99,29.09,15.03.5.33,1,.1,1.21.1Z"/>
          <path class="cls-105" d="M212.27,229.97v.63c.05,2.4-1.38,5.3-.9,7.65l-60.31-.71c-26-.31-51.35-2.38-77.03-6.01-1.99-.28-3.63-.33-5.24-1.3-.48-3-.49-5.69-.25-8.37.69.17,1.66-.35,2.29.64,1.61.43,3.37-.16,4.99.61,2.01.69,4.06.4,6.18.92,3.68.9,7.55.55,11.38,1.16,6.14.98,12.24,1.06,18.76,1.37l62.83,2.95c6.26.29,12.32.26,18.47.36l12.9.2c2.12.03,4.05-.31,5.92-.08Z"/>
          <path class="cls-40" d="M148.06,208.83l31.85-2.84c.88-.08,1.77-.23,3.07-.1-.36,4.5-1.37,8.5-2.82,13.04-8.94.23-17.66.96-26.56.11-2.88-.27-5.12-2.08-5.48-5.12-.2-1.72-.14-3.46-.06-5.1Z"/>
          <path class="cls-6" d="M143.37,207.75c.66.13,1.6-.75,1.16.73l-2,7.07c-13.53,1.66-27.18,2.34-40.65.16.14-.61-.46-.5-1.4-.48-.24-2.47.13-4.9.34-7.73,14.34.8,28.45.31,42.54.25Z"/>
          <path class="cls-50" d="M142.54,215.55c-.26.91-.21,3.04-1.33,3.76-13.5,2.74-26.48,3.54-39.95.14-1.14-.29-.82-1.81-.93-2.75-.14-1.16.72-.74,1.57-.99,13.46,2.19,27.11,1.5,40.65-.16Z"/>
          <g>
            <path class="cls-125" d="M212.96,224.19l.06,1.67c-.41,1.32-.77,2.55-.74,4.1-1.87-.23-3.8.11-5.92.08l-12.9-.2c-6.15-.09-12.21-.07-18.47-.36l-62.83-2.95c-6.52-.31-12.62-.39-18.76-1.37-3.84-.61-7.71-.26-11.38-1.16-2.12-.52-4.17-.23-6.18-.92-1.61-.78-3.38-.18-4.99-.61-.63-1-1.6-.47-2.29-.64.02-.2,0-.4.06-.6,3.54-.82,7.18-.07,10.99-.68l1.87-9.97c-.04.22,2.27-11.26,2.97-8.38,5.94,1.35,11.95,1.96,18.28,2.34.02-4.47.71-7.7,1.09-11.14,11.89,7.48,25.88,10.63,37.09-1.19,5.39-5.68,9.79-12.17,14.68-18.09-2.7,9.88-5.33,19.81-9.18,29.45-.29.73-1.06,1.77-.34,2.15-.87.45-1.6,1.99-2.69,2.03-14.09.06-28.21.55-42.54-.25-.21,2.83-.57,5.26-.34,7.73.95-.01,1.54-.13,1.4.48-.84.24-1.7-.17-1.57.99.11.94-.21,2.47.93,2.75,13.48,3.4,26.46,2.59,39.95-.14,1.12-.72,1.08-2.85,1.33-3.76l2-7.07c1.18-.2,2.36.45,3.52.35-.08,1.64-.14,3.38.06,5.1.36,3.04,2.6,4.85,5.48,5.12,8.9.84,17.62.11,26.56-.11,1.45-4.54,2.46-8.54,2.82-13.04-1.3-.13-2.19.02-3.07.1-.04-.9-.12-1.8-.04-2.71,1.13.04,1.31-1.03,1.53-2.19,2.09-10.83,5.36-21.11,8.85-31.26.22.53.94,1.53.93,2.38-.1,6.97-.33,13.82-.06,20.94.58,15.24,8.75,24.34,20.33,30.97.65.37,1.11.35,1.5.06Z"/>
            <path class="cls-58" d="M99.58,211.28c-4.92,5.89-9.74,5.37-18.03,3.42l1.98-9.53,16.58,1.85c-.1,1.59.19,3.41-.53,4.27Z"/>
          </g>
          <path class="cls-18" d="M179.87,203.28c-.08.9,0,1.8.04,2.71l-31.85,2.84c-1.16.1-2.34-.55-3.52-.35.43-1.48-.51-.6-1.16-.73,1.09-.04,1.82-1.58,2.69-2.03l33.81-2.44Z"/>
          <path class="cls-8" d="M415.89,77.02c.41.15,1.14-.2,1.17.59-.12.22-.91-.06-1,.19-2.73,7.92-10.33,17.65-18.05,19.76-.76-1.55-1.15-3.16-1.58-4.86-4.15-16.41-22.47-21.58-35.72-20.73-.97.06-1.6-.19-2.11-.75-.44.2,3.16-3.54,3.8-3.48,1.82.18-.5-4.15,14.55-1.66,13.54,2.25,26.3,6.38,38.94,10.93Z"/>
          <path class="cls-79" d="M356.75,63.96c-.71,1.99,5.6,1.92,5.67,1.88-.43.51-.25,1.35,0,1.92-.65-.06-4.24,3.68-3.8,3.48-2.03.91-4.23,2.89-6.49,3.06-5.09.39-9.81,2.54-14.23,5.35-5.07,3.22-31.63,1.95-39.62,1.8-24.1-.47-47.77-.67-71.59.26l-5.58.22c-.66.03-1.26.69-1.88.2-2.89-1.06,7.59-1.6,7.46-1.59l21.6-1.45c12.11-.81,23.66-.96,35.82-.99l44.79-.15c3.23-.01,6.59-.11,9.25-1.87,1.26-1.18,1.37-3.45,2.14-4.76,1.05-1.8,2.36-3.87,4.46-4.6,4.01-1.39,8.07-1.92,12.02-2.76Z"/>
          <path class="cls-94" d="M358.64,237.18c0,1.3-.43,2.35-1.14,3.34-4.51,1.58-9,2.87-14.09,3.72-25.18,4.21-56.63,8-81.41,5.08-.57,3.43-.45-10.82.42-8.38,2.88,1.5,6.06,2.5,9.58,2.79,24.24,2.01,60.69-1.91,84.62-7.49.64-.15.96-.55,1.38-.35s.5.92.64,1.28Z"/>
          <path class="cls-39" d="M340.27,71.31c-.77,1.31-.87,3.58-2.14,4.76-2.66,1.75-6.03,1.86-9.25,1.87l-44.79.15c-12.16.04-23.71.18-35.82.99l-21.6,1.45c.13,0-10.34.53-7.46,1.59-.43-.33-1.03.13-1.5.13-6.03.04-12.07.77-18.06.9l-6.03.14c-.13-.98.6-1.68,1.66-1.78,2.74-.26,5.14-1.18,7.76-1.74,5.94-1.27,11.91-2.01,18.07-2.79,3.4-.43,6.59-.42,9.85-1.06,1.84-.36,3.68-.05,5.6-.17l22.21-1.38c2.15-.13,9.16-.31,12.05-.4l16.22-.5c2.3-.07,4.51.37,6.68-.14,3.48-.81,7.97,1.11,7.26-1.02.78.31,1.79-.27,2.44-.46.97.63,2.2.28,3.33.32,1.64.06,3.25.18,4.89-.02.61-.08,1.34.04,1.97.03l12.92-.23c4.77-.08,9.27-.12,13.74-.68Z"/>
          <path class="cls-62" d="M423.74,219.46c.01-.45-.12-.89-.03-1.33,4.48-1.93,17.5-7.5,17.22-13.54.58-.36.97-.93,1.57-1.23,1.23-.62,7.03-2.77,5.61-4.47.1-.22.27-.44.5-.4.25.11.84-.1.94.56-1.5,3-3.73,5.47-6.99,5.66-.95,1.42-.77,3.49-1.96,4.62-5.02,4.75-10.86,7.97-16.87,10.14Z"/>
          <path class="cls-54" d="M448.11,198.88c1.43,1.7-4.38,3.85-5.61,4.47-.13-.34-.35-.75-.29-1.14.05-.28-.15-.61-.08-.81.2-.59.56-1.44.57-2.05,1.8-.07,3.59-.91,5.41-.47Z"/>
          <g>
            <path class="cls-89" d="M308.59,43.02c-1.44,1.59-3.49,1.83-5.38,2.36-.55-9.1-.22-16.43-2.69-25.59-.75-.99-1.36,0-.49.74.88,8.3.59,16.56-.31,24.66-1.02.17-2.11,1.11-3.49.85,1.41.73,2.67.53,3.84.6l-.6,22.04c-.04,1.62-.18,2.92-.73,4.04-2.72.07-5.56-.73-8.37-.15-2.82.58-5.52-.28-8.21-.06.3-4.83,3.77-20.08,5.21-24.96.14-.47,1.46-.6.9-1.43,1.75.12,3.46.83,5.48-.26-3.21-2.15-4.62-5.36-6.58-8.19,1.36-4.87,3.03-9.67,4.94-14.71.98-2.59,2.16-5.55,4.44-6.78,1.73-.93,3.46.76,4.5,2.29,4.07,5.95,6.1,12.97,7.78,20.26.38,1.66.28,3.08-.25,4.3Z"/>
            <path class="cls-121" d="M223.63,46.67c.12.71.74,1.15.43,1.89-.92,3.79-4.28,6.28-7.41,8.47,2.73.6,5.23-.01,7.67-.2.34,1.63-.18,3.25-.53,4.96-.87,4.21-1.11,8.42-1.62,12.76-.06.52-1.27.66-.98,1.23l-18.87,2.98c.56-7.09,2.86-13.53,3.68-20.5l9.66-1.18c-2.58-1.54-5.09-2.69-7.29-4.49,1.4-7.83,4.66-15.28,8.33-22.75,3.72.18,6.44,13.93,6.93,16.83Z"/>
            <path class="cls-32" d="M244.84,47.75c-5.62.05-11.29-.32-16.92-.63.13-1.4-1.5-3.55-.34-5.04.12-.74,1.29-1.71,1.32-2.49.03-1.7,1.08-2.81,1.43-4.28,1.75-7.4,5.34-13.75,6.8-21.21,1.11.97.16,2.09.33,2.81l1.36,5.7c.48,2.03,3.95,10.98,3.06,14.57,1.15,2.03,1.84,7.86,2.96,10.58Z"/>
            <path class="cls-104" d="M267.37,47.3c.03.42.37.64.03,1.04-.2.23-.21.71-.59.67-.75-1.55-7.02.59-7.98,1.05-.68.32-1.76.29-2.3.85-3.89.38-8.25,1.14-12,2.42-.49.17-1.29.01-1.87.11l-13.58,2.36c.14-.39-.12-.57-.89-.27-.49-2.8-.51-5.6-.26-8.4,5.63.3,11.29.67,16.92.63,2.1-.02,4.54,1.52,6.58.57,1.73-.81,3.39.08,5.26-.14,1.23-.15,2.31-1.35,3.73-.13.55.48,1.22-.62,1.49-.69,2.13.1,3.78.37,5.47-.06Z"/>
            <path class="cls-16" d="M271.22,46.43c.05.34,0,.68-.12.99-.34.08-.62-.1-.81.01-.28.17-.42.57-.29.86s.41.45.78.34.35-.71.32-1.22c1.76,3.67,2.73,8.02,3.39,12.27s1.31,8.69,1.41,13.04c-1.62.62-3.18.46-4.93.31-.78-1.33-2.62-.49-4.55-.77.76-7.44,1.56-14.6,3.02-21.89.14-.7,0-1.47-.31-1.68-.54-.36-1.17-.45-1.72-.35.34-.4,0-.62-.03-1.04,1.27-.32,2.56-.71,3.85-.87Z"/>
            <path class="cls-5" d="M283.87,46.5c-.18.23-.13.4.1.54l-4.84,25.2c-.73,1.43-2.28.11-3.24.48-.1-4.35-.74-8.74-1.41-13.04,1.15,1.81,2.85-10.9,4.28-13.13.63-.1,1.17.57,1.5-.18-.66-.39-1.25-.48-1.65-.47.42-.73,1.11-1.17,2.26-1.79.6,1.98,1.73,2.54,3,2.38Z"/>
            <path class="cls-102" d="M203.85,56.28c.32.88,1.36,1.69,2.15,1.98-.82,6.97-3.12,13.41-3.68,20.5l-7.53,2.19c-1.04.3-2.03.87-2.72-.2,2.91-2.34,4.09-6.07,5.8-9.1,2.72-4.82,3.07-10.76,5.98-15.37Z"/>
            <path class="cls-112" d="M309.95,47.42l1.67.48c-.17,7.72.97,16.59.03,24.29-1.64.2-3.25.08-4.89.02.26-.94.35-1.99.46-3.25l1.26-15.48c.17-2.06.48-3.96.59-5.85.4-.14.44-.35.89-.22Z"/>
            <path class="cls-113" d="M314.97,63.87c-.3,2.8-1.2,5.53-1.36,8.34-.63.01-1.35-.1-1.97-.03.94-7.7-.19-16.57-.03-24.29l6.09.54c-.91,5.6-2.2,10.45-2.74,15.44Z"/>
            <path class="cls-122" d="M282.16,72.5c-1.01.08-2.13.19-3.03-.25l4.84-25.2c.43.19.78-.27.56-.71.13.01.27-.01.4.02,1.11.24,2.26-.31,3.34-.24.55.83-.77.96-.9,1.43-1.44,4.88-4.91,20.13-5.21,24.96Z"/>
            <path class="cls-101" d="M227.59,42.08c-1.16,1.49.47,3.64.34,5.04-.25,2.8-.23,5.6.26,8.4.76-.29,1.03-.11.89.27-.78.14-1.49.55-2.24.7-.8.17-1.69.27-2.52.33-2.44.19-4.94.8-7.67.2,3.13-2.19,6.49-4.68,7.41-8.47.27.1.49-.06.57-.28.09-.26-.08-.64.13-.88,1.33-1.52.97-4.56,2.83-5.32Z"/>
            <path class="cls-10" d="M278.62,45.91c.4-.01.99.08,1.65.47-.33.74-.86.08-1.5.18-1.43,2.23-3.13,14.93-4.28,13.13-.65-4.24-1.63-8.59-3.39-12.27.12-.32.17-.66.12-.99,2.45-.3,4.93-.44,7.4-.51Z"/>
            <path class="cls-103" d="M288.27,46.11c-1.08-.07-2.24.48-3.34.24-.34-3.06,1.44-5.86,2.24-8.69,1.96,2.83,3.37,6.04,6.58,8.19-2.01,1.09-3.73.37-5.48.26Z"/>
            <path class="cls-32" d="M206,58.26c-.79-.29-1.83-1.1-2.15-1.98,1.36-2.16,3.52-2.62,4.52-3.69,2.2,1.79,4.71,2.95,7.29,4.49l-9.66,1.18Z"/>
            <path class="cls-32" d="M309.95,47.42c-.46-.13-.5.08-.89.22l-5.9-.71c-1.05-.13-2.06-.23-3.09-.29-1.18-.07-2.43.13-3.84-.6,1.38.27,2.47-.68,3.49-.85,1.07,0,2.25.55,3.49.19,1.88-.54,3.94-.77,5.38-2.36.2,4.63.3-.18,1.36,4.4Z"/>
            <path class="cls-30" d="M300.98,72.34c.71,2.13-3.78.21-7.26,1.02-2.17.5-4.38.07-6.68.14l-16.22.5c-2.89.09-9.9.26-12.05.4l-22.21,1.38c-1.92.12-3.76-.19-5.6.17-3.26.64-6.45.63-9.85,1.06-6.16.77-12.13,1.52-18.07,2.79-2.62.56-5.02,1.47-7.76,1.74-1.06.1-1.79.8-1.66,1.78l-5.81.92c.71-2.03,2.89-2.36,4.26-3.46.69,1.07,1.68.5,2.72.2l7.53-2.19,18.87-2.98c-.59.09,7.24-.6,6.42-.26,1.47-.62,3.08-.54,4.61-.62l6.27-.32c1.43-.07,2.82-.07,4.18-.34l3.02-.62c2.96.67,9.73-.21,13.07-.13,4.06.1,8.11-.8,12.21-.45,1.74.15,3.3.31,4.93-.31.96-.37,2.51.95,3.24-.48.9.44,2.02.34,3.03.25,2.69-.22,5.39.64,8.21.06,2.81-.58,5.64.22,8.37.15.83-.02,1.41-.7,2.24-.37Z"/>
            <path class="cls-19" d="M303.16,46.92l.26,24.96c-.65.19-1.66.77-2.44.46-.83-.33-1.41.35-2.24.37.55-1.12.69-2.41.73-4.04l.6-22.04c1.03.06,2.04.16,3.09.29Z"/>
            <path class="cls-72" d="M303.21,45.38c-1.24.35-2.43-.19-3.49-.19.9-8.09,1.19-16.36.31-24.66-.87-.74-.25-1.73.49-.74,2.46,9.16,2.14,16.49,2.69,25.59Z"/>
            <path class="cls-11" d="M226.84,56.49l.77,19.02c.82-.35-7.01.35-6.42.26-.28-.57.92-.71.98-1.23.51-4.34.75-8.54,1.62-12.76.35-1.71.87-3.33.53-4.96.83-.07,1.71-.17,2.52-.33Z"/>
            <path class="cls-61" d="M242.67,74.23c-1.35.28-2.75.27-4.18.34l-6.27.32c-1.53.08-3.14,0-4.61.62l-.77-19.02c.75-.15,1.45-.56,2.24-.7l13.58-2.36c.35,1.16.29,2.38.27,3.86l-.25,16.94Z"/>
            <path class="cls-61" d="M256.53,50.9l1.17,13.14c.29,3.25,1.28,6.36,1.06,9.45-3.34-.08-10.1.8-13.07.13l-1.16-20.3c3.75-1.27,8.11-2.04,12-2.42Z"/>
            <path class="cls-73" d="M270.97,73.04c-4.09-.36-8.15.54-12.21.45.22-3.09-.77-6.2-1.06-9.45l-1.17-13.14c.54-.56,1.62-.52,2.3-.85l3.87,16.66c1.99-6.23,3.16-12.01,4.11-17.71.38.05.4-.43.59-.67.56-.1,1.18,0,1.72.35.31.21.45.98.31,1.68-1.46,7.29-2.26,14.45-3.02,21.89,1.93.29,3.77-.55,4.55.77Z"/>
            <path class="cls-64" d="M266.81,49c-.96,5.7-2.12,11.48-4.11,17.71l-3.87-16.66c.96-.45,7.23-2.59,7.98-1.05Z"/>
            <path class="cls-76" d="M244.53,53.32l1.16,20.3-3.02.62.25-16.94c.02-1.47.08-2.7-.27-3.86.58-.1,1.39.05,1.87-.11Z"/>
            <path class="cls-10" d="M271.1,47.42c.03.51.06,1.1-.32,1.22s-.64-.04-.78-.34,0-.69.29-.86c.19-.12.47.07.81-.01Z"/>
            <path class="cls-119" d="M309.05,47.64c-.11,1.89-.42,3.79-.59,5.85l-1.26,15.48c-.1,1.25-.19,2.31-.46,3.25-1.13-.04-2.35.3-3.33-.32l-.26-24.96,5.9.71Z"/>
          </g>
          <path class="cls-99" d="M352.12,74.29c.09.36-.02.94-.37,1.36-8.89,10.85-7.18,28.28-9.4,33.37-1.51,3.46-.21,10.99-1.58,11.19-.4-10.57-1.45-21.22-2.76-31.86-.35-2.87-.37-5.85-.13-8.71,4.42-2.81,9.14-4.96,14.23-5.35Z"/>
          <g>
            <path class="cls-28" d="M338.02,88.35c1.31,10.63,2.36,21.28,2.76,31.86l.35,9.21c.07,1.73.4,9.9.4,10.28l-.03,33.48c-18.66,4.78-36.11,5.98-54.67,7.86l-5.37.55-26.33.55c-9.32.19-18.32-.46-27.1-2.36-1.7-.37-3.51-.99-5.25-2.09-6.82-4.31-13.71-7.78-20.67-11.52-1.69-.91-3.36-1.51-4.76-3.77,7.54-6.99,15.66-12.16,24.2-16.95.76-.43,1.11-1.04,1.14-1.63,4.46-.39,8.97-.8,13.44-.65-.11.74.4.62,1.08.6,20.51,1.37,40.65,3.87,60.87,7.56,8.44-14.53,11.26-31.67,13.78-48.3.37-2.44,1.84-6.19,1.55-8.55-.12-1.03-.71-3.79.41-3.89l24.18-2.24Z"/>
            <path class="cls-38" d="M320.4,148.5c-2.86.32-4.99.14-7.43-.36l1.29-22.35c2.76-.33,5.12.04,7.92.26l-1.77,22.45Z"/>
          </g>
          <path class="cls-34" d="M230.97,182.13c.25.08-5.66-2.17-2.94-2.35,8.77,1.9,17.77,2.56,27.1,2.36l26.33-.55,5.37-.55c.02.37.44.7.26.91-.35.42-1.15-.03-1.55.02-13.65,1.65-42.07,4.38-54.58.15Z"/>
          <path class="cls-98" d="M391.42,175.14c-5.33,1.86-9.67,5.93-13.63,10.79-7.09,8.7-11.97,18.91-15.36,29.39-1.62,4.99-3.1,10.06-3.87,15.27-24.05,3.73-56.5,7.34-80.89,5.34-5.06-.41-9.76-1.43-14.22-3.27l-2.03-2.99c.59.87-7.72-29.6-25.4-39.55.11-.64.62-1.09.63-1.75.34.38.87.68,1.28,1.06.26.25.81-.13,1.13-.03,1.25,1.93,4.21,2.37,5.93.9.91.5,2.04,1.58,3.15,1.66-.44.73.61,1.29,1.13,1.81,6.62,6.61,12.06,13.96,15.79,22.97,6.42,3.2,12.69,4.99,19.72,5.57,17.25,1.41,50.99,1.77,67.27-3.1,1-.3,1.86-2.06,2.33-3.14,4.38-10.03,10.05-18.6,15.76-27.25,1.45-1.32,3.06-2.85,4.31-4.46,1.96-2.53,15.09-13.73,16.98-9.23Z"/>
          <path class="cls-7" d="M374.44,184.37c-1.25,1.61-2.86,3.13-4.31,4.46-.61-.28-1.22-.29-2.31-.15-27.66,3.43-54.93,5.08-82.77,5.05-12.75-.01-24.74-.89-36.91-1.76-1.11-.08-2.24-1.16-3.15-1.66.29-.25.6-.42,1.22-.4l24.61.63c28.69.74,56.97-.49,85.48-3.57,6.37-.69,12.19-1.47,18.14-2.6Z"/>
          <path class="cls-21" d="M402.84,176.45c8.65,4.52,15.41,16.35,17.94,26.45-.08.41-.13.87-.35,1.04-3.23-6.03-6.6-11.53-11.47-15.73-7.28-6.29-16.51-7.77-24.73-2.52-7.78,4.97-14.34,12.69-17.65,21.59-1.7,1.89-2.7,8.16-4.16,8.03,3.39-10.48,8.27-20.69,15.36-29.39,3.96-4.86,8.3-8.93,13.63-10.79,3.83-1.33,7.82-.57,11.42,1.31Z"/>
          <path class="cls-88" d="M442.22,202.21c-.07.39.15.8.29,1.14-.6.3-.99.87-1.57,1.23-5.66,3.53-11.34,6.78-18.11,8.55-.08-3.93-1.26-7.1-2.05-10.24-2.53-10.1-9.29-21.94-17.94-26.45.21-.52.48-.71.82-.66.47.07.75.22,1.05.38,4.35,2.22,8.19,4.78,11.38,8.74,5.61,6.96,9.46,14.84,11.33,24.44,5.79-1.65,10.15-5.51,14.8-7.13Z"/>
          <path class="cls-57" d="M236.02,190.12c17.68,9.94,25.99,40.41,25.4,39.55l2.03,2.99c-.58-.24-1.35.14-1.72-1.35-.41.21-.48.74-.85.65-.24-2.89-1.5-5.27-2.41-7.84-3.32-9.39-8.98-17.89-15.95-24.06-5.18-4.59-11.98-7.25-18.08-1.29-3.65,3.56-6.77,8.92-8.62,14.14-.4,1.13-.18,2.66-1.27,2.93,1.72-9.05,9.2-32.62,21.48-25.72Z"/>
          <path class="cls-17" d="M358.55,230.58l-.51,3.44c-2.74,1.17-5.53,1.76-8.5,2.34-22.25,4.35-55.41,8.1-78.02,5.45-3.17-.37-6.87-1.02-9.04-3.61-1.19-1.43-1.44-4.47-1.6-6.26.37.09.44-.44.85-.65.37,1.49,1.14,1.11,1.72,1.35,4.45,1.84,9.16,2.86,14.22,3.27,24.39,2,56.83-1.61,80.89-5.34Z"/>
          <path class="cls-111" d="M370.13,188.83c-5.71,8.66-11.38,17.22-15.76,27.25-.47,1.08-1.33,2.84-2.33,3.14-16.28,4.87-50.02,4.51-67.27,3.1-7.03-.58-13.3-2.37-19.72-5.57-3.73-9.02-9.17-16.36-15.79-22.97-.52-.52-1.57-1.08-1.13-1.81,12.17.88,24.16,1.75,36.91,1.76,27.84.03,55.11-1.63,82.77-5.05,1.09-.13,1.7-.13,2.31.15Z"/>
          <g>
            <path class="cls-123" d="M223.87,265.05c1.37-.24-.19,1.27,1.19,1.38,1.97,1.89,3.66,4.42,6.06,5.73-.36.89-7.39-.53-10.05-.58-.41,0-.82-.08-1.24-.05-4.33.3-7.74-5.71-8.67-6.55.22-1.57-.56-3.13.01-5.12l11.79,5.25c.42.48.81.57.91-.06Z"/>
            <path class="cls-20" d="M216.6,251.62l.97,1.33c1.26,4.38,4.04,8.26,6.3,12.09-.1.63-.49.54-.91.06l-11.79-5.25c-.57,1.99.21,3.56-.01,5.12-2.46-2.23-4.49-4.8-5.97-8.04.28.2.59-.56.96-.34l4.36,2.54.62-7.23c1.8-.35,3.63-.44,5.46-.28Z"/>
            <path class="cls-115" d="M211.14,251.9l-.62,7.23-4.36-2.54c-.38-.22-.68.54-.96.34-.7-1.54-2.03-2.53-2.53-4.29,1.51-1.07,5.97-.25,8.48-.74Z"/>
            <path class="cls-117" d="M257.54,267.48c-2.44,2.99-5.49,5.36-9.31,6.23-5.7,1.3-11.99,1.22-17.1-1.56-2.4-1.3-4.09-3.84-6.06-5.73,4.51,1.07,8.93,3.02,13.72,2.99,3.3-.02,17.38.5,18.67-2.55.06.14.21.47.09.62Z"/>
            <path class="cls-4" d="M232.28,202.51c-.08,2.21.02,4.28.35,6.45.48,3.21.49,6.52.53,9.74-.88.26-1.06-.78-1.52-1.46-1.9-2.79-3.83-5.3-6.19-8.2-3.32,5-10.23,20.75-9.72,25.76-.67.4-1.06,1.96-2.1,1.14-.88.58-.42-6.22-1.35-5.35v-.63c-.04-1.55.32-2.78.73-4.1,2.64-8.47,6.12-17.05,12.31-23.63,2.01-2.14,4.31-3.65,6.7-3.85-.65,1.38.3,3.01.26,4.12Z"/>
            <path class="cls-69" d="M242.52,200.05c-1.84.68-3.39-1.06-5.19-1.37-1.71-.29-3.57-.45-5.3-.3-2.39.21-4.69,1.71-6.7,3.85-6.19,6.58-9.67,15.16-12.31,23.63l-.06-1.67,1.59-8.36c1.09-.27.87-1.81,1.27-2.93,1.85-5.21,4.97-10.58,8.62-14.14,6.11-5.96,12.9-3.29,18.08,1.29Z"/>
            <path class="cls-95" d="M213.63,235.94c-.79,3.42,2.57,12.06,2.96,15.68-1.84-.16-3.66-.07-5.46.28.23-2.74-.11-5.6,0-8.22.09-1.9.63-3.44.22-5.45-.48-2.35.96-5.25.92-7.65.94-.87.47,5.93,1.35,5.35Z"/>
            <path class="cls-3" d="M230.42,250.53c2.72,3.85,4.79,8.32,8.02,11.65-.2.92.87,1.12.89,1.92-.7,1.04.3,2.32.06,3.54-.12.62-.34,1.22-.61,1.77-4.79.03-9.21-1.92-13.72-2.99-1.38-.11.18-1.62-1.19-1.38-2.26-3.82-5.04-7.71-6.3-12.09.02-.39.06-1.6.72-1.62,4.19-.12,8.21-.05,12.13-.81Z"/>
            <path class="cls-97" d="M230.42,250.53c-3.92.75-7.94.68-12.13.81-.65.02-.7,1.22-.72,1.62l-.97-1.33c-.39-3.62-3.76-12.26-2.96-15.68,1.03.82,1.42-.74,2.1-1.14,2.95,0,5.86.52,9.4-.04l1.51,6.2,3.78,9.58Z"/>
            <path class="cls-47" d="M260.64,257.52c-.55,3.29-1.92,6.34-3.18,9.34-1.29,3.05-15.36,2.53-18.67,2.55.27-.55.49-1.15.61-1.77.55.3.74,1.08,1.25,1.18.65.14,2.17-.65,1.81-1.51-.59-1.42-2.02-2.53-3.11-3.21-.02-.8-1.1-1-.89-1.92.5-.36.28-1.11.63-1.59,3.63,5-.42-17.35-.06-19.09,1.8.97,2.79,2.88,3.53,4.35-1.03,1.62-1.6,5.48-.4,6.97-.18.41,9.18,1.7,6.96.68l6.39,6.84c.76-1.11.54-1.94.83-2.93-4.86-4.2-6.98-9.06-11.89-14.53-1.83-2.04-3.65-4-4.9-6.18l11.8-.44c.26-.94.35-1.46.95-1.15-.7,1.95,4.2,3.7,5.48,6.66,1.95,4.49,2.11,9.51,2.39,14.53.04.69-.18,1.3.49,1.23Z"/>
            <path class="cls-107" d="M242.52,200.05c6.97,6.17,12.63,14.67,15.95,24.06-.4,0-1.17.54-1.15,1.05.02.42.13,1.27.38,1.87,3.66,8.56,1.34,8.48,4.71,13.91-.87-2.44-.99,11.81-.42,8.38l-1.36,8.2c-.67.07-.45-.54-.49-1.23-.28-5.02-.44-10.05-2.39-14.53-1.29-2.96-6.19-4.71-5.48-6.66.52-1.2,1.86-.67,2.92-1.27.12-.95.34-1.91.27-2.74-.34-3.87-2.08-7.17-3.86-10.35-1.66-2.98-2.82-6.68-5.35-9.33-1.92,1.97-2.5,4.95-3.5,7.19-.94,2.11-2.05,4.25-3.09,6.3-.97-.8-1.15-1.36-1.83-2.44,1.22-.82,3-2.56,2.99-4.69,0-.86-2.82-6.13-3.77-5-.02-.6-.39-1.22-.33-1.79.42-2.49.03-5.06-.03-7.58-.04-1.66-.01-3.19.62-4.71,1.81.31,3.35,2.05,5.19,1.37Z"/>
            <path class="cls-116" d="M236.74,210.98c-.06.58.32,1.2.33,1.79.09,3.36-.93,6.97.77,9.69.67,1.08.85,1.64,1.83,2.44,1.15.94,1.82,3.14,3.84,3.4-1.15,2.29-2.4,2.68-3.05,4.73,2.56-.1,4.55-.47,6.47-1.22-2.8,1.09,9.24-2.16,7.83-1.57.25.67.44,1.03.71.85.07.83-.15,1.79-.27,2.74-1.06.59-2.4.07-2.92,1.27-.6-.32-.69.21-.95,1.15l-11.8.44c1.25,2.18,3.07,4.14,4.9,6.18,4.91,5.47,7.03,10.33,11.89,14.53-.28.99-.07,1.82-.83,2.93l-6.39-6.84c-2.25-2.41-4.03-5.49-6.56-7.64-.75-1.47-1.73-3.37-3.53-4.35-.36,1.73,3.69,24.08.06,19.09-.94-2.12-1.26-4.64-1.66-7.26l-2.08-13.74-2.92,5.48c-1.43-1.55-2.54-3.11-2.22-5.5.15-1.17-2.05-.25-2.92-.63-.91-.4-1.02-2.7-1.15-3.8l5.68-.88c-.63-3.12-2.77-5.44-5.12-7,.87-2.23-3.85-3.78-1.85-9.25,2.7,3.32,4.64,6.63,7.17,9.38.78.85,1.31,2.86,2.75,3.51.15-1.64-.71-3.78-.98-5.28.48-2.33-.59-4.58-.61-6.92-.04-3.22-.04-6.53-.53-9.74,1.59-.19,2.72,1.33,4.1,2.02Z"/>
            <path class="cls-114" d="M233.16,218.7c.03,2.33,1.09,4.59.61,6.92-.9-.35-1.44,1.06-1.77,1.77-2.53-2.75-4.47-6.05-7.17-9.38-2.01,5.47,2.71,7.02,1.85,9.25,2.35,1.55,4.49,3.87,5.12,7l-5.68.88c.13,1.1.24,3.39,1.15,3.8.87.39,3.08-.53,2.92.63-.32,2.39.79,3.95,2.22,5.5l2.92-5.48,2.08,13.74c.4,2.63.72,5.14,1.66,7.26-.35.48-.13,1.23-.63,1.59-3.23-3.33-5.3-7.8-8.02-11.65l-3.78-9.58-1.51-6.2c-3.54.56-6.45.05-9.4.04-.51-5,6.4-20.75,9.72-25.76,2.36,2.9,4.29,5.42,6.19,8.2.46.67.65,1.72,1.52,1.46Z"/>
            <path class="cls-42" d="M236.7,203.4c.06,2.53.45,5.09.03,7.58-1.38-.69-2.51-2.21-4.1-2.02-.33-2.18-.43-4.25-.35-6.45,1.52.66,2.87,2.05,4.42.89Z"/>
            <path class="cls-66" d="M237.32,198.68c-.63,1.52-.66,3.05-.62,4.71-1.54,1.16-2.9-.23-4.42-.89.04-1.12-.9-2.75-.26-4.12,1.73-.15,3.59,0,5.3.3Z"/>
            <path class="cls-46" d="M239.39,267.64c.24-1.22-.76-2.49-.06-3.54,1.1.68,2.53,1.79,3.11,3.21.36.86-1.16,1.64-1.81,1.51-.51-.11-.69-.88-1.25-1.18Z"/>
            <path class="cls-109" d="M249.11,253.5c2.22,1.02-7.14-.27-6.96-.68-1.2-1.48-.63-5.35.4-6.97,2.53,2.16,4.31,5.23,6.56,7.64Z"/>
            <path class="cls-27" d="M255.47,231.1c-.28.18-.46-.17-.71-.85,1.41-.59-10.63,2.66-7.83,1.57-.73-1.45-2.17-1.77-3.35-3.62,1.52-1.16,2.17-2.74,3.15-3.59,1.58-1.35,3.19-2.72,4.88-3.87,1.78,3.18,3.52,6.48,3.86,10.35Z"/>
            <path class="cls-1" d="M251.61,220.74c-1.68,1.15-3.3,2.52-4.88,3.87-1.26-2.02-2.25-4.39-3.97-6.01.99-2.23,1.57-5.21,3.5-7.19,2.52,2.65,3.68,6.35,5.35,9.33Z"/>
            <path class="cls-13" d="M246.73,224.61c-.99.84-1.63,2.42-3.15,3.59,1.18,1.85,2.62,2.17,3.35,3.62-1.92.74-3.9,1.12-6.47,1.22.65-2.05,1.9-2.44,3.05-4.73-2.02-.26-2.69-2.46-3.84-3.4,1.04-2.05,2.15-4.19,3.09-6.3,1.72,1.62,2.7,3.99,3.97,6.01Z"/>
            <path class="cls-53" d="M237.84,222.46c-1.7-2.72-.68-6.33-.77-9.69.95-1.13,3.77,4.15,3.77,5,0,2.13-1.78,3.86-2.99,4.69Z"/>
            <path class="cls-81" d="M233.77,225.62c.27,1.5,1.13,3.64.98,5.28-1.44-.65-1.97-2.66-2.75-3.51.34-.72.87-2.12,1.77-1.77Z"/>
          </g>
          <g>
            <path class="cls-55" d="M423.75,224.94c-2.15,15.65-6.46,25.02-17.99,34.22l-6.07,2.73c-7.65,3.44-15.94,3.1-24.03,1.95-3.83-.54-6.83-2.24-9.96-3.87-6.38-7.24-6.29-9.98-8.19-19.46.71-.99,1.14-2.04,1.14-3.34.62.21,1.38-.37,1.99-.02.48,9.68,7.09,16.59,14.87,18.61,1.87.49,4.49,1.21,6.36,1.05-2.07.41,9.88,1.19,7.29,1.39,5.97-.45,11.12-3.24,16.03-6.55,8.16-5.49,13.93-13.95,16.14-24.23.37-1.73.17-3.34.14-4.98.47-.3,1.34.29,1.76.97.24.39-.3,1.09.52,1.52Z"/>
            <path class="cls-63" d="M421.54,221.35c.22.36-.09.78-.08,1.1.03,1.63.23,3.25-.14,4.98-2.21,10.28-7.98,18.74-16.14,24.23-4.91,3.31-10.06,6.1-16.03,6.55,2.59-.19-9.36-.97-7.29-1.39.72-3.95,1-7.98,1.52-11.94.7-5.28,2.13-10.35,3.56-15.9.31.79.93,1.29,1.3,2.2l8.78,21.7c1.88-.19,3.37-1.04,4.88-2.72-2.34-4.48-3.9-9.14-5.82-13.51.63-.22.43.99,1.27,1.08.59-3.38.01-6.29.87-9.14,4.05,1.32,7.91,3.05,12.47,4.92,1.47-1.69,2.09-3.87,2.64-6.18l-12.27-4.56,15.48.49c1.56.05,3.27-.2,3.72-1.93.44-.04.87,0,1.31.03Z"/>
            <path class="cls-80" d="M372.97,208.72c.07.53.27.8-.04,1.16-1.6,1.89-2.79,4.07-3.79,7.36,1.26,1.21,11.34,1.48,11.36-.42,0-1.33,1.2-.67,1.64-1.01.02.25.11.61-.01.82-.21.37-.74.19-.97.3-.53.24-.26,1.28-.19,1.79-4.06,5.85-15.55-2.42-14.6,4.89-.38.02-.96.13-1.55.27-1.04,3.37-2.9,6.39-3.24,9.78-.1.94-1,2.18-.94,3.49-.6-.35-1.36.23-1.99.02-.14-.36-.22-1.09-.64-1.28s-.75.2-1.38.35c-23.93,5.58-60.38,9.5-84.62,7.49-3.52-.29-6.7-1.29-9.58-2.79-3.37-5.44-1.05-5.36-4.71-13.91-.26-.6-.36-1.45-.38-1.87-.02-.51.74-1.05,1.15-1.05.91,2.57,2.17,4.95,2.41,7.84.15,1.79.4,4.83,1.6,6.26,2.17,2.6,5.87,3.24,9.04,3.61,22.61,2.65,55.77-1.1,78.02-5.45,2.97-.58,5.76-1.17,8.5-2.34l.51-3.44c.77-5.21,2.26-10.28,3.87-15.27,1.47.14,2.46-6.13,4.16-8.03,1.03-.08,2.52-1.31,3.24-2.38,1.06,1.28,1.58,3.29,3.14,3.82Z"/>
            <path class="cls-22" d="M363.47,237.95c.13.87-.48,3.45.89,3.51,2.92.12,4.75-3.2,7.13-3.64,9.4-1.73,2.8-2.43,9.87-3.05-.75,5.81-3.52,11.09-4.71,16.89-.24,1.18-1.51,2.58-1.15,4.11-7.78-2.03-14.39-8.93-14.87-18.61-.07-1.32.84-2.55.94-3.49.33,0,.65-.23.93-.38.03,1.53-.24,3.62.97,4.67Z"/>
            <path class="cls-9" d="M383.38,244.88c-.52,3.96-.79,7.99-1.52,11.94-1.87.16-4.49-.56-6.36-1.05-.36-1.53.91-2.92,1.15-4.11.23.38-.42.88.15,1.46l5.44-7.85c.34-.5.79-.63,1.13-.4Z"/>
            <path class="cls-106" d="M423.71,218.13c-.09.45.04.88.03,1.33-.9.32-2.08.73-2.2,1.89-.44-.03-.87-.07-1.31-.03-.85-.41.64-1.12-.13-1.25-.65-.11-.79-.81-1.28-.72-2.42-10.65-8.07-19.57-17.64-23.43-.9-.37-2.49-1.39-3.21-.13-3.51-1.04.88-5.06.39-8.42,11.01.77,22.61,18.51,23.72,30.97.72-.03,1.19-.03,1.62-.22Z"/>
            <path class="cls-26" d="M397.98,195.8c.72-1.26,2.3-.24,3.21.13l-7.67,12.2c-1.31,2.09-2.43,4.16-2.36,6.58l20.36-8.93c.67,2.02,1.04,3.75,1.4,6.45-5.06,2.47-10.38,3.75-14.93,6.61-1.72.49-3.5.52-5.46,2.02,2.89.19,5.61,1.83,8.5,1.92l12.27,4.56c-.55,2.31-1.17,4.49-2.64,6.18-4.56-1.86-8.42-3.59-12.47-4.92-2.46-.8-4.91-3.04-7.9-3.61,1.29,4.5,4.12,7.92,5.76,11.67,1.92,4.38,3.48,9.03,5.82,13.51-1.51,1.68-3,2.53-4.88,2.72l-8.78-21.7c-.37-.92-.99-1.42-1.3-2.2-1.43,5.55-2.86,10.62-3.56,15.9-.34-.23-.79-.1-1.13.4l-5.44,7.85c-.57-.58.07-1.08-.15-1.46,1.19-5.8,3.95-11.09,4.71-16.89.3-2.32,2.57-4.92,2-8.18-3.77,2.62-6.87,6.15-10.29,9.31-.69.64-1.64,1.02-1.58,1.92-2.38.44-4.2,3.76-7.13,3.64-1.37-.06-.76-2.63-.89-3.51,5.84-7.69,11.59-7.14,18.66-13.74-1.98-.26-5.52-1.11-7.38.55,2.63-1.67-8.61-1.13-8.38-1.15-.95-7.31,10.54.96,14.6-4.89-.06-.51-.33-1.55.19-1.79.23-.11.76.08.97-.3.12-.21.03-.57.01-.82.79-.61,2.11-.3,2.89,1.14.55-1.58.28-2.84-.08-4.08-1.27-4.36-2.63-8.74-3.52-13.25.65-.43,1.55-.93,2.35-1.1l4.48,12.58c1.17-1.45,2.32-3.04,2.23-4.92-.06-1.38,1.23-2.71,1.26-4.22.06-2.78,1.08-4.83,1.63-7.06l2.42.4-1.58,6.16c1.36-1.91,2.63-3.67,3.76-5.67Z"/>
            <path class="cls-35" d="M420.23,221.33c-.45,1.73-2.15,1.98-3.72,1.93l-15.48-.49c-2.88-.09-5.61-1.73-8.5-1.92,1.96-1.5,3.74-1.53,5.46-2.02.57-.16.93.89,1.53.88,6.24-.07,12.07.07,18.17.71.59.06,1.21-.84,1.13-1.06.49-.09.63.61,1.28.72.76.12-.72.84.13,1.25Z"/>
            <path class="cls-124" d="M398.2,228.59c-.86,2.85-.27,5.76-.87,9.14-.84-.09-.64-1.31-1.27-1.08-1.64-3.75-4.46-7.17-5.76-11.67,2.99.57,5.44,2.81,7.9,3.61Z"/>
            <path class="cls-78" d="M420.78,202.9c.79,3.15,1.97,6.31,2.05,10.24,6.76-1.77,12.44-5.03,18.11-8.55.28,6.05-12.74,11.62-17.22,13.54-.44.19-.91.19-1.62.22-1.11-12.46-12.7-30.2-23.72-30.97-1.18-.08-2.36-.33-3.53-.5-10.19-1.47-19.78,10.34-25.01,18.02-.73,1.07-2.21,2.31-3.24,2.38,3.31-8.9,9.86-16.62,17.65-21.59,8.22-5.25,17.45-3.77,24.73,2.52,4.87,4.2,8.24,9.7,11.47,15.73.22-.18.27-.64.35-1.04Z"/>
            <path class="cls-51" d="M394.84,186.88c-.84,2.58-.83,5.42-1.47,8.03-.55,2.23-1.57,4.27-1.63,7.06-.03,1.51-1.33,2.83-1.26,4.22.09,1.88-1.06,3.47-2.23,4.92l-4.48-12.58c-.8.17-1.7.67-2.35,1.1-2.74,1.83-4.82,4.62-6.74,7.42-.42.62-1.09,1.36-1.72,1.68-1.56-.53-2.08-2.54-3.14-3.82,5.23-7.68,14.82-19.49,25.01-18.02Z"/>
            <path class="cls-86" d="M374.74,224.76c-3.81,3.39-7.82,6.17-12.24,8.53-.28.15-.6.37-.93.38.34-3.39,2.19-6.41,3.24-9.78.59-.15,1.17-.25,1.55-.27-.23.01,11.01-.52,8.38,1.15Z"/>
            <path class="cls-120" d="M380.5,216.82c-.01,1.9-10.09,1.63-11.36.42,1-3.29,2.19-5.48,3.79-7.36l6.74,6.68c.26.25.61.11.82.26Z"/>
            <path class="cls-44" d="M381.81,213.47c.41.77.87,1.56.33,2.35-.43.34-1.63-.32-1.64,1.01-.21-.15-.57,0-.82-.26l-6.74-6.68c.31-.37.11-.63.04-1.16.63-.31,1.29-1.06,1.72-1.68,2.44,2.04,4.42,4.82,7.12,6.43Z"/>
            <path class="cls-74" d="M363.47,237.95c-1.21-1.04-.94-3.14-.97-4.67,4.42-2.36,8.43-5.13,12.24-8.53,1.86-1.66,5.41-.8,7.38-.55-7.07,6.6-12.81,6.04-18.66,13.74Z"/>
            <path class="cls-65" d="M381.36,234.77c-7.08.62-.47,1.31-9.87,3.05-.05-.9.89-1.29,1.58-1.92,3.42-3.15,6.51-6.69,10.29-9.31.57,3.26-1.7,5.87-2,8.18Z"/>
            <path class="cls-23" d="M418.82,219.36c.08.22-.53,1.12-1.13,1.06-6.1-.64-11.93-.78-18.17-.71-.6,0-.96-1.04-1.53-.88,4.56-2.86,9.87-4.14,14.93-6.61-.36-2.7-.74-4.43-1.4-6.45l-20.36,8.93c-.08-2.42,1.04-4.49,2.36-6.58l7.67-12.2c9.56,3.86,15.21,12.79,17.64,23.43Z"/>
            <path class="cls-33" d="M398.37,187.38c.48,3.36-3.91,7.38-.39,8.42-1.13,1.99-2.4,3.76-3.76,5.67l1.58-6.16-2.42-.4c.64-2.6.63-5.45,1.47-8.03,1.17.17,2.35.41,3.53.5Z"/>
            <path class="cls-52" d="M384.94,212.87c-.59-.63-1.28,1.03-1.55,0-.72-.83-.79.94-1.59.6-2.7-1.61-4.68-4.38-7.12-6.43,1.92-2.8,4-5.59,6.74-7.42.89,4.51,2.25,8.89,3.52,13.25Z"/>
            <path class="cls-84" d="M384.94,212.87c.36,1.24.63,2.5.08,4.08-.78-1.44-2.1-1.75-2.89-1.14.54-.79.08-1.58-.33-2.35.8.34.87-1.43,1.59-.6.27,1.03.96-.62,1.55,0Z"/>
          </g>
        </g>
      </g>
      <path class="cls-90" d="M93,248.62c.62.44.24,1.66-.46,1.91s-1.45-.13-2.09-.54c-8.11-5.21-11.79-16.48-11.42-26.94.38-10.45,4.1-20.37,7.76-30.02,4.84-12.74,9.76-25.64,17.38-36.58-.8.56-1.59,1.11-2.39,1.67,6-3.38,11.99-6.76,17.99-10.14-1.54-.53-5.57,3.59-7.12,3.06,17.24-16.54,34.66-32.84,52.26-48.89,11.85-10.81,23.84-21.55,37.03-30.21-.77,1.71-2.08,3.11-3.64,3.92,1.32-7.52,3.86-14.78,7.46-21.31.43,1.67-1.31,3.5-2.78,2.92,32.74,1.38,64.7-12.6,97.46-13.32,6.63-.15,13.8.47,18.84,5.25-2.05,3.51-2.82,7.91-2.1,12-1.86.62,1.62,1.83-.23,2.44,25.1-.95,50.21-1.71,75.31-1.63,11.32.04,22.79.27,33.65,3.77-.55-.43-.11-1.52.55-1.67s1.3.28,1.86.69c-1.17-.31-2.5.32-3.13,1.47"/>
      <path class="cls-90" d="M280.25,37.02c.68-1.14.35-2.87-.69-3.58-.07,13.4-2,26.8-5.7,39.57-9.16-3.76-19.3-2.57-29.02-1.33-10.23,1.31-20.46,2.61-30.7,3.92-2.61.33-5.6.54-7.5-1.48,5.29-14.3,13.85-27.1,24.66-36.83,0,2.24-.38,4.47-1.11,6.56"/>
      <path class="cls-90" d="M282.14,60.58c-.24,1.9-.83,3.75-1.72,5.4,2.29-15.82,6.93-31.23,13.67-45.41.97-2.03,2.32-4.29,4.37-4.42,1.81-.12,3.3,1.51,4.39,3.13,3.98,5.95,5.93,13.28,7.22,20.57,1.4,7.97,2.1,16.1,2.08,24.22,0,2.77-.13,5.66-1.35,8.07-1.7-.98-2.6-3.42-2-5.46"/>
      <path class="cls-90" d="M292.26,65.53c2.94-8.45,3.79-17.79,2.44-26.7-.27-1.76-.75-3.71-2.14-4.58-2.75,2.22-4.39,6.06-4.2,9.82.08,1.51.56,3.18,1.78,3.84,1.04.56,2.3.21,3.36-.3,4.86-2.33,8.27-8.02,8.33-13.9-2.29,3.97-3.6,8.63-3.76,13.34-.11,3.4.36,6.77.84,10.13.39,2.78.79,5.56,1.18,8.33"/>
      <path class="cls-90" d="M222.48,66.01c.35-.61,1.27-.38,1.6.23s.26,1.39.17,2.1c.19-9.66-.24-19.33-1.28-28.92-.47-4.36-1.69-9.55-5.48-10.78-2.63,3.18-4.17,7.28-5.52,11.34-3.26,9.74-5.83,19.78-7.66,29.97,2.85-9.79,10-14.86,7.29-24.67-1.28,4.15-2.04,8.5-2.24,12.88-.04.83.14,1.94.89,2.03,3.14-3.65,5.34-8.29,6.26-13.23-2.94,8.19-1.03,18.23,4.62,24.34-.15-.74,1.49-4.56,1.34-5.3Z"/>
      <path class="cls-90" d="M276.96,34.31c-4.54-1.61-9.24-2.64-13.99-3.07.89,1.27,2.26,2.1,3.7,2.27"/>
      <path class="cls-90" d="M287.09,19.41c-2.4.51-4.13-2.4-5.15-4.87-1.29-3.13-2.59-6.26-3.88-9.39.35.26.71.52,1.06.78"/>
      <path class="cls-90" d="M320.9,26.47c1.7-2.33,4.42-3.51,7.1-3.8s5.37.22,8.02.72c-.68,1.72-1.91,3.15-3.42,3.98"/>
      <path class="cls-90" d="M198.33,40.55c-3.36.37-6.79-.13-9.94-1.47.26.7.89,1.21,1.56,1.27"/>
      <path class="cls-90" d="M206.63,27.07c-1.85-.7-3.57-1.84-4.99-3.33"/>
      <path class="cls-90" d="M222.36,22.46c-1.36-2.71-1.25-6.28.28-8.9.43,1.47.86,2.95,1.29,4.42"/>
      <path class="cls-90" d="M233.42,29.57c-.24-2.35,1.34-4.76,3.42-5.24,2.08-.48,4.36,1.04,4.96,3.31"/>
      <path class="cls-90" d="M236.69,44.21c2.74.32,5.47.65,8.21.97.42.05.94.19,1.03.65s-.8.58-.64.14"/>
      <path class="cls-90" d="M425.63,64.28c-1.18-4.02-2.36-8.04-3.53-12.05,12.16,44.19,16.29,90.7,27.24,135.29,1.3,5.31,2.81,10.81,6.21,14.81-2.05-2.89-4.1-5.79-6.15-8.68"/>
      <path class="cls-90" d="M447.27,154.04c-.52-1.14-1.73-1.84-2.87-1.65.19,20.41.38,40.82.56,61.23-.67-7.89-1.93-15.72-3.78-23.36.41,5.3.81,10.6,1.22,15.9.39-.96-1.37-.59-1.72.38-.77,2.13-.98,4.51-.59,6.77.25,1.42.73,2.84.54,4.27-.41,3.1-3.56,4.62-6.27,5.47-5.52,1.74-11.14,3.08-16.81,4.02,1.1.06,2.2.11,3.3.17"/>
      <path class="cls-90" d="M422.17,218.05c.16,1.06.32,2.12.48,3.18,2.85-12.94-2.36-26.56-9.94-36.79-3.48-4.7-7.86-9.15-13.29-10.01-7.1-1.12-13.74,4.18-18.67,10.02-7.19,8.51-12.65,18.81-15.86,29.92-3.54,12.25-4.1,26.48,2.25,37.17,7.22,12.14,22.69,16.65,34.86,11.15,12.17-5.5,20.35-19.83,20.84-34.43.49-14.59-6.21-28.91-16.48-37.91-2.47-2.17-5.97-4.08-8.6-2.13.14,4.39,1.52,8.71,3.91,12.2"/>
      <path class="cls-90" d="M251.19,215.45c1.38-7.6-4.23-14.42-9.86-18.93-2.64-2.11-5.64-4.13-8.9-3.94-5.48.31-9.06,6.45-11.23,12.08-4.54,11.79-7.09,24.82-5.34,37.46s8.23,24.79,18.36,30.76c2.11,1.25,4.39,2.23,6.77,2.53,5.28.68,10.64-2.11,14.3-6.43,3.66-4.32,5.8-10.02,6.98-15.8,2.34-11.48,1.11-23.8-3.44-34.38-2.61-6.08-6.36-11.66-11.39-15.4-5.03-3.73-11.42-5.46-17.3-3.81-2.93.82-5.78,2.56-7.39,5.41s-1.68,6.9.38,9.35"/>
      <path class="cls-90" d="M405.51,199.04c-1.59-.65-3.24.72-4.47,2.04-4.03,4.31-7.68,9.04-10.91,14.12,6.46-2.64,13.06-4.86,19.75-6.63,2.35-.62,5.74-.46,6.06,2.2.24,1.95-1.55,3.4-3.15,4.25-5.71,3.03-12.04,4.6-18.35,4.54,5.11,2.36,10.11,5,14.98,7.9,2.32,1.38,4.83,3.15,5.4,6.02-.92,1.56-3.04,1.15-4.62.56-5.37-2.01-10.74-4.02-16.1-6.03-.79.85-.52,2.3-.08,3.41,2.74,6.99,9.7,11.65,10.79,19.19-3.58,1.11-7.05-1.98-9.44-5.13-4.63-6.09-8.07-13.3-10.02-20.98,1.85,5.75,1.81,12.23-.09,17.98-1.13,3.41-3.65,6.99-6.88,6.55-.89-1.49-.09-3.47.74-5.02,4.11-7.69,8.82-14.99,14.07-21.78-6.15-.99-12.37-1.44-18.58-1.34,6.53-.7,12.95-2.69,18.88-5.83-2.22-3.67-4.44-7.34-6.66-11.01,2.25,2.29,4.5,4.57,6.75,6.86l.12-2.75"/>
      <path class="cls-90" d="M244.46,215.61c-3.74,4.17-5.81,10.13-5.56,16,3.51-3.35,7.02-6.7,10.54-10.05-1.09,4.98-3.89,9.47-7.71,12.35,2.87-.82,5.87-1.1,8.81-.81.64.06,1.35.2,1.73.78.81,1.27-.77,2.78-2.12,3.21-2.92.94-6.04,1.03-8.99.26,3.32,5.71,6.64,11.43,9.96,17.14-4.09-4.94-8.17-9.88-12.26-14.81,1.67,7.16,3.34,14.32,5,21.48.42,1.82.52,4.36-1.09,4.95-4.81-7.91-8.14-16.93-9.75-26.33,2.35,3.12,3.46,7.36,2.99,11.41-1.97-.85-3.95-1.89-5.34-3.66-1.39-1.77-2.06-4.43-1.12-6.55.49-1.11,1.36-1.96,2.24-2.72,2.18-1.88,4.61-3.4,7.18-4.5-2.43,1.54-4.94,3.11-7.7,3.6-2.76.49-5.88-.31-7.57-2.78,3.69-1.83,7.68-2.88,11.7-3.09-3.5-2.94-6.73-6.27-9.63-9.92,3.01,3.33,6.48,6.15,10.26,8.31-1.77-4.54-2.96-9.36-3.53-14.28-.15-1.35.03-3.18,1.23-3.43,1.93,2.15,2.85,5.37,2.38,8.37"/>
      <path class="cls-90" d="M211.92,264.57c-3-21.98-.24-44.94,7.84-65.34,2.09-5.28,5.42-11.09,10.59-11.45,4.78-.34,8.61,4.24,11.06,8.8,7.71,14.31,9.8,32.64,20.71,44.07-.8-.95-1.6-1.89-2.4-2.84"/>
      <path class="cls-90" d="M265.36,251.33c42.01,2.95,83.91-6.33,125.22-15.69-7.55,2.13-15.29,3.4-23.06,3.78"/>
      <path class="cls-90" d="M266.59,232.77c-.1-.61-1.07-.07-.91.52s.81.78,1.36.89c33.41,6.31,67.74,2.33,101.24-3.83,8.48-1.56,17.06-3.27,25.6-2.37-4.95,3.33-10.86,4.85-16.6,4.25"/>
      <path class="cls-90" d="M94.29,243.57l-5.98,1.35c28.81-1.25,57.46,7.61,86.21,5.17,15.44-1.31,30.62-5.86,46.09-6.12-.64.92-3.78,4.58-4.11,5.69-.41,1.4-.81,2.8-1.22,4.19,2.35.78,4.95.59,7.2-.54-44.77,3.18-89.64,4.64-134.48,4.36,2.51.67,5.02,1.34,7.52,2"/>
      <path class="cls-90" d="M360.21,112.25c.37,2.35.27,4.81-.31,7.11-.77-11.28-.7-22.65.21-33.93.23,1.02.46,2.04.69,3.06,10.32-.22,17.5-2.22,27.65-.18-.81-.05-1.61-.1-2.42-.14.3,8.92-1.75,15.04-2.43,23.94.19-.44.39-.89.58-1.33,6.82-.26,11,2.66,17.82,2.39-.94-.09-1.87-.17-2.81-.26.55,8.48,2.29,14.94,1.29,23.38.47.31,1.17-.26,1.06-.87-6.14,4.49-10.63,5.23-17.9,5.09.82-.31,1.63-.62,2.45-.93-1.33,8.44-3.69,14.09-3.62,22.65,0,.4.06.9.4,1.04s.56-.66.21-.61c-9.73,1.56-18.42,2.46-28.24,2.62,1.39.63,3.02.58,4.38-.14,1.43-9.14,1.27-17.96.71-27.2,0,.44,0,.88,0,1.32-1.36-1.22-3.09-2.01-4.65-1.11-3.67,2.13-8.12,3.71-11.8,1.66.69.28,1.14,1.18,1,2-.61.42-1.46,0-1.83-.69s-.41-1.54-.44-2.36c-.37-11.99-.75-23.99-1.12-35.98-.43,2.28.81,4.61,2.49,5.9,1.69,1.3,3.75,1.78,5.75,2.23,4.38.99,8.75,1.98,13.13,2.97-.47.25-1.06.12-1.41-.3-.02.47-.93-1.8-.86-1.34Z"/>
      <path class="cls-90" d="M335.96,77.1c.51.14,1.03.33,1.4.75.44.5.57,1.22.67,1.91.38,2.72.4,5.5.07,8.22-7.68,1.42-15.49,1.97-23.26,1.63,1.92-4.6,6.31-10.38-.21-12.02,7.11,1.91,14.26-2.48,21.34-.49Z"/>
      <path class="cls-90" d="M112.32,154.05c4.23-1.56,8.79-1.21,13.23-1.01,27.69,1.28,55.27-3.92,82.86-7.01,27.68-3.1,55.55-4.08,83.33-2.94-.53.6-1.44-.49-1.12-1.25s1.16-1.02,1.9-1.2c2.46-.58,4.93-1.15,7.39-1.73,2.35-15.78,3.3-31.82,2.83-47.79-25.31-1.52-50.66-3.04-75.99-1.72-18.64.97-37.45,3.46-55.87.23-2.24-.39-4.76-1.1-5.83-3.33,3.05.75,6,2.01,8.72,3.73"/>
      <path class="cls-90" d="M152.82,178.19c-1.41.2-2.82.39-4.23.59,12.05-11.11,28.14-16.62,43.66-14.94-3.62,10.28-6.91,20.71-9.85,31.25-.35,1.26-.46,3.06.66,3.44-1.38,2.53-4.01,3.8-6.53,4.71-9.5,3.42-19.83,3.88-29.52,1.3-.5-.13-.93-.41-1.29-.82,3.87-9.49,7.27-19.49,9.27-29.94-1.17.13-2.02,1.67-1.61,2.89"/>
      <path class="cls-90" d="M94.23,170.35l-1.51-1.04c4.52-1.11,9.34-.6,13.58,1.45.52.25,1.05.54,1.37,1.05.87,1.38-.23,3.19-1.09,4.58-4.37,7.01-3.34,16.42-5.43,24.62-.29,1.14-.68,2.32-1.51,3.06-.62.55-1.42.79-2.2.97-5.44,1.29-11.22.74-16.37-1.55,2.1-1.3,4.33-2.33,6.64-3.06"/>
      <path class="cls-90" d="M104.55,204.79c-.34-.77-1.16-1.25-1.92-1.12-1.43,4.21-2.87,8.41-4.3,12.62,14.15,3.5,28.99,3.63,43.22.38.45-.1.95-.24,1.22-.65.21-.31.25-.72.28-1.11.68-7.26,3.23-14.29,7.25-20.07-.42.22-.88.44-1.32.31s-.74-.83-.4-1.18"/>
      <path class="cls-90" d="M81.18,228.63c-4.34-2.21-8.69-4.43-13.03-6.64,46.99,4.94,94.2,9.88,141.37,6.84-5.02,1.16-10.23,1.29-15.27.36"/>
      <path class="cls-90" d="M66.45,233.34c-.14-.54-.98.03-.79.55s.78.65,1.28.71c26.11,3.09,52.23,6.12,78.35,9.08,9.85,1.12,19.75,2.23,29.65,1.85,15.71-.61,31.1-4.95,46.35-9.26-1.74.33-3.48.67-5.22,1-.17-.02-.33-.05-.5-.07"/>
      <path class="cls-90" d="M451.63,208.15c1.45-.59,2.9-1.2,4.33-1.83-1.64-.45-3.39-.97-4.5-2.39-.63-.81-1.01-1.86-1.77-2.51-1.52-1.3-3.7-.43-5.44.47-2.18,1.13-14.49,7.95-13.69,11.53.72,3.26,18.4-4.19,21.07-5.26Z"/>
      <path class="cls-90" d="M222.39,178.33c14.9,3.11,30.07,4.59,45.24,4.4,29.19-.35,58.04-6.82,87.12-9.83,30.35-3.14,61.17-2.55,90.85-10.41-1.24-1.28-3.56-.79-4.3.92"/>
      <path class="cls-90" d="M240.8,195.24c4.69-1.14,9.52-1.19,14.32-1.25,44.42-.54,88.83-2.32,133.18-5.34-2.87.15-5.74.31-8.61.46.99.2,1.97.4,2.96.6-.25-.55-.51-1.1-.76-1.66"/>
      <path class="cls-90" d="M415.59,178.6c-1.57-1.61-3.02-3.37-4.32-5.26,5.42,6.33,9.77,13.79,12.75,21.9,1.43,3.88,2.56,8.09,1.93,12.24-1.7-.98-2.16-3.39-2.57-5.47-1.6-8.14-5.82-16.33-12.87-19.11,10.82,1.42,21.77,1.6,32.64.53-1.33-.91-2.95-1.29-4.51-1.05,1.49-.69,2.98-1.38,4.47-2.07"/>
      <path class="cls-90" d="M122.72,249.99l-3.79-1.8c.24.83.48,1.67.75,2.49,2.1,6.31,6.34,11.77,11.81,14.61,5.47,2.84,12.13,2.93,17.53-.13,5.41-3.06,9.36-9.3,9.78-16.03-.86-.06-1.72-.13-2.57-.19"/>
      <path class="cls-90" d="M97.37,252.96c3.13.26,6.26.53,9.4.79-22.58,2.27-84.45,11.75-106.65,16.96,28.59-5.72,97.23-10.46,126.23-9.44,6.84.24,13.68.48,20.49,1.23-2.36,2.17-5.67,2.98-8.62,2.11,1.32.28,2.63.55,3.95.83"/>
      <path class="cls-90" d="M457.65,123.6c6.63-3.87,14.14-5.83,21.61-5.66-.68-.22-1.36-.43-2.04-.65-.21.5-3.31-4.91-3.52-4.42,2.31-.2,4.63-.05,6.9.44-11.85,0-23.7,0-35.55.01l4.44-.3"/>
      <path class="cls-90" d="M309.1,119.57c.89.02,1.77.05,2.66.07-2.44.5-4.89,1.01-7.33,1.51,1.63.31,2.97,3.85,4.6,4.16-.7-.24.77-5.51.07-5.75Z"/>
      <path class="cls-90" d="M310.28,145.06c-.27,2.07-.31,4.18-.12,6.26.42-14.89.08-29.8-1.01-44.64l-.26,1.47c-1.01-1.75-.35-.65-.33-2.73,3.77,1.82,7.25,4.39,10.21,7.56-2.32.05-4.64-.28-6.86-.98.62,14.8,3.96,25.3,2.06,39.98-.13-.49-3.55-6.43-3.68-6.92Z"/>
      <path class="cls-90" d="M356.24,241.19c-.39-.56-.78-1.13-1.17-1.69,3.13,6.32,6.26,12.65,9.73,18.75,1.34,2.35,2.78,4.73,4.86,6.26,3.17,2.33,7.63,2.24,10.74-.23"/>
      <path class="cls-90" d="M206.57,254.17c-1.73-3.37-4.36-6.16-7.47-7.91,3.25,8.81,7.29,17.88,14.5,22.99,1.25.89,2.66,1.66,4.15,1.59.32-.01.64-.07.95-.12"/>
      <path class="cls-90" d="M445.9,89.98c-2.93-3.16-3.91-8.16-2.42-12.29.72.86,1.24,1.9,1.51,3.01"/>
      <path class="cls-90" d="M457.85,96.77c-.72-4.83,1.52-10.01,5.46-12.61,1.24,2.05,1.59,4.66.96,7"/>
      <path class="cls-90" d="M354.14,268.9c-80.56.41-161.08,8.84-240.14,25.14,108.29-29.27,221.79-26.09,333.55-22.71-74.8,5.1-149.61,10.19-224.41,15.29-21.6,1.47-43.4,2.94-64.82-.37,131.38,1.99,235.6,2.06,366.98,4.05"/>
    </g>
  </g>
</svg>