<?xml version="1.0" encoding="UTF-8"?>
<svg id="Ebene_2" data-name="Ebene 2" xmlns="http://www.w3.org/2000/svg" xmlns:xlink="http://www.w3.org/1999/xlink" viewBox="0 0 382.32 332.95">
  <defs>
    <style>
      .cls-1 {
        fill: #927856;
      }

      .cls-2 {
        fill: #ff8613;
      }

      .cls-3 {
        fill: #ff4310;
      }

      .cls-4 {
        fill: #ffc39a;
      }

      .cls-5 {
        fill: #b94b1e;
      }

      .cls-6 {
        fill: #ffa143;
      }

      .cls-7 {
        fill: #ff4664;
      }

      .cls-8 {
        fill: #ffede6;
      }

      .cls-9 {
        fill: #fc1d19;
      }

      .cls-10 {
        fill: #ff504f;
      }

      .cls-11 {
        fill: #ff6f4d;
      }

      .cls-12 {
        fill: #ba8fd2;
      }

      .cls-13 {
        fill: #bacde6;
      }

      .cls-14 {
        fill: #ffc151;
      }

      .cls-15 {
        fill: #ffbd8d;
      }

      .cls-16 {
        fill: #ff8a7d;
      }

      .cls-17 {
        fill: #ff8eb2;
      }

      .cls-18 {
        fill: #ba85cf;
      }

      .cls-19 {
        fill: #ff9a8a;
      }

      .cls-20 {
        fill: #ff331d;
      }

      .cls-21 {
        fill: #ff6715;
      }

      .cls-22 {
        fill: #ff550f;
      }

      .cls-23 {
        fill: #ffb028;
      }

      .cls-24 {
        fill: #ffdbde;
      }

      .cls-25 {
        fill: none;
        stroke: #000;
        stroke-miterlimit: 10;
      }

      .cls-26 {
        fill: #45a117;
      }

      .cls-27 {
        fill: url(#Unbenannter_Verlauf_1512);
      }

      .cls-28 {
        fill: url(#Unbenannter_Verlauf_1511);
      }

      .cls-29 {
        fill: url(#Unbenannter_Verlauf_1510);
      }

      .cls-30 {
        fill: #ff291a;
      }

      .cls-31 {
        fill: #63533b;
      }
    </style>
    <linearGradient id="Unbenannter_Verlauf_1512" data-name="Unbenannter Verlauf 1512" x1="-2618.17" y1="-389.58" x2="-2654.95" y2="-258.89" gradientTransform="translate(2432.87 405.01) scale(.84)" gradientUnits="userSpaceOnUse">
      <stop offset="0" stop-color="#ffcc21"/>
      <stop offset="1" stop-color="#ffa815"/>
    </linearGradient>
    <linearGradient id="Unbenannter_Verlauf_1511" data-name="Unbenannter Verlauf 1511" x1="-2582.43" y1="-417.53" x2="-2521.27" y2="-354.96" gradientTransform="translate(2432.87 405.01) scale(.84)" gradientUnits="userSpaceOnUse">
      <stop offset="0" stop-color="#baa5e6"/>
      <stop offset="1" stop-color="#ba88d3"/>
    </linearGradient>
    <linearGradient id="Unbenannter_Verlauf_1510" data-name="Unbenannter Verlauf 1510" x1="-2586.23" y1="-383.7" x2="-2541.15" y2="-229.65" gradientTransform="translate(2432.87 405.01) scale(.84)" gradientUnits="userSpaceOnUse">
      <stop offset="0" stop-color="#ff9f16"/>
      <stop offset="1" stop-color="#ff6013"/>
    </linearGradient>
  </defs>
  <g id="versicherungen">
    <g>
      <path class="cls-26" d="M98.13,323.45c-.48.19.21.72.71.55s.58-.61.49-.98c-5.01-20.91-5.73-42.24-2.12-63.27.13-.75.29-1.53.99-2.13.75-.63,1.98-.93,3.14-1.2,4.59-1.07,9.18-2.13,13.77-3.2-8.07,24.59-6.18,50.03-4.26,75.14-1.16-.41-1.71-1.41-1.21-2.19"/>
      <path class="cls-26" d="M116.54,324.16c-2.16-36.88-1.78-73.87,1.15-110.7,7.07-1.19,14.24-1.87,21.43-2-1.2,14.98-2.4,29.98-1.95,44.99.6,20.27,4.2,40.45,3.43,60.71-.57-.43-1.14-.86-1.71-1.29"/>
      <path class="cls-26" d="M147.91,319.19c-7.3-38.3,1.41-77.94-2.59-116.73,6.14-1.87,12.28-3.73,18.42-5.6-6.37,44.99-4,90.71-1.62,136.08"/>
      <path class="cls-26" d="M169.54,322.88c-.5-41.04.55-113.3,3.16-154.26,3.71.65,7.42,1.3,11.13,1.95,1.68,40.88,3.35,112.96,5.03,153.84"/>
      <path class="cls-26" d="M201.23,323.37c-3.95-32.65-6.98-65.42-9.09-98.24-.04-.63-.05-1.33.38-1.79.44-.46,1.15-.48,1.79-.47,6.91.13,13.81.25,20.72.38,1,.02,2.14.1,2.75.89.5.65.47,1.55.41,2.36-2.44,35.28-1.4,70.71-.36,106.06"/>
      <path class="cls-26" d="M227.32,324.39c-3.02-27.96-4.19-56.12-3.5-84.24,4.91.78,9.82,1.56,14.73,2.34.64.1,1.34.23,1.79.7.51.53.57,1.33.6,2.06,1.16,28.05,2.33,56.11,3.49,84.16.07-.81.14-1.61.2-2.42"/>
      <path class="cls-26" d="M255,322.22c-4.41-24.55-6.84-49.45-7.25-74.38,4.02-.14,8.04-.29,12.06-.43.8-.03,1.68-.03,2.28.49.82.7.74,1.97.6,3.05-2.97,23.03,2.33,46.21,6.62,69.03.49,2.61.94,5.44-.24,7.83-.02-1.13-.05-2.25-.07-3.38-.55-25.06,2.87-50.05,1.29-75.06,4.21.31,8.48-.23,12.48-1.59.5,6.11,0,67.79-.14,73.93"/>
      <g id="Generatives_Objekt" data-name="Generatives Objekt">
        <path class="cls-4" d="M283.14,274.36c-.39-1.5-.71-3.23.19-4.5.69-.98,1.91-1.4,3.04-1.77,3.23-1.04,6.46-2.08,9.69-3.12,2.77,12.51,9.99,23.99,20.07,31.89-.98-15.33-3.8-20.98-7.75-33.4-.82-2.57.43-5.35.38-8.04-.04-2.08.76-4.08,1.55-6.01,7.12-17.39,14.8-35.05,15.84-53.81,8.35,11.94,16.7,23.87,25.05,35.81-5.31-14.83-12.24-29.08-20.61-42.42-1.66-2.65-3.02-6.84-.24-8.27,2.29-1.17,4.78,1.08,6.33,3.13,18.01,23.73,19.34,21.8,28.18,50.25,1.21,3.88,2.33,7.87,2.15,11.93-.36,8.25-40.3,59.73-59.75,64.3-1.27.3-2.62.54-3.84.09-1.18-.43-5.76-3.28-12.89-15.48,0,0-2.29-.79-7.37-20.58Z"/>
        <path class="cls-8" d="M200.92,28.88c-.43,4.19,1.37,7.14-1.51,10.09-1.2-.6.88-8.66,1.51-10.09Z"/>
        <path class="cls-24" d="M317.23,10.72c.15,1.03.29,1.62,1.51,1.51-.16.7-2.75,1.33-3.53,1.77l1.51-7.06c1.03.62.35,2.73.5,3.78Z"/>
        <path class="cls-8" d="M335.9,81.36l-4.04-2.52c1.96,1.09,2.26,1.32,4.04,2.52Z"/>
        <path class="cls-24" d="M312.94,54.62c.36,0,.43,3.93,0,4.54-.39,0-.39-4.54,0-4.54Z"/>
        <path class="cls-8" d="M318.74,12.23c-1.22.11-1.37-.48-1.51-1.51.46.08,1.6,1.15,1.51,1.51Z"/>
        <path class="cls-24" d="M313.45,41.5c.25-.01.34.44.25.76-.29,1.88-.9-.72-.25-.76Z"/>
        <g>
          <path class="cls-24" d="M331.86,78.84l4.04,2.52c7.51,5.06,14.65,10.85,19.43,18.67,7.74-14.16,4.31,10.11,7.57,15.14,2.06.17.57-9.43,5.55-8.58.92.16,13.74,11.44,13.88,12.36.04.25-1.82,4.39-2.02,4.54-.21.17-2.54-1.88-3.53,2.52-2.04,9.01-.15,41.16,0,52.48.35,26.56,2.12,53.16,2.52,79.73-12.45-28.37-23.28-60.22-47.94-80.48.03-.16-.03-.34,0-.5,4.05-22.72,7.54-45.47,7.57-68.62.02-14.87,1.53-21.33-11.61-31.28-1.31-2.44,3.22.78,4.54,1.51Z"/>
          <path class="cls-24" d="M125.48,326.59c22.22-1.86,47.35.78,67.87-2.02.28-.04,3.98-.5,3.03-1.51-25.72-4.68-50.57.42-75.94,2.52-33.65,2.78-70.3,9.21-102.43-3.28,0-2.22,26.03-8.13,29.52-8.33,1.1-.55.62-1.84.76-2.02.02-.02.49-.02.5,0,.11.15-.28,1.63.76,2.02,18.32.33,36.69-.44,55,0,50.97,1.22,99.13,7.13,150.62,6.56,2.85-.03,5.73.05,8.58,0,4.03-.07,33.01.49,33.81-1.26-2.24-6.5-7.6-11.74-10.6-18.17-.83-1.78-8.46-23-7.32-23.46,4.43,8.33,7.38,17.42,12.36,25.48,5.54,8.98,14.01,16.38,18.42,25.99-5.63-5.33-8.37-6.91-16.15-7.57-34.54-2.93-71.33,3.42-105.46,6.06-21.08,1.63-42.35,1.79-63.33-1.01Z"/>
          <path class="cls-4" d="M210.76,87.42c-2.31,5.02-4.57,10.3-6.06,15.64-.16.02-.34-.02-.5,0-14.88,2.15-30.15,6.17-42.89,14.38,11.87-4.45,23.92-9.56,36.58-11.35.93-.13,4.34-.79,4.79.5-1.28,3.46-2.01,7.07-3.03,10.6-.2.7-.49.47-.5.5-15.04,2.35-29.26,7.89-40.87,17.91,11.12-6.86,23.23-12.21,36.08-14.89.89-.19,2.97-.9,3.28.5-.48.67-3.23,10.95-4.04,13.12-.24.64-.78.88-1.01,1.51-12.94,3.17-23.81,10.96-33.56,19.68-9.03-13.09-14.03-32.97-3.78-46.68,8.26-11.04,30.22-18.22,43.4-20.44,3.96-.67,8.09-.91,12.11-1.01Z"/>
          <path class="cls-24" d="M250.12,51.09c-13.75-.61-14.75-1.15-23.21,9.08-2.03,2.46-4.33,5.41-6.06,8.07l-7.82-4.54c-4.26-1.5-23.58-5.18-25.99-1.77-.13.18-.43,3.61-1.26,4.29-1.19-3.93-.04-5.3-4.79-6.31,6.04-.13,4.1-9.12,5.3-13.37,1.12,3.31-.94,11.89,3.03,12.61,11.24,2.06,16.73-4.67,24.73-7.57,6.34-2.3,28.32-3.68,34.82-2.52,1.24.22,1.94.54,1.26,2.02Z"/>
          <path class="cls-8" d="M125.48,326.59c-1.54.13-3.93.37-5.05-1.01,25.38-2.1,50.22-7.2,75.94-2.52.96,1.02-2.75,1.48-3.03,1.51-20.51,2.8-45.64.16-67.87,2.02Z"/>
          <path class="cls-8" d="M145.16,118.7c-2.26,11.31-5.08,21.37-3.28,33.3-1.74.25-1-.48-1.26-1.26-1.01-3.06-4.74-28.2-4.54-31.03.5-7.16,5.04-1.72,9.08-1.01Z"/>
          <path class="cls-24" d="M300.07,274.62c1.13-.74,6.28-5.92,7.06-7.06,3.37,1.08,6.8,22.96,5.8,23.72l-12.87-16.65Z"/>
          <path class="cls-24" d="M201.17,256.46c.24.06.88.34,1.51.5-3.17,10.44-11.55,19.89-19.68,27.25,5.69-7.68,9.53-14.4,13.12-23.21.54-1.34,1.57-2.52,2.02-4.04.08-.25-.04-.69,0-1.01,1.02.26,2.26.3,3.03.5Z"/>
          <path class="cls-24" d="M177.46,219.12c.03,2.42.32,5.58.5,8.07l-19.68.25c5.39-1.24,11.29-6.52,15.89-8.33,1.58-.62,1.76-.08,3.28,0Z"/>
          <path class="cls-24" d="M342.46,214.57c-2.68-2.8-11.44-14.73-13.37-15.64-.33-.16-1.25.1-1.77,0-.11-2.63,1.05-5.06,1.51-7.57l13.62,23.21Z"/>
          <path class="cls-8" d="M198.15,256.96c-.45,1.52-1.47,2.7-2.02,4.04-1.49-8.15-4.54,3.46-5.8,4.04-.24.11-5.14.47-5.3.25,2.31-2.73-.04-2.59,0-2.78.36-1.49,3.89-4.74,4.54-6.56,4.61-.55,4.19,2.53,8.58,1.01Z"/>
          <path class="cls-24" d="M253.9,271.59c.41.07,2.43.42,2.52.5,1.65,1.47.49,19.69-.5,19.68-.36-2.62-3.47-19.57-2.02-20.18Z"/>
          <path class="cls-24" d="M228.67,266.04c1.43,1.12-5.68,15.84-6.56,18.17-.19-1.64,5.39-19.08,6.56-18.17Z"/>
          <path class="cls-8" d="M168.88,196.41c-.64-2.26-1.23-4.74-1.51-7.06,2.59,1.46,3.21,2.96,6.56,2.78-2.62,6.49-2.48,1.34-3.78,2.27-.67.47.59.96-1.26,2.02Z"/>
          <path class="cls-24" d="M189.57,255.95c-.65,1.82-4.18,5.07-4.54,6.56l-1.51.5c1.17-1.29,3.07-5.98,4.04-6.81,1.73-1.49,1.92-.24,2.02-.25Z"/>
          <path class="cls-8" d="M263.74,320.54c-2.85.05-5.73-.03-8.58,0,2.74-1.02,5.99-1.59,8.58,0Z"/>
          <path class="cls-8" d="M194.11,254.94c-.43-.08-1.03.23-1.01-.5.34.11,1.04-.27,1.01.5Z"/>
          <polygon class="cls-24" points="127 141.41 126.49 141.16 126.75 140.9 127 141.16 127 141.41"/>
          <polygon class="cls-24" points="342.97 215.58 343.47 215.84 343.22 216.09 342.97 215.84 342.97 215.58"/>
          <path class="cls-24" d="M342.97,215.58l-.5-1.01c.19.19.8.06.5,1.01Z"/>
          <polygon class="cls-24" points="183.51 263.02 183.26 263.52 183.01 263.27 183.26 263.02 183.51 263.02"/>
          <polygon class="cls-24" points="183.01 284.21 182.76 284.71 182.5 284.46 182.76 284.21 183.01 284.21"/>
          <polygon class="cls-24" points="221.61 284.71 221.86 284.97 221.61 285.22 221.61 284.71"/>
          <polygon class="cls-24" points="313.45 291.78 313.7 292.03 313.45 292.28 313.45 291.78"/>
          <path class="cls-24" d="M199.16,117.69c-.23.82-.58,1.64-.5,2.52-.37.13-.81.73-1.01,1.01-.31-1.4-2.39-.69-3.28-.5-12.85,2.67-24.96,8.03-36.08,14.89,11.62-10.03,25.84-15.56,40.87-17.91Z"/>
          <path class="cls-24" d="M204.2,103.06c-.38.81-.69,1.68-1.01,2.52-.23.6-.49.96-.5,1.01-.46-1.3-3.87-.64-4.79-.5-12.66,1.79-24.72,6.91-36.58,11.35,12.75-8.21,28.01-12.23,42.89-14.38Z"/>
          <path class="cls-4" d="M191.08,141.41c-1.49,4.31-3.58,8.47-4.04,13.12l-.5.5c-3.74.01-7.69.26-11.35,1.01-6.11,1.25-11.44,6.8-15.39.25,8.2-7.91,19.91-14.22,31.28-14.89Z"/>
          <path class="cls-8" d="M184.52,162.1c-.1.46.1,1.05,0,1.51-.15.71-.38,1.3-.5,2.02-.27,1.5-.67,2.99-.5,4.54-.13-.07-.37.07-.5,0-1.55-.83-13.84-5.72-12.61-7.32l14.13-.76Z"/>
          <g>
            <path class="cls-24" d="M198.65,88.43c-13.17,2.22-35.14,9.4-43.4,20.44-10.24,13.7-5.25,33.58,3.78,46.68,9.74-8.72,20.61-16.5,33.56-19.68-.54,1.48-.99,3.04-1.51,4.54-.09.25.09.76,0,1.01-11.38.66-23.09,6.98-31.28,14.89,3.95,6.55,9.28,1,15.39-.25,3.66-.75,7.61-1,11.35-1.01-.29,2.41-1.51,4.75-2.02,7.06l-14.13.76c-1.22,1.6,11.07,6.48,12.61,7.32-.56,2.3-.62,4.75-1.01,7.06-4.17.79-8.11-2.86-12.36-1.51-3.88,1.23-2.65,10.51-2.27,13.62.29,2.33.87,4.8,1.51,7.06-1.04.59-7.79.53-9.59.5h-3.03c-2.76-.11-5.76-.75-8.58-.76,9.83-2,2.64-9.69.5-14.89l-4.54-20.94h-1.51c1.87,4.95,1.92,11.55,3.53,16.4l-18.67-35.32c.27-.27,3.8,4.58,6.56,1.77,1.77-1.81,2.92-20.08,2.52-23.46-.2,2.84,3.53,27.97,4.54,31.03.26.78-.48,1.51,1.26,1.26-1.8-11.93,1.02-22,3.28-33.3.45-2.25,1.55-4.5,2.02-6.81.54-2.68-.54-7.27.5-10.09,1.5-4.03,18.02-8.34,22.45-9.34,9.3-2.09,19.07-2.74,28.51-4.04Z"/>
            <path class="cls-8" d="M148.19,181.27c-.47-1.14-1.81-2.41-2.52-4.54-1.62-4.85-1.66-11.45-3.53-16.4h1.51l4.54,20.94Z"/>
            <path class="cls-8" d="M159.29,196.91c-1-.01-2.03.04-3.03,0h3.03Z"/>
            <path class="cls-8" d="M142.39,156.55c.58.14.75,2.19,0,2.02-.58-.14-.75-2.19,0-2.02Z"/>
            <path class="cls-8" d="M141.88,153.52c.15.07.7,1.94.5,2.02-1.43.05-1.09-2.3-.5-2.02Z"/>
          </g>
          <g>
            <path class="cls-27" d="M261.22,79.34c-6.1,41.32-10.63,82.96-17.66,124.13-6.47-.84-12.36-3.82-18.17-6.56,1.85-2.32,7.11-13.77,6.56-15.89-.07-.28-2.46-2.26-3.03-2.78l11.35,3.53c1.59-.48-.23-2.86-.76-3.78-2.26-3.99-21.47-19.66-24.98-21.45-.47-.24-1.98-1.45-2.27-2.02,7.86-.96,17.65-3.51,21.7-10.85-12.98-6.33-28.76-3.31-42.89-3.28.52-1.5.98-3.06,1.51-4.54.23-.64.77-.88,1.01-1.51,9.23-.84,22.02-.69,31.03-3.03,4.38-1.14,9.48-3.78,11.86-7.82-11.22-5.77-25.53-4.46-37.84-3.28-.08-.88.27-1.71.5-2.52,0-.03.3.2.5-.5,4.39.61,30.48-5.61,30.78-9.34.32-3.96-24-2.84-27.25-2.27.32-.84.63-1.71,1.01-2.52.16-.02.34.02.5,0,6.4-.92,29.81,1.58,24.22-9.84-2.84-5.8-12.21-6.29-17.66-6.81,2.7-5.72,5.73-10.8,9.08-16.15,13.58,3.28,27.33,5.6,40.87,9.08Z"/>
            <path class="cls-28" d="M327.32,77.32c13.13,9.95,11.62,16.41,11.61,31.28-21.77-9.89-43.6-19.5-66.61-26.24-1.06-2.49-9.4-2.59-10.6-3.78-.58-.57-.14-9.24,2.27-9.34.32-.01,5.78,1.85,6.06,2.02,1.82,1.1,1.38,3.49,4.79,5.55,3.22,1.95,7.59,2.79,11.1,1.01l13.37,6.06.76-2.02c5.16-.24,6-8.2.5-9.59-2.53-.64-3.11-.34-5.05,1.51-3.18,3.04.34,4.55-7.06,1.51,4.33-8.57-7.07-17.08-16.15-8.07-1,1-1.6,2.97-1.77,3.03-.49.16-1.41-1.48-1.51-1.51-1.7-.57-4.01-1.07-5.8-1.51l2.52-12.36c-.33-.41-6.6-.35-7.57-.25v-2.52c20.3,2.39,52.78,12.84,69.13,25.23Z"/>
            <path class="cls-30" d="M249.62,205.49c.4.08,1.54-.18,1.51.25-2.35.66-.95,4.58,0,6.06,1.83,2.84,8.07,4.98,10.6,5.8,1.7,6.56,3.69,13.34,6.06,19.68.43,1.15.64,3.14,1.01,4.04-7.89,12.24,19.24,14.6,23.97,12.11,1.2-.63,4.72-7.64,4.79-8.58,1.17.59,1.48,1.98,2.02,3.03,2.68,5.24,5.44,10.51,8.33,15.64,3.33-5.01,4.22-10.98,5.8-16.65.42-1.51,1.66-7.11,3.03-7.06-2.41,8.3-4.72,20.67-9.59,27.75-.79,1.15-5.94,6.32-7.06,7.06-.18.12-1.6.81-2.02,1.01.46-3.67-7.91-16.77-10.85-17.16-4.26-.55-6.65,15.57-13.12,15.14-.39-.03-.11-.96-.5-1.01-1.67-.21-15.21-2.36-15.64-3.03-.46-.71.2-14.27-5.05-11.1-.18.11-2.67,2.85-2.78,3.03,2.88-14.93,8.65-32.94-9.08-40.37.09-.46.12-1.03-.5-1.01.45-5.46,2.1-10.79,3.03-16.15,2.09.4,3.97,1.09,6.06,1.51Z"/>
            <path class="cls-2" d="M225.39,196.91c5.81,2.74,11.69,5.72,18.17,6.56-.03.16.03.34,0,.5-.92,5.36-2.58,10.68-3.03,16.15l-30.02-5.55c-2.3.59-6.99,22.7-7.82,26.24-.88.34-1.38-1.25-1.51-1.77-2.45-9.48.22-21.32-1.51-31.03,1.54-4.74.85-11.62,3.03-16.4l-21.19-11.35c.16-1.03.34-2.02.5-3.03.39-2.31.45-4.76,1.01-7.06.13.07.37-.07.5,0,14.92,8.15,26.29,19.38,41.88,26.74Z"/>
            <path class="cls-20" d="M202.69,240.81c-.2.86-.32,1.7-.5,2.52-.98,4.26-4.96,10.69-1.01,13.12-.77-.2-2.01-.24-3.03-.5-1.38-.36-2.61-.76-4.04-1.01.03-.78-.67-.39-1.01-.5-2.01-.68-7.53-1.71-8.83-2.52-4.44-2.77-5.92-19.39-6.31-24.73-.18-2.49-.47-5.65-.5-8.07-.02-1.2.5-1.64.5-2.52,6.39-2.93,19.42-1.57,21.7-8.58,1.73,9.72-.93,21.55,1.51,31.03.13.52.63,2.1,1.51,1.77Z"/>
            <path class="cls-9" d="M250.12,261.5c-1.78,2.94-2.62,5.75.5,7.57-6.42-1.44-12.8-2.95-19.17-4.54-.21-1.12.3-2,.5-3.03,2.56-12.71,5.25-25.32,7.57-38.1.2-1.11,1.49-2.14,1.51-2.27,17.73,7.43,11.97,25.44,9.08,40.37Z"/>
            <path class="cls-6" d="M199.66,208.01c-2.28,7.01-15.3,5.65-21.7,8.58.08-12.48,1.6-24.05,3.53-36.33l21.19,11.35c-2.18,4.78-1.49,11.66-3.03,16.4Z"/>
            <path class="cls-18" d="M247.6,63.2c5.16,1.19,10.46,2.76,15.64,4.04,1.79.44,4.1.94,5.8,1.51.1.03,1.02,1.67,1.51,1.51.17-.05.76-2.03,1.77-3.03-1.38,3.91-.25,6.79,2.52,9.59-3.41-2.06-2.97-4.45-4.79-5.55-.27-.17-5.74-2.03-6.06-2.02-2.41.09-2.85,8.76-2.27,9.34,1.2,1.19,9.54,1.3,10.6,3.78-3.7-1.08-7.36-2.07-11.1-3.03-13.55-3.48-27.29-5.8-40.87-9.08.14-.22.37-1.82.5-2.02,1.73-2.66,4.02-5.62,6.06-8.07,6.76-.45,14.01,1.49,20.69,3.03Z"/>
            <path class="cls-16" d="M312.69,181.27c2.75,2.46,13.83,14.82,14.13,17.66.41,3.96-4.34,19.28-5.55,24.22-6.44-10.22-10.47-20.85-14.13-32.29-.35-1.11-.65-2.37-1.01-3.53-.08-.27.08-.74,0-1.01,1.79-1.16,3.26-4.64,4.04-6.56.85.4,1.82.89,2.52,1.51Z"/>
            <path class="cls-30" d="M298.06,275.63c-10.12,4.94-30.37-4.1-42.39-5.05.05-.44-.13-.46-.5-.5-1.57-.2-3.02-.67-4.54-1.01-3.12-1.82-2.28-4.63-.5-7.57.11-.18,2.6-2.92,2.78-3.03,5.24-3.17,4.58,10.39,5.05,11.1.44.67,13.97,2.82,15.64,3.03.4.05.11.98.5,1.01,6.47.43,8.86-15.69,13.12-15.14,2.93.38,11.3,13.49,10.85,17.16Z"/>
            <path class="cls-10" d="M321.27,223.15c-1.35,5.5-2.96,11.2-4.54,16.65-1.37-.04-2.61,5.55-3.03,7.06.52-2.97-1.4-.75-2.52-2.78-.75-1.35.27-3.26-2.02-5.3.28-2.43-1.7-4.97-2.52-7.06l-.5-3.28c2.49,5.51,8.75-4.54,9.08-7.57.32-2.93-1.35-10.56-3.53-12.87-.1-2.34-.17-1.52-1.26-3.03-1.89-2.59-10.81-9.02-13.88-11.61,3.39-.78,8.75,1.77,10.6-2.52,3.66,11.44,7.69,22.08,14.13,32.29Z"/>
            <path class="cls-19" d="M204.71,103.06c1.49-5.34,3.75-10.63,6.06-15.64.16-.35.34-.66.5-1.01,5.45.52,14.82,1.01,17.66,6.81,5.59,11.42-17.82,8.92-24.22,9.84Z"/>
            <path class="cls-12" d="M250.12,51.09c2.56.11,5.49.7,8.07,1.01v2.52c-5.48.56-8.78,3.54-10.6,8.58-6.68-1.54-13.93-3.48-20.69-3.03,8.47-10.23,9.46-9.69,23.21-9.08Z"/>
            <path class="cls-30" d="M231.95,261.5c-.21,1.03-.71,1.91-.5,3.03-9.63-2.4-19.17-5.06-28.76-7.57-.64-.17-1.28-.44-1.51-.5-3.95-2.43.03-8.86,1.01-13.12,2.45,5.74,5.16,8.72,9.59,12.87.45.42-.62,1.41-.25,1.77,1.52,1.47,15.87,3.21,18.67,5.55l1.77-2.02Z"/>
            <path class="cls-24" d="M255.67,270.58c-.39-.03-.56-.08-.5-.5.38.05.56.06.5.5Z"/>
            <path class="cls-16" d="M302.6,220.63c.43.97.7,2.81,1.01,3.53-.89,1.4-6.82,11.23-6.56,11.86.17.42,1.61,0,2.02,1.01.7,1.71-.92,4.69-1.51,6.31-.04-.19-2.17-2.32-2.52-3.03-.49-.99-.75-2.54-1.51-3.53-.47-.62-.91-1.59-1.51-2.02-.12-1.17-1.12-2.34-2.02-3.03-4.74-10.81-13.01-23.15-5.8-34.82,7.84,5.19,14.67,15.16,18.42,23.72Z"/>
            <path class="cls-16" d="M296.54,193.38c3.07,2.58,11.99,9.01,13.88,11.61,1.1,1.5,1.16.69,1.26,3.03.21,4.89-4.47,13.54-4.54,18.92-1.56-1.23-3.14-4.5-4.04-6.31-3.04-6.1-10.59-23.1-11.61-29.27-.13-.77-1.11-1.94-.25-3.03,1.71,1.76,3.42,3.47,5.3,5.05Z"/>
            <path class="cls-22" d="M312.69,181.27c-.7-.63-1.67-1.11-2.52-1.51.06-.14-.05-.36,0-.5,1.09-2.94,3.26-7.48,2.52-10.6-.77-3.26-14.71-7.89-17.41-6.06-.93.63-6.16,16.38-6.31,18.17-.09,1.11-.03,4.46.5,5.3,1.13,1.77,15.56,6.61,16.65,1.26.36,1.16.65,2.43,1.01,3.53-1.85,4.29-7.2,1.74-10.6,2.52-1.88-1.58-3.59-3.29-5.3-5.05-.86,1.09.12,2.25.25,3.03-9.91-2.55-3.53-20.91-.5-27,3.57-7.18,7.85-5.84,14.89-3.78,13.12,3.83,10.31,9.85,6.81,20.69Z"/>
            <path class="cls-11" d="M306.63,231.73c-.04-.1-1.32.24-1.51-.25-.08-.19.66-3.66.5-4.04-.4-1-1.67-2.45-2.02-3.28-.31-.73-.58-2.56-1.01-3.53h.5c.9,1.8,2.48,5.08,4.04,6.31.07-5.38,4.76-14.03,4.54-18.92,2.18,2.31,3.86,9.94,3.53,12.87-.33,3.02-6.59,13.08-9.08,7.57l.5,3.28Z"/>
            <path class="cls-3" d="M289.98,231.73c.9.69,1.9,1.86,2.02,3.03-1.22-.86-15.77-5.38-16.9-5.05-2.9.86-4.01,12.03-3.78,14.63.06.66-.04,1.35,0,2.02-.59-.98-2.11-4.04-2.52-5.05-.37-.9-.58-2.88-1.01-4.04,3.3-1.82,1.66-8.99,5.8-10.09,3.03-.8,13.77,2.53,16.4,4.54Z"/>
            <path class="cls-14" d="M228.93,178.24c.56.51,2.96,2.49,3.03,2.78.55,2.13-4.7,13.58-6.56,15.89-15.59-7.36-26.96-18.6-41.88-26.74-.17-1.55.24-3.04.5-4.54,4,2.9,9.36-1.7,13.88-2.02,8.84-.62,24.54,8.71,31.03,14.63Z"/>
            <path class="cls-19" d="M212.28,154.53c-3.78.46-6.89.34-10.6.5-4.73.21-9.95.23-14.63-.5.46-4.64,2.54-8.81,4.04-13.12.09-.25-.09-.76,0-1.01,14.13-.03,29.91-3.05,42.89,3.28-4.05,7.34-13.83,9.89-21.7,10.85Z"/>
            <path class="cls-19" d="M193.61,134.34c.81-2.17,3.56-12.45,4.04-13.12.2-.28.64-.88,1.01-1.01,12.32-1.18,26.62-2.49,37.84,3.28-2.38,4.05-7.48,6.69-11.86,7.82-9.01,2.34-21.8,2.18-31.03,3.03Z"/>
            <path class="cls-23" d="M212.28,154.53c.29.57,1.8,1.78,2.27,2.02,3.51,1.78,22.72,17.46,24.98,21.45.52.93,2.35,3.3.76,3.78l-11.35-3.53c-6.49-5.92-22.19-15.25-31.03-14.63-4.52.32-9.88,4.92-13.88,2.02.13-.71.36-1.31.5-2.02,6.67-.5,12.89-3.24,17.16-8.58,3.7-.16,6.82-.04,10.6-.5Z"/>
            <path class="cls-19" d="M199.66,117.19c1.02-3.53,1.75-7.13,3.03-10.6.02-.05.27-.41.5-1.01,3.25-.57,27.57-1.69,27.25,2.27-.3,3.73-26.39,9.95-30.78,9.34Z"/>
            <path class="cls-23" d="M201.68,155.03c-4.27,5.33-10.49,8.08-17.16,8.58.1-.46-.1-1.06,0-1.51.51-2.31,1.73-4.66,2.02-7.06l.5-.5c4.68.73,9.9.71,14.63.5Z"/>
            <path class="cls-13" d="M258.19,54.62c.97-.1,7.23-.16,7.57.25l-2.52,12.36c-5.18-1.28-10.48-2.85-15.64-4.04,1.82-5.04,5.12-8.02,10.6-8.58Z"/>
            <path class="cls-21" d="M300.07,81.87c-2,.09-2.98-.4-4.04-2.02,1.83-.46.67-3.04,1.51-4.79.4-.84,2.49-1.78,3.03-2.78,5.5,1.39,4.65,9.35-.5,9.59Z"/>
            <path class="cls-18" d="M296.04,79.85c1.05,1.62,2.04,2.11,4.04,2.02l-.76,2.02-13.37-6.06c.67-.34,2.18-1.85,2.52-2.52,7.41,3.04,3.89,1.53,7.06-1.51-.85,2.81-.89,3.91.5,6.06Z"/>
            <path class="cls-6" d="M300.58,72.28c-.53,1-2.62,1.94-3.03,2.78-.85,1.76.32,4.33-1.51,4.79-1.4-2.15-1.35-3.25-.5-6.06,1.94-1.86,2.51-2.15,5.05-1.51Z"/>
            <path class="cls-30" d="M240.53,220.12c.63-.02.6.55.5,1.01-.03.13-1.31,1.16-1.51,2.27-2.31,12.78-5,25.39-7.57,38.1l-1.77,2.02c-2.8-2.34-17.15-4.08-18.67-5.55-.37-.36.7-1.35.25-1.77-4.43-4.14-7.14-7.12-9.59-12.87.19-.82.3-1.67.5-2.52.83-3.54,5.52-25.65,7.82-26.24l30.02,5.55Z"/>
            <path class="cls-7" d="M309.16,238.8c2.29,2.04,1.27,3.95,2.02,5.3,1.12,2.02,3.04-.19,2.52,2.78-1.58,5.67-2.48,11.64-5.8,16.65-2.89-5.14-5.65-10.4-8.33-15.64,2.61-.35,3.95-10.72,4.79-11.1.24-.11,4.51,1.76,4.79,2.02Z"/>
            <path class="cls-11" d="M306.63,231.73c.82,2.09,2.8,4.63,2.52,7.06-.28-.25-4.56-2.13-4.79-2.02-.84.38-2.19,10.75-4.79,11.1-.54-1.05-.84-2.43-2.02-3.03.04-.44.08-1.13,0-1.51.6-1.62,2.21-4.6,1.51-6.31-.41-1.01-1.85-.59-2.02-1.01-.26-.63,5.67-10.45,6.56-11.86.35.83,1.62,2.28,2.02,3.28.15.38-.58,3.85-.5,4.04.2.49,1.48.15,1.51.25Z"/>
            <path class="cls-9" d="M297.55,243.34c.08.38.04,1.07,0,1.51-.08.94-3.59,7.94-4.79,8.58-4.73,2.49-31.86.13-23.97-12.11.41,1,1.94,4.07,2.52,5.05,1.91,3.18,8.58,4.83,12.36,5.05,10.2.57,8.42-3.07,11.35-11.1.35.71,2.48,2.83,2.52,3.03Z"/>
            <path class="cls-31" d="M303.1,176.23c1.17,3.31,2,6.74,3.03,10.09.08.27-.08.74,0,1.01-1.09,5.35-15.53.51-16.65-1.26-.53-.84-.6-4.19-.5-5.3,4.36,5.26,9.76-2.95,14.13-4.54Z"/>
            <path class="cls-17" d="M305.12,174.71c1.74,1.43,3.24,3.19,5.05,4.54-.05.15.06.36,0,.5-.77,1.92-2.24,5.4-4.04,6.56-1.02-3.35-1.86-6.78-3.03-10.09-.29-.83-2.68-4.01-1.77-4.54,1.44.65,2.54,2,3.78,3.03Z"/>
            <path class="cls-31" d="M293.52,236.78c.76.99,1.02,2.54,1.51,3.53-2.94,8.03-1.15,11.68-11.35,11.1-3.78-.21-10.45-1.86-12.36-5.05-.04-.66.06-1.36,0-2.02,6.73,4.48,15.53-5.43,22.2-7.57Z"/>
            <path class="cls-31" d="M312.69,168.66c.74,3.12-1.44,7.65-2.52,10.6-1.81-1.35-3.31-3.11-5.05-4.54l7.57-6.06Z"/>
            <g>
              <path class="cls-2" d="M288.47,75.31c-.34.67-1.85,2.18-2.52,2.52-3.51,1.78-7.88.94-11.1-1.01-2.77-2.8-3.9-5.67-2.52-9.59,9.07-9.01,20.47-.49,16.15,8.07Z"/>
              <path class="cls-14" d="M280.14,65.72c7.81,9.66-7.99,8.49.25,1.77l-.25-1.77Z"/>
              <path class="cls-14" d="M277.12,65.21c2.68.14-2.71,4.67-2.52,7.06-3.15-1.71-.22-7.21,2.52-7.06Z"/>
            </g>
            <g>
              <path class="cls-1" d="M292,234.76c.6.43,1.04,1.4,1.51,2.02-6.68,2.14-15.47,12.05-22.2,7.57-.23-2.6.89-13.77,3.78-14.63,1.13-.34,15.69,4.18,16.9,5.05Z"/>
              <path class="cls-15" d="M276.11,231.73c5.62-1.55-2.54,6.27-2.52,7.57-.53-.17,1.22-7.21,2.52-7.57Z"/>
            </g>
            <g>
              <path class="cls-29" d="M272.32,82.37c23.01,6.74,44.83,16.35,66.61,26.24-.02,23.15-3.52,45.9-7.57,68.62-.56-.92-10.63-9.81-11.1-7.32l9.08,17.41c-.24,1.28-.27,2.76-.5,4.04-.47,2.51-1.62,4.94-1.51,7.57h-.5c-.3-2.84-11.38-15.2-14.13-17.66,3.5-10.84,6.31-16.86-6.81-20.69-7.04-2.05-11.31-3.4-14.89,3.78-3.03,6.09-9.41,24.44.5,27,1.02,6.17,8.56,23.16,11.61,29.27h-.5c-3.74-8.56-10.57-18.52-18.42-23.72-7.2,11.67,1.06,24,5.8,34.82-2.63-2.01-13.37-5.35-16.4-4.54-4.14,1.1-2.5,8.27-5.8,10.09-2.36-6.34-4.35-13.12-6.06-19.68,2.66.87,7.75,3.29,10.34,2.52,4.67-1.39,6.57-22.46,4.29-26.49-1.97-3.47-17.81-8.22-21.45-7.32-4.74,1.18-4.98,15.03-5.3,19.17-2.09-.42-3.96-1.11-6.06-1.51.03-.16-.03-.34,0-.5,7.04-41.17,11.56-82.81,17.66-124.13,3.74.96,7.4,1.94,11.1,3.03Z"/>
              <path class="cls-19" d="M331.36,177.23c-.03.16.03.34,0,.5-.57,3.18-1.43,6.39-2.02,9.59l-9.08-17.41c.47-2.5,10.54,6.39,11.1,7.32Z"/>
              <g>
                <path class="cls-22" d="M268.54,110.63c4.31-.82,22.36,3.88,23.46,8.83.77,3.45-1.96,23.94-5.3,24.98-2.08.65-21.52-5.45-22.96-7.32-3.15-4.07-1.11-25.37,4.79-26.49Z"/>
                <path class="cls-31" d="M288.47,119.71c1.38,2.18-.33,16.42-1.51,18.92-2.08,4.38-20.74-2.25-21.7-5.55-.21-.71.05-2.34,0-3.28.66.01,1.41,1.45,1.77,1.51,4.1.7,17.23-9.22,21.45-11.61Z"/>
                <g>
                  <path class="cls-1" d="M288.47,119.71c-4.21,2.38-17.35,12.3-21.45,11.61-.36-.06-1.11-1.5-1.77-1.51-.15-2.65,1.2-15.26,3.78-16.15,2.46-.84,17.83,3.53,19.43,6.06Z"/>
                  <path class="cls-15" d="M269.55,115.67c5.56.54-2.11,5.12-2.02,8.07-.27-1.7.66-7.67,2.02-8.07Z"/>
                </g>
              </g>
              <g>
                <path class="cls-22" d="M304.87,119.71c2.88-.39,18.8,3.72,20.44,6.31,2.4,3.81-.65,21.11-4.29,23.46-3.23,2.09-22.41-1.89-23.97-5.3-1.83-4.01,2.19-23.71,7.82-24.47Z"/>
                <path class="cls-31" d="M299.57,139.39c6.81,4.51,17.27-7.15,23.21-11.1,1.66,3.23-.46,16.62-4.29,17.66-2.78.76-17.9-1.56-18.92-4.29-.16-.42.04-1.62,0-2.27Z"/>
                <g>
                  <path class="cls-1" d="M322.78,128.29c-5.94,3.95-16.4,15.61-23.21,11.1-.15-2.53,3-15.89,5.3-16.65,1.91-.63,16.82,3.41,17.91,5.55Z"/>
                  <path class="cls-15" d="M304.87,125.26c5.35-1.88-2.12,6.43-2.02,7.57-.88-.42.91-7.18,2.02-7.57Z"/>
                </g>
              </g>
              <g>
                <path class="cls-22" d="M262.48,145.95c3.55-.86,20.49,4.21,21.95,7.82,1.99,4.92-.74,23.67-6.81,24.98-3.32.72-18.52-2.52-20.44-5.3-2.77-4.01-.05-26.21,5.3-27.5Z"/>
                <path class="cls-31" d="M258.7,166.64c6.72,4.35,16.78-7.3,22.71-11.1,1.94,3.55.27,13.96-2.02,17.41-3.67,5.54-20.27,2.44-20.69-6.31Z"/>
                <g>
                  <path class="cls-1" d="M281.4,155.54c-5.92,3.8-15.99,15.45-22.71,11.1-.13-2.63,2.43-16.88,4.79-17.66,4.19.47,15.92,2.92,17.91,6.56Z"/>
                  <path class="cls-15" d="M264,151c6.2.54-2.68,5.07-2.52,9.08-.36-1.53,1.41-8.74,2.52-9.08Z"/>
                </g>
              </g>
            </g>
            <g>
              <path class="cls-3" d="M261.73,217.6c-2.53-.82-8.77-2.96-10.6-5.8-.95-1.48-2.35-5.39,0-6.06.02-.43-1.11-.17-1.51-.25.32-4.15.56-17.99,5.3-19.17,3.64-.91,19.48,3.84,21.45,7.32,2.28,4.03.38,25.11-4.29,26.49-2.59.77-7.68-1.66-10.34-2.52Z"/>
              <path class="cls-31" d="M265.26,215.58l-1.51-.5c-4.8-1.46-10.3-3.3-11.1-8.58,6.93,2.49,15.65-6.52,20.69-11.1,2.13,2.68,1.86,6.06,1.51,9.84-.72,7.99-1.52,12.11-9.59,10.34Z"/>
              <path class="cls-5" d="M265.26,215.58c-.81-.18-1.14-.39-1.51-.5l1.51.5Z"/>
              <g>
                <path class="cls-1" d="M273.33,195.4c-5.04,4.58-13.76,13.59-20.69,11.1-.4-2.62.71-16.24,3.28-17.16,2.82-1,15.44,3.57,17.41,6.06Z"/>
                <path class="cls-15" d="M256.43,191.36c6.09.39-1.57,4.25-2.02,7.57l2.02-7.57Z"/>
              </g>
            </g>
            <g>
              <path class="cls-1" d="M312.69,168.66l-7.57,6.06c-1.25-1.03-2.35-2.38-3.78-3.03-.91.53,1.47,3.72,1.77,4.54-4.37,1.59-9.77,9.8-14.13,4.54.15-1.78,5.38-17.54,6.31-18.17,2.7-1.83,16.64,2.8,17.41,6.06Z"/>
              <path class="cls-15" d="M296.79,164.62c.78-.44,2.77.71,2.78,1.26,0,.61-7.16,7.67-7.32,9.84.45-1.93,3.17-10.71,4.54-11.1Z"/>
            </g>
          </g>
        </g>
      </g>
      <path class="cls-25" d="M373.05,61.16c-10.05,20.33-13.47,43.87-9.62,66.22.6,3.49,2.17,7.71,5.7,8.02,2.5.22,4.62-1.75,6.23-3.68,2.49-2.99,4.72-6.46,4.99-10.34.27-3.88-2.03-8.17-5.84-8.96.87,44.28,4.06,100.57,4.93,144.85-13.35-29.63-31.31-73.01-59.96-88.35,10.73,20.62,21.46,41.23,32.18,61.85-12.48-20.46-28.11-38.99-46.18-54.73,1.91,16.67,7.77,32.87,16.96,46.91-7.46-12.54-17.73-23.4-29.84-31.55,4.14,16,10.67,31.39,19.3,45.49-4.48-15.72-14.54-29.78-27.98-39.09-5.51,13.68,3.67,28.38,11.31,41,10.22,16.89,18.44,35.45,20.23,55.11-18.42-6.92-19.96-43.32-34.22-30.32,1.16,16.82,3.1,27.37,20.92,49.57-8.83-6.41-10.11,7.72-21.02,7.85-53.45.62-107.1,13.71-159.91,5.46,27.9-5.63,56.9-5.74,84.83-.32-38.81-3.63-77.94-1.2-116.73,2.7-22.99,2.31-47.66,4.83-67.88-6.35,11.91-.55,23.71-3.4,34.55-8.36-1.53-2.44-4.39-3.97-7.27-3.9,2.34.86,4.69,1.71,7.03,2.57-3.5.67-4.21-4.76-3.44-8.24,3.27-14.67,2.84-30.14-1.24-44.6-.89,15.49-1.78,30.98-2.67,46.47-.2,3.56-1.36,8.16-4.92,8.41-2.45.17-4.36-2-5.8-3.99-7.24-10.05-13.3-20.95-18.02-32.39,8.24,8.38,14.78,18.42,19.11,29.35-10.92-10.62-23.71-19.3-37.61-25.54,4.88,8.69,17.37,11.98,25.9,6.83"/>
      <path class="cls-25" d="M300.62,274.8c3.26-1.97,5.42-5.32,7.17-8.71,4.17-8.07,6.67-16.89,9.01-25.67,5.73-21.47,10.73-43.14,14.98-64.96,4.51-23.16,8.19-46.58,8.44-70.17.06-5.87-.14-11.97-2.83-17.19-3.33-6.49-9.93-10.56-16.38-13.98-24.44-12.94-51.42-21.08-78.94-23.82-2.56-.25-5.29-.43-7.54.82-1.76.97-2.96,2.68-4.08,4.35-21.59,32.05-35.33,68.81-44.94,106.23-5.51,21.44-10.48,63.25-3.95,84.39,2.7,8.72,9.29,7.79,16.87,9.51,9.18,2.09,17.91,5.8,26.99,8.24,12.95,3.49,26.42,4.47,39.4,7.83,10.64,2.75,24.97,9.63,35.78,3.11Z"/>
      <path class="cls-25" d="M219.91,88.32c4.12.24,9.27,1.68,9.79,5.78.21,1.65-.48,3.29-1.41,4.67-3.66,5.35-10.75,7.19-17.23,7.13-6.48-.06-12.9-1.61-19.37-1.29,10.95-1.02,21.91-1.87,32.88-2.54,4.01-.25,9.3.44,10.09,4.38-2.43,3.72-7.08,5.2-11.36,6.39-9.47,2.63-18.96,5.17-28.48,7.6,10.43,0,20.87.02,31.3.03,3.39,0,7.83.87,8.24,4.23.39,3.19-3.36,5.17-6.5,5.9-8.25,1.92-16.82,1.88-25.19,3.24-8.36,1.36-16.95,4.42-22.26,11.02,13.06-3.48,26.64-5,40.14-4.49,2.45.09,5.02.29,7.12,1.56,2.1,1.27,3.55,3.96,2.63,6.24-.67,1.67-2.37,2.67-4.01,3.42-20.16,9.27-45.73-.81-65.14,9.95,5.93,1.24,11.85,2.48,17.78,3.72-4.42,1.75-9.62.63-13.55-2.04s-6.75-6.71-8.89-10.95c-8.56-16.9-7-38.47,3.9-53.97,1.37-1.94,2.85-3.06,5.1-2.62-1.08,1.6-.91,3.3-1.43,4.73,18.27-7.63,35.67-13.26,55.85-12.08Z"/>
      <path class="cls-25" d="M209.35,57.05c-2.04-.17-4.13,1.06-4.98,2.93,12.04,11.92,30.18,14.39,46.77,17.85,42.84,8.93,82.71,28.19,122.08,47.28-3.88-.98-7.76-1.96-11.65-2.95"/>
      <path class="cls-25" d="M225.32,90.26c1.52,2.25,4.79,2.15,7.5,1.96,6.75-.47,13.56.1,20.14,1.68,2.38.57,5,1.5,6.05,3.71.73,1.53.51,3.32.28,5-2.4,17.67-4.81,35.33-7.21,53-10.67-2.72-21.07-6.49-31.02-11.22,3.91.44,7.9.05,11.65-1.14"/>
      <path class="cls-25" d="M284.07,139.46c.61.11,1.31.2,1.8-.17.4-.31.55-.84.67-1.33,1.32-5.6,4.47-16.49-1.05-20.26-3.51-2.39-11.08-1.01-14.19,1.51-3.04,2.46-5.56,8.69-5.12,12.58.83,7.32,11.26,6.48,17.9,7.68Z"/>
      <path class="cls-25" d="M307.8,125.1c-2.74,5.52-5.13,11.23-7.13,17.06,3.46,1.06,6.91,2.12,10.37,3.18,1.4.43,2.92.86,4.31.4,1.81-.6,2.83-2.48,3.59-4.23,2.01-4.61,3.5-9.44,4.45-14.37-4.05-.11-8.09-.82-11.93-2.11-1-.34-2.08-.71-3.09-.42-.74.22-1.33.77-1.87,1.33-4.31,4.53-6.49,11-5.81,17.21"/>
      <path class="cls-25" d="M264.01,154.71c-3.47,4.83-5.69,10.55-6.4,16.46-.05.45-.09.96.2,1.31.25.31.68.4,1.07.48,5.37,1.06,10.74,2.12,16.11,3.18,1.11.22,2.31.43,3.34-.03,1.58-.71,2.11-2.66,2.4-4.37.9-5.27,1.31-10.62,1.24-15.97,0-.58-.04-1.21-.43-1.63-.35-.39-.91-.51-1.43-.61-7.67-1.43-15.41-2.46-23.18-3.1,3.21,1.82,7.31,1.97,10.64.39"/>
      <path class="cls-25" d="M289.87,185.3c4.41,3.23,9.07,6.1,13.94,8.57,3.45-6.9,6.91-13.81,10.36-20.71,3.05-6.09-14.43-10.86-19.11-8.56-6.43,3.17-11.45,16.11-5.19,20.7Z"/>
      <path class="cls-25" d="M190.65,159.1c4.04.05,7.85,1.79,11.44,3.64,11.57,5.96,22.3,13.38,32.99,20.79-1.05-.62-2.48-.11-3.28.81-.8.92-1.13,2.15-1.43,3.34-.71,2.76-1.41,5.53-2.12,8.29-.19.75-.44,1.58-1.12,1.95-.88.49-1.97-.05-2.82-.59-12.68-7.93-25-16.44-36.9-25.5-1.02-.77-2.11-1.66-2.36-2.92-.23-1.12.26-2.25.78-3.26,3.32-6.47,8.4-12.03,14.55-15.92"/>
      <path class="cls-25" d="M251.11,203.38c-.32.81-.62,1.71-.32,2.53.22.59.71,1.02,1.2,1.42,4.86,4.03,10.28,7.38,16.05,9.94.99.44,2.2.84,3.1.24.63-.42.9-1.2,1.12-1.93,1.39-4.51,2.78-9.02,4.18-13.54.31-1.01.62-2.1.27-3.09-.29-.84-1-1.45-1.7-1.99-11.74-9.06-18.48-7.2-23.89,6.41Z"/>
      <path class="cls-25" d="M275.84,234.34c-1.72,3.34-3.12,6.85-4.19,10.45-.16.55-.32,1.14-.14,1.68.19.58.71.98,1.22,1.32,5.05,3.42,11.21,5.18,17.3,4.96.69-.03,1.43-.09,1.99-.5.58-.42.86-1.12,1.1-1.8,1.02-2.92,1.61-5.99,1.75-9.08.05-1.1.03-2.25-.5-3.21-.51-.92-1.41-1.53-2.32-2.06-4.08-2.37-8.82-3.56-13.53-3.4-1.68.06-3.74.11-4.62-1.33"/>
      <path class="cls-25" d="M311.03,70.69c1.49.66,2.48-1.6,2.54-3.23.66-16.62,1.31-33.25,1.97-49.87.66.98,2.39.91,2.96-.13-3.5-1.08-6.89-2.48-10.12-4.2,5.61-.71,11.26-1.18,16.92-1.4-3.94-.2-7.85-1.09-11.49-2.61,2.12,1.1,4.61,1.46,6.96,1.01-1.05.29-1.97-.93-1.96-2.02s.58-2.09.84-3.14c.4-1.64.02-3.46-1.02-4.8"/>
      <path class="cls-25" d="M245,64.22c3.21-.09,6.44.41,9.48,1.46-1.22-.34-2.57-.15-3.65.51.86,1.94-6.69-3.91-5.83-1.97Z"/>
      <path class="cls-25" d="M249.79,58.46c-.71,5.34-1.43,10.67-2.14,16.01.41-.39.82-.77,1.24-1.16"/>
      <path class="cls-25" d="M258.41,66.72c2.65.89,5.3,1.78,7.96,2.67"/>
      <path class="cls-25" d="M264.65,61.08c-1.37,4.44-2.75,8.88-4.12,13.33.44-.8.87-1.6,1.31-2.39"/>
      <path class="cls-25" d="M283.7,64.35c-3.2-2.34-8.29-.78-10.11,2.75-1.82,3.53-.53,8.17,2.48,10.74s7.39,3.21,11.23,2.23c.57-.15,1.19-.37,1.47-.89s-.1-1.35-.68-1.24"/>
      <path class="cls-25" d="M270.26,67.86c3.45-.12,6.91-.07,10.36.15-.85.31-1.7.63-2.54.94"/>
      <path class="cls-25" d="M270.81,73.97l8.92-1.63c.35-.06.78-.21.82-.56s-.72-.32-.52-.03"/>
      <path class="cls-25" d="M196.47,174.27c1.27-1.53,2.55-3.05,3.82-4.58"/>
      <path class="cls-25" d="M193,168.7c3.36,1.06,6.52,2.74,9.29,4.92"/>
      <path class="cls-25" d="M213.33,180.04c2.59,1.94,5.18,3.89,7.76,5.83"/>
      <path class="cls-25" d="M217.73,141.52c.34-.07.15.64-.19.52s-.39-.55-.39-.91c0-3.78,0-7.56,0-11.34.58.12.62,1.14.05,1.3"/>
      <path class="cls-25" d="M308.93,72.26c-2.68-3.28-8.47-2.69-11.03.69-2.56,3.38-2.01,8.47.61,11.8s6.89,5.04,11.11,5.39c.42.03.88.05,1.22-.2s.41-.86.04-1.05-.77.55-.36.65"/>
      <path class="cls-25" d="M294.93,71.82c-.04-.45-.87-.05-.7.37s.72.5,1.18.53c3.06.17,6.09.63,9.07,1.36.39.1.84.25.97.63s-.46.82-.66.48"/>
      <path class="cls-25" d="M292.98,79.06c2.29,2.74,6.27,3.95,9.7,2.95"/>
      <path class="cls-25" d="M160.89,196.12c-5.58-.9-11.34-.68-16.85.63,1.55.88,3.42,1.17,5.17.79"/>
      <path class="cls-25" d="M166.69,227.98c-5.39,1.08-10.79,2.16-16.18,3.24"/>
      <path class="cls-25" d="M192.42,256.3c-5.95,5.97-11.9,11.94-17.86,17.92,2.12-1.39,4.24-2.78,6.36-4.17"/>
      <path class="cls-25" d="M227.56,278.48c-3.64,7.49-7.28,14.98-10.92,22.46.23-1.01.47-2.02.7-3.03"/>
      <path class="cls-25" d="M186.33,66.54c1.33-1.87,1.02-4.71-.68-6.25s-4.56-1.56-6.28-.04c2.97.86,6.38-.83,7.76-3.6,1.38-2.77.82-6.31-1.12-8.72.57,2.72,1.14,5.44,1.71,8.16.12.55.24,1.13.59,1.57,1.1,1.37,3.29.52,4.77-.42-1.68.9-3.37,1.8-5.05,2.7-1.13.6-2.3,1.23-3.09,2.24s-1.12,2.5-.43,3.58,2.57,1.26,3.2.15"/>
      <path class="cls-25" d="M199.94,27.59c1.36,2.39.96,5.65-.94,7.64s-5.14,2.54-7.59,1.29c.92.3,1.9-.17,2.86-.31,2.71-.4,5.21,1.97,5.95,4.61.74,2.64.17,5.45-.4,8.13.42-2.51.85-5.03,1.27-7.54.12-.69.24-1.41.65-1.99,1.64-2.33,5.39-.23,8.12-1.02-3.01.49-5.93-1.73-7.26-4.47-1.33-2.74-1.43-5.9-1.51-8.94.55-.28,1.19-.56,1.75-.32s.64,1.28.03,1.35"/>
      <path class="cls-25" d="M203.59,261.64c.37-13.8,1.68-27.57,3.91-41.2.21-1.26.47-2.6,1.38-3.48.94-.9,2.33-1.09,3.63-1.19,12.58-.97,25.47,2.91,35.43,10.64,1.32,1.02,2.61,2.14,3.43,3.6.79,1.41,1.09,3.03,1.36,4.62,2.71,15.62,4.63,31.37,5.77,47.18-.67-1.96-1.33-3.92-2-5.88"/>
      <path class="cls-25" d="M176.45,181.18c8.81.08,17.56,3.26,24.37,8.85.56.46,1.13.97,1.35,1.67.18.58.08,1.21-.02,1.82-1.02,6.05-2.05,12.09-3.07,18.14-8.16,3.42-17.07,5.05-25.91,4.74,1.62.1,3.11-1.06,3.88-2.48.78-1.43.98-3.08,1.18-4.69"/>
      <path class="cls-25" d="M177.7,200.86c-.61.08-1.14.58-1.25,1.19,2.78-.41,5.57-.82,8.35-1.22-.4,3.69.14,7.49,1.55,10.92,1.4-5.61,2.81-11.21,4.21-16.82.1-.39.22-.82.55-1.05.36-.26.85-.2,1.29-.14,1.76.26,3.52.53,5.29.79"/>
      <path class="cls-25" d="M150.7,105.53c-.69-.98-1.38-1.96-2.07-2.93-5.79,19.37-8.06,39.78-6.67,59.95.23,3.39.62,6.92,2.44,9.79,1.34-4.7-.05-9.68-1.27-14.41-3.91-15.11-6.21-30.63-6.85-46.22-2.62,15.3-3.15,30.96-1.58,46.4-2.31-8.71-5.87-17.08-10.54-24.78-1.71,5.07-1.97,10.61-.75,15.82-2.72-1.75-5.74-3.03-8.89-3.76,1.69.89,3.66,1.26,5.56,1.03"/>
      <path class="cls-25" d="M237.8,117.28c2.37.09,4.74.18,7.12.28.39.02.88.12.94.5s-.78.27-.5,0"/>
      <path class="cls-25" d="M236.09,127.42c2.78-.01,5.56.68,8.02,2"/>
    </g>
  </g>
</svg>