<?xml version="1.0" encoding="UTF-8"?>
<svg id="Ebene_2" data-name="Ebene 2" xmlns="http://www.w3.org/2000/svg" xmlns:xlink="http://www.w3.org/1999/xlink" viewBox="0 0 438.05 316.1">
  <defs>
    <style>
      .cls-1 {
        fill: #cd3110;
      }

      .cls-2 {
        fill: #dfdc5f;
      }

      .cls-3 {
        fill: #2e778c;
      }

      .cls-4 {
        fill: #91829e;
      }

      .cls-5 {
        fill: #eac599;
      }

      .cls-6 {
        fill: #e5e6e3;
      }

      .cls-7 {
        fill: #fff126;
      }

      .cls-8 {
        fill: #2dacca;
      }

      .cls-9 {
        fill: #5b2768;
      }

      .cls-10 {
        fill: #6ea6a7;
      }

      .cls-11 {
        fill: #ffff26;
      }

      .cls-12 {
        fill: #ec7221;
      }

      .cls-13 {
        fill: #94bbb4;
      }

      .cls-14 {
        fill: #97a33e;
      }

      .cls-15 {
        fill: #81688e;
      }

      .cls-16 {
        fill: #9b87a2;
      }

      .cls-17 {
        fill: #9787a1;
      }

      .cls-18 {
        fill: #fbca60;
      }

      .cls-19 {
        fill: #602455;
      }

      .cls-20 {
        fill: #515154;
      }

      .cls-21 {
        fill: #19133d;
      }

      .cls-22 {
        fill: #ffde40;
      }

      .cls-23 {
        fill: #f9ac37;
      }

      .cls-24 {
        fill: #728c43;
      }

      .cls-25 {
        fill: #ffce48;
      }

      .cls-26 {
        fill: #d84715;
      }

      .cls-27 {
        fill: #1c7f00;
      }

      .cls-28 {
        fill: url(#Unbenannter_Verlauf_2);
      }

      .cls-29 {
        fill: url(#Unbenannter_Verlauf_6);
      }

      .cls-30 {
        fill: #7c131b;
      }

      .cls-31 {
        fill: #658442;
      }

      .cls-32 {
        fill: #b62d19;
      }

      .cls-33 {
        fill: #e6eae8;
      }

      .cls-34 {
        fill: #aabbab;
      }

      .cls-35 {
        fill: #a787a2;
      }

      .cls-36 {
        fill: #d4bfc8;
      }

      .cls-37 {
        fill: #486835;
      }

      .cls-38 {
        fill: #f3cd26;
      }

      .cls-39 {
        fill: #f8e3d8;
      }

      .cls-40 {
        fill: #b5c0bd;
      }

      .cls-41 {
        fill: #ff8;
      }

      .cls-42 {
        fill: #fff229;
      }

      .cls-43 {
        fill: #585763;
      }

      .cls-44 {
        fill: #ffd447;
      }

      .cls-45 {
        fill: #b8acbd;
      }

      .cls-46 {
        fill: #b2b63b;
      }

      .cls-47 {
        fill: #8d7a99;
      }

      .cls-48 {
        fill: #ffb654;
      }

      .cls-49 {
        fill: #ec7622;
      }

      .cls-50 {
        fill: #ef7883;
      }

      .cls-51 {
        fill: #694d71;
      }

      .cls-52 {
        fill: #7a6b8c;
      }

      .cls-53 {
        fill: #f8b13d;
      }

      .cls-54 {
        fill: #91a85b;
      }

      .cls-55 {
        fill: #3e6031;
      }

      .cls-56 {
        fill: #e55c1c;
      }

      .cls-57 {
        fill: #f1ad4f;
      }

      .cls-58 {
        fill: #e2cfd0;
      }

      .cls-59 {
        fill: #568b9a;
      }

      .cls-60 {
        fill: #fff326;
      }

      .cls-61 {
        fill: #727a7c;
      }

      .cls-62 {
        fill: #b4a9bd;
      }

      .cls-63 {
        fill: #e9ae26;
      }

      .cls-64 {
        fill: #fde78f;
      }

      .cls-65 {
        fill: #ffff49;
      }

      .cls-66 {
        fill: #1f5d78;
      }

      .cls-67 {
        fill: #69894f;
      }

      .cls-68 {
        fill: #9b88a1;
      }

      .cls-69 {
        fill: #abbeab;
      }

      .cls-70 {
        fill: #b5adbd;
      }

      .cls-71 {
        fill: #fddf7b;
      }

      .cls-72 {
        fill: #e15719;
      }

      .cls-73 {
        fill: #f49028;
      }

      .cls-74 {
        fill: #fabd48;
      }

      .cls-75 {
        fill: #385b2e;
      }

      .cls-76 {
        fill: #b74d41;
      }

      .cls-77 {
        fill: #d8d95e;
      }

      .cls-78 {
        fill: #a5c4b9;
      }

      .cls-79 {
        fill: #8b7c9a;
      }

      .cls-80 {
        fill: #3a5c31;
      }

      .cls-81 {
        fill: #ffed36;
      }

      .cls-82 {
        fill: #446735;
      }

      .cls-83 {
        fill: #bbb6a9;
      }

      .cls-84 {
        fill: #cb2a15;
      }

      .cls-85 {
        fill: #8f9e3f;
      }

      .cls-86 {
        fill: #f39538;
      }

      .cls-87 {
        fill: #f06c77;
      }

      .cls-88 {
        fill: #a792a8;
      }

      .cls-89 {
        fill: #e1531a;
      }

      .cls-90 {
        fill: #fff526;
      }

      .cls-91 {
        fill: #fbd94e;
      }

      .cls-92 {
        fill: #6b5683;
      }

      .cls-93 {
        fill: #e0ced1;
      }

      .cls-94 {
        fill: #9a1b14;
      }

      .cls-95 {
        fill: #1a5f73;
      }

      .cls-96 {
        fill: #244c6f;
      }

      .cls-97 {
        fill: #e12961;
      }

      .cls-98 {
        fill: #e3e8e6;
      }

      .cls-99 {
        fill: #9087a6;
      }

      .cls-100 {
        fill: #4a4175;
      }

      .cls-101 {
        fill: #ebbf7c;
      }

      .cls-102 {
        fill: #fabb54;
      }

      .cls-103 {
        fill: #849a4f;
      }

      .cls-104 {
        fill: #877694;
      }

      .cls-105 {
        fill: #de4c17;
      }

      .cls-106 {
        fill: #8ea044;
      }

      .cls-107 {
        fill: #e56120;
      }

      .cls-108 {
        fill: #ffce4b;
      }

      .cls-109 {
        fill: #8cba00;
      }

      .cls-110 {
        fill: #fff167;
      }

      .cls-111 {
        fill: #f6b170;
      }

      .cls-112 {
        fill: #f07f23;
      }

      .cls-113 {
        fill: #ba1234;
      }

      .cls-114 {
        fill: #3b3456;
      }

      .cls-115 {
        fill: #d88a39;
      }

      .cls-116 {
        fill: #a8b959;
      }

      .cls-117 {
        fill: #ec7421;
      }

      .cls-118 {
        fill: #eebd55;
      }

      .cls-119 {
        fill: #fff;
      }

      .cls-120 {
        fill: #cb2a10;
      }

      .cls-121 {
        fill: #b99fb5;
      }

      .cls-122 {
        fill: #544374;
      }

      .cls-123 {
        fill: #fbc052;
      }

      .cls-124 {
        fill: #cec738;
      }

      .cls-125 {
        fill: #f18627;
      }

      .cls-126 {
        fill: #ebe3e4;
      }

      .cls-127 {
        fill: #709e00;
      }

      .cls-128 {
        fill: #ed632a;
      }

      .cls-129 {
        fill: #dfdade;
      }

      .cls-130 {
        fill: #eeb055;
      }

      .cls-131 {
        fill: #fff8b0;
      }

      .cls-132 {
        fill: #ffcf4f;
      }

      .cls-133 {
        fill: #fffe26;
      }

      .cls-134 {
        fill: #4d7038;
      }

      .cls-135 {
        fill: #fbc955;
      }

      .cls-136 {
        fill: #e55d1c;
      }

      .cls-137 {
        fill: #46bc00;
      }

      .cls-138 {
        fill: #ea6b1f;
      }

      .cls-139 {
        fill: #986b45;
      }

      .cls-140 {
        fill: #55989f;
      }

      .cls-141 {
        fill: #68843e;
      }

      .cls-142 {
        fill: #ed6327;
      }

      .cls-143 {
        fill: #e2571b;
      }

      .cls-144 {
        fill: #6f4e73;
      }

      .cls-145 {
        fill: #d1431d;
      }

      .cls-146 {
        fill: #79603f;
      }

      .cls-147 {
        fill: #d9d1c5;
      }

      .cls-148 {
        fill: #e5601d;
      }

      .cls-149 {
        fill: #ef6a7b;
      }

      .cls-150 {
        fill: none;
        stroke: #000;
        stroke-miterlimit: 10;
      }

      .cls-151 {
        fill: #c3c2cd;
      }

      .cls-152 {
        fill: #184a60;
      }

      .cls-153 {
        fill: #aea2b5;
      }

      .cls-154 {
        fill: #fff726;
      }

      .cls-155 {
        fill: #e9e3e3;
      }

      .cls-156 {
        fill: #e4d5d8;
      }

      .cls-157 {
        fill: #ffcc4c;
      }

      .cls-158 {
        fill: #f3932c;
      }

      .cls-159 {
        fill: #fecc4f;
      }

      .cls-160 {
        fill: #ed4970;
      }

      .cls-161 {
        fill: #c74a71;
      }

      .cls-162 {
        fill: #00a200;
      }

      .cls-163 {
        fill: #e3581e;
      }

      .cls-164 {
        fill: #d6c1c9;
      }

      .cls-165 {
        fill: #ffcf4b;
      }

      .cls-166 {
        fill: #fdca4f;
      }

      .cls-167 {
        fill: #ffe926;
      }

      .cls-168 {
        fill: #e8d9d8;
      }

      .cls-169 {
        fill: #fddc78;
      }

      .cls-170 {
        fill: #a3ae43;
      }

      .cls-171 {
        fill: #8f7f9b;
      }

      .cls-172 {
        fill: #d3c7a2;
      }

      .cls-173 {
        fill: #d29928;
      }

      .cls-174 {
        fill: #fdc64f;
      }

      .cls-175 {
        fill: #ddc8ce;
      }

      .cls-176 {
        fill: #ea772a;
      }

      .cls-177 {
        fill: #f18929;
      }

      .cls-178 {
        fill: url(#Unbenannter_Verlauf_288);
      }

      .cls-179 {
        fill: url(#Unbenannter_Verlauf_287);
      }

      .cls-180 {
        fill: url(#Unbenannter_Verlauf_314);
      }

      .cls-181 {
        fill: #f8a042;
      }

      .cls-182 {
        fill: #d81f4a;
      }

      .cls-183 {
        fill: #f18527;
      }

      .cls-184 {
        fill: #c0c4cb;
      }

      .cls-185 {
        fill: #bc2e16;
      }

      .cls-186 {
        fill: #988ba4;
      }

      .cls-187 {
        fill: #b9a3b4;
      }

      .cls-188 {
        fill: #f79e2f;
      }

      .cls-189 {
        fill: #49703e;
      }

      .cls-190 {
        fill: #8e7c99;
      }

      .cls-191 {
        fill: #d5b2bd;
      }

      .cls-192 {
        fill: #fffc4c;
      }

      .cls-193 {
        fill: url(#Unbenannter_Verlauf_16);
      }

      .cls-194 {
        fill: #537039;
      }

      .cls-195 {
        fill: #ffe33b;
      }

      .cls-196 {
        fill: #385930;
      }

      .cls-197 {
        fill: #845e49;
      }

      .cls-198 {
        fill: #aabdaa;
      }

      .cls-199 {
        fill: #9d93a9;
      }

      .cls-200 {
        fill: #e3dcdc;
      }

      .cls-201 {
        fill: #ffcf48;
      }

      .cls-202 {
        fill: #e6671d;
      }

      .cls-203 {
        fill: #f6b06a;
      }

      .cls-204 {
        fill: #ffff81;
      }

      .cls-205 {
        fill: #fac052;
      }

      .cls-206 {
        fill: #c22e16;
      }

      .cls-207 {
        fill: #e96479;
      }

      .cls-208 {
        fill: #312b62;
      }

      .cls-209 {
        fill: #57773d;
      }

      .cls-210 {
        fill: #f8dfc8;
      }

      .cls-211 {
        fill: #a6baa6;
      }

      .cls-212 {
        fill: #f7a444;
      }

      .cls-213 {
        fill: #8b7c99;
      }

      .cls-214 {
        fill: #d74016;
      }

      .cls-215 {
        fill: #ab7392;
      }

      .cls-216 {
        fill: #2f285e;
      }

      .cls-217 {
        fill: #a0b1a3;
      }

      .cls-218 {
        fill: #ae1e15;
      }

      .cls-219 {
        fill: #756586;
      }

      .cls-220 {
        fill: #939b9d;
      }

      .cls-221 {
        fill: #da4a19;
      }

      .cls-222 {
        fill: #743150;
      }

      .cls-223 {
        fill: #87608a;
      }

      .cls-224 {
        fill: #f6a535;
      }

      .cls-225 {
        fill: #9e89a4;
      }

      .cls-226 {
        fill: #b398ac;
      }

      .cls-227 {
        fill: #e08f2a;
      }

      .cls-228 {
        fill: #c7b7c5;
      }

      .cls-229 {
        fill: #a4b6a5;
      }

      .cls-230 {
        fill: #e5c0c1;
      }

      .cls-231 {
        fill: #ffd547;
      }

      .cls-232 {
        fill: #929a9c;
      }

      .cls-233 {
        fill: #4c7178;
      }

      .cls-234 {
        fill: #f7a033;
      }

      .cls-235 {
        fill: #ffd442;
      }

      .cls-236 {
        fill: #94839f;
      }

      .cls-237 {
        fill: #cec93c;
      }

      .cls-238 {
        fill: #d84316;
      }
    </style>
    <linearGradient id="Unbenannter_Verlauf_287" data-name="Unbenannter Verlauf 287" x1="-1756.91" y1="-580.71" x2="-1824.04" y2="-499.01" gradientTransform="translate(1999.48 844.4) rotate(2.34) scale(.97 .99)" gradientUnits="userSpaceOnUse">
      <stop offset="0" stop-color="#6b5483"/>
      <stop offset="1" stop-color="#c2abbc"/>
    </linearGradient>
    <linearGradient id="Unbenannter_Verlauf_288" data-name="Unbenannter Verlauf 288" x1="-1939.79" y1="-526.47" x2="-1859.92" y2="-494.03" gradientTransform="translate(1999.48 844.4) rotate(2.34) scale(.97 .99)" gradientUnits="userSpaceOnUse">
      <stop offset="0" stop-color="#e9b5bc"/>
      <stop offset="1" stop-color="#e7cbcc"/>
    </linearGradient>
    <linearGradient id="Unbenannter_Verlauf_16" data-name="Unbenannter Verlauf 16" x1="-1869.83" y1="-669.58" x2="-1767.49" y2="-634.56" gradientTransform="translate(1999.48 844.4) rotate(2.34) scale(.97 .99)" gradientUnits="userSpaceOnUse">
      <stop offset="0" stop-color="#2c3434"/>
      <stop offset="1" stop-color="#9da5a7"/>
    </linearGradient>
    <linearGradient id="Unbenannter_Verlauf_6" data-name="Unbenannter Verlauf 6" x1="-1869.47" y1="-678.34" x2="-1786.61" y2="-646.19" gradientTransform="translate(1999.48 844.4) rotate(2.34) scale(.97 .99)" gradientUnits="userSpaceOnUse">
      <stop offset="0" stop-color="#2c3436"/>
      <stop offset="1" stop-color="#a0a8aa"/>
    </linearGradient>
    <linearGradient id="Unbenannter_Verlauf_2" data-name="Unbenannter Verlauf 2" x1="-2025.39" y1="-608.26" x2="-1994.56" y2="-598.87" gradientTransform="translate(1999.48 844.4) rotate(2.34) scale(.97 .99)" gradientUnits="userSpaceOnUse">
      <stop offset="0" stop-color="#9e9c26"/>
      <stop offset="1" stop-color="#b7703d"/>
    </linearGradient>
    <linearGradient id="Unbenannter_Verlauf_314" data-name="Unbenannter Verlauf 314" x1="-1856.42" y1="-616.01" x2="-1838.48" y2="-597.25" gradientTransform="translate(1999.48 844.4) rotate(2.34) scale(.97 .99)" gradientUnits="userSpaceOnUse">
      <stop offset="0" stop-color="#383566"/>
      <stop offset="1" stop-color="#574a7e"/>
    </linearGradient>
  </defs>
  <g id="versicherungen">
    <g>
      <g id="Generatives_Objekt" data-name="Generatives Objekt">
        <path class="cls-33" d="M.11,272.54c6.85-4,20.35-4.89,29-5.45,1.58-.1,2.86.14,4.42-.41,1.83-.64,3.93.88,5.78.03,2.07-.95,4.41.36,6.39-.09,1.7-.38,3.28-.61,5.07-.56l12.27.33c3.47.09,6.91.03,10.27.27-1.81.73-3.32.36-5.05.38l-8.23.13c-.41,0-7.01.86-7.18.9-1.06.28-7.34.54-8.68.63l-3.82.23c-3.24.2-7.31.5-9.45.71l-8.07.8c-1.77.17-9.26,1.18-10.29.56-.32-.19-.75,1-1.16.82-.31-.13-.8-.52-.99-.33-1.05,1.05-2.37.44-3.71.47.57-.01-6.57,1.35-6.57.57Z"/>
        <path class="cls-98" d="M393.44,202.64c-1.1-.07-1.7,1.18-2.14,2.29-.16.23-.72.02-.91.06l3.16-4.83c6.04-.51,10-1.24,16.83-1.46,2.15-.07,4.09.35,6.29-.04.92-.16,14.27-.9,11.43,2.03-3.44,4-23.9,1.53-31,1.34-.69-.02-1.79,1.18-2.57.17-.45.18-1.28-.26-1.1.44Z"/>
        <path class="cls-119" d="M116.43,267.4c.94-.17,1.92.04,2.86.04.5,0,1.47-.22,1.46.53-1.38-.14-3.41-.35-4.68.36-3.3,1.85-9.81-1.03-13.13-.52-.49.08-1.02-.12-.91-.59,3.7,0,7.51.84,11.04-.04,1.08-.27,2.28.42,3.36.22Z"/>
        <path class="cls-33" d="M113.07,267.18c-3.53.88-7.33.04-11.04.04-2.62,0-5.32-.04-8.17-.64l19.21.6Z"/>
        <path class="cls-119" d="M147.13,268.58c.19.33-.14.45-.53.46-4.39.08-8.61-.68-12.73-.27-1.09.11-2.13.21-3.13.18-.16-.14.39-.9.69-.89l15.71.53Z"/>
        <path class="cls-33" d="M83.87,266.7c-2.83.32-5.64.18-8.72-.34,2.83-.32,5.64-.18,8.72.34Z"/>
        <path class="cls-33" d="M119.3,267.44c-.95,0-1.92-.21-2.86-.04l.05-1.62c.46.2.78.93,1.33,1.07.74.19,1.56-.21,1.48.59Z"/>
        <path class="cls-33" d="M.11,272.54c-.1.11-.12.14-.11.12s.07-.07.11-.12Z"/>
        <g>
          <path class="cls-185" d="M109.4,237.62c.64,1.59,2.3.93,3.48,1.22,2.97.74,6.05.51,9.09.41,2.44-.08,4.76-.34,7.14-.82,1.55-.32,3.59-.19,4.86-1.18.93-.14,2.55-.06,3.71-.46.07.95.36,1.84.64,3.37-.66.55-5.22,0-4.11,1.49-10.59,2.56-25.85,2.55-34.71-4.45.2-.76.89-1.6.9-2.4.46.39,9.75,5.02,8.99,2.82Z"/>
          <g>
            <path class="cls-86" d="M158.55,233.19c-.32.67-.61,1.62-.59,2.41-.33-.19-.89.16-1.41.42l-9.29,4.74c-.55.28-1.66-.17-1.89.77-.4-.16-.77.18-1.14.19-1.06,0-1.98.88-2.87,1.17-1.43.46-2.96.64-4.33,1.37-.71.38-1.98-.17-2.43.84-.33-.32-.67.11-1.02.08-.79-.07-1.61.12-2.29.38l-1.04.39c-1.27.47-2.76.36-4.38.7.14,3.18.17,8.54-.33,10.64-.13.53-1.04.95-.6,1.9-3.25.3-6.42.07-9.61-.4.37-1.59,2.23-1.7,4.16-1.06l.75-11.2c-1.78-.5-3.32-.19-4.88-.51-.89-.18-1.69-.66-2.83-.43l-.64,10.72c-.74,0-7.5-1.05-6.49-1.88,1.75.63.5-4.67,1.47-6.31.66-1.12,1.44-2.04.93-3.59-.29-.87-1.89-1.18-2.88-1.61-2.25-.98-3.86-2.63-5.96-3.28.04-.81.37-1.64.57-2.42,8.85,6.99,24.11,7.01,34.71,4.45,6.4-1.55,18.67-5.74,24.12-10.31-.15.6.35,1.2.21,1.85Z"/>
            <path class="cls-234" d="M105.39,254.4c-2.74-.93-3.78-2.64-5.13-2.75l-.93-2.5c-1.12-3-.53-6.46-.38-9.54,2.1.65,3.7,2.3,5.96,3.28.99.43,2.59.74,2.88,1.61.52,1.54-.27,2.47-.93,3.59-.97,1.64.28,6.94-1.47,6.31Z"/>
            <path class="cls-176" d="M115.32,258.77c-2.97-.44-6.2-.5-9-2.32l-5.46-3.53c-.21-.41-.44-.84-.6-1.26,1.35.11,2.39,1.82,5.13,2.75-1.01.83,5.75,1.88,6.49,1.88.92,0,2.89.53,3.25-1.14.18-.81.89-8.62.22-9.15,1.56.32,3.1.01,4.88.51l-.75,11.2c-1.92-.64-3.79-.53-4.16,1.06Z"/>
            <path class="cls-32" d="M157.96,235.6c.07,2.59.2,6.01-.56,8.53-2.92,4.07-7.22,6.19-11.29,8.75-7.11,4.49-14.46,4.7-15.13,5.31-.85.76-2.6-.24-3.21,1.05-.92-.07-1.9-.17-2.83-.08-.44-.95.47-1.36.6-1.9,1.1,0,2.34.34,3.59-.23l.71-7.89c.1-1.14.5-2.17.41-3.21l1.04-.39-.96,10.79c.99.33,1.59.05,2.15-.32s.79-1.03.82-1.94l.28-8.91c.35.03.68-.39,1.02-.08l-.51,10.52c.61.5,1.61-.06,2.02-.38.54-.44.36-1.28.4-2.01l.52-8.96c1.37-.73,2.9-.91,4.33-1.37,1.06-1.04-.08,8.82.28,10.02.36.58,2.14-.08,2.2-.8.3-3.73.43-7.04.39-10.39.37,0,.74-.34,1.14-.19.15,3.13-.92,6.41-.34,9.91.09.57,1.86-.19,1.97-.68.22-.93.75-9.24.27-10l9.29-4.74c.52-.27,1.09-.61,1.41-.42Z"/>
            <path class="cls-202" d="M130.24,245.93c.1,1.05-.3,2.07-.41,3.21l-.71,7.89c-1.25.57-2.49.23-3.59.23.5-2.1.47-7.46.33-10.64,1.61-.33,3.11-.22,4.38-.7Z"/>
            <path class="cls-125" d="M115.35,246c.67.53-.04,8.34-.22,9.15-.36,1.67-2.33,1.14-3.25,1.14l.64-10.72c1.14-.23,1.94.25,2.83.43Z"/>
            <path class="cls-148" d="M133.57,245.17l-.28,8.91c-.03.91-.26,1.57-.82,1.94s-1.15.65-2.15.32l.96-10.79c.68-.25,1.5-.45,2.29-.38Z"/>
            <path class="cls-143" d="M137.02,244.26l-.52,8.96c-.04.73.14,1.57-.4,2.01-.4.33-1.41.89-2.02.38l.51-10.52c.45-1,1.72-.45,2.43-.84Z"/>
            <path class="cls-221" d="M141.35,242.89c.89-.29,1.8-1.16,2.87-1.17.04,3.35-.09,6.66-.39,10.39-.06.72-1.83,1.39-2.2.8-.35-1.2.78-11.06-.28-10.02Z"/>
            <path class="cls-214" d="M147.25,240.76c.48.76-.04,9.06-.27,10-.12.49-1.88,1.25-1.97.68-.58-3.5.5-6.78.34-9.91.23-.93,1.34-.49,1.89-.77Z"/>
          </g>
          <g>
            <path class="cls-23" d="M108.6,226.07l-.81,11.41,1.61.13c.76,2.2-8.53-2.43-8.99-2.82.02-3.33.6-6.7.09-9.97.29.14.36-.46.74-.38l7.36,1.63Z"/>
            <path class="cls-94" d="M158.54,228.83c-.1.63.11,1.26-.05,1.88l-.16.63c-5.44,4.57-17.71,8.76-24.12,10.31-1.1-1.5,3.45-.95,4.11-1.49-.28-1.53-.57-2.41-.64-3.37,1.26-.43,2.64-1,3.94-1.27.42-.09,7.17-2.28,6.81-2.62,1.52.7,2.72-1.13,4-1.43,2.18-.51,4.16-1.48,6.11-2.64Z"/>
            <path class="cls-120" d="M158.93,220.8c-.27,2.66.05,5.38-.39,8.03-1.95,1.15-3.93,2.12-6.11,2.64l.39-9.96c1.85-.58,3.58-1.77,5.68-1.8.19.5-.09,1.19.43,1.09Z"/>
            <path class="cls-73" d="M122.94,226.76c.31.34-.11.53-.37.73-.52,3.94-.47,7.87-.6,11.76-3.04.1-6.12.33-9.09-.41l.87-12.49c3.06.11,6.13.48,9.18.41Z"/>
            <path class="cls-112" d="M129.67,226.43l-.56,11.99c-2.38.48-4.7.75-7.14.82.13-3.89.08-7.82.6-11.76.25-.2.68-.39.37-.73,2.27-.05,4.46-.47,6.73-.33Z"/>
            <path class="cls-188" d="M113.75,226.35l-.87,12.49c-1.18-.29-2.85.37-3.48-1.22l-1.61-.13.81-11.41c1.64.36,3.47.21,5.15.28Z"/>
            <path class="cls-117" d="M134.46,225.68l-.48,11.57c-1.27,1-3.32.87-4.86,1.18l.56-11.99c1.48.1,3.13-1.23,4.78-.76Z"/>
            <path class="cls-138" d="M137.69,236.78c-1.16.4-2.78.32-3.71.46l.48-11.57c1.19.34,2.57-1.06,3.79-.6-.72,3.83-.83,7.8-.55,11.7Z"/>
            <path class="cls-136" d="M141.63,235.51c-1.3.27-2.67.84-3.94,1.27-.28-3.9-.17-7.87.55-11.7.3.11.3-.04.54-.1l3.42-.74-.58,11.27Z"/>
            <path class="cls-89" d="M148.83,222.91l-.4,9.99c.36.33-6.39,2.53-6.81,2.62l.58-11.27c2.21-.48,4.44-1.97,6.63-1.33Z"/>
            <path class="cls-238" d="M152.82,221.51l-.39,9.96c-1.28.3-2.48,2.14-4,1.43l.4-9.99c1.03-1.31,2.68-.99,3.99-1.4Z"/>
          </g>
          <g>
            <path class="cls-53" d="M120.59,214.64c-.31,3.46-.71,6.95-.67,10.43-6.29,1.3-12.68-.78-19.03-1.83-.18-2.3-.12-4.62-.15-6.92-.02-1.65,1.06-3.48,1.64-4.87,2.19.16,4.27,1.17,6.55,1.5l11.67,1.69Z"/>
            <path class="cls-64" d="M137.81,224.37c.23-.02.48-.07.74.03.29.11.47.27.25.59-.24.06-.25.21-.54.1-1.22-.47-2.6.94-3.79.6-1.65-.47-3.31.85-4.78.76-2.28-.15-4.46.27-6.73.33-3.05.07-6.13-.29-9.18-.41-1.68-.06-3.51.09-5.15-.28l-7.36-1.63c-.38-.08-.45.52-.74.38-.1-.63.33-.99.39-1.57,6.36,1.05,12.74,3.13,19.03,1.83,2.25.78,5.46.74,7.8-.05.96.56,2.39.11,3.43,0l6.66-.67Z"/>
            <path class="cls-57" d="M159.12,218.76c-.01.69-.12,1.37-.19,2.04-.51.1-.24-.59-.43-1.09-2.1.03-3.83,1.21-5.68,1.8-1.31.41-2.96.1-3.99,1.4-2.19-.64-4.42.85-6.63,1.33l-3.42.74c.22-.33.05-.48-.25-.59-.26-.1-.5-.05-.74-.03.85-.79,2.32-.53,3.39-.88l3.97-1.31c2.9-.95,5.93-1.4,8.72-2.51,1.77-.7,3.92-.85,5.36-2.42-.08.5-.11.99-.12,1.5Z"/>
            <path class="cls-135" d="M114.22,202.12c-.09.42-.19.83-.22,1.26-1.95-1-1.56,4.28-2.1,6.93-.22,1.08.74.92.96,1.26,1.13,1.79,3.5.96,5.16,1.21,3.28.51,6.56.19,9.79.15,3.24-.04,6.61.21,9.91-.11l6.32-.62,5.65-.8c3.15-.45,6.29-1.26,9.24-2.49,0,.35-.09.5.01.92-1.84.84-3.81,1.43-5.77,1.92-2.57.65-5.14,1.3-7.77,1.5-1.1.08-2.39.16-3.45.43-3.23.81-6.65,1-10.01,1.03-1.09,0-2.68.35-3.75.3l-7.61-.37-11.67-1.69c-2.28-.33-4.36-1.34-6.55-1.5,1.49-3.55.19-7.67.91-11.43.03-.16.15-.38.07-.55.92-.33,1.7.54,2.77.78l8.1,1.86Z"/>
            <path class="cls-158" d="M128.2,215.01c-.43,3.32-.58,6.69-.48,10.02-2.33.79-5.55.83-7.8.05-.04-3.48.36-6.97.67-10.43l7.61.37Z"/>
            <path class="cls-12" d="M141.19,223.49c-1.06.35-2.54.09-3.39.88l-6.66.67c.73-3.39.77-6.87.8-10.33,3.36-.02,6.77-.22,10.01-1.03-.77,3.1-.04,7.66-.76,9.81Z"/>
            <path class="cls-183" d="M131.95,214.71c-.03,3.46-.07,6.94-.8,10.33-1.05.1-2.47.55-3.43,0-.1-3.33.05-6.7.48-10.02,1.07.05,2.66-.29,3.75-.3Z"/>
            <path class="cls-1" d="M159.26,216.83c.04.12,0,.3-.02.43-1.44,1.57-3.58,1.72-5.36,2.42-.2-.27-.53.08-1.11-.13l.4-7.79c1.96-.49,3.94-1.08,5.77-1.92.54,2.31-.37,4.69.31,7Z"/>
            <path class="cls-105" d="M153.88,219.68c-2.79,1.11-5.83,1.55-8.72,2.51l.24-8.93c2.63-.2,5.2-.86,7.77-1.5l-.4,7.79c.58.22.91-.14,1.11.13Z"/>
            <path class="cls-56" d="M145.41,213.25l-.24,8.93-3.97,1.31c.73-2.15,0-6.71.76-9.81,1.06-.26,2.35-.34,3.45-.43Z"/>
          </g>
          <g>
            <path class="cls-18" d="M128.28,184.96c5.31.09,10.63,1.1,15.88,1.79,1.83.24,3.87,1.62,5.75,2.19,3.37,1.01,5.98,3.39,8.25,5.86.67,2.1.06,4.39-2.18,5.51s-4.54,1.87-6.77,2.32c-1.43.29-2.93.73-4.38.85l-6.15.52c-.84.07-1.98.2-2.8.18.2-.52.3-1.2.08-1.73,1.58-.1,3.51-.1,5.06-.41,2.84-.69,11.26-2.26,11.09-6.74-.04-.99-.96-2.18-2.16-2.8-6.36-3.3-13.54-4.1-20.79-4-5.48.08-10.51,1.45-15.37,3.4,1.13-4.59,2.42-1.66,1.99-3.73,3.87-1.54,8.27-3.3,12.48-3.23Z"/>
            <path class="cls-71" d="M113.82,191.91c-1.75.7-3.82,2.95-4.9,4.44-.48.67,1.46,1.32,1.79,1.08,7.54,4.22,16.69,5.6,25.27,5.03.21.53.12,1.21-.08,1.73l-6.81-.15-10.56-1.22c-1.35-.16-2.96-.4-4.3-.71l-8.1-1.86c-1.07-.25-1.85-1.12-2.77-.78-.91-1.86.88-4.5,2.66-5.76,3.04-2.15,6.33-4.15,9.79-5.53.43,2.07-.86-.87-1.99,3.73Z"/>
            <path class="cls-26" d="M159.14,195.17c-.45,2.07.18,3.58.29,5.68.14,2.64-.45,5.42-.5,8.06-2.95,1.23-6.09,2.04-9.24,2.49-.71-2.82-.2-5.84-.47-8.76,2.23-.45,4.55-1.21,6.77-2.32s2.85-3.41,2.18-5.51c.32.05.72.12.97.37Z"/>
            <path class="cls-224" d="M129.08,204.04c-1.48,1.69-.25,7.69-1.28,8.89-3.23.04-6.5.35-9.79-.15,1.16-.79.59-8.24.51-9.96l10.56,1.22Z"/>
            <path class="cls-177" d="M138.69,204.01l-.97,8.81c-3.31.32-6.67.08-9.91.11,1.03-1.2-.21-7.2,1.28-8.89l6.81.15c.83.02,1.96-.11,2.8-.18Z"/>
            <path class="cls-49" d="M144.04,212.2l-6.32.62.97-8.81,6.15-.52c-.03,2.92.26,5.98-.8,8.71Z"/>
            <path class="cls-74" d="M118.52,202.82c.09,1.72.65,9.16-.51,9.96-1.65-.26-4.03.57-5.16-1.21.38.29.74-.18.76-.57l.38-7.62c.02-.43.13-.84.22-1.26,1.34.31,2.95.55,4.3.71Z"/>
            <path class="cls-72" d="M149.7,211.4l-5.65.8c1.06-2.73.77-5.79.8-8.71,1.45-.12,2.95-.57,4.38-.85.27,2.92-.24,5.94.47,8.76Z"/>
            <path class="cls-169" d="M114.01,203.38l-.38,7.62c-.02.39-.38.86-.76.57-.22-.34-1.18-.18-.96-1.26.54-2.65.15-7.93,2.1-6.93Z"/>
            <path class="cls-181" d="M141.04,202.06c-1.55.31-3.48.31-5.06.41-8.58.57-17.73-.81-25.27-5.03,6.87-9.99,24.29-8.15,34.63-4.63.96.33,3.02,1.25,3.02,2.18-.46,4.18-4.48,5.12-7.32,7.07Z"/>
            <path class="cls-107" d="M141.04,202.06c2.84-1.95,6.86-2.89,7.32-7.07,0-.93-2.06-1.85-3.02-2.18-10.33-3.52-27.76-5.36-34.63,4.63-.33.23-2.27-.42-1.79-1.08,1.08-1.5,3.15-3.74,4.9-4.44,4.86-1.95,9.89-3.32,15.37-3.4,7.25-.1,14.43.7,20.79,4,1.2.62,2.12,1.82,2.16,2.8.17,4.48-8.25,6.04-11.09,6.74Z"/>
          </g>
        </g>
        <g>
          <path class="cls-179" d="M241.02,209.75c2.34,2.3,5.31,3.54,8.45,4.19,3.63.76,7.33,1.28,11.02,1.16-.17.82.5-.03,1.12.2.16,5.23,2.72,2.23,2.03,5.27-4.13,3.92-9.12,6.93-14.65,8.83-.4.14-.59.51-.51.78.07.24.15.53.35.79-.88,2.34-.18,5.38,1.18,7.63.21-.04-.84.1-.77.38,4.86,19.86,18.62,33.41,35.51,42.9,1.97,1.11,3.93,2.69,6.1,3.23,7.63-2.25,13.99-6.46,20.62-9.75,14.67-7.28,27.67-17.86,39.69-29.86,3.33-3.32,5.96-6.39,9.41-9.23-.16-.43-.16-.62-.11-.7,3.86-4.07,8.82-7.09,12.91-10.93,1.5-1.41,3.64-2.52,4.93-4.13-1.96,9.37-6.31,17.88-10.52,26.36-.35.7-.96,1.31-1.2,2.07-23.57,24.92-49.76,43.04-83.02,50.31-5.13,1.12-10.47,1.02-16.04,1.77.93-4.03.65-7.4-.14-11.08-.86-3.98-3.01-7.15-4.64-10.5-3.24-6.65-7.43-12.66-11.58-19.12-6.63-10.32-13.74-19.86-22.38-28.73-6.48,3.57-12.94,5.39-19.98,6.27-.56.07-1.2.07-1.38-.33-.08-.18-.02-.36-.04-.65,6.39-1.48,12.77-4.81,15.76-10.94,1.95-2.08,3.22-4.94,4.11-7.69.37-1.13,1.19-2.17,2.04-2.91,2.44.79,10.71-6.55,11.72-5.56Z"/>
          <path class="cls-178" d="M246.47,266.25l-38.99,1.82c-17.34.81-34.22,2.66-51.07,1.28l-9.29-.77-15.71-.53c-.3-.01-.85.75-.69.89-2.68-.08-7.03-.67-9.97-.97,0-.75-.96-.53-1.46-.53.08-.8-.74-.4-1.48-.59-.55-.14-.87-.87-1.33-1.07-6.25-2.73-12.43-6.57-15.62-12.86l5.46,3.53c2.8,1.81,6.03,1.88,9,2.32,3.19.47,6.36.7,9.61.4.92-.09,1.91,0,2.83.08,2.79,1.28,14.41-1.4,17.52-2.58,7.31-2.77,13.66-7.72,18.98-13.66,1.46-1.63,1.75-3.75.86-5.49-1.34-2.62-3.96-4.02-6.58-4.33.14-.65-.36-1.25-.21-1.85l.16-.63c.86-.13,1.61.47,2.52.98,1.7.96,3.59.81,5.35,1.35l37.79,11.73c14.7,4.56,28.02,10.84,40.44,19.93.9.66,1.13,1.32,1.88,1.54Z"/>
          <path class="cls-156" d="M283.56,299.23c33.26-7.27,59.45-25.39,83.02-50.31-2.29,7.21-5.82,13.9-10.32,20.37-10.15,14.59-27.94,35-43.89,42.16-5.72,2.57-11.37,2.03-16.43-1.29-2.87-1.88-11.32-8.19-12.39-10.93Z"/>
          <path class="cls-119" d="M179.24,232.2c.7,3.26,10.98,4.3,13.37,4.47,2.9.2,6.05,1.59,8.99.46,1.85.15,3.94.15,5.79-.28.02.28-.04.46.04.65.18.4.82.4,1.38.33,7.03-.88,13.5-2.7,19.98-6.27,8.64,8.87,15.75,18.41,22.38,28.73,4.15,6.47,8.34,12.47,11.58,19.12-.53.06-.99-.12-1.49-.31-.3-.42-.91-1.89-1.66-1.86-1.94.07-.96,2-.67,2.98.76,2.6-.3,5.62-2.2,7.72-1.36-2.56-.68-4.98-1.11-7.13-.64-3.22-2.14-5.88-3.41-8.73-.18-.39-4.58-5.51-5.73-5.84-.74-.22-.98-.88-1.88-1.54-12.42-9.09-25.74-15.37-40.44-19.93l-37.79-11.73c-1.75-.54-3.65-.39-5.35-1.35-.91-.51-1.66-1.11-2.52-.98.16-.62-.06-1.25.05-1.88.44-2.65.11-5.38.39-8.03.07-.66.18-1.35.19-2.04.56-.27.92-.7,1.48-.24.48.39,5.09,8.43,10.3,11.52,2.6,1.54,5.62,2.01,8.33,2.17Z"/>
          <path class="cls-128" d="M223.51,64.54c.27-.18.59.1,1.07.52,8-6.27,15.53-13.63,22.41-21.29,1.43-1.59.43-2.45-.04-3.73-1.69-4.56-5.52-7.72-8.12-11.79.47-.57,1.57-.4,2.24-1.06,7.17-7.13,15.65-16.81,20.36-25.47.36.13.91-.02,1.38.28l14.6,9.27c-5.35,4.77-10.9,8.2-16.76,11.84-1.72,1.07-3.93,2.31-4.53,4.37-.68,2.35.81,4.69,2.06,6.53l6.03,8.89c-2.6,2.5-5.46,4.14-8.43,6.11-11.87,7.84-23.83,15.13-36.99,21.32.82-2.75,3.35-3.96,4.73-5.78Z"/>
          <path class="cls-97" d="M106.02,14.34c.83,1.04,1.74,2.48,1.78,4.01.08,3.17,1.32,6.27,2.27,9.52,1.71,5.87,10.07,3.49,15.36,2.58,1.24-.21,2.35-.58,2.55-1.72l13.86,44.33c-4.1-2.98-5.8-7.51-8.6-10.87-.03-.72.43-.35,1.02.15.74-1.12.24-2.05-.39-2.99l-12.48-18.61c-1.6.35-2.61,1.42-3.63,1.81l-15.96,5.47c-2.76-4.06-4.41-8.94-7.12-13.4-3.23-5.32-3.58-6.81-6.16-11.7l4.89-3.14c4.02-2.58,8.14-4.66,12.61-5.46Z"/>
          <path class="cls-210" d="M103.28,200.02c-.72,3.76.59,7.88-.91,11.43-.59,1.39-1.67,3.22-1.64,4.87-1.03.05-2.07.11-3.44.03-21.28-1.32-42.28-1.93-63.59-1.74-2.59.02-4.73.02-7.31-.41.06-2.82,7.29-3.75,9.2-5.4.54.44,1.4.3,2.1-.03.18-.06.51,0,.7,0,.15,0,.32-.18.27-.43.2.14.28.05.48.01,3.63-.67,7.2-1.91,11.03-2.29l19.9-1.99c1.61-.16,2.9.42,4.64-.04,2.29-.61,7.06.57,9.27-.26.36-.13,1.36.4,1.32-.44-.01-.27-.64-.33-.76-.47.33.36.55-7.31,1.11-7.42,5.93,1.18,11.95,2.44,17.62,4.58Z"/>
          <path class="cls-230" d="M325.9,163.41c-.2.17-.22.34-.02.53-.72.72-1.63,1.36-1.92,2.4-.38-.15-.5.21-.62.48-.5,1.1-1.81,1.62-2.49,2.39-2.01-.48-4.23-1.36-6.7-1.07-12.26,1.42-24.19,3.48-36.03,5.84-.32.06-.88.64-1.21.41-.27-.19-.76-.47-.45-.88,2.67-.73,5.45-1.21,8.35-1.72l6.79-1.19c1.17-.21,2.59-.63,2.49-2.03l-13.92-.69c.08-.58.07-1.14.06-1.72,12.72-.61,24.89-5.63,36.1-12.03.9.2,1.8-.21,3-.12.75,4.38,4.73,5.04,6.57,9.4Z"/>
          <path class="cls-121" d="M393.44,202.64c-.62,8.35-7.2,21.52-12.27,28.85-2.61,3.77-10.22,13.37-13.39,15.36,4.21-8.49,8.56-16.99,10.52-26.36,2-2.87,4.26-5.53,6.48-8.22,1.94-2.35,4.06-4.59,5.61-7.29.19-.04.75.18.91-.06.44-1.1,1.04-2.36,2.14-2.29Z"/>
          <path class="cls-50" d="M106.02,14.34c-4.47.8-8.59,2.88-12.61,5.46l-4.89,3.14c-.38.24-.89.3-1.15.82-.41.85,3.2,7.72,4,9.18l3.27,5.93c.38.7-.73,1.37-1.09,1.7-3.38-4.88-6.68-9.75-9.82-15.45,4.45-3.63,8.86-7.16,13.89-9.78,1.58-.83,3.46-1.15,5.04-1.7s2.58-.29,3.36.7Z"/>
          <path class="cls-203" d="M261.42,1.73c-4.71,8.66-13.19,18.34-20.36,25.47-.67.66-1.76.49-2.24,1.06-.37-.58-1.26-1.14-.19-2.29l12.67-13.76c3.13-3.4,6.02-6.66,8.75-10.51.33-.46.72-.56.94-.53.33.05.18.46.44.56Z"/>
          <path class="cls-6" d="M56.74,190.03c.31.71.45,1.47.34,2.25-.15-.05-10.09.36-10.47.38l-4.87.27c-4.43.25-8.66,1.84-13.07,1.62l-6.69-.33c.16-2.87,10.01-3.25,12.13-3.33,2.66-.1,5.51-1.23,8.08-.47,1.39.41,2.33-.53,3.4-.44,3.95.33,7.5.65,11.14.05Z"/>
          <path class="cls-111" d="M223.51,64.54c1.99-2.62,4.38-4.86,6.88-7.28,4.48-4.35,8.88-8.54,13.18-13.16,1.27-1.37,2.73-2.46,3.37-4.05.47,1.28,1.47,2.14.04,3.73-6.89,7.66-14.41,15.02-22.41,21.29-.47-.42-.79-.7-1.07-.52Z"/>
          <path class="cls-87" d="M133.23,62.2c-4.16-4.99-7.81-10.43-11.67-15.95-1.07-1.53-2.34-2.96-3.81-3.69,1.02-.38,2.03-1.46,3.63-1.81l12.48,18.61c.63.93,1.13,1.87.39,2.99-.59-.5-1.05-.87-1.02-.15Z"/>
          <path class="cls-149" d="M101.8,48.03c-.57.19-1.41,1.09-2.33.83-2.42-2.59-4.05-5.59-5.92-8.29.36-.33,1.47-1,1.09-1.7l-3.27-5.93c-.8-1.45-4.41-8.33-4-9.18.26-.53.77-.58,1.15-.82,2.58,4.89,2.92,6.38,6.16,11.7,2.71,4.45,4.36,9.33,7.12,13.4Z"/>
          <path class="cls-93" d="M77.44,189.45c1.94.9-.13,1.83.1,4.4-.51-.28-1.2.04-1.68.11-5.25-2.15-8.55-1.26-13.67-1.84-1.61-.18-3.38.67-5.11.15.11-.78-.03-1.54-.34-2.25,2.86-.47,6.37-.33,10.17-.4l10.53-.18Z"/>
          <path class="cls-207" d="M118.77,29.22c.85.43,1.47-.12,1.97-.38,1.99.08,4.14-.27,5.87-1.22.39,0,.74-.15,1.05.05.39.25.21.75.31,1.07-.2,1.14-1.31,1.51-2.55,1.72-5.28.91-13.65,3.29-15.36-2.58-.95-3.25-2.19-6.35-2.27-9.52,1.08-.34,1.59,4.16,3.13,7.48.75,1.61,2.49,4.07,4.17,3.37,1.37-.57,2.4-.62,3.67.02Z"/>
          <path class="cls-191" d="M85.57,188.3c-1.57,2.29.36,2.34-.76,6.84-1.76-.04-3.45-1-5.22-.57-.42-.84-1.41-.35-2.06-.71-.23-2.58,1.84-3.51-.1-4.4.2-.15.2-.32.04-.5,2.61-.62,5.39-.44,8.09-.65Z"/>
          <path class="cls-39" d="M83.99,203.77c-2.21.83-6.98-.35-9.27.26-1.73.46-3.03-.12-4.64.04l-19.9,1.99c-3.83.38-7.4,1.62-11.03,2.29-.94-.6,8.63-2.85,9.04-2.92l10.91-1.77,3.85-.35c5.35-.49,15.5.14,21.03.46Z"/>
          <path class="cls-39" d="M84.81,195.14c.33,0,.56.25.85.31-.56.1-.78,7.78-1.11,7.42.12.13.75.2.76.47.04.84-.97.3-1.32.44,1.39-.91-5.27-4.79-4.06-4.25.66.81-.61-4.23-.86-3.91.05-.32,1.01-.76.53-1.04,1.77-.43,3.46.53,5.22.57Z"/>
          <path class="cls-119" d="M77.54,193.86c.64.36,1.64-.13,2.06.71.48.28-.48.72-.53,1.04.26-.32,1.52,4.72.86,3.91-1.38-.62-3.25-1.34-3.57-2.97l-.5-2.57c.49-.07,1.17-.4,1.68-.11Z"/>
          <path class="cls-119" d="M261.26,279.11c-.99-.38-1.44.88-2.34,1.12-.29-.98-1.27-2.91.67-2.98.76-.03,1.37,1.44,1.66,1.86Z"/>
          <path class="cls-119" d="M126.62,27.62c-1.73.96-3.88,1.31-5.87,1.22,1.75-.89,3.91-1.2,5.87-1.22Z"/>
          <path class="cls-119" d="M120.75,28.84c-.51.26-1.12.81-1.97.38.25-.79,1.34-.41,1.97-.38Z"/>
          <path class="cls-39" d="M38.68,208.34c.05.25-.13.42-.27.43-.19,0-.53-.05-.7,0-.06-.26.08-.5.27-.53.24-.03.54-.03.71.09Z"/>
          <path class="cls-96" d="M203.73,152.46c-2.08,7.19-4.97,14.17-8.19,20.9l-5.65-.05c-.32,0-.41.8-.22.9-8.02.35-16.02,1.34-23.56,4.09-.05-.21-.04-.42.02-.62,1.15-.66,2.17-2.18,3.32-2.74,4.42-2.17,7.08-6.22,10.52-9.03,6.27-5.13,11.4-11.67,16.16-18.29,5.01-6.96,9.29-14.5,12.39-22.55-.78,2.85-.49,5.89-.97,9.05-.95,6.31-2.1,12.48-3.8,18.35Z"/>
          <path class="cls-92" d="M289.34,273.99c1.03.6,2.02,1.88,3.35,2.09.14,2.33,4.93-.81,4.74-1.11,4.03-1.33,8.3-2.97,12.17-4.95-.61,2.08,2.02,1.74,1.86,5.33-6.63,3.29-12.99,7.5-20.62,9.75-2.17-.54-4.13-2.12-6.1-3.23-16.9-9.49-30.65-23.04-35.51-42.9-.07-.28.98-.42.77-.38,7.6,12.51,26.94,28.15,39.34,35.38Z"/>
          <path class="cls-208" d="M311.47,275.35c.15-3.59-2.47-3.25-1.86-5.33,11.63-5.95,41.94-25.08,49.79-33.34l1.07-1.12c-.06.08-.05.27.11.7-3.44,2.84-6.07,5.91-9.41,9.23-12.03,12-25.02,22.58-39.69,29.86Z"/>
          <path class="cls-233" d="M239.91,202.73c-.16,1.65,1.04,3.14,2.23,4.05.06,1.17-1.42,1.72-1.12,2.97-1.01-.99-9.28,6.35-11.72,5.56-.26-.33-.07-.79.01-1.08.59-4.78.73-9.58,1.06-14.39.08-1.1.05-2.04-.21-3.01-.27-1.02-.01-2.52.11-3.56,1.73.46,7.88,9.31,9.63,9.47Z"/>
          <path class="cls-15" d="M223.15,225.91c-2.99,6.14-9.37,9.46-15.76,10.94-1.85.43-3.94.43-5.79.28s-3.79-.63-5.67-.55c1.08-1.63.52-2.69-.59-4.13,5.89-.62,11.47-1.4,16.29-4.06,1.18,1.35,3.35,1.75,4.63.17,1.11-1.38,5.61-3.04,6.9-2.65Z"/>
          <path class="cls-222" d="M274.95,212.21c-.22,2.18,1.69-.13,2.86,1.16-3.05,1.22-5.75,3.74-9.09,4.48.45-.63.82-2.58.1-3.02l-8.34.27c-3.68.12-7.39-.4-11.02-1.16.46-2.32-1.58-1.17-.29-3.37,7.92,3.63,17.05,2.65,25.77,1.64Z"/>
          <path class="cls-122" d="M223.15,225.91c-1.29-.38-5.79,1.28-6.9,2.65-1.28,1.58-3.45,1.18-4.63-.17l4.37-2.42c.22-.12,10.83-4.97,7.34-5.6.79-.33,1.91-1.08,2.55-1.79.51.02.94-.16,1.39-.37-.89,2.75-2.16,5.61-4.11,7.69Z"/>
          <path class="cls-35" d="M268.72,217.85c-1.55.34-3.15,2.82-5.08,2.72.69-3.04-1.87-.05-2.03-5.27-.62-.22-1.29.62-1.12-.2l8.34-.27c.71.45.35,2.39-.1,3.02Z"/>
          <path class="cls-144" d="M249.18,210.57c-1.29,2.2.74,1.05.29,3.37-3.14-.66-6.11-1.9-8.45-4.19-.3-1.25,1.18-1.8,1.12-2.97.55.42.98,1.02,1.75,1.37l5.3,2.43Z"/>
          <path class="cls-161" d="M127.76,259.25c.61-1.28,2.36-.29,3.21-1.05.67-.61,8.02-.82,15.13-5.31,4.07-2.57,8.36-4.68,11.29-8.75.77-2.52.63-5.94.56-8.53-.02-.8.27-1.74.59-2.41,2.62.3,5.24,1.71,6.58,4.33.89,1.74.6,3.86-.86,5.49-5.31,5.93-11.67,10.89-18.98,13.66-3.11,1.18-14.73,3.86-17.52,2.58Z"/>
          <path class="cls-216" d="M265.85,166.52c.42.77,1.61.44,2.38.5l-.39,6.99c-.03.51.58.71.51,1.06-3.91.75-7.77,1.69-12.05,1.95-.65.04-1.36.38-1.45.83-6.61-3.78-12.42-8.81-18.19-13.73-.8.07,2.9-5.44,3.04-5.76,8.18,4.25,17.06,7.41,26.15,8.17Z"/>
          <path class="cls-66" d="M213.42,133.84c-.36.25-.22,1.01-.09,1.56,1.15,5.03,2.11,9.9,3.46,14.67.23.8.39,1.63.67,2.41-.43.57-.92-.61-1.23-.42-.91.56-2.26,1.36-2.62,2.12-1.4-.97-3.51-1.17-4.95.44-1.37.66-1.59-2.62-4.94-2.17,1.7-5.88,2.85-12.05,3.8-18.35.48-3.16.19-6.2.97-9.05.15-.4.16-1.12.6-1.34.73.1,3.36,8.73,4.32,10.12Z"/>
          <path class="cls-21" d="M239.7,158.35c-.14.32-3.84,5.83-3.04,5.76-5.71-4.87-11.3-9.8-16.27-15.88-.94-1.16-3.5.8-3.59,1.85-1.35-4.76-2.32-9.63-3.46-14.67-.13-.55-.27-1.31.09-1.56,3.4,4.93,6.87,9.74,11.53,13.86,4.62,4.09,9.44,7.89,14.75,10.65Z"/>
          <path class="cls-51" d="M168.96,222.45c2.76,1.34,5.71,2.24,8.64,2.68,1.76.27,3.46.87,5.29.99l5.8.4c4.79.33,9.68.59,14.42-.25.61-.11,1.2,0,1.81-.18.99-.28,2.23-.1,3.01-.85.48.28,1.24-.1,1.74-.01,1.28.22,2.41-.98,3.45-1.14,3.56-.55,6.83-2.33,10.19-3.72,3.49.63-7.12,5.48-7.34,5.6l-4.37,2.42c-4.81,2.66-10.39,3.44-16.29,4.06,1.11,1.44,1.67,2.5.59,4.13,1.88-.09,3.74.39,5.67.55-2.94,1.13-6.09-.26-8.99-.46-.13-.79.04-1.19.42-2.47-1.93.91-1.99-1.31-2.72-1.35l-11.08-.64c-2.71-.16-5.73-.63-8.33-2.17-5.21-3.09-9.82-11.13-10.3-11.52-.56-.46-.93-.02-1.48.24,0-.5.04-1,.12-1.5.02-.13.05-.31.02-.43,3.23,1.89,6.34,4,9.7,5.62Z"/>
          <path class="cls-226" d="M192.61,236.67c-2.39-.17-12.67-1.2-13.37-4.47l11.08.64c.73.04.79,2.26,2.72,1.35-.38,1.28-.55,1.68-.42,2.47Z"/>
          <path class="cls-215" d="M89.87,187.95c-.07.85,1.03.52,1.79.62,2.77.38,14.74,2.09,14.35,5.14-1.78,1.26-3.58,3.9-2.66,5.76.08.17-.03.38-.07.55-5.67-2.14-11.69-3.4-17.62-4.58-.3-.06-.52-.3-.85-.31,1.12-4.5-.8-4.55.76-6.84l4.3-.34Z"/>
          <path class="cls-9" d="M124.64,183.34c-.72-.34,4.42.93,3.64,1.62-4.21-.07-8.61,1.69-12.48,3.23-3.46,1.38-6.75,3.38-9.79,5.53.39-3.05-11.58-4.76-14.35-5.14-.77-.11-1.87.23-1.79-.62,5.72-.46,11.6-1.32,16.96-3.3.74-.27,13.93-.54,16.32-.45.46.02.88-1.26,1.49-.85Z"/>
          <g>
            <path class="cls-109" d="M290.65,74.31c12.94,5.53,28.05,16.4,27.55,32.95-2.28,4.69-5.29,8.85-9.83,11.95-5.29,3.61-10.98,6.19-17,7.2-.25-.73.54-1.08,1.23-1.47,4.16-2.36,8.18-5.04,11.16-8.81,6.53-8.28,4.95-20.01-3.62-26.1-9.47-6.74-19.62-13.03-31.09-14.48l-15.19-1.92c.14-.38,0-.65.21-.88.34-.37.6-.41,1.19-.43l16.32-.39c12.03-.28,8.15.31,19.07,2.37Z"/>
            <path class="cls-127" d="M253.86,73.63l15.19,1.92c11.47,1.45,21.62,7.74,31.09,14.48,8.57,6.09,10.15,17.82,3.62,26.1-2.97,3.77-6.99,6.44-11.16,8.81-.69.39-1.48.74-1.23,1.47-1.99.33-6.89,1.17-8.77.83-.19-.03-.34.17-.31.51-.6-.13-1.49.1-1.89-.47,2.86-2.47,1.68-.65,2.17-5.92,3.29.32,6.26-1.3,9.38-2.4,1.17-.41,1.46-1.2,2.27-1.72,2.98-1.94,5.16-5.95,6.23-9.53,1.36-4.55-.18-7.82-2.53-10.33-2.27-2.43-4.83-3.56-7.89-5.01-14.68-6.96-26.7-5.84-39.13-18.26-.03-.16-.1-.61.09-.66,2.16-.61,1.27-.03,2.86.18Z"/>
            <path class="cls-43" d="M308.79,126.28c-.65.3-1.52.77-1.95,1.45-8.08,1.86-16.5,1.77-24.56.04-.03-.35.12-.55.31-.51,1.89.34,6.78-.5,8.77-.83,6.02-1.01,11.71-3.59,17-7.2,4.54-3.1,7.55-7.26,9.83-11.95-.26,8.66-4.12,13.2-9.41,19.01Z"/>
            <path class="cls-172" d="M290.65,74.31c-10.92-2.06-7.04-2.66-19.07-2.37l-16.32.39c-.59.01-.86.06-1.19.43-.21.24-.07.5-.21.88-1.59-.2-.71-.78-2.86-.18-.19.05-.12.5-.09.66-.85-.85-2.36-1.45-3.25-2.75,1.96-1.95,4.58-1.32,7.21-1.69,11.72-1.63,23.13-1,34.07,3.51.73.3,1.54.25,1.72,1.13Z"/>
            <path class="cls-137" d="M297.93,97.39c-2.79,3.28-2.26,6.82-8.59,8.97-1.16.39-1.36-1.74-1.73-2.24.81-.72,1.25-2.09,1.4-3.08l.06-.4c.46.29.53-.17.45-.54.99-4.45-.07-4.08.51-7.72,3.06,1.45,5.62,2.58,7.89,5.01Z"/>
            <path class="cls-83" d="M263.35,108.96c-.89,2.67,5.18-.42,6.06,1.42-.44.44-.99.39-.87.9-2.98-.18-6.04-.45-9.19-.03-5.67.76-10.24-3.26-16.1-5.06,3.11,2.3-8.57-5.25-5.91-3.12-.49-.4-.89-.85-.58-1.64,8.04,4.96,17.3,6.8,26.59,7.53Z"/>
            <path class="cls-147" d="M289.01,101.04c-.16,1-.59,2.36-1.4,3.08-5.24,4.66-12.16,7.56-19.06,7.15-.12-.5.42-.45.87-.9-.88-1.83-6.96,1.25-6.06-1.42,1.93.15,3.99.37,6.03.09,6.69-.93,12.84-2.89,18.06-7.36.5-.43,1.03-.93,1.57-.65Z"/>
            <path class="cls-147" d="M289.08,100.64c.04-.26.09-.78.45-.54.08.37.01.83-.45.54Z"/>
            <path class="cls-114" d="M243.25,106.19c.87.65,1.53,1.64,2.71,2.23,6.21,3.12,12.55,5.97,19.11,8.41,4.06,1.51,8.14,2.41,12.27,2.73-.84.46.09.97-.08,1.53-.53,1.7-1.27,3.52-1.08,5.34l-1.53-.32c-10.32-2.15-19.38-9.3-28.5-15.5l-4.13-2.81c-1.78-1.21-3.03-3.39-4.68-4.72-2.66-2.13,9.02,5.42,5.91,3.12Z"/>
            <path class="cls-162" d="M294.22,117.25c-1.36-.09-2.4,1.32-3.79,1.6-4.3.88-8.79,1.04-13.09.7-4.13-.33-8.2-1.22-12.27-2.73-6.56-2.43-12.91-5.28-19.11-8.41-1.18-.59-1.83-1.58-2.71-2.23,5.86,1.8,10.43,5.82,16.1,5.06,3.15-.42,6.22-.15,9.19.03,6.9.41,13.82-2.48,19.06-7.15.37.5.57,2.64,1.73,2.24,6.33-2.15,5.8-5.69,8.59-8.97,2.34,2.51,3.89,5.78,2.53,10.33-1.07,3.58-3.25,7.59-6.23,9.53Z"/>
            <path class="cls-27" d="M282.57,121.37c-.5,5.27.69,3.45-2.17,5.92-1.35.19-2.89-.59-4.21-.87-.19-1.82.55-3.63,1.08-5.34,1.77.02,3.55.12,5.31.29Z"/>
            <path class="cls-20" d="M294.22,117.25c-.81.53-1.1,1.31-2.27,1.72-3.12,1.1-6.09,2.72-9.38,2.4-1.76-.17-3.54-.27-5.31-.29.17-.56-.75-1.07.08-1.53,4.3.34,8.79.18,13.09-.7,1.39-.29,2.43-1.69,3.79-1.6Z"/>
          </g>
          <path class="cls-223" d="M320.85,169.21c-7.47,8.48-15,16.98-23.01,24.88-2.39-1.54.11-.49-2.24-4.42-3.45-5.77-21.8-6.7-28.13-6.51-2.57.08-5.12.11-7.68.4-.04-.51.37-.59.62-1.54-2.41-.6-3.77-3.17-5.55-4.19.09-.45.8-.79,1.45-.83,4.28-.26,8.15-1.2,12.05-1.95,2.69-.51,5.43-.82,8.1-1.55-.3.41.18.69.45.88.33.23.88-.35,1.21-.41,11.84-2.36,23.77-4.43,36.03-5.84,2.47-.29,4.68.59,6.7,1.07Z"/>
          <path class="cls-100" d="M280.16,167.89l13.92.69c.11,1.4-1.31,1.82-2.49,2.03l-6.79,1.19c-2.89.51-5.68.99-8.35,1.72-2.67.73-5.41,1.03-8.1,1.55.06-.34-.54-.54-.51-1.06l.39-6.99,11.93.88Z"/>
          <path class="cls-19" d="M160.43,186.53c-1.17,2.72-.67,5.81-1.29,8.64-.25-.25-.65-.32-.97-.37-2.27-2.48-4.88-4.85-8.25-5.86-1.88-.56-3.92-1.95-5.75-2.19.37-.69,1.35-.59,1.99-.95.38-.21,1.05-.07,1.43.1,3.24,1.47,9.01.62,12.12-.87.59-.28,0-1.88,1-1.58-.2.9.09,2.24-.27,3.09Z"/>
          <g>
            <g>
              <path class="cls-193" d="M207.93,78.23c2.59,3.95,4.13,8.98,5.64,13.74,6.85,21.58,5.53,23.29,19.09,40.2,9.95,12.41,25.12,19.81,40.99,19.44,5.11-.12,10.03-.18,15.45-1.32,16.95-3.56,34.99-10.49,48.3-21.36,3.32-2.71,6.95-5.11,10.3-8.42.66-.65,3.19-1.18,3.31-.21.83,6.41-10.11,16.56-14.91,20.36-6.36,5.04-12.93,9.56-19.78,13.47-11.21,6.4-23.38,11.42-36.1,12.03l-7.19.34c-2.46.12-4.96.19-7.18,0-9.09-.76-17.97-3.92-26.15-8.17-5.31-2.76-10.12-6.56-14.75-10.65-4.65-4.12-8.13-8.93-11.53-13.86-.96-1.39-3.59-10.03-4.32-10.12,4.93-18.61,5.84-26.22-4.55-42.07-4.65-7.09-10.1-10.34-14.15-18.07,4.92.95,14.84,10.55,17.53,14.65Z"/>
              <path class="cls-101" d="M337.41,128.93c-13.31,10.87-31.35,17.8-48.3,21.36-5.42,1.14-10.35,1.2-15.45,1.32l.1-2.83c16.61-.24,39.35-7.52,54.47-15.34,2.93-1.51,5.36-3.48,7.25-5.97.43.84,1.96.23,1.93,1.44Z"/>
              <path class="cls-40" d="M329.43,122.36c-.84,1.25-2.58,1.32-4.07,2.03-8.04,3.83-16.11,7.14-25.01,7.8-6,.44-11.9.82-17.71-.61-2.99-.74-6.16-1.95-8.2-3.84l-.72-.67c-.12-.11-.12-.47.11-.8.15-.22.64.59.81-.17l1.53.32c1.32.28,2.86,1.06,4.21.87.4.57,1.29.34,1.89.47,8.06,1.74,16.48,1.82,24.56-.04,1.29-.3,2.59-.05,3.82-.67.86-.43,2.35-.17,3.29-.48.32-.11.61-.09.68-.55.47.39,10.6-2.46,10.1-3.02.16.02.31-.08.48,0,.19.08.42.11.67.07.21-.03.49-.15.31-.44,1.12-.13,2.14-.42,3.25-.27Z"/>
              <path class="cls-119" d="M324.73,123.01c.5.56-9.63,3.41-10.1,3.02.17-1.88,10.04-3.03,10.1-3.02Z"/>
              <path class="cls-119" d="M310.66,127.06c-1.23.62-2.53.37-3.82.67.43-.68,1.3-1.14,1.95-1.45.33.75,1.23.48,1.87.77Z"/>
              <path class="cls-61" d="M234.42,131.7c-.38-.15-.69.05-1.04-.27-.42-.38-.73.4-.71.75-13.57-16.91-12.25-18.63-19.09-40.2-1.51-4.76-3.05-9.79-5.64-13.74.15-.43.88-.9,1.29-.74.48.19.91.81,1.27,1.44,3.86,6.73,6.25,13.63,8.19,21.34,2.96,11.73,7.92,22.65,15.74,31.44Z"/>
              <path class="cls-211" d="M234.42,131.7c6.62,7.44,15.42,12.62,25.03,15,4.81,1.19,9.65,2.16,14.31,2.09l-.1,2.83c-15.87.38-31.03-7.03-40.99-19.44-.02-.35.29-1.13.71-.75.35.32.66.12,1.04.27Z"/>
              <path class="cls-220" d="M280.22,166.17c.01.58.02,1.14-.06,1.72l-11.93-.88c-.76-.06-1.96.27-2.38-.5,2.22.19,4.72.11,7.18,0l7.19-.34Z"/>
              <g>
                <path class="cls-29" d="M236.76,101.43c-.31.79.09,1.25.58,1.64,1.65,1.34,2.9,3.52,4.68,4.72l4.13,2.81c9.12,6.2,18.18,13.35,28.5,15.5-.17.76-.66-.05-.81.17-.23.33-.23.69-.11.8l.72.67c2.04,1.89,5.21,3.11,8.2,3.84,5.81,1.43,11.71,1.05,17.71.61,8.9-.66,16.98-3.96,25.01-7.8,1.49-.71,3.23-.78,4.07-2.03,1.32.17,2.97-.54,4.31.45,1.48,1.1,1.68,3.06,1.73,4.67-1.9,2.49-4.32,4.45-7.25,5.97-15.12,7.82-37.85,15.1-54.47,15.34-4.66.07-9.49-.9-14.31-2.09-9.61-2.38-18.41-7.56-25.03-15-7.82-8.79-12.79-19.7-15.74-31.44-1.94-7.71-4.33-14.61-8.19-21.34-.36-.62-.78-1.25-1.27-1.44-.41-.16-1.13.31-1.29.74-2.69-4.1-12.61-13.7-17.53-14.65-1.1-.67-5.45-5.24-5.61-6.59,6.5.39,16.56,6.73,21.96,11.51,8.97,7.95,16.74,16.82,23.56,26.63,1.9,2.73,3.87,4.71,6.44,6.29Z"/>
                <g>
                  <path class="cls-229" d="M272.13,145.55c-3.17-.53-4.55-4.01-4.38-6.7.18-2.78,2.23-5.6,5.13-5.9,4.11-.42,6.92,2.61,6.93,6.4.02,3.88-3.23,6.94-7.69,6.2Z"/>
                  <path class="cls-217" d="M255.58,140.93c-3.15-.14-5.11-2.66-5.25-5.32-.14-2.74,1.73-5.33,4.51-5.95,3.44-.76,6.5,1.53,6.88,4.91.37,3.34-2.22,6.53-6.15,6.35Z"/>
                  <path class="cls-232" d="M246.05,125.62c-.97,2.3-2.87,3.4-4.85,3.41-2.23.01-3.89-1.67-4.76-3.91-1.06-2.73-.12-5.51,2.12-6.86,2.36-1.42,5.11-.6,6.78,1.77,1.15,1.62,1.58,3.5.7,5.6Z"/>
                  <path class="cls-198" d="M304.74,136.76c1.21.29,1.37,1.54,1.23,2.18-.44,1.95-3.38,2.29-4.13,1.37-.68-.85-1.49-1.83-.72-2.79s2.2-1.09,3.62-.75Z"/>
                  <path class="cls-34" d="M322.18,134.31c-.62,1.18-1.67,1.58-2.43,1.47-.9-.13-1.87-.88-1.76-2.06.14-1.43,1.27-2.33,2.29-2.18,1.25.18,2.71,1.24,1.9,2.77Z"/>
                  <path class="cls-69" d="M311.81,138c-1.44.18-2.3-.65-2.36-1.87-.04-.78.67-1.75,1.83-2,1.27-.27,2.14.42,2.56,1.39.49,1.14-.37,2.28-2.03,2.48Z"/>
                </g>
              </g>
            </g>
            <g>
              <path class="cls-195" d="M153.14,117.35c-7.72,11.65-18.07,21.35-29.99,28.23-4.78,2.76-10.07,4.48-15.36,6.36-1.81.65-3.48,1.69-4.49,3.33-1.32,2.15-.82,4.48.92,6.06,2.08,1.88,4.54,2.24,6.84,3.07,11.48,4.16,24.42,6.42,35.88,1.48,4.1-1.77,8.69-3.35,12.3-6.36,1.09.57,1.65,1.82,2.16,2.91-5.11,3.93-11.14,6.88-17.55,8.08-9.6,1.8-19.36.79-29.07-1.76-.62,2.94-1.61,5.66-2.85,8.19l-6.05-3.46c-11.49-6.57-29.89-18-45.14-14.2-4.17,1.04-7.66,3.58-10.24,6.52-1.07-.14-2.28,0-3.31-.2-.55-1.32.05-1.97,1.03-2.78,3.57-2.98,6.93-6.21,11.2-8.12.95-.42,2.09-.55,2.15-1.79,1.4-.18,2.85-.46,4.27-.4,2.1.09,4.23.41,6.44.15,7.68-.91,15.58-.04,22.86-2.29.63-.2,1.72.23,2.15-.43,2.69.4,5.61-1.15,8.11-1.62,13.29-2.5,25.34-9.91,35.2-19.7,1.01-1.01,1.89-1.78,2.71-2.69,7.54-8.51,14.04-17.84,18.82-28.51,1.65-3.69,3.6-7.15,4.9-10.78.41.25,1.02.31,1.09.67-3.87,10.86-8.84,20.77-14.98,30.04Z"/>
              <path class="cls-28" d="M111.93,176.96c4.15,2.38,8.45,4.36,12.71,6.38-.61-.41-1.03.87-1.49.85-2.38-.08-15.57.18-16.32.45-2.78-1.62-6.14-2.14-9.24-3.67-7.26-3.58-14.6-6.19-21.96-8.61-8.12-2.68-16.46-5.44-25.13-6.55,2.58-2.94,6.07-5.48,10.24-6.52,15.25-3.8,33.65,7.62,45.14,14.2l6.05,3.46Z"/>
              <path class="cls-139" d="M167.03,86.64c-1.3,3.63-3.25,7.09-4.9,10.78-4.78,10.67-11.28,20-18.82,28.51-2.15-.47-4.59,6.08-7.33,4.26,5.85-5.21,10.63-11.48,13.59-19.05l4.38-11.19,9.73-21.89c1.54-3.47,2.75-6.92,4.38-10.24.06-.13-.52-.5-.33-.63,1.04-.75,1.98-2.01,3.4-2.32.66-.14,1.21-.49,2.3-.07-1.57,7.53-3.87,14.77-6.4,21.84Z"/>
              <path class="cls-192" d="M112.68,111.17c-3.14,1.61-1.61,0-4.42.39l-11.67-5.94c-14.41-7.34-32.84-7.09-47.62-1.74-10.12,3.67-19.18,9.39-27.31,16.88-.4.37-.99.24-1.06.12,4.96-5.82,10.76-11.01,17.42-15.25,2.21-1.41,4.77-3.85,7.3-3.75,2,.08,2.81-.44,4.89-1.24,11.86-4.56,26.99-5.39,39.39-1.02l5.21,1.83c1.75.61,17.04,8.51,17.88,9.72Z"/>
              <path class="cls-131" d="M152.01,99.92c-.73,2.27-2.46,4.03-3.73,5.84l-1.65-.35c-8.98,8.61-17.68,11.21-29.61,7.65-1.39-1.28-2.97-1.48-4.34-1.89-.85-1.21-16.14-9.1-17.88-9.72l-5.21-1.83c-12.4-4.37-27.53-3.54-39.39,1.02-2.08.8-2.89,1.31-4.89,1.24,7.26-5.38,22.06-7.21,31.09-6.3,9.46.95,18.13,3.95,26.43,8.78,7.9,4.59,11.36,5.96,20.89,6.64,6.02.43,12.36-1.25,17.43-4.79,5.03-3.51,8.15-9.31,11.21-14.75l5.21-9.24c.17-.09.26.05.41.11.31.14.12.43-.05.84-2.23,5.66-4.15,11.17-5.93,16.74Z"/>
              <path class="cls-227" d="M169.97,33.9c-.25.14-.51.07-.73-.05-.31-.17-.18-.52-.32-.85l-1.67-3.98c-2.65,7.67-9.08,1.28-8.39,4.85-4.99-5.37-10.55-10.34-16.31-14.79.29-.45.77-.56,1.02-.59.36-.04.53.89,1,.88,5.21-.08,10.21,1.58,13.48,6.02,3.03-.81,6.53-1.68,8.99-4.33.69-.75.19-2.97,2.22-2.54-3.62,3.38-1.1,11.94.69,15.4Z"/>
              <path class="cls-115" d="M153.94,99.95c-.59-.15-.45.39-.85,1.14-.27-.53-.49-1.17-1.09-1.17,1.78-5.57,3.7-11.08,5.93-16.74.16-.42.36-.71.05-.84-.15-.06-.24-.2-.41-.11,2.41-4.27,6.57-12.44,10.15-15.03-.19.13.39.5.33.63-1.64,3.32-2.84,6.78-4.38,10.24l-9.73,21.89Z"/>
              <path class="cls-110" d="M61.57,152.93c-.06,1.24-1.21,1.37-2.15,1.79-4.27,1.91-7.63,5.14-11.2,8.12-.98.82-1.58,1.46-1.03,2.78-4.29-.79-8.56-.41-13.42-.55.81-1.55,2.44-1.62,3.64-1.99,3.33-1.04,6.03-2.98,9.02-4.25.22-.09.6-.06.5-.44.2.17.28.06.48,0,.25-.08.59-.1.47-.5.16.08.31,0,.48,0,.29,0,.77-.04.63-.49l9.17-3.73c1.18-.48,2.39-.61,3.42-.74Z"/>
              <path class="cls-119" d="M313.95,126.58c-.15-.46.36-.56.68-.55-.07.46-.36.44-.68.55Z"/>
              <path class="cls-119" d="M46.43,158.84c-.14-.34.18-.71.5-.44.1.38-.27.35-.5.44Z"/>
              <path class="cls-119" d="M47.41,158.38c-.08-.32.13-.66.47-.5.12.39-.22.42-.47.5Z"/>
              <path class="cls-119" d="M48.36,157.89c-.06-.52.34-.37.63-.49.14.45-.34.49-.63.49Z"/>
              <path class="cls-119" d="M326.19,122.63c.18.29-.11.42-.31.44-.25.03-.48,0-.67-.07-.11-.29.09-.42.25-.45.23-.06.57.1.74.08Z"/>
              <path class="cls-130" d="M156.26,120.1c-2,2.45-1.1,6.56.67,8.98-.3.31-1.64.98-1.25,1.48l1.03,1.31c-3.75-1.98-8.81-1.85-11.74,1.51-1.8,2.07-2.15,4.82-1.41,7.22.69,2.26,2.86,3.82,5.24,4.28.08,1.67-1.59,2.99-1.31,4.7-1.38-2.03-3.28-3.78-5.8-3.65-2.45.12-5.12,1.25-6.05,4.23-.84,2.68.75,5.13,2.66,6.53,1.88,1.37,4.97,1.36,6.95-.2,0,2.35,1.87,6.25,1.68,9.4-11.46,4.94-24.4,2.68-35.88-1.48.06-.19-.02-.49.09-.64.2-.29.62-.16.87-.35,1.55.71,3.72-.15,5.1-1.09,1.43-.97,2.04-2.67,2.14-4.51.02-.4.36-.91.76-.89,2.92,4.26,8.77,5.59,12.86,2.1,1.54-1.31,2.2-3.45,1.83-5.47-1.03-5.7-9.41-5.06-10.56-4.5.55-2.95-1.58-2.16-.99-3.47,11.93-6.88,22.27-16.57,29.99-28.23.84-.58,2.31,3.16,3.13,2.75Z"/>
              <path class="cls-132" d="M171.44,154.6c-2.74,3.3-6.79,5.34-10.04,7.84-.51-1.1-1.07-2.34-2.16-2.91,4.86-4.05,9.21-8.55,12.46-14.45,11.13-20.24,15.65-41.13,12.21-64.25-.46-3.13-1.01-6.3.44-9.42,9,21.4,5.9,46.03-2.68,66.53-2.65,6.33-6.09,11.69-10.22,16.65Z"/>
              <path class="cls-174" d="M156.72,131.87c2.56,1.35,3.47,4.73,2.71,7.14-1.55,4.89-6.25,6.75-10.62,5.86-2.39-.45-4.55-2.02-5.24-4.28-.74-2.4-.39-5.15,1.41-7.22,2.93-3.36,7.99-3.49,11.74-1.51Z"/>
              <path class="cls-123" d="M156.93,129.08c-1.77-2.42-2.67-6.53-.67-8.98,2.97-3.63,8.49-3.5,11.5-.48,2.65,2.66,1.74,6.77-.89,9.15-2.87,2.6-6.85,2.05-9.94.31Z"/>
              <path class="cls-63" d="M204.56,81.65c10.39,15.85,9.48,23.46,4.55,42.07-.44.22-.45.94-.6,1.34-3.1,8.05-7.38,15.59-12.39,22.55-.13,0-.96-.06-.93-.3s.32-.77.58-1.23c3.9-6.76,7.72-13.12,10.36-20.52,10.84-30.45-4.87-42.84-2.24-43.95.16-.07.46.07.67.03Z"/>
              <path class="cls-165" d="M147.5,149.58c.4,2.44-.18,5.28-2.24,6.91-1.97,1.56-5.07,1.57-6.95.2-1.92-1.4-3.5-3.85-2.66-6.53.93-2.98,3.6-4.11,6.05-4.23,2.52-.13,4.42,1.63,5.8,3.65Z"/>
              <g>
                <path class="cls-173" d="M169.97,33.9c4.19,8.1,8.66,16.75,14.83,23.09.16,1.35,4.51,5.92,5.61,6.59,4.05,7.73,9.51,10.98,14.15,18.07-.21.04-.51-.1-.67-.03-2.63,1.11,13.08,13.49,2.24,43.95-2.64,7.4-6.46,13.76-10.36,20.52-.26.46-.55.98-.58,1.23s.8.29.93.3c-4.76,6.62-9.89,13.16-16.16,18.29-.65.18-.46-.84-.78-1.23l-2.93-3.47c-1.75-2.08-2.46-5.26-4.81-6.6,4.13-4.97,7.57-10.32,10.22-16.65,8.59-20.51,11.68-45.13,2.68-66.53-1.45,3.12-.9,6.29-.44,9.42,3.44,23.12-1.08,44.01-12.21,64.25-3.24,5.9-7.6,10.4-12.46,14.45-3.61,3.01-8.2,4.59-12.3,6.36.19-3.15-1.67-7.05-1.68-9.4,2.06-1.63,2.64-4.47,2.24-6.91-.28-1.72,1.39-3.04,1.31-4.7,4.37.89,9.07-.97,10.62-5.86.76-2.41-.15-5.79-2.71-7.14l-1.03-1.31c-.4-.5.95-1.17,1.25-1.48,3.09,1.74,7.08,2.29,9.94-.31,2.63-2.38,3.54-6.49.89-9.15-3.01-3.01-8.53-3.14-11.5.48-.82.41-2.29-3.32-3.13-2.75,6.14-9.26,11.11-19.18,14.98-30.04-.07-.36-.68-.43-1.09-.67,2.53-7.07,4.83-14.31,6.4-21.84-1.1-.42-1.64-.07-2.3.07,2.28-3.24-1.25-13.97-3.58-18.11-2.55-4.53-5.29-9.24-8.68-12.89-.69-3.57,5.74,2.81,8.39-4.85l1.67,3.98c.14.33,0,.68.32.85.22.12.48.19.73.05Z"/>
                <g>
                  <path class="cls-108" d="M200.64,107.16c-2.95,1.79-6.44,1.02-8.27-1.24-2.15-2.66-1.56-6.25.63-8.65,2.7-2.96,6.91-3.15,9.31-.26,2.6,3.13,1.98,7.94-1.67,10.16Z"/>
                  <path class="cls-157" d="M201.87,121.54c.59,4.23-2.44,6.87-5.7,6.75s-5.64-3.11-5.21-6.9c.22-2,.74-4.87,2.99-5.45,3.22-.83,7.39,1.85,7.92,5.59Z"/>
                  <path class="cls-25" d="M175.75,104.54c1.49,2.95-.3,6.28-2.67,7.51-2.54,1.32-5.67.65-7.33-1.67s-1.8-5.74.5-7.92c2.84-2.69,7.56-1.77,9.5,2.08Z"/>
                  <path class="cls-231" d="M185.19,141.34c-2.01-2.36-.9-6.39,1.53-7.88,2.12-1.3,4.43.21,5.56,1.81,1.45,2.04.97,4.63-.55,6.16-1.73,1.74-4.6,2.2-6.54-.08Z"/>
                  <path class="cls-235" d="M175.97,91.7c-2.77.37-4.85-1.49-4.98-3.75-.16-2.76,1.91-4.91,4.65-4.69,2.29.19,3.99,1.82,4.09,4.08.09,1.97-1.41,4.05-3.76,4.36Z"/>
                  <path class="cls-48" d="M183.24,66.81c.44,1.76-.54,3.02-1.54,3.95-1.16,1.07-2.74,1.51-4.29.98-2.16-.74-3.24-2.86-2.4-5.4.55-1.66,2.45-2.95,4.81-2.33,1.46.38,3,1.13,3.42,2.81Z"/>
                  <path class="cls-201" d="M179.9,157.02c-1.97-.31-3.08-2.09-2.93-3.98.12-1.42,1.29-3.29,3.21-3.42,2.16-.14,3.67,1.95,3.64,3.71-.04,2.1-1.79,4.03-3.92,3.68Z"/>
                </g>
              </g>
              <path class="cls-41" d="M148.28,105.77c-2.41,3.45-5.66,6.21-9.6,8.37-5.17,2.83-10.51,5.28-15.95,6.98-12.6,3.94-25.62,5.02-38.9,3.18-6.6-.92-12.68-1.87-19.07-3.78-4.45-1.32-8.83-2.12-13.18-2.48.25-.56-.12-1.18.03-1.77,7.25.49,14.39,2.04,21.83,3.51,14.81,2.92,30.71,3.88,45.24-.74-3.84-2.44-7.65-4.35-10.41-7.48,2.82-.4,1.28,1.22,4.42-.39,1.37.42,2.95.61,4.34,1.89,11.93,3.56,20.63.96,29.61-7.65l1.65.35Z"/>
              <path class="cls-118" d="M153.94,99.95l-4.38,11.19c-2.96,7.57-7.74,13.84-13.59,19.05-2.31,2.06-5.29,3.42-7.89,4.95.28-1.64-2.92-6.48-1.23-7.82.87.26,1.71.27,2.59-.49.73-.63.93-1.73.4-2.67-.55-1-1.52-1.56-2.86-1.26-.91.2-1.33.98-1.98,1.25-1.21-.28-2.37-1.73-2.28-3.04,5.44-1.7,10.78-4.15,15.95-6.98,3.95-2.16,7.19-4.92,9.6-8.37,1.27-1.81,3-3.58,3.73-5.84.6,0,.82.64,1.09,1.17.4-.75.26-1.29.85-1.14Z"/>
              <path class="cls-146" d="M143.3,125.94c-.81.92-1.69,1.69-2.71,2.69-9.86,9.79-21.9,17.2-35.2,19.7-.16.03-.48-.16-.48-.32,0-.21.7-.41.69-.58-.12-1.69-.24-3.37.47-4.79-.67-.37-.92-.65-1.22-.92,8.01.29,16.19-2.39,23.23-6.56,2.59-1.54,5.57-2.89,7.89-4.95,2.75,1.82,5.18-4.73,7.33-4.26Z"/>
              <path class="cls-81" d="M126.86,127.33c-.75-.23-1.38-.4-1.66-1.17-.25-.7-.22-1.34-.19-2,.65-.27,1.08-1.05,1.98-1.25,1.34-.3,2.3.25,2.86,1.26.52.95.33,2.04-.4,2.67-.88.76-1.72.75-2.59.49Z"/>
              <g>
                <path class="cls-91" d="M51.57,118.03c4.35.36,8.73,1.16,13.18,2.48,6.39,1.9,12.47,2.86,19.07,3.78,13.28,1.85,26.3.76,38.9-3.18-.09,1.32,1.07,2.77,2.28,3.04-.03.66-.06,1.3.19,2,.27.77.91.94,1.66,1.17-1.69,1.33,1.5,6.18,1.23,7.82-7.04,4.17-15.22,6.85-23.23,6.56l-5.91-.21c-.59-.02-1.28-.1-1.88-.09.27-.74-4.44-.47-7.55-1.1l-7.73-1.56c-4.5-.91-8.72-2.83-13.25-4.69-16.88-6.92-31.92-10.31-49.64-6.81.02-.29-.18-.31-.28-.42-.24-.27-.12-.66.41-.52,9.71-6.71,21.1-9.22,32.56-8.28Z"/>
                <g>
                  <path class="cls-118" d="M117.06,130.99c1.26.61,2.56-.14,3.54-1.04,2.21,1.08,2.94,4.08,3.47,6.47-2.03.94-3.61,1.45-5.98,2.17-1.73-4.34-.88-4.09-1.03-7.6Z"/>
                  <path class="cls-7" d="M106.2,133.93c-1.8.23-3.06-.75-3.41-1.97-.47-1.64.45-2.98,2-3.74,1.74-.86,3.5.38,4.08,1.61.95,2.04-.54,3.83-2.67,4.1Z"/>
                  <path class="cls-42" d="M88.83,132.61c-1.43-.51-1.4-2.71-.86-3.75.59-1.12,2.27-1.76,3.39-1.16,1.37.73,1.61,2.05,1.27,3.36-.36,1.39-1.75,2.29-3.81,1.55Z"/>
                  <path class="cls-60" d="M120.6,129.94c-.98.9-2.28,1.66-3.54,1.04-1.43-1-1.79-2.78-.78-4.02.74-.91,2.35-1.18,3.26-.6,1.23.79,1.5,2.34,1.06,3.57Z"/>
                  <path class="cls-90" d="M78.25,127.07c.58.45.15,2.42-.36,3.01-.84.97-2.24.5-2.99-.14-.69-.59-1.31-2.36-.05-3.18.75-.49,2.69-.24,3.4.31Z"/>
                  <path class="cls-154" d="M96.96,131.11c.04-.98-.26-1.5.1-1.85.58-.56,1.14-.59,1.93-.51,1.05.12,1.22.92,1.29,1.62.11,1.07-.24,1.75-1.41,1.78-.62.02-1.96.3-1.9-1.04Z"/>
                  <path class="cls-11" d="M83.91,131.93c-1.24,0-2.16-.33-2.49-1.06s.26-1.68,1.13-2.23,2.05-.06,2.27.8c.2.8.23,2.5-.9,2.49Z"/>
                </g>
              </g>
              <g>
                <path class="cls-38" d="M108.26,111.56c2.75,3.13,6.57,5.03,10.41,7.48-14.53,4.62-30.43,3.66-45.24.74-7.44-1.47-14.58-3.01-21.83-3.51-10.55-.72-20.99,1.75-30.14,7.55l-5.13,3.25c1.25-2.15,2.67-4.28,4.28-6.17.07.11.66.24,1.06-.12,8.13-7.48,17.19-13.21,27.31-16.88,14.78-5.36,33.21-5.6,47.62,1.74l11.67,5.94Z"/>
                <path class="cls-204" d="M51.6,116.27c-.15.59.23,1.2-.03,1.77-11.46-.94-22.85,1.56-32.56,8.28-.53-.13-.65.25-.41.52.1.11.31.13.28.42-.66.13-1.36.91-2.36.53-.32-.12-.39-.4-.2-.72l5.13-3.25c9.15-5.79,19.59-8.26,30.14-7.55Z"/>
                <path class="cls-65" d="M80.34,109.57c-.63,4.49-4.46,4.84-7.76,5.8-2.93-.75-4.49-5.12-3.57-7.79,1.18-3.42,4.6-5.44,7.78-4.1,2.42,1.02,3.91,3.6,3.55,6.1Z"/>
                <path class="cls-133" d="M105.27,115.82c.05,2.36-1.98,3.75-3.77,3.66-2-.1-4.22-1.49-4.03-3.89.17-2.17,2.07-3.51,3.85-3.53,1.78-.02,3.91,1.41,3.96,3.76Z"/>
              </g>
              <path class="cls-159" d="M143.84,170.52c.89,1.14.19,2.47-.21,3.72-1.83-1.27-5.8-.6-7.63.06-2.05.74-1.65,3.37-1.31,4.78.86,3.55,6.94,3.64,9.12,1.79,1.93.67,2.22,2.98,2.35,4.92-.64.36-1.62.26-1.99.95-5.25-.69-10.57-1.7-15.88-1.79.78-.69-4.36-1.95-3.64-1.62-4.26-2.02-8.56-4.01-12.71-6.38,1.24-2.53,2.23-5.25,2.85-8.19,9.71,2.55,19.47,3.56,29.07,1.76Z"/>
              <path class="cls-166" d="M124.14,149.05c-2.98,1.42-4.92,4.72-4.13,7.88-.4-.01-.73.49-.76.89-1.01-2.4-3.21-3.66-5.99-3.11-2.12.42-3.86,1.71-4.03,3.97-.12,1.66,1.06,3.96,2.77,4.74-.26.19-.68.06-.87.35-.1.15-.03.45-.09.64-2.3-.83-4.76-1.19-6.84-3.07-1.74-1.58-2.24-3.91-.92-6.06,1.01-1.64,2.68-2.68,4.49-3.33,5.29-1.88,10.58-3.6,15.36-6.36-.58,1.31,1.54.51.99,3.47Z"/>
              <path class="cls-231" d="M120.01,156.93c-.79-3.16,1.15-6.46,4.13-7.88,1.16-.55,9.53-1.2,10.56,4.5.37,2.02-.29,4.16-1.83,5.47-4.09,3.49-9.94,2.16-12.86-2.1Z"/>
              <path class="cls-167" d="M119.25,157.82c-.1,1.84-.71,3.54-2.14,4.51-1.38.94-3.55,1.8-5.1,1.09-1.71-.78-2.89-3.08-2.77-4.74.17-2.25,1.91-3.55,4.03-3.97,2.77-.55,4.97.71,5.99,3.11Z"/>
              <path class="cls-197" d="M166.13,177.67c-.06.2-.07.42-.02.62.28-.1-4.6,2.23-4.99,4.29-.05.25-.04.96-.41.86-1.01-.3-.42,1.3-1,1.58-3.11,1.5-8.88,2.34-12.12.87.06-.04.11-.2.16-.45,6.85-.99,12.6-4.45,18.38-7.78Z"/>
              <path class="cls-22" d="M143.63,174.25c2.1,1.53.87,4.93.18,6.63-2.18,1.85-8.26,1.76-9.12-1.79-.34-1.41-.74-4.04,1.31-4.78,1.83-.66,5.81-1.33,7.63-.06Z"/>
              <g>
                <path class="cls-130" d="M179.96,165.9c-3.44,2.82-6.1,6.87-10.52,9.03-1.15.56-2.16,2.08-3.32,2.74-5.78,3.33-11.53,6.79-18.38,7.78-.05.25-.1.4-.16.45-.38-.17-1.05-.31-1.43-.1-.13-1.94-.41-4.25-2.35-4.92.7-1.7,1.92-5.1-.18-6.63.4-1.25,1.1-2.58.21-3.72,6.41-1.2,12.44-4.15,17.55-8.08,3.25-2.5,7.3-4.54,10.04-7.84,2.35,1.34,3.06,4.52,4.81,6.6l2.93,3.47c.33.39.13,1.41.78,1.23Z"/>
                <path class="cls-205" d="M169.92,168.09c-1.89.54-4.66-1.05-3.99-3.41.71-2.51,4.68-4.26,6.75-3.05,1.45.85.99,2.66.53,3.79-.46,1.13-1.33,2.11-3.29,2.67Z"/>
                <path class="cls-44" d="M157.47,177.09c-1.56-.31-3.13-1.55-2.89-3.33.19-1.44,1.41-2.34,2.24-2.67,1.22-.48,3.04-.47,3.99.65.93,1.1.95,2.75.13,3.97-.57.86-1.95,1.68-3.48,1.37Z"/>
              </g>
            </g>
          </g>
          <path class="cls-30" d="M287.35,205.3c.96.6,2.45.34,2.78,1.55-4.06,2.43-8.05,4.82-12.32,6.53-1.17-1.29-3.08,1.02-2.86-1.16.2-.43.6-.79,1.05-.91,4.57-1.24,7.63-5.51,10.15-6.1.17-.04.66.76.88.5.12-.14.52-.06.32-.41Z"/>
          <path class="cls-59" d="M239.81,191.74c.09,3.67.46,7.33.1,10.99-1.76-.16-7.91-9.01-9.63-9.47.24-2.01-.7-4.07-.75-5.95-.04-1.45-.29-1.81-.9-3.06-.84-1.73-1.31-2.98-3.13-3.98.84-1.02.16-1.62-.31-2.71-.34-.79-6.13-14.1-3.85-13.01,2.8,4.88,6.11,9.55,9.55,14.22l8.6,11.65c.19.25-.21.89-.09,1.04.1.12.13.34.41.28Z"/>
          <path class="cls-180" d="M236.66,164.11c5.77,4.92,11.58,9.95,18.19,13.73,1.78,1.02,3.14,3.58,5.55,4.19-.25.95-.66,1.02-.62,1.54-3.16.35-19.54,2.2-19.45,6.66-.66.17-.53,1.05-.52,1.51-.28.05-.32-.16-.41-.28-.12-.14.28-.78.09-1.04l-8.6-11.65c-3.44-4.66-6.75-9.34-9.55-14.22-2.04-3.56-2.48-8.24-3.86-12.07-.28-.78-.45-1.61-.67-2.41.1-1.04,2.65-3,3.59-1.85,4.97,6.08,10.56,11.01,16.27,15.88Z"/>
          <path class="cls-10" d="M213.62,154.18c1.1,1.62.95,3.71-.27,4.83s-3.01,1.08-4.29-.17c-.83-.81-1.44-3.04-.39-4.21,1.44-1.61,3.55-1.41,4.95-.44Z"/>
          <g>
            <path class="cls-3" d="M217.47,152.48c1.38,3.83,1.82,8.51,3.86,12.07-2.28-1.08,3.51,12.23,3.85,13.01.47,1.1,1.15,1.69.31,2.71-3.19-1.74-6.55-2.66-10-3.53-8.42-2.1-17.4-2.91-25.82-2.54-.19-.1-.09-.9.22-.9l5.65.05c3.22-6.74,6.11-13.72,8.19-20.9,3.35-.45,3.57,2.83,4.94,2.17-1.05,1.18-.44,3.4.39,4.21,1.28,1.25,3.02,1.33,4.29.17s1.37-3.21.27-4.83c.37-.75,1.72-1.55,2.62-2.12.31-.19.8.99,1.23.42Z"/>
            <path class="cls-13" d="M208.87,163.36c1.93-1.06,3.99-.12,4.84,1.83.68,1.56.03,3.6-1.75,4.57-1.48.82-3.58.28-4.64-1.62-.73-1.32-.3-3.77,1.54-4.79Z"/>
          </g>
          <g>
            <path class="cls-164" d="M406.11,149.32c.15.42-3.24,8.22-1.67,6.88-4.94,11.95-18.31,41.95-25.49,51.34-2.78,3.64-6.95,7.74-10.47,10.62-13.81,11.3-28.27,22.05-43.67,30.75.11-.33-.32-.43-.25-.61.12-.31.42-.61.84-.88,12.13-7.8,23.37-16.34,33.66-26.74,4.7-4.75,8.97-9.23,12.3-14.53.77.01,1.75.34,2.74.59,1.16.29,2.09-.78,2.59-1.84l6.6-14.13c3.41-7.31,7.42-13.92,9.63-21.95-13.9,2.88-29.63,1.84-42.21-2.41-.47-.16-.61-.56-1.12-.51-.32.03-.78-.1-.75.49-4.16-1.2-8.58-3.32-11.74-6.52-.02-.62-.42-1.11-1.09-1.6-.46-.34-1.25.43-1.88.53-.2-1.22.3-2.36.27-3.58.16-.33.79-2.05,1.45-1.75,2.18.99,4.32,1.15,6.23,1.82,6.34,2.23,13.32,2.61,20.54,2.66,10.42.07,33.21-2.08,41.55-7.69.21-.07.74-.05.52-.49.57.11.89-1.03,1.4-.45Z"/>
            <path class="cls-225" d="M393.56,200.16l-3.16,4.83c-1.55,2.7-3.67,4.94-5.61,7.29-.85.78-5.35-4.61-5.84-4.73,7.19-9.39,20.55-39.39,25.49-51.34.93-2.26,2.16-4.45,2.57-6.93-.15-1.06.9-.98.68,0,4.34,14.32-6.95,39.9-14.13,50.89Z"/>
            <path class="cls-200" d="M404.2,150.25c-8.34,5.61-31.13,7.76-41.55,7.69-7.22-.05-14.2-.43-20.54-2.66,5.69-.78,21.76,1.22,26.76.15,1.82-.39,13.25-.42,19.85-1.85l7.82-1.69c1.26-.27,2.47-.75,3.79-.98l3.87-.66Z"/>
            <path class="cls-168" d="M334.15,158.8c-1.26,3.31-3.81,6.43-5.17,9.73-.23.03-1.27-.9-1.54-.4-.65,1.19-1.78,1.76-2.29,2.57-.32-.08-.78-.27-.8-.77.21-.6.05-1.28-.36-.71,1.26-1.54,2.2-3.47,3.31-5.12.43-.64,1-1.14,1.2-1.99-.2.85,6.17-8.13,5.92-6.89.03,1.22-.47,2.37-.27,3.58Z"/>
            <path class="cls-119" d="M407.01,149.27c-.41,2.49-1.64,4.67-2.57,6.93-1.56,1.34,1.82-6.47,1.67-6.88.22.02.65-.38.9-.05Z"/>
            <path class="cls-119" d="M327.29,164.09c-.48.03-.93-.24-1.42-.15-.19-.19-.18-.36.02-.53.99-.15,1.66-1.04,2.6-1.31-.2.86-.77,1.35-1.2,1.99Z"/>
            <path class="cls-200" d="M404.2,150.25c-.06-.36.2-.55.52-.49.22.44-.31.42-.52.49Z"/>
            <path class="cls-52" d="M373.37,224.62c-4.09,3.84-9.05,6.87-12.91,10.93l-1.07,1.12c-7.85,8.26-38.16,27.39-49.79,33.34-3.87,1.98-8.15,3.62-12.17,4.95-.17-2.68-1.31-5.24-2.53-7.58.21-.51.02-1.06.43-1.5,1.33.59,1.5-1.16,2.37-1.66l27.11-15.32c15.39-8.7,29.86-19.45,43.67-30.75l4.9,6.46Z"/>
            <path class="cls-175" d="M279.86,258.2c3.52,2.16,7.22,4.16,10.92,6.02.31,1.07.23,2.18-.23,3.41-.83,2.19-.27,4.52-1.21,6.36-12.4-7.24-31.73-22.87-39.34-35.38-1.36-2.24-2.06-5.29-1.18-7.63,7.65,8.55,15.73,15.81,24.59,23.3,2.12,1.79,4.37,2.64,6.44,3.92Z"/>
            <path class="cls-79" d="M384.79,212.27c-2.23,2.69-4.49,5.35-6.48,8.22-1.29,1.61-3.43,2.73-4.93,4.13l-4.9-6.46c3.52-2.88,7.69-6.98,10.47-10.62.49.12,4.99,5.51,5.84,4.73Z"/>
            <path class="cls-126" d="M337.11,159.86c-.37.05-.76-.54-1.66-.68-2.8,8.3-6.02,18.02-5.69,27.29.16.98,1.58,1.76,2.37,2.11,13.47,5.86,27.43,10.47,41.49,15.6.73.27,1.54-.44,1.78-.94l6.59-13.47c1.68-3.44,3.78-6.76,5.2-10.41.22-.56.72-1.4,1.04-1.87,1.44-2.15,2.62-4.47,3.41-7.66-9.58,2.2-19.07,1.61-28.57.63l-8.09-1.81c-2.28-.51-4.2-1.71-6.14-2.27-.03-.59.43-.46.75-.49.51-.05.65.35,1.12.51,12.57,4.26,28.31,5.29,42.21,2.41-2.21,8.03-6.22,14.64-9.63,21.95l-6.6,14.13c-.49,1.06-1.42,2.13-2.59,1.84-1-.25-1.97-.58-2.74-.59-3.59-2.67-8.33-3.57-12.51-5.28l-9.46-3.85c-5.89-2.4-11.99-4.36-17.82-6.92-3.06-1.35-3.86-3.21-3.36-6.33,1.09-6.82,2.63-13.44,4.93-20.07.58-1.68,1.26-3.28.99-4.9.63-.1,1.41-.87,1.88-.53.67.49,1.06.98,1.09,1.6Z"/>
            <path class="cls-152" d="M337.11,159.86c3.16,3.2,7.58,5.32,11.74,6.52,1.94.56,3.86,1.76,6.14,2.27l8.09,1.81c.62,1.69-9.25-1.31-9.94-1.54-3.34-1.12-6.86-1.9-10.04-4.3-2.12,1.85-2.5,4.42-3.11,6.45-3.63,4-5.77,9.32-8.49,14.1-.16.82-.9,1.57-1.74,1.31-.33-9.27,2.89-18.98,5.69-27.29.9.14,1.29.72,1.66.68Z"/>
            <path class="cls-36" d="M358.86,200.87c-.64.53-.46,1.49-.49,2.26-1.07.3-2.59-.69-3.83.2-9.26-3.73-19.81-7.87-29.59-10.67-.25.54-.43.76-.68.64.13-.75-.1-1.27-.4-1.94.82-.89-3.99-2.01-4.29-1.9.59-.32,1.2-.98,1.54-1.82l7.87-19.12c1.36-3.3,3.91-6.42,5.17-9.73.26,1.61-.41,3.21-.99,4.9-2.3,6.63-3.84,13.25-4.93,20.07-.5,3.12.3,4.99,3.36,6.33,5.83,2.56,11.93,4.52,17.82,6.92l9.46,3.85Z"/>
            <path class="cls-5" d="M290.13,206.84c-.33-1.21-1.81-.95-2.78-1.55-3.2-.01,4.69-6.06,3.54-5.38,2.33-1.37,4.44-3.05,6.55-4.84.17,1.4,5.41.38,6.48,2.21-4.77,3.36-9.11,6.76-13.79,9.56Z"/>
            <path class="cls-4" d="M319.28,213.43c-.05.18.24.55.24.79-3.29,3.31-11.49,10.56-16.15,7.47,2.9-3.48,7.34-5.36,10.02-9.55l5.89,1.29Z"/>
            <path class="cls-236" d="M301.94,222.29c.38,1.12,2.13,2.12,1.97,3.37-.24,1.87-5.55,7.08-10.39,4.36-4.15-2.33,3.05-1.97,6.37-5.45.4-.42.53-.79.14-1.16-.64-.61-7.25,3.97-9.98,2.92l9.54-5.87c.95.46,1.4,1.5,2.35,1.83Z"/>
            <path class="cls-70" d="M269.29,224.36c.27.76.71,1.55,1.25,2.15-.71,2.53-7.24,6.4-10.01,7.27-.31.1-.33.53-.3.62-1.3-.54-2.48-1.28-3.69-2.01-.04-.65.44-1.16,1.05-1.58.8-.55,12.37-8.94,11.69-6.44Z"/>
            <path class="cls-17" d="M323.87,191.36c.3.66.53,1.18.4,1.94-.51,2.84-3.09,4.8-5.35,5.57-3.15,1.07-5.81.06-8.14-1.7.7-1.06,2.35-.56,3.7-.89,5.34-1.3,6.97-4.77,9.4-4.92Z"/>
            <path class="cls-151" d="M319.57,189.47c.3-.11,5.11,1.01,4.29,1.9-2.43.15-4.06,3.61-9.4,4.92-1.35.33-3-.17-3.7.89-.47-.36-.72-.49-.33-1.05.15-.22.21-1.02.59-1.18,3.3-1.41,5.64-3.9,8.54-5.47Z"/>
            <path class="cls-228" d="M340.63,201.06c.86,3.11-11.17,1.85-11.92,2.29-1.14-.99-2.11-2.13-3.34-2.95.69-.15,1.51-.73,2.47-.71,4.45.11,8.68.6,12.78,1.37Z"/>
            <path class="cls-88" d="M295.33,265.89c-.41.44-.22.99-.43,1.5-1.87-.07-1.1,7.89-2.21,8.69-1.33-.21-2.32-1.49-3.35-2.09.93-1.84.38-4.17,1.21-6.36.46-1.23.54-2.34.23-3.41,1.43.72,3.17.84,4.55,1.67Z"/>
            <path class="cls-187" d="M297.43,274.97c.19.29-4.6,3.43-4.74,1.11,1.12-.8.35-8.76,2.21-8.69,1.22,2.34,2.36,4.9,2.53,7.58Z"/>
            <g>
              <path class="cls-113" d="M293.71,231.78c1.1,1.29,2.24,2.45,3.77,3.8-7.88,3.45-15.02,8.92-22.67,12.8-2.01-1.54-3.11-3.44-4.44-5.05.33-1.04,1.55-.98,2.55-1.43,4.98-2.26,9.74-4.49,14.52-7.05,3.72-1.99.23-3.39,2.31-6.14.78,1.31,3,1.94,3.96,3.06Z"/>
              <path class="cls-182" d="M285.59,224.09c1.2,1.76,3.03,2.74,4.15,4.63-2.08,2.74,1.41,4.15-2.31,6.14-4.78,2.55-9.54,4.79-14.52,7.05-1,.45-2.22.39-2.55,1.43-.87-1.05-3.01-1.87-3.54-3.28,5.76-.8,11.79-1.91,16.5-5.96,1.77-1.53,3.28-3.77,3.45-5.87.18-2.11-.69-3.11-2.13-3.68-.02-.22.11-.47.3-.47.21,0,.42.15.64.03Z"/>
              <path class="cls-160" d="M266.83,240.05c-.24-.2-1.3-.57-1.19-1.31l19.01-14.21c1.45.58,2.31,1.58,2.13,3.68-.18,2.1-1.68,4.34-3.45,5.87-4.71,4.06-10.74,5.16-16.5,5.96Z"/>
            </g>
            <path class="cls-16" d="M260.23,234.39c-.03-.09,0-.52.3-.62,2.76-.87,9.3-4.73,10.01-7.27.91,1.01,2.07,1.8,2.51,3.58-2.84,2.07-5.42,4.24-8.55,5.62-1.64.72-3.04-.81-4.26-1.31Z"/>
            <g>
              <path class="cls-129" d="M371.37,206.14c-3.33,5.3-7.6,9.78-12.3,14.53-10.29,10.41-21.53,18.94-33.66,26.74-.42.27-.72.57-.84.88-.07.18.36.28.25.61l-27.11,15.32c-.87.49-1.03,2.25-2.37,1.66-1.39-.84-3.12-.95-4.55-1.67-3.71-1.86-7.41-3.86-10.92-6.02,3.11,1.24-5.29-6.69-5.14-6.55-5.47-4.85-10.45-9.89-15.17-15.58-1.09-1.31-2.9-1.93-3.01-3.69,1.21.73,2.39,1.48,3.69,2.01,1.22.5,2.62,2.04,4.26,1.31,3.13-1.37,5.71-3.54,8.55-5.62-.44-1.79-1.6-2.57-2.51-3.58-.54-.6-.98-1.39-1.25-2.15-.19-.58-.09-1.09.42-1.25.27-.08.83.05,1.06-.14,1.71,2.46,11.43-6.24,10.84-2.34-.23,1.55-6.42,4.05-8.71,4.37,3.69,4.47,8.46.32,11.4-1.98.73.11,1,.65,1.29,1.07-.22.12-.44-.03-.64-.03-.19,0-.32.26-.3.47l-19.01,14.21c-.11.73.95,1.11,1.19,1.31.53,1.41,2.67,2.23,3.54,3.28,1.33,1.61,2.43,3.5,4.44,5.05,7.65-3.88,14.8-9.34,22.67-12.8-1.54-1.34-2.67-2.51-3.77-3.8-.25-.61-.62-1.16-.19-1.75,4.84,2.72,10.16-2.49,10.39-4.36.16-1.25-1.59-2.25-1.97-3.37.13-.27.5-.55.82-1.01.12-.17.41.32.61.42,4.66,3.08,12.86-4.17,16.15-7.47,0-.24-.3-.61-.24-.79.09-.3.51-.42.43-.78,2.67,1.19,6.94-4.73,8.6-7.12.51-.73.55-1.47.4-2.18.75-.44,12.77.82,11.92-2.29,2.1.39,4.18,1.41,6.38,2.07,1.47.44,2.74,1.47,3.48,2.83.36.66-.33,1.39-.43,1.88-8.02,8.07-16.23,15.96-25.34,23.39-10.55,8.48-27.2,22.23-41.11,22.18,4.48,4.42,10.63,4.79,16.08,2.19,19.02-9.08,35.94-22.81,51.17-37.44,4.17-4.01,7.89-7.99,11.58-12.56-1.29-1.13-2.67-1.82-4.08-2.47.03-.77-.15-1.73.49-2.26,4.18,1.7,8.92,2.61,12.51,5.28Z"/>
              <g>
                <path class="cls-68" d="M284.31,223.02c-2.94,2.29-7.71,6.44-11.4,1.98,2.29-.32,8.47-2.82,8.71-4.37.59-3.9-9.12,4.81-10.84,2.34,2.82-2.35,6.35-3.3,9.82-5.52,1.55,1.69,4.01,3.2,3.72,5.57Z"/>
                <path class="cls-190" d="M301.97,236.11c3.04-.89,14-3.29,12.48-7.71l-12.49,6.37c-.32.16-.81.02-1.02-.08-.15-.07-.02-.33.05-.63l12.01-7.73c2,1.23,3.59,2.94,4.8,5.16-2.95,5.74-10.12,9.53-15.84,4.62Z"/>
                <path class="cls-171" d="M316.64,225.73c1.95-1.08,12.22-3.56,8.44-6.44l-8.77,5.45c-.92.57-1.72,1-2.55-.19,3.71-2.29,6.4-5.61,10.36-7.42,1.78-.82,5.6,2.47,5.17,4.63-.64,3.21-4.1,5.47-6.8,5.97-2.2.41-4.53-.22-5.85-1.99Z"/>
                <path class="cls-17" d="M291.43,245.63c-.07-1.4,2.55-2.45.57-2.91l5.46-3.14c1.2-.69,1.98-1.54,2.89-2.45l4.18,4.35c-4.51,3.97-7.34,5.63-13.09,4.15Z"/>
                <path class="cls-213" d="M343.45,206.56c-1,4.59-10.11,12.48-15.15,7.83,2.55-1.43,4.36-3.39,6.68-3.76,2.68-.42,3.68-3.29,4.59-5.73.66-.89,3.95.34,3.88,1.65Z"/>
                <path class="cls-45" d="M291.99,242.72c1.99.46-.64,1.51-.57,2.91.08,1.49-11.29,5.67-13.68,5.38,4.62-3.2,9.55-5.59,14.25-8.29Z"/>
                <path class="cls-199" d="M338.8,204.93c-.26.51-14.02,12.51-12.42,8.06,2.45-2.16,9.27-8.86,12.42-8.06Z"/>
              </g>
            </g>
            <path class="cls-8" d="M382,189.77l-6.59,13.47c-.24.49-1.05,1.2-1.78.94-14.06-5.13-28.02-9.73-41.49-15.6-.03-.47.17-.95.69-1.12l5.44-1.73c5.53-1.75,19.17-8.86,25.84-6.27,2.52.98,18.04,8.14,17.89,10.31Z"/>
            <path class="cls-95" d="M363.08,170.46c9.51.97,18.99,1.57,28.57-.63-.79,3.19-1.97,5.51-3.41,7.66l-16.28-1.74c-11.69-1.25-20.72-1.8-31.97-4.67.61-2.04.98-4.6,3.11-6.45,3.18,2.4,6.7,3.18,10.04,4.3.7.23,10.56,3.23,9.94,1.54Z"/>
            <path class="cls-140" d="M388.24,177.49c-.32.47-.82,1.31-1.04,1.87l-12.94-1.1c-5.93-.5-11.74-1.66-17.72-.66-7.72,1.29-14.96,3.76-22.3,6.46-1.09.4-1.75,1.51-2.74,1.11,2.72-4.78,4.86-10.09,8.49-14.1,11.24,2.88,20.28,3.42,31.97,4.67l16.28,1.74Z"/>
            <path class="cls-78" d="M387.2,179.36c-1.42,3.65-3.52,6.98-5.2,10.41.14-2.17-15.38-9.33-17.89-10.31-6.67-2.59-20.31,4.52-25.84,6.27l-5.44,1.73c-.52.17-.72.65-.69,1.12-.79-.35-2.21-1.13-2.37-2.11.84.27,1.58-.48,1.74-1.31.98.4,1.65-.71,2.74-1.11,7.34-2.69,14.59-5.17,22.3-6.46,5.97-1,11.78.15,17.72.66l12.94,1.1Z"/>
            <g>
              <path class="cls-219" d="M358.36,203.13c1.41.65,2.79,1.34,4.08,2.47-3.69,4.57-7.41,8.55-11.58,12.56-15.23,14.62-32.16,28.36-51.17,37.44-5.45,2.6-11.6,2.23-16.08-2.19,13.92.05,30.56-13.7,41.11-22.18,9.1-7.43,17.32-15.31,25.34-23.39l4.48-4.51c1.24-.89,2.76.1,3.83-.2Z"/>
              <path class="cls-153" d="M326.45,237.01c8.04-7.59,16.06-14.7,23.62-22.94,2.4-2.61,4.6-5.22,7.68-6.84-9.44,11.26-19.77,21.14-31.31,29.79Z"/>
            </g>
            <g>
              <path class="cls-155" d="M327.29,164.09c-1.1,1.65-2.04,3.58-3.31,5.12l-3.52,4.3c-4.19,5.12-8.2,10.23-11.95,16.25,1.38,1.14,3.13.03,4.11-1.36l10.39-14.73c.77-1.1,1.52-2,2.13-2.98.51-.81,1.64-1.39,2.29-2.57.27-.5,1.31.43,1.54.4l-7.87,19.12c-.34.84-.95,1.5-1.54,1.82-2.9,1.57-5.24,4.06-8.54,5.47-.38.16-.44.96-.59,1.18-.39.56-.14.69.33,1.05,2.33,1.75,4.99,2.77,8.14,1.7,2.26-.77,4.85-2.72,5.35-5.57.25.12.43-.09.68-.64,9.78,2.81,20.32,6.94,29.59,10.67l-4.48,4.51c.09-.49.78-1.22.43-1.88-.74-1.37-2.01-2.39-3.48-2.83-2.2-.66-4.27-1.68-6.38-2.07-4.1-.77-8.33-1.25-12.78-1.37-.96-.02-1.78.55-2.47.71-.24.05-.42.32-.89.05-1.41,1.93-8.24,7.68-8.74,8.6-.08.15.1.43.34.45.17.02.38-.06.81-.18l7.41-5.68c-.68,3.26-5.39,5.52-7.93,7.58.82,1.41,2.28.98,3.32,1.44.08.36-.34.49-.43.78l-5.89-1.29c-2.68,4.19-7.12,6.08-10.02,9.55-.2-.09-.5-.59-.61-.42-.32.46-.68.74-.82,1.01-.96-.33-1.41-1.37-2.35-1.83l-9.54,5.87c2.73,1.05,9.34-3.52,9.98-2.92.39.37.26.74-.14,1.16-3.32,3.48-10.52,3.12-6.37,5.45-.43.6-.06,1.14.19,1.75-.96-1.12-3.19-1.76-3.96-3.06-1.12-1.89-2.95-2.87-4.15-4.63-.29-.42-.55-.96-1.29-1.07.3-2.37-2.17-3.88-3.72-5.57-3.47,2.22-7,3.18-9.82,5.52-.23.19-.79.05-1.06.14-.51.15-.61.67-.42,1.25.68-2.5-10.89,5.89-11.69,6.44-.61.42-1.09.93-1.05,1.58.1,1.76,1.92,2.38,3.01,3.69,4.72,5.69,9.7,10.72,15.17,15.58-.15-.13,8.25,7.79,5.14,6.55-2.07-1.28-4.32-2.12-6.44-3.92-8.87-7.49-16.94-14.75-24.59-23.3-.19-.26-.28-.55-.35-.79-.08-.27.11-.64.51-.78,5.53-1.9,10.52-4.92,14.65-8.83,1.92.1,3.53-2.38,5.08-2.72,3.34-.73,6.04-3.26,9.09-4.48,4.28-1.71,8.26-4.1,12.32-6.53,4.68-2.8,9.02-6.19,13.79-9.56-1.07-1.83-6.31-.81-6.48-2.21-.07-.42.53-.54.4-.99,8.01-7.9,15.54-16.41,23.01-24.88.68-.77,1.99-1.29,2.49-2.39.39.12.53-.15.62-.48.29-1.04,1.2-1.68,1.92-2.4.49-.09.94.19,1.42.15Z"/>
              <g>
                <path class="cls-58" d="M325.15,170.7c-.61.98-1.36,1.88-2.13,2.98l-10.39,14.73c-.98,1.39-2.72,2.5-4.11,1.36,3.75-6.02,7.76-11.13,11.95-16.25l3.52-4.3c.42-.57.57.11.36.71.02.51.48.7.8.77Z"/>
                <path class="cls-186" d="M325.38,200.4c1.22.83,2.2,1.97,3.34,2.95.15.71.11,1.45-.4,2.18-1.67,2.39-5.93,8.3-8.6,7.12-1.04-.46-2.5-.03-3.32-1.44,2.54-2.06,7.24-4.32,7.93-7.58l-7.41,5.68c-.43.12-.64.2-.81.18-.24-.02-.43-.3-.34-.45.51-.92,7.34-6.67,8.74-8.6.46.28.65,0,.89-.05Z"/>
                <path class="cls-104" d="M311.99,204.71c-.44,3.88-9.51,10.26-13.42,5.49,3.53-1.72,12.29-5.38,10.01-9.27,1.54.4,3.62,1.94,3.41,3.77Z"/>
                <path class="cls-99" d="M295.42,208.52c1.97-1.87,4.49-2.77,6.71-4.45,1.72-1.3,3.39-2.78,5.76-3.37-3.23,3.7-7.38,6.39-12.48,7.81Z"/>
                <path class="cls-62" d="M314.18,209.86c.18-.13.39.37.53.45.37.2.18.5-.05.49-.33-.02-.62.05-.93-.04-.45-.13-.07-.52.45-.9Z"/>
                <g>
                  <path class="cls-47" d="M298.35,214.57c.3,3.08-4.19,5.45-6.75,5.48-3.79.04-6.47-1.99-9.48-3.61,4.62-2.03,8.02-4.02,12.2-6.82,1.19,1.63,3.8,2.53,4.03,4.95Z"/>
                  <path class="cls-184" d="M295.75,213.91c-3.41,2.49-7.49,4.89-12.08,3.2-.4-1.31,12.61-4.67,11.29-4.78.48.04.72.4.79,1.59Z"/>
                </g>
              </g>
            </g>
          </g>
          <g>
            <path class="cls-76" d="M297.84,194.09c.13.44-.47.57-.4.99-2.11,1.79-4.22,3.47-6.55,4.84-.02-.36.12-1.26-.02-1.7-.09-.27-.59-.25-.89-.43,2.38-2.24,4.19-5.18,5.62-8.12,2.35,3.92-.15,2.88,2.24,4.42Z"/>
            <path class="cls-102" d="M267.47,183.16c-.22.17.16,1.01.09,1.38-1.63,1.39-5.8-.07-4.96,1.61-1.93.12-19.96,1.3-16.88,5.73,6.13,8.81,21.35,8.7,30.72,7.8-.19.75,0,1.53.11,2.82,1.46.69,7.85-2.82,7.19-1.44-2.68,1.31-5.74,2.22-8.78,2.63-9.79,1.3-19.92-.08-28.73-5.06-3.82-2.16-6.5-4.15-5.88-8.4-.09-4.47,16.29-6.31,19.45-6.66,2.57-.29,5.12-.32,7.68-.4Z"/>
            <path class="cls-212" d="M295.6,189.68c-1.43,2.94-3.24,5.88-5.62,8.12-1.68,1.58-4.3,2.31-6.26,3.27.66-1.38-5.73,2.14-7.19,1.44-.1-1.29-.3-2.08-.11-2.82,1.5-.14,3.48-1.34,4.91-1.82,2.83-.96,5.98-2.45,7.66-5.22,1.14-1.88-.91-3.76-2.46-4.17l-4.7-1.24c-6.28-1.66-12.89-1.91-19.25-1.07-.83-1.68,3.33-.22,4.96-1.61.07-.38-.31-1.21-.09-1.38,6.33-.19,24.68.74,28.13,6.51Z"/>
            <path class="cls-218" d="M290.89,199.92c1.16-.68-6.74,5.36-3.54,5.38.2.35-.2.27-.32.41-.22.26-.71-.54-.88-.5-2.52.58-5.58,4.86-10.15,6.1-.72-.54-.48-1.17-.21-1.98.55-1.63.14-3.41.29-5.01-.81,0-1.27-.11-1.15-.62,3.05-.41,6.11-1.31,8.78-2.63,1.95-.96,4.57-1.69,6.26-3.27.3.18.8.16.89.43.14.44,0,1.34.02,1.7Z"/>
            <g>
              <path class="cls-145" d="M274.94,203.69c-.12.52.33.63,1.15.62-.15,1.6.26,3.38-.29,5.01-.27.81-.51,1.43.21,1.98-.45.12-.85.48-1.05.91-8.72,1.01-17.85,1.99-25.77-1.64l-5.3-2.43c-.77-.35-1.2-.95-1.75-1.37-1.19-.9-2.39-2.39-2.23-4.05.36-3.66,0-7.32-.1-10.99-.01-.47-.14-1.35.52-1.51-.62,4.26,2.06,6.24,5.88,8.4,8.81,4.98,18.94,6.37,28.73,5.06Z"/>
              <path class="cls-206" d="M255.02,202.7c-.08,1.38.6,10.48-1.3,8.24.73-2.11.28-4.39.18-6.45.58-.57,0-1.55,1.12-1.79Z"/>
              <path class="cls-163" d="M247.76,209.34c-.57-3.16-.54-6.03.42-9.24.64,3.17.62,6-.42,9.24Z"/>
            </g>
            <path class="cls-142" d="M281.84,187.23c.1.52-.19,1.18-.28,1.6.81,1.09,2.95,1.29,3.53,2.71.88,3.03-3.87,5.6-3.75,6.33-1.44.49-3.41,1.68-4.91,1.82-9.37.9-24.59,1.01-30.72-7.8-3.08-4.43,14.95-5.61,16.88-5.73,6.36-.84,12.97-.59,19.25,1.07Z"/>
            <path class="cls-84" d="M281.34,197.87c-.12-.73,4.64-3.3,3.75-6.33-.59-1.42-2.72-1.62-3.53-2.71.09-.42.38-1.07.28-1.6l4.7,1.24c1.55.41,3.6,2.29,2.46,4.17-1.68,2.77-4.82,4.26-7.66,5.22Z"/>
          </g>
          <g>
            <g>
              <path class="cls-196" d="M229.31,214.22c-.08.3-.27.75-.01,1.08-.85.74-1.67,1.78-2.04,2.91-.45.22-.88.39-1.39.37,2.27-4.63-.13-7.92,2.8-15.47,1.32.95-.66,10.15.65,11.1Z"/>
              <path class="cls-55" d="M230.38,199.83c-.33,4.81-.48,9.61-1.06,14.39-1.31-.95.67-10.15-.65-11.1-2.93,7.56-.53,10.84-2.8,15.47-.64.71-1.76,1.46-2.55,1.79-3.36,1.39-6.62,3.17-10.19,3.72l.84-12.42c.11-1.59.42-3.02.24-4.5,4.97-1.73,10.01-3.51,14.39-6.8.33-.25.93-1.16,1.15-1l.62.45Z"/>
              <path class="cls-54" d="M230.38,199.83l-.62-.45c-.22-.16-.82.76-1.15,1-4.39,3.29-9.42,5.07-14.39,6.8-2.44.85-5.16,1.07-7.66,1.64-.1-.57.45-1.04.2-1.62.46.49,1.37-.42,1.86-.35.86.13,2.01-.47,2.87-.59.75-.1,1.39-.5,1.99-.67.79-.22,2.13-.19,2.78-.84.33-.32,1.45.31,1.61-.55.4.14,1.01-.41,1.38-.39.79.05,1.53-.41,2.01-.89,1.9-.03,8.74-3.98,8.91-6.11.26.97.29,1.91.21,3.01Z"/>
              <path class="cls-141" d="M214.21,207.18c.18,1.48-.13,2.91-.24,4.5l-.84,12.42c-1.05.16-2.17,1.36-3.45,1.14l.57-13.31c.02-.56-.21-1.34-.59-1.4-.32-.05-1.06.43-1.08.94l-.64,13.79c-.78.75-2.02.57-3.01.85-.85-1.59,3.05-16.73-.73-13.73-.98,4.52-.91,9.33-1.08,13.91-4.74.84-9.63.58-14.42.25.08-4.87-.11-9.8.53-14.74.84-.39.46-1.14.52-1.61,5.65.25,11.3-.1,16.81-1.36,2.51-.57,5.22-.79,7.66-1.64Z"/>
              <path class="cls-124" d="M170.13,206.67c-1.08,3.41-.35,11.34-1.17,15.79-3.36-1.63-6.47-3.74-9.7-5.62-.68-2.31.23-4.69-.31-7-.1-.43-.02-.57-.01-.92.05-2.64.64-5.42.5-8.06,1.84,1.02,9.16,5.39,10.7,5.82Z"/>
              <path class="cls-46" d="M179.22,208.77c0,.72.02,1.52-.55,2.33l-.64,13.32c-.4.21-.52.47-.44.72-2.92-.44-5.88-1.35-8.64-2.68.82-4.45.1-12.38,1.17-15.79,2.98.84,6.05,1.48,9.09,2.1Z"/>
              <path class="cls-85" d="M189.74,210.18c-.06.47.31,1.22-.52,1.61-.64,4.94-.44,9.87-.53,14.74l-5.8-.4c.53-4.48-.19-9.09.63-13.68.21-1.15,1.32-2.03.46-3.09,1.89.24,3.83.74,5.76.82Z"/>
              <path class="cls-14" d="M183.99,209.36c.86,1.07-.25,1.95-.46,3.09-.83,4.59-.1,9.19-.63,13.68-1.83-.13-3.54-.73-5.29-.99-.09-.25.04-.51.44-.72l.64-13.32c.56-.81.54-1.61.55-2.33,1.58.32,3.18.4,4.76.6Z"/>
              <path class="cls-194" d="M204.92,226.11c-.61.17-1.2.07-1.81.18.17-4.58.11-9.39,1.08-13.91,3.78-3-.12,12.14.73,13.73Z"/>
              <path class="cls-37" d="M209.68,225.24c-.51-.09-1.26.29-1.74.01l.64-13.79c.02-.5.76-.99,1.08-.94.38.06.61.83.59,1.4l-.57,13.31Z"/>
              <path class="cls-2" d="M165.24,201.68c1.59,2.28,4.6,2.47,6.93,3.25,2.56.86,5.11,1.76,8.1,2.3.84.15,1.87-.38,2.3-.03,1.36,1.1,3.53.53,4.94.79,1.17.22,2.3.12,3.43.13,1.29.01,2.49.49,3.79.17.79-.2,1.99.4,2.72-.3,1.93.68,4.34.14,6.37-.28.83-.17,1.86.27,2.38-.61.13-.22.44-.01.55.1.25.58-.3,1.04-.2,1.62-5.51,1.26-11.16,1.61-16.81,1.36-1.93-.09-3.87-.59-5.76-.82-1.59-.2-3.18-.27-4.76-.6-3.04-.62-6.11-1.26-9.09-2.1-1.54-.43-8.86-4.8-10.7-5.82-.11-2.09-.74-3.6-.29-5.68.62-2.83.12-5.92,1.29-8.64.91.63.16,1.93.85,2.93.81-.43,1.57-1.19,2.2-.99.52.17,1.8.69,1.81,1.26.04,2.1.32,4.22-.17,6.35-.29,1.24-.33,4.98.1,5.6Z"/>
            </g>
            <g>
              <path class="cls-77" d="M215.49,176.75c-.47.5-.58,1.16-.51,1.84-8.33-1.87-16.79-2.24-25.26-1.78-3.74.2-19.42.77-21.3,5.49-.4,1.01,1.15,1.76,1.62,2.19,10.02,9.14,32.68,11.04,46.86,6.53,1.6-.51,3.22-.97,5.03-1.98l.79,1.44c-4.35,2.93-9.52,4.38-15.14,4.87-5.01.43-10.06.7-14.88.08-8.52-1.1-24.91-5.61-30.8-12.8-.16-.2-.65.28-.78-.04.38-2.06,5.27-4.4,4.99-4.29,7.54-2.74,15.54-3.74,23.56-4.09,8.42-.36,17.4.44,25.82,2.54Z"/>
              <path class="cls-75" d="M230.27,193.26c-.12,1.03-.38,2.54-.11,3.56-.17,2.13-7.02,6.09-8.91,6.11-.01-.31.24-.68.4-1.06l.69-7.53c3.26-3.19,4.61-3.63,7.18-7.03.05,1.88.99,3.94.75,5.95Z"/>
              <path class="cls-116" d="M225.49,180.28c1.82.99,2.29,2.24,3.13,3.98-.57,3.44-3.54,4.63-5.9,6.22l-.79-1.44c1.17-.65,2.98-1.8,3.4-3.35,1.2-4.43-7.68-6.26-10.35-7.1-.06-.68.05-1.33.51-1.84,3.45.86,6.81,1.79,10,3.53Z"/>
              <path class="cls-103" d="M216.9,191.02c-14.17,4.51-36.83,2.61-46.86-6.53,1.6.13.93-2.06,5.06-3.35,4.98-1.56,10-2.48,14.97-2.63,7.58-.24,21.63.69,28.53,5.21,1.6,1.05,2,2.84.9,4.34-.83,1.14-2,1.85-2.6,2.96Z"/>
              <path class="cls-170" d="M192.7,195.43c-.14.84.09,1.81-.18,2.67-.37.17-.87-.03-.94.49-.44-.06-.92-.45-1.62-.24-1.1.34-2.58-5.09-2.46,9.66-1.41-.26-3.58.31-4.94-.79-.43-.35-1.46.18-2.3.03-2.99-.54-5.54-1.44-8.1-2.3-.52-1.85.75-11.37-.01-12.14-3.21-3.27-1.23,6.97-2.69,6.92-.95-2.79.26-5.05-.15-7.83-.93-.44-1.71-1.36-2.73-1.66-.81,1.34.14,12.79-1.35,11.47-.43-.62-.39-4.36-.1-5.6.49-2.13.21-4.25.17-6.35-.01-.57-1.29-1.09-1.81-1.26-.63-.2-1.4.56-2.2.99-.69-1,.06-2.29-.85-2.93.37-.85.07-2.19.27-3.09.37.11.36-.6.41-.86.13.32.62-.15.78.04,5.89,7.18,22.27,11.7,30.8,12.8Z"/>
              <path class="cls-31" d="M229.52,187.31c-2.58,3.4-3.92,3.84-7.18,7.03l-.69,7.53c-.15.38-.41.75-.4,1.06-.47.48-1.22.94-2.01.89-.28-1.75,1.3-7.62-.39-7.23-.46.11-.34.71-.39,1.23l-.61,6.4c-.16.86-1.28.23-1.61.55-1.88-.62.01-4.77-.78-6.93-2.69-1.21-.77,6.58-2,7.76-.6.17-1.24.57-1.99.67-1.23-1.39.15-7.16-.65-7.91-2.06-1.92-1.92,7.65-2.22,8.5-.48-.08-1.39.84-1.86.35-.11-.11-.42-.32-.55-.1l.02-7.42c0-.84-1.97-.87-2.01-.11l-.39,8.14c-2.03.41-4.44.96-6.37.28-1.29-1.96,1.03-8.92-.76-9.19-.28-.04-1.06-.03-1.11.57l-.84,8.92c-1.3.32-2.51-.15-3.79-.17.58-3.12.27-6.37.65-9.54.06-.52.57-.32.94-.49.27-.86.04-1.83.18-2.67,4.82.62,9.87.35,14.88-.08,5.62-.48,10.79-1.94,15.14-4.87,2.36-1.59,5.33-2.78,5.9-6.22.61,1.25.86,1.61.9,3.06Z"/>
              <path class="cls-189" d="M214.98,178.59c2.67.84,11.55,2.67,10.35,7.1-.42,1.55-2.23,2.7-3.4,3.35-1.81,1-3.43,1.47-5.03,1.98.61-1.11,1.77-1.82,2.6-2.96,1.1-1.51.7-3.29-.9-4.34-6.9-4.52-20.95-5.45-28.53-5.21.04-.59-.03-1.2-.35-1.7,8.46-.46,16.93-.09,25.26,1.78Z"/>
              <path class="cls-67" d="M189.72,176.81c.33.5.39,1.1.35,1.7-4.97.15-10,1.07-14.97,2.63-4.12,1.29-3.46,3.48-5.06,3.35-.47-.43-2.02-1.18-1.62-2.19,1.88-4.73,17.56-5.29,21.3-5.49Z"/>
              <path class="cls-134" d="M211.48,206.27c-.86.12-2.02.72-2.87.59.3-.84.17-10.42,2.22-8.5.8.75-.58,6.52.65,7.91Z"/>
              <path class="cls-82" d="M216.25,204.77c-.65.64-1.99.61-2.78.84,1.23-1.18-.69-8.97,2-7.76.79,2.16-1.1,6.31.78,6.93Z"/>
              <path class="cls-80" d="M219.25,203.82c-.38-.02-.98.53-1.38.39l.61-6.4c.05-.52-.08-1.12.39-1.23,1.69-.39.11,5.48.39,7.23Z"/>
              <path class="cls-237" d="M172.16,204.93c-2.32-.78-5.34-.97-6.93-3.25,1.49,1.32.54-10.13,1.35-11.47,1.02.3,1.8,1.22,2.73,1.66.41,2.79-.8,5.04.15,7.83,1.45.05-.53-10.18,2.69-6.92.76.77-.5,10.29.01,12.14Z"/>
              <path class="cls-106" d="M191.59,198.59c-.37,3.18-.06,6.42-.65,9.54-1.14-.01-2.26.09-3.43-.13-.11-14.74,1.36-9.32,2.46-9.66.69-.21,1.18.18,1.62.24Z"/>
              <path class="cls-209" d="M206.2,207.11c-.53.88-1.56.44-2.38.61l.39-8.14c.04-.76,2.01-.72,2.01.11l-.02,7.42Z"/>
              <path class="cls-24" d="M197.45,208c-.72.7-1.92.1-2.72.3l.84-8.92c.06-.6.83-.61,1.11-.57,1.79.27-.52,7.23.76,9.19Z"/>
            </g>
          </g>
        </g>
      </g>
      <path class="cls-150" d="M40.54,169.25c3.68-7.28,11.03-11.91,18.64-14.16,7.61-2.26,15.61-2.47,23.5-3.07,15.07-1.15,30.37-3.89,43.58-11.51,14.09-8.12,24.98-21.37,32.8-36,7.82-14.63,12.81-30.69,17.27-46.76.32-1.16.91-2.56,2.07-2.62.71-.04,1.33.48,1.87.97,7.79,7.05,15.63,14.15,22.02,22.58,3.68,4.85,6.88,10.19,8.65,16.09,2.98,9.95,1.65,20.91-2.04,30.61-3.7,9.7-9.62,18.31-15.93,26.43-6.82,8.77-14.25,17.18-23.21,23.54-8.96,6.36-19.62,10.57-30.46,10.24-24.05-.75-42.91-22.79-66.59-27.2-6.49-1.21-13.71-.86-18.93,3.33-.67.54-1.35,1.24-1.34,2.12s1.18,1.62,1.73.94"/>
      <path class="cls-150" d="M180.64,57.93c12.21-2.26,23.56,6.72,32.16,15.98,16.16,17.4,30.07,38.54,51.39,48.25,12.78,5.82,26.92,6.77,40.68,5.46,7.29-.69,14.51-2.03,21.67-3.61,9.97-2.2,7.4-.13,11.92,8.05,1.82,3.29,4.56,6.19,8.04,7.37.52-.68.56-1.71.1-2.44"/>
      <path class="cls-150" d="M210.34,118.32c-1.6.19-1.63,2.61-1.12,4.19,5.84,18.19,20.71,32.53,38.07,39.05,17.36,6.52,36.87,5.63,54.36-.58,17.49-6.21,33.04-17.5,46.16-31.02,1.3-1.34,2.63-2.79,3.12-4.63.49-1.84-.18-4.15-1.9-4.81-4.8,4.91-10.88,8.45-17.4,10.16,1.14.3,2.58.48,3.26-.51.68-.99-1.3-2.42-1.51-1.22"/>
      <path class="cls-150" d="M213.28,75.92c-1.81,2.94-.06,6.8,1.91,9.62,10.28,14.7,27.02,24.02,44.42,25.97,6.54.73,13.36.45,19.42-2.21s11.29-8.01,12.74-14.68c-5.1-5.65-13.32-6.33-20.51-8.41-8.23-2.37-15.83-7.04-21.8-13.37,2.01,0,4.01.69,5.61,1.94,2.92-2.47,6.94-2.85,10.7-2.95,10.46-.29,21.15.77,30.7,5.19,9.54,4.42,17.84,12.59,20.78,23.01,2.94,10.42-.44,22.96-9.23,28.85-2.59,1.74-5.53,2.87-8.54,3.57-10.84,2.51-22.77-.83-30.9-8.66.64-.53,1.56-.67,2.32-.36"/>
      <path class="cls-150" d="M263.85,79.38c-.46-.66,0-1.66.71-2s1.54-.22,2.31-.08c9.51,1.69,18.79,4.73,27.5,9.02,4.76,2.34,9.54,5.22,12.41,9.81s3.23,11.28-.47,15.18c-1.34,1.41-3.07,2.34-4.76,3.25-10.01,5.35-20.02,10.69-30.03,16.04.84-.05,1.67-.11,2.51-.16"/>
      <path class="cls-150" d="M176.94,65.22c-1.38-2.67-5.36-1.42-7.6.52-7.29,6.32-10.82,16.01-14.81,24.96-3.99,8.95-9.41,18.2-18.29,21.66-6.62,2.58-14.07,1.44-20.73-1-6.66-2.44-12.84-6.1-19.43-8.71-24.5-9.68-54.26-2.88-72.63,16.58-1.85,1.96-3.62,4.09-4.5,6.67,5.72-2.28,12.11-1.76,18.13-.6,13.17,2.52,25.66,7.84,38.5,11.78,12.84,3.94,26.54,6.5,39.6,3.38,13.08-3.13,24.77-12.14,31.44-24.24"/>
      <path class="cls-150" d="M165.07,41.66c-5.25-7.86-12.16-14.35-18.08-21.68,4.88,6.29,14.97,7.2,20.84,1.87-.53,2.44.05,4.99.83,7.35,4.73,14.35,16.44,25.1,22.29,38.99-.9.72-2.15-.47-2.32-1.63-2.42,3.72-6.85,5.92-11.15,5.56-2.14-.18-8.21-2.09-8.65-4.88-.48-3.04,2.11-1.3,2.7-3.54,1.9-7.32-2.31-15.84-6.44-22.04Z"/>
      <path class="cls-150" d="M194.13,97.44c-.65,2.1-1.3,4.21-1.95,6.31"/>
      <path class="cls-150" d="M187.08,133.17c-2.17,4.81-5.57,9.01-9.75,12.07"/>
      <path class="cls-150" d="M39.21,165.41c-1.8-.07-3.61-.14-5.41-.21,23.75-1.76,46.61,8.41,68.6,17.85,1.26.54,2.56,1.09,3.93,1.08,1.2,0,2.36-.44,3.48-.88,2.63-1.01,5.25-2.01,7.88-3.02,3.81-1.46,8.39-4.17,7.83-8.34"/>
      <path class="cls-150" d="M255.03,183.36c-12.96,1.57-16,6.78-13.98,20.46-.42-2.02-3.05-3.13-4.71-1.99,13.28,12.98,34.73,15.91,50.83,6.95,1.31-.73,2.77-1.88,2.61-3.42,2.18-.06,4.33-.86,6.06-2.24-.46-3.37-.09-11.36-1.94-14.07-1.99-2.91-8.09-3.48-11.43-4.22-8.96-1.97-18.32-2.67-27.43-1.48Z"/>
      <path class="cls-150" d="M281.33,186.48c-1.25-1.42-3.3-2.03-5.09-1.51"/>
      <path class="cls-150" d="M188.07,179.75q-.44-.5,0,0"/>
      <path class="cls-150" d="M241.85,189.19c-1.32-1.22-3.5.78-3.17,2.58.32,1.8,1.98,2.96,3.51,3.86,7.84,4.58,16.57,7.74,25.55,8.27,8.99.54,18.25-1.67,25.66-6.99-.86-.1-1.71-.21-2.57-.31,3.39-.92,5.7-4.9,4.9-8.43"/>
      <path class="cls-150" d="M221.39,194.66c-.29.12-.58.24-.88.36-10.55,4.27-22.48,3.79-33.34,1.19-5.98-1.43-12.05-3.62-17.07-7.38-1.74-1.3-5.98-4.23-6.47-6.56-.93-4.48,1.02-2.69,4.24-3.77,13.86-4.65,28.17-3.99,42.5-2.92,2.71.2,6.05.92,6.73,3.64.54-.3,5.23-3.93,5.77-4.23,2.88.42,1.49,4.45,2.22,6.14.42.97,2.51,3.96,2.68,4.58,1.43,5.21-1.12,6.78-6.38,8.95Z"/>
      <path class="cls-150" d="M163.92,179.48c-1.32.82-1.26,2.79-1.07,4.38,1.5,12.41.73,25.12-2.26,37.25-.31,1.27-.64,2.64-.17,3.85.49,1.26,1.72,2.01,2.89,2.64,7.82,4.23,16.25,7.22,24.93,8.86,5.73,1.08,11.66,1.56,17.38.41,14.91-2.99,26.64-18.17,26.23-33.92-.08-3.06-.56-6.08-1.04-9.1-.72-4.52-1.44-9.03-2.16-13.55"/>
      <path class="cls-150" d="M157.76,195.92l-3.17-2.56c9.28,11.17,23.82,16.88,38.04,16.7,14.22-.18,28.06-5.83,39.75-14.27-1.16-.62-2.32-1.24-3.48-1.86"/>
      <path class="cls-150" d="M152.27,217.16c15.35,5.45,31.23,10.52,47.44,9.79,16.21-.73,33.03-8.3,41.12-22.92-1.1-.42-2.4-.22-3.33.51"/>
      <path class="cls-150" d="M250.7,227.37c14.3-3.1,26.23-13.08,37.07-23.26,17.75-16.67,34.27-34.75,49.37-54.03-1.18-.23-2.03,1.74-1.07,2.5,4.59,3.62,9.69,3.56,15.39,4.46,5.05.8,10.19.78,15.3.53,14.1-.68,28.07-3.04,42-5.4-2.69.52-5.38,1.03-8.07,1.55.72-1.03,7.5-3.05,8.22-4.07,1.21,19.83-6.37,39.46-17.83,55.38-11.47,15.92-26.63,28.55-42.24,40.07-15.51,11.44-31.72,22-49.15,29.9-2.52,1.14-5.25,2.25-7.94,1.67,1.68-.77,3.82-.23,4.97,1.24-19.11-9.96-35.97-24.52-48.87-42.22,1.15.05,1.7-8.37,2.86-8.32Z"/>
      <path class="cls-150" d="M243.99,247.23c-.28-.85-1.26-1.36-2.09-1.11,11.82,16.74,21.83,34.86,29.81,53.9-1.21-.52-2.41-1.04-3.62-1.57,22.82,4.12,45.73-6.78,64.88-20.36,9.21-6.53,17.97-13.75,26.19-21.57,13.86-13.2,26.41-28.51,33.28-46.69,1.27-3.37,2.35-7.15,1.12-10.54,1.45.18,2.88-1.26,2.75-2.77"/>
      <path class="cls-150" d="M282.9,298.79c2.08,4.65,6.85,7.17,10.99,9.97,2.39,1.62,4.65,3.42,6.77,5.4,3.95,3.69,9.42-.58,14.05-3.29,16.79-9.85,30.6-24.64,41.32-41.29,10.72-16.65,18.49-35.18,24.92-54.06"/>
      <path class="cls-150" d="M377.1,201.63c4.67-10.39,9.34-20.79,14.02-31.18-19.95,4.36-37.15-.97-55.1-9.34-3.49,8.78-7.88,21.43.41,28.66,3.51,3.06,38.49,16.72,40.67,11.86Z"/>
      <path class="cls-150" d="M293.5,224.66c5.31-7.39,11.75-13.9,19-19.22-.24.52-2.39-2.46-2.63-1.94-.08-.59-.16-1.17-.24-1.76-.64-.74-1.71.04-2.32.82-2.76,3.51-4.99,7.57-6.55,11.95-.49,1.37-.92,2.85-.69,4.3.34,2.17,2.16,3.71,4.03,4.06s3.8-.27,5.58-1.06c7.46-3.32,13.8-9.97,17.42-18.26.47-1.07.88-2.38.36-3.39-.52-1.02-2.33-.62-2.09.54.71.4.9,1.67.35,2.34"/>
      <path class="cls-150" d="M299.98,230.95c.37.31-.47.8-.72.37s.04-.95.32-1.35c5.39-7.77,10.92-15.43,16.59-22.98-.49,1.14-.76,2.37-.81,3.62"/>
      <path class="cls-150" d="M274.07,254.3c-1.19.07-2.38.13-3.57.2,8.27-6.2,16.53-12.4,24.8-18.6.26-.2.56-.49.46-.81s-1.13,1.16-.86,1.35c.4-.25.81-.5,1.21-.74-3.78-3.86-7.27-8.02-10.43-12.43-.76.21-3.65,2.79-3.69,3.6-6.73,3.47-10.62,7.62-16.65,12.28,3.34,3.13,6.67,6.26,10.01,9.38-.43-1.16-1.14-2.21-2.04-3.02"/>
      <path class="cls-150" d="M292.9,265.27l-2.89,4.13c34.48-18.18,65.69-43.02,91.57-72.87-1.33-1.03-3.39-.85-4.54.39.67.9.4,2.38-.54,2.97"/>
      <path class="cls-150" d="M292.32,259.66c26.73-11.52,50.8-29.68,69.62-52.52.66-.8.6-2.68-.3-2.2"/>
      <path class="cls-150" d="M285.92,255.07c23.63-9.08,44.7-25.23,60.03-46.01"/>
      <path class="cls-150" d="M152.86,188.92c-14.55-8.23-33.2-5.98-46.13,5.57-1.87,1.67-3.77,3.86-3.77,6.58,13.67.9,27.36,1.55,41.06,1.94,3.09.09,6.19.16,9.26-.25,1.51-.2,3.12-.59,4.18-1.85,1.43-1.71,1.35-4.58.29-6.6s-2.86-3.35-4.68-4.43c-4.14-2.46-8.69-4.01-13.35-4.54.6.99,1.68,1.55,2.73,1.42"/>
      <path class="cls-150" d="M103.47,198.75l-4.86,51.57c8.66,8.15,20.86,10.06,31.9,7.53,11.04-2.53,21.13-9.01,30.52-16.23-1.39-1.59-1.45-4.11-1.42-6.38.18-15.4.37-30.8.55-46.2,0-.76-.14-1.74-.79-1.86s-.36,1.53.02.91"/>
      <path class="cls-150" d="M95.04,222.07c24.03,8.21,51.14,4.04,72.67-11.16-1.64-.13-3.48-7.6-5.12-7.74.62-1.36,2.27-1.93,3.42-1.17-3.34,4.81-8.47,7.5-13.58,9.27-5.56,1.93-11.34,3-17.12,3.15-8.66.23-17.23-1.55-25.73-3.33-4.61-.96-9.23-1.93-13.84-2.89"/>
      <path class="cls-150" d="M97.13,233.49c1.31,3.99,4.49,6.77,7.84,8.58,9.87,5.33,21.51,3.78,32.17.78,10.32-2.9,20.39-7.06,29.99-12.38-1.74.14-3.51-.13-5.15-.81"/>
      <path class="cls-150" d="M107.18,215.31c-3.47-1.27-6.99-2.13-10.54-2.57-7.72-.96-15.52.04-23.3.72-9.62.85-19.23,1.2-28.83,1.08-5-.07-10.07-.29-14.77-2.98,9.33-4.66,19-4.75,28.55-5.5,16.87-1.32,33.76-4.79,50.49-10.38-19.07,1.97-37.9-4.32-56.96-3.84-8.33.21-16.67,1.71-24.99,3.2,3.3-2.66,6.95-3.66,10.44-2.85"/>
      <path class="cls-150" d="M151.91,21.28c-2.39,1.08-5.14,1.27-7.65.54,8.32-1.11,16.68-1.87,25.06-2.26-1.2,1.14-2.2,2.5-2.94,4.01.57.18,1.24-.01,1.64-.47"/>
      <path class="cls-150" d="M239.79,28.79c3.59,3.08,6.19,7.38,7.28,12.09.14.59.25,1.21.14,1.8-.17.88-.81,1.56-1.42,2.19-7.92,8.18-15.83,16.36-23.75,24.55,14.55-7.76,28.72-16.28,42.45-25.52-3.38-5.28-6.27-10.89-8.62-16.74,8.18-5.67,16.36-11.34,24.54-17.01-4.39,3.04-16.2-7.06-19.38-9.29-1.11,5.21-.44,6.79-4.66,11.1-5.51,5.63-11.05,11.23-16.58,16.84Z"/>
      <path class="cls-150" d="M99.45,48.58c.47.51.98,1.04,1.65,1.16.84.16,1.65-.35,2.38-.82,3.44-2.21,7.17-3.93,11.05-5.09,1.27-.38,2.62-.7,3.89-.36,1.5.4,2.64,1.62,3.64,2.85,7.06,8.61,11.49,19.66,20.1,26.58-4.12-12.9-8.24-25.8-12.37-38.69-.34-1.08-.72-2.21-1.56-2.95-.87-.77-2.07-.96-3.2-1.09-4.67-.53-9.4-.5-14.06.1-.03-5.15-.29-10.3-.77-15.43-.08-.86-.25-1.84-.97-2.26-.88-.51-1.94.16-2.75.78-3.71,2.84-20.25,9.06-20.88,12.24-.28,1.41,4.7,9.46,5.49,10.98,2.25,4.36,5.07,8.42,8.35,12.01Z"/>
      <path class="cls-150" d="M369.12,268.09c-3.68,7.81-7.37,15.63-11.05,23.44,5.8-6.58,12.01-12.77,18.59-18.5-11.73,41.21,49.26,23.02,61.12,15.37"/>
      <path class="cls-150" d="M285.11,279.53c-65.25,6.31-195.18,10.85-260.69,8.87,38.04-12.77,142.39-18.06,182.44-19.12-47.62-6.58-95.56-10.7-143.59-12.35,13.57-6.59,26.21-15.16,37.39-25.37"/>
    </g>
  </g>
</svg>