<?xml version="1.0" encoding="UTF-8"?>
<svg id="Ebene_2" data-name="Ebene 2" xmlns="http://www.w3.org/2000/svg" viewBox="0 0 116.31 115.86" fill="#686C6A">
  <g id="Ebene_2-2" data-name="Ebene 2">
    <path d="M116.31,54.77v6.81c-.13.23-.16.66-.19,1.01-2.1,27.74-23.31,49.39-50.23,53.27h-.63l-.02-45.54,13.99-.03,2.09-16.22h-16.08s.03-12.14.03-12.14c.5-4.37,3.22-6.08,7.42-6.11l9.19-.06v-14.48c-4.58-.47-9.06-.72-13.7-.61-2.73.07-5.3.59-7.8,1.56-8.16,3.17-11.85,10.95-11.87,19.37l-.04,12.47h-14.01s.03,16.23.03,16.23h13.99s0,45.14,0,45.14C21.71,110.85,1.68,88.47.13,61.5c-.12-2.11-.2-4.15-.03-6.26l.16-1.98C2.48,25.01,25.23,2.39,53.49.25l1.99-.15c1.78-.13,3.62-.13,5.39,0l1.99.15c28.36,2.14,51.02,24.91,53.26,53.25.04.45.09.91.2,1.27Z"/>
  </g>
</svg>