<svg preserveAspectRatio="none" width="100%" height="100%" overflow="visible" style="display: block;" viewBox="0 0 96 96" fill="none" xmlns="http://www.w3.org/2000/svg">
<path id="Vector" d="M47.989 96L44.7562 93.4499L41.1528 95.5042L38.3211 92.5362L34.4604 94.0354L32.0722 90.7036L28.049 91.6478L26.1517 87.9962L22.032 88.3549L20.6982 84.4715L16.5566 84.2481L15.7831 80.2293L11.7379 79.4086L11.4958 75.2933L7.6165 73.943L7.97362 69.8226L4.31771 67.9224L5.27231 63.9002L1.91597 61.5075L3.46297 57.6731L0.47053 54.8269L2.52698 51.2531L0 47.9755L2.5456 44.7283L0.468838 41.1866L3.44604 38.2558L1.91597 34.4705L5.27569 32.0575L4.33463 28.0556L7.99055 26.1367L7.6165 22.0316L11.4958 20.6931L11.7514 16.5491L15.7611 15.791L16.5836 11.7214L20.6881 11.5133L22.0455 7.60446L26.1466 8.00381L28.027 4.35048L32.0841 5.27947L34.4215 1.94088L38.2805 3.44688L41.1578 0.478875L44.7241 2.52974L48.0144 0L51.2269 2.53313L54.8405 0.473798L57.6501 3.44519L61.5447 1.9375L63.9159 5.27777L67.929 4.32679L69.8196 7.96658L73.9477 7.62646L75.317 11.5133L79.4214 11.7248L80.2305 15.7859L84.2537 16.5576L84.4923 20.6898L88.3649 22.0232L87.9942 26.1317L91.6654 28.0387L90.704 32.0508L94.0603 34.4553L92.5286 38.2846L95.521 41.1426L93.4527 44.7299L96 47.9755L93.4646 51.2531L95.521 54.8117L92.5472 57.6562L94.0468 61.4973L90.7125 63.9374L91.6671 67.9241L87.9925 69.8396L88.3666 73.9312L84.4703 75.3018L84.2621 79.4018L80.2406 80.1836L79.4147 84.2413L75.3136 84.4613L73.9376 88.3549L69.8433 87.9759L67.9358 91.6563L63.9346 90.6698L61.5176 94.0625L57.6958 92.521L54.8337 95.4907L51.2404 93.4432L47.9822 95.9915L47.989 96ZM77.343 78.8993C87.0684 69.6788 91.926 56.4565 90.335 42.894C88.8811 30.5042 81.7893 19.0805 71.1482 12.1935C53.7268 0.920522 30.8214 3.91222 16.8121 18.9147C2.85195 33.8664 1.50807 56.7898 13.6369 73.234C28.7971 93.7867 58.5878 96.6802 77.343 78.8976V78.8993Z" fill="var(--fill-0, black)"/>
</svg>
