<svg preserveAspectRatio="none" width="100%" height="100%" overflow="visible" style="display: block;" viewBox="0 0 87.0489 58" fill="none" xmlns="http://www.w3.org/2000/svg">
<g id="Group">
<path id="Vector" d="M47.4844 1.48726H39.7386V56.6783H47.4844V1.48726Z" fill="var(--fill-0, #45A117)"/>
<path id="Vector_2" d="M24.0166 12.176C18.4721 6.43985 14.2731 0 14.2731 0H0V2.95973C0 2.95973 2.99802 9.06842 11.9065 18.2817C16.9731 23.5241 21.8567 27.2319 24.353 29C21.8567 30.7682 16.9731 34.4759 11.9065 39.7183C2.99802 48.9286 0 55.0373 0 55.0373V57.997H14.2731C14.2731 57.997 18.4691 51.5572 24.0166 45.8211C29.6822 39.9608 35.4038 36.253 35.4038 36.253V21.7441C35.4038 21.7441 29.6852 18.0363 24.0166 12.176Z" fill="var(--fill-0, #45A117)"/>
<path id="Vector_3" d="M63.0323 12.176C68.5768 6.43985 72.7758 0 72.7758 0H87.0489V2.95973C87.0489 2.95973 84.0509 9.06841 75.1424 18.2817C70.0758 23.5241 65.1922 27.2319 62.6959 29C65.1922 30.7681 70.0758 34.4759 75.1424 39.7183C84.0479 48.9316 87.0489 55.0403 87.0489 55.0403V58H72.7758C72.7758 58 68.5798 51.5602 63.0323 45.824C57.3667 39.9637 51.6451 36.2559 51.6451 36.2559V31.874V26.129V21.747C51.6451 21.747 57.3637 18.0393 63.0323 12.1789V12.176Z" fill="var(--fill-0, #45A117)"/>
</g>
</svg>
