<svg preserveAspectRatio="none" width="100%" height="100%" overflow="visible" style="display: block;" viewBox="0 0 400.428 56.9792" fill="none" xmlns="http://www.w3.org/2000/svg">
<g id="Group">
<g id="Vector">
</g>
<g id="Vector_2">
</g>
<g id="Vector_3">
</g>
<path id="Vector_4" d="M44.3094 14.3514L46.8972 4.9548L37.1035 1.87089L34.554 11.4804L44.3094 14.3514Z" fill="var(--fill-0, #45A117)"/>
<path id="Vector_5" d="M45.0087 19.0586H17.1472V16.5158C17.1472 14.4756 17.7934 12.9292 19.0829 11.8766C20.3724 10.824 22.6032 10.0375 25.3091 10.0375C27.4071 10.0375 29.1806 10.3184 29.5937 10.4307L31.5943 0.794628C30.1071 0.138225 26.4865 -0.113101 23.6507 0.0465647C18.0531 0.365896 13.8895 2.18431 10.6259 5.12925C7.66031 7.80513 5.99309 11.8382 5.99309 16.5128V19.0556H0V26.1016H5.99309V49.2029L0.188847 50.2348V56.2488H25.253V50.2348L17.1472 49.2029V26.1016H34.1409V49.2029L28.8943 50.2348V56.2488H50.7775V50.2348L45.0087 49.2029V19.0556V19.0586Z" fill="var(--fill-0, #45A117)"/>
<path id="Vector_6" d="M95.6299 33.0145C95.6299 27.9733 94.4997 24.2714 92.2423 21.9119C89.9849 19.5524 86.8571 18.3697 82.8646 18.3697C80.3329 18.3697 78.0814 18.896 76.1102 19.9515C74.1391 21.0071 72.4808 22.4825 71.1411 24.3867L70.6571 19.0586H54.767V25.1081L60.5359 26.1401V49.2058L55.3247 50.2377V56.2518H75.7945V50.2377L71.4037 49.2058V29.6793C72.1739 28.5557 73.1329 27.6924 74.2866 27.0833C75.4404 26.4771 76.7978 26.1726 78.3617 26.1726C80.4715 26.1726 82.0591 26.693 83.1243 27.7367C84.1896 28.7805 84.7237 30.5486 84.7237 33.0471V49.2029L80.0702 50.2348V56.2488H100.838V50.2348L95.6269 49.2029V33.0116L95.6299 33.0145Z" fill="var(--fill-0, #45A117)"/>
<path id="Vector_7" d="M137.419 48.2597C137.407 47.7659 137.402 47.2691 137.402 46.7635V31.4327C137.402 27.24 135.876 24.0141 132.825 21.7552C129.774 19.4992 125.616 18.3697 120.358 18.3697C117.33 18.3697 114.589 18.7127 112.134 19.4016C109.679 20.0905 107.395 20.9835 105.285 22.0834L105.432 31.7431H113.249L114.105 26.829C114.848 26.347 115.687 25.9745 116.616 25.7113C117.546 25.4482 118.593 25.3151 119.762 25.3151C122.019 25.3151 123.713 25.871 124.843 26.9827C125.973 28.0945 126.537 29.5433 126.537 31.3321V34.0819H121.213C117.268 34.0819 113.948 34.5876 111.257 35.5958C108.566 36.6041 106.53 37.9908 105.155 39.756C103.777 41.5212 103.089 43.5702 103.089 45.909C103.089 49.3241 104.267 52.0236 106.625 54.0047C108.982 55.9887 112.157 56.9792 116.153 56.9792C118.51 56.9792 120.564 56.5268 122.311 55.622C124.061 54.7172 125.581 53.5079 126.87 51.9941C126.994 52.7273 127.192 53.4606 127.466 54.1939C127.738 54.9272 128.012 55.6161 128.284 56.2577H141.757V50.2437L137.552 49.6937C137.478 49.2354 137.434 48.7594 137.422 48.2685L137.419 48.2597ZM126.534 46.113C125.79 47.145 124.734 47.9758 123.37 48.6056C122.004 49.2354 120.567 49.5518 119.053 49.5518C117.439 49.5518 116.182 49.191 115.276 48.4696C114.37 47.7481 113.919 46.7221 113.919 45.3916C113.919 43.9723 114.533 42.7571 115.76 41.7488C116.988 40.7406 118.794 40.235 121.175 40.235H126.534V46.113Z" fill="var(--fill-0, #45A117)"/>
<path id="Vector_8" d="M186.102 33.0145C186.102 27.9733 184.972 24.2714 182.714 21.9119C180.457 19.5524 177.329 18.3697 173.336 18.3697C170.805 18.3697 168.553 18.896 166.582 19.9515C164.611 21.0071 162.953 22.4825 161.613 24.3867L161.129 19.0586H145.239V25.1081L151.008 26.1401V49.2058L145.797 50.2377V56.2518H166.266V50.2377L161.876 49.2058V29.6793C162.646 28.5557 163.605 27.6924 164.758 27.0833C165.912 26.4771 167.27 26.1726 168.834 26.1726C170.943 26.1726 172.531 26.693 173.596 27.7367C174.661 28.7805 175.195 30.5486 175.195 33.0471V49.2029L170.542 50.2348V56.2488H191.31V50.2348L186.099 49.2029V33.0116L186.102 33.0145Z" fill="var(--fill-0, #45A117)"/>
<path id="Vector_9" d="M221.393 49.0669H210.003L229.765 25.4866V19.0586H196.68V32.4291H204.645L205.875 26.0721H216.74L195.789 50.3383V56.2518H230.624V42.2278H222.993L221.393 49.0669Z" fill="var(--fill-0, #45A117)"/>
<path id="Vector_10" d="M251.595 2.62783H234.92V8.67738L240.727 9.70929V49.2058L235.481 50.2377V56.2518H256.841V50.2377L251.595 49.2058V2.62783Z" fill="var(--fill-0, #45A117)"/>
<path id="Vector_11" d="M285.152 20.3655C282.67 19.0379 279.607 18.3726 275.96 18.3726C272.262 18.349 269.055 19.1591 266.34 20.7972C263.622 22.4352 261.521 24.6824 260.031 27.5357C258.544 30.3889 257.798 33.6591 257.798 37.3492V38.7241C257.798 42.2545 258.585 45.3916 260.161 48.1443C261.737 50.8941 263.962 53.0555 266.842 54.6226C269.719 56.1927 273.08 56.9762 276.928 56.9762C280.176 56.9762 283.062 56.5682 285.579 55.7551C288.096 54.942 290.189 53.9159 291.85 52.68L288.911 46.4915C287.273 47.4081 285.591 48.1029 283.868 48.5701C282.142 49.0402 280.289 49.2738 278.303 49.2738C276.317 49.2738 274.768 48.9131 273.428 48.1916C272.088 47.4702 271.053 46.4738 270.321 45.2024C269.589 43.9309 269.149 42.4821 268.999 40.8529L269.073 40.646H292.741V35.1819C292.741 31.6308 292.095 28.606 290.805 26.1075C289.516 23.6091 287.63 21.696 285.149 20.3655H285.152ZM282.584 34.011H269.149L269.037 33.8395C269.235 32.3049 269.613 30.93 270.173 29.7148C270.731 28.4996 271.507 27.5445 272.498 26.8438C273.49 26.146 274.706 25.7941 276.146 25.7941C277.659 25.7941 278.893 26.0927 279.849 26.6871C280.805 27.2843 281.498 28.127 281.932 29.2151C282.366 30.3032 282.584 31.6042 282.584 33.118V34.011Z" fill="var(--fill-0, #45A117)"/>
<path id="Vector_12" d="M325.896 38.0174C323.612 36.264 319.98 34.8596 314.993 33.807C312.957 33.3723 311.408 32.914 310.34 32.4321C309.271 31.9501 308.56 31.4356 308.2 30.8857C307.84 30.3357 307.66 29.7414 307.66 29.0968C307.66 27.9733 308.168 27.0567 309.186 26.347C310.204 25.6374 311.667 25.2826 313.577 25.2826C314.719 25.2826 315.743 25.3979 316.648 25.6256C317.554 25.8562 318.342 26.1992 319.012 26.6575L320.166 31.5391H327.685L327.572 21.3649C325.861 20.4956 323.745 19.7889 321.228 19.2508C318.708 18.7127 315.937 18.4436 312.91 18.4436C309.286 18.4436 306.315 18.9581 303.995 19.99C301.676 21.0219 299.95 22.385 298.823 24.0792C297.692 25.7764 297.129 27.6539 297.129 29.7177C297.129 32.7189 298.259 35.1848 300.516 37.1097C302.774 39.0345 306.285 40.4567 311.048 41.3733C314.199 41.9706 316.3 42.6625 317.357 43.4519C318.41 44.2414 318.938 45.155 318.938 46.184C318.938 47.2839 318.443 48.2005 317.451 48.9338C316.46 49.6671 314.748 50.0337 312.317 50.0337C311.027 50.0337 309.879 49.9184 308.873 49.6907C307.867 49.4631 306.943 49.1526 306.099 48.7623L304.648 43.3987H297.093L297.206 53.9189C299.587 54.9035 302.074 55.6604 304.668 56.1868C307.262 56.7131 310.059 56.9762 313.06 56.9762C318.469 56.9762 322.532 55.9118 325.247 53.7799C327.965 51.6481 329.322 48.854 329.322 45.3916C329.322 42.2278 328.18 39.7708 325.899 38.0174H325.896Z" fill="var(--fill-0, #45A117)"/>
<path id="Vector_13" d="M360.076 20.3655C357.594 19.0379 354.531 18.3726 350.884 18.3726C347.186 18.349 343.979 19.1591 341.264 20.7972C338.546 22.4352 336.445 24.6824 334.955 27.5357C333.468 30.3889 332.722 33.6591 332.722 37.3492V38.7241C332.722 42.2545 333.509 45.3916 335.085 48.1443C336.661 50.8941 338.886 53.0555 341.766 54.6226C344.643 56.1927 348.004 56.9762 351.852 56.9762C355.1 56.9762 357.986 56.5682 360.503 55.7551C363.02 54.942 365.113 53.9159 366.774 52.68L363.835 46.4915C362.197 47.4081 360.515 48.1029 358.792 48.5701C357.066 49.0402 355.213 49.2738 353.227 49.2738C351.241 49.2738 349.692 48.9131 348.352 48.1916C347.012 47.4702 345.977 46.4738 345.245 45.2024C344.513 43.9309 344.073 42.4821 343.923 40.8529L343.997 40.646H367.665V35.1819C367.665 31.6308 367.019 28.606 365.729 26.1075C364.44 23.6091 362.554 21.696 360.073 20.3655H360.076ZM357.508 34.011H344.073L343.961 33.8395C344.159 32.3049 344.537 30.93 345.097 29.7148C345.655 28.4996 346.431 27.5445 347.422 26.8438C348.414 26.146 349.63 25.7941 351.07 25.7941C352.583 25.7941 353.817 26.0927 354.773 26.6871C355.729 27.2843 356.422 28.127 356.856 29.2151C357.29 30.3032 357.508 31.6042 357.508 33.118V34.011Z" fill="var(--fill-0, #45A117)"/>
<path id="Vector_14" d="M398.38 18.5264C397.61 18.4229 396.905 18.3726 396.258 18.3726C394.225 18.3726 392.475 18.8871 391.012 19.919C389.548 20.9509 388.321 22.4737 387.326 24.4902L387.253 23.6652L386.842 19.0586H370.952V25.1081L376.721 26.1401V49.2058L371.51 50.2377V56.2518H392.797V50.2377L387.586 49.2058V30.9862C388.33 29.9543 389.179 29.1648 390.135 28.6149C391.091 28.0649 392.337 27.8254 393.877 27.8934L399.274 28.1684L400.428 18.9226C399.832 18.7629 399.15 18.6299 398.38 18.5264Z" fill="var(--fill-0, #45A117)"/>
</g>
</svg>
