<svg width="421" height="49" viewBox="0 0 421 49" fill="none" xmlns="http://www.w3.org/2000/svg">
<g clip-path="url(#clip0_1_3)">
<path d="M121.148 12.7921L123.327 4.85354L115.081 2.24817L112.934 10.3665L121.148 12.7921Z" fill="#45A117"/>
<path d="M121.737 16.7688H98.2777V14.6206C98.2777 12.897 98.8219 11.5906 99.9076 10.7013C100.993 9.81201 102.872 9.14755 105.15 9.14755C106.917 9.14755 108.41 9.38486 108.758 9.47978L110.442 1.33893C109.19 0.784378 106.141 0.572052 103.754 0.706942C99.0405 0.976721 95.5348 2.51297 92.7868 5.00094C90.2898 7.26159 88.886 10.6688 88.886 14.6181V16.7663H83.8398V22.719H88.886V42.2355L83.9989 43.1073V48.1882H105.103V43.1073L98.2777 42.2355V22.719H112.586V42.2355L108.169 43.1073V48.1882H126.595V43.1073L121.737 42.2355V16.7663V16.7688Z" fill="#45A117"/>
<path d="M164.36 28.5592C164.36 24.3002 163.409 21.1728 161.508 19.1794C159.607 17.186 156.973 16.1868 153.612 16.1868C151.48 16.1868 149.584 16.6315 147.925 17.5232C146.265 18.415 144.869 19.6615 143.741 21.2702L143.333 16.7689H129.954V21.8797L134.811 22.7515V42.2381L130.423 43.1098V48.1907H147.659V43.1098L143.962 42.2381V25.7415C144.61 24.7923 145.418 24.0629 146.389 23.5483C147.361 23.0362 148.504 22.7789 149.82 22.7789C151.597 22.7789 152.934 23.2186 153.83 24.1004C154.727 24.9821 155.177 26.4759 155.177 28.5867V42.2356L151.259 43.1074V48.1882H168.745V43.1074L164.358 42.2356V28.5567L164.36 28.5592Z" fill="#45A117"/>
<path d="M199.547 41.4387C199.537 41.0216 199.532 40.6019 199.532 40.1747V27.2228C199.532 23.6807 198.247 20.9554 195.678 19.047C193.109 17.141 189.608 16.1868 185.181 16.1868C182.632 16.1868 180.324 16.4766 178.256 17.0586C176.189 17.6406 174.266 18.395 172.49 19.3243L172.614 27.4851H179.196L179.916 23.3335C180.542 22.9263 181.248 22.6116 182.03 22.3893C182.813 22.1669 183.695 22.0545 184.679 22.0545C186.58 22.0545 188.006 22.5242 188.957 23.4634C189.909 24.4026 190.384 25.6266 190.384 27.1379V29.461H185.901C182.58 29.461 179.784 29.8881 177.518 30.7399C175.252 31.5918 173.538 32.7633 172.38 34.2546C171.22 35.7459 170.641 37.4769 170.641 39.4528C170.641 42.338 171.632 44.6186 173.618 46.2923C175.603 47.9684 178.276 48.8052 181.64 48.8052C183.626 48.8052 185.355 48.423 186.826 47.6586C188.299 46.8943 189.579 45.8726 190.664 44.5936C190.769 45.2131 190.935 45.8326 191.166 46.4521C191.395 47.0716 191.626 47.6536 191.854 48.1957H203.199V43.1148L199.659 42.6502C199.596 42.263 199.559 41.8609 199.549 41.4462L199.547 41.4387ZM190.381 39.6252C189.755 40.497 188.866 41.1989 187.718 41.731C186.567 42.263 185.357 42.5303 184.083 42.5303C182.724 42.5303 181.665 42.2256 180.902 41.6161C180.14 41.0066 179.76 40.1398 179.76 39.0157C179.76 37.8167 180.276 36.79 181.31 35.9382C182.343 35.0864 183.864 34.6592 185.869 34.6592H190.381V39.6252Z" fill="#45A117"/>
<path d="M240.537 28.5592C240.537 24.3002 239.586 21.1728 237.685 19.1794C235.784 17.186 233.151 16.1868 229.789 16.1868C227.657 16.1868 225.762 16.6315 224.102 17.5232C222.442 18.415 221.046 19.6615 219.918 21.2702L219.51 16.7689H206.131V21.8797L210.988 22.7515V42.2381L206.6 43.1098V48.1907H223.836V43.1098L220.139 42.2381V25.7415C220.787 24.7923 221.595 24.0629 222.566 23.5483C223.538 23.0362 224.681 22.7789 225.998 22.7789C227.774 22.7789 229.111 23.2186 230.008 24.1004C230.905 24.9821 231.354 26.4759 231.354 28.5867V42.2356L227.436 43.1074V48.1882H244.923V43.1074L240.535 42.2356V28.5567L240.537 28.5592Z" fill="#45A117"/>
<path d="M270.253 42.1206H260.663L277.302 22.1994V16.7688H249.445V28.0646H256.151L257.187 22.694H266.335L248.694 43.1947V48.1906H278.025V36.3428H271.6L270.253 42.1206Z" fill="#45A117"/>
<path d="M295.683 2.88763H281.643V7.99846L286.532 8.87025V42.238L282.115 43.1098V48.1907H300.101V43.1098L295.683 42.238V2.88763Z" fill="#45A117"/>
<path d="M323.937 17.873C321.848 16.7514 319.269 16.1893 316.198 16.1893C313.085 16.1693 310.384 16.8538 308.098 18.2377C305.81 19.6215 304.041 21.52 302.786 23.9305C301.534 26.341 300.905 29.1038 300.905 32.2212V33.3828C300.905 36.3654 301.569 39.0157 302.895 41.3413C304.222 43.6644 306.096 45.4904 308.521 46.8143C310.943 48.1407 313.773 48.8027 317.013 48.8027C319.748 48.8027 322.178 48.458 324.298 47.771C326.417 47.0841 328.179 46.2173 329.577 45.1732L327.103 39.9449C325.724 40.7193 324.308 41.3063 322.857 41.701C321.403 42.0982 319.843 42.2955 318.171 42.2955C316.499 42.2955 315.194 41.9908 314.066 41.3813C312.938 40.7718 312.066 39.9299 311.45 38.8558C310.834 37.7817 310.463 36.5577 310.337 35.1813L310.399 35.0065H330.328V30.3902C330.328 27.3902 329.784 24.8348 328.698 22.724C327.612 20.6132 326.024 18.997 323.935 17.873H323.937ZM321.776 29.401H310.463L310.369 29.2562C310.536 27.9597 310.854 26.7982 311.326 25.7715C311.795 24.7448 312.449 23.938 313.283 23.346C314.118 22.7565 315.142 22.4592 316.354 22.4592C317.629 22.4592 318.668 22.7115 319.473 23.2136C320.278 23.7182 320.861 24.4301 321.227 25.3494C321.592 26.2686 321.776 27.3677 321.776 28.6467V29.401Z" fill="#45A117"/>
<path d="M358.245 32.7858C356.322 31.3045 353.263 30.1179 349.064 29.2287C347.35 28.8615 346.045 28.4743 345.146 28.0671C344.247 27.66 343.648 27.2253 343.345 26.7607C343.042 26.2961 342.89 25.794 342.89 25.2494C342.89 24.3002 343.317 23.5258 344.174 22.9263C345.032 22.3268 346.264 22.0271 347.872 22.0271C348.833 22.0271 349.695 22.1245 350.458 22.3168C351.221 22.5117 351.884 22.8014 352.448 23.1886L353.42 27.3127H359.75L359.656 18.7173C358.215 17.9829 356.433 17.3858 354.314 16.9312C352.192 16.4766 349.859 16.2493 347.31 16.2493C344.259 16.2493 341.757 16.6839 339.804 17.5557C337.851 18.4275 336.398 19.579 335.449 21.0104C334.497 22.4442 334.022 24.0304 334.022 25.774C334.022 28.3094 334.974 30.3927 336.875 32.0189C338.775 33.6451 341.732 34.8466 345.742 35.621C348.396 36.1255 350.165 36.7101 351.054 37.377C351.941 38.044 352.386 38.8158 352.386 39.6851C352.386 40.6144 351.969 41.3887 351.134 42.0082C350.299 42.6277 348.858 42.9375 346.811 42.9375C345.725 42.9375 344.758 42.8401 343.911 42.6477C343.064 42.4554 342.286 42.1931 341.576 41.8634L340.353 37.3321H333.993L334.087 46.2198C336.092 47.0516 338.187 47.6911 340.371 48.1357C342.555 48.5804 344.91 48.8027 347.437 48.8027C351.991 48.8027 355.412 47.9034 357.698 46.1024C359.986 44.3014 361.129 41.9408 361.129 39.0157C361.129 36.3429 360.168 34.2671 358.247 32.7858H358.245Z" fill="#45A117"/>
<path d="M387.023 17.873C384.934 16.7514 382.355 16.1893 379.284 16.1893C376.171 16.1693 373.47 16.8538 371.184 18.2377C368.896 19.6215 367.127 21.52 365.872 23.9305C364.62 26.341 363.991 29.1038 363.991 32.2212V33.3828C363.991 36.3654 364.655 39.0157 365.981 41.3413C367.308 43.6644 369.182 45.4904 371.606 46.8143C374.029 48.1407 376.859 48.8027 380.099 48.8027C382.834 48.8027 385.264 48.458 387.384 47.771C389.503 47.0841 391.264 46.2173 392.663 45.1732L390.189 39.9449C388.81 40.7193 387.393 41.3063 385.942 41.701C384.489 42.0982 382.929 42.2955 381.257 42.2955C379.584 42.2955 378.28 41.9908 377.152 41.3813C376.024 40.7718 375.152 39.9299 374.536 38.8558C373.92 37.7817 373.549 36.5577 373.423 35.1813L373.485 35.0065H393.414V30.3902C393.414 27.3902 392.87 24.8348 391.784 22.724C390.698 20.6132 389.11 18.997 387.021 17.873H387.023ZM384.862 29.401H373.549L373.455 29.2562C373.621 27.9597 373.939 26.7982 374.412 25.7715C374.881 24.7448 375.535 23.938 376.369 23.346C377.204 22.7565 378.228 22.4592 379.44 22.4592C380.715 22.4592 381.753 22.7115 382.558 23.2136C383.363 23.7182 383.947 24.4301 384.313 25.3494C384.678 26.2686 384.862 27.3677 384.862 28.6467V29.401Z" fill="#45A117"/>
<path d="M419.276 16.3192C418.627 16.2318 418.034 16.1893 417.489 16.1893C415.778 16.1893 414.304 16.624 413.072 17.4958C411.839 18.3676 410.806 19.654 409.969 21.3576L409.906 20.6607L409.561 16.7689H396.182V21.8797L401.039 22.7515V42.2381L396.651 43.1099V48.1907H414.575V43.1099L410.187 42.2381V26.8456C410.813 25.9738 411.529 25.3069 412.334 24.8423C413.139 24.3776 414.187 24.1753 415.484 24.2328L420.029 24.4651L421 16.654C420.498 16.5191 419.924 16.4067 419.276 16.3192Z" fill="#45A117"/>
<path d="M39.982 1.25647H33.46V47.8834H39.982V1.25647Z" fill="#45A117"/>
<path d="M20.222 10.2866C15.5535 5.44056 12.0179 0 12.0179 0H0V2.50046C0 2.50046 2.52433 7.66125 10.0253 15.4449C14.2913 19.8738 18.4033 23.0062 20.5053 24.5C18.4033 25.9938 14.2913 29.1262 10.0253 33.5551C2.52433 41.3363 0 46.497 0 46.497V48.9975H12.0179C12.0179 48.9975 15.551 43.5569 20.222 38.7109C24.9924 33.7599 29.81 30.6275 29.81 30.6275V18.37C29.81 18.37 24.9949 15.2376 20.222 10.2866Z" fill="#45A117"/>
<path d="M53.0734 10.2866C57.7419 5.44056 61.2774 0 61.2774 0H73.2954V2.50046C73.2954 2.50046 70.771 7.66125 63.2701 15.4449C59.004 19.8738 54.8921 23.0062 52.7901 24.5C54.8921 25.9938 59.004 29.1262 63.2701 33.5551C70.7685 41.3388 73.2954 46.4995 73.2954 46.4995V49H61.2774C61.2774 49 57.7444 43.5594 53.0734 38.7134C48.303 33.7624 43.4854 30.63 43.4854 30.63V26.928V22.0745V18.3725C43.4854 18.3725 48.3005 15.2401 53.0734 10.2891V10.2866Z" fill="#45A117"/>
</g>
<defs>
<clipPath id="clip0_1_3">
<rect width="421" height="49" fill="white"/>
</clipPath>
</defs>
</svg>
