<?xml version="1.0" encoding="UTF-8"?>
<svg id="Ebene_2" data-name="Ebene 2" xmlns="http://www.w3.org/2000/svg" viewBox="0 0 268.42 268.42">
  <g id="Ebene_29" data-name="Ebene 29">
    <path d="M254.18,30.74c-4.6-6.33-10.17-11.9-16.5-16.5C218.09,0,190.13,0,134.21,0S50.33,0,30.74,14.24c-6.33,4.6-11.9,10.17-16.5,16.5C0,50.33,0,78.29,0,134.21s0,83.88,14.24,103.48c4.6,6.33,10.17,11.9,16.5,16.5,19.6,14.24,47.56,14.24,103.47,14.24s83.88,0,103.48-14.24c6.33-4.6,11.9-10.17,16.5-16.5,14.24-19.6,14.24-47.56,14.24-103.48s0-83.88-14.24-103.47ZM94.36,108.85l23.08-.45v-50.87c0-9.67,7.83-17.5,17.5-17.5s17.5,7.83,17.5,17.5v50.18l22.98-.45c4.89-.1,7.84,4.97,5.06,8.7l-42.41,56.88c-2.43,3.25-7.65,3.18-9.97-.14l-38.64-55.28c-2.55-3.65.21-8.47,4.91-8.56ZM193.81,225.81h-124.09c-8.28,0-15-6.72-15-15s6.72-15,15-15h124.09c8.28,0,15,6.72,15,15s-6.72,15-15,15Z"/>
  </g>
</svg>