<?xml version="1.0" encoding="UTF-8"?>
<svg id="Ebene_2" data-name="Ebene 2" xmlns="http://www.w3.org/2000/svg" viewBox="0 0 36 36">
  <g id="versicherungen" fill="#334A27">
    <path d="M25.72,25.73s1.61,5.22,0,4.58c-1.61-.63-9-6.56-9-7.65s7.13-6.57,9-7.67,0,4.09,0,4.09h10.28c0-.36,0-.71,0-1.09,0-7.5,0-11.25-1.91-13.88-.62-.85-1.36-1.6-2.21-2.21-2.63-1.91-6.38-1.91-13.88-1.91S6.75,0,4.12,1.91c-.85.62-1.6,1.36-2.21,2.21C.87,5.56.39,7.34.18,9.87h10.1s-1.87-5.18,0-4.09c1.87,1.09,9,6.58,9,7.67s-7.39,7.02-9,7.65c-1.61.63,0-4.58,0-4.58H0c0,.48,0,.97,0,1.48,0,7.5,0,11.25,1.91,13.88.62.85,1.36,1.6,2.21,2.21,2.63,1.91,6.38,1.91,13.88,1.91s11.25,0,13.88-1.91c.85-.62,1.6-1.36,2.21-2.21,1.1-1.51,1.56-3.4,1.76-6.15h-10.13Z"/>
  </g>
</svg>