<?xml version="1.0" encoding="UTF-8"?>
<svg id="Ebene_2" data-name="Ebene 2" xmlns="http://www.w3.org/2000/svg" viewBox="0 0 36 36">
  <g id="versicherungen">
    <path d="M34.09,4.12c-.62-.85-1.36-1.6-2.21-2.21-2.63-1.91-6.38-1.91-13.88-1.91S6.75,0,4.12,1.91c-.85.62-1.6,1.36-2.21,2.21-1.91,2.63-1.91,6.38-1.91,13.88s0,11.25,1.91,13.88c.62.85,1.36,1.6,2.21,2.21,2.63,1.91,6.38,1.91,13.88,1.91s11.25,0,13.88-1.91c.85-.62,1.6-1.36,2.21-2.21,1.91-2.63,1.91-6.38,1.91-13.88s0-11.25-1.91-13.88ZM16.63,29.44c-2.79,0-12.56-15.31-8.38-12.55,4.18,2.77,6.52,4.66,6.52,4.66,0,0,6.05-7.92,11.64-14.44,5.59-6.52-6.99,22.32-9.79,22.32Z"/>
  </g>
</svg>