<?xml version="1.0" encoding="UTF-8"?>
<svg id="Ebene_2" data-name="Ebene 2" xmlns="http://www.w3.org/2000/svg" viewBox="0 0 268.42 268.42">
  <g id="Ebene_29" data-name="Ebene 29">
    <path d="M254.18,30.74c-4.6-6.33-10.17-11.9-16.5-16.5C218.09,0,190.13,0,134.21,0S50.33,0,30.74,14.24c-6.33,4.6-11.9,10.17-16.5,16.5C0,50.33,0,78.29,0,134.21s0,83.88,14.24,103.48c4.6,6.33,10.17,11.9,16.5,16.5,19.6,14.24,47.56,14.24,103.47,14.24s83.88,0,103.48-14.24c6.33-4.6,11.9-10.17,16.5-16.5,14.24-19.6,14.24-47.56,14.24-103.48s0-83.88-14.24-103.47ZM235.73,64.33l-11.67,69.83c-1.12,6.68-9.17,9.48-14.19,4.93l-15.19-13.76-49.68,54.72c-4.67,5.42-11.19,8.69-17.98,9.02-6.56.33-12.6-2.12-16.8-6.72l-19.72-19.31-33.73,41.29c-2.93,3.59-7.06,5.43-11.16,5.43-3.24,0-6.47-1.15-9.11-3.49-5.96-5.29-6.74-14.8-1.7-21.34l39.22-50.9c4.05-5.45,10-8.94,16.37-9.55,6.19-.58,12.09,1.62,16.22,6.11l21.04,20.42,41.65-48.65-15.27-13.84c-4.9-4.43-3.14-12.51,3.16-14.5l65.69-20.82c7.1-2.25,14.07,3.8,12.84,11.14Z"/>
  </g>
</svg>