<?xml version="1.0" encoding="UTF-8"?>
<svg id="Ebene_2" data-name="Ebene 2" xmlns="http://www.w3.org/2000/svg" viewBox="0 0 55.43 55.43">
  <defs>
    <style>
      .cls-1 {
        fill: #248085;
      }
    </style>
  </defs>
  <g id="begriff_erklärt" data-name="begriff erklärt">
    <path class="cls-1" d="M52.49,6.35c-.95-1.31-2.1-2.46-3.41-3.41C45.04,0,39.26,0,27.72,0S10.4,0,6.35,2.94c-1.31.95-2.46,2.1-3.41,3.41C0,10.4,0,16.17,0,27.72s0,17.32,2.94,21.37c.95,1.31,2.1,2.46,3.41,3.41,4.05,2.94,9.82,2.94,21.37,2.94s17.32,0,21.37-2.94c1.31-.95,2.46-2.1,3.41-3.41,2.94-4.05,2.94-9.82,2.94-21.37s0-17.32-2.94-21.37ZM27.76,4.59c2.82,0,5.1,2.28,5.1,5.1s-2.28,5.1-5.1,5.1-5.1-2.28-5.1-5.1,2.28-5.1,5.1-5.1ZM27.76,50.26c-2.82,0-5.1-2.28-5.1-5.1s2.28-5.1,5.1-5.1,5.1,2.28,5.1,5.1-2.28,5.1-5.1,5.1ZM47.12,28.01v4.72c-2.85,0-5.16,2.31-5.16,5.16h-14.42l-.87-.03h-12.99c0-2.85-2.31-5.16-5.16-5.16v-10.8c2.85,0,5.16-2.31,5.16-5.16h12.99l.87-.03h14.42c0,2.85,2.31,5.16,5.16,5.16v6.13Z"/>
  </g>
</svg>