<?xml version="1.0" encoding="UTF-8"?>
<svg id="Ebene_2" data-name="Ebene 2" xmlns="http://www.w3.org/2000/svg" viewBox="0 0 48.99 48.99">
  <defs>
    <style>
      .cls-1 {
        fill: #248085;
      }
    </style>
  </defs>
  <g id="begriff_erklärt" data-name="begriff erklärt">
    <g>
      <path class="cls-1" d="M15.29,16.65c-4.14,0-7.5,3.36-7.5,7.5s3.36,7.5,7.5,7.5c2.2,0,4.17-.95,5.54-2.46,1.21-1.33,1.96-3.1,1.96-5.04s-.71-3.64-1.88-4.96c-1.37-1.56-3.38-2.54-5.62-2.54Z"/>
      <path class="cls-1" d="M46.39,5.61c-.84-1.16-1.86-2.17-3.01-3.01-3.58-2.6-8.68-2.6-18.88-2.6S9.19,0,5.61,2.6c-1.16.84-2.17,1.86-3.01,3.01C0,9.19,0,14.29,0,24.49s0,15.31,2.6,18.88c.84,1.16,1.86,2.17,3.01,3.01,3.58,2.6,8.68,2.6,18.88,2.6s15.31,0,18.88-2.6c1.16-.84,2.17-1.86,3.01-3.01,2.6-3.58,2.6-8.68,2.6-18.88s0-15.31-2.6-18.88ZM25.02,29.19c-1.83,3.51-5.5,5.92-9.73,5.92-6.05,0-10.97-4.92-10.97-10.97s4.92-10.97,10.97-10.97c4.26,0,7.95,2.45,9.77,6.01.76,1.49,1.2,3.17,1.2,4.96s-.45,3.53-1.24,5.04ZM39.93,29.19h-11.63c.61-1.57.96-3.26.96-5.04s-.34-3.41-.93-4.96h11.6c2.76,0,5,2.24,5,5s-2.24,5-5,5Z"/>
    </g>
  </g>
</svg>