<?xml version="1.0" encoding="UTF-8"?>
<svg id="Ebene_2" data-name="Ebene 2" xmlns="http://www.w3.org/2000/svg" viewBox="0 0 268.42 268.42">
  <g id="Ebene_29" data-name="Ebene 29">
    <path d="M254.18,30.74c-4.6-6.33-10.17-11.9-16.5-16.5C218.09,0,190.13,0,134.21,0S50.33,0,30.74,14.24c-6.33,4.6-11.9,10.17-16.5,16.5C0,50.33,0,78.29,0,134.21s0,83.88,14.24,103.48c4.6,6.33,10.17,11.9,16.5,16.5,19.6,14.24,47.56,14.24,103.47,14.24s83.88,0,103.48-14.24c6.33-4.6,11.9-10.17,16.5-16.5,14.24-19.6,14.24-47.56,14.24-103.48s0-83.88-14.24-103.47ZM134.65,41.32c21.96,0,39.76,17.8,39.76,39.76s-17.8,39.76-39.76,39.76-39.76-17.8-39.76-39.76,17.8-39.76,39.76-39.76ZM132.89,218.74c-37.29,0-67.53-.87-67.53-18.1,0-33.96,4.62-57.04,40.05-64.16,11.7,11.39,22.57,12.41,27.48,12.41,6.57,0,19.37-.95,30.8-11.67,32.4,7.88,36.73,30.56,36.73,63.42,0,16.35-30.23,18.1-67.53,18.1Z"/>
  </g>
</svg>