<?xml version="1.0" encoding="UTF-8"?>
<svg id="Ebene_2" data-name="Ebene 2" xmlns="http://www.w3.org/2000/svg" viewBox="0 0 36 36">
  <g id="versicherungen">
    <path fill="#334A27" d="M26,0H10C4.48,0,0,4.48,0,10v16c0,5.52,4.48,10,10,10h16c5.52,0,10-4.48,10-10V10c0-5.52-4.48-10-10-10ZM5,9c0-1.1.9-2,2-2h22c1.1,0,2,.9,2,2v6c0,1.1-.9,2-2,2H7c-1.1,0-2-.9-2-2v-6ZM12,26c0,1.1-.9,2-2,2h-3c-1.1,0-2-.9-2-2v-3c0-1.1.9-2,2-2h3c1.1,0,2,.9,2,2v3ZM22,26c0,1.1-.9,2-2,2h-3c-1.1,0-2-.9-2-2v-3c0-1.1.9-2,2-2h3c1.1,0,2,.9,2,2v3ZM32,26c0,1.1-.9,2-2,2h-3c-1.1,0-2-.9-2-2v-3c0-1.1.9-2,2-2h3c1.1,0,2,.9,2,2v3Z"/>
  </g>
</svg>
