<?xml version="1.0" encoding="UTF-8"?>
<svg id="Ebene_2" data-name="Ebene 2" xmlns="http://www.w3.org/2000/svg" viewBox="0 0 268.42 268.42">
  <g id="Ebene_29" data-name="Ebene 29">
    <path d="M254.18,30.74c-4.6-6.33-10.17-11.9-16.5-16.5C218.09,0,190.13,0,134.21,0S50.33,0,30.74,14.24c-6.33,4.6-11.9,10.17-16.5,16.5C0,50.33,0,78.29,0,134.21s0,83.88,14.24,103.48c4.6,6.33,10.17,11.9,16.5,16.5,19.6,14.24,47.56,14.24,103.47,14.24s83.88,0,103.48-14.24c6.33-4.6,11.9-10.17,16.5-16.5,14.24-19.6,14.24-47.56,14.24-103.48s0-83.88-14.24-103.47ZM69.93,50.33h73.14c8.94,0,16.19,7.25,16.19,16.19s-7.25,16.19-16.19,16.19h-73.14c-8.94,0-16.19-7.25-16.19-16.19s7.25-16.19,16.19-16.19ZM121.56,214.01h-51.63c-8.94,0-16.19-7.25-16.19-16.19s7.25-16.19,16.19-16.19h51.63c8.94,0,16.19,7.25,16.19,16.19s-7.25,16.19-16.19,16.19ZM202.22,147.55H69.93c-8.94,0-16.19-7.25-16.19-16.19s7.25-16.19,16.19-16.19h132.29c8.94,0,16.19,7.25,16.19,16.19s-7.25,16.19-16.19,16.19ZM202.68,84.93c-9.36,0-16.94-7.58-16.94-16.94s7.58-16.94,16.94-16.94,16.94,7.58,16.94,16.94-7.58,16.94-16.94,16.94Z"/>
  </g>
</svg>