<?xml version="1.0" encoding="UTF-8"?>
<svg id="Ebene_2" data-name="Ebene 2" xmlns="http://www.w3.org/2000/svg" viewBox="0 0 36 36">
  <g id="versicherungen">
    <path fill="#334A27" d="M26.86,30.83c-2.05-1.2-9.86-7.21-9.86-8.4s8.09-7.69,9.86-8.38c1.77-.69,0,5.02,0,5.02h9.14v-9.08c0-5.52-4.48-10-10-10H10C4.6,0,.21,4.29.02,9.64h9.12s-2.05-5.68,0-4.48c2.05,1.2,9.86,7.21,9.86,8.4s-8.09,7.69-9.86,8.38c-1.77.69,0-5.02,0-5.02H0v9.08c0,5.52,4.48,10,10,10h16c5.4,0,9.79-4.29,9.98-9.64h-9.12s2.05,5.68,0,4.48Z"/>
  </g>
</svg>
