<?xml version="1.0" encoding="UTF-8"?>
<svg id="Ebene_2" data-name="Ebene 2" xmlns="http://www.w3.org/2000/svg" viewBox="0 0 268.42 268.42">
  <g id="Ebene_29" data-name="Ebene 29" fill="#334A27">
    <path d="M254.18,30.74c-4.6-6.33-10.17-11.9-16.5-16.5C218.09,0,190.13,0,134.21,0S50.33,0,30.74,14.24c-6.33,4.6-11.9,10.17-16.5,16.5C0,50.33,0,78.29,0,134.21s0,83.88,14.24,103.48c4.6,6.33,10.17,11.9,16.5,16.5,19.6,14.24,47.56,14.24,103.48,14.24s83.88,0,103.48-14.24c6.33-4.6,11.9-10.17,16.5-16.5,14.24-19.6,14.24-47.56,14.24-103.48s0-83.88-14.24-103.47ZM144.29,192.18c0,20.37-16.57,36.94-36.94,36.94s-36.94-16.57-36.94-36.94c0-6.63,5.37-12,12-12s12,5.37,12,12c0,7.14,5.81,12.94,12.94,12.94s12.94-5.8,12.94-12.94v-37.95c0-6.63,5.37-12,12-12s12,5.37,12,12v37.95ZM177.74,132.32c-34.15-16.82-57.31-17.81-93.48-1.1-18.56-21.31-45.7-16.9-56.81-14.75,8.85-36.32,47.91-75.17,107.01-75.17s96.1,32.75,107.01,75.17c-12.15-4.19-42.39-6.91-63.72,15.85Z"/>
  </g>
</svg>