<?xml version="1.0" encoding="UTF-8"?>
<svg id="Ebene_2" data-name="Ebene 2" xmlns="http://www.w3.org/2000/svg" viewBox="0 0 268.42 268.42">
  <g id="Ebene_29" data-name="Ebene 29" fill="#334A27">
    <g>
      <path d="M137.29,120.58l-27.57-12.1c-4.7,3.24-8.22,9.45-5.15,14.77,2.95,5.12,8.34,9.36,14.12,12.18l38.16,18.62c3.9-3.45,7.22-7.76,6.77-13.42-.76-9.63-18.22-16.5-26.34-20.06Z"/>
      <path d="M254.18,30.74c-4.6-6.33-10.17-11.9-16.5-16.5C218.09,0,190.13,0,134.21,0S50.33,0,30.74,14.24c-6.33,4.6-11.9,10.17-16.5,16.5C0,50.33,0,78.29,0,134.21s0,83.88,14.24,103.48c4.6,6.33,10.17,11.9,16.5,16.5,19.6,14.24,47.56,14.24,103.47,14.24s83.88,0,103.48-14.24c6.33-4.6,11.9-10.17,16.5-16.5,14.24-19.6,14.24-47.56,14.24-103.48s0-83.88-14.24-103.47ZM189.22,155.97c-4.09,5.27-10.09,8.72-15.85,12.78,3.41,4.43,7.46,8.56,9.41,13.32,5.36,13.04-.14,27-12.55,35.36-26.36,17.74-83.14,15.68-92.15-7.39-4.44-11.37.96-26.13,12.77-26.37,8.23-.17,10.56,6.17,17.5,12.26,7.88,6.9,19.18,8.6,29.2,4.75,3.87-1.49,5.74-5.14,4.23-8.92-1.7-4.26-5.86-7.86-10.51-10.29-17.5-9.16-29.62-11.03-46.29-21.79-18.25-11.78-22.68-34.41-9.15-50.75,4.35-5.26,10.23-9.03,16.01-13.47-9.18-7.99-13.77-17.53-11.71-28.56,7.07-37.83,81.08-36.44,91.27-19.99,5.13,8.29,3.56,18.98-3.88,25.49-1.77,1.55-5.67,2.48-7.98,2.33-2.14-.13-5.24-2.4-6.48-4.57-4.87-8.54-14.18-12.23-24.82-9.95-2.04.44-5.16,2.14-6.12,3.59-4.34,6.53,7.81,15.4,14.59,18.39l25.53,11.24c7.11,3.13,13.38,7,19.37,11.7,16.43,12.89,20.17,34.65,7.61,50.84Z"/>
    </g>
  </g>
</svg>