<?xml version="1.0" encoding="UTF-8"?>
<svg id="Ebene_2" data-name="Ebene 2" xmlns="http://www.w3.org/2000/svg" viewBox="0 0 268.42 268.42">
  <g id="Ebene_29" data-name="Ebene 29">
    <path d="M254.18,30.74c-4.6-6.33-10.17-11.9-16.5-16.5C218.09,0,190.13,0,134.21,0S50.33,0,30.74,14.24c-6.33,4.6-11.9,10.17-16.5,16.5C0,50.33,0,78.29,0,134.21s0,83.88,14.24,103.48c4.6,6.33,10.17,11.9,16.5,16.5,19.6,14.24,47.56,14.24,103.47,14.24s83.88,0,103.48-14.24c6.33-4.6,11.9-10.17,16.5-16.5,14.24-19.6,14.24-47.56,14.24-103.48s0-83.88-14.24-103.47ZM214.81,61.36l-70.15,71.95c-6.54,6.52-15.28,6.45-21.76-.19L51.22,61.36h163.59ZM31.43,179.92v-95.07c0-3.19.45-6.27,1.27-9.19l56.53,56.59-56.09,58.31c-1.1-3.34-1.71-6.92-1.71-10.64ZM203.69,212.99H63.61c-5.73,0-11.11-1.55-15.77-4.25l57.79-60.08,1.16,1.17c7.7,7.87,17.39,11.8,27.09,11.8,8.69,0,17.37-3.18,24.64-9.51l60.53,56.86c-4.56,2.56-9.8,4.01-15.36,4.01ZM235.86,179.92c0,3.93-.67,7.7-1.9,11.2l-59.12-55.53,59.44-60.97c1.02,3.22,1.58,6.66,1.58,10.23v95.07Z"/>
  </g>
</svg>