<?xml version="1.0" encoding="UTF-8"?>
<svg id="Ebene_2" data-name="Ebene 2" xmlns="http://www.w3.org/2000/svg" viewBox="0 0 55.43 55.43">
  <defs>
    <style>
      .cls-1 {
        fill: #248085;
      }
    </style>
  </defs>
  <g id="begriff_erklärt" data-name="begriff erklärt">
    <g>
      <path class="cls-1" d="M31.6,18.45l-3.53,4.18-3.98-4.4c-.61-.67-1.64-.72-2.32-.12-.67.61-.72,1.64-.12,2.32l4.56,5.05v9c0,.91.73,1.64,1.64,1.64s1.64-.73,1.64-1.64v-8.46l4.6-5.45c.58-.69.5-1.73-.2-2.31-.69-.58-1.73-.5-2.31.2Z"/>
      <path class="cls-1" d="M52.49,6.35c-.95-1.31-2.1-2.46-3.41-3.41C45.04,0,39.26,0,27.72,0S10.4,0,6.35,2.94c-1.31.95-2.46,2.1-3.41,3.41C0,10.4,0,16.17,0,27.72s0,17.32,2.94,21.37c.95,1.31,2.1,2.46,3.41,3.41,4.05,2.94,9.82,2.94,21.37,2.94s17.32,0,21.37-2.94c1.31-.95,2.46-2.1,3.41-3.41,2.94-4.05,2.94-9.82,2.94-21.37s0-17.32-2.94-21.37ZM39.06,29.86c-1.77,2.18-2.76,5.02-2.77,7.85v6.97c-.01,1.98-1.13,3.68-3.62,3.68-2.67,0-7.93,0-9.6,0-1.85,0-3.3-1.33-3.3-3.5l-.02-7.05c-.02-2.87-.98-5.73-2.78-7.94-4.84-5.95-4.29-14.47,1.23-19.66,5.52-5.18,14.11-5.19,19.63,0,5.53,5.18,6.09,13.71,1.24,19.67Z"/>
      <path class="cls-1" d="M22.35,44.59c0,.82.58,1.4,1.4,1.39h8.61c.72-.02,1.3-.58,1.3-1.3v-5.34s-11.31,0-11.31,0v5.24Z"/>
    </g>
  </g>
</svg>