<?xml version="1.0" encoding="UTF-8"?>
<svg id="Ebene_2" data-name="Ebene 2" xmlns="http://www.w3.org/2000/svg" viewBox="0 0 268.42 268.42">
  <g id="Ebene_29" data-name="Ebene 29">
    <path d="M254.18,30.74c-4.6-6.33-10.17-11.9-16.5-16.5C218.09,0,190.13,0,134.21,0S50.33,0,30.74,14.24c-6.33,4.6-11.9,10.17-16.5,16.5C0,50.33,0,78.29,0,134.21s0,83.88,14.24,103.48c4.6,6.33,10.17,11.9,16.5,16.5,19.6,14.24,47.56,14.24,103.47,14.24s83.88,0,103.48-14.24c6.33-4.6,11.9-10.17,16.5-16.5,14.24-19.6,14.24-47.56,14.24-103.48s0-83.88-14.24-103.47ZM211.19,208.06c-12.13,0-21.96-9.83-21.96-21.96,0-2.86.55-5.59,1.55-8.1l-29.47-26.19c-6.34,6.31-15.07,10.21-24.72,10.21-2.36,0-4.67-.24-6.9-.68l-10.48,25.52c4.81,4.61,7.81,11.1,7.81,18.3,0,14-11.35,25.35-25.35,25.35s-25.35-11.35-25.35-25.35,11.35-25.35,25.35-25.35c1.66,0,3.28.16,4.85.47l10.07-24.52c-6.54-4.56-11.45-11.28-13.69-19.14l-26.08,1.51c-2.29,9.68-10.98,16.89-21.37,16.89-12.13,0-21.96-9.83-21.96-21.96s9.83-21.96,21.96-21.96c8.88,0,16.52,5.27,19.98,12.85l26.43-1.53c.82-6.31,3.33-12.09,7.05-16.89l-16.18-20.87c-2.46.79-5.07,1.23-7.79,1.23-14,0-25.35-11.35-25.35-25.35s11.35-25.35,25.35-25.35,25.35,11.35,25.35,25.35c0,6.11-2.16,11.72-5.77,16.1l15.23,19.64c5-2.74,10.73-4.31,16.84-4.31,7.25,0,13.99,2.2,19.58,5.98l17.07-17.51c-1.39-3.08-2.17-6.5-2.17-10.09,0-13.6,11.02-24.62,24.62-24.62s24.62,11.02,24.62,24.62-11.02,24.62-24.62,24.62c-4.8,0-9.28-1.38-13.07-3.76l-16.52,16.94c3.48,5.44,5.51,11.91,5.51,18.85,0,4.52-.86,8.83-2.42,12.79l30.83,27.41c3.27-1.93,7.08-3.04,11.15-3.04,12.13,0,21.96,9.83,21.96,21.96s-9.83,21.96-21.96,21.96Z"/>
  </g>
</svg>