<?xml version="1.0" encoding="UTF-8"?>
<svg id="Ebene_2" data-name="Ebene 2" xmlns="http://www.w3.org/2000/svg" viewBox="0 0 36 36">
  <defs>
    <style>
      .cls-1 {
        fill: #fff;
      }
    </style>
  </defs>
  <g id="versicherungen">
    <g>
      <path d="M34.09,4.12c-.62-.85-1.36-1.6-2.21-2.21-2.63-1.91-6.38-1.91-13.88-1.91S6.75,0,4.12,1.91c-.85.62-1.6,1.36-2.21,2.21-1.91,2.63-1.91,6.38-1.91,13.88s0,11.25,1.91,13.88c.62.85,1.36,1.6,2.21,2.21,2.63,1.91,6.38,1.91,13.88,1.91s11.25,0,13.88-1.91c.85-.62,1.6-1.36,2.21-2.21,1.91-2.63,1.91-6.38,1.91-13.88s0-11.25-1.91-13.88ZM4.9,8.44c.12-.16.26-.31.43-.43.51-.37,3.87-.37,12.68-.37s12.17,0,12.68.37c.16.12.31.26.43.43.37.51.37,2.23.37,3.68s0,3.17-.37,3.68c-.12.16-.26.31-.43.43-.31.23-8.6.32-12.68.35,2.48.02,3.41.02,0,.02s-2.48,0,0-.02c-4.08-.03-12.36-.12-12.68-.35-.16-.12-.31-.26-.43-.43-.37-.51-.37-2.23-.37-3.68s0-3.17.37-3.68ZM10.94,27.12c-.12.16-.26.31-.43.43-.51.37-1.23.37-2.68.37s-2.17,0-2.68-.37c-.16-.12-.31-.26-.43-.43-.37-.51-.37-1.23-.37-2.68s0-2.17.37-2.68c.12-.16.26-.31.43-.43.51-.37,1.23-.37,2.68-.37s2.17,0,2.68.37c.16.12.31.26.43.43.37.51.37,1.23.37,2.68s0,2.17-.37,2.68ZM21.1,27.12c-.12.16-.26.31-.43.43-.51.37-1.23.37-2.68.37s-2.17,0-2.68-.37c-.16-.12-.31-.26-.43-.43-.37-.51-.37-1.23-.37-2.68s0-2.17.37-2.68c.12-.16.26-.31.43-.43.51-.37,1.23-.37,2.68-.37s2.17,0,2.68.37c.16.12.31.26.43.43.37.51.37,1.23.37,2.68s0,2.17-.37,2.68ZM31.26,27.12c-.12.16-.26.31-.43.43-.51.37-1.23.37-2.68.37s-2.17,0-2.68-.37c-.16-.12-.31-.26-.43-.43-.37-.51-.37-1.23-.37-2.68s0-2.17.37-2.68c.12-.16.26-.31.43-.43.51-.37,1.23-.37,2.68-.37s2.17,0,2.68.37c.16.12.31.26.43.43.37.51.37,1.23.37,2.68s0,2.17-.37,2.68Z"/>
      <path class="cls-1" d="M18,16.59c3.41,0,2.48,0,0-.02-2.48.02-3.41.02,0,.02Z"/>
    </g>
  </g>
</svg>