<svg width="9" height="17" viewBox="0 0 9 17" fill="none" xmlns="http://www.w3.org/2000/svg">
<g clip-path="url(#clip0_74_251)">
<path d="M7.16051 0L7.35875 0.0146957C7.47514 0.0235131 7.58758 0.0333103 7.70001 0.0646611C8.13695 0.186146 8.51174 0.421277 8.74845 0.813163C8.89443 1.05515 8.9753 1.31967 8.99503 1.60183C9.06111 2.53452 8.46637 3.35552 7.59843 3.67197C7.12993 3.84244 6.55295 3.86595 6.07459 3.72193C5.69092 3.60633 5.36149 3.36042 5.15536 3.0185C5.04489 2.83529 4.97881 2.64033 4.93738 2.43067C4.90582 2.27098 4.90878 2.11324 4.91371 1.95061C4.91963 1.75467 4.96007 1.57342 5.03207 1.39021C5.19086 0.985592 5.46999 0.642693 5.83295 0.397764C6.15448 0.181247 6.51941 0.0440871 6.90703 0.00881743C6.94253 0.00587829 6.97607 0.0156754 6.99974 0H7.16149L7.16051 0Z" fill="#334A27"/>
<path d="M4.73725 16.1878C4.03303 16.5836 3.15227 16.9305 2.34251 16.9922C2.17977 17.0039 2.02098 17 1.85627 16.9932C1.54953 16.9804 1.25462 16.907 0.990295 16.7502C0.725966 16.5934 0.547446 16.3495 0.464596 16.0575C0.345254 15.6382 0.422185 15.1346 0.511939 14.7095C0.697363 13.8316 1.05342 12.8784 1.4006 12.0456L3.01517 8.16888L3.4738 7.04025C3.54482 6.86488 3.46394 6.5357 3.23314 6.48769C3.09112 6.4583 2.94613 6.49161 2.81298 6.54353C2.47172 6.67775 2.03084 7.0765 1.78328 7.34592L1.15698 8.02878C0.996213 8.20415 0.840377 8.37364 0.666788 8.53529C0.596761 8.60191 0.520815 8.6558 0.437966 8.70086C0.355117 8.74593 0.276213 8.73711 0.197309 8.69695C0.00399355 8.59897 -0.0472941 8.41185 0.0404867 8.22472C0.0848703 8.12969 0.134185 8.04054 0.195336 7.95432C0.308761 7.79561 0.417254 7.63983 0.557309 7.50071L1.48147 6.58076C2.07523 5.98999 3.01123 5.40511 3.8052 5.11413C4.47194 4.87018 5.20377 4.73596 5.9149 4.79474C6.36071 4.83099 6.83413 5.01616 7.11128 5.38159C7.25725 5.5746 7.36378 5.80287 7.38745 6.04682C7.41112 6.29077 7.41802 6.54549 7.38449 6.79728C7.3332 7.18525 7.2178 7.56636 7.07479 7.93277L5.07457 13.0714L4.98679 13.2938C4.85167 13.6367 4.64454 14.1226 4.63566 14.4861C4.63271 14.637 4.70569 14.7741 4.84279 14.8407C5.0075 14.9221 5.25013 14.8104 5.39808 14.7232C5.60619 14.6017 5.78569 14.4537 5.96323 14.2892C6.19501 14.0736 6.40805 13.8522 6.62701 13.6239L7.22273 13.0018C7.31446 12.9068 7.40717 12.8245 7.50975 12.7422C7.55413 12.7069 7.61134 12.6707 7.66657 12.6648C7.83523 12.6491 8.01671 12.8764 7.98514 13.0772C7.94273 13.3525 7.60147 13.7915 7.41605 14.008C7.17736 14.2862 6.92093 14.5419 6.64871 14.7908C6.06482 15.3257 5.42865 15.7969 4.73725 16.1859V16.1878Z" fill="#334A27"/>
</g>
<defs>
<clipPath id="clip0_74_251">
<rect width="9" height="17" fill="white"/>
</clipPath>
</defs>
</svg>
