<svg preserveAspectRatio="xMidYMid meet" width="12" height="12" overflow="visible" style="display: block;" viewBox="0 0 12 12.0005" fill="none" xmlns="http://www.w3.org/2000/svg">
<g id="Group">
<path id="Vector" d="M12 6.00047C10.3384 5.64978 8.28716 5.41362 7.24241 3.91374C6.47491 2.81169 6.27276 1.28871 6.00024 0.000471365C5.61861 1.71435 5.40087 3.79684 3.79407 4.83384C2.69548 5.54325 1.25351 5.72142 0 6.01226C1.28705 6.29225 2.79561 6.48692 3.89751 7.25194C5.4174 8.30686 5.61672 10.3366 6.00024 12.0005C6.17594 11.1204 6.33322 10.2272 6.62463 9.37638C7.27878 7.46453 8.37832 6.85223 10.2643 6.37379L12 6.00047Z" fill="#45A117"/>
<path id="Vector_2" d="M12 6.00047L10.2643 6.37379C8.37832 6.85223 7.27878 7.46453 6.62463 9.37638C6.33369 10.2272 6.17641 11.1204 6.00024 12.0005C5.61672 10.3361 5.4174 8.30639 3.89751 7.25194C2.79561 6.48692 1.28657 6.29225 0 6.01226C1.25351 5.72142 2.69501 5.54325 3.79407 4.83384C5.40087 3.79637 5.61861 1.71388 6.00024 0C6.27276 1.28871 6.47444 2.81169 7.24241 3.91327C8.28764 5.41315 10.3389 5.6493 12 6V6.00047Z" fill="#45A117"/>
</g>
</svg>
