<svg width="52" height="63" viewBox="0 0 52 63" fill="none" xmlns="http://www.w3.org/2000/svg">
<style>[stroke] { stroke-width: 1; vector-effect: non-scaling-stroke; }</style>
<rect x="0.5" y="0.5" width="51" height="62" rx="10.5" stroke="black"/>
<rect x="8" y="6" width="37" height="12" rx="3" fill="black"/>
<rect x="8.5" y="21.5" width="9" height="9" rx="2.5" stroke="black"/>
<rect x="8.5" y="33.5" width="9" height="9" rx="2.5" stroke="black"/>
<rect x="8.5" y="45.5" width="9" height="9" rx="2.5" stroke="black"/>
<rect x="21.5" y="21.5" width="9" height="9" rx="2.5" stroke="black"/>
<rect x="21.5" y="33.5" width="9" height="9" rx="2.5" stroke="black"/>
<rect x="21.5" y="45.5" width="9" height="9" rx="2.5" stroke="black"/>
<rect x="34.5" y="21.5" width="9" height="9" rx="2.5" stroke="black"/>
<rect x="34.5" y="33.5" width="9" height="21" rx="2.5" stroke="black"/>
<path d="M34 12L36 13.5L39 9.5" stroke="white" stroke-width="2"/>
<path d="M16 9V15" stroke="white" stroke-width="2"/>
<path d="M26 9V15" stroke="white" stroke-width="2"/>
<path d="M19 12L13 12" stroke="white" stroke-width="2"/>
<path d="M29 12L23 12" stroke="white" stroke-width="2"/>
</svg>
