<svg id="Ebene_2" data-name="Ebene 2" xmlns="http://www.w3.org/2000/svg" viewBox="0 0 510.94 510.86">
  <g id="Ebene_4" data-name="Ebene 4" fill="#334A27">
    <path d="M76.46,255.75c.23-14-10.97-25.94-25.63-25.97l-24.8-.05c-13.17-.03-22.27,8.8-26.03,20.63v9.98c3.85,11.86,13.01,20.52,26.18,20.51l24.52-.02c14.38-.01,25.54-11.14,25.77-25.09Z"/>
    <path d="M255.89,434.39c-13.7-.21-25.71,10.63-25.78,24.97l-.12,25.33c-.06,13.5,9.21,22.79,21.51,26.18h7.98c12.29-3.38,21.57-12.68,21.51-26.18l-.12-25.33c-.06-14.04-11.6-24.76-24.99-24.97Z"/>
    <path d="M405.12,244.77c-5.74-81.72-76.82-144.88-160.17-139-83.68,5.91-145.33,78.93-139.01,161.04,6.33,82.17,77.91,143.95,160.1,138.16,82.52-5.82,144.88-77.57,139.08-160.2Z"/>
    <path d="M485.68,229.95l-25.37-.07c-14.68-.04-25.93,11.7-25.78,25.86.14,13.82,11.25,25.28,25.64,25.21l26.16-.14c14.32-.08,24.86-12.63,24.6-25.92-.27-13.49-11.29-24.89-25.25-24.93Z"/>
    <path d="M93.33,129.15c10.13,10.09,26.36,9.26,35.89-.57,9.36-9.65,10.03-25.45-.16-35.66l-18.14-18.18c-10.25-10.27-26.56-9.77-36.3.26-9.56,9.85-9.8,25.76.26,35.78l18.45,18.38Z"/>
    <path d="M417.94,128.92l18.18-18.14c10.27-10.25,9.77-26.56-.26-36.3-9.85-9.56-25.76-9.8-35.78.26l-18.38,18.45c-10.09,10.13-9.26,26.36.57,35.89,9.65,9.37,25.45,10.03,35.66-.16Z"/>
    <path d="M93.33,381.56l-18.45,18.37c-10.28,10.24-9.77,26.57.26,36.3,9.86,9.56,25.74,9.87,36.02-.47l18.13-18.24c10.08-10.14,9.25-26.35-.57-35.9-9.65-9.38-25.47-9.95-35.39-.07Z"/>
    <path d="M417.67,381.56c-10.14-10.08-26.35-9.26-35.9.57-9.38,9.65-9.95,25.47-.07,35.39l18.37,18.45c10.24,10.28,26.57,9.77,36.3-.26,9.56-9.86,9.87-25.74-.47-36.02l-18.24-18.13Z"/>
    <path d="M255.89,76.32c13.41-.21,25.04-10.87,25.03-25.31v-25.87c0-14.14-12.08-25.4-25.88-25.14-13.41.25-24.97,11.31-24.96,25.15l.02,26.21c.01,14.32,12.06,25.18,25.78,24.96Z"/>
  </g>
</svg>
