<?xml version="1.0" encoding="UTF-8"?>
<svg id="Ebene_2" data-name="Ebene 2" xmlns="http://www.w3.org/2000/svg" viewBox="0 0 73.09 73.09" fill="#686C6A">
  <g id="Ebene_2-2" data-name="Ebene 2">
    <g>
      <path d="M66.59,57.32c-6.86,9.91-18.14,15.8-30.13,15.77-12.05-.03-23.29-6.01-30.09-15.93C-3.79,42.33-1.55,22.39,11.29,10.12,24.2-2.23,44.27-3.44,58.57,7.38c15.53,11.75,19.24,33.75,8.02,49.94ZM58.68,57.36c11.63-12.36,10.86-31.71-1.52-43.15-12.41-11.46-31.72-10.63-43.11,1.87-11.15,12.23-10.45,31.08,1.53,42.49,12.19,11.6,31.5,11.12,43.09-1.21Z"/>
      <path d="M47.03,50.29l-12.57-12.57c-.62-.62-.98-1.4-.98-2.28v-16.87c0-1.78,1.31-3.11,2.98-3.15,1.75-.04,3.14,1.31,3.14,3.14v15.6s11.82,11.81,11.82,11.81c1.23,1.23,1.23,3.12.06,4.33s-3.12,1.3-4.45-.02Z"/>
    </g>
  </g>
</svg>