<svg width="58" height="61" viewBox="0 0 58 61" fill="none" xmlns="http://www.w3.org/2000/svg">
<style>[stroke] { stroke-width: 1; vector-effect: non-scaling-stroke; }</style>
<path d="M27.5 60.5C24.6857 60.5 22.5246 60.5006 20.8496 60.2754C19.1604 60.0483 17.8903 59.5837 16.9033 58.5967C15.9163 57.6097 15.4517 56.3396 15.2246 54.6504C14.9994 52.9754 15 50.8143 15 48L15 25.5L26 25.5L26 30.9717L38.6533 21.0303L26 12.4443L26 17.5L15.0195 17.5L15.0352 16.9854C15.1285 13.886 15.4669 11.8397 16.9033 10.4033C17.8903 9.4163 19.1604 8.95175 20.8496 8.72461C22.5245 8.49942 24.6857 8.5 27.5 8.5L45.5 8.5C48.3094 8.5 50.2295 8.49818 51.6621 8.72559C53.1375 8.95979 54.1348 9.44144 55.0967 10.4033C56.0837 11.3903 56.5483 12.6604 56.7754 14.3496C57.0006 16.0246 57 18.1857 57 21L57 48C57 50.8143 57.0006 52.9754 56.7754 54.6504C56.5483 56.3396 56.0837 57.6097 55.0967 58.5967C54.1097 59.5837 52.8396 60.0483 51.1504 60.2754C49.4754 60.5006 47.3143 60.5 44.5 60.5L27.5 60.5Z" stroke="black"/>
<path d="M34.5 0.5C37.3143 0.5 39.4754 0.499419 41.1504 0.724609C42.8396 0.951743 44.1097 1.41629 45.0967 2.40332C46.0837 3.39035 46.5483 4.66038 46.7754 6.34961C47.0006 8.02455 47 10.1857 47 13L47 35.5L36 35.5L36 30.0283L23.3467 39.9697L36 48.5557L36 43.5L46.9805 43.5L46.9648 44.0146C46.8715 47.114 46.5331 49.1603 45.0967 50.5967C44.1097 51.5837 42.8396 52.0483 41.1504 52.2754C39.4754 52.5006 37.3143 52.5 34.5 52.5L17.5 52.5C14.6857 52.5 12.5246 52.5006 10.8496 52.2754C9.16038 52.0483 7.89035 51.5837 6.90332 50.5967C5.91629 49.6097 5.45174 48.3396 5.22461 46.6504C4.99942 44.9754 5 42.8143 5 40L5 13C5 10.1857 4.99942 8.02455 5.22461 6.34961C5.45174 4.66038 5.91629 3.39035 6.90332 2.40332C7.89035 1.41629 9.16038 0.951743 10.8496 0.724609C12.5246 0.499419 14.6857 0.5 17.5 0.5L34.5 0.5Z" stroke="black"/>
<rect y="34.5" width="11" height="11" rx="5.5" fill="black"/>
<path d="M3 40.5L5 42L8 37.5" stroke="white" stroke-width="2"/>
<path d="M47 35.5L47 8.49998L50 8.49998C51.5 8.49998 54 9 55 10C56 11 57 12.5 57 16L57 52C57 56 56 57.5 55 58.5C54 59.5 52.5 60.5 49 60.5L23.5 60.5C18.5 60.5 18 59.5 16.5 58C15.3 56.8 15 53.8333 15 52.5L37.5 52.5C39 52.6666 42.6 52.6 45 51C47.4 49.4 47.3333 45.3333 47 43.5L36 43.5L36 48.5L23.5 40L36 30.5L36 35.5L47 35.5Z" fill="black"/>
</svg>
