<svg width="141" height="81" viewBox="0 0 141 81" fill="none" xmlns="http://www.w3.org/2000/svg">
<path d="M39 0.5H102C109.491 0.5 115.075 0.50021 119.475 0.916016C123.867 1.33112 127.029 2.1569 129.69 3.77539C132.769 5.64729 135.353 8.23137 137.225 11.3096C140.486 16.6722 140.5 20.9959 140.5 34C140.5 41.4986 140.499 45.8181 140.086 48.9561C139.678 52.0507 138.872 53.982 137.225 56.6904C135.353 59.7686 132.769 62.3527 129.69 64.2246C127.029 65.8431 123.867 66.6689 119.475 67.084C115.075 67.4998 109.491 67.5 102 67.5H36.7988L36.6533 67.6396L24.2842 79.5498L26.4912 67.958L26.5996 67.3867L26.0186 67.3643C19.159 67.1051 14.8065 66.3511 11.3096 64.2246C8.23137 62.3527 5.64729 59.7686 3.77539 56.6904C2.12841 53.982 1.32151 52.0507 0.914062 48.9561C0.500937 45.8181 0.5 41.4986 0.5 34C0.5 20.9959 0.514407 16.6722 3.77539 11.3096C5.64729 8.23137 8.23137 5.64729 11.3096 3.77539C13.9712 2.1569 17.1329 1.33112 21.5254 0.916016C25.9254 0.50021 31.5089 0.5 39 0.5Z" stroke="#A0A0A1"/>
</svg>
