<?xml version="1.0" encoding="UTF-8"?>
<svg id="Ebene_2" data-name="Ebene 2" xmlns="http://www.w3.org/2000/svg" viewBox="0 0 2919.24 97.15">
  <defs>
    <style>
      .cls-1 {
        fill: #020209;
      }
    </style>
  </defs>
  <g id="Ebene_3" data-name="Ebene 3">
    <polygon class="cls-1" points="2919.24 0 2835.61 83.63 2751.98 0 2668.35 83.63 2584.72 0 2504.35 80.36 2423.99 0 2342.16 81.83 2260.32 0 2179.96 80.36 2099.59 0 2019.23 80.36 1938.87 0 1858.5 80.36 1778.14 0 1696.3 81.83 1614.47 0 1534.1 80.36 1453.74 0 1373.7 80.04 1293.67 0 1213.3 80.36 1132.94 0 1051.1 81.83 969.27 0 888.91 80.36 808.54 0 728.18 80.36 647.81 0 567.45 80.36 487.08 0 405.25 81.83 323.42 0 243.05 80.36 162.69 0 81.34 81.34 0 0 0 97.15 2919.24 97.15 2919.24 0"/>
  </g>
</svg>