<svg width="183" height="189" viewBox="0 0 183 189" fill="none" xmlns="http://www.w3.org/2000/svg">
<g clip-path="url(#clip0_300_546)">
<path d="M82.7209 174.896C82.7614 175.054 82.7412 175.104 82.7209 175.089C82.7007 175.074 82.6855 174.993 82.7209 174.896Z" fill="#DAF2F6"/>
<path d="M176.699 153.1C177.296 155.381 175.243 160.099 174.621 163.56C174.186 165.982 175.01 167.903 176.487 169.793C180.472 174.886 182.504 181.12 183 187.713C175.602 190.591 168.219 184.925 165.791 178.049C166.312 176.853 167.045 175.966 168.001 175.114C170.231 173.123 170.52 169.839 168.659 167.548C166.378 167.528 166.606 172.048 166.504 173.934C166.449 174.967 165.372 175.591 164.38 175.459C162.322 175.185 160.861 173.579 160.593 171.486C160.345 169.52 160.81 167.553 161.822 165.785C162.98 163.768 164.335 161.812 165.852 160.175C167.885 157.98 173.569 153.678 176.699 153.095V153.1Z" fill="#656B77"/>
<path d="M6.1187 132.627C9.1478 134.016 12.1061 135.424 14.6042 137.887C15.5853 138.855 16.713 139.889 17.2035 141.1C18.3565 143.948 17.517 147.339 15.4133 149.69C13.4866 151.839 10.9582 153.263 8.13136 153.886C7.88863 149.736 9.85577 146.426 11.8128 143.188C12.0909 142.732 12.7534 142.687 12.6219 142.149C12.1718 142.332 11.7572 142.489 11.6105 142.803C8.95058 143.801 6.16927 144.744 3.22109 144.04C1.86583 143.715 0.551031 143.122 0.00488281 141.835C3.54473 138.911 5.88609 137.097 3.80769 132.181L6.12376 132.617L6.1187 132.627Z" fill="#656B78"/>
<path d="M102.949 121.321C103.055 121.25 103.308 121.245 103.201 121.037C103.353 121.037 103.555 120.936 103.672 120.839C103.904 120.652 104.314 120.632 104.41 120.318C104.471 120.323 104.592 120.318 104.653 120.312C104.87 120.155 105.325 120.155 105.376 119.826C105.447 119.836 105.634 119.816 105.634 119.745C106.67 117.895 116.334 132.191 116.451 132.389L122.205 142.124C125.366 135.789 128.714 128.968 134.074 124.488C135.368 123.52 136.734 122.862 138.367 122.948C141.497 123.11 141.209 126.83 141.042 129.764C140.643 136.889 139.374 143.735 137.017 150.501C135.191 155.736 132.006 160.033 127.495 163.038C127.348 163.135 127.019 163.15 126.964 163.013C122.751 165.729 112.491 163.261 112.638 164.361C111.95 164.128 120.415 149.502 120.091 148.798C116.941 141.916 113.295 135.399 109.199 129.085C107.97 127.194 105.553 123.708 103.151 125.831C98.731 129.733 87.9952 142.124 84.0609 147.034C83.7322 147.445 85.4212 161.842 84.9357 161.67C84.6829 162.177 77.1987 161.021 74.0684 157.58C73.9218 157.418 73.6436 157.798 73.32 157.925C64.1568 149.452 58.5942 135.166 58.0885 122.988C58.1745 122.836 58.1796 122.649 58.0784 122.507C57.9166 120.206 58.1138 117.834 58.8268 115.539C59.2921 114.039 60.4349 113.152 62.0127 113.035C64.086 112.878 65.9672 113.679 67.636 114.941C74.2505 119.937 80.9711 131.619 85.3302 139.114C89.7853 133.053 97.133 125.4 102.949 121.331V121.321Z" fill="#666B78"/>
<path d="M121.057 150.496C121.664 155.102 123.156 159.76 126.185 163.292C126.377 163.505 126.291 163.93 125.892 164.148C119.449 167.645 112.182 169.946 104.946 169.865C106.488 168.734 107.783 167.356 108.491 165.658C108.946 164.559 109.295 163.626 109.325 162.339C109.351 161.214 109.457 160.099 109.452 158.964L109.442 156.085L109.381 151.95L109.174 149.827C109.067 148.763 109.057 147.693 108.976 146.629L108.83 144.653C108.759 143.715 108.921 142.762 108.688 141.83C108.557 141.298 108.759 140.649 108.658 140.127C108.592 139.773 108.567 139.514 108.713 139.195C109.821 139.443 110.751 139.914 112.415 139.909C111.732 137.051 106.974 128.056 103.914 127.225C102.165 128.948 100.997 130.965 99.525 132.835C99.0446 133.448 98.635 133.899 98.6249 134.593C98.6198 134.943 98.4934 135.034 99.0345 135.333L102.463 137.234C102.276 138.1 101.882 139.028 101.785 139.894C101.416 140.203 101.335 140.923 101.057 141.308C100.577 141.977 100.405 142.783 100.041 143.487C99.7728 144.009 99.3025 144.708 99.1154 145.266C98.3012 146.031 98.0484 147.232 97.4011 148.089C96.855 148.813 96.4099 149.746 95.9751 150.501C95.2165 151.281 94.8271 152.305 94.2658 153.192L92.8549 155.422C92.1116 156.592 91.3075 157.727 90.7159 159.015C90.3012 159.917 89.7652 160.727 89.4263 161.675C88.8347 163.327 88.2683 165.121 88.7386 166.854C88.6476 166.951 88.4706 166.996 88.4959 167.163C83.3378 165.212 78.5691 162.4 74.2808 158.746C74.0735 158.569 74.4477 158.31 74.4477 158.234C78.1949 155.614 80.956 151.651 83.0243 147.551C83.5097 147.724 83.707 147.445 84.0357 147.04C87.9699 142.129 98.7007 129.744 103.126 125.836C105.528 123.718 107.945 127.2 109.174 129.09C113.275 135.404 116.916 141.921 120.066 148.803C120.39 149.508 120.349 150.278 121.037 150.511L121.057 150.496Z" fill="#525563"/>
<path d="M103.657 136.458C99.5402 143.538 95.4239 150.617 91.3076 157.697C90.4378 159.192 89.5528 160.727 89.2898 162.435C89.1027 163.656 89.2393 164.903 89.4062 166.129C90.0787 171.116 91.1609 176.047 92.6325 180.861C97.1483 176.767 101.664 172.667 106.18 168.572C107.298 167.559 108.445 166.499 109.002 165.096C109.477 163.9 109.472 162.572 109.457 161.28C109.371 153.663 109.29 146.041 109.204 138.424C110.605 138.642 111.94 139.281 112.992 140.228C108.789 132.475 105.512 120.419 98.1647 134.137C98.6806 134.451 103.424 136.853 103.652 136.458H103.657Z" fill="#D3005E"/>
<path d="M89.6848 163.834C89.6038 162.79 89.5482 161.73 89.7909 160.712C90.0741 159.516 90.7518 158.462 91.4243 157.438C93.4218 154.387 95.4699 151.372 97.5584 148.387C94.6608 154.61 93.174 161.487 93.2398 168.354C97.1993 169.692 101.543 169.869 105.594 168.856C103.359 170.984 101.124 173.118 98.8833 175.246C97.8112 176.265 94.4686 180.613 92.9869 179.842C91.3889 179.011 91.1159 174.232 90.8327 172.722C90.2865 169.783 89.8971 166.818 89.6746 163.834H89.6848Z" fill="#A30752"/>
<path d="M103.237 30.0365C110.301 28.8912 117.594 30.6041 124.087 33.6295C146.56 44.0892 159.627 71.5663 153.589 95.648C152.977 98.0856 152.158 100.549 150.539 102.474C148.855 104.471 146.458 105.712 144.072 106.772C120.041 117.454 77.7096 115.508 61.5577 91.0567C46.3769 68.0747 82.2001 33.447 103.242 30.0466L103.237 30.0365Z" fill="#656A77"/>
<path d="M123.768 39.2594C141.715 48.1988 150.808 66.1892 145.923 85.6643C145.427 87.6357 144.765 89.6324 143.455 91.1831C142.095 92.7997 140.153 93.8031 138.226 94.6595C118.787 103.3 79.151 106.538 66.089 86.764C53.8108 68.1757 91.2168 23.0427 123.773 39.2594H123.768Z" fill="url(#paint0_linear_300_546)"/>
<path d="M108.567 91.2742C108.658 90.8282 108.977 90.2455 109.392 90.4279C108.304 97.8774 108.638 105.535 110.378 112.858C110.115 111.753 104.072 112.27 103.207 111.459C101.968 110.288 103.47 108.17 103.981 106.903C105.998 101.876 107.485 96.5801 108.567 91.2742Z" fill="#4C4F5F"/>
<path d="M103.237 30.0365C110.302 28.8912 117.594 30.6041 124.087 33.6295C146.56 44.0892 159.627 71.5663 153.589 95.648C152.977 98.0856 152.158 100.549 150.54 102.474C148.856 104.471 146.459 105.712 144.072 106.772C120.042 117.454 77.7101 115.508 61.5582 91.0567C46.3773 68.0747 82.2006 33.447 103.242 30.0466L103.237 30.0365Z" stroke="black" stroke-miterlimit="10"/>
<path d="M58.1904 58.7448C72.7139 54.6906 89.5737 57.5589 100.355 68.12C111.136 78.6811 114.019 97.234 105.068 109.391C102.277 113.187 98.3475 116.329 93.7457 117.312C84.1527 119.365 74.5546 110.891 72.8656 101.212C71.1766 91.5328 75.7228 81.6711 82.2007 74.2925C87.9757 67.7197 95.5409 62.4797 104.097 60.6705C116.507 58.0505 130.231 63.4729 137.518 73.8719C142.585 81.0984 144.532 90.1341 144.73 98.9671C144.881 105.95 143.516 113.826 137.802 117.824C131.566 122.182 122.267 119.674 117.473 113.76C112.679 107.846 111.733 99.5753 112.911 92.0497C115.035 78.5443 124.537 65.6571 137.817 62.5303C151.096 59.4036 166.833 68.8143 167.875 82.4464C167.445 83.2573 167.021 84.0681 166.591 84.8789" stroke="black" stroke-miterlimit="10"/>
<path d="M64.4558 112.579C62.605 112.006 60.9615 112.457 59.7023 114.383C54.5644 122.238 62.3774 143.183 66.8932 149.872C78.0539 166.403 101.063 173.721 119.693 166.656C123.141 165.349 126.454 163.59 129.245 161.178C132.689 158.198 135.243 154.291 137.093 150.125C138.676 146.573 145.857 118.478 135.946 122.704C134.423 123.353 133.26 124.625 132.188 125.897C128.168 130.671 124.744 135.951 122.029 141.576C117.73 133.387 112.492 125.699 106.448 118.706C98.2209 124.001 90.9794 130.838 85.2094 138.748C82.5596 133.438 71.8591 114.864 64.4609 112.579H64.4558Z" stroke="black" stroke-miterlimit="10"/>
<path d="M103.657 136.458C99.5407 143.538 95.4244 150.617 91.308 157.697C90.4383 159.192 89.5533 160.727 89.2903 162.435C89.1032 163.656 89.2398 164.903 89.4066 166.129C90.0792 171.116 91.1614 176.047 92.633 180.861C97.1488 176.767 101.665 172.667 106.18 168.572C107.298 167.559 108.446 166.499 109.002 165.096C109.478 163.9 109.473 162.572 109.457 161.28C109.371 153.663 109.29 146.041 109.205 138.424C110.605 138.642 111.94 139.281 112.992 140.228C108.79 132.475 105.513 120.419 98.1652 134.137C98.681 134.451 103.424 136.853 103.652 136.458H103.657Z" stroke="black" stroke-miterlimit="10"/>
<path d="M108.684 32.3117C108.866 24.1476 106.858 20.5141 101.958 13.992C105.558 12.5021 109.356 11.4936 113.225 10.9969C107.242 8.35668 101.265 5.71133 95.2827 3.07106C97.3763 2.87849 107.965 0.440923 110.059 0.253418" stroke="black" stroke-miterlimit="10"/>
<path d="M75.5809 154.474C75.8237 155.066 75.4798 155.725 75.1005 156.237C71.3584 161.325 62.5138 161.249 58.8577 156.095C68.3596 157.773 76.8755 164.315 80.9564 173.077C69.1687 167.128 61.4822 153.744 48.6123 150.81C56.2938 162.577 63.9753 174.349 71.6567 186.116C64.6377 177.957 57.4468 169.646 48.1724 164.198C49.5984 170.954 51.0296 177.709 52.4556 184.459C49.7906 186.03 46.4733 185.64 43.3835 185.594C40.2937 185.549 36.7336 186.187 35.1812 188.868" stroke="black" stroke-miterlimit="10"/>
<path d="M138.919 130.975C139.485 129.105 141.862 128.553 143.809 128.634C149.918 128.882 155.612 132.176 159.814 136.625C164.016 141.075 166.884 146.614 169.291 152.244C171.303 151.479 173.311 150.714 175.324 149.943C171.764 153.992 167.678 157.575 163.202 160.58C167.364 157.57 171.865 155.036 176.593 153.045C176.942 157.215 173.857 161.199 174.57 165.324C174.95 167.523 176.355 169.373 177.549 171.258C180.173 175.403 181.928 180.101 182.661 184.956C182.778 185.716 182.843 186.573 182.368 187.181C181.923 187.748 181.144 187.916 180.426 187.981C175.536 188.432 170.494 185.878 167.961 181.667C165.427 177.456 165.523 171.795 168.204 167.67C169.797 168.907 170.358 171.304 169.483 173.123C168.608 174.942 166.388 175.996 164.431 175.52C161.377 174.78 159.986 170.913 160.785 167.868C161.589 164.822 163.905 162.45 166.135 160.231C166.813 160.175 167.491 160.124 168.168 160.069" stroke="black" stroke-miterlimit="10"/>
<path d="M58.8072 122.167C39.1408 114.773 29.0219 121.427 12.243 134.086C12.8195 134.892 13.5881 133.235 13.1634 132.338C12.1874 130.29 10.817 128.431 9.14311 126.9C11.8031 130.777 14.463 134.654 17.1229 138.525C13.573 136.27 9.76511 134.421 5.80554 133.012C5.72969 135.743 4.1671 138.389 1.81563 139.772C1.07226 140.213 0.141785 140.674 0.273265 141.667C0.323834 142.063 0.56151 142.412 0.864925 142.671C4.49074 145.732 9.66903 143.188 13.5072 140.654C10.3669 144.419 8.4402 149.188 8.08116 154.083C12.7487 153.161 16.7336 149.396 17.927 144.779C19.1204 140.162 17.4668 134.932 13.841 131.851C14.2 133.458 14.9889 135.171 16.5313 135.738C18.0736 136.306 20.1773 134.78 19.5351 133.265" stroke="black" stroke-miterlimit="10"/>
<path d="M114.706 84.1439C111.976 91.6847 111.9 100.163 114.484 107.754C115.151 109.716 116.001 111.636 117.194 113.329C120.921 118.625 128.117 121.184 134.337 119.425C136.745 118.746 139.025 117.444 140.603 115.498C142.646 112.979 143.344 109.64 143.723 106.416C144.633 98.6781 144.057 90.7674 142.034 83.2469C140.552 77.7333 138.064 72.0625 133.64 68.282C132.841 67.6029 131.141 65.9711 130.044 65.9255C128.841 65.8748 127.258 67.4357 126.317 68.1705C123.859 70.0861 121.66 72.3311 119.779 74.8143C117.634 77.6471 115.905 80.7992 114.696 84.1439H114.706Z" fill="#131414"/>
<path d="M80.4404 76.5073C78.3014 79.1476 76.3797 81.9855 75.0396 85.1072C71.9094 92.4047 72.2786 101.116 76.0106 108.12C77.1433 110.248 78.5896 112.24 80.4404 113.78C84.6731 117.302 90.8274 118.098 96.0208 116.284C101.214 114.469 105.406 110.268 107.758 105.287C110.109 100.305 110.726 94.6091 110.089 89.136C109.361 82.8368 106.954 76.7607 103.288 71.6017C101.568 69.1845 99.2977 66.0425 96.7136 64.4968C93.9222 62.8245 90.9993 66.2046 88.8956 67.953C85.8058 70.5173 82.9638 73.3856 80.4354 76.5124L80.4404 76.5073Z" fill="#131414"/>
<path d="M87.1914 76.6439C89.6339 74.7232 92.2484 72.7265 95.3381 72.387C95.945 72.3211 96.572 72.3211 97.1637 72.4833C97.7301 72.6404 98.2408 72.9394 98.7313 73.2587C102.853 75.9749 105.573 80.7082 105.857 85.6391C104.37 84.1289 102.878 82.6086 101.164 81.3568C99.055 79.8163 96.5316 78.6912 93.9222 78.7571C89.3507 78.8686 85.6288 82.9532 81.1636 82.867C81.8311 80.4092 85.2597 78.1642 87.1914 76.6439Z" fill="url(#paint1_linear_300_546)"/>
<path d="M126.822 74.7688C127.535 74.2874 128.319 73.8668 129.174 73.7857C131.065 73.6134 132.694 75.1489 133.664 76.7858C134.433 78.0882 134.964 79.5173 135.495 80.9312C136.152 82.6947 136.81 84.4583 137.467 86.2269C136.046 85.9229 135.601 84.0326 134.347 83.2978C127.004 78.9852 120.845 85.1526 121.331 81.8079C121.72 79.1169 124.719 76.1777 126.822 74.7638V74.7688Z" fill="url(#paint2_linear_300_546)"/>
<path d="M89.3155 97.3098C89.3559 98.0801 89.4672 98.9112 90.0841 99.4838C91.1259 100.457 93.0323 100.178 94.3977 99.5497C96.7542 98.4652 98.509 96.6256 99.8339 94.6594C101.806 91.7302 102.944 88.3754 102.964 85.0003C102.979 82.7503 102.372 76.1217 98.0943 78.316C94.959 79.9276 92.6177 84.2402 91.3484 87.0072C89.8465 90.2758 89.1334 93.8029 89.3155 97.3098Z" fill="white"/>
<path d="M122.615 97.1379C123 98.2376 123.581 99.4336 124.82 99.9049C126.049 100.371 127.551 99.9251 128.497 99.1143C129.442 98.3035 129.943 97.1987 130.347 96.1142C132.234 91.1073 132.785 85.0362 129.488 80.3385C124.537 73.2842 121.912 83.4805 121.508 86.8505C121.103 90.2205 121.462 93.8135 122.615 97.1379Z" fill="white"/>
</g>
<defs>
<linearGradient id="paint0_linear_300_546" x1="83.0499" y1="39.5584" x2="109.779" y2="79.7587" gradientUnits="userSpaceOnUse">
<stop stop-color="#9EA7B3"/>
<stop offset="1" stop-color="#6B717F"/>
</linearGradient>
<linearGradient id="paint1_linear_300_546" x1="94.1548" y1="71.9056" x2="93.5809" y2="82.7807" gradientUnits="userSpaceOnUse">
<stop stop-color="#131414"/>
<stop offset="1" stop-color="#333646"/>
</linearGradient>
<linearGradient id="paint2_linear_300_546" x1="129.386" y1="70.5475" x2="129.386" y2="88.6695" gradientUnits="userSpaceOnUse">
<stop stop-color="#131414"/>
<stop offset="1" stop-color="#333646"/>
</linearGradient>
<clipPath id="clip0_300_546">
<rect width="183" height="189" fill="white"/>
</clipPath>
</defs>
</svg>
