<?xml version="1.0" encoding="UTF-8"?>
<svg id="Ebene_2" data-name="Ebene 2" xmlns="http://www.w3.org/2000/svg" viewBox="0 0 564.09 533.81">
  <defs>
    <style>
      .cls-1 {
        fill: none;
        stroke: #000;
        stroke-miterlimit: 10;
        stroke-width: 20px;
      }
    </style>
  </defs>
  <g id="Ebene_6" data-name="Ebene 6">
    <g>
      <path d="M279.08,181.17C-49.69,181.17,3.12,533.81,3.12,533.81l85.65-2.08c-22.75-19.57-37.16-48.57-37.16-80.93,0-58.94,47.78-106.73,106.73-106.73s106.73,47.78,106.73,106.73c0,30.5-12.8,58.02-33.32,77.47l105.91-2.57c-18.98-19.27-30.7-45.71-30.7-74.9,0-58.94,47.78-106.73,106.73-106.73s106.73,47.78,106.73,106.73c0,27.32-10.27,52.24-27.16,71.12l68.62-1.66s45.95-339.08-282.82-339.08Z"/>
      <path class="cls-1" d="M279.92,214.41c-5.25-39.35-14.6-77.6-27.65-113.12,20.17-6.05,61.44-8.32,61.44-8.32,0,0-47.54-40.18-71.32-60.27,17.49-6.44,32.99-16.88,50.48-23.32"/>
    </g>
  </g>
</svg>