<?xml version="1.0" encoding="UTF-8"?>
<svg id="Ebene_2" data-name="Ebene 2" xmlns="http://www.w3.org/2000/svg" viewBox="0 0 1512.4 199.92">
  <defs>
    <style>
      .cls-1 {
        fill: #18326b;
      }
    </style>
  </defs>
  <g id="Ebene_2-2" data-name="Ebene 2">
    <polygon class="cls-1" points="51.72 0 0 0 0 12.25 92.53 99.96 0 187.67 0 199.92 51.72 199.92 125.54 128 125.54 71.92 51.72 0"/>
    <polygon class="cls-1" points="253.28 0 305 0 305 12.25 212.47 99.96 305 187.67 305 199.92 253.28 199.92 179.46 128 179.46 71.92 253.28 0"/>
    <g>
      <path class="cls-1" d="M658.66,119.65v73.59h-36.79v-67.86c0-20.79-9.43-30.34-25.7-30.34-17.69,0-30.42,10.99-30.42,34.65v63.56h-36.79V64.69h35.14v15.05c9.9-10.99,24.76-16.96,41.97-16.96,29.95,0,52.59,17.68,52.59,56.87Z"/>
      <path class="cls-1" d="M678.08,128.97c0-38.94,29.45-66.58,70.68-66.58,26.62,0,47.59,11.78,56.78,32.93l-28.51,15.62c-6.83-12.26-16.96-17.79-28.51-17.79-18.61,0-33.22,13.22-33.22,35.81s14.61,35.81,33.22,35.81c11.54,0,21.67-5.29,28.51-17.79l28.51,15.86c-9.19,20.67-30.16,32.69-56.78,32.69-41.23,0-70.68-27.64-70.68-66.58Z"/>
      <path class="cls-1" d="M815.68,128.97c0-38.94,29.45-66.58,69.73-66.58s69.5,27.64,69.5,66.58-29.21,66.58-69.5,66.58-69.73-27.64-69.73-66.58ZM917.69,128.97c0-22.35-13.9-35.81-32.28-35.81s-32.51,13.46-32.51,35.81,14.14,35.81,32.51,35.81,32.28-13.46,32.28-35.81Z"/>
      <path class="cls-1" d="M1102.25,119.65v73.59h-36.53v-67.86c0-20.79-9.37-30.34-25.53-30.34-17.56,0-30.21,10.99-30.21,34.65v63.56h-36.53V64.69h34.89v15.05c9.84-10.99,24.59-16.96,41.69-16.96,29.74,0,52.22,17.68,52.22,56.87Z"/>
      <path class="cls-1" d="M1254.22,139.54h-95.89c3.53,16.11,16.96,25.96,36.28,25.96,13.43,0,23.09-4.09,31.8-12.5l19.55,21.63c-11.78,13.7-29.45,20.91-52.3,20.91-43.82,0-72.33-28.12-72.33-66.58s28.98-66.58,67.61-66.58,65.97,25.48,65.97,67.06c0,2.89-.47,6.97-.71,10.1ZM1157.86,117.67h62.43c-2.59-16.34-14.61-26.92-31.1-26.92s-28.74,10.34-31.33,26.92Z"/>
      <path class="cls-1" d="M1512.4,187.03c-7.49,5.5-18.5,8.12-29.74,8.12-29.74,0-47.07-15.53-47.07-46.11v-45.86h-19.44v-28.67h19.44V30.21h36.53v44.3h31.38v28.67h-31.38v45.39c0,10.99,5.86,16.96,15.69,16.96,5.39,0,10.77-1.67,14.75-4.78l9.84,26.28Z"/>
      <ellipse class="cls-1" cx="480.49" cy="40.39" rx="21.93" ry="22.22"/>
      <polygon class="cls-1" points="1409.57 62.91 1365.21 62.91 1333.93 100.24 1302.65 62.91 1258.3 62.91 1311.75 126.71 1256.65 192.49 1301.01 192.49 1333.93 153.19 1366.86 192.49 1411.22 192.49 1356.11 126.71 1409.57 62.91"/>
      <rect class="cls-1" x="461.82" y="77.81" width="38.61" height="115.43"/>
      <path class="cls-1" d="M418.67,37.99c7.99-1.27,17.67,1.4,21,2.7l8.29-31.11c-5.98-2.6-22.23-6.4-35.13-5.19-33.73,3.16-49.54,24.68-49.54,54.75v19.08h-16.88v29.82h16.88v85.71h38.49l-.04-85.71h33.88v-29.82h-33.9v-16.81c0-13.17,5.47-21.59,16.96-23.42Z"/>
    </g>
    <rect class="cls-1" x="139.66" y="6.92" width="26.25" height="186.66"/>
  </g>
</svg>