<?xml version="1.0" encoding="UTF-8"?>
<svg id="Ebene_2" data-name="Ebene 2" xmlns="http://www.w3.org/2000/svg" xmlns:xlink="http://www.w3.org/1999/xlink" viewBox="0 0 719.54 479.61">
  <defs>
    <style>
      .cls-1 {
        fill: #c4ad7d;
      }

      .cls-2 {
        fill: #554c4b;
      }

      .cls-3 {
        fill: #a7c05a;
      }

      .cls-4 {
        fill: #312326;
      }

      .cls-5 {
        fill: #9e8290;
      }

      .cls-6 {
        fill: #888e87;
      }

      .cls-7 {
        fill: #be7e1a;
      }

      .cls-8 {
        fill: #d2a84b;
      }

      .cls-9 {
        fill: #ae7e69;
      }

      .cls-10 {
        fill: #73749a;
      }

      .cls-11 {
        fill: #aec36c;
      }

      .cls-12 {
        fill: #8e8293;
      }

      .cls-13 {
        fill: #fcffbb;
      }

      .cls-14 {
        fill: #9a6f5b;
      }

      .cls-15 {
        fill: #525d66;
      }

      .cls-16 {
        fill: #2e4469;
      }

      .cls-17 {
        fill: #010101;
      }

      .cls-18 {
        fill: #fde5db;
      }

      .cls-19 {
        fill: #010000;
      }

      .cls-20 {
        fill: #caa246;
      }

      .cls-21 {
        fill: #b19e98;
      }

      .cls-22 {
        fill: #ffe850;
      }

      .cls-23 {
        fill: #635856;
      }

      .cls-24 {
        fill: #73729f;
      }

      .cls-25 {
        fill: #eeecf1;
      }

      .cls-26 {
        fill: #fdddc7;
      }

      .cls-27 {
        fill: #cee4bb;
      }

      .cls-28 {
        fill: #8c7a65;
      }

      .cls-29 {
        fill: #e0ccbc;
      }

      .cls-30 {
        fill: #6b6045;
      }

      .cls-31 {
        fill: #a7c168;
      }

      .cls-32 {
        fill: #fcc49e;
      }

      .cls-33 {
        fill: #fbf2d1;
      }

      .cls-34 {
        fill: #f7f7f8;
      }

      .cls-35 {
        fill: #eef29b;
      }

      .cls-36 {
        fill: #f7f6f7;
      }

      .cls-37 {
        fill: #59524e;
      }

      .cls-38 {
        fill: #060405;
      }

      .cls-39 {
        fill: #746965;
      }

      .cls-40 {
        fill: #01000a;
      }

      .cls-41 {
        fill: #a2917e;
      }

      .cls-42 {
        fill: #a6c26c;
      }

      .cls-43 {
        fill: #fab698;
      }

      .cls-44 {
        fill: #636a61;
      }

      .cls-45 {
        fill: #d5a73d;
      }

      .cls-46 {
        fill: #fbffb9;
      }

      .cls-47 {
        fill: #827666;
      }

      .cls-48 {
        fill: #9f8b79;
      }

      .cls-49 {
        fill: #a6c26e;
      }

      .cls-50 {
        fill: #adb1bf;
      }

      .cls-51 {
        fill: #f4e8bb;
      }

      .cls-52 {
        fill: #e6d0af;
      }

      .cls-53 {
        fill: #fce058;
      }

      .cls-54 {
        fill: #756b70;
      }

      .cls-55 {
        fill: #d3c8c8;
      }

      .cls-56 {
        fill: #5b543c;
      }

      .cls-57 {
        fill: #e4d1b4;
      }

      .cls-58 {
        fill: #877469;
      }

      .cls-59 {
        fill: #e5d1ad;
      }

      .cls-60 {
        fill: #bd8875;
      }

      .cls-61 {
        fill: #433742;
      }

      .cls-62 {
        fill: #514f4b;
      }

      .cls-63 {
        fill: #a5c05d;
      }

      .cls-64 {
        fill: #fab598;
      }

      .cls-65 {
        fill: #8c8273;
      }

      .cls-66 {
        fill: #a69887;
      }

      .cls-67 {
        fill: #eae9c5;
      }

      .cls-68 {
        fill: #010102;
      }

      .cls-69 {
        fill: #b69b3c;
      }

      .cls-70 {
        fill: #8e7f6f;
      }

      .cls-71 {
        fill: #fbf55f;
      }

      .cls-72 {
        fill: #9a7666;
      }

      .cls-73 {
        fill: #000001;
      }

      .cls-74 {
        fill: #a5c166;
      }

      .cls-75 {
        fill: #a5bf78;
      }

      .cls-76 {
        fill: #a5bd73;
      }

      .cls-77 {
        fill: #4c4036;
      }

      .cls-78 {
        fill: #fde9da;
      }

      .cls-79 {
        fill: #c5b0ad;
      }

      .cls-80 {
        fill: #efb493;
      }

      .cls-81 {
        fill: #e8ccaf;
      }

      .cls-82 {
        fill: #020101;
      }

      .cls-83 {
        fill: #cfc784;
      }

      .cls-84 {
        fill: #fce761;
      }

      .cls-85 {
        fill: #9f8e82;
      }

      .cls-86 {
        fill: #f8f4b4;
      }

      .cls-87 {
        fill: #6f5c4f;
      }

      .cls-88 {
        fill: #a5c073;
      }

      .cls-89 {
        fill: #c8b4a9;
      }

      .cls-90 {
        fill: #feeae0;
      }

      .cls-91 {
        fill: #94a38e;
      }

      .cls-92 {
        fill: #d4aba9;
      }

      .cls-93 {
        fill: #daf0c9;
      }

      .cls-94 {
        fill: #dfdda8;
      }

      .cls-95 {
        fill: #fcffaa;
      }

      .cls-96 {
        fill: #0a0604;
      }

      .cls-97 {
        fill: #d6bf75;
      }

      .cls-98 {
        fill: #62564f;
      }

      .cls-99 {
        fill: #998087;
      }

      .cls-100 {
        fill: #a77730;
      }

      .cls-101 {
        fill: #d2bebc;
      }

      .cls-102 {
        fill: #aebeab;
      }

      .cls-103 {
        fill: #a9be70;
      }

      .cls-104 {
        fill: #dcdae1;
      }

      .cls-105 {
        fill: #50423a;
      }

      .cls-106 {
        fill: #4d463d;
      }

      .cls-107 {
        fill: #020102;
      }

      .cls-108 {
        fill: #fdf5dd;
      }

      .cls-109 {
        fill: #544a45;
      }

      .cls-110 {
        fill: #d9dcad;
      }

      .cls-111 {
        fill: #e5d0ae;
      }

      .cls-112 {
        fill: #a19488;
      }

      .cls-113 {
        fill: #0d0b12;
      }

      .cls-114 {
        fill: #fce068;
      }

      .cls-115 {
        fill: #766960;
      }

      .cls-116 {
        fill: #c3ad96;
      }

      .cls-117 {
        fill: #fcf7e1;
      }

      .cls-118 {
        fill: #fedf5e;
      }

      .cls-119 {
        fill: #7a6e69;
      }

      .cls-120 {
        fill: #8d9239;
      }

      .cls-121 {
        fill: #9f949b;
      }

      .cls-122 {
        fill: #634e60;
      }

      .cls-123 {
        fill: #fbffb5;
      }

      .cls-124 {
        fill: #bcb9bf;
      }

      .cls-125 {
        fill: #030201;
      }

      .cls-126 {
        fill: #fdf932;
      }

      .cls-127 {
        fill: #c6e4fa;
      }

      .cls-128 {
        fill: #8d6d61;
      }

      .cls-129 {
        fill: #ceefc7;
      }

      .cls-130 {
        fill: #1b1b31;
      }

      .cls-131 {
        fill: #5e6666;
      }

      .cls-132 {
        fill: #fafaf9;
      }

      .cls-133 {
        fill: #11090a;
      }

      .cls-134 {
        fill: #a5c06a;
      }

      .cls-135 {
        fill: #fefefe;
      }

      .cls-136 {
        fill: #b0b5c2;
      }

      .cls-137 {
        fill: #b5c6bd;
      }

      .cls-138 {
        fill: #fefaf9;
      }

      .cls-139 {
        fill: #1b1511;
      }

      .cls-140 {
        fill: #9b8023;
      }

      .cls-141 {
        fill: #abceb5;
      }

      .cls-142 {
        fill: #e4beb4;
      }

      .cls-143 {
        fill: #fff9f3;
      }

      .cls-144 {
        fill: #adb3c2;
      }

      .cls-145 {
        fill: #d4f13d;
      }

      .cls-146 {
        fill: url(#Unbenannter_Verlauf_793);
      }

      .cls-147 {
        fill: url(#Unbenannter_Verlauf_795);
      }

      .cls-148 {
        fill: url(#Unbenannter_Verlauf_796);
      }

      .cls-149 {
        fill: url(#Unbenannter_Verlauf_799);
      }

      .cls-150 {
        fill: url(#Unbenannter_Verlauf_801);
      }

      .cls-151 {
        fill: url(#Unbenannter_Verlauf_800);
      }

      .cls-152 {
        fill: #b1c5a6;
      }

      .cls-153 {
        fill: #808c72;
      }

      .cls-154 {
        fill: #dbb053;
      }

      .cls-155 {
        fill: #fef7db;
      }

      .cls-156 {
        fill: #5b5149;
      }

      .cls-157 {
        fill: #edc559;
      }

      .cls-158 {
        fill: #db9e8b;
      }

      .cls-159 {
        fill: #d6a444;
      }

      .cls-160 {
        fill: #f6e2d0;
      }

      .cls-161 {
        fill: #070503;
      }

      .cls-162 {
        fill: #9a8987;
      }

      .cls-163 {
        fill: #fdf6db;
      }

      .cls-164 {
        fill: #fbf5da;
      }

      .cls-165 {
        fill: #b0a1a2;
      }

      .cls-166 {
        fill: #fac0a0;
      }

      .cls-167 {
        fill: #a39b99;
      }

      .cls-168 {
        fill: #815207;
      }

      .cls-169 {
        fill: #9c8b7a;
      }

      .cls-170 {
        fill: #ddeac7;
      }

      .cls-171 {
        fill: #c0ecdb;
      }

      .cls-172 {
        fill: #a6c068;
      }

      .cls-173 {
        fill: #7b6d4f;
      }

      .cls-174 {
        fill: #bf7f19;
      }

      .cls-175 {
        fill: #6b7977;
      }

      .cls-176 {
        fill: #f6f2aa;
      }

      .cls-177 {
        fill: #86797a;
      }

      .cls-178 {
        fill: #f7b99d;
      }

      .cls-179 {
        fill: #c3b183;
      }

      .cls-180 {
        fill: #71686c;
      }

      .cls-181 {
        fill: #535f61;
      }

      .cls-182 {
        fill: #6b615a;
      }

      .cls-183 {
        fill: #dec9af;
      }

      .cls-184 {
        fill: #dec9ad;
      }

      .cls-185 {
        fill: #c8927c;
      }

      .cls-186 {
        fill: #ab978e;
      }

      .cls-187 {
        fill: #949ba8;
      }

      .cls-188 {
        fill: #cbe1bb;
      }

      .cls-189 {
        fill: #6a5a59;
      }

      .cls-190 {
        fill: #827774;
      }

      .cls-191 {
        fill: #8a7868;
      }

      .cls-192 {
        fill: #fde6df;
      }

      .cls-193 {
        fill: #6f4e3f;
      }

      .cls-194 {
        fill: #918d91;
      }

      .cls-195 {
        fill: #b2a07c;
      }

      .cls-196 {
        fill: #68626a;
      }

      .cls-197 {
        fill: #a7be6a;
      }

      .cls-198 {
        fill: #cc9330;
      }

      .cls-199 {
        fill: #78837e;
      }

      .cls-200 {
        fill: #adb3c1;
      }

      .cls-201 {
        fill: #5b565e;
      }

      .cls-202 {
        fill: #e8e9b8;
      }

      .cls-203 {
        fill: #fef5ef;
      }

      .cls-204 {
        fill: #fbc49c;
      }

      .cls-205 {
        fill: #fef542;
      }
    </style>
    <linearGradient id="Unbenannter_Verlauf_795" data-name="Unbenannter Verlauf 795" x1="14278.1" y1="1846.19" x2="14520.37" y2="2201.69" gradientTransform="translate(-6954.05 -971.42) scale(.52)" gradientUnits="userSpaceOnUse">
      <stop offset="0" stop-color="#d2eebe"/>
      <stop offset="1" stop-color="#a5b7b9"/>
    </linearGradient>
    <linearGradient id="Unbenannter_Verlauf_801" data-name="Unbenannter Verlauf 801" x1="14383.27" y1="1927.38" x2="14469.55" y2="2009.63" gradientTransform="translate(-6954.05 -971.42) scale(.52)" gradientUnits="userSpaceOnUse">
      <stop offset="0" stop-color="#8d9e91"/>
      <stop offset="1" stop-color="#798a95"/>
    </linearGradient>
    <linearGradient id="Unbenannter_Verlauf_796" data-name="Unbenannter Verlauf 796" x1="13979.36" y1="2471.96" x2="13964.45" y2="2556.34" gradientTransform="translate(-6954.05 -971.42) scale(.52)" gradientUnits="userSpaceOnUse">
      <stop offset="0" stop-color="#f6eabd"/>
      <stop offset="1" stop-color="#e3cfc1"/>
    </linearGradient>
    <linearGradient id="Unbenannter_Verlauf_799" data-name="Unbenannter Verlauf 799" x1="13727.64" y1="2414.01" x2="13858.67" y2="2459.18" gradientTransform="translate(-6954.05 -971.42) scale(.52)" gradientUnits="userSpaceOnUse">
      <stop offset="0" stop-color="#f7ebba"/>
      <stop offset="1" stop-color="#d9c5b1"/>
    </linearGradient>
    <linearGradient id="Unbenannter_Verlauf_800" data-name="Unbenannter Verlauf 800" x1="14352.36" y1="2480.56" x2="14562.84" y2="2662.7" gradientTransform="translate(-6954.05 -971.42) scale(.52)" gradientUnits="userSpaceOnUse">
      <stop offset="0" stop-color="#b3a397"/>
      <stop offset="1" stop-color="#988a92"/>
    </linearGradient>
    <linearGradient id="Unbenannter_Verlauf_793" data-name="Unbenannter Verlauf 793" x1="14321.4" y1="2285.05" x2="14624.77" y2="2620.23" gradientTransform="translate(-6954.05 -971.42) scale(.52)" gradientUnits="userSpaceOnUse">
      <stop offset="0" stop-color="#fbf4ba"/>
      <stop offset="1" stop-color="#cab4ce"/>
    </linearGradient>
  </defs>
  <g id="outlines">
    <g id="Generatives_Objekt" data-name="Generatives Objekt">
      <path class="cls-135" d="M580.99,164.48c.92-.97,2.09,1.06,2.15.91-.26.66-.91.32-1.22.38-.75.15-1.69-.49-.93-1.29Z"/>
      <g>
        <g>
          <path d="M584.01,122.03c.23.1.56-.03.8,0,10.84,4.06,22.39,6.76,34.26,7.78.53.05,1.09-.07,1.59,0,1.56.21,3.77-.53,5.21.22,2.38,1.24,4.38.01,6.67-.17,3.54-.29,6.73.31,9.63-.77.21-.08.55.06.8,0,9.43-2.3,17.72-4.73,20.72-14.12,10.68,7,21.63,14.33,34.4,18.46l6.33,2.04c1.79.58,4.01.37,5.64,1.32-.35,6.46-5.01,12.85-12.17,15.61-23.39,9.01-72.94-31.24-71.94-6.57-6.98-2.5-20.24-4.62-23.42,3.07-1.25,3.03-.02,5.72.17,8.97-7.89-3.91-16.35-5.27-23.64-1.65-1.03.51-2.22,1.31-2.53,2.39-.19.67.72,1.44.8,2.4-2.63.72-5.24-.31-8.27-.33.12-1.7-1.34-2.97-1.66-4.09-3.09-12.94-13.55-24.28-26.34-31.07-17.28-9.96-41.44-13.7-62.16-4.99-11.43,4.8-20.97,12.41-27.18,22.11-5.74,8.97-7.41,19.14-5.56,29.35-17.05-11.43-28.78-16-50.07-18.11l-2.2-33.64c-4.67,1.74-8.37,3.25-12.26,5.37l1.76,26.03c.05.78.33,1.04.53,1.29,1.06,1.34,4.09-1.15,3.33.83-.67-.15-2.27.1-2.68.71-20.41.89-57.86,11.21-62.67,33.45-33.88-16.08-84.76-29.65-118.45-8.47-6.93,4.36-12,9.86-15.27,17.11l-62.89-32.27c-5.13-2.63-3.28,6.26-14.92,8.29-13.38,2.33-33.39-5.33-44.25-11.89,9.31,0,18.55.5,27.81-1.26,23.06-4.38,45.55-12.43,65.28-26.16,8.64,5.23,23.38,9.34,32.72,11.23l3.99.81c.26.05.56-.03.8,0l4.78.71c.44.07,1.12-.06,1.59,0,7.38,1.01,14.93,0,22.31,0h.8c4.14,0,8.29-1.33,12.48-2.39,23.83-6.01,41.27-19.45,49.78-40.62.33-.48.93-.85,1.49-.76.13,1.67,2.63,2.13,4.07,2.85,1.07.54,1.72,1.77,3.1,1.4,0,1.02,1.24,1.18,2.15,1.62,8.52,4.16,17.4,6.99,26.54,8.97.26.06.54.01.8,0l3.19.71c.22.05.53.04.8,0,1.97-.27,3.57.71,5.58.71h.8c24.18,3.13,54.09-5.11,73.11-18.16,2.18-.02,3.57,2.09,5.87,2.66.22.05.52-.06.71.02.03.94,1.22,1.16,2.13,1.59,12.8,5.98,26.6,9.36,40.89,10.36.27.02.53,0,.8,0,5.86.13,8.42,1.48,13,.25,2.07-.56,4.15-.18,6.12-.24.53-.02,1.05.05,1.59,0,20.16-1.75,39.79-6.44,57.5-14.6,2.51-1.15,4.14-3.03,7.26-3.68,1.25,1.46,2.75,3.62,4.69,4.69,6.11,3.38,2.81,7.01,33.34,20.63Z"/>
          <path class="cls-147" d="M430.69,13.47c-.95.82.73.66,1.22.62,1.66.37,3.51-.59,5.52-.43l4.86.4c9.32.77,18.22,2.75,27.26,4.76l18.17,4.03c12.8,2.84,42.84,11.94,54.98,16.4l14.97,5.5,7.76,2.93c4.1,1.55,7.79,3.48,11.38,5.25l-.81,1.52,37.72,18.07c26.53,12.71,51.98,26.99,73.53,45.64l18.42,15.94c-1.17.6-1.54.91-1.26,1.36l-6.33-2.04c-12.77-4.12-23.72-11.46-34.4-18.46-.12-.47-.49-1.07-1.61-.6.23,1.96-.45,4.18-2.37,4.83.1-1.86,1.55-2.69.97-4.47-.42-1.28-.83-2.06-3.49-2.54l-43.77-7.84c-27.96-5.01-54.4-13.31-78.92-25.92-9-4.63-15.92-10.39-24.75-15.79-30.7-18.75-64.3-32.52-100.11-42.15l11.01,8.49c15.85,12.22,28.65,26.25,38.15,42.9,3.98,6.97,7.48,13.42,11.86,20.01.44.66,1.03,1.13.38,1.65l-54.08.32-4.07-8.52c-6.96-14.57-12.58-29.74-20.82-44.03,4.65,12.66,8.52,24.46,8.69,37.63l3.32,18.94-32.04,4.36c-.24.03-.57.11-.8.03,1.95.67-30.85.86-34.44.62-.6-1.24.59-2.49,1.52-3.68,2.76-3.55,4.71-7.25,6.42-11.25,5.89-13.77,11.11-27.48,15.86-41.56,2.49-7.39,6.79-13.58,11.32-20.28.52-.77,5.04-14.38.85-11.37l-3.93-4.95c4.68-1.62,9.98-.16,15.14-.06,8.98.18,17.46.06,26.09,1.06,3.47.4,20.52.27,20.6,2.67Z"/>
          <path class="cls-93" d="M337.78,14.86c-4.98,5.21-9.26,11.47-11.96,18.3l-3.52,8.91c-1.43,3.61-3.46,6.82-5.12,10.1-.37.07-.89-.13-1.3,0-.56.19-.38,1-.75,1.7-7.64,14.56-15.67,28.7-22.47,43.61-.78,1.71-1.42,3.5-2.67,4.76-.56-.09-1.16.28-1.49.76l-1.34-.04c-.23,0-3.35,6.88-3.68,7.63-6.2,1.2-12.45,2.77-19.76,3.21l14.79-19.5-56.2,20.06c-2.65,2.43-10.77,6.54-5.6,8.84-3.93.37-7.57,1.68-11.12,3.11.07-.43-.27-.61-.48-.8.46.41-12.73,3.49-15.63,1.52,4.18-2.46,6.2-4.59,8.81-7.21,3.84-3.86,8.54-7,12.88-10.5l7.94-6.42,95.9-76.84c-1.3-1.45-2.36.27-3.61.02-.45-.04-.82-.67-1.63-.82-27.2,9.55-52.45,21.63-75.83,37.2-13.88,9.24-27.13,18.44-39.63,28.31-7.03,5.55-14.26,11.12-21.57,16.51l-15.95,11.76c-3.38,2.49-7.01,4.49-10.27,6.48-4.84-10.27-6.54-21.2-6.25-32.3.02-.61.38-1.24.24-1.93-.11-.51-1.19-.98-1.73-.4.19-.84.51-1.75,1.7-2.61l15.3-11.02c2.25-1.62,4.44-3.11,6.77-4.62l14.36-9.28c4.29-2.77,8.95-4.61,13.01-7.28l10.15-6.67c-.08.05,8.86-3.9,11.82-5.83,1.11-.72,17.54-7.99,19.9-8.98l10.84-4.58,10.06-3.44c28.45-9.72,52.36-13.51,84.92-15.4.84-.05,1.4-.33,1.85-.52-.51,1.02-.74,3.19-1.68,4.17Z"/>
          <path class="cls-200" d="M153.71,134.02c-.78,3.05-9,6.7-12.19,8.18l-12.62,5.88-9.42,3.03-12.65,4.13c-13.73,1.36-15.39,4.65-32.82,3.96-2.63-.11-6.06-.04-6.45-2.65.28-.31.31-.38.74-.13,7.51-1.66-1.74,1.23,5.78-.65l7.91-1.97c-.06.82.72.64,1.22.71.84.12,1.14-.47,1.91-.69l22.18-6.12,30.74-9.2c.54-.16,1.05-.23,1.34-.59.27-.33.53-.69.17-1.04,4.59-1.35,9.41-2.31,14.16-2.84Z"/>
          <path class="cls-188" d="M710.06,136.78c-1.64-.95-3.85-.74-5.64-1.32-.28-.45.09-.76,1.26-1.36l-18.42-15.94c-21.55-18.66-47-32.93-73.53-45.64l-37.72-18.07.81-1.52c3.12,1.54,5.2,1.59,8.6,3.1l6.62,2.94,28.67,13.78,20.16,10.86,8.46,5.31,19.13,11.87c3.43,2.13,6.21,4.94,9.37,6.42,2.71,1.27,3.62,3.55,6.13,5.16,5.82,3.73,15.84,12.69,21,18.03,1.96,2.03,5.23,3.98,5.1,6.38Z"/>
          <path class="cls-141" d="M368.86,9.79l3.93,4.95c-7.38,6.48-19.57,6.79-27.95,3.49,3.2-5.57,5.7-11.49,8.19-17.4.08-.46.53-1.05,1.1-.74.37.2.95.28,1.37.57l13.37,9.13Z"/>
          <path class="cls-27" d="M140.26,93.24c-12.47,9.9-24.7,20.35-36.42,31.4-5.84,5.51-11.62,10.59-16.88,16.69-1.77,2.05-9.68,8.03-9.72,11.07-1.49.31-2.83,1.46-3.74,2.42.66.47.87.66.58.94-7.52,1.88,1.73-1-5.78.65,6.44-7.86,18.77-20.96,26.84-28.52l13.46-12.6c10.47-9.8,18.57-16.62,30.16-24.39.53-.58,1.62-.1,1.73.4.14.69-.22,1.32-.24,1.93Z"/>
          <path class="cls-171" d="M344.83,18.23c-2.37-.93-5.77-.86-7.06-3.36.94-.98,1.18-3.15,1.68-4.17,4.24-1.77,9.5-8.94,13.56-9.87-2.49,5.91-4.99,11.84-8.19,17.4Z"/>
          <path class="cls-102" d="M106.84,155.24c-2.18.71-12.96,3.4-12.88,3.1-.08.29.03.7,0,1.09-9.27,1.76-18.51,1.26-27.81,1.26-1.44,0-2.8-1.06-4.89-1.59l6.31-2.56c.39,2.61,3.82,2.54,6.45,2.65,17.42.7,19.09-2.6,32.82-3.96Z"/>
          <path class="cls-136" d="M281.92,112.31c-4.35,8.85-12.27,15.9-21.75,21.56-9.67,5.78-20.88,8.65-32.27,10.87-.75.15-1.48-.53-1.67.19-.08.29.03.7,0,1.08h-.8c.13-.3-.08-.76-.77-.73l-21.37.02c-.21.38-.24.6-.17.72-.48-.07-1.15.06-1.59,0,.41-1.5-.74-1.6-2.01-1.41-1.01.15-2.66-.57-2.77.71-.24-.03-.54.05-.8,0-.03-.04,0-.42.09-1.2-9.63-1.35-18.82-4.28-28.14-7.55-.44-.16-.58-.81-.97-.92-.3-.09-.11-.42.07-.77,3.03-.6,6.62-1.54,9.74-1.43,3.48,3.11,18.22-4.25,21.32-3.05.75-.33,1.8,0,1.95-.62,4.24-.48,9.23-1.52,13.65-2.44l22.21-4.59c8.53-1.76,16.67-3.4,24.84-5.56,7.26-1.92,14.23-3.72,21.2-4.88Z"/>
          <path class="cls-144" d="M541.78,96.42c1.71.58-.5.75-.95,1.58-17.85,8.85-37.72,13.74-58.68,15.72-1.23.12-1.01.39-.93,1.27-.54.05-1.07-.02-1.59,0,.07-.12.05-.34-.16-.73l-18.19-.02c-.69-.03-.9.43-.77.74-.27,0-.53.02-.8,0-.06-.34.17-.87-.02-1.11-.43-.56-1.5-.27-2.4-.32-14.86-.68-27.73-5.49-40.6-10.53-.19-.07-.49.04-.71-.02,1.61-1.18-4.99-2.93-4.08-3.62,1.96.55,4.68-.68,6.37-.49,3.44.39,6.79-.09,10.23-.03-.27.02-.11,1.18.34,1.18l18.16.16c18.8.17,37-.4,55.69-1.53,8.45-.51,16.33-.79,24.76-.65,2.02.03,4.51-.26,5.57-1.47,2.91-.03,5.87-.44,8.77-.16Z"/>
          <path class="cls-50" d="M578.22,106.57c14.85,5.02,31.9,7.02,48.89,8.07.83.05,13.47,1.07,11.89-.39,1.94-.21,4.12.21,6.43.48,5.28.61,10.32-.33,15.25,0,.59,1.78-.87,2.61-.97,4.47.19,2.38-2.97,3.01-4.53,4.12-6.01,4.28-13.55,3.62-12.2,5.76-.25.06-.58-.08-.8,0-1.92-1.81-5.28-.15-7.84-.11l-13.51.21c-.24,0-.24.53-.17.62-.5-.07-1.06.04-1.59,0-.07-.33.18-.89-.01-1.11-.43-.48-1.52-.4-2.4-.4-11.61-.07-21.47-4.82-31.85-6.26-.24-.03-.57.1-.8,0,.02-.51.2-1.12-.39-1.42-.31-.16-.76-.27-1.37-.57l-14.02-6.78c-.25-.12-18.72-12.12-15.31-12.4,6.18,1.34,12.34,3.16,19.14,3.82,2.6.26,4.28,1.24,6.16,1.88Z"/>
          <path class="cls-124" d="M407.7,100.08c-.14.98-.94,1.25-1.88,1.8-21.6,12.62-42.28,16.63-68.83,16.63h-.8c.07-.58.11-1.37-.43-1.42.29.03-6.41-.39-5.15.72-.27.04-.58.05-.8,0,.21-.95-.03-1.61-1.19-1.44-.79.11-2.06-.35-2,.73-.26.01-.54.06-.8,0,.1-.76.23-1.15-.79-1.34-9.1-1.73-17.3-4.84-25.51-8.53-.95-.43-1.52-.96-2.39-.72-1.38.37-2.03-.87-3.1-1.4,0-.4-.07-1.4-.64-1.59-.28-.09-1.17.58-.97-.65,7.37.85,14.4.66,21.44.82-.09.61-.08,1.27.42,1.43.65.2,1.34-.28,1.99-.2,17.06,2.12,33.77,1.6,50.96.04.47-.04,12.62-.86,9.65-1.24l30.79-3.63Z"/>
          <path class="cls-91" d="M317.17,52.18c-.27.53-.81,1.18-1.17,2.09l-18.3,45.99,39.12,2.62c3.59.24,36.39.05,34.44-.62-.03.3.17.79-.17,1.49-3.48-.44-7.05.29-10.58.32l-43.93.41c-.74-1.32-1.88-.79-2.69-.81-7.05-.16-14.07.03-21.44-.82-.19,1.23.69.56.97.65.57.19.65,1.19.64,1.59-1.44-.72-3.93-1.18-4.07-2.85,1.25-1.25,1.89-3.05,2.67-4.76,6.81-14.91,14.83-29.05,22.47-43.61.37-.7.19-1.51.75-1.7.4-.14.92.06,1.3,0Z"/>
          <path class="cls-75" d="M160.77,131.91c1.3,1.61,4.03,2.73,6.24,2.96-.18.34-.37.68-.07.77.39.11.53.77.97.92,9.32,3.27,18.51,6.21,28.14,7.55-.09.78-.12,1.16-.09,1.2l-3.99-.81c-9.34-1.89-24.08-6.01-32.72-11.23-19.74,13.73-42.23,21.78-65.28,26.16.03-.39-.08-.8,0-1.09-.08.3,10.7-2.39,12.88-3.1l12.65-4.13,9.42-3.03,12.62-5.88c3.19-1.48,11.4-5.13,12.19-8.18,2.34-.33,4.52-2.33,7.06-2.11Z"/>
          <path class="cls-76" d="M552.92,100.87c-3.41.28,15.06,12.28,15.31,12.4l14.02,6.78c.61.3,1.06.41,1.37.57.59.3.41.91.39,1.42-30.53-13.62-27.23-17.25-33.34-20.63-1.94-1.07-3.44-3.22-4.69-4.69-3.11.65-4.75,2.53-7.26,3.68-17.71,8.16-37.34,12.85-57.5,14.6-.09-.88-.31-1.15.93-1.27,20.96-1.98,40.83-6.87,58.68-15.72.45-.83,2.66-1.01.95-1.58.46-.85,1.86-.23,2.61-.71,2.05-1.32,6.1,4.38,8.53,5.16Z"/>
          <path class="cls-42" d="M288.49,103.01c-8.52,21.17-25.95,34.62-49.78,40.62-4.19,1.06-8.34,2.39-12.48,2.39.03-.38-.08-.79,0-1.08.19-.73.91-.05,1.67-.19,11.4-2.22,22.61-5.09,32.27-10.87,9.47-5.66,17.39-12.72,21.75-21.56,1.05-.06,1.29-1.1,1.56-1.71.33-.76,3.44-7.64,3.68-7.63l1.34.04Z"/>
          <path class="cls-49" d="M411.9,99.4c-.91.69,5.68,2.43,4.08,3.62-2.3-.57-3.69-2.68-5.87-2.66-19.01,13.05-48.92,21.28-73.11,18.16,26.55,0,47.24-4.01,68.83-16.63.94-.55,1.74-.81,1.88-1.8,1.24-.15,2.67-1.11,4.2-.68Z"/>
          <path class="cls-172" d="M459.71,114.98c-14.29-1-28.09-4.38-40.89-10.36-.92-.43-2.11-.65-2.13-1.59,12.88,5.03,25.74,9.84,40.6,10.53.91.04,1.97-.25,2.4.32.19.24-.04.77.02,1.11Z"/>
          <path class="cls-197" d="M619.07,129.81c-11.87-1.02-23.42-3.72-34.26-7.78,10.38,1.44,20.24,6.19,31.85,6.26.88,0,1.97-.08,2.4.4.2.22-.05.78.01,1.11Z"/>
          <path class="cls-74" d="M663.7,114.96c-3,9.39-11.29,11.82-20.72,14.12-1.35-2.15,6.19-1.48,12.2-5.76,1.57-1.12,4.72-1.74,4.53-4.12,1.92-.66,2.6-2.87,2.37-4.83,1.13-.47,1.5.13,1.61.6Z"/>
          <path class="cls-134" d="M325.84,117.09c-9.14-1.98-18.01-4.81-26.54-8.97-.91-.45-2.15-.61-2.15-1.62.87-.23,1.44.3,2.39.72,8.2,3.69,16.41,6.8,25.51,8.53,1.02.19.89.58.79,1.34Z"/>
          <path class="cls-11" d="M225.44,146.02c-7.38,0-14.93,1.01-22.31,0-.07-.12-.04-.33.17-.72l21.37-.02c.7-.03.91.43.77.73Z"/>
          <path class="cls-63" d="M642.18,129.08c-2.9,1.08-6.09.48-9.63.77-2.29.18-4.29,1.41-6.67.17-1.44-.75-3.65,0-5.21-.22-.07-.1-.07-.62.17-.62l13.51-.21c2.56-.04,5.92-1.7,7.84.11Z"/>
          <path class="cls-3" d="M479.63,114.99c-1.97.06-4.05-.32-6.12.24-4.58,1.23-7.15-.12-13-.25-.14-.3.07-.76.77-.74l18.19.02c.21.39.23.61.16.73Z"/>
          <path class="cls-103" d="M336.2,118.51c-2.01,0-3.61-.97-5.58-.71-1.26-1.1,5.44-.69,5.15-.72.54.06.5.84.43,1.42Z"/>
          <path class="cls-31" d="M201.53,146.02l-4.78-.71c.11-1.28,1.76-.56,2.77-.71,1.27-.19,2.42-.08,2.01,1.41Z"/>
          <path class="cls-88" d="M329.82,117.8l-3.19-.71c-.06-1.08,1.21-.62,2-.73,1.16-.16,1.4.5,1.19,1.44Z"/>
          <path class="cls-129" d="M344.83,18.23c8.39,3.3,20.57,2.99,27.95-3.49,4.2-3.01-.33,10.6-.85,11.37-4.53,6.7-8.83,12.89-11.32,20.28-4.74,14.08-9.97,27.79-15.86,41.56-1.71,4.01-3.66,7.7-6.42,11.25-.93,1.19-2.12,2.44-1.52,3.68l-39.12-2.62,18.3-45.99c.36-.91.9-1.56,1.17-2.09,1.66-3.28,3.7-6.49,5.12-10.1l3.52-8.91c2.7-6.83,6.98-13.09,11.96-18.3,1.29,2.51,4.68,2.43,7.06,3.36Z"/>
          <path class="cls-6" d="M412.9,85.33c-.46-.13-.96,0-.77.46l4.66,11.39c.36.89.65,1.62,1.49,1.73-1.69-.19-4.42,1.04-6.37.49-1.52-.43-2.96.54-4.2.68l-30.79,3.63c-1.42-.81-3.17-1.31-4.6.04-.52-.78-.21-1.15-.26-1.5l32.04-4.36-3.32-18.94c-.18-13.17-4.05-24.97-8.69-37.63,8.23,14.29,13.86,29.46,20.82,44.03Z"/>
          <path class="cls-175" d="M471.05,93.54l2.11.3c-.11,1.42,2.14,2,1.61,3.51-15.27.71-30.77,1.82-46.27,1.54-3.44-.06-6.79.41-10.23.03-.84-.1-1.12-.84-1.49-1.73l-4.66-11.39c-.19-.46.31-.58.77-.46l4.07,8.52,54.08-.32Z"/>
          <path class="cls-67" d="M376.91,103.71c2.97.38-9.19,1.2-9.65,1.24-17.19,1.56-33.9,2.08-50.96-.04-.66-.08-1.35.4-1.99.2-.5-.16-.51-.81-.42-1.43.81.02,1.96-.51,2.69.81l43.93-.41c3.53-.03,7.1-.77,10.58-.32.33-.7.14-1.19.17-1.49.23.08.56,0,.8-.03.05.36-.26.73.26,1.5,1.42-1.35,3.17-.85,4.6-.04Z"/>
          <path class="cls-152" d="M311.4,26.09c-10.81,7.34-22.73,13.3-34.35,20.3-16.44,9.9-31.94,20.17-45.53,33.07-14.83,14.08-29.54,28.2-42.66,43.24-4.67,2.9-7.97,7.26-12.09,10.74-3.13-.11-6.71.83-9.74,1.43-2.2-.23-4.94-1.35-6.24-2.96.15-1.31,1.54-1.61,2.98-2.65-1.23-3.54,2.39-6.18,2.74-9.27,4.31-5.95,9.92-11.16,15.42-16.79,4.23-4.32,9.08-7.87,12.4-12.41,12.5-9.87,25.75-19.07,39.63-28.31,23.38-15.57,48.63-27.65,75.83-37.2.8.15,1.18.78,1.63.82Z"/>
          <path class="cls-137" d="M146.52,125.55c-10.22,6.22-21.98,10.51-33.66,15.22-11.73,4.73-23.41,9.11-35.62,11.64.04-3.04,7.95-9.02,9.72-11.07,5.26-6.09,11.04-11.18,16.88-16.69,11.72-11.05,23.95-21.5,36.42-31.4-.29,11.11,1.41,22.03,6.25,32.3Z"/>
          <path class="cls-153" d="M219.1,102.91c.05-.3-.31-.76-.44-.63l-1.29,1.26c-1.55,1.51-3.48,2.47-5.3,3.78l-17.99,12.96c-1.67,1.2-3.47,2.22-5.24,2.42,13.12-15.03,27.83-29.16,42.66-43.24,13.6-12.9,29.09-23.17,45.53-33.07,11.63-7,23.54-12.95,34.35-20.3,1.25.25,2.3-1.47,3.61-.02l-95.9,76.84Z"/>
          <path class="cls-170" d="M283.47,110.6c-.26.6-.51,1.65-1.56,1.71-6.97,1.16-13.95,2.96-21.2,4.88-8.17,2.16-16.31,3.8-24.84,5.56l-22.21,4.59c-4.41.91-9.41,1.95-13.65,2.44-.54,0-1.26.32-1.49-.6l7.05-2.85c3.55-1.44,7.19-2.74,11.12-3.11-5.17-2.3,2.95-6.4,5.6-8.84l56.2-20.06-14.79,19.5c7.31-.44,13.56-2.01,19.76-3.21Z"/>
          <path class="cls-199" d="M166.49,119.98c-.35,3.09-3.97,5.73-2.74,9.27-1.44,1.05-2.83,1.34-2.98,2.65-2.55-.21-4.73,1.78-7.06,2.11-4.75.54-9.57,1.49-14.16,2.84l-57.55,16.93-7.91,1.97c.29-.28.07-.47-.58-.94.9-.96,2.25-2.11,3.74-2.42,12.21-2.53,23.89-6.91,35.62-11.64,11.68-4.71,23.44-8.99,33.66-15.22,3.27-1.99,6.9-3.99,10.27-6.48l15.95-11.76c-.2.12-.08.43.3.92-2.85,3.96-6.08,7.62-6.55,11.76Z"/>
          <path class="cls-131" d="M219.1,102.91l-7.94,6.42c-4.33,3.5-9.03,6.64-12.88,10.5-2.61,2.62-4.63,4.76-8.81,7.21,2.91,1.97,16.09-1.11,15.63-1.52.21.19.55.37.48.8l-7.05,2.85c.23.92.95.61,1.49.6-.15.62-1.2.29-1.95.62-3.1-1.2-17.84,6.16-21.32,3.05,4.12-3.48,7.43-7.84,12.09-10.74,1.76-.19,3.57-1.21,5.24-2.42l17.99-12.96c1.82-1.31,3.75-2.27,5.3-3.78l1.29-1.26c.13-.13.49.33.44.63Z"/>
          <path class="cls-44" d="M194.31,90.79c-3.31,4.53-8.16,8.08-12.4,12.41-5.5,5.62-11.11,10.84-15.42,16.79.47-4.14,3.7-7.8,6.55-11.76-.39-.49-.51-.8-.3-.92,7.31-5.39,14.54-10.96,21.57-16.51Z"/>
          <path class="cls-110" d="M82,153.79l57.55-16.93c.36.35.1.71-.17,1.04-.29.37-.8.43-1.34.59l-30.74,9.2-22.18,6.12c-.76.21-1.06.81-1.91.69-.5-.07-1.28.11-1.22-.71Z"/>
          <path class="cls-15" d="M544.4,95.71c-.75.49-2.15-.13-2.61.71-2.9-.29-5.86.12-8.77.16l-17.58.2c-13.79.15-27.38-.05-40.67.57.53-1.52-1.72-2.1-1.61-3.51l63.71-3.59c3.06,1.36,6.21,3.36,7.53,5.46Z"/>
          <path class="cls-202" d="M533.02,96.58c-1.05,1.21-3.55,1.51-5.57,1.47-8.43-.14-16.31.14-24.76.65-18.69,1.13-36.89,1.7-55.69,1.53l-18.16-.16c-.45,0-.61-1.16-.34-1.18,15.5.28,31-.83,46.27-1.54,13.29-.61,26.88-.41,40.67-.57l17.58-.2Z"/>
          <g>
            <path class="cls-150" d="M660.68,114.73c-4.93-.32-9.97.61-15.25,0-2.31-.27-4.5-.69-6.43-.48-6.11.68-51.69-6.51-60.78-7.68-1.88-.63-3.55-1.62-6.16-1.88-6.8-.67-12.96-2.48-19.14-3.82-2.43-.78-6.48-6.49-8.53-5.16-1.33-2.1-4.47-4.11-7.53-5.46l-63.71,3.59-2.11-.3c.66-.52.06-.99-.38-1.65-4.38-6.58-7.88-13.04-11.86-20.01-9.51-16.65-22.3-30.67-38.15-42.9l-11.01-8.49c35.81,9.62,69.41,23.4,100.11,42.15,8.83,5.39,15.75,11.15,24.75,15.79,24.51,12.61,50.95,20.91,78.92,25.92l43.77,7.84c2.66.48,3.07,1.25,3.49,2.54Z"/>
            <path class="cls-123" d="M639,114.25c1.59,1.46-11.06.44-11.89.39-16.99-1.06-34.03-3.05-48.89-8.07,9.09,1.17,54.67,8.36,60.78,7.68Z"/>
            <path class="cls-181" d="M484.41,57.12c3.85.46,41.92,25.79,47.41,30.21-12.41-6.14-22.21-14.61-34.05-21.53-4.81-2.81-9.29-5.65-13.36-8.68Z"/>
            <path class="cls-181" d="M484.41,57.12c-2.69-.32-10.78-5.12-8.1-5.08l8.1,5.08Z"/>
          </g>
        </g>
        <g>
          <g>
            <path class="cls-16" d="M114.52,394.32c-.15.2-.29.59-.6.63-9.12,1.2-18.31,2.71-26.82,6.56-.93.42-2.05,1.69-1.81,2.28,1.85,4.7,20.31,6.26,25.2,6.12-.21.31-.09.71.18,1.02.18.21.67.34,1.5.45l26.43,3.58c11.52,1.56,22.78,1.99,34.28,4.04,1.54.27,2.43,1.3,3.96,1.45,11.32,1.12,22.3,2.08,34.39,2.32l119.44,2.37c89.56,1.78,178.61.72,267.63-.53.73,2.95,17.25,6.28,21.63,6.61,8.01.6,16.29-1.2,22.95-5.29,3.87-2.38,4.55-6.72,6.76-10.04.64-.05,11.82-.9,9.43.22.68,4.34-.09,8.68-.07,13.64,3.49-.81,6.56-1.83,9.42-3.12,1.46-.66,3.53-.66,4.23-2.68,1.39-4.02,2.61-7.68,4.41-11.79-7.79-.47-14.83-.74-21.95-.52-3.77.58,1.29-6.88-5.78-13.79.35.02.41-.67.68-.76,5.58-1.62,19.8.85,19.55.86,3.08-.16,5.53.09,8.47.56l13.57,2.15c-.11.36.15.66.42.71.43.08.83-.07,1.22.03.26.06.54.15.8.05-.23.69.48.55.93.61,7.88,2.09,14.79,7.03,19.59,12.86-.37,5.58-16.56,7.9-21.35,9.63-.38,1.09.37,3.37-.26,4.28-.53.75-1.96,1.3-3.72,1.66-19.62,4.01-38.8,5.49-59.06,6.34-53.58,2.26-106.35,3.94-160.01,3.87l-80.57-.11c-35.09-.05-69.21-.98-104.4.37l-160.84,6.17c-25.81.99-50.7,1.01-75.92.46,13.58-3.45,26.33-5.47,40.06-7.61.93-.14.77-.9.74-1.23,1.49,1.23,2.77.36,4.71.08l26.33-3.72c1.01-.14,2.66.65,2.5-.55,3.59-.21,7.35-.14,11.09-1.65,1.19-.48,2.14.19,3.14.08,9.59-.98,18.71-2.16,27.93-2.01.95.01.95-.74,0-.71-47.66-5.1-95.24-12.01-142.55-21.89-7.62-1.59-14.19-3.07-21.28-5.36-.25-.08-.12-.66-.28-.85l27.06-3.47,35.04-2.68,14.18-.61,21.05-1.04c2.32-.11,4.75-.17,7.09-.61,1.15-.21,2.41,1.43,3.22-.07.84-.74,4.01.9,4.52-.68.06.6.98,1.25,1.6,1.28Z"/>
            <path class="cls-10" d="M14.2,455.75c9.19-2.38,18.11-5.48,27.97-6.96,2.01-.3,3.14-1.54,3.49-2.92,2.01,1.27,2.07-.93,2.75-.9,6.86.33,12.94-1.78,19.2-3.37,1.84-.47,4.71-.12,5.63-1.42.55.07.81.47,1.21.67-1.74-.83,9.94-.88,9.94-2.08,1.47.17,3.38-.27,4.78,0,.03.32.18,1.08-.74,1.23-13.72,2.14-26.48,4.16-40.06,7.61,25.22.55,50.12.53,75.92-.46l160.84-6.17c35.19-1.35,69.32-.42,104.4-.37l80.57.11c53.67.07,106.43-1.61,160.01-3.87,20.26-.85,39.44-2.34,59.06-6.34,1.76-.36,3.19-.91,3.72-1.66.64-.91-.11-3.19.26-4.28,4.79-1.73,20.98-4.05,21.35-9.63,2.38,2.9,6.17,5.83,4.66,10.55-4.29,13.44-57.89,15.11-71.29,16.18-.74.83-.64,1.36.79,1.1l22.37,5.66c3.64.92,9.59,3.07,8.55,6.81-1.89,6.79-29.96,3.19-36.65,2.22-39.52-5.76-70.35-11.48-108.34,2.33l-20.8,7.56c-34.21,12.44-72.6,16.73-108.64,6.75l8.1-18.9c-28.93,6.96-56.88,12.72-85.86,5.02-13.27-3.53-26.03-5.71-39.87-6.71-19.37-1.39-37.92-1.94-57.38-.88l-81.24,4.43c-39.06,2.13-85.01,5.54-123.49,1.33-4.07-.45-8.78-.31-11.26-2.61Z"/>
            <path class="cls-135" d="M108.41,393.73c-.82,1.5-2.07-.14-3.22.07-2.35.44-4.78.49-7.09.61l-21.05,1.04-14.18.61-35.04,2.68-27.06,3.47c-.48-.57-1.11-1.24-.54-1.53,2.82-1.46,11.51-2.31,15.65-2.87l13.55-1.84s20.61-.9,16.61-1.34c3.52.39,6.38-.31,9.73-.49l7.95-.45,18.19-.49,25.62-.48c.62-.01,1.09.78.88,1.02Z"/>
            <path class="cls-135" d="M73.24,440.18c-.93,1.3-3.79.95-5.63,1.42-6.27,1.59-12.34,3.71-19.2,3.37-.68-.03-.74,2.17-2.75.9-.35,1.39-1.48,2.62-3.49,2.92-9.86,1.48-18.78,4.59-27.97,6.96-2.87-2.66,4.98-2.27,12.87-6.51,6-3.22,14.43-2.91,21.24-5.01,4.87-1.5,20.92-4.56,24.93-4.05Z"/>
            <path class="cls-113" d="M399.57,373.82c-.15.94.74,1.81.36,2.75l-45.24,4.33c-.37-.16-.92-1.02-1.76-.86.42-.38.21-.8.29-1.13l37.9-4.38c3.07-.35,5.79-.73,8.44-.72Z"/>
            <path class="cls-135" d="M691.59,400.68l-13.57-2.15c-2.94-.47-5.39-.72-8.47-.56.25-.01-13.97-2.48-19.55-.86-1.43-1.61-.03-3.8,1.76-4.78.36.87.2,1.8.5,3.26,2.21.32,4.48.1,6.54-.59,3.08-1.03,5.58.15,8.23.31,8.72.52,17.45,1.39,24.55,5.37Z"/>
            <path class="cls-135" d="M122.72,434.59c.16,1.19-1.49.4-2.5.55l-26.33,3.72c-1.94.27-3.22,1.14-4.71-.08-1.4-.27-3.31.17-4.78,0,0-.63.69-.93,1.53-.84,7.49.81,13.87-.36,20.77-2.58,4.81-1.55,10.81-.44,16.02-.75Z"/>
            <path class="cls-135" d="M84.4,438.77c0,1.2-11.69,1.25-9.94,2.08-.41-.19-.67-.6-1.21-.67-1.27-.9,10.14-1.53,11.16-1.41Z"/>
            <path class="cls-40" d="M455.81,353.53c4.41,1.65,8.67,4.14,13.13,6.45,1.86.97,2.29,3.37,4.2,3.87-.21,1.03.84,1.95.88,2.93.74,15.29,5.07,30.56,9.6,45.67.59,1.98,1.68,4.34,3.51,5.57,1.43.26,2.27-2.23,2.56-3.43,2.61-10.99,2.74-21.99,4.41-32.88,12.82,7.79,25.55,15.62,39.2,22.84.95.5,2.55,2.2,1.5,2.54-8.76-2.06-25.13-1.99-29.06,6.23-.52,1.08-1.65,2.13-.25,3.59,4.26,4.46,15.86,3.62,22.72,3.36,5.45-.2,10.57-.75,15.07-2.61,10.97-4.55,7.09-3.51,15.57-.91,14.19,4.35,28.9,4.86,43.44,4.49-.63,1.32-2.11,3.37-4.01,3.4-89.02,1.25-178.08,2.31-267.63.53l-119.44-2.37c-12.09-.24-23.07-1.2-34.39-2.32.07-1.15,1.82-1.08,3.25-1.11l77.02-2.11,59.12-1.48,20.8-.63,34.86-.93c6.11-.16,12.49.69,19.41-.28l-1.8-33.58c-1.7-3.62,8.05-1.24,10.46-2.83.23.13.84.23.88.56,1.47,11.78,3.53,23.56,6.02,35.5.12.6,1.63.31,1.64-.02,0-.38.83-.88,1.03-1.5,1.88-5.81,2.82-11.59,3.51-17.92.15-1.37-1.54-3.92.73-4.03,1.29.77.19,2.65.39,4.05l2.7,19.25c1.53-.56,1.15-1.7.59-3.07-.34-1.66,1.97-1.72,1.7.07-.74.63-.52,2.15-.16,3.03.16.38.42,1.15.95.14,3.06.9,6.28.17,9.93.01.52-15.23.71-29.73-.23-44.82l-6.58-2.51c1.11-4.77.57-15.78-2.91-19.34,6.12,2.7,12.08,5.76,19.18,7.7,1.81,20.5,4.34,40.78,12.11,61.02,3.76-10.9,3.37-21.27,4.44-31.9,1.04-10.3.63-20.35-.06-30.2Z"/>
            <path class="cls-130" d="M143.22,410.03c-.27.73.92.87.99.04,8.76.93,17.71.7,27.07.66l63.81-.3,137.58-.68c-.22,1.5-.75,2.96-.79,4.45l-34.86.93-20.8.63-59.12,1.48-77.02,2.11c-1.43.04-3.19-.04-3.25,1.11-1.53-.15-2.42-1.17-3.96-1.45-11.49-2.05-22.76-2.47-34.28-4.04l-26.43-3.58c-.83-.11-1.32-.24-1.5-.45-.27-.31-.38-.7-.18-1.02,10.96-.32,21.99,1.61,32.73.11Z"/>
            <path class="cls-73" d="M136.02,394.22c2.73-.66,3.4,12.28,7.19,15.8-10.73,1.5-21.77-.43-32.73-.11-4.89.14-23.35-1.42-25.2-6.12-.23-.59.89-1.86,1.81-2.28,8.51-3.85,17.71-5.36,26.82-6.56,1.52,2.64,4.77,5.32,8.67,4.82,3.42-.44,5.53-3.18,6.6-5.49l6.83-.07Z"/>
            <path class="cls-165" d="M668.41,426.64c-.55-3.56.18-7.19.27-11.5l-8.96.46c.45-2.66-4.65-1.59-4.64-2.48v-1.47c7.14-.23,14.18.05,21.97.52-1.8,4.1-3.02,7.77-4.41,11.79-.7,2.02-2.77,2.02-4.23,2.68Z"/>
            <path class="cls-24" d="M668.41,426.64c-2.86,1.29-5.94,2.31-9.42,3.12-.03-4.96.75-9.3.07-13.64.31-.04.51-.28.67-.52l8.96-.46c-.09,4.32-.82,7.94-.27,11.5Z"/>
            <path class="cls-19" d="M218,362.61c.25,2.95,1.15,6.2,3.48,8.34-.11.22-.12,1.02-.52.69-.59-.5-1.01-.76-1.48-.61-.3.09-.6.41-.4.81-11.32,3.23-10.19,21.47-4.2,27.58,1.3,1.32,2.86,2.27,4.58,2.36,8.22.45,10.12-14.22,8.53-20.04,7.34,6.65,15.3,12.45,25.51,16.18,18.45,6.75,38.83,8.85,58.56,4.71,9.45-1.98,17.52-6.44,21.53-13.36.96-1.65,2.68-3.45,3.81-4.99.02,2.1.99,4.27,1.15,6.55.25,3.69,1.61,8.71,6.22,10.14,4.76,1.48,8.27-2.53,9.4-6.6s.24-8.12.57-12.69c1.07.85,2.49,1.15,3.68,1.81,2.45,1.37,17.09,10.38,17.04,12.82-.11,4.84-2.13,9.12-2.78,13.42l-137.58.68-63.81.3c-9.36.04-18.31.27-27.07-.66,2.22-4.87,2.54-10.05,3.27-15.65-1.51.29-1.24-.55-1.7-.93.37-1.33,1.17.25,1.55-.01,1.16-.81,1.86-11.55,1.78-12.41,12.58,1.96,25.24,2.48,37.99,1.44-1.19,8.48.78,20.97,12.82,22.04,2.07.18,4.09-.47,4.73-2.43,2.47-7.55,4.03-20.31-.01-26.88-.18-.3-.13-.67.06-1.22,3.87-.8,10.08-12.32,11.18-15.48.98,1.24.5,3.28,2.12,4.09Z"/>
            <path class="cls-167" d="M399.93,376.57c-.11.28.09.64.02.93-2.4,1.59-12.15-.79-10.46,2.83-.41.36-.66-.05-.95-.05-.61,0-.41-1.53-1.13-1.45l-28.34,2.89c-.95.1-.32,1.21-.67,1.78-1.18-.66-2.61-.96-3.68-1.81.11-.31.56-.52-.04-.78l45.24-4.33Z"/>
            <path class="cls-201" d="M389.5,380.33l1.8,33.58c-6.92.97-13.3.11-19.41.28.04-1.49.56-2.96.79-4.45.64-4.3,2.67-8.58,2.78-13.42.06-2.44-14.59-11.44-17.04-12.82.35-.57-.28-1.69.67-1.78l28.34-2.89c.72-.07.52,1.45,1.13,1.45.29,0,.54.41.95.05Z"/>
          </g>
          <g>
            <g>
              <path class="cls-94" d="M353.22,378.92c-.08.33.13.75-.29,1.13l-15.22,3.05c.08-2.41-.19-4.79.17-7.18,1.2-.34.34,1.45,1.08,1.46.98,0,5.19-5.68,11.17-1.67,1.52,1.02,3.54,1.33,3.09,3.21Z"/>
              <path class="cls-135" d="M613.5,279.37c-.75.3-.94-.49-.78-.94.26-.17.58-.13.79.08.01.28.03.57,0,.85Z"/>
              <path class="cls-135" d="M300.34,306.2c-.39-.19-.98-.17-.8-.76.56-.1.93.28.8.76Z"/>
              <path class="cls-135" d="M252.6,306.91c-.25.69-1.07.65-1.73.7-.66.12-.69-.34-.8-.75.83-.18,1.69,0,2.52.05Z"/>
              <path class="cls-135" d="M336.95,305.55c-.37-.1-.9-.15-.75-.6.62-.31.94.01.75.6Z"/>
              <path class="cls-135" d="M653.34,388.68c-.04-1.38.43-3.39,1.68-4.24-.21,1.33-.42,3.38-1.68,4.24Z"/>
              <path class="cls-135" d="M693.22,401.42c-.39-.1-.79.05-1.22-.03-.27-.05-.53-.35-.42-.71.32.18.87-.15,1.19,0s.52.4.44.75Z"/>
              <path class="cls-135" d="M86.74,306.17c.73-1.31,1.88-2.8,3.23-3.56-.38,1.46-1.74,2.99-3.23,3.56Z"/>
              <path class="cls-135" d="M694.95,402.07c-.45-.05-1.16.09-.93-.61.5-.2,1.2.03.93.61Z"/>
              <path class="cls-135" d="M94.76,298.38c-.11-.53.35-.91.88-.54.41.52-.3.58-.88.54Z"/>
              <path class="cls-135" d="M431.91,14.09c-.49.04-2.17.19-1.22-.62.56-.27,1.45-.11,1.22.62Z"/>
              <path class="cls-135" d="M164.88,431.01v-.71c.95-.04.95.72,0,.71Z"/>
              <path class="cls-135" d="M576.79,247.66c-.44.13-.36.09-.76-.09-.2-.25-.21-.56-.01-.81.5.01.9.29.78.89Z"/>
              <path class="cls-182" d="M352.94,380.05c.84-.17,1.39.69,1.76.86.59.26.15.47.04.78-.33,4.57.56,8.59-.57,12.69-5.35-.31-10.55-1.98-15.61-3.54-.15-2.28-1.13-4.44-1.15-6.55.09-.55.34-.84.32-1.18l15.22-3.05Z"/>
              <g>
                <path class="cls-64" d="M331.4,342.26c4.07,8.09,6.86,17.33,6.41,26.03-11.72.31-18.57,1.14-30.19-1.55-.97-.09-1.13-1.33-2.53-1.32-5.01,7.36-14.39,11.47-23.84,11.33-4.04-.06-13.76-3.25-17.55-9.31,1.86.35,2.91,1.99,4.65,3.02,7.13,4.21,16.2,4.78,24.77,1.35,6.27-2.51,12.27-8.37,13.72-15.61.77-3.85-4.83-8.9-4-10.35l.45-.8c6.7-3.5,5.74-7.79,8.45-13.95.17.39.55.35.67-.06,4.82,5.11,11.98,9.91,19,11.21Z"/>
                <path class="cls-52" d="M336.2,304.95c-.15.45.38.5.75.6,3.33,1.83,4.8,5.04,6.67,8.13,2.5,4.15,4.04,8.3,3.77,12.91-6.02,1.08-12.21.79-18.23-1.41-5-1.83.57,4.87-2.52,4.21-3.46-2.3-6.89-4.85-10.51-7.02-1.82-1.71-3.75-5.09-5.95-6.35-.68-.95-2.01-2.56-3.46-3.58-.27-1.12,1.91-1.72,2.45-2.2,1.6-.42,3.64-.89,4.81-1.89,8.41-1.39,12.95-4.35,22.23-3.4Z"/>
                <path class="cls-92" d="M337.81,368.29c-.13,2.5.46,5.13.08,7.64s-.09,4.77-.17,7.18c.02.34-.22.63-.32,1.18-1.13,1.54-2.85,3.34-3.81,4.99-1.55-1.31-3.79-2.3-5.32-3.46-7.49-5.69-14.81-11.93-20.66-19.08,11.62,2.69,18.47,1.86,30.19,1.55Z"/>
                <path class="cls-193" d="M326.63,329.39l6.46,4.29c-.09,2.95.6,6.25-1.7,8.57-7.02-1.3-14.17-6.11-19-11.21-.54.69,3.53-10.79,3.72-8.67,3.62,2.17,7.05,4.72,10.51,7.02Z"/>
                <path class="cls-85" d="M347.38,326.6c-.19,3.13,1.58,7.18-.41,10.27-1.18,1.83-5.1.27-6.61-.32l-7.27-2.86-6.46-4.29c3.09.66-2.47-6.04,2.52-4.21,6.01,2.2,12.21,2.49,18.23,1.41Z"/>
                <path class="cls-99" d="M260.36,357.69l.81,2.86c-2.1-1.54-2.54,9.31-1.12,11.77,3.94,6.85,14.53,8.59,21.19,4.41,9.45.14,18.83-3.97,23.84-11.33,1.4-.01,1.57,1.23,2.53,1.32,5.85,7.15,13.17,13.38,20.66,19.08l-11.4,5.36c-16.33,7.68-46.57,2.32-63.5-4.06-15.22-5.73-26.11-16.07-28.34-17.02-.73-.31-2.06-.08-2.06.76-.47-.07-1.31-.25-1.49.1-2.33-2.14-3.24-5.39-3.48-8.34,2.95-7.42,5.85-21.46,10.77-28.24,1.12.83.92,2.09,1.31,3.64,3.08,12.09,18.21,20.24,30.27,19.69Z"/>
                <g>
                  <path class="cls-184" d="M243.46,300.9c1.42.61,2.14,1.9,3.5,2.57.43,1.01,2.77,2.03,3.12,3.4.1.41.13.87.8.75-.08,1.26-.43,2.58-1.43,3.36-.02-.64-.76-.6-1.27-.38-.36.16-.92.35-1.44.7l-17.26,11.71c-7.68,5.21-15.96,8.8-24.86,10.78-1.03.23-2.24.59-3.88.51-.99-4.12,1.29-7.53,3.13-11.34.7.02,1.63.47,1.66-.43,6.01,1.4,6.81-8.81,6.53-12.2,1.65.47,6.34-5.53,7.38-6.63-.13-.48-.34-1.1.29-1.41.53-.26.68-.55,1.19-.28.79,1.24.35,2.49.39,4.19l4.68-3.14c5.32-3.58,11.69-4.64,17.49-2.15Z"/>
                  <path class="cls-155" d="M243.53,300.23c-.45.19-.48.41-.07.67-5.8-2.49-12.17-1.43-17.49,2.15l-4.68,3.14c-.03-1.7.41-2.95-.39-4.19.15.08.38-.07.54-.07,2.23-.09,4.49-.38,6.37-2.22,4.36-4.25,12.47-4.07,15.71.52Z"/>
                  <path class="cls-135" d="M246.96,303.47c-1.36-.67-2.08-1.96-3.5-2.57-.42-.26-.38-.48.07-.67,2.04.09,3.07,1.67,3.43,3.24Z"/>
                  <path class="cls-169" d="M249.45,310.97c-.41,5.7,3.08,7.27-3.58,13.31-4.94,4.48-11.53,5.8-17.31,8.67-3.27-.31-6.92,1.36-10.28,1.43l-12.78.3c-.76.02-1.52-.43-.88-.91,8.9-1.98,17.18-5.58,24.86-10.78l17.26-11.71c.52-.35,1.08-.54,1.44-.7.51-.22,1.25-.26,1.27.38Z"/>
                </g>
                <path class="cls-105" d="M228.55,332.95c.26.45.03.95.22,1.41-4.92,6.78-7.82,20.82-10.77,28.24-1.62-.81-1.14-2.86-2.12-4.09,1.5-4.32,1.79-9.12,1.98-13.73l.41-10.4c3.36-.08,7-1.74,10.28-1.43Z"/>
                <path class="cls-87" d="M316.12,322.37c-.19-2.11-4.26,9.36-3.72,8.67-.12.41-.5.46-.67.06-4.07-7.17-4.94-6.84-1.56-15.09,2.2,1.26,4.13,4.64,5.95,6.35Z"/>
                <path class="cls-58" d="M261.17,360.56c-.03,2.53,1.18,4.73,2.52,6.88,3.79,6.05,13.51,9.25,17.55,9.31-6.66,4.17-17.25,2.44-21.19-4.41-1.42-2.47-.98-13.31,1.12-11.77Z"/>
                <path class="cls-2" d="M328.28,385.81c1.52,1.16,3.76,2.14,5.32,3.46-4.01,6.92-12.08,11.38-21.53,13.36-19.73,4.13-40.11,2.04-58.56-4.71-10.21-3.73-18.17-9.53-25.51-16.18-.55-.33-.46-1.18-.67-1.65-1.37-3.13-2.05-6.56-4.35-9.23,0-.84,1.33-1.07,2.06-.76,2.23.95,13.12,11.29,28.34,17.02,16.93,6.38,47.17,11.74,63.5,4.06l11.4-5.36Z"/>
                <path class="cls-83" d="M221.49,370.95c.18-.35,1.02-.17,1.49-.1,2.29,2.67,2.98,6.11,4.35,9.23-1.73.56-4.71-8.69-8.24-8.24-.2-.39.11-.71.4-.81.47-.15.89.11,1.48.61.39.33.41-.47.52-.69Z"/>
                <g>
                  <path class="cls-90" d="M278.25,340.13c.66.73-.77,1.43-1.8,1.84-6.34,2.51-13.73,7.99-13.12,13.2.09.74.89.97,1.64.51-1.19,3.12.19,7.87,3.42,9.7,1.77,1,3.71-.07,4.74-1.04s1.32-2.56,1.61-4.03c.74-3.8-1.58-7.03-3.12-10.51,1.37-2.08,18.46-1.1,20.77.04-2.59,4.51-2.15,15.12,2.95,15.02,4.11-.08,4.15-3.46,4.36-5.18.3-2.48-.77-7.63-4.12-9.87.24-.31-.33-.77-.68-.8-.27-.03-.57.25-.97.2-1.07-1.39,9.22-1.42,7.92-4.28.53-.09.89.41,1.43.12l-.45.8c-.82,1.45,4.77,6.5,4,10.35-1.44,7.23-7.44,13.1-13.72,15.61-8.57,3.43-17.64,2.86-24.77-1.35-1.74-1.03-2.79-2.67-4.65-3.02-1.34-2.15-2.55-4.35-2.52-6.88l-.81-2.86c-2.44-8.63,8.25-15.88,17.89-17.57Z"/>
                  <path class="cls-203" d="M301.85,344.93c1.3,2.86-9,2.89-7.92,4.28-.36.19-1.08.51-1.54.63-2.31-1.15-19.4-2.12-20.77-.04-.47-.12-.97.04-.58.51-2.67.44-5.17,2.99-6.07,5.37-.75.45-1.56.23-1.64-.51-.61-5.21,6.78-10.7,13.12-13.2,1.04-.41,2.47-1.11,1.8-1.84,8.51-1.49,17.21-1.15,23.6,4.8Z"/>
                  <path class="cls-178" d="M271.04,350.32c.26,1.65-4.18,7.19-1.15,10.6l4.85-.6c-.29,1.46-.55,3.02-1.61,4.03s-2.97,2.05-4.74,1.04c-3.23-1.83-4.61-6.58-3.42-9.7.91-2.38,3.4-4.93,6.07-5.37Z"/>
                  <path class="cls-166" d="M295.58,349.82c-.29,3.67-3.87,9.81.42,10.95,1.02.27,3.39-1.71,3.7-1.09-.21,1.72-.25,5.09-4.36,5.18-5.09.1-5.54-10.51-2.95-15.02.46-.12,1.18-.44,1.54-.63.4.06.7-.22.97-.2.35.03.92.49.68.8Z"/>
                  <path class="cls-14" d="M274.74,360.32l-4.85.6c-3.02-3.41,1.41-8.95,1.15-10.6-.39-.47.11-.64.58-.51,1.54,3.48,3.86,6.72,3.12,10.51Z"/>
                  <path class="cls-9" d="M299.7,359.69c-.31-.63-2.69,1.36-3.7,1.09-4.28-1.15-.7-7.29-.42-10.95,3.35,2.23,4.42,7.39,4.12,9.87Z"/>
                </g>
                <g>
                  <path class="cls-148" d="M293.17,303.52c1.96.9,4.21,1.45,6.37,1.92-.18.59.41.57.8.76.68.34,1.06.13,1.68.13l7.13,3.91c-.54.48-2.72,1.08-2.45,2.2,1.45,1.02,2.78,2.63,3.46,3.58-3.38,8.25-2.5,7.91,1.56,15.09-2.71,6.16-1.74,10.45-8.45,13.95-.54.28-.9-.21-1.43-.12-6.39-5.95-15.09-6.29-23.6-4.8-9.63,1.69-20.33,8.94-17.89,17.57-12.07.55-27.2-7.6-30.27-19.69-.39-1.54-.2-2.81-1.31-3.64-.19-.46.04-.97-.22-1.41,5.78-2.88,12.36-4.19,17.31-8.67,6.66-6.04,3.17-7.61,3.58-13.31,1-.78,1.35-2.1,1.43-3.36.66-.05,1.47-.01,1.73-.7,9.45-3.7,19.41-5.48,30.22-4.57,3.64.31,7.08,1.24,10.35,1.17Z"/>
                  <path class="cls-135" d="M313.97,308.35c-1.17,1.01-3.21,1.47-4.81,1.89l-7.13-3.91c.91,0,2.58-.49,3.58-.02,8.47,3.98,8.24-2.17,8.37,2.04Z"/>
                  <path class="cls-135" d="M299.54,305.44c-2.17-.47-4.41-1.02-6.37-1.92,2.33-.05,5.3-.49,6.37,1.92Z"/>
                  <g>
                    <path class="cls-82" d="M273.89,333.09c-1.13-.2-1.83.73-2.93,1.31-6.53,3.46-9.86-3.2-12.05-3.62-.56-2.54.36-4.93,2.72-6.34s4.86-1.65,7.47-.75c4.79,1.66,6.7,5.6,4.79,9.39Z"/>
                    <path class="cls-30" d="M273.89,333.09c-1.67,3.3-4.9,5.15-9.06,4.1-2.91-.74-6.23-3.24-5.92-6.4,2.19.42,5.51,7.08,12.05,3.62,1.1-.58,1.8-1.51,2.93-1.31Z"/>
                    <path class="cls-36" d="M266.01,325.06c.55,1.75-3.13,3.7-4.44,3.09-1.31-.8-.18-1.81.28-2.46.62-.89,3.62-2.35,4.16-.62Z"/>
                  </g>
                  <g>
                    <path class="cls-125" d="M300.06,328.78c-2.65,1.3-2.79,5.26-8.8,4.17-1.65-.3-3.33-1.89-4.62-3.34-1.21-3.85,2.12-7.3,6.83-7.52,4.01-.19,6.59,3.08,6.59,6.69Z"/>
                    <path class="cls-173" d="M286.64,329.61c1.29,1.45,2.96,3.04,4.62,3.34,6,1.09,6.14-2.87,8.8-4.17,0,3.5-2.72,6.68-6.98,6.83-3.66.13-7.14-3.09-6.44-6Z"/>
                    <path class="cls-34" d="M288.66,326.8c-1.2-1.68,2.76-4.3,3.98-3.19,1.61,1.47-2.74,4.93-3.98,3.19Z"/>
                  </g>
                </g>
              </g>
              <g>
                <path class="cls-149" d="M192.66,274.31c.07.59,0,1.41.79,1.75.34.14.87-.2,1.74-.1l18.06,2.15c3.51.42,6.26,1.36,8.26,3.8l3.1,3.76c-.02,5.55-1.03,11.06-3.15,16.26-.16,0-.38.16-.54.07-.51-.28-.66.01-1.19.28-.63.32-.43.93-.29,1.41-1.04,1.1-5.73,7.1-7.38,6.63-.46-5.53-2.48-10.85-6.58-15.51-1.96-2.23-9.84-11.89-11.47-11.5-.46.11-1.63.29-2.07.98-5.78,9.1-11.34,11.23-7.91,19.06-1.37.14-2.71.39-4.05.66l-2.28-2.8c-3.02-3.72-5.53-5.4-12.85-1.98-.91.13-2.04.41-3.01.29.78-1.63.94-3.6.83-5.55-.32-.72-1.29-.54-.86.19-3.17.6-6.84,2.21-8.79,4.35-.75.5-2.52.86-2.97,2.54-.76.05-1.78-1.17-1.94.04l-8.63-6.21c-.35-1.08.52-2.72-.7-3.61.28-3.76-.78-7.89-.03-11.96l.28-1.53c.05-.29-.73.34-1.1.07l-2.23-2.02c.37-1.72,4.64-6.59,2.9-6.59,11.56-3.45,24.95-1.84,37.39.4,8.03,1.44,15.15,6.44,16.67,4.65Z"/>
                <path class="cls-183" d="M130.63,263.73c2.77,1.15,4.89,3.6,6.41,5.71-9.68,7.34-27.89,14.71-40.44,12.85.54-1.03.71-2.64,1.34-3.57,4.12-5.4,12.65-19.49,23.11-17.56,3.41.63,6.74,1.39,9.58,2.57Z"/>
                <path class="cls-77" d="M141.09,361.87c-10.6.81-9.23,12.09-9.6,13.22-2.72-.16-8.02-2.95-10.24-4.58.52-1.56.52-1.76-1-1.58-.28.03-.57-.05-.85,0-4.79-3.43-9.75-6.96-13.39-11.38-.1-.28.37-.18.8-.44,11.52,2.02,22.32-1.07,31.78-6.45l2.5,11.21Z"/>
                <path class="cls-28" d="M131.53,380.11c-.04.52-.03,1.08-.12,1.6-.46,2.76-.7,5.55-.93,8.32-1.23.31-.52,1.5-.69,2.18-.13.54.11,1.29-.65,1.41l-14.62.69c-.62-.03-1.54-.68-1.6-1.28-1.25-11.69-3.14-16.42,6.48-24.12.28-.05.57.03.85,0,.45-.04.02,1.41.29,1.64l10.98,9.55Z"/>
                <path class="cls-47" d="M138.61,269.26c1.74,0-2.52,4.87-2.9,6.59l-14.67,12.68c-7.19.66-12.71-.02-19.89,4.05,2.41-2.72,5.82-5.14,8.68-7.61.5.08,1.1.27,1.65-.31.28-.29,1.26-.91.37-1.07-.99-.17-1.6.03-2.1.1-1.45.19-14.79,1.72-13.16-1.4,12.56,1.86,30.76-5.51,40.44-12.85.49-.37,1.12-.55,1.57-.18Z"/>
                <path class="cls-57" d="M224.6,285.67l-3.1-3.76c-2-2.43-4.75-3.38-8.26-3.8l-18.06-2.15c-.87-.1-1.4.25-1.74.1-.79-.34-.73-1.16-.79-1.75l1-1.32c4.11-1.56,8.26.28,12.35.12,5.31-.2,9.38.82,13.97,3.27,2.45,1.31,3.28,3.72,4.81,5.75,1.31,1.74-.18,2.34-.19,3.53Z"/>
                <path class="cls-135" d="M193.67,273l-1,1.32c-1.51,1.79-8.63-3.21-16.67-4.65-12.44-2.24-25.83-3.85-37.39-.4-.44-.37-1.08-.19-1.57.18-1.52-2.1-3.64-4.55-6.41-5.71-.12-.56.46-.74.97-.67,6.14,4.83,13.28,1.82,21.16,1.7,22.17-.34,37.75,9.43,40.91,8.23Z"/>
                <path class="cls-108" d="M131.6,263.06c-.51-.07-1.08.11-.97.67-2.84-1.18-6.17-1.94-9.58-2.57-10.47-1.93-18.99,12.16-23.11,17.56.31-5.52,3.87-8.68,8.45-13.78,2.67-2.97,5.79-4.46,9.64-5.8,5.82-2.03,12.39,1.43,15.56,3.92Z"/>
                <path class="cls-135" d="M109.83,284.97c.18-.46-.51-.83-.07-1.28.49-.06,1.11-.27,2.1-.1.89.16-.09.77-.37,1.07-.55.58-1.16.39-1.65.31Z"/>
                <path class="cls-98" d="M129.15,393.63c.23.2.16.42.05.66-1.06,2.31-3.17,5.05-6.6,5.49-3.9.5-7.15-2.19-8.67-4.82.31-.04.45-.43.6-.63l14.62-.69Z"/>
                <g>
                  <path class="cls-18" d="M121.04,288.53c2.15.94,4.58.8,6.94.79,2.82,2.45,6.42,4.33,10.38,5.32.5-1.68-.04-2.57.43-3.36,1.22.89.36,2.53.7,3.61l8.63,6.21c2.32,1.67,3.26,4.11,4.84,6.37.43.62.6,1.9.84,2.78-.11.59-1.53.87-1.69,1.44-.83,2.81,2.11,3.87,2.73,6.53.41,1.75.05,3.24-.31,4.86-1.8,8.3-8.15,15.73-16.07,20.42-2.66-10.62,1.54-22.96-5.04-32.88-3.91-5.88-10.55-9.83-17.03-10.76-8.31-1.19-15.53,1.11-21.35,5.78-1.39,1.12-2.38,2.39-4.12,2.84,1.09-2.62,2.96-3.53,4.94-5.83-3.28-1.73,1.38-3.3-.22-4.79,1.64-1.61,3.4-4.06,5.52-5.26,7.17-4.08,12.69-3.39,19.89-4.05Z"/>
                  <path class="cls-60" d="M140.12,348.56c-.37.69-1.02,1.54-1.53,2.1-9.46,5.38-20.25,8.47-31.78,6.45-.43.26-.9.16-.8.44-3.37-1.32-6.72-2.24-9.69-4.08,16.39,2.16,26.7-.96,40.58-8.53,2.57-.54.51,3.02,3.21,3.62Z"/>
                  <g>
                    <path class="cls-32" d="M138.45,343.49c-.5.3-1.33.97-1.55,1.45-13.88,7.56-24.19,10.68-40.58,8.53-12.65-7.85-19.34-22.25-15.47-35.81,1.25-4.36,3.86-7.84,5.89-11.49,1.49-.56,2.85-2.09,3.23-3.56,1.88-1.05,3.56-2.58,4.78-4.23.58.04,1.28-.02.88-.54,1.59,1.49-3.07,3.06.22,4.79-1.98,2.3-3.85,3.22-4.94,5.83,1.74-.44,2.73-1.72,4.12-2.84,5.82-4.68,13.04-6.97,21.35-5.78,6.48.93,13.13,4.88,17.03,10.76,6.59,9.92,2.38,22.26,5.04,32.88Z"/>
                    <path class="cls-135" d="M94.76,298.38c-1.22,1.65-2.9,3.18-4.78,4.23.5-1.91,2.43-4.01,4.78-4.23Z"/>
                    <path class="cls-72" d="M128.16,332.28c-4,2.78-11.88-.5-12.82-3.25-.7-2.04.13-4.63,1.25-6.15,3.68.09,7.85,1.5,12.14,1.12-.01-2.7-1.32-5.15-.91-8.2,2.55,4.76,6.26,12.34.34,16.47Z"/>
                    <path class="cls-128" d="M89.85,311.03c2.71,1.1,4.45,3.12,7.34,3.55,1.81.27.6-1.73.65-2.36.14-1.8,1.17-3.98,2.24-6.18l.81,12.44c-2.15,1.26-3.25,3.74-5.45,4.57-3.19,1.21-6.44-1.72-7.78-3.89-1.51-2.45-.38-5.4,2.19-8.13Z"/>
                  </g>
                  <path class="cls-158" d="M146.56,343.61c-1.84,1.88-3.88,3.93-6.44,4.95-2.71-.6-.64-4.16-3.21-3.62.21-.48,1.04-1.15,1.55-1.45,7.91-4.69,14.26-12.11,16.07-20.42.59-.03,1.25-.16,1.61.34.3.42-.68.84-.65,1.15.5,6.17-4.83,14.85-8.92,19.04Z"/>
                </g>
                <path class="cls-194" d="M184.01,303.35c2.8,6.39,14.14,17.64,21.5,19.18-.03.89-.96.45-1.66.43-1.84,3.81-4.11,7.22-3.13,11.34,1.64.08,2.85-.28,3.88-.51-.64.48.12.93.88.91l12.78-.3-.41,10.4c-.18,4.61-.48,9.41-1.98,13.73-1.1,3.17-7.32,14.69-11.18,15.48-2.8-1.66-4.6-5.3-8.65-3.9-2.02.7-5.06,2.65-6.52,4.51-16.29-5.43-31.7-19.66-42.97-31,4.09-4.19,9.42-12.87,8.92-19.04-.03-.31.96-.74.65-1.15-.36-.5-1.03-.37-1.61-.34.35-1.63.72-3.11.31-4.86,2.96.29,23.48,9.81,24.65,2.75.97-5.86,1.12-11.45.49-16.95,1.34-.27,2.68-.52,4.05-.66Z"/>
                <path class="cls-156" d="M212.05,310.32c.28,3.39-.52,13.6-6.53,12.2-7.36-1.54-18.7-12.79-21.5-19.18-3.43-7.82,2.13-9.96,7.91-19.06.44-.69,1.61-.87,2.07-.98,1.62-.39,9.51,9.28,11.47,11.5,4.1,4.66,6.12,9.98,6.58,15.51Z"/>
                <path class="cls-43" d="M161.84,299.52c.97.12,2.1-.16,3.01-.29l12.85,1.98,2.28,2.8c.63,5.51.47,11.09-.49,16.95-1.16,7.06-21.69-2.46-24.65-2.75-.62-2.66-3.57-3.71-2.73-6.53.17-.57,1.59-.85,1.69-1.44-.24-.88-.4-2.16-.84-2.78,2.13-6.22.55-1.37,3.93-7.13.84-.34,1.99-.41,2.52-1.19.71.43,1.6.26,2.44.37Z"/>
                <path class="cls-111" d="M137.93,277.87c-2.63,2.58-10.31,6.18-9.96,11.45-2.36,0-4.79.15-6.94-.79l14.67-12.68,2.23,2.02Z"/>
                <path class="cls-4" d="M156.88,300.33c-3.38,5.76-1.79.91-3.93,7.13-1.58-2.26-2.52-4.71-4.84-6.37.15-1.21,1.17.01,1.94-.04.45-1.68,2.22-2.04,2.97-2.54l3.86,1.83Z"/>
                <path class="cls-5" d="M161.81,294.15c-.04,1.82-1.31,3.48-2.41,5-.53.77-1.68.84-2.52,1.19l-3.86-1.83c1.95-2.14,5.62-3.75,8.79-4.35Z"/>
                <path class="cls-29" d="M177.69,301.21l-12.85-1.98c7.32-3.42,9.82-1.74,12.85,1.98Z"/>
                <path class="cls-61" d="M161.84,299.52c-.84-.11-1.73.06-2.44-.37,1.1-1.52,2.37-3.18,2.41-5-.42-.73.54-.91.86-.19.11,1.95-.06,3.93-.83,5.55Z"/>
                <path class="cls-23" d="M189.53,374.6c-1.43,1.84-1.4,5.06-2.11,7.08-.09.25-.29.57-.32.81-12.75,1.05-25.41.53-37.99-1.44-.05-.53-.19-.99-.08-1.54,1.06-5.45.62-18.3-7.95-17.64l-2.5-11.21c.51-.56,1.16-1.41,1.53-2.1,2.56-1.02,4.6-3.06,6.44-4.95,11.28,11.33,26.68,25.57,42.97,31Z"/>
                <path class="cls-1" d="M141.09,361.87c8.57-.66,9,12.19,7.95,17.64-5.45-.46-10.48-4-15.95-4.33l-1.59-.1c.36-1.12-1-12.4,9.6-13.22Z"/>
                <path class="cls-139" d="M131.49,375.09c-.26.79.78.9.7,1.63-.16,1.16-.58,2.23-.66,3.39l-10.98-9.55c-.27-.23.16-1.69-.29-1.64,1.52-.18,1.52.02,1,1.58,2.21,1.64,7.52,4.42,10.24,4.58Z"/>
                <path class="cls-121" d="M143.27,392.19c0,2.13-6.69-.6-7.24,2.04l-6.83.07c.11-.23.18-.46-.05-.66.76-.12.51-.88.65-1.41h6.51c.86,0,.62-.51.38-.93-.78-2.37-1.03-4.91-1.44-7.36,3.33,2.11,5.58,5.38,8.02,8.26Z"/>
                <path class="cls-132" d="M136.69,391.28c.23.42.47.93-.38.93h-6.51c.17-.69-.54-1.88.69-2.18.89,2.29,3.97,1.4,6.2,1.25Z"/>
                <path class="cls-132" d="M133.1,381.62c-.58-.09-1.13.45-1.69.1.09-.52.08-1.08.12-1.6.4-.32.75-.14,1.08.1.52.37.93.92.49,1.4Z"/>
                <path class="cls-177" d="M145.77,393.48c.46.38.19,1.23,1.7.93-.73,5.6-1.05,10.78-3.27,15.65-.07.83-1.25.69-.99-.04-3.8-3.52-4.46-16.46-7.19-15.8.56-2.64,7.25.1,7.24-2.04.85.04,1.9.79,2.51,1.29Z"/>
                <path class="cls-163" d="M204.7,374c-.2.55-.25.92-.06,1.22-5,3.33-10.91,6.76-17.22,6.46.71-2.02.68-5.25,2.11-7.08,1.45-1.86,4.49-3.81,6.52-4.51,4.06-1.4,5.86,2.25,8.65,3.9Z"/>
                <g>
                  <path class="cls-189" d="M138.78,291.28c-.47.79.08,1.67-.43,3.36-3.96-.99-7.56-2.87-10.38-5.32-.35-5.26,7.33-8.87,9.96-11.45.37.27,1.16-.37,1.1-.07l-.28,1.53c-.76,4.06.31,8.19.03,11.96Z"/>
                  <path class="cls-133" d="M134.93,289.01c-.05,1.52-1.19,1.25-1.74,1.06-1.08-.37-2.48-1.17-2.14-1.96.4-.93,1.2-1.58,2.2-2.22.74-.48,1.56,0,1.71.5.17.6,0,1.28-.03,2.62Z"/>
                </g>
                <path class="cls-48" d="M187.1,382.49c.03-.24.23-.55.32-.81,6.3.3,12.22-3.13,17.22-6.46,4.05,6.57,2.49,19.32.01,26.88-.64,1.96-2.66,2.61-4.73,2.43-12.04-1.07-14.01-13.56-12.82-22.04Z"/>
                <path class="cls-176" d="M149.03,379.51c-.11.56.03,1.02.08,1.54-4.44-.69-13.35-3.87-16.93-4.33.08-.73-.96-.84-.7-1.63l1.59.1c5.48.33,10.5,3.86,15.95,4.33Z"/>
                <path class="cls-115" d="M149.11,381.05c.08.86-.62,11.61-1.78,12.41-.38.26-1.18-1.31-1.55.01-.61-.51-1.66-1.25-2.51-1.29-2.44-2.88-4.69-6.15-8.02-8.26-.69-.56-.84-2.25-2.15-2.31.44-.48.03-1.03-.49-1.4-.34-.24-.69-.43-1.08-.1.08-1.15.5-2.23.66-3.39,3.58.46,12.49,3.64,16.93,4.33Z"/>
              </g>
              <path class="cls-191" d="M227.33,380.08c.2.47.12,1.32.67,1.65,1.59,5.82-.31,20.48-8.53,20.04-1.72-.09-3.28-1.04-4.58-2.36-5.99-6.11-7.12-24.35,4.2-27.58,3.53-.45,6.51,8.8,8.24,8.24Z"/>
              <path class="cls-119" d="M354.16,394.37c-1.13,4.07-4.64,8.08-9.4,6.6-4.61-1.43-5.97-6.45-6.22-10.14,5.06,1.56,10.26,3.23,15.61,3.54Z"/>
            </g>
            <g>
              <path class="cls-37" d="M612.71,278.44c-.16.45.04,1.24.78.94-.06.49.25,1.21.74,1.54-.89,1.69.07,3.6-.24,5.38-.72,4.15-.81,8.39-1.9,13.01-3.13-.88-4.34-3.26-6.59-4.41-7.08-3.63-14.67-8.58-18.56-15.24l-3.26-5.58c-3.23-5.54-9.69-8.91-12.13-15.34,3.3-3.19,6.98-6.3,11.16-7.55l30.01,27.26Z"/>
              <path class="cls-12" d="M656.4,356.96c-.46,1.4.07,2.87.12,4.28.12,3.37.56,6.77.27,10.52l-.83,10.79c-.05.64-.84,1.22-.95,1.9-1.25.85-1.72,2.86-1.68,4.24-1.14.77-2.1,2.35-1.57,3.65-1.8.97-3.19,3.16-1.76,4.78-.27.1-.33.78-.68.76-1.34-.08-1.85.92-2.98,1.38-.35,0-.7-.04-1.04-.09-5.45-8.83-7.59-15.22-18.5-20.22-5.06-2.32-9.99-4.43-15.09-5.94,14.07-3.34,28.52-7.1,40.75-14.82,1.15-.73,2.52-1.75,3.94-1.22Z"/>
              <path class="cls-135" d="M655.92,355.63c-2.88-12.32-6.51-24.53-12.66-35.88-.03.7,11.78-2.13,10.11-2.88.87.63,2.29,1.67,3.19,1.93,1.01.29,3.32-.78,3.15-2.02-.2-1.39-2.81-1.86-2.75-3.88,1.16-2.41,5.9-7.44,9.83-6.68,9.65,1.86,15.08,11.63,12.44,19.32-1.01,2.94-3.14,6.32-5.79,7.68-2.8-1.58-5.11-2.37-7.9-2.84-5.25-.88-11.65,3.1-10.56,7.93,1.57,6.93,8.11,4.08,11.38,5.76l-10.44,11.57Z"/>
              <path class="cls-79" d="M643.26,319.75c6.15,11.35,9.78,23.56,12.66,35.88.12.52.68.73.49,1.33-1.42-.53-2.79.49-3.94,1.22-4.99-12.46-9.89-24.74-17.18-36.76l-21.29-35.12c.31-1.77-.65-3.69.24-5.38,8.58,5.85,23.95,29.47,29.02,38.83Z"/>
              <path class="cls-66" d="M602.32,244.01c3.19-.42,5.85.4,7.18,3.62,1.95,4.75,3.06,9.69,3.29,14.79l.71,16.11c-.21-.22-.53-.25-.79-.08l-30.01-27.26c.5-.27.56-.53,0-.77.59-.21,1.39-.5,1.88-.74,5.45-2.73,11.54-4.85,17.74-5.67Z"/>
              <path class="cls-127" d="M387.27,153.75c2.14.47,6.5-.11,8.83.12-.16.74-.91.6-.93,1.44l-.7,64.77c-1.76-.75-4.49-.32-6.34-.84l-1.06-28.79c-.03-.87.79-2.42-.51-2.82-.22-4.44-.39-8.95-.64-13.58l-.86-15.89c-.07-1.25-1.27-2.55-.46-3.69.4-.62,2.01-.86,2.68-.71Z"/>
              <path class="cls-179" d="M485.77,217.25c5.18,1.97-1.26.16,6.63,3.5s16.88,1.51,25.48,1.35c.12,1.52,2.24.57,3.31.73,6.41.95,13,2.31,18.78,4.92-.32,1.05-1.27,1.84-3.08,1.73-22.98-1.43-45.32-5.21-67.92-11.46,2.97-3.19,17.51,1.35,16.8-.77Z"/>
              <path class="cls-106" d="M407.97,337.77c.69,3.11.41,6.34.81,9.48-1.96.52-2.1,2.8-2.32,4.82l-1.51,13.77c-1.85.37-3.82.22-5.59.84l-1.2-27.77c2.62.14,7.34-1.01,9.81-1.14Z"/>
              <path class="cls-41" d="M404.95,365.84c2.24,2.46,1.04,6.5,1.47,9.77l5.48-.33-.8,1.41c-3.42.27-7.04.32-10.27,1.37-.04-.33-.65-.43-.88-.56.07-.29-.13-.65-.02-.93.37-.94-.51-1.81-.36-2.75.37-2.38-.11-4.74-.21-7.14,1.78-.63,3.74-.47,5.59-.84Z"/>
              <path class="cls-117" d="M602.32,244.01c-6.2.82-12.29,2.94-17.74,5.67-.78-.79.85-1.35.37-2.13,3.07-.62,15-8.29,17.37-3.54Z"/>
              <path class="cls-135" d="M584.96,247.54c.48.78-1.15,1.34-.37,2.13-.49.24-1.29.53-1.88.74-1.89.68-3.15-1.41-5.91-2.75,1.21-.37,2.63-.1,3.06.99,2.1-.98,3.6-.8,5.1-1.1Z"/>
              <path class="cls-135" d="M651.77,392.33c-.53-1.29.43-2.87,1.57-3.65.04,1.26-.27,2.94-1.57,3.65Z"/>
              <path class="cls-135" d="M387.07,190.45c-1.39-.36-.47-1.96-.51-2.82,1.3.4.48,1.95.51,2.82Z"/>
              <path class="cls-56" d="M396.1,153.87c-2.34-.23-6.69.35-8.83-.12.75-1.98-2.27.51-3.33-.83-.2-.25-.48-.51-.53-1.29l-1.76-26.03c3.89-2.11,7.59-3.62,12.26-5.37l2.2,33.64Z"/>
              <path class="cls-151" d="M597.56,371.06c-5.92,2.74-9.17,13.25-6.31,19.75,2.48,5.64,7.67,9.79,12.57,13.97-7.38.37-14.74.87-22.43.46-20.44-1.11-40.14-7.43-56.38-18.59-22.79-15.65-18.49-28.32-31.11-41.89-3.65-3.92-4.83-9.14-13.1-8.32-9.38.93-5.94,13.88-8.33,18.43-8.55-4.52-14.46-12.12-22.36-17.01-.68-.42-1.37-1.93-2.35-2.15-4.31-.04-8.17.8-11.99,1.34-.62-.71,0-1.81.01-2.6,15.33-8.5,26.67-22.49,26.9-38.67,6.63,3.47,12.59,8.14,17.63,13.97,8.44,9.75,17.41,18.03,28.05,25.98,23.9,17.87,52.27,35.01,83.6,39.03,1.47-1.69,3.39-4.85,5.17-4.44.27.06.55.36.44.73Z"/>
              <path class="cls-190" d="M576.03,247.57c.4.17.32.22.76.09,2.77,1.34,4.02,3.43,5.91,2.75.56.25.5.5,0,.77-4.18,1.26-7.86,4.36-11.16,7.55,2.45,6.43,8.9,9.8,12.13,15.34l3.26,5.58c3.89,6.66,11.48,11.61,18.56,15.24.69,2.51.59,6.47-2.57,7.94s-7.35.84-11.01.02c-20.63-4.65-45.12-17.35-55.78-34.1-6.59-10.36-1.22-19.38,6.56-27.35,11.64.36,22.64,2.96,33.32,6.17Z"/>
              <path class="cls-109" d="M462.68,295.78c-.23,16.18-11.57,30.18-26.9,38.67-6.85,3.8-15.28,4.58-23.08,4.73.25-.91.11-1.86-.65-2.55,16.25-5.37,30.21-15.44,38.57-29.19,3.22-5.3,5.39-10.53,5.9-16.16.33-3.7,1.28-7.57,0-11.28,3.76,4.33,6.24,10.08,6.16,15.78Z"/>
              <g>
                <g>
                  <path class="cls-142" d="M611.71,372.99c5.1,1.52,10.03,3.63,15.09,5.94,10.91,4.99,13.05,11.39,18.5,20.22-2.18.8-2.72,3.51-4.8,4.94-5.94,4.08-21.52,7.84-21.94,7.6-1.08-.61-2.67-1.1-2.8-2.56-.72.27-.82.47-1.42.19-3.09-1.46-7.88-2.29-10.52-4.55-4.9-4.18-10.09-8.33-12.57-13.97.74-6.94,3.31-17.91,15.09-17.82.58,0,1.07-.37,1.32-.33.23.03.12-.67.17-.81l3.88,1.15Z"/>
                  <path class="cls-164" d="M607.83,371.84c-.05.14.05.84-.17.81-.25-.04-.74.34-1.32.33-11.78-.08-14.35,10.88-15.09,17.82-2.86-6.5.39-17.01,6.31-19.75,3.45-.77,6.97-.19,10.26.78Z"/>
                </g>
                <path class="cls-89" d="M649.32,397.87c7.07,6.92,2,14.38,5.78,13.79v1.47c-.02.88,5.08-.18,4.63,2.48-.17.24-.36.48-.67.52,2.39-1.12-8.79-.27-9.43-.22-2.21,3.32-2.89,7.67-6.76,10.04-6.65,4.09-14.93,5.89-22.95,5.29-4.38-.33-20.9-3.67-21.63-6.61,1.9-.03,3.38-2.08,4.01-3.4.88.29.82-1.21,1.75-.78,2.96,1.25,6.75-.07,9.64-1.8,16.56-9.9,19.45-5.31,35.43-11.76,1.08-.44,1.61-1.42,2.56-2.12-2.53-1.36-4.32-3.29-5.34-5.53,1.13-.46,1.64-1.46,2.98-1.38Z"/>
                <path class="cls-51" d="M646.34,399.24c1.02,2.24,2.82,4.17,5.34,5.53-.95.7-1.48,1.68-2.56,2.12-15.98,6.45-18.87,1.86-35.43,11.76-2.9,1.73-6.68,3.05-9.64,1.8l10.29-11.11c.6.28.7.08,1.42-.19.13,1.46,1.72,1.95,2.8,2.56.42.24,16-3.53,21.94-7.6,2.08-1.43,2.63-4.14,4.8-4.94.35.05.69.08,1.04.09Z"/>
              </g>
              <path class="cls-161" d="M412.04,336.63c.76.69.9,1.64.65,2.55-.36,1.34,1.06,2.36.82,3.7-5.4,1.06-.65,20.46-1.45,24.66-2.26-2.41-1.42-5.8-1.85-9.15l-1.42-11.14c-.4-3.14-.12-6.37-.81-9.48,1.07-.06,3.02-.79,4.07-1.14Z"/>
              <path class="cls-187" d="M401.48,224.36c-2.18-1.29-4.63-3.2-7.01-4.28l.7-64.77c.38.56.79-.23,1.02-.07.59.41.5,1.31.55,2.11l4.73,67.01Z"/>
              <g>
                <path class="cls-160" d="M656.53,361.24c-.05-1.41-.59-2.89-.12-4.28.2-.59-.36-.8-.49-1.33l10.44-11.57c-3.27-1.68-9.82,1.17-11.38-5.76-1.09-4.83,5.31-8.8,10.56-7.93,2.79.47,5.1,1.26,7.9,2.84,2.65-1.36,4.78-4.73,5.79-7.68,2.64-7.69-2.78-17.47-12.44-19.32-3.93-.76-8.67,4.28-9.83,6.68-.06,2.02,2.55,2.49,2.75,3.88.17,1.23-2.13,2.3-3.15,2.02-.9-.26-2.32-1.3-3.19-1.93-2.56-6.78,4.8-12.59,12.25-13.92,7.74-1.39,22.31,10.68,17.61,23.1-2.22,5.87-8.23,13.02-8.09,12.71-4.95,10.35-7.54,10.81-16.18,17.43-1.44,1.11-.75,4.18-2.44,5.04Z"/>
                <path class="cls-138" d="M669.32,336.33c.51,2.31-1.69,3.63-3.11,4.05-1.67.49-5.29.95-6.22-.53-1.41-2.23.55-5.15,2.83-5.88,1.78-.57,5.99.04,6.5,2.36Z"/>
              </g>
              <path class="cls-70" d="M412.06,367.54c1.28,2.04-.21,4.84.52,7.03-.53-.08-.51.41-.68.71l-5.48.33c-.43-3.27.77-7.31-1.47-9.77l1.51-13.77c.22-2.02.36-4.31,2.32-4.82l1.42,11.14c.43,3.35-.4,6.74,1.85,9.15Z"/>
              <path class="cls-180" d="M411.1,376.69c1.68-4.67,3.47,14.9,2.66,13.4-2.28.1-.58,2.66-.73,4.03-.69,6.33-1.63,12.11-3.51,17.92-.2.61-1.02,1.12-1.03,1.5,0,.33-1.52.62-1.64.02-2.48-11.94-4.54-23.72-6.02-35.5,3.23-1.05,6.85-1.1,10.27-1.37Z"/>
              <path class="cls-55" d="M419.97,400.64l-.04,12.93c-.53,1.02-.79.24-.95-.14-.36-.88-.58-2.39.16-3.03.27-1.79-2.04-1.74-1.7-.07.56,1.36.94,2.51-.59,3.07l-2.7-19.25c-.2-1.39.91-3.28-.39-4.05.81,1.5-.98-18.08-2.66-13.4l.8-1.41c.17-.29.15-.79.68-.71,1.83,1.29,1.76,3.99,2.01,6.1l2.8,23.84c.08.7,1.24-.05,1.4-.39.52-1.08-.46-4.15,1.19-3.48Z"/>
              <path class="cls-54" d="M603.82,404.78c2.64,2.25,7.44,3.09,10.52,4.55l-10.29,11.11c-.93-.43-.87,1.07-1.75.78-14.54.38-29.26-.14-43.44-4.49-8.47-2.6-4.6-3.64-15.57.91-.31-.77-1.29-1.14-1.47-1.97,1.26.06,2.52.21,3.62-1.3-3.26-2.4-6.97-5.48-10.63-7.3,1.04-.35-.56-2.04-1.5-2.54-13.65-7.21-26.38-15.05-39.2-22.84.07-.47-.08-.86-.05-1.33l.75-11.46c.55-8.34.06-16.25-.91-24.16,12.62,13.56,8.33,26.23,31.11,41.89,16.24,11.16,35.94,17.48,56.38,18.59,7.69.42,15.05-.09,22.43-.46Z"/>
              <path class="cls-21" d="M435.78,334.46c0,.79-.63,1.89-.01,2.6,4.98,5.7,12.05,10.45,18.78,14.89.21.68.23,1.75,1.27,1.58.7,9.85,1.1,19.9.06,30.2-1.07,10.62-.68,21-4.44,31.9-7.77-20.24-10.3-40.52-12.11-61.02-7.1-1.94-13.06-5-19.18-7.7l-4.31-4.4c1.86-.62.25,1.12-.35,1.06-.86-.09-1.38-.79-1.97-.68.24-1.33-1.18-2.36-.82-3.7,7.8-.15,16.23-.93,23.08-4.73Z"/>
              <path class="cls-101" d="M493.9,344.76c.97,7.9,1.46,15.82.91,24.16l-.75,11.46c-4.03-1.06-14.37-10.04-18.62-13.44-.68-.18-1.08-.39-1.41-.17-.05-.98-1.09-1.9-.88-2.93,1.28-2.82-1.02-6.29-.68-8.98,2.4-4.54-1.04-17.5,8.33-18.43,8.28-.82,9.45,4.4,13.1,8.32Z"/>
              <path class="cls-39" d="M472.46,354.87c-.34,2.69,1.97,6.16.68,8.98-1.91-.49-2.34-2.9-4.2-3.87-4.46-2.32-8.72-4.8-13.13-6.45-1.04.16-1.05-.91-1.27-1.58l-4.44-14.08c7.89,4.89,13.81,12.49,22.36,17.01Z"/>
              <path class="cls-81" d="M450.1,337.86l4.44,14.08c-6.74-4.44-13.81-9.19-18.78-14.89,3.82-.55,7.68-1.38,11.99-1.34.98.22,1.66,1.72,2.35,2.15Z"/>
              <g>
                <path class="cls-112" d="M390.52,258.27c.84.62.2-1.06,1.54-.81,1.52,4.45-3.09,10.57,3.1,11.15-10.47,4.04-10.06,3.89-21.4,2.36.61-.72.24-2.22.63-2.86.32-.53,1.24-1.24-.16-2.29-.98.55-1.45,1.8-2.15,2.26-5.86,3.88-11.66,10.42-18.55,9.83,14.42-13.79,22.59-20.29,31.35-38.68.78-1.64,1.47-3.62,2.99-4.42l1.07,26.48c2.36-.49,1.27-2.18,1.57-3.04Z"/>
                <path class="cls-59" d="M392.9,223.47l-4.32,8.04c-.57,1.05-.75,2.16-.71,3.31-1.52.79-2.21,2.78-2.99,4.42-8.76,18.39-16.93,24.88-31.35,38.68-2.27-1.38,2.15-2.94,1.83-4.83.69-.06.84-.24.65-.82l12.16-19.7,16.79-26.85c.71-1.13,1.6-2.34,2.91-2.81,1.84-.65,3.55-.18,5.03.56Z"/>
                <path class="cls-33" d="M384.96,225.72l-16.79,26.85-12.16,19.7c2.92-7.84,5.28-14.46,10.88-21.85,5.14-6.78,10.52-18.41,15.53-24.7h2.55Z"/>
                <path class="cls-86" d="M394.48,220.08c2.38,1.08,4.83,2.99,7.01,4.28.17,3.99,4.6,5.04,4.96,8.33-4.68-2.95-8.63-6.77-13.54-9.22-1.49-.74-3.19-1.22-5.03-.56-.05-.75-.29-1.37-.61-2.06-.18-.71.2-1.4.87-1.61,1.85.51,4.59.09,6.34.84Z"/>
                <path class="cls-135" d="M387.87,222.91c-1.31.47-2.2,1.67-2.91,2.81h-2.55c1.41-1.76,2.59-3.92,4.85-4.87.31.69.56,1.31.61,2.06Z"/>
                <path class="cls-135" d="M374.39,268.12c-.71.3-.61-.49-.94-.48s-.92.5-1.38.45c.7-.46,1.17-1.71,2.15-2.26,1.41,1.05.48,1.76.16,2.29Z"/>
                <path class="cls-33" d="M355.36,273.09c-.15-.41-.04-1.16.65-.82.19.59.04.76-.65.82Z"/>
                <path class="cls-65" d="M406.44,232.7c1.27.8,2.04,2.51,3.77,2.85-.2.71.97.74,1.12,1.44-5.28,4.52-10.23,9.17-13.33,15.56,1.21.21,2.16,1.17,2.8,1.34-2.54.07.77,2.23-1.68,1.6.01-.78-.71-1.21-1.53-1.03-.47.1-.94,1.08-1.82.87-1.76-1.51-2.28,1.77-3.7,2.13-1.34-.25-.71,1.42-1.54.81l-.56-23.38c-.03-1.42.11-3.14-1.38-3.37l4.32-8.04c4.91,2.45,8.86,6.27,13.54,9.22Z"/>
                <path class="cls-38" d="M404.56,261.79c-3.14,1.5-5.8,4.25-8.56,6.23-.46-.04-1,.05-.84.59-6.19-.58-1.57-6.7-3.1-11.15,1.43-.36,1.94-3.64,3.7-2.13-1.08.83-2.35,1.76-2.01,3.48,2.54,0,4.9-1.37,5.36-3.32,2.45.63-.86-1.53,1.68-1.6,2.46.66,4.41,5.09,3.76,7.9Z"/>
                <path class="cls-62" d="M390.52,258.27c-.3.86.79,2.55-1.57,3.04l-1.07-26.48c-.05-1.14.14-2.25.71-3.31,1.49.23,1.35,1.96,1.38,3.37l.56,23.38Z"/>
                <path class="cls-25" d="M399.12,255.5c-.46,1.95-2.82,3.31-5.36,3.32-.35-1.72.93-2.65,2.01-3.48.88.21,1.36-.77,1.82-.87.82-.18,1.54.25,1.53,1.03Z"/>
              </g>
              <g>
                <path class="cls-146" d="M485.77,217.25c.72,2.12-13.83-2.41-16.8.77,22.59,6.25,44.94,10.03,67.92,11.46,1.8.11,2.76-.68,3.08-1.73,8.88,1.84,29.37,13.37,36.05,19.02-.19.25-.19.56.01.81-10.68-3.21-21.69-5.81-33.32-6.17-7.78,7.97-13.15,17-6.56,27.35,10.66,16.75,35.15,29.45,55.78,34.1,3.65.82,7.84,1.45,11.01-.02s3.26-5.43,2.57-7.94c2.25,1.15,3.46,3.53,6.59,4.41,1.1-4.62,1.18-8.86,1.9-13.01l21.29,35.12c7.29,12.02,12.19,24.3,17.18,36.76-12.23,7.71-26.68,11.47-40.75,14.82l-3.88-1.15c-3.29-.98-6.81-1.55-10.26-.78.12-.37-.16-.67-.44-.73-1.78-.42-3.7,2.75-5.17,4.44-31.34-4.02-59.7-21.16-83.6-39.03-10.63-7.95-19.6-16.23-28.05-25.98-5.04-5.82-11-10.49-17.63-13.97.08-5.7-2.4-11.46-6.16-15.78-1.64-1.88-2.13-4.64-4.03-6.36-.4-1.41-.35-2.6-1.83-4.06-11.65-11.48-30.91-11.43-46.09-7.79.65-2.8-1.3-7.24-3.76-7.9-.64-.17-1.59-1.13-2.8-1.34,3.09-6.4,8.05-11.04,13.33-15.56-.15-.7-1.32-.73-1.12-1.44,1.63.78,2.22-.11,3.58-1.2,10.62-8.55,23.36-14.05,36.94-17.24,9.1-2.14,18.42-1.95,28.09-1.83,1.1.01,2.36.1,2.38-.8,1.11.88,3.53,1.76,4.57,2.76Z"/>
                <g>
                  <path class="cls-17" d="M510.15,272.79c-4.63,4.71-10.54,7.16-16.77,4.93-2.16-.77-4.03-2.01-4.65-3.42-.92-2.07-.89-4.31.48-6.26,3.58-5.11,11.03-7.38,17.2-5.41,2.33.74,3.89,2.14,4.61,3.47,1.05,1.97.9,4.89-.86,6.68Z"/>
                  <path class="cls-104" d="M499.45,263.5c1.72,1.68-4.31,7.12-7.79,6.29-1.19-2.77,6.31-7.74,7.79-6.29Z"/>
                </g>
              </g>
              <path class="cls-162" d="M494.06,380.38c-.03.47.12.85.05,1.33-1.66,10.88-1.8,21.89-4.41,32.88-.29,1.2-1.13,3.69-2.56,3.43-1.83-1.23-2.92-3.59-3.51-5.57-4.54-15.12-8.86-30.38-9.6-45.67.32-.22.73-.01,1.41.17,4.26,3.4,14.59,12.38,18.62,13.44Z"/>
              <path class="cls-195" d="M420.14,346.9c3.48,3.56,4.02,14.57,2.91,19.34-.56,2.42-1.11,4.78-1.3,7.63l-1.77,26.75c-1.64-.67-.66,2.4-1.19,3.48-.16.34-1.32,1.09-1.4.39l-2.8-23.84c-.25-2.12-.18-4.81-2.01-6.1-.73-2.19.76-5-.52-7.03.8-4.2-3.95-23.6,1.45-24.66.59-.12,1.11.59,1.97.68.6.06,2.21-1.67.35-1.06l4.31,4.4Z"/>
              <path class="cls-196" d="M419.93,413.56l.04-12.93,1.77-26.75c.19-2.86.74-5.22,1.3-7.63l6.58,2.51c.94,15.09.75,29.59.23,44.82-3.65.16-6.87.88-9.93-.01Z"/>
              <path class="cls-116" d="M534.81,407.08c3.66,1.82,7.37,4.9,10.63,7.3-1.1,1.5-2.35,1.36-3.62,1.3l-11.22-.56-24.59-.53c-.34,0,.08-1.22-.26-1.28,3.92-8.22,20.3-8.29,29.06-6.23Z"/>
              <path class="cls-186" d="M541.82,415.68c.18.83,1.17,1.2,1.47,1.97-4.5,1.87-9.63,2.41-15.07,2.61-6.86.26-18.46,1.09-22.72-3.36-1.4-1.46-.26-2.51.25-3.59.34.07-.08,1.28.26,1.28l24.59.53,11.22.56Z"/>
              <g>
                <path class="cls-185" d="M456.51,291.28c-.51,5.63-2.68,10.85-5.9,16.16-8.36,13.75-22.32,23.82-38.57,29.19-1.06.35-3,1.08-4.07,1.14-2.47.13-7.19,1.28-9.81,1.14-12.1-.64-24.2-3.75-33.61-11.15-6.74-5.3-11.07-11.61-12.45-18.76.89-2.05,1.31-4.57,3.19-6.62,4.46,20.59,13.24,30.24,37.45,30.81,10.37.24,19.68-2.52,27.97-6.58,15.7-7.69,27.44-21.23,32.23-36.57,1.33-.12,2.52.63,3.59,1.24Z"/>
                <path class="cls-78" d="M394.07,274.32c-6.73,1.23-14.94-.14-19.04,4.33-1.24,1.35-3.68,2.8-5.18,4.22-5.43,5.1-10.42,10.07-14,16.95-1.93-.32,2.28-5.36-1.27-4.81.95-2.49,2.18-5.13,3.94-7.26,1.98-2.4,4.8-4.5,7.06-7.16l8.18-9.6c11.34,1.53,10.93,1.68,21.4-2.36-.16-.54.38-.63.84-.59l-1.93,6.3Z"/>
                <path class="cls-135" d="M358.52,287.74c-1.76,2.13-3,4.77-3.94,7.26-1.2-.4-.09,2.81-1.63,2.03-.43-3.46.71-8.93,5.57-9.29Z"/>
                <path class="cls-143" d="M452.48,273.64c1.38,4.86,1.57,9.88.75,14.85-2.64-.35-4.95-2.12-7.26-3.74-6.49-4.54-12.82-9.06-19.68-13.27-12.45-7.65-20.38,1.63-31.28,2.91-.34.04-.66.01-.93-.06l1.93-6.3c2.75-1.98,5.42-4.73,8.56-6.23,15.18-3.64,34.43-3.69,46.09,7.79,1.48,1.46,1.43,2.65,1.83,4.06Z"/>
                <path class="cls-80" d="M456.51,280c1.28,3.72.33,7.58,0,11.28-1.07-.61-2.26-1.36-3.59-1.24.16-.5.23-1.04.31-1.55.82-4.96.63-9.99-.75-14.85,1.91,1.71,2.39,4.47,4.03,6.36Z"/>
                <g>
                  <path class="cls-204" d="M395.12,280.17c.28,14.4,11.95,38.15,25.57,46.44-8.29,4.06-17.59,6.82-27.97,6.58-24.21-.57-32.99-10.22-37.45-30.81-1.88,2.05-2.29,4.57-3.19,6.62-.79-4.09-1.65-7.69.87-11.97,1.53.78.43-2.43,1.63-2.03,3.55-.55-.67,4.49,1.27,4.81,3.58-6.88,8.57-11.84,14-16.95,1.5-1.41,3.94-2.87,5.18-4.22.14.48.51,1.88,1.14,2.21l18.95-.7Z"/>
                  <path class="cls-107" d="M375.53,283.85c9.79,9.25,3.74,14.6,5.68,19.53.57,1.45-1.72,4.64-3.43,4.53-3.21-.2-4.68-2.86-5.15-5.08-.7-3.28-1.96-16.35,2.91-18.98Z"/>
                </g>
                <path class="cls-26" d="M394.07,274.32c.27.07.6.1.93.06l.11,5.78-18.95.7c-.63-.34-1-1.73-1.14-2.21,4.1-4.47,12.32-3.09,19.04-4.33Z"/>
                <g>
                  <path class="cls-192" d="M453.23,288.49c-.08.51-.15,1.05-.31,1.55-4.79,15.33-16.53,28.88-32.23,36.57-13.62-8.29-25.29-32.05-25.57-46.44l-.11-5.78c10.9-1.28,18.84-10.56,31.28-2.91,6.85,4.21,13.19,8.73,19.68,13.27,2.31,1.62,4.62,3.39,7.26,3.74Z"/>
                  <path class="cls-68" d="M428.2,298.9c-.08,1.21-1.44,3.93-2.87,3.95-2.7.04-2.72-3.07-3.65-4.94-2.24-4.48-.21-13.33.69-17.76,5.4,2.17,6.13,13.98,5.83,18.75Z"/>
                  <path class="cls-122" d="M428.2,298.9c.3-4.77-.43-16.59-5.83-18.75.12-.59.25-2.06,1.02-1.89,2.94,2.74,4.93,5.77,6.51,9.03,1.46,3,1.24,10.67-1.7,11.61Z"/>
                </g>
              </g>
              <g>
                <path class="cls-69" d="M545.78,188.33c-4.48.53,1.97-.92-4.16,4.02.18,2.48,2.64,4.09,5.38,3.94,1.57,1.5,2.23,3.93,2.84,5.44-6.82,1.6-5.54,6.76-18.75,14.65-1.79,1.07-3.35,2.44-5.23,2.99-1.68.5-3.39,1.07-4.77,2.08-.99.07-2.69-.48-3.23.65-8.59.16-17.73,1.94-25.48-1.35.99-2.7,1.69-5.6,1.54-8.45,1.38.31,1.81,1.02,2.33,2.38,7.12,1.58,15.3,1.99,22.81.8.58-2.31-.64-4.27-1.5-6.08-1.67-3.51-.78-7.29-.58-11.03,10.68-2.67,19.46-8.87,25.35-17.1l3.44,7.05Z"/>
                <path class="cls-97" d="M577.34,160.99c1.02.87,2.24.96,4.02,1.97-1.91.98-3.09,1.6-4.5,2.04l-6.95-2.53c-.41,1.1.45,1.83-.06,2.63-.66.13-1.16-.14-1.75-.19.36-.55,1.42-1.65.69-2.49-1.28.06-2.87.47-3.7,1.16-3.25-1.98,4.28-.94-7.42-3.28-.5-.74.19-1.71-.01-2.45,2.09-.56,8.83,2.63,9.76-1.27.33,1.11,1.79,2.39,1.66,4.09,3.02.02,5.63,1.05,8.27.33Z"/>
                <path class="cls-96" d="M576.85,165c-1.58.5-3.42-.07-4.89.77-.79.12-1.34-.82-2.12-.67.51-.8-.35-1.53.06-2.63l6.95,2.53Z"/>
                <path class="cls-135" d="M521.11,221.45c-.17.49.47.91.08,1.38-1.07-.16-3.19.79-3.31-.73.54-1.13,2.24-.59,3.23-.65Z"/>
                <path class="cls-8" d="M541.07,125.51c12.78,6.78,23.25,18.13,26.34,31.07-.93,3.9-7.67.71-9.76,1.27-1.72-6.22-3.86-12.27-7.96-17.54-2.69-3.46-5.12-6.89-9.47-9.78l-11.11-7.36c.5-4.21,12.72,5.05,11.97,2.34Z"/>
                <path class="cls-71" d="M541.07,125.51c.75,2.71-11.47-6.55-11.97-2.34-3.54-2.35-16.82-2.51-20.1-1.55-3.75,1.1-7.98-.22-11.63.8l-11.47,3.19c-.31-.51-1.53-.4-1.45-1.72,2.06-1.11,3.81-.88,4.87-2.76-3.75-.19-6.92.32-10.45,1.62.88-.98.07-1.37.04-2.21,20.72-8.71,44.88-4.97,62.16,4.99Z"/>
                <path class="cls-95" d="M485.9,125.6c-.7.2-1.32.64-2.11.52.03-.37.4-.67.44-.93.09-.56-.72-1.17-1.63-.86-10.89,3.67-20.76,9.9-26.82,18.41-1.28,1-2.74.71-4.04-.1,6.2-9.7,15.75-17.31,27.18-22.11.04.84.85,1.23-.04,2.21,3.54-1.3,6.7-1.81,10.45-1.62-1.06,1.88-2.81,1.65-4.87,2.76-.08,1.32,1.14,1.21,1.45,1.72Z"/>
                <path class="cls-126" d="M455.78,142.73c.34.11.62.17.7.38.36.88-8.4,11.81-6.81,25.37.43,3.64.96,7.23-.81,10.14-.79-2.09-1.38-4.78-2.69-6.64-1.85-10.2-.18-20.37,5.56-29.35,1.31.81,2.77,1.1,4.04.1Z"/>
                <path class="cls-100" d="M476.52,205.23c-.86-.07-1.32.84-.31.93,5.43,3.61,11.67,4.77,17.73,6.14.15,2.85-.55,5.75-1.54,8.45-7.89-3.35-1.45-1.53-6.63-3.5-1.04-1-3.45-1.88-4.57-2.76-4.72-3.73-18.28-12.94-19.77-17.54l2.97,2.04,9.99,6.19c.27.17.62-.56.88-.64.61-.18,1.35.26,1.25.7Z"/>
                <path class="cls-7" d="M538.63,160.02c-2.06,3.19,1.15,5.9,1.64,8.51l1.98,10.61c-.43-.14-.99.05-1.4.62-4.08,5.83-8.86,11.64-16.19,14.7-11.93,4.97-24.9-.27-32.23-8.98.19-1.27-1.31-1.94-1.78-3.86,12.38-4.07,24.66-7.23,37.57-10.44,1.45-.36,4.51-1.26,4.51-2.56-.07-2.34-2.82-4.15-4.61-4.99-.82-2.59-5.67-2.57-5.41-4.1,5.29-.67,10.74-.15,15.92.49Z"/>
                <path class="cls-53" d="M492.43,185.47c7.33,8.72,20.3,13.95,32.23,8.98,7.34-3.06,12.11-8.86,16.19-14.7.4-.58.97-.77,1.4-.62.13.67-.26,1.43.09,2.14-5.89,8.23-14.67,14.43-25.35,17.1-8.11,2.03-16.65,2.56-25.38,1.23-.46,2.84.37,5.26.81,7.75-13.88-3.51-37.33-22.48-24.59-33.04,5.25-4.35,11.74-6.56,18.28-8.36l.06,12.65c.01,2.53,1.33,3.86,4.04,4.7.79.24,1.02,2.41,2.22,2.17Z"/>
                <path class="cls-84" d="M549.68,140.31c4.1,5.27,6.25,11.32,7.96,17.54.2.74-.49,1.71.01,2.45-2.95-.59-6.7.43-9.54-.69-3.14-1.25-6.51-.35-9.49.41-5.18-.64-10.64-1.16-15.92-.49-.31.04-.61-.17-.88-.16.12-1.02-1.06-1.74-.79-2.79,2.09.37,4.17-.14,6.22-.14l8.85.02,11.8.92c.27-10.07-13.47-24.49-21.17-26.93-5.37-2.59-11.95-5.26-18.48-5.66-.6-1.08,1.62-.94,1.71-2.57,1.23-2,19.9,6.92,21.21,7.83l16.99,11.75c.71-.71.69-1.8,1.51-1.5Z"/>
                <path class="cls-35" d="M545.78,188.33l6.68,13.48c-1.09.36-1.85-.26-2.61-.08-.61-1.51-1.28-3.93-2.84-5.44-2.74.15-5.2-1.46-5.38-3.94,6.13-4.94-.32-3.49,4.16-4.02Z"/>
                <g>
                  <path class="cls-120" d="M557.66,160.3c11.7,2.33,4.17,1.29,7.42,3.28,1.01.62,1.66,1.2,3.01,1.33.59.05,1.09.32,1.75.19.78-.15,1.33.79,2.12.67,7.9,17.59,11.43,43.84-11.96,54.93-1.53-.62-1.03-2.59-1.84-4.35-9.12,4.62-23.89,10.86-32.29,3.01,1.88-.55,3.44-1.92,5.23-2.99,13.2-7.89,11.93-13.05,18.75-14.65.77-.18,1.52.44,2.61.08l-6.68-13.48-3.44-7.05c-.34-.71.04-1.46-.09-2.14l-1.98-10.61c4.33-6.5,6.8-4.1,7.85-8.92,2.84,1.13,6.59.1,9.54.69Z"/>
                  <path class="cls-140" d="M548.12,159.61c-1.05,4.82-3.52,2.42-7.85,8.92-.49-2.6-3.7-5.32-1.64-8.51,2.98-.76,6.35-1.66,9.49-.41Z"/>
                  <path class="cls-13" d="M568.08,164.91c-1.34-.12-2-.71-3.01-1.33.83-.69,2.42-1.1,3.7-1.16.73.84-.33,1.94-.69,2.49Z"/>
                </g>
                <path class="cls-20" d="M517.58,209.41c-7.8,1.26-16.09.97-23.6-1.32-.56-.17-.99-.59-1.55-.73-.43-2.49-1.27-4.91-.81-7.75,8.73,1.33,17.27.8,25.38-1.23-.2,3.75-1.09,7.53.58,11.03Z"/>
                <path class="cls-114" d="M493.98,208.08c7.52,2.29,15.8,2.58,23.6,1.32.86,1.81,2.08,3.77,1.5,6.08-7.5,1.18-15.69.77-22.81-.8-.53-1.35-.95-2.07-2.33-2.38-6.06-1.37-12.29-2.53-17.73-6.14-1.01-.09-.55-1.01.31-.93l13.41,4.07c2.49.76,4.8-.63,4.05-1.21Z"/>
                <path class="cls-46" d="M517.92,156.5c.86-.15,2.26-.07,3.12.08-.27,1.05.91,1.77.79,2.79-8.08.31-15.95,2.35-23.88,3.63-4.09.66-7.86,1.86-11.83,2.95-6.54,1.8-13.03,4.01-18.28,8.36-12.74,10.56,10.71,29.53,24.59,33.04.57.14.99.56,1.55.73.76.58-1.56,1.97-4.05,1.21l-13.41-4.07c.11-.44-.64-.88-1.25-.7-.27.08-.61.81-.88.64l-9.99-6.19-2.97-2.04c-3.23-2.22-5.05-5.66-7.04-8.7.55-.12.8-.7.64-.97l-.66-1.13c-.55-.93-1.76-2.55-1.08-3.52,1.33-1.9,1.01-3.8,1.55-5.53,1.28-4.1,5.41-7.03,9.62-8.55,7.56-2.73,14.85-6.29,23.47-8.2,2.61-.58,5.25-.66,7.85-1.08,5.91-.96,11.75-2.54,18.1-2.24,1.64.08,2.83-.3,4.03-.51Z"/>
                <path class="cls-145" d="M483.79,126.12c-20.63,7.67-33.83,28-30.09,49.65.11.65.29,1.74,1.14,1.32-.54,1.73-.21,3.64-1.55,5.53-.68.97.53,2.59,1.08,3.52l.66,1.13c.16.27-.09.85-.64.97-2.03-3.12-4.22-6.18-5.53-9.62,1.77-2.91,1.23-6.51.81-10.14-1.59-13.55,7.16-24.49,6.81-25.37-.09-.21-.36-.27-.7-.38,6.06-8.51,15.93-14.74,26.82-18.41.91-.31,1.72.3,1.63.86-.04.27-.41.56-.44.93Z"/>
                <path class="cls-205" d="M529.1,123.17l11.11,7.36c4.36,2.89,6.78,6.32,9.47,9.78-.82-.3-.8.79-1.51,1.5l-16.99-11.75c-1.31-.91-19.99-9.83-21.21-7.83-.1,1.62-2.32,1.48-1.71,2.57-9.64-.6-19.17,2.92-26.96,8.45-19.19,13.6-17.75,33.85-15.57,33.2.84-.25.21-1.18.57-1.34,6.07-2.32,16.09-6.02,22.79-7.82,1.71-.46,5.52-.23,7.18-1.24.72-.52,1.79-1.63,2.53-2.26-1.45,3.4,7.62-.42,12.11.01,2.47.24,5.59,1.04,7.02,2.72-1.2.21-2.39.58-4.03.51-6.35-.3-12.19,1.28-18.1,2.24-2.59.42-5.24.51-7.85,1.08-8.63,1.91-15.91,5.47-23.47,8.2-4.21,1.52-8.34,4.45-9.62,8.55-.86.43-1.03-.66-1.14-1.32-3.73-21.65,9.47-41.98,30.09-49.65.79.12,1.41-.32,2.11-.52l11.47-3.19c3.64-1.01,7.88.3,11.63-.8,3.28-.96,16.56-.79,20.1,1.55Z"/>
                <path class="cls-22" d="M497.94,163c-.24.13-.3.59.15.71,10.28.52,20.33,1.28,30.02-.09,1.79.84,4.54,2.64,4.61,4.99,0,1.3-3.06,2.2-4.51,2.56-12.91,3.21-25.19,6.37-37.57,10.44.47,1.92,1.97,2.59,1.78,3.86-1.2.24-1.43-1.93-2.22-2.17-2.71-.84-4.03-2.17-4.04-4.7l-.06-12.65c3.97-1.09,7.74-2.29,11.83-2.95Z"/>
                <path class="cls-157" d="M521.83,159.38c.27-.01.57.2.88.16-.26,1.53,4.59,1.5,5.41,4.1-9.69,1.36-19.75.61-30.02.09-.45-.12-.39-.58-.15-.71,7.94-1.28,15.81-3.32,23.88-3.63Z"/>
                <path class="cls-174" d="M526.74,130.46c7.71,2.45,21.44,16.87,21.17,26.93l-11.8-.92c-1.76-3.19-5.51-5.62-8.72-7.6-.5-.99-.52-3.02-1.67-3.29-6.09-1.46-4.4,1.24-16.59,1.17-1.08-7.14,2.8-12.84,4.71-19.05,4.26.73,8.99,1.53,12.89,2.76Z"/>
                <path class="cls-168" d="M508.26,124.79c6.53.4,13.11,3.08,18.48,5.66-3.9-1.24-8.62-2.03-12.89-2.76-.78-.13-1.53-.07-2.34-.12-12.68-.67-25.02,3.94-33.63,12.66-5.75,5.82-12.95,18.17-11.57,24.86-.36.16.28,1.08-.57,1.34-2.18.66-3.62-19.59,15.57-33.2,7.79-5.52,17.32-9.04,26.96-8.45Z"/>
                <path class="cls-198" d="M526.48,151.63c-.19,1.67.29,3.22.78,4.81-2.06,0-4.13.51-6.22.14-.86-.15-2.26-.24-3.12-.08-1.43-1.68-4.54-2.48-7.02-2.72,1.01-3.08,12.68-1.95,15.58-2.15Z"/>
                <path class="cls-159" d="M536.11,156.47l-8.85-.02c-.49-1.59-.98-3.14-.78-4.81.11-.98.89-1.76.91-2.76,3.21,1.98,6.96,4.4,8.72,7.6Z"/>
                <path class="cls-45" d="M511.5,127.57l-9.32,8.79c-6.32,5.96-11.38,13.17-13.09,20.91-6.7,1.8-16.72,5.5-22.79,7.82-1.38-6.7,5.82-19.04,11.57-24.86,8.62-8.72,20.95-13.33,33.63-12.66Z"/>
                <path class="cls-118" d="M513.85,127.69c-1.91,6.21-5.8,11.91-4.71,19.05-4.72-.03-7.41,4.5-10.34,7.03-.73.63-1.8,1.74-2.53,2.26-1.66,1.01-5.47.78-7.18,1.24,1.71-7.74,6.77-14.95,13.09-20.91l9.32-8.79c.82.04,1.57-.02,2.34.12Z"/>
                <path class="cls-154" d="M527.39,148.87c-.02,1-.8,1.78-.91,2.76-2.9.2-14.57-.94-15.58,2.15-4.49-.43-13.56,3.39-12.11-.01,2.93-2.53,5.62-7.06,10.34-7.03,12.19.08,10.5-2.63,16.59-1.17,1.15.27,1.17,2.3,1.67,3.29Z"/>
              </g>
            </g>
          </g>
        </g>
      </g>
    </g>
  </g>
</svg>