<?xml version="1.0" encoding="UTF-8"?>
<svg id="Ebene_2" data-name="Ebene 2" xmlns="http://www.w3.org/2000/svg" viewBox="0 0 161.32 161.38">
  <defs>
    <style>
      .cls-1 {
        fill: #faf9f6;
      }

      .cls-2 {
        fill: #d3005e;
      }
    </style>
  </defs>
  <g id="Ebene_3" data-name="Ebene 3">
    <polygon class="cls-2" points="161.32 .06 0 161.38 .23 65.32 65.54 0 161.32 .06"/>
    <g>
      <path class="cls-1" d="M47.52,78.05l4.91,8.67-6.2,6.2-18.37-34.53,7.85-7.85,34.65,18.25-6.44,6.44-8.83-4.75-7.57,7.57ZM49.76,66.86l-7.26-3.96c-2.04-1.1-4.47-2.59-6.44-3.77l-.08.08c1.18,1.96,2.79,4.36,3.89,6.32l4.04,7.18,5.85-5.85Z"/>
      <path class="cls-1" d="M47.8,39.16c1.84-2.55,4.51-5.61,7.54-8.63,5.02-5.02,9.18-7.38,13.66-8,4.79-.71,9.77.82,14.44,5.49,5.06,5.06,6.71,10.4,6.32,15.11-.47,5.1-3.61,10.44-8.79,15.62-3.1,3.1-5.49,5.1-7.18,6.4l-25.98-25.98ZM75.38,54.74c.63-.39,1.45-1.22,2.2-1.96,5.45-5.38,6-11.89-.31-18.21-5.46-5.53-11.58-5.22-16.72-.08-1.33,1.33-2.08,2.32-2.47,2.94l17.31,17.31Z"/>
    </g>
  </g>
</svg>