<?xml version="1.0" encoding="UTF-8"?>
<svg id="Ebene_2" data-name="Ebene 2" xmlns="http://www.w3.org/2000/svg" viewBox="0 0 55.43 55.43">
  <defs>
    <style>
      .cls-1 {
        fill: #334b27;
      }
    </style>
  </defs>
  <g id="begriff_erklärt" data-name="begriff erklärt">
    <path class="cls-1" d="M52.49,6.35c-.95-1.31-2.1-2.46-3.41-3.41C45.04,0,39.26,0,27.72,0S10.4,0,6.35,2.94c-1.31.95-2.46,2.1-3.41,3.41C0,10.4,0,16.17,0,27.72s0,17.32,2.94,21.37c.95,1.31,2.1,2.46,3.41,3.41,4.05,2.94,9.82,2.94,21.37,2.94s17.32,0,21.37-2.94c1.31-.95,2.46-2.1,3.41-3.41,2.94-4.05,2.94-9.82,2.94-21.37s0-17.32-2.94-21.37ZM28.98,44.11l-20.91-6.39c-1.42-.43-1.98-2.38-1.06-3.68L24.67,9.14l6.83,32.2c.36,1.71-1.02,3.23-2.52,2.77ZM49.01,30.7l-10.2,11.02c-1.14,1.23-3.03.6-3.4-1.13l-6.79-31.79,20.26,18.43c.96.88,1.02,2.51.13,3.47Z"/>
  </g>
</svg>