<?xml version="1.0" encoding="UTF-8"?>
<svg id="Ebene_2" data-name="Ebene 2" xmlns="http://www.w3.org/2000/svg" viewBox="0 0 55.43 55.43">
  <defs>
    <style>
      .cls-1 {
        fill: #334b27;
      }
    </style>
  </defs>
  <g id="Ebene_2-2" data-name="Ebene 2">
    <path class="cls-1" d="M52.49,6.35c-.95-1.31-2.1-2.46-3.41-3.41C45.04,0,39.26,0,27.72,0S10.4,0,6.35,2.94c-1.31.95-2.46,2.1-3.41,3.41C0,10.4,0,16.17,0,27.72s0,17.32,2.94,21.37c.95,1.31,2.1,2.46,3.41,3.41,4.05,2.94,9.82,2.94,21.37,2.94s17.32,0,21.37-2.94c1.31-.95,2.46-2.1,3.41-3.41,2.94-4.05,2.94-9.82,2.94-21.37s0-17.32-2.94-21.37ZM29.92,46.29c-.91.95-2.08,1.43-3.51,1.43s-2.5-.48-3.43-1.43c-.93-.95-1.4-2.1-1.4-3.44,0-1.41.47-2.58,1.4-3.52.93-.93,2.08-1.4,3.43-1.4,1.43,0,2.6.47,3.51,1.4.91.94,1.37,2.11,1.37,3.52s-.46,2.49-1.37,3.44ZM37.63,21.56c-.58,1.11-1.31,2.13-2.16,3.07-.86.94-1.7,1.87-2.51,2.81-.82.94-1.48,1.93-1.99,2.98-.26.54-.43,1.13-.52,1.76-.15,1.09-1.06,1.92-2.16,1.92h-3.31c-1.28,0-2.27-1.1-2.17-2.37.05-.68.18-1.32.39-1.93.43-1.27,1.02-2.42,1.78-3.45.76-1.03,1.55-1.99,2.37-2.86.82-.88,1.51-1.73,2.08-2.57.56-.84.85-1.69.85-2.54s-.16-1.5-.47-2.05c-.31-.55-.77-.95-1.37-1.23-.6-.27-1.3-.41-2.08-.41-1.05,0-2,.24-2.83.73-.38.22-.76.48-1.13.77-.83.64-2.01.59-2.79-.12l-1.59-1.45c-.97-.88-.95-2.42.05-3.27.96-.81,2.01-1.52,3.15-2.12,1.87-.99,3.95-1.49,6.25-1.49,2.07,0,3.94.35,5.61,1.05,1.68.7,3,1.79,3.97,3.27.97,1.48,1.46,3.37,1.46,5.67,0,1.44-.29,2.72-.88,3.83Z"/>
  </g>
</svg>