<?xml version="1.0" encoding="UTF-8"?>
<svg id="Ebene_2" data-name="Ebene 2" xmlns="http://www.w3.org/2000/svg" viewBox="0 0 268.42 268.42">
  <g id="Ebene_29" data-name="Ebene 29">
    <path d="M254.18,30.74c-4.6-6.33-10.17-11.9-16.5-16.5C218.09,0,190.13,0,134.21,0S50.33,0,30.74,14.24c-6.33,4.6-11.9,10.17-16.5,16.5C0,50.33,0,78.29,0,134.21s0,83.88,14.24,103.48c4.6,6.33,10.17,11.9,16.5,16.5,19.6,14.24,47.56,14.24,103.47,14.24s83.88,0,103.48-14.24c6.33-4.6,11.9-10.17,16.5-16.5,14.24-19.6,14.24-47.56,14.24-103.48s0-83.88-14.24-103.47ZM217.54,207.08c-5.57,4.7-12.36,9.35-19.91,10.22-19.44,2.24-38.58-1.78-56.35-9.71-40.15-17.92-73.26-58.27-89.92-98.14-10.2-24.41-2.17-48.11,19.49-61.96,7.82.68,18.28-2.18,21.26,5.32l14.95,37.67c.97,2.45.86,5.57-.69,7.71l-10.56,14.64c-2.06,2.85-2.17,6.05-.66,9.23,11.79,24.76,35.27,42.29,59.66,53.52,3.51,1.62,7.17,1.2,9.89-1.56l14.79-14.95c2.75-2.78,6.45-3.32,9.78-1.65l34.45,17.25c3.21,1.61,4.78,4.56,4.71,8.16-.19,9.34-3.61,18.09-10.89,24.24Z"/>
  </g>
</svg>